<?xml version="1.0" encoding="UTF-8"?> <svg xmlns="http://www.w3.org/2000/svg" id="Laag_2" viewBox="0 0 336.09 383.19"><defs><style>.cls-1{fill:#c0ddb3;}.cls-2{fill:#c6123a;}.cls-3{fill:#76ca0b;}.cls-4{fill:#620123;}.cls-5{fill:#e84255;}.cls-6{fill:#9c0122;}.cls-7{fill:#d75d7c;}.cls-8{fill:#f75869;}.cls-9{fill:#db1e48;}.cls-10{fill:#c3133f;}.cls-11{fill:#052715;}.cls-12{fill:#398626;}.cls-13{fill:#fa6677;}.cls-14{fill:#b9ef50;}.cls-15{fill:#f86e7f;}.cls-16{fill:#549161;}.cls-17{fill:#f1a5bb;}.cls-18{fill:#5f051d;}.cls-19{fill:#e3344f;}.cls-20{fill:#f0405b;}.cls-21{fill:#b91a47;}.cls-22{fill:#e52a4e;}.cls-23{fill:#6b0315;}.cls-24{fill:#f98b87;}.cls-25{fill:#f0344e;}.cls-26{fill:#fdd1d7;}.cls-27{fill:#fcd5c5;}.cls-28{fill:#bcdfa2;}.cls-29{fill:#6c041a;}.cls-30{fill:#d52446;}.cls-31{fill:#6b9d5e;}.cls-32{fill:#075915;}.cls-33{fill:#ee6e83;}.cls-34{fill:#ca263b;}.cls-35{fill:#80d10c;}.cls-36{fill:#f87280;}.cls-37{fill:#fb6871;}.cls-38{fill:#b8325d;}.cls-39{fill:#f85060;}.cls-40{fill:#8f021e;}.cls-41{fill:#560114;}.cls-42{fill:#f46c7f;}.cls-43{fill:#e53555;}.cls-44{fill:#84d112;}.cls-45{fill:#fa2d47;}.cls-46{fill:#e8364e;}.cls-47{fill:#ae0224;}.cls-48{fill:#f25f70;}.cls-49{fill:#d40126;}.cls-50{fill:#c12d55;}.cls-51{fill:#f0626c;}.cls-52{fill:#c7fa50;}.cls-53{fill:#590211;}.cls-54{fill:#307f0a;}.cls-55{fill:#c20835;}.cls-56{fill:#fba1aa;}.cls-57{fill:#e73850;}.cls-58{fill:#4c9453;}.cls-59{fill:#fdcfcf;}.cls-60{fill:#f8cfcf;}.cls-61{fill:#bf123e;}.cls-62{fill:#c10d22;}.cls-63{fill:#d10c30;}.cls-64{fill:#10660e;}.cls-65{fill:#5f0216;}.cls-66{fill:#f22041;}.cls-67{fill:#fcaea8;}.cls-68{fill:#7fbe6a;}.cls-69{fill:#e92f49;}.cls-70{fill:#fbf3ee;}.cls-71{fill:#d91f47;}.cls-72{fill:#720223;}.cls-73{fill:#fddcd9;}.cls-74{fill:#c9143b;}.cls-75{fill:#f89793;}.cls-76{fill:#d92a48;}.cls-77{fill:#f34962;}.cls-78{fill:#750314;}.cls-79{fill:#6e0317;}.cls-80{fill:#ee3858;}.cls-81{fill:#850222;}.cls-82{fill:#50a60a;}.cls-83{fill:#f45168;}.cls-84{fill:#e8062b;}.cls-85{fill:#8b011f;}.cls-86{fill:#e96d86;}.cls-87{fill:#f54a5a;}.cls-88{fill:#eaf8c8;}.cls-89{fill:#5a0513;}.cls-90{fill:#da6281;}.cls-91{fill:#31850f;}.cls-92{fill:#fcc9c5;}.cls-93{fill:#d1f09d;}.cls-94{fill:#fa6f77;}.cls-95{fill:#f9abb4;}.cls-96{fill:#f26276;}.cls-97{fill:#e73a55;}.cls-98{fill:#0b5f08;}.cls-99{fill:#a91f4c;}.cls-100{fill:#e97191;}.cls-101{fill:#480114;}.cls-102{fill:#fd838a;}.cls-103{fill:#f55a6f;}.cls-104{fill:#5eb116;}.cls-105{fill:#72011d;}.cls-106{fill:#a8021d;}.cls-107{fill:#f8b1ac;}.cls-108{fill:#e12441;}.cls-109{fill:#53a810;}.cls-110{fill:#bd2752;}.cls-111{fill:#4b9d0f;}.cls-112{fill:#710415;}.cls-113{fill:#c2ea6d;}.cls-114{fill:#10111c;}.cls-115{fill:#e84d6f;}.cls-116{fill:#eb85a2;}.cls-117{fill:#f8132f;}.cls-118{fill:#f56c77;}.cls-119{fill:#bd0223;}.cls-120{fill:#fb9191;}.cls-121{fill:#136112;}.cls-122{fill:#e1324e;}.cls-123{fill:#45011a;}.cls-124{fill:#ba2a51;}.cls-125{fill:#f8b0b2;}.cls-126{fill:#4a0115;}.cls-127{fill:#d50125;}.cls-128{fill:#3c890f;}.cls-129{fill:#2f7306;}.cls-130{fill:#680215;}.cls-131{fill:#2e8102;}.cls-132{fill:#67b707;}.cls-133{fill:#fc6474;}.cls-134{fill:#6ebc0d;}.cls-135{fill:#f0848b;}.cls-136{fill:#e63555;}.cls-137{fill:#4a9e0e;}.cls-138{fill:#f37580;}.cls-139{fill:#28780d;}.cls-140{fill:#600315;}.cls-141{fill:#630213;}.cls-142{fill:#dd2041;}.cls-143{fill:#286f39;}.cls-144{fill:#fdd6c8;}.cls-145{fill:#ce1840;}.cls-146{fill:#b4e697;}.cls-147{fill:#eef9ce;}.cls-148{fill:#de2746;}.cls-149{fill:#ee314a;}.cls-150{fill:#faaba9;}.cls-151{fill:#f83148;}.cls-152{fill:#196f0c;}.cls-153{fill:#fce3e7;}.cls-154{fill:#ec445e;}.cls-155{fill:#440116;}.cls-156{fill:#f8c7d3;}.cls-157{fill:#fccfc3;}.cls-158{fill:#f61133;}.cls-159{fill:#ad1d4f;}.cls-160{fill:#f59398;}.cls-161{fill:#ea4155;}.cls-162{fill:#d42044;}.cls-163{fill:#a5ed17;}.cls-164{fill:#660b1a;}.cls-165{fill:#fab6ac;}.cls-166{fill:#e25e88;}.cls-167{fill:#88d00e;}.cls-168{fill:#480116;}.cls-169{fill:#410116;}.cls-170{fill:#7bbe5f;}.cls-171{fill:#b00222;}.cls-172{fill:#fa8a8d;}.cls-173{fill:#a8113a;}.cls-174{fill:#eef8cb;}.cls-175{fill:#126c18;}.cls-176{fill:#398005;}.cls-177{fill:#ce3358;}.cls-178{fill:#96c97f;}.cls-179{fill:#e83247;}.cls-180{fill:#f63655;}.cls-181{fill:#fc727c;}.cls-182{fill:#a5db79;}.cls-183{fill:#4b9704;}.cls-184{fill:#e70929;}.cls-185{fill:#ef344c;}.cls-186{fill:#1a7017;}.cls-187{fill:#ce1d4a;}.cls-188{fill:#f35b6b;}.cls-189{fill:#d10323;}.cls-190{fill:#c61745;}.cls-191{fill:#840316;}.cls-192{fill:#fbb6b2;}.cls-193{fill:#9ae718;}.cls-194{fill:#a1ca8e;}.cls-195{fill:#fadfd6;}.cls-196{fill:#450116;}.cls-197{fill:#fac6bd;}.cls-198{fill:#fc9b98;}.cls-199{fill:#32041a;}.cls-200{fill:#da5a7b;}.cls-201{fill:#6bb90b;}.cls-202{fill:#e2f6b0;}.cls-203{fill:#d9486c;}.cls-204{fill:#f67d8d;}.cls-205{fill:#6d0214;}.cls-206{fill:#440315;}.cls-207{fill:#7bcb09;}.cls-208{fill:#1a6413;}.cls-209{fill:#680214;}.cls-210{fill:#550114;}.cls-211{fill:#5a0214;}.cls-212{fill:#121d1d;}.cls-213{fill:#358a09;}.cls-214{fill:#88cc13;}.cls-215{fill:#7ccc0c;}.cls-216{fill:#6ab051;}.cls-217{fill:#fd5762;}.cls-218{fill:#fab0b0;}.cls-219{fill:#570210;}.cls-220{fill:#ef254c;}.cls-221{fill:#fa2241;}.cls-222{fill:#620212;}.cls-223{fill:#69b90a;}.cls-224{fill:#e75d74;}.cls-225{fill:#ca305a;}.cls-226{fill:#fde7de;}.cls-227{fill:#f20d33;}.cls-228{fill:#b30420;}.cls-229{fill:#c41740;}.cls-230{fill:#ed3c58;}.cls-231{fill:#e02642;}.cls-232{fill:#fa9da5;}.cls-233{fill:#da1f45;}.cls-234{fill:#fc8d89;}.cls-235{fill:#fabdba;}.cls-236{fill:#b90322;}.cls-237{fill:#f9afac;}.cls-238{fill:#580319;}.cls-239{fill:#520211;}.cls-240{fill:#e23d57;}.cls-241{fill:#54af19;}.cls-242{fill:#700515;}.cls-243{fill:#7cbb6b;}.cls-244{fill:#f5a1ba;}.cls-245{fill:#fc4658;}.cls-246{fill:#500110;}.cls-247{fill:#b7224f;}.cls-248{fill:#d51e48;}.cls-249{fill:#f5b6bf;}.cls-250{fill:#bfe986;}.cls-251{fill:#5b0213;}.cls-252{fill:#dd173c;}.cls-253{fill:#368e0f;}.cls-254{fill:#ec525e;}.cls-255{fill:#77041e;}.cls-256{fill:#e50c2f;}.cls-257{fill:#700315;}.cls-258{fill:#e13453;}.cls-259{fill:#f9a6ad;}.cls-260{fill:#960a39;}.cls-261{fill:#177507;}.cls-262{fill:#9d0f41;}.cls-263{fill:#e82d4f;}.cls-264{fill:#fa9faa;}.cls-265{fill:#ec8fa7;}.cls-266{fill:#f75c6f;}.cls-267{fill:#a70224;}.cls-268{fill:#e95174;}.cls-269{fill:#470218;}.cls-270{fill:#ec314c;}.cls-271{fill:#f8737b;}.cls-272{fill:#e53257;}.cls-273{fill:#da0229;}.cls-274{fill:#c2eb89;}.cls-275{fill:#fa2242;}.cls-276{fill:#fcd1c5;}.cls-277{fill:#fa9da1;}.cls-278{fill:#91da14;}.cls-279{fill:#fbbab9;}.cls-280{fill:#480115;}.cls-281{fill:#470217;}.cls-282{fill:#d0ee81;}.cls-283{fill:#126915;}.cls-284{fill:#03511a;}.cls-285{fill:#f698a5;}.cls-286{fill:#f79ca6;}.cls-287{fill:#f86f7a;}.cls-288{fill:#d2143d;}.cls-289{fill:#690114;}.cls-290{fill:#f8495a;}.cls-291{fill:#cf2041;}.cls-292{fill:#fbbcb7;}.cls-293{fill:#f8304f;}.cls-294{fill:#fbd3d0;}.cls-295{fill:#ccf39c;}.cls-296{fill:#e74058;}.cls-297{fill:#fc364e;}.cls-298{fill:#800c21;}</style></defs><g id="Laag_1-2"><path class="cls-199" d="M114.55,56.44c-1.43,2.66-3.46,1.96-3-1-11.12-.97-28.38,5.52-38.55,10.66-20.45,10.33-38.03,29.51-47.68,50.19l-1.77,1.15.37,1.89c-6.23,14.98-11.35,30.35-15.37,46.11-2.5,34.31-1.43,69.3,3,103l1.31.86c1.21,6.48,1.78,13.01,2.1,19.62,3.77,15.31,8.68,30.72,15.34,45.12l-.76,1.4c2.65,1.62,4.92,4.12,6.82,7.5l17.18,19.5,1.68-.14c6.67,5.27,14.07,8.05,22.22,9.98,9.62,2.28,19.74,3.09,29.1,3.16,8.9-2.5,17.99-6.03,26.26-10.92,7.05.88,13.92-.96,20.17-4.92l2.57.84c-.33-2.86.55-3.6,3-2,11.77-4.68,22.77-10.68,33-18-.72-2.85,2.83-4.79,5-3,3.53-1.77,6.87-2.77,10-3,4.12-2.88,8.67-5.45,13.65-7.71,17.75-11.31,34.03-24.99,49.75-39.2l1.61-.09.57-2.1c30.19-30.82,48.42-71.76,33.86-114.6l.57-2.31-1.47-.19c-1.85-5.09-4.03-10.03-6.53-14.81-1.47,1.33-2.02.75-1-1,1.61-2.85,10.35-.79,10,3,5.38,3.81,11.31,30.62,11.87,37.63,4.75,59.01-43.26,105.43-87.98,135.76-13.91,9.43-29.31,15.3-43.57,23.43s-31.3,16.14-47.1,19.9c-9.73,2.32-12.76,5.15-21.22,7.78-24.34,7.58-54.71,1.61-74.02-14.99-23.53-20.24-32.25-47.56-37.71-77.29C-8.39,199.28-8.8,71.15,101.24,48.58c1.84-.38,3.9.9,3.31-2.14,3.51-.56,11.78,6.34,10,10Z"></path><path class="cls-114" d="M266.55,5.44c1.8,1.4,3.65,2.61,4.85,4.65,6.3,10.74-4.38,12.19-10.86,17.83-1.68,1.46-12.75,12.18-12.95,13.08-.42,1.85,3.21,2.78,4.45,4.45,3.82,5.15-.62,9.53-.48,14.98,8.03-2.22,16.44-.56,24.37,1.13,4.56.97,28.14,7.6,30.18,9.82,5.6,6.09-6.5,19.74-11.08,24.08-1.18,1.12-3.08.44-2.45,2.44,11.55,8.29,18.64,26.42,31.3,32.71,5.18,2.58,16.44,2.86,10.57,12.22-4.41,7.04-19.72,9.95-26.89,12.6-2.41-1.71-7.42-2.29-10-3-2.14,1.75-5.23,1.7-9.25-.13l-15.39-7.95c-9.62,37.67-38.15,24.16-51.36-2.92l-2.4-.75c-2.12-4.88-3.74-9.64-4.87-14.26l-20.71,10.14c-1.19.72-2.17,0-3.01-1.13-6.65,2.03-13.73,2.6-21.24,1.71-4.65,3.06-8.57.16-11.76-8.71-.57-.14-1.12-.33-1.57-.64-.9-.62-3.15-20.5-2.62-21.45.5-.9,1.23-1.53,2.19-1.91-.94-1.66-1.11-4-.5-7-.21.78-.52,1.91-1.15,2-7.15,1.06-18-.66-24.85-2-2.34-.08-4.84-.41-7.5-1-2.68,3.08-11.14-2.47-12.51-6.07l-3.49-2.93c-3.93.43-5.1-3.69-5-7-3.13-1.99-3.17-9.6,1-10,.71-2.5,7.59-7.84,10-6,.81-2.71,1.51-3.22,4.07-4.23-2.12-1.08-2.48-2.33-1.07-3.77-2.76-4.09-6.74-6.23-10-10-2.51-2.9-3.31-4.75-5-8-.64-4.27,3.05-2.92,5,0l1.43-.19c3.61,5.87,8.17,10.5,13.67,13.91l-.1,1.28c3.02,4.42,7.6,4.88,11,2-.63-2.77.21-3.19,2-1,3.01-.87,8.86-2.34,6,2-4.22,3.78-9.55,6.11-16,7,.22.59.35,1.08.21,1.18-4.29,3.19-10.65,7-15.21,8.82l.31,1.56c-1.52,1.26-1.62,3.41-.31,6.44l2.75.08c13.15,12.25,33.19,11.69,49.51,7.39l1.74,1.53c3.52-1.19,4.3.66,3,4,1.71,1.6,1.35,2.84-1,3,.69,2.85,1.39,7.27-2,9,2.25,1.14,2.11,3.89.52,5.39l-1.52,7.61c2.53,2.43,3.86,5.77,4,10,2.6-1.09,7.36,1.23,9.73,2.58l4.27-.58c14.94-1.79,27.1-7.81,36.49-18.07l1.51.07c2.01-4.14,5.11-3.65,4,1l1.56,1.92c-1.84,18.17,14.35,35.55,29.93,42.75l.51,2.33c11.15-7.71,15.34-22.88,14.76-36.06l1.24-.94c2.52-2.59,4.19-.26,5,7l1.47-.12c3.36,4.75,7.21,8.79,11.53,12.12,4.01.76,10.32,2.47,13,5l2.76-.84c9.71.51,21.51-1.83,28.24-9.16-1.7.39-2.7.05-3-1-3.62.29-13.8-2.91-13-7l-1.39-.08c-10.36-10.66-20.23-21.63-29.61-32.92-2.99-2.55-1.36-6.53,2-4l.46-1.24c7.35-2.33,14.94-10.56,15.54-17.76-6.09-.66-14.74-2.06-20-6-13.97-2.74-26.81-4.7-41-2-3-.08-3.56-2.62-1-4-.27-1.98.57-2.4,2-1,4.91-3.78,8.03-9.96,2-14-3.95,3.52-6.6,1.89-4-3,.4-3.23,4.09-7.45,7-9,.24-1.98,7.35-9.34,8.69-9.71.34-.1.81.24,1.31.71,2.9-3.08,6.38-5.58,10.44-7.51,4.37-2.54,3.78-6.32-1.75-11.33l1.31-2.16Z"></path><path class="cls-11" d="M266.55,5.44c.93,3.81,6.7,7.63,4.54,12-4.69,3.25-9.86,5.72-14.54,9l-1.17-.84c3.84-4,8.23-7.39,13.17-10.16l-2.06-.43c-3.5-3.96-7.81-7.15-12.94-9.57-7.27,5.82-13.62,12.59-19.06,20.31l-1.94.69c.4.5.68.94.55,1.17-1.49,2.81-4.46,7.09-6.36,9.82-.3.44-.72.76-1.19,1,1.47,3.1-2.45,7.01-5,9,2.03,3.41-2.28,10.95-5,14,4.37,6.28,9.26,9.77,11.56-.36l2.44-.64c2.44-6.28,5.77-11.61,10-16-.61,4.56.95,2.5,4,3,1.94,1.58,1.28,2.58-2,3-.17,3.5-1.65,7.11-4.42,10.84.92-.59,1.69.25,2.42,1.16.5,1.08.49,3.15,1,4l-.59,2.32c-3.45,1.47-6.59,3.36-9.41,5.68,1.94-3.16,13.65-3.2,15.5,0l1.54-1.97c1.79-.65,33.25,14.29,34.48,15.74.8.94,1.33,1.98,1.48,3.23,2.98-.74,3.64-.07,2,2-1.84.52-2.17,2.26-2,4-6.1-3.37-12.1-7.04-18-11l-3.23.66-12.07-4.92c8,6.21,16.15,16.65,20.87,25.63l-.57,2.63c2.63,4.62,4.24,9.54,4.82,14.75l-1.82,2.25c1.48,2.39,1.48,3.72,0,4-1.56-2.62-2.29-7.37-5-7-.51,0-.99-.04-1.39-.25-.49-.25-2.22-9.19-1.61-10.75l-1.09-.28c-1.58-4.58-3.55-9.13-6.91-12.72-.89-.28-.87-.62,0-1-6.86-5.23-13.53-10.9-20-17l-1.1.91c-2.3-1.57-4.6-3.21-6.9-4.91-1.75,2.3-3.12-1.47-2.9-1.5.62-.09,3.33,4.21-.1,4.5.89,9.52,1.52,18.95-1.42,28.15-.68,2.12-2.07,5.1-4.58,4.85-.7-2.18-2.31-2.37-4-1l-.99-.98,3.99-8.02-1.1-1.86c3.36-8.15,3.15-19.55,1.1-28.14-1.86,1.49-3.94.25-4-2-2.63,1.34-4.03-.47-3-3-1.61,2.17-3.71,1.88-4-1-17.95-.86-33.22,9.61-41.56,25.11l-2.44.89c.62-2.38-2.19-2.1-3-4-.59-.45-1.4-1.08-1.28-1.66,1.01-4.76,11-15.53,16.28-16.34-1.07-3.66,7.59-7.63,10-5,1.64-2.8,4.48-4.55,8.53-5.25-3.92-.64-6.76-2.22-8.53-4.75-5.2.09-11.64-.43-16-3-.85.28-1.71.37-2.6.38-10.39.08-16.37.95-26.5,2.68-1.09.19-2.08-.37-2.91-1.06-.84-2.59-3.84-2.08-6-2-.4-2.04.34-2.76,2.17-3.18l8.83-.82c1.3-3.04,7.7-3.44,10-1,2.18-1.4,5.18-1.4,9,0,1.3-2.77,3.72-2.81,5,0,6.93-.27,13.88.85,20.86,3.34l-9.63-5.5-1.23-2.84c-2.66.07-6.37-2.1-8-4-3.39-1.29-2.17-4.12,1-3,.12-2.67,1.06-2.49,2,0,3.82-1.29,11.53,2.36,13,6,5,1.47,9.15,3.34,12.78,7.19l.22,2.81c1.28-1.19,2.23-1.03,3.17.32,3.14-4.61,5.82-2.94,8.06,5.01l1.91-11.03c.83-.3,1.45-1.06,1.86-2.3,2.61-.15,2.69-.17,4.13-1.96,3.8-4.69,8.05-13.25,9.87-19.04,3.85-5.54,15.81-20.31,21.3-23.2,6.18-3.25,12.9.46,17.7,4.2Z"></path><path class="cls-212" d="M99.55,38.44c-3.12-5.99-6.41-12.02-4.78-19.29,2.39-10.66,14.01-.7,19.1,1.47,15.49,6.58,32.9,7.03,48.67,12.82-.2-7.91-.04-31.18,12.73-26.21,3.84,1.49,20.1,12.72,24.19,15.8,6.9,5.19,14.06,12.22,17.1,20.41l10.99-18.99c1.39,3.08-2.56,9.38-4.16,12.34-.97,1.8-3.27,3.01-4.09,4.91-1.6,3.73-.34,10.72-5.75,3.75-.28.87-.62.86-1,0-1.3-.18-2.19-2.71-2-4-10.62-11.95-25.07-20.56-38.17-28.26-4.23,6.87-3.65,15.79-1.14,23.24l-.69,1.02c.02.16-1.74,1.47-1,3-1.52.76-5.51-.31-6-2-14.23-2.12-28.6-5.03-42.64-8.5l-1.36-1.5c-5.63.08-12.44-4.07-16-8-.72.45-1.39.11-2-1l-1,7c2.95,1.24,4.85,8.97,4,12-1.74-.58-3.43-1.22-5,0Z"></path><path class="cls-72" d="M221.55,141.44c5.13,6.52,10.1,13.7,17.07,18.43s14.76,9.53,21.93,3.07c.93-.83,6.3-8.12,6.89-9.33,1.29-2.64,2.44-10.34,4.78-11.07,2.88-.9,11.35,5.82,15.35,7.38,3.71,1.44,6.62,1.59,9.98,2.52.32.34.63.72,1,1,2.61,3.08,3.28,5.75,2,8,2.98,8.05,3.84,15.73,2.57,23.06-2.34,1.9-5.51,6.55-3.57,8.94.86-2.08,1.51-3.12,3-1,1.44,1.36,1.76,3.4.97,6.11.79,4.64.13,7.94-1.97,9.89-1.04-.22-2.04-.56-3-1-.43-.05-.8-.15-.99-.38-1.37-1.8.65-19.61-.08-.54,1.38,4.58,2.07,8.89,2.07,12.93,3.17.73,2.88,7.97,0,9-1.56,2.15-2.24,1.62-2-1-.52-.51-.95-.88-1.06-.81-8.22,5.87-11.19,16.63-10.93,26.22l-1.01.59c1.73,4.34,1.59,12.97-4,14-2.32,2.35-5.8,4.82-5,0-1.96-.46-1.83-2.37,0-3,.42-1.2.16-1.96-.77-2.3,2.44-19.67-19.05-3.01-21.87,6.24l-1.36.06c-2.1-1.98-1.72-8.87-.18-11.28,3.81-1.08,2.45-4.02.26-6.34-.7,4.4-4.61,13.23-9.08,8.62l-.87-2.4c1-3.05,4.67-9.75,6.87-11.6-3.08-3.17-.48-12.9,4.02-14.58l7.75-1.47c1.81-1.86,3.55-2.84,5.23-2.94,2.84,1.55,2.82,7.44,0,9-2.28.58-2.45,2.44-.52,5.59l-.48,1.41,1.27-.08c5.28,7.26,11.77-.54,14.66-6.05,4.42-8.41,4.34-16.98.07-24.87l-1.35.46c-2.51-1.44-5.67-2.14-9.49-2.07-3.95-12.78,2.58-18.49,9.84-5.39l.42-1.29c8.6-2.59,12.84-19.21,6.58-24.71l-2.3-.13c-3.4-6.63-9.46-11.67-12.39-1.71l-2.32.84c-1.69-.62-3.07-2.35-4.13-5.2-6.59,2.31-12.84,2.52-18.87-1.8-5.19,2-23.57-16.62-23.42-19.44.03-.53.2-1.04.42-1.56-3.31-3.77-3.98-6.44-2-8Z"></path><path class="cls-153" d="M271.55,287.44c-2.64,1.11-2.54.04-1-2,.22-4.65,5.56-10.93,10-12,.81-5.92,6.59-13.8,12-17l-.88-2.31c4.34-4.82,6.93-10.22,7.78-16.21l2.09-1.48.66-3.55c-.78-2.91-.33-4.73,1.34-5.45,1.59-5.36,3.26-10.69,5-16l-1.19-1.02c2.28-7.9.97-14.45-1.46-22.06l1.66-1.92c-3.79-2.66-4.49-11.88-3-16-.76-2.75-.09-3.41,2-2,16.64,47.2-1.82,85.55-35,119Z"></path><path class="cls-70" d="M111.55,55.44l-1.44,2.08-8.56-.08c.23,2.97-3.16,4.45-5,2l-6,2c-.27.89-.6.87-1,0,.24,2.94-6.26,5.39-8,3l-3.18,3.64c-10.33,4.44-18.91,11.53-27.32,18.87l-3.5.49-.38,2.99c-8.02,7.58-14.6,16.46-18.85,26.69l-2.77,1.33c-1.39,2.44-2.55,1.65-2-1,14.18-29.11,34.85-51.55,67.24-60.26,4.49-1.21,14.16-3.79,18.37-3.67,1.99.06,2.04,1.74,2.39,1.93Z"></path><path class="cls-50" d="M131.55,357.44c-.09-4.69,11.37-11.46,15.8-12.19,5.07-.83,8.48.67,3.2,3.19l-1.17,2.12c-5.21,1.15-9.39,4.58-12.54,10.31l-2.29-.42.12,2.72c-11.02,6.98-23.6,13.17-37.11,11.29,3.49-.17,6.49.16,8.99.99-3.62,1.62-9.6,1.29-13.54,1.04-16.58-1.06-26.31-4.26-39.46-14.04-2.06-1.81-1.68-2.45,1-2l2.77-.46c8.96,6.23,19.27,9.08,30.94,8.56,12.26,4.76,24.86,1.41,34.7-6.89l8.6-4.21Z"></path><path class="cls-110" d="M196.55,311.44l.7,2.14c-17.29,21.62-2.06,19.32,10.97,6.1l2.33-.24c3.67-.83,3.67,1.84,0,8,1.45.88.78,2.21-2,4-.01,1.59-.79,2-2,1-2.73,2.34-6.06,4.01-10,5-1.51,1.23-3.32,2.03-5,3-1.07.94-11.18,8.53-11.8,7.45-.45-.78-.48-1.61-.2-2.45-1.94-1.67-.48-5.73,2-6,.26-1.86,1.03-3.6,2.29-5.22-1.14-7.15.6-14.45,5.47-19.96,1.82-2.06,5.19-5.79,7.25-2.82Z"></path><path class="cls-249" d="M9.55,165.44c.61.38,1.1.77,1.15,1.21.43,4.02.43,12.86-2.15,15.79,2.54,1.01,2.01,2.6,0,4l.68,2.17,4.29,71.51-.97,2.32c.97,3.56.63,5.56-1,6-1.42-4.15-2.32-9.27-2.87-13.63-3.37-26.64-3.73-63.1-.13-89.37.28-.87.62-.86,1,0Z"></path><path class="cls-156" d="M271.55,287.44c-15.67,15.8-44.52,39.25-65,47-2.26-.21-1.83-.87,0-2,.58-.24,1.27-.68,2-1,8.51-6.08,17.14-11.94,25.9-17.6l.1-1.4c.77-1.94,6.99-6.3,9-5,3.21-4.35,6.85-7.26,12-9l.32-2.9c3.24-3.47,10.44-9.79,14.68-10.1l1,2Z"></path><path class="cls-195" d="M25.55,118.44l.47,4.07c-2.45,9.33-6.61,20.87-11.47,28.93,1.05,3.49-2.18,11.71-5,14h-1c2.65-19.32,6.59-30.73,15-48l2,1Z"></path><path class="cls-265" d="M152.55,357.44c2.38-1.75,4.5.52,3,3-7.97,4.34-16.02,3.86-23.97,6.53s-15.53,9.05-25.03,8.47l-8.99-.99c6.1.37,12.5-1.26,18.27-3.24,6.54-2.24,14.18-5.79,18.73-10.77,4.62,4.41,11.35-.3,15.77-3.55l2.23.55Z"></path><path class="cls-86" d="M16.55,281.44l1.53,2.15c-.49,5.95-.23,13.45,3.99,17.98,2.04-3.58,3.86-4.29,5.47-2.13,2.63.15,2.5,1.13,0,2,1.7,1.45.71,3.91-2.98,7.37,1.09,2.96,1.08,5.17-.02,6.63,4.15,3.44,7.37,12.64,7,18,1.23,2.57.58,3.31-2,2-8.27-14.98-18.37-50.19-18-67,0-.31,2.02-4.09,1-6,4.49,3.61,6.2,13.38,4,19Z"></path><path class="cls-203" d="M42.55,347.44c2.95.42,5.58,2.62,7.91,6.59,2.74,1.93,4.1,4.06,4.09,6.41l-1,2c-10.24-7.62-17.68-15.56-24-27l2-2c5.11,1.38,8.9,9.11,11,14Z"></path><path class="cls-17" d="M191.55,340.44c-8.52,9.42-20.93,14.54-33,18-2.06-1.59-1.73-2.26,1-2-1.06-3.02,2.68-4.95,5-3l.32-2.25c5.26-.57,9.37-2.52,12.33-5.83l2.35.08c2.06,1.68,2.44.53,4.02-.44,2.72-1.66,5.27-3,7.98-4.56Z"></path><path class="cls-62" d="M111.55,55.44c.94.5,1.94.82,3,1,.27,2.3,4.86,1.22,3.99,3.49s-5.25,3.32-6.99,4.51c-1.5-3.25-4.66-4.81-9.48-4.67l-.52-2.33c3.03-1.05,6.77-1.84,10-2Z"></path><path class="cls-244" d="M306.55,168.44l-2,2c-2.68-1.42-4.02-4.42-4-9-.82-2.6-1.26-5.37-2-8,4.75,3.58,6.12,9.66,8,15Z"></path><path class="cls-166" d="M155.55,352.44c2.16-3.65,3.5-2.32,4,4-.37.26-.62,1.75-1,2-1.03.67-1.7,1.29-3,2l-3-3c-2.22-1.63-.54-4.92,2-5,.28-.87.62-.86,1,0Z"></path><path class="cls-116" d="M206.55,332.44v2c-2.88,1.09-5.98,3.7-10,3,4.61-3.76,4.1-2.56,10-5Z"></path><path class="cls-186" d="M229.55,106.44c2.42,2.29,4.04,5.57,4.85,9.84,2.41,3.31,3.46,6.37,3.15,9.16l2.6.11c8.49,9.77,11.97,12.19,7.24-3.39l1.16-3.71c-3.06.02-3.62-5.89-1-7-.4-2.92.26-3.92,2-3,.84-.2,1.58-.06,2.18.51,2.41,19.96,7.64,10.78,3.79-1.64-2.35-4.84-6.48-14.92,2.03-7.88.14.25-.14.74,0,1,3.81,4.46,7.01,10.1,7,16,6.68,14.07.98,35.65-12,45-.92-.1-7.06-3.39-8.32-4.18-12.14-7.59-28.36-27.8-23.68-42.82.56-1.79,2.37-4.17,3.03-6.47,2.65-9.17,3.73-16.86,2.97-26.53.57.37,1.11.77,1.56,1.25,1.89,2.04,3.37,20.25,1.44,23.75Z"></path><path class="cls-284" d="M270.55,110.44l2.07-.55c7.55,10.92,9.72.64.67-5.79l-14.09-13.15c-3.61-9.59,13.12,2.1,15.21,5.76,9.63,13.11,20.5,24.63,32.6,34.55,6.79,2.82,13.63,4.88,20.54,6.19,1.04.34,2.55-.69,3,1-2.91,4.11-9.16,6.41-14.01,7.74-4.16,1.14-10.75,2.74-13.99.26-4.25,1.33-11.39-.84-14-4-6.93-.94-12.97-8.48-15-15-.27-5.76-2.38-11.3-3-17Z"></path><path class="cls-64" d="M265.55,86.44c15.17,7.17,29.75,23.35,42,38.65,2.47,3.07,4.81,4.85,7,5.35,2.95,2.38,9.33,5.81,13,7-3.32,3.5-6.75-1-8.87-1.48-1.21-.28-2.79.64-4.36.3-19.21-4.13-31.06-29.93-45.76-42.33-2.18-1.84-6.6-5.89-9.01-4.99,7.65,7.1,16.37,13.27,21.85,22.23,1.02,3.62-1.98,5.65-5.35,5.39-1.26-.1-4.34-4.54-5.5-6.11-8.96-12.22-14.87-27.36-31.99-31.01.23-1.96,5.03-.98,6.26-.75,7.48,1.41,14.02,4.48,20.74,7.76Z"></path><path class="cls-283" d="M219.55,104.44c-5.86,17.61-24.3,24.76-41.75,26.34l.75.66c-4.56,2.24-10.27,1.5-14-2-1.53-2.33-2.11-4.08.65-5.47,15.34-3.77,29.12-10.28,41.35-19.53l-.17-2.77c6.56-6.94,11.92-15.14,11.31-25.06l1.86-2.16c4.55,5,3.62,21.02,1.75,27.29-.44,1.48-1.59,2.28-1.75,2.71Z"></path><path class="cls-208" d="M176.55,72.44c-2.85,2.33-9.4,9.45-12,12.5-1.16,1.36-2.44,5.09-3,5.5-.72.53-12.65,2.82-14.52,2.98-13.32,1.15-30.42-1.05-39.48-11.98-1.28-4.25-2.1-8,3.96-5.36,2.15.93,2.43,2.45,2.04,4.36l2.07-1.06c4.66,2.69,9.86,5.18,15.3,5.16,1-1.81,2.85-2.71,5.56-2.69l17.07-.41c.91-3.71,9.05-6.07,13-6-.87-3.92,10.14-8.03,10-3Z"></path><path class="cls-40" d="M221.55,141.44c.75,2.3.99,5.57,2,8-2.65-.09-4.65-2.09-6-6-2.19.36-4.2-1.47-6.02-5.49-10.39,7.25-23.73,8.19-35.98,8.49-1.07,1.92-2.93,2.29-5.59,1.09l-2.41.91c-3.22-2.76-3.31-12.56,2.74-11.34,7.16.93,13.92.38,20.26-1.66,5.66-1.29,22.15-11.15,23.45-11.04,4.62.36,2.97,5.57,3.84,8.26s2.75,5.8,3.72,8.78Z"></path><path class="cls-256" d="M105.55,87.44c3.17,2.15,5.53,4.2,5.52,8.22,11.94,5.48,24.65,8.61,38.14,9.4,1.2.16,2.1.71,2.99,1.5,2.2,1.95,3.85,20.85,2.68,22-.37.37-.84.64-1.33.89l-2.4-.82c-1.87-5.26-6.31-14.61-12.6-13.18-2.91-4.33-4.59-5.08-10.03-3.45l-1.97-1.55c-3.13-1.65-6.13-3.65-9-6-1.6,2.99-14.13-2.94-15.46-4.63l.46-2.37c-2.6,1.57-4.5-3.52-2-5-5.12-2.05-4.68-10.14,0-12,1.53,2.36,3.55,4.61,5,7Z"></path><path class="cls-151" d="M89.55,61.44c3.89,2.31,7.97,4.45,12.23,6.41l-.23,2.59c-1.84,3.12-.58,6.81-1,10-.78,5.91-3.31,3.73,0,12-3.75,1.82-15.43,2.63-15-3l-.41-1.36c4.03-2.74,6.17-5.62,6.41-8.64l-2-1.07c-1.81-10.2-18.43,1.18-22.6,5.34l-2.4-.27c-2.55-.21-2.54-1.59-2.15-3.87,1-5.73,9.92-8.38,14.98-9.48.65-2.75,1.56-4.23,4.16-5.65,3.04-1.27,4.84-1.96,8-3Z"></path><path class="cls-228" d="M121.55,96.44c11.35,1.48,22.58,3.24,33.69,5.28l.31,2.72c-.85,7.33-.11,16.95,2,24l2.94,5.55c6.12,6.19-2.05,8.73-6.94,5.45-.24-2.42-.66-4.97-1.28-7.64l1.28-2.36c-.08-5.98,1.87-18.26-3.43-22.07-1.06-.76-17.67-2.24-21.77-3.23-2.99-.72-17.78-5.57-18.88-7.36s-.42-4.12-.94-5.58c-.08-.24-2.04-2.21-2.98-3.76,3.26.61,5.41,3.86,8.1,5.4,1.25.71,6.57,3.13,7.9,3.6Z"></path><path class="cls-78" d="M190.55,135.44c-6.16,5.63-14.56.7-21.86,2.14-1.94,3.39-.71,7.38-1.14,10.86,2.72.86,2.79,2.18,0,3,4.2,4.55-11.33,16.83-14.01,16.21-.82-.19-1.5-.46-1.99-1.21-17.7,5.04-5.48-30.15.77-27.81.45.17.85.47,1.23.81,1.9-.8,5.81-.86,8-1.01-1.48-3.84-2.8-6.01-4-9.99,2.23,2.46,3.78,7.27,7.52,7.98,5.15.98,20.16.23,25.48-.98Z"></path><path class="cls-91" d="M206.55,104.44c-15.5,16.72-19.04,12.95-38.19,20.33-2.27.87-4.58,1.69-3.81,4.67-3.44-3.22-3.62-5.45-4-10l1.57-8.07c2.39-3.02,4.83-.12,5.05,3.25,1.86,1.02,4.46,1.86,5.82-.28l2.55.1c.3-.56.63-.54,1,0,2.64.3,5.61-.38,8.91-2.03,3.15-1.93,6.18-2.92,9.09-2.97-.21-3.47,9.35-6.8,12-5Z"></path><path class="cls-261" d="M143.55,50.44c-3.67,2.05-7.14,1.73-11,4-.53.31-1.03.15-2,1-.88,1.59-1.64,1.82-2,0-7.82,2.12-27.17-19.01-24.55-23.99.47-.9,1.64-.71,2.55,0l2.96.61c7.81,9.64,19.67,15.12,31.91,16.25l2.13,2.14Z"></path><path class="cls-147" d="M208.55,68.44l-1.73,2.42c-6.76.97-13.14,2.99-19.13,6.04l-2.14-.46c-.51,2.76-3.14,6.6-6,5,1.03,2.84-4.49,7.57-7,7,1.73,2.55-3.02,10.1-6,10-1.89,4.03-4.01,3.37-3-1,.35-1.01.52-1.91,1-3,7.14-16.26,25.68-30.23,44-26Z"></path><path class="cls-117" d="M111.55,64.44c-3.17,2.18-6.04,5.34-10,6-3.07-4.08-12.24-3.36-12-9,.3-.1.7.1,1,0l6-2c1.68-.52,3.33-1.42,5-2,3.95,1.96,12.22-.33,10,7Z"></path><path class="cls-146" d="M265.55,86.44c6.66,3.26,12.03,6.66,18,11,14.71,10.68,19.17,23.43,31,33-.94,2.46-2.67-.36-3.49-1.01-15.2-11.96-25.21-34.31-46.26-41.75l.76-1.24Z"></path><path class="cls-176" d="M181.55,61.44c1.39-2.37,7.86-2.98,6,1l-4.04,1.9c-14.2-.04-28.46,2.56-41.87,6.69l-2.08-.59c-2.93,3.89-8.4,5.67-13,4v1.38c-4.49.87-8.83,2.41-13,4.62-1.46-.96-5.01-4.95-6-3.99.23,1.75,1.36,3.44,0,4.99-2.84-3.42-3.08-5.11,0-8,1.15-1.23,1.91-.54,2,1,8.7-2.05,17.28-4.52,25.73-7.42l2.27,1.42c3.68-3.33,8.59-5.3,14.74-5.9,8.71-2.09,21.39-4.85,29.26-1.1Z"></path><path class="cls-174" d="M170.55,54.44l.28,1.34c-4.5-.11-8.92.1-13.28.66-2.91,2.26-6.65,3.51-11.22,3.73-4.25,1.69-8.18,2.11-11.78,1.27-.08,3.13-6.96,5.21-9,3-2.47.79-3.47.45-3-1,5.27-3.02,10.07-5.31,16-7,11.73-3.34,19.95-3.44,32-2Z"></path><path class="cls-1" d="M268.55,124.44c.87,6.86-.94,16.52-3.52,22.98-1.7,4.26-7.41,14.6-12.48,14.02,8.22-9.9,13.51-19.1,13.43-32.5-.02-4.19-1.25-8.37-1.43-12.5-.81-2.82-.47-3.82,1-3,.77,2.27,2.74,8.96,3,11Z"></path><path class="cls-12" d="M103.55,20.44c.63.64.63,1.31,0,2,3.68,3.08,4.68,6.08,3,9,.02.07-1.24-.14-.82,1.28,1.69,5.59,6.12,10.88,9.26,15.77l13.55,6.95c-1.67,3.99-7.19,1.04-9-2-5.09-3-12.09-9.9-15-15-1.6-2.81-4.04-8.85-4-12l1-7c1.88-.53,1.72.86,2,1Z"></path><path class="cls-104" d="M165.55,103.44c1.99-.06,3.78,1.38,5.37,4.34,3.23,1.12,5.11,2.68,5.63,4.66.62.8-.06,1.61-1,2-2.77,3.29-3.32,3.93-8.09,2.55-3.7-1.06-1.38-4.17-3.89-5.55l-3.01,7.99c-.41-4.98.34-8.52,1-13,.91-1.8,2.24-2.8,4-3Z"></path><path class="cls-255" d="M121.55,96.44c2.4-1.03,6.15,1,7.5,1h26c.31,0,1.41-1.38,2.49-1,.94,2.69-1.8,6.3-1.99,8-1.38-1.19-2.57-1.85-4.44-2.05-8.09-.85-22.02-3.31-29.56-5.95Z"></path><path class="cls-31" d="M219.55,104.44c-.68,1.89-2.41,7.95-3,9-6.08,10.81-26.16,17.98-38,18-1.22,0-5.07.79-4.99-.99,13.96-.87,27.39-5.2,38.04-14.47l7.96-11.54Z"></path><path class="cls-175" d="M241.55,50.44c8.76-5.35,5.51,8.4,0,11-.66.32-1.32.75-2,1-1.65.6-4.51,2.22-5.99,1.51,2.51-4.98,4.48-9.28,7.99-13.51Z"></path><path class="cls-182" d="M281.55,68.44c.95.97.28,1.31-2,1l-2.63,1.36c-10.3-2.38-20.76-3.5-31.37-3.36-.63,3.52-6.52,2.68-5-1,15.14-4.95,26.44-1.6,41,2Z"></path><path class="cls-194" d="M330.55,138.44c1.27,4.79-14.97,9.62-18.51,9.99-3.28.34-9.23.37-12.49.01-1.45-1.32-.45-1.99,3-2,9.66,1.15,20-2.97,28-8Z"></path><path class="cls-28" d="M301.55,74.44c.54.25,2.22-.51,1.98.48-1.51,5.53-11.47,20.3-17.98,18.52-.14-.04-.94-1.34-2-2l.9-2.48c6.01-2.18,10.55-6.4,13.54-12.03l2.56-.49c-1.54-1.99-1.47-2.07,1-2Z"></path><path class="cls-143" d="M288.55,142.44c1.13,1.28.46,1.61-2,1-8.22-4.16-8.24-3.97-13-12-.04-1.33.06-2.67,0-4,4.17,4.97,9,12.09,15,15Z"></path><path class="cls-58" d="M246.55,35.44c-2.78,3.03-4.66,5.68-7,9-3.59,5.1-6.76,10.49-10,16-2.05-3.78,2.42-11.13,4.76-14.95s5.43-7.53,8.53-11.02l2.71-.04c1.41-1.33,1.92-.77,1,1Z"></path><path class="cls-178" d="M243.55,47.44c1.66.27,3.35.3,4.88,1.12.83,1.29-.99,8.76-1.99,10.27-1.52,2.31-3.17,1.78-4.9,2.61,1.21-3.35,8.52-12.47,0-11,.76-.91,1.29-2.05,2-3Z"></path><path class="cls-216" d="M301.55,74.44c.08.92-.69,1.42-1,2-2.87.47-8.88,1.11-10-2-3.94.51-10-.92-11-5l2-1c5.72,1.41,14.93,3.6,20,6Z"></path><path class="cls-16" d="M302.55,146.44l-3,2c-5.46-.59-8.53-2.74-13-5l2-1c2.14,1.04,11.7,3.73,14,4Z"></path><path class="cls-68" d="M268.55,15.44c.02,3.51-11.13,5.68-12,11-4.74,3.33-6.11,4.77-10,9l-1-1-.78-2.13c2.93-4.23,11.91-14.8,16.78-13.87-.69-2.88,4.8-3.92,7-3Z"></path><path class="cls-113" d="M125.55,64.44c-1.68,5.18-10.47,8.78-16,10-.85-.05-1.73-.04-2-1,2.83-2.65,11.33-7.89,15-10l3,1Z"></path><path class="cls-295" d="M163.55,97.44c-.34,3.29.55,1.44,3,1,2.53,1.42,1.86,4.27-1,5-.31,1.1-1.57,2.28-1.01,4.01l-2.99-1.01c.48-3.27.89-5.82,2-9Z"></path><path class="cls-11" d="M128.55,55.44c.56-.14,1.36.09,2,0-.52.46-.63,2.52-1.15,2.82-2.59,1.48-9.66-1.02-9.85-4.82,4.53,2.67,3.38,3.42,9,2Z"></path><path class="cls-44" d="M219.55,74.44c1.26,13.14-4.77,21.13-13,30-3.52,2.01-8.73,3.36-12,5-2.58,2.04-10.37-1.68-10-5,1.73-5.39,6.63-10.98,11-15,3.58-7.24,10.77-14.1,18.13-17.5.45-.21,1.13.08,1.87.5.84.55,1.61-.63,4,2Z"></path><path class="cls-32" d="M240.55,66.44c1.05,1.76,3.21.83,5,1l8.63.28c8.5,5.56,22.06,9.09,31.84,6.18l4.53.54c3.17.46,7.31-.84,10,2-4.3,7.95-8.22,11.82-17,15-10.89-6.81-20.16-9.76-31.7-14.79-3.46-1.51-.95-2.21-5.8-2.21h-15.5c-.8-3.94,6.54-6.87,10-8Z"></path><path class="cls-132" d="M117.55,29.44c1.89-.35,3.81-.03,4,2l14.19,5.78,1.81,3.22c5.77,2.35,11.41,4.91,16.93,7.66l-.93,1.34c-3.13,0-6.17,1.16-10,1-14.24-.61-28.72-7.28-37-19-.95-3.01-2.08-5.95-3-9,4.67,1.35,10.1,4.6,14,7Z"></path><path class="cls-163" d="M212.55,69.44l.89,1.51c-5.04,3.77-9.87,8.06-14.51,12.86l-1.38-.38c-2.86,4.2-10.32,13.04-15.22,13.93-5.79,1.06-10.3-3.73-9.78-8.93,3.38-4.76,3.59-3.84,7-7,1.49-.72,2.77-.2,3.83,1.55-.05-2.63.67-4.82,2.17-6.55.28-.17.62-1.2,1.71-1.75,7.05-3.58,13.69-4.58,21.29-6.25,1.2.28,2.99.55,4,1Z"></path><path class="cls-98" d="M258.55,16.44c1.18-3.54,5.5-.94,3,2-4.51,2.73-12.19,11.74-16,16-9.24,10.32-10.84,13.26-16,26-1.45,3.59-3.4,7.12-4.01,11l-10.54-6.02c-.78-1.26.37-2.76.55-3.98,1.7-2.64,4.2-4.88,7.49-6.73,1.47-4.48,3.65-7.24,6.51-8.27l-.66-2.55c3.84-6.84,11.63-17.39,18.66-20.45-1.78-3.42,8.61-10.94,11-7Z"></path><path class="cls-167" d="M187.55,62.44c3.5.75,1.15,3.6-1,5-3.61,1.43-6.9,2.47-10,5-2.32-1.69-7.54,1.68-10,3-8.25.06-16.57-.3-24.96-1.09-2.69-.54-4.01-1.73-2.04-3.91.27-.08,1.27-1.34,2.71-1.75,14.76-4.23,29.81-6.93,45.29-6.25Z"></path><path class="cls-214" d="M229.55,78.44c3.64,2.02,5.88,4.24,8.27,7.49,2.63,3.58,7.06,11.67,5.73,15.51,4.1,11.76-8.53,11.7-14,5-1.72-8.5-1.55-16.82-3-25-.29-1.64.19-3.31-1-4.99,1.82-.5,2.53,1.38,4,1.99Z"></path><path class="cls-207" d="M159.55,39.44c5.3-.2,13.2,1.79,16,6,1.6,5.12-4.14,4.88-8,4-1.66-.04-3.34.06-5,0-8.6-1.85-16.94-4.85-25-9-5.58-2.82-10.91-6.36-16-9,9.45.53,19.84,2.6,29.34,4.83,3.45.26,6.34,1.32,8.66,3.17Z"></path><path class="cls-109" d="M257.55,99.44l-4.01-1.49c3.21,6.11,7.88,16.44,4.06,23.04-5.24,9.05-7.13-9.59-8.05-12.55-.81-.33-1.51-.72-1.82-1.32-1.65-3.21-10.2-20.96-10.4-22.44-.1-.72.03-1.48.22-2.24,8.47,4.81,14.76,8.12,20,17Z"></path><path class="cls-213" d="M193.55,38.44c-6.67-.03-13.73-18.21-3.22-10.53l8.07,9.14c.49-1.97,1.54-2.84,3.15-2.61,2.92-.14,7.25,5.11,8,8,1.52-.19,2.43,2.1,1,3,2.02,4.32-4.09,5.57-7.8,4.97-.53,2.45-1.55,3.82-4.2,3.03-4-3.37-8.43-7.46-13-10l1.29-1.8c6.89,1.35,8.97,1.04,6.26-.96l.45-2.25Z"></path><path class="cls-201" d="M247.55,23.44c-5.7,5.66-13.31,16.21-18,23-1.48,1.72-7.3,2.69-9,1,1.81-3.88,1.55-5.63,5-9l7.99-11.34,2.01-.66c-1.38-1.3-.78-1.87,1-1,1.89-3.44,8.75-5.41,11-2Z"></path><path class="cls-93" d="M210.55,41.44c1.13,1.4.64,1.94-1,1-2.47-3.48-5.19-5.22-8-8l-2.54.31c-8.07-6.18-16.36-12.09-24.87-17.75l-1.33,5.11c-.31,3.2-.73,6.31-1.26,9.33,2.42.74,3.19,4.17,1,6-.41-.19-1.4.13-2,0-.15-1.3-2.15-4.46-2.55-6.94-.51-3.19.51-20.04,4.97-19,.52.12,6.89,5.31,8.66,6.36,13.02,7.76,19.57,10.78,28.92,23.58Z"></path><path class="cls-121" d="M198.55,53.44c2.75-2.3,2.7-4.79,2.01-8,2.64,4.35,7.08,4.1,9.99,0,.53-.24.96-.4,1.04-.29,1.17,1.49-1.15,2.04-.09.59.17-.23.57-.29,1.05-.29h1c.82,2.22-1.73,17.01-3.5,16.98-2.73-1.02-3.61-8.15-4.52-8.98-3.05-2.78-.77,3.45-1.49,4.01-2.41-.29-3.92-2.69-5.49-4.01Z"></path><path class="cls-82" d="M193.55,38.44c9.45,7.8-2.06,6.12-8,5-4.06-2.26-8.75-4.02-13-6-.87-1.93-.66-4.1-1-6-.61-6.35,2.21-6.46,4.18-.76,3.12,5.33,9.63,7.59,15.58,6.34l2.24,1.42Z"></path><path class="cls-128" d="M177.55,44.44c3.9,1.94,7.7,3.69,11.31,6.19,1.88,1.3,5.6,3.27,5.68,5.81l-26.99-7c4.62.8,5.53-1.81,8-4-.97-1.14-.31-1.48,2-1Z"></path><path class="cls-253" d="M229.55,46.44c-1.83,2.64-3.47,8-5.42,10.08-1.58,1.69-6.28,3.75-8.58,4.92.99-6.53,2.46-8.56,5-14,3.44-1.8,5.17-2.19,9-1Z"></path><path class="cls-54" d="M237.55,82.44c5.04,8.38,9.1,16.62,12,26l-2,3c-3.13-1.36-4.46-4.69-4-10-3.59-9.13-6.63-16.03-14-23,3.72,1.54,4.65,2.1,8,4Z"></path><path class="cls-139" d="M268.55,15.44c-1.5,2.32-5.98,2.38-7,3-.47-1.48-1.48-2-3-2-2.61-2.76-4.27-5.76-5-9-2.13-.29-1.94-1.2,0-2,4.67-.4,14.97,5.33,15,10Z"></path><path class="cls-241" d="M186.55,57.44c5.77,1.4,11.34,3.8,17.01,5.5-6.02.33-11.46,2.3-17.01,4.5l1-5c-1.09-1.68-4.11-.97-6-1-2.7-.99-1.82-3.18,1-3,.49-.7,1.83-1.04,4-1Z"></path><path class="cls-202" d="M253.55,5.44c-.13.59.2,1.65,0,2l.56,1.58c-5.35,5.76-11.2,11.23-17.56,16.42-.3.14-.67.7-1,1-1.99,1.62-2.99,1.62-3,0,3.52-5.13,14.74-20.47,21-21Z"></path><path class="cls-183" d="M215.55,72.44c-8.18,4.28-14.12,9.99-20,17-.41-.31-.4-.65,0-1-1-.89-.33-2.55,2-5,2.97-2.62,4.44-5.31,6.96-7.54s7.61-3.05,8.04-6.46c1.41.63,1.91,2.28,3,3Z"></path><path class="cls-282" d="M186.55,57.44c-.57,1.38-2.8,1.17-4,1-4.53,1.38-9.66,1.4-15.39.05-3.97.47-7.17-.21-9.61-2.05,3.33-2.75,9.67.75,13-2,5.36.64,10.77,1.73,16,3Z"></path><path class="cls-14" d="M235.55,26.44c-2.49,2.27-5.23,8.79-7.55,10.99-.99.94-2.31.88-2.45,1.01.84-4.74,4.41-8.23,7-12h3Z"></path><path class="cls-274" d="M169.55,40.44c2.99,1.17,5.23,2.62,8,4-.4.74-1.7.74-2,1-4.44-3.56-10.59-4.67-16-6-.28-1.27,1.05-1.6,4-1,1.91.64,4.24,1.31,6,2Z"></path><path class="cls-243" d="M265.55,113.44c-1.23.53-1.05,1.88-1,3-1.79-5.84-4.06-10.72-7-16,4.41,2.72,6.4,8.3,8,13Z"></path><path class="cls-129" d="M162.55,49.44c-2.98-.11-6.02,0-9,0-.96-4.2-8.75-4.59-12.24-6.27-1.66-.8-2.81-2.25-3.76-2.73l25,9Z"></path><path class="cls-88" d="M119.55,28.44c14.12,4.16,29.19,5.01,44,10l-4,1c-12.51-3.07-25.52-4.69-38-8-1.32-.68-2.67-1.31-4-2-.91-.95-.25-1.28,2-1Z"></path><path class="cls-250" d="M119.55,28.44l-2,1c-.63-.33-2.74-.33-4.35-1.11-3.43-1.66-6.53-3.74-9.65-5.89-.13-.45-.77-.92-.86-1.51l.86-.49c5.05,2.6,10.5,6.38,16,8Z"></path><path class="cls-170" d="M212.55,45.44l-.5,2.01c-.36.05-1.22-1.48-1.5-2.01-.39-.73-.33-2.06-1-3l1-1c.93,1.28,2.11,2,2,4Z"></path><path class="cls-250" d="M100.55,26.44c.24-2.19-.9-5.58,1-7,1.11,2.24-.99,6.11-1,7Z"></path><path class="cls-4" d="M242.55,259.44c.8-.59,2.53-.02,4.05-1.72,1.64-1.84,3.47-6.74,2.96-9.29,4.15-.79,6.86,4.91,6.04,8.3-.27,1.13-2.96,1.31-3.55,2.63-.36.81.6,2.75.34,4.31-.31,1.89-.6,3.05-.84,4.77l1.09.49c-2.08,6.33-2.71,11.55-.09,17.51.31-.85.64-.84,1,0,4.4,1.11,3.07,3.77-4,8,1.95,2.16.45,3.61-2,2-1.39,2.44-2.55,1.65-2-1-1.8-.39-2.32-1.62-1.57-3.68l-1.43-1.32c-1.58-.61-2.29-2.01-2.12-4.21-5.82-5.9-13.33,5.39-16.4,10.18-.36.56-1.61.29-2.47.03-3.26,2.72-1.19,10.91,1.69,14.3.08,3.75-8.59,7.65-10.16,2.78l-1.53-.08c-4.47-2.02-8.5-2.02-13.24-.45l-1.76-1.55c-6.04,1.97-10.61,10.42-11.04,16.55-.4,5.72,2.62,6.83-3.96,11.45l-1.32-.41c-1.97-5.93-8.7-1.99-12.25.79l-2.43-.39c-3.42,3.08-6.05,6.93-7.88,11.57l-2.12,1.43h-1c-1.61-1.13-2.94-2.46-4-4l1.53-1.99c-8.56.64-14.22,6.05-20.53,10.99-3.52,2.15-18.11,9.65-17.84,1.34,2.17-2.22,7.05-7.36,3.84-9.34-1.39-1.24-2.34-3.19-2.85-5.85-2.49-.62-4.21-1.67-5.15-3.15-1.46-8.32,15.57-5.06,18,0l.94-.91c7.88,1.28,19.5-4.54,20.06-13.09-1.83-1.34-2.55-3.72-2.16-7.12-1.34-1.95-1.62-3.57-.84-4.88l.37-1.35c5.82-.62,9.6-5.19,11.33-13.7,1.72-3.33,7.15-8.23,9.29-3.95,1.33,1.35.74,2.95-1.77,4.81l-.23,2.19c2.33,2.14.15,8.12-2,10-5.39-.05-.1,4.48,2,6-1.01,3.76,5.68-.03,7.69-1.33,2.15-1.39,3.48-2.6,5.31-4.31.56-.52.32-1.56,0-2.36l-1.19-1.88c3.27-5.78,2.12-14.3-6.09-12.5l-1.72-1.61c-.33-2.39,1.33-3.62,4.96-3.67l6.23-.2c1.64-2.45,2.94-3.15,5.82-3.12,1.84-1.44,6.29-.29,7,2-1.72,2.62,2.99,1.29,4.77.59,5.97-2.34,9.19-7.7,11.65-13.27l1.57-.32c.06-4.74.74-6.41,5.3-8.61,2.58-10.78,7.82-5.78,12.31-.07l3.39-.32c.21-1.73,1.57-3.06,4.06-3.98,2.6-3.53,4.92-4.87,6.94-4.02Z"></path><path class="cls-81" d="M269.55,177.44l1.39.21c1.05,7.17,3.33,13.61,6.83,19.33,2.14.73,3.4,1.88,3.78,3.45,1.5,1.56-.72,3.12-2,4-4.59-.07-4.27-6.88-9-6,.89,1.67-.35,9.63,0,9.99.26.27,5.53-.31,7.32.2s1.88,2.06,2.68,2.8c1.11,1.68,1.15,2.5-1,2-8.85,2.17-10.22,3.22-11.94,11.59-.18.86-1.14,1.27-2.06,1.41-2.73,7.47-10.71,4.73-13.59,6.91-2.19,1.66-2.57,8.85-3.41,12.09-.5,1.74-2.32,2.34-4,2l-1.93-1.39c.42-6.39.54-11.25-7.38-9.82l-1.68-1.79c-2.51-1.97.12-3.9,2.46-4.83,7.03-.56,9.15-5.06,10.27-11.32l2.27-2.85c.13-2.6,1.37-5.33,3.72-8.2.65-3.4,1.74-6,3.28-7.8l1.42-7.87c6.08-.53,10.29-10.86,4.08-12.73-5.06-1.43-12.72-3.89-14.5-8.41,2.11.73,5.45,2.02,7.47,2.11,8.97.42,13.23-7.93,15.53,4.89Z"></path><path class="cls-41" d="M286.55,178.44c.83.03,1.54.3,2.1.91,2.22,2.45.11,23.78-7.1,21.09-9.7-.13-10.7-15.73-12-23,3.6-13.91,12.38-8.84,17,1Z"></path><path class="cls-280" d="M279.55,213.44c3.23-.35,3.9,5.17,4.24,8.09.87,7.39-5.4,24.69-14.25,23.85-1.62-.16-4.61-2.62-2.99-3.94-2.7.05-4.23-4.95-1-6-.18-2.8-.14-6.18,0-9,.29-5.95-.43-7.53,4.98-11.52,2.75-2.03,5.68-3.91,9.02-1.48Z"></path><path class="cls-267" d="M223.55,149.44c7.06,8.15,12.3,17.31,23,21,2.4,4.79,18.54,5.46,19.91,9.66-.68,1.84-1.9,9.75-2.34,10.41-.82,1.2-4.02.56-5.64,2.35s-.97,4.94-2.92,6.58c-2.27-.87-2.62-6.02,0-7-1.98-.08-4.91-7.9-5.44-10-.38-1.49.26-2.47,1.15-3.59-6.04-4.24-11.94-8.71-17.71-13.41l-2.41.32c-3.73-2.81-15.46-16.07-15.26-20.43l1.67-1.89c1.49,1.79,4.45,4.21,6,6Z"></path><path class="cls-238" d="M299.55,228.44c3.93-.36,2.88,5,2,8-.39,10.05-4.39,12.78-9,20-3.23,3.27-5.23,3.6-6,1-2.84-9.77.88-24.76,9.69-30.51.23-.15.73.12,1.31.51.52.4,1.65.61,2,1Z"></path><path class="cls-18" d="M307.55,186.44c2.56,13.03,3.09,11.29,1,25-.9,5.24-2.57,7.24-5,6-.37,2.72-1.07,2.52-2,0-2.51-.47-4.15-7.77-3-10-.04-2.36-.67-3.48,1.99-3.01-.46,1.78.46,2.69,1.01,4.01,6.1.46,3.87-9.91,1.75-13.87-.36-.66-.56-1.4-.75-2.13-.29,0-2.11.81-3,1-1.97-4.33,4.56-14.36,8-7Z"></path><path class="cls-159" d="M280.55,211.44c9.13,8.42,4.91,23.5-3.01,31.49-6.01,6.06-8.4,6.09-12.99-.49-1.11-2.58.18-3.04,2-1,.46.76.52,1.53,1.65,1.85,11.84,3.36,17.35-25.47,11.35-29.85l1-2Z"></path><path class="cls-99" d="M275.55,264.44c-.94-.18-1.61-.85-2-2-1.51-.8-2.35-2.52-2.52-5.17-10.92-.71-20.05,16.32-16.48,26.17,1.03,1.54-.51,2.94-2,3-5.33-1.59-1.61-13.62-1-18,3.99-6.1,6.98-12.21,14.1-15.4,11.99-5.36,11.79,2.2,9.9,11.4Z"></path><path class="cls-225" d="M248.55,245.44c-1.45,5.62-2.9,9.02-6,14-4.37,3.21-5.4,6.28-11,8-3.3,1.35-8.61-1.12-4-3l1.11-2.08c6.43-2.08,10.96-7.02,13.58-14.83l2.31-.09c.97-1.81,1.83-2.43,4-2Z"></path><path class="cls-124" d="M304.55,170.44c1.71,5.61,1.92,10.49,3,16-5.61-2.44-7.55,1.95-8,7-1.01.22-2.59,2.3-2.01-.5.91-4.38,4.68-9.07,4.81-13.99.16-5.57-3.28-12.1-1.8-17.51.86,2.75,3.38,6.98,4,9Z"></path><path class="cls-177" d="M273.55,262.44c2.13-.24,2.24-.13,2,2-.18.89.24,2.29,0,3l1.26,2.04c-2.93,4.53-6.35,8.52-10.26,11.96-2.01,2.07-6.08,5.82-8.71,6.75-2.32.82-3.34.51-4.29-1.75-.35-.03-.74.08-1,0-.42-1.45.81-2.44,2-3l.52-2.46c7.47-3.48,14.76-8.51,16.25-17.18l2.22-1.36Z"></path><path class="cls-76" d="M301.55,208.44c.21-5.34-.73-10.86,1-16,7.02.16,5.15,15.11,2.51,19.01-1.73,2.55-3.08-1.98-3.51-3.01Z"></path><path class="cls-247" d="M286.55,178.44l3.01-1.47c3.5,7.35.43,27.63-10.01,27.47-.71-2.74.78-2.72,2-4s2.85-1.99,3.87-3.63c2.61-4.21,3.14-14.09,1.13-18.37Z"></path><path class="cls-33" d="M286.55,257.44c1.58.36,4.17-1.18,6-1-4.07,6.37-7.26,11.09-12,17-2.43,1.79-3.73-.74-2-3-1.05-.91-.38-1.91,2-3,2.73-4.64,3.41-8.9,4-14,.99-.44,1.66.89,2,4Z"></path><path class="cls-38" d="M297.55,227.44c-1.02,1.41-4.5,3.46-6,5.5-5.04,6.92-5.22,16.29-5,24.5-1.43-.33-.66-3.3-2-4,.3-2.61-.03-5.11.45-8.06,1.48-9.09,6.11-16.17,13.06-21.94,1.27.67.1,3.16-.5,4Z"></path><path class="cls-268" d="M303.55,217.44c3.5,2.39,1.84,6.86,0,10-.17,2.99-.01,6.58-2,9,.1-2.61-.2-5.99-2-8-.24-2.9.34-6.18,0-9-.09-2.84.57-3.51,2-2,.53-.2,1.62.21,2,0Z"></path><path class="cls-99" d="M280.55,267.44c-.6,1.02-1.3,2.04-2,3,.84,3.97-7.84,12.76-12,12-.55-.3-.54-.64,0-1,1.72-1.52,8.29-11.91,9-14,.82,1.88,3.47.33,5,0Z"></path><path class="cls-124" d="M298.55,207.44c.69,3.46.98,6.95,3,10-1,.37-1.64.99-2,2-.48-3.98-2.76-9.22-2.98-13.52l.97-8.48c-.63,3.64.36,6.75,1.01,9.99Z"></path><path class="cls-81" d="M265.55,235.44c.14,2.2-.28,3.87,1,6l-2,1c-3-4.3-3.41-3.66-1.99-10l2.99,3Z"></path><path class="cls-177" d="M280.55,273.44c-3.24,4.05-6.33,8.31-10,12-4.18,4.21-10.34,8.98-15,13-3.19,2.39-5.86,3.06-8,2-2.82-.53-2.57-3.21,0-4,.05-.13,1.35-1.01,2-2,5.31-4.2,11.09-8.54,17-12,3-2.87,9.39-8.41,12-12l2,3Z"></path><path class="cls-285" d="M303.55,227.44c.19-3.31-.13-6.69,0-10,2.94-1.64,2.94-3.86,5-6-.89,5.83.89,11.51-5,16Z"></path><path class="cls-184" d="M47.55,87.44c3.24-1.75,3.14,2.33,2.89,5.09l-1.21,7.68c6.57-.92,11.26,4.93,4.32,7.23-11.65-4.2-21.16,13.58-19.36,23.52l-1.64,1.48c-2.93,3.55,5.7.36,7.78-.76l1.22.76,2.09.97c-.84,4.29-1.14,8.52-.9,12.69,4.51-1.04,6.79-.26,6.81,2.34l-.48,1.54c-10.21,1.74-14.05,9.48-16.52,18.46-.99,1.06-1.41.64-1.25-1.28.59,3.06,0,5.15-1.75,6.28-1.77,2.26-8.28,3.85-11,3-1.04.19-1.04-.48,0-2-2.1-2,.34-5.06,3-4,2.29-1.92,3.62-4.59,4-8-2.26-.85-2.19-3.15,0-4l-.99-.76c2.54-9.97,1.74-12.73-7.73-5.78l-2.27-.46c3.6-11.57,6.17-21.84,11-33,6.05-13.98,10.93-20.66,22-31Z"></path><path class="cls-290" d="M81.55,64.44c-2.11,1.3-1.34,5.96-2.19,6.8-2.54,2.51-17.26,1.11-14.81,12.2,1.42,2.17-.46,9.18-3,10-.23.86-.57.84-1,0-1.53-3.51-3.2-4.17-5-2,2.65,2.6,4.39,3.93,8.29,4.67l.71,1.33.81,2.69c-4.3,6.37-7,13.2-8.34,20.78l-2.47,1.53c-1.82-.98-2.49-3.31-2-7-2.55-1.47-1.73-6.89,1-8,.13-.96,1.91-3.03,1-5h-7.01c-1.62-1.62,2.91-12.56,0-15,9.54-8.91,21.82-17.89,34-23Z"></path><path class="cls-151" d="M96.55,59.44c-1.66.51-4.22,1.39-6,2l6-2Z"></path><path class="cls-105" d="M138.55,314.44l.1,2.24c-6.11,4.09-11.24,12.52-7.95,19.82l-1.15,1.95c-.17.95-.84,1.62-2,2-5.79-1.05-14.37-6.42-18,0l-.8,2.1c-17.41,8.36-8.18,30.79,6.52,7.88l2.28-.98c1.29-.64.17-3.55,2.49-3.01,1.19.28-.49,7.82-1.04,8.95-.88,1.81-3.83,2.5-3.44,5.05,5.62.81,10.52-2.31,16-2.99-11.74,9.19-19.57,16.79-36.51,15.01-2.65-.28-4.79-1.71-7.07-1.93-15.49-1.48-19.96-.06-33.42-10.08-5.53-4.11-8.02-8.12-12-13-6.26-9.38-6.16-13.71.28-12.98,5.64,3.05,11.22,4.04,16.72,2.98l1.62,1.5c-4.54,21.59,15.36,14.78,13.57-1.18l1.81-1.32c2.22-.31,3.61,1.36,4.17,5,.68.42,13.86-2.13,15.71-2.81,6.69-2.48,10.64-6.25,14.81-11.32l14.41-4.75,4.53-6.08c2.22-2.33,6.62-5.7,8.38-2.04Z"></path><path class="cls-206" d="M150.55,348.44c1.32-.08,2.68.03,4.01,0-.09,1.31.15,2.7,0,4-.18,1.5-1.1,3.81-2,5-2.48,3.28-18.13,12-18,3,5.15-5.65,6.31-11.38,16-12Z"></path><path class="cls-169" d="M211.55,313.44c3.3.75,2.12,5.47-1,6-1.81,5.44-17.41,14.8-22.06,11.56-4.35-3.03,5.15-16.97,8.06-19.56,3.88-1.27,14.29-3.76,15,2Z"></path><path class="cls-269" d="M181.55,339.44c-.09,2.39-.77,4.03-2,6-4.37,7.01-9.19,5.65-15,8-8.85,1.02-4.15-11.81,1-14,4.26-4.92,16.36-9.32,16,0Z"></path><path class="cls-260" d="M221.55,296.44l1.39,2.25c-1.19,7.54,3.58,12.3,9.61,13.75-1.45,2.31-4.03,4.05-7.72,5.24-2.52,4.49-9.35,10.04-14.28,9.76-2.56-1.34.56-4.06.86-5.79.25-1.39-.87-2.1-.86-2.21.18-1.94,1.27-3.82,1-6,3.03-5,2.77-.41,3.94.53.93.74,5.74-2.27,5.99-2.62.58-.82-1.67-3.83-1.88-5.46-.27-2.07-.46-7.94.42-9.48,1.19-2.1,1.42.08,1.53.03Z"></path><path class="cls-200" d="M234.55,312.44c3.62,1.48.77,2.9-1.09,4.42-7.24,5.9-16.41,10.87-24.91,14.58.74-1.03,1.25-3.23,2-4,2.94-3.01,8.56-5.14,11.57-8.94,1.27-1.6,1.34-3.88,1.49-4.04.1-.11,1.27.93,1.71.68,2.87-1.61,3.67-1.58,7.23-2.7-.08-1.76,1.81-1.85,2,0Z"></path><path class="cls-236" d="M9.55,186.44c2.15.53,3.1,2.24,2.84,5.14,5.19-2.58,14.26-6.74,18.86-1.45.9,1.04,1.81,3.69.29,4.3l-1.18.69c-10.75-2.87-12.71,11.97-11.87,19.86l-1.95,1.45c.68,3.52,2.68,6.18,6,8,1.49,1.51.96,3.59.46,5.45,4.71,6.47,9.15,14.87,9.09,23.15-.03,4.01-.52,14.33-5.55,9.4l-1.18-.76c1.2-2.45,1.6-4.86,1.18-7.24-3.04-.43-1.56-5.93-1-8-.05-6.53-6.95-1.21-8,2.96-1.54,6.14.02,13.16,5,17.04.44.59.1,1.26-1,2,5.32-.08,9.04,2.5,9.92,8.08.95,6.47,1.92,12.93,2.9,19.38l11.1,3.84c1.72,1.05,1.02,2.12-.92,2.7-.59,2.39-4.9,2.34-7,2-2.14,2.72-3.13,1.69-4.35-1.04-2.95.5-4.84-.15-5.65-1.96.16-.55-.16-1.44,0-2l-1.58-1.79c2.74-6.17,2.45-30.49-7.1-16.57l-2.32.37c-.14-6.54-2.96-12.77-4-19-3.88-23.18-4.53-52.45-4-76,.28-.87.62-.86,1,0Z"></path><path class="cls-89" d="M25.55,158.44c-1.31,4.03-3.01,1.81-2-2-.98-.45-1.31-2.11-1-5-4.21,4.91-7.54,10.24-10,16,.07,1.95.76,4.36,2,6,2.83-2.59,4.19.03,2,3-1.35,2.76-4.83,7.51-8,6,.21-6.11-.11-10.82,1-17,.7-3.87,2.65-10.97,5-14,2.07-2.67,8.69-6.95,12.07-4.56,3.15,2.22-.69,8.95-1.07,11.56Z"></path><path class="cls-154" d="M18.55,176.44c1.11,2.86-5.93,12.39-9,10h-1c.03-1.33-.05-2.67,0-4,2.76-1.77,5.62-3.75,8-6-.7-2.49-.04-3.16,2-2v2Z"></path><path class="cls-281" d="M242.55,290.44c2,.85,1.51,2.87.84,4.56l2.16.44,2,1c-.32.9.22,2.85,0,4,.54,2.39-.8,4.73-4,7-2.77,1.58-5.96,4.05-9,5-.54.17-1.46-.17-2,0-8.61,2.41-13.96-8.79-11-16,.74-.26,1.73-3.83,2.54-4.96,4.79-6.63,20.04-15.92,18.46-1.04Z"></path><path class="cls-224" d="M255.55,298.44c-5.23,4.52-5.68,5.41-12,9,1.3-1.97,2.08-5.68,4-7s5.71-1.61,8-2Z"></path><path class="cls-85" d="M190.55,267.44l1.4,1.92c-2.77,5.55-5.23,10.54-4.32,16.91l-2.08,1.18c-.38,3.45-1.16,1.17-2.66,2.29-.75.56-.81,2.15-1.97,2.56-3.79,1.34-6.69-.99-12.38,2.15.36,2.68.05,2.71-2,1-10.31.42-8.12,13.53-14.41,18.05-2.18,1.56-4.25.81-6.59.95-.86,3.01-5.97,2.8-7,0-8.83.83-7.87,8.25-13.02,10.48-3.73,1.61-11.44,2.16-15.3,5.45-1.03.88-.72,2.54-1.68,3.53-.74.76-9.29,5.75-10.71,6.33-6.11,2.48-12.19,1.31-17.8,4.18-1.92-2.79-1.46-4.69-3.49-7.97l-2.29.19c-3.34-4.45-9.77-4.46-12.47.67l-2.24.14c-3.73,7.67-17.66-3.44-20-.99-1.88,1.97,5.05,7.4,3,10.99-3.51-4.31-8.11-8.95-11-14-3.16-5.53-5.18-11.85-7-18,2.92-7.19,7.29.66,9,5,2.74-1.15,4.01,2.06,2,4-1.02,8.02,7.85,7.75,14.35,3.31l19.73.75c3.9-1.81,8.13-2.48,12.68-2.03l11.84-6.33c6.48-.91,12.61-2.81,18.4-5.7-.58-1.9,5.67-5.67,7.7-6.59.28-.13.76.17,1.3.59,1.31-1.82,2.97-3.29,5.11-4.03,13.95-3.47,28.29-8.04,38.26-18.67,6.91-2.74,12.89-6.46,17.96-11.18,1.89-5.82,4.45-8.2,7.68-7.12Z"></path><path class="cls-140" d="M27.55,299.44c-3.35-.13-3.52,6.76-7.5,3-3.76-3.55-5.18-16.09-3.5-21,1.52-4.44,7.5-10.15,10.87-4.37s1.99,15.95.13,22.37Z"></path><path class="cls-106" d="M27.55,301.44c1.97.19,4.56-.48,6.37.15,1.6.55,1.28,3.63,3.63,2.85.65,2.1.14,4.68-1.52,7.74.03,3.86-.8,6.61-2.48,8.26-4.85-.48-2.75-8.26-9-5-.66-2.22-2.61-4.44-1.85-7.28.37-1.37,4.36-5.06,4.85-6.72Z"></path><path class="cls-50" d="M165.55,339.44c-2.91,3.36-6.77,11.42-1,14-.51.2-4.34,2.53-5,3-3.02.63-1.85-1.49-2-4.01h-2c-.27-4.43,4.62-8.62,7.38-12.14.95-1.21.39-3.07,2.62-.85Z"></path><path class="cls-134" d="M247.55,111.44c.6,2.18.55,4.91,1,7,1.09,5.37-7.1,9.99-11,7-4.94-6.64-6.38-11.02-8-19,7.62,1.42,13.4,7.03,14-5,1.22,3.1,3.04,6.52,4,10Z"></path><path class="cls-111" d="M248.55,118.44c1.26,5.89,3.62,11.8,2.99,18-5.56-.64-10.77-6.67-13.99-11,3.38-.84,9.91-3.09,11-7Z"></path><path class="cls-223" d="M139.55,70.44c.7,2.3,2.58,1.93,4.44,2.06,7.51.53,15.48.15,22.56,2.94-5.97,3.21-6.07,3.87-13,6l-15.59.31c-3.98-.52-13.09-2.39-11.41-7.31,4.36-1.33,8.56-2.73,13-4Z"></path><path class="cls-137" d="M126.55,74.44c6.36,7.55,18.47,4.67,27,7-8.42,2.59-13.88,1.48-20.31,3.02-.89.21.04,2.09-3.12,2.08-5.17-.02-12.3-3.31-16.57-6.1-.64-5.42,8.94-4.76,13-6Z"></path><path class="cls-273" d="M217.55,143.44c1.19,8.58,10.55,15.83,16,22,10.79,6.83,12.35,12.08,1.68,19.86-4.49,6.66-3.7,14.81-2.82,22.36-.46,6.65-7.86,18.99-14.86,15.79-1.08-.37-1.75-1.37-2-3l-1.89-1.18.09-13.4c-1.22-7.88-13.45-1.01-14.85,4.53l-2.35.05c-.74,1.77-1.08,3.77-1,6,2.99.68,2.6,4.69,0,6,.51,9.2-5.17,12.5-12.89,7.16-6.46-1.33-10.78,2.72-15.11,6.84.8.97-.78,2.89-2,3-2.59,3.53-7.13,6.12-11.39,7.37-3.34.98-10.39,2.44-11.61-1.37-2.62-.48-2.48-1.04,0-2-2.56-1.41,0-5.34,2.8-5.35,3.83,3.72,9.68,1.72,13.84-.52-1.61-3.65-1.78-7.38,1.3-10.37l29.7-15.89c4.45-8.11,9.71-13.23,18.27-17-.7-4.64.32-7.94,3.08-9.89-.16-2.26.97-4.8,3.37-7.63.9-3.66,2.44-6.12,4.63-7.37-1.2-2.2-2.2-2.54-3-1-.28.87-.62.86-1,0l-1.3-.48c-.32-25.61-19.15-14.11-17.08,4.27l-1.63,2.2c-.84.2-1.18-.47-1-2l-1.92-1.75c.39-13.61-.88-20.36-15.8-21.96l-1.29-2.29c11.81-4.36,25.52-1.97,35.57-10.96,1.86-.45,4.99,6.22,6.43,7.96Z"></path><path class="cls-275" d="M175.55,146.44c5.32,1.05,16.93,3.02,17.94,9.56.58,3.75,1.41,12.85,1.06,16.44.9,4.51.55,8.27-2.58,11.9-1.85,2.15-10.94,8.8-13.42,7.1l-.94-1.66c.28,3.47-1.52,4.98-3.06,1.66-2.97-.25-2.58-2.13,0-3,.37-3.31-.96-6.11-3.82-7.78l-.18-2.22c-1.43-4.9-3.56-9.71-6.4-14.45l1.4-2.55-.79-1.15c2.9-3.16,3.83-6.11,2.79-8.85.18-.86-.12-2.05,0-3l1.01-4c2.36,1.99,4.55,1.52,6.99,2Z"></path><path class="cls-67" d="M100.55,92.44c.39.98,1.85,4.77,2,5,3.18,3.91-5.86,12.03-8,6-1.57,1.24-3.6,1.02-6.11-.65-2.53.57-4.16.12-4.89-1.35l-.53,2.25c-4.23,1.69-9.96,6.08-12,10.01-4.6,8.86-.51,12.35,8.53,9.73l.57-2.12c5.11-2.06,9.5-5.62,12.17-10.47l2.26-.4,2.26-.53c4.08,2.17,14.49,8.56,12.74,13.53l1.22.6c-2.42,8.1-1.16,12.57,3.78,13.4l1.8-2.3c7.64-1.3,14.06-5.58,18.36-12l2.84-.7c3.71.33,2.84,6.49-1,6,2.42,2.22-4.39,8.85-7,7l-.2,2.58c-5.63,2.67-11.59,4.49-17.9,5.44-7.73,5.72-15.13,3-14.9-7.02-6.82-5.37-16.43.94-21.57,6.95l-2.43.05c-1.88,1.93-4.53,3.1-7.94,3.5-3.79,6.53-7.04,8.18-9.06-.5-3.96-5.79-4.01-17.72-1-24,1.23-4.39,1.86-8.67,3.52-12.98s4.39-8.01,6.48-12.02c.1-.81.4-1.57,1.07-1.7,6.96-1.34,12.75-2.61,18.68-7.04l1.25.74c3.7,3.93,10.18.69,15,3Z"></path><path class="cls-293" d="M153.55,129.44c1.5,4.48,2.81,5.38,0,10-1.11.46-5.67,4.86-6.45,6.05-3.38,5.15-6.01,23.57,4.45,20.95.91,2-.43,2.56-2,1-9.03,4.41-13.85-5.23-9-12-.06-5.71,1.27-11.19,3.92-16.28-2.47-3.14-5.31-5.96-8.53-8.46l.61-2.25c2.12-2.97.82-4.92,1-6-2.97-.99-2.03-6.52,1-7,.26-1.06,1.23-2.72,1.5-4,7.97,5.66,10.39,8.71,13.5,18Z"></path><path class="cls-181" d="M117.55,104.44c5.37,2.56,4.27,6.88-3.3,12.95-1.2,3.29-2.76,5.31-4.7,6.05-3-6.76-10.26-7.64-15-13-2.85-.87-2.87-5.81,0-7,4.28,1.64,6.18-2.55,8-6,1.62,2.5,11.87,5.93,15,7Z"></path><path class="cls-29" d="M138.55,115.44c-.47,1.92-.65,4.87-1,7-5.46,8.84-12.68,13.68-23,15-7.64-.12-4.39-12-2.05-16.9,2-4.19,9.48-13.79,14.05-10.1,5.27-1.48,12.72-2.95,12,5Z"></path><path class="cls-263" d="M117.55,104.44c4.31,1.47,8.46.69,9,6-6.47,1.81-11.27,6.65-13.48,13.02-1.56,4.49-3.65,11.05,1.48,13.98-.77.1-1.68,1.3-3.28.86-4.48-1.25-2.73-11.28-1.72-14.86.23-.8,2.12-5.2,2.57-5.94,2.71-4.52,10.33-7.08,5.43-13.06Z"></path><path class="cls-242" d="M91.55,79.44c-.3,5.57-9.07,10.81-14.23,13.16-3.87,1.77-14.13,5.77-15.77.84.03-3.24,1.01-7.39,3-10,4.95-6.5,27.56-19.32,27-4Z"></path><path class="cls-157" d="M85.55,89.44c-4.99,3.69-14.86,7.82-21,8-3.99.12-9.25-1.18-9-6,1.49-3.8,3.16-3.13,5,2,.28.11.69-.1,1,0,10.12,3.28,24.2-5.76,30-14l1.99-1.01c-.15,4.49-4.54,8.46-7.99,11.01Z"></path><path class="cls-150" d="M167.55,151.44c4.86-.58-.04,7.69-2,10,.49,3.42-4.75,7.58-8,7-1.34,3.43-7.79,4.97-10,2-3.24,3.76-5.84-3.34-.85-2.54l2.85-.46c.8-.31,1.41-.76,2-1,7.09-2.92,14.19-6.35,16-15Z"></path><path class="cls-69" d="M148.55,160.44l1.02-2.94c4.35-2.26,7.23-6.15,9.98-10.06-2.7-1.25-2.71-2.75,0-4,5.91.65,3.85,7.76,1.87,11.37-1.56,2.83-11.39,12.09-12.87,5.63Z"></path><path class="cls-271" d="M148.55,160.44c-.37-1.63-.17-6.55.21-8.3.55-2.53,2.03-2.6,2.79-3.7,2.45.21,4.08-.36,5.94-2l2.06,1c-.25,6.65-5.64,9.84-11,13Z"></path><path class="cls-92" d="M159.55,143.44c-.03,1.33.05,2.67,0,4-2.51,1.68-6.14,5.14-8,1,2.26-3.28,2.33-5.62,8-5Z"></path><path class="cls-104" d="M194.55,109.44c-.25.13-.72,1.42-1.63,1.83-5.69,2.59-12.25,5.88-18.36,5.67.9-.65,1.33-1.68,2-2.5,1.86-3.78,4.46-7.74,8-10l10,5Z"></path><path class="cls-131" d="M195.55,89.44c-3.66,4.36-7.44,10.3-11,15-2.56,3.38-5.35,6.69-8,10h-1c.42-.49.58-1.46,1-2,.17-5.22,6-12.58,9.71-16.83,2.36-2.7,6.12-6.69,9.29-7.17v1Z"></path><path class="cls-3" d="M195.55,88.44c-7.56,6.63-12.84,16.02-19,24-6.32-1.75-8.09-3.31-11-9,.42-1.52.35-3.38,1-5,1.27-3.16,4-7.18,6-10,4.09,3.22,2.59,7.88,9.41,6.98,3.64-.48,12.32-9.09,15.59-11.98l-2,5Z"></path><path class="cls-52" d="M185.55,76.44c.66,6.76-.48,13.26-6,5,2.38-2.2,1.84-2.51,6-5Z"></path><path class="cls-193" d="M157.55,56.44c9.11-.6,16.27.78,25,2l-1,3c-17.02-.24-27.97,2.53-44,7l-2.06-1.24c.56-2.3.25-4.22-.94-5.76,7.46-2.43,15.09-4.48,23-5Z"></path><path class="cls-215" d="M134.55,61.44c4.87-1.09,2.57,3.24,3,7-10.78,3.01-15.59,6.72-28,6,4.81-2.88,11.15-7.71,16-10,2.64-1.25,6.18-2.08,9-3Z"></path><path class="cls-152" d="M279.55,69.44c3.81,1.07,9.9,4.84,11,5-2.86.89-7.57,2.95-10.38,2.92-2.35-.03-15.22-2.44-17.88-3.16-7.09-1.9-6.57-5.82-16.74-6.76,10.53-3,23.52-.94,34,2Z"></path><path class="cls-278" d="M258.55,16.44c-3.53,0-8.55,4.56-11,7-2.75.08-8.72.94-11,2,1.68-7.8,14.09-12.8,17-18,2.76,1.62,6.61,5.96,5,9Z"></path><path class="cls-35" d="M201.55,34.44c-3.49,13.12-9.09-5.73-15.99-7l7.99,11c-8.4,3.05-19.51-1.59-21.01-10.99l-.99,3.99c-.59-3.28-1.24-4.27-.87-8.39.14-1.59,1.23-9.55,3.36-8.61,1.12.49,4.82,4.43,7.2,5.8,10.15,5.86,11.56,5.53,20.31,14.19Z"></path><path class="cls-6" d="M233.55,234.44l-.04,2.63c-6.87,5.51-12.34,18.02-5.38,25.03l-.59,2.35c.8,1.41-2.02,3.92,4,3-9.62,2.96-7.17-5.38-11.47-3.98-1.97,1.05-1.56,4.1-2.45,5.33-1.57,2.17-3.75.6-7.08,7.65-1.33-.47-2.33-1.47-3-3l-1.95-1.46c.33-9.61-7.24-7.25-13.03-3.48l-2.02-1.06c-6.04,4.14-3.55,6.07-7.5,10-5.14,5.12-11.86,6.79-17.04,9.96-2.43,1.49-5.28,5.51-8.58,7.42-10.36,6.01-25.05,8.23-35.89,13.61-1.92-1.09.18-4.58,2-4,.07-3.29,1.7-3.73,4.66-4.4,7.89-.46,14.67-2.99,20.34-7.6l.34-2.07c5.83-2.78,10.28-7.95,11.22-14.43l1.45-.5c-3.5-5.74,2.52-6.48,7.21-5.29,3.62-.43,14.06-8.55,15.79-12.71-1.36-1.39-.76-1.94,1-1,2.04-3.23,5.46-4.51,10.26-3.87l.79-2.44c15.8-3.04,28.95-9.05,33.75-25.82-1.47-6.17,4.01-11.36,8.2-5.87,1.91-1.76,7.65-4.16,10-3-.02,4.15-1.87,10.73-4.96,13.54-2.32,2.1-5.43,1.56-8.01,3.03-1.24.71-1.51,2.03-2.03,2.43Z"></path><path class="cls-168" d="M207.55,273.44c.62.14,1.13.32,1.28.67,1.99,4.69-10.67,20.75-16.28,15.33-2.71.36-4.99-.15-7-2,.29-2.68-.27-5.38.24-8.27.65-3.66,3.5-8.18,4.76-11.73,8.29-5.67,17.84-7.41,17,6Z"></path><path class="cls-155" d="M145.55,314.44c4.15,3.67,2.77,7.16,3,12,.27,7.3-13.05,15.9-19,12-5.38-7.81,1.4-20.06,9-24,2.29-.22,4.69.14,7,0Z"></path><path class="cls-126" d="M109.55,340.44c6.41-.38,8.85,2.54,8,9-1.25,9.48-21.08,20.66-20.05,5.53.44-6.49,5.05-14.12,12.05-14.53Z"></path><path class="cls-123" d="M177.55,310.44c1.22,3.85-9.94,11.27-13,8-5.6,2.08-8.31-7.22-4.48-8.99,1.48-.69,2.01,1.92,2.48,2.99,5.54,1.41,12.18-5.99,11.19-11.21-.05-.25-3.83-2.06-4.19-1.79.2,2.66-1.56,3.71-4,3-.28.87-.62.86-1,0-.04-.15-2.32-.84-1.98-2.4.06-.3,3.54-4.23,3.98-4.6.47-.39,1.38-.66,2-1,11.62-3.54,14.07,8.37,9,16Z"></path><path class="cls-162" d="M169.55,299.44c10.5-4.24,6.58,11.1-2.05,14.45-4.39,1.71-3.88.96-4.95-1.45-1.39-2.32,2.15-9.51,2-10h1c3.83,1.53,4.63.32,4-3Z"></path><path class="cls-61" d="M245.55,295.44c-2.85,3.36-2.07,7.6-5.5,11-2.78,2.75-7.61,4.38-11.5,3.99,3.42-7.37,13.06-11.1,14-19.99,3.11-2.34,3.27,2.09,3,5Z"></path><path class="cls-21" d="M207.55,273.44c3.24-.29,3.29-.24,3,3-.89,1.88-.92,3.79-2.36,6.15-3.78,6.19-11.15,11.18-18.64,9.85-.69-2.04,1.59-2.48,2.99-2.99,1.76-.64,3.68-.29,5.92-1.58,4.09-2.35,8.78-9.7,9.08-14.42Z"></path><path class="cls-85" d="M127.55,340.44c-.29-2.77.13-1.76,2-2,9.28-1.18,14.14-3.6,19-12,0,.17,1.1,1.11,1.1,2.47,0,5.02-10.92,11.8-15.68,12.49-3.12.45-4.12-.54-6.42-.96Z"></path><path class="cls-262" d="M177.55,310.44l2.99.48c-1.98,4.86-13.44,12.87-18.31,11.41-1.28-.38-1.93-1.57-1.68-2.88,1.75.52,2.8-.6,4-1.01,4.62-1.54,10.1-3.64,13-8Z"></path><path class="cls-173" d="M266.55,281.44v1c-5.04,4.83-9.52,10.17-17,12,.21-.31.03-1.28.55-1.95,1.52-1.96,6.18-2.35,3.45-6.05,1.74.14,3.32.05,5-.47.89-.28,7.4-4,8-4.53Z"></path><path class="cls-101" d="M233.55,234.44c11.41-1.78,11.51,3.01,11,13-3.73,6.97-7.28,16.8-17,17-.62-1.1-3.17-2.42-3.76-4.75-2.63-10.41,1.9-19.04,9.76-25.25Z"></path><path class="cls-248" d="M255.55,192.44c.24,1.95.13,4.96,0,7-.38,6.1-2.21,11.94-7,16-3.96,3.35-5.41,2.62-10,3-3.64-.32-2.56-4.86,1.09-3.52l2.91-.48.26-2.49c5.82-3.47,9.37-10.13,7.03-16.79l1.71-1.72c.36-2.89,2.45-3.58,4-1Z"></path><path class="cls-142" d="M281.54,196.44c-2.01,1.51-7.41-10.06-7.76-11.72-2.89-13.8,11.88-12.55,9.68,5.14-.11.92-1.65,6.37-1.93,6.58Z"></path><path class="cls-30" d="M277.41,218.59c3.7,2.3-.68,18.79-6.26,19.82-6.4-3.54-2.49-25.26,6.26-19.82Z"></path><path class="cls-47" d="M233.55,165.44c3.36,2.1,19.96,10.19,19.63,13.49-.13,1.31-1.67,2.42-1.44,3.83.27,1.61,3.31,5.56,3.81,9.68l-4,1c-2.92-.46-2.63-3.04,0-4-2.05-5.46-6.35-8.78-12-6,.53,1.61-.32,3.3-2.56,5.09-.48,3.36-1.63,5.33-3.44,5.91-.61,2.66-.81,5.34,0,8l2.22,1.32c-.05,5.68,1.81,8.62,5.59,8.82l1.2,1.87c-2.82,1.62-4.78-.05-4,4-1.29.11-5.76-.24-6.01,0-.29.28.24,5.53-.55,7.95-1.1,3.39-8.34,14.75-11.09,16.91-1.6,1.25-15.34,6.98-17.55,7.47-1.62.36-4.25-.63-4.73-.29s-.54,3.42-1.21,3.84c-1.06.66-9.29-.2-11.86,2.13-2.76-1.44.4-6.64,3-6-.08-5.48,4.5-4.61,8.58-3.32,3.28-2.24,7.01-3.8,11.18-4.68-2.65-4.79-2.24-7.79,1.24-9,.17-2.4,4.66-8.77,6.55-10.44.2-.18.77.07,1.45.44,1.01-.82,3.3-1.02,5.04-2.46,14.7-12.12,2.89-23.95,11.52-36.48,2.94-4.28,8.55-5.22,5.68-11.81-.72-1.65-4.66-5.47-6.24-7.25Z"></path><path class="cls-288" d="M298.55,235.44c-.15,2.63-5.09,17.51-8.07,16.02-.38-.19-.67-.58-.93-1.02-.39-3.95,1.43-10.59,3.59-13.91,1.35-2.06,4.54-5.02,5.41-1.09Z"></path><path class="cls-100" d="M298.55,235.44c.97,4.36-3.3,15.16-7.51,16.99-1.93.84-1.4-1.08-1.49-1.99,2.07-.03,2.8-1.13,3.85-2.65,2.99-4.36,2.1-8.84,5.15-12.35Z"></path><path class="cls-196" d="M273.55,262.44c-1.3,11.52-9.89,16.74-19,21-5.62-.29-1.85-11.24-.78-14.28,3.8-10.76,21.57-22.64,19.78-6.72Z"></path><path class="cls-45" d="M52.55,115.44c3.07,1.28,1.9,4.17,2,7,.3,8.19.02,15.72,1,24l7.42,19.47c2.35,2.22,3.21,4.4,2.58,6.53,4.08,2,11.93,6.49,8,11-7.45,4.2-15.86-5.56-18.45-12.56-1.96,2.32-3.81,3.18-5.55,2.56h-1l-.79-2.52c2.89-4.93,4.29-10.7,3.23-16.36l1.56-2.12c-1.53-.76-2.53-2.1-3-4-3.56-1.45-2.66-.53-5.81-.21-6.5.67-1.37-12.14-2.19-15.79-.4-1.24.27-2.57,2-4-.58-2.63.83-5.51,4.23-8.63,1.17-2.83,2.76-4.29,4.77-4.37Z"></path><path class="cls-189" d="M29.55,173.44l1.33.75c.07,4.48,1.63,7.75,3.67,11.25,1.8,6.48,1.92,12.9.34,19.25l-2.34.75c-2.6-1.31-3.08-9.09-1-11-4.33-11.75-20.18,1.62-22,0,1.73-2.76.34-5.07,0-7.99,3.42-2.23,5.95-7.58,9-10,3.23-2.56,6.91-3.37,11-3Z"></path><path class="cls-112" d="M32.55,132.44c-3.49-9.92,7.13-28.79,18.24-27.82,1.52.13,3.3.83,2.76,2.82-.36,2.76.1,5-1,8-1.62,4.41-6.17,9.28-9,13-1.83,3.21-8.28,6.93-11,4Z"></path><path class="cls-77" d="M32.55,168.44c.13,3.57.47,7.24,1,11,4.33,1.22,8.59-.9,12.76-6.37l2.24.37h1c2.05,4.67-11.19,17.19-15,12-4.82-.94-5.06-7.86-5-12,.04-2.34,1.19-4.61,1.01-6.99h.98s1.01,1.99,1.01,1.99Z"></path><path class="cls-189" d="M52.55,152.44l-1.83,1.57c-12.65-2.27-16.21,14.48-15.33,24.1l-1.84,1.33c-1.45-3.49-1.26-7.15-1-11,.71-10.7,6.9-17.03,17-20,.72.29,1.8-.06,2.52.97s.25,2.22.48,3.03Z"></path><path class="cls-191" d="M23.55,156.44c-.24,2.12-.13,2.24,2,2-.18,1.26.19,2.75,0,4-.36,3.52-1.7,6.18-4,8-1.89,1.72-2.2,3.21-3,4-.67.66-1.31,1.35-2,2,0-1.2-.57-2.95-2-3-.92-1.42-1.26-2.66.4-3.16,1.82-4.25,5.65-11.09,8.6-13.84Z"></path><path class="cls-94" d="M41.55,132.44c-3.28,2.56-12.16,5.72-13,.01,1.29-.15,2.75.18,4-.01,4.2-.64,7.35-1.88,11-4-.15.2.3,2.2-2,4Z"></path><path class="cls-189" d="M21.55,170.44l4-8c-.41,2.68.57,5.21-2.03,7.47-.59.52-1.75.33-1.97.53Z"></path><path class="cls-234" d="M60.55,93.44c-1.99-.77-2.88-3.95-5-2,.11-2.06,1.98-6.08,3.99-7l1.01,9Z"></path><path class="cls-246" d="M76.55,336.44c1.74,8.78-3.89,20.48-14.09,17.56-4.65-1.33-4.42-12.51-2.91-16.56,2.77-7.41,12.42-8.4,17-1Z"></path><path class="cls-187" d="M150.55,352.45c-1.81,4.94-6.56,9.25-11.99,7.98,2.16-4.84,6.22-8.86,11.99-7.98Z"></path><path class="cls-10" d="M192.56,327.44c-1.96-5.26,8.41-16.93,13.06-13.57,5.74,4.15-8.65,14.54-13.06,13.57Z"></path><path class="cls-190" d="M177.55,338.45c.36,6.15-5.59,12.39-12,10.99.44-7.26,4.23-12.22,12-10.99Z"></path><path class="cls-49" d="M23.55,224.44l2.95,1.31c4.07,7.4,7.05,15.29,8.88,23.54,4.42-2.84,6.75.03,6.98,8.61,1.38,3.38,2.45,6.56,3.2,9.54,1.38-1.45,1.97-.86,1,1,2.69,1.58,5.71,8.16.81,9.53-2.82,19.74,6.6,22.28,19.68,9.45,3.73-2.06,8.06-2.3,13-.72l1.51-2.27.66-1.25c5.85-.07,15-5.01,15.34-10.75l-1.26-1.9c7.97-21.65-10.67-20.46-15.46-2.66l-2.27.56c-4.25-1.38-1.64-6.16,0-9-1.5-3.38,6.03-9.01,9.13-10.12,5.46-1.94,13.4-1.52,16.04,4.45,1.07,7.45,3.87,14.79,8.88,4.54,2.09-2.04,3.92-3.82,5.95-.88l.6-.97c5.88.96,11.22-.89,16.01-5.57l1.39.53c-.2-2.53,3.25-7.05,6-6,7.83,1.44,16.41-1.56,23-6,1.45.22,1.2,1.4,0,2-2.1,2.88-3.37,5.77-3.81,8.68-3.46-.07-4.26,1.61-2.43,5.06-3.18,3.35-7.5,5.78-12.96,7.28-6.04,5.74-12.54,9.38-19.51,10.93-.28,9.71-6.69,10.21-14.42,8.96-4.84,4.78-10.08,7.88-15.74,9.29-3.88,8.07-8.17,9.24-15.44,4.47-4.34-10.79-15.81-3.76-19.48,3.78-2.88,10.35-8.3,9.13-13.97,1.54-4.7-1.71-8.85-4.14-12.45-7.3.31-4.02-.55-6.76-2.57-8.22.03-2.83-2.45-17.08-5.48-17.43-1.94,1.35-3.67,1.17-5.74-.04-.06-.07-1.19.06-.99-.98.87.06,1.42-.48,1.99-1.02-1.02-2.83,1.31-4.67,4-4,.3-.28,2.27.2,2.86-1.62.19-.6,1.02-11.59.93-12.65-.23-2.72-4.75-10.85-6.39-13.62-2.97-5.03-4.02-2.38-1.39-10.11.3-.84.64-.83,1,0Z"></path><path class="cls-119" d="M165.55,244.44c1.89.31,1.78,1.1,0,2-.92,3.23-.98,6.76,0,10,.87.25.85.58,0,1,.56,1.56,1.46,2.4,3,3,.24-.85.58-.83,1,0,.39.93.72,1.93,1,3,.1,2.04-1.4,3.31-4.5,3.82-.43,2.36-4.09,3.91-5.99,2.73-3.95-13.53-19.89-5.69-22.51,4.44,2.68.93,2.69,2.06,0,3-2.16,3.2-2.16,6.87,0,11,2.1-1.69,3.44-.54,3,2,3.23.15,3.89,1.15,2,3-1.26,1.97-3.85,2.08-7.78.32-5.4,2.01-9-.26-10.81-6.81l-3.41-2.52c-.8,2.85-5.9,2.61-7,0-1.46-.02-2.79.65-4,2l.53,1.25c-3.86,4.94-12.43,20.47-2.59,22.8l1.07,1.95-.3,1.51c-2.3.45-3.45.68-4.7,1.49-1.51,1.79-3.45,1.22-5.84-1.72-6.33,3.74-10.66,3.79-13,.16-1.67,4.01-8.19,8.81-10.17,3.56.04-1.37.71-3.03,2-5l-1.33-1.9c12.52-25.87-16.46-19.07-11.68,2.59l-1.99,1.31c-1.91-.59-1.98.52-.22,3.36l-1.78,1.64c-6.14-1.23-9.66-5.73-10.57-13.49l-2.43-3.51c-.48,1.89-1.38,1.88-2,0,.61-2.98-1.5-1.71-3.18-2.27s-7.97-2.22-8.35-2.7c-2.66-3.39-.88-15.27-2.98-21.01-2.36-6.46-5.42-4.43-8.49-8.02,3.85.09,5.42-4.37,8.43.07,3.9,5.75,2.32,10.47,3.75,15.25.69,2.31,3.77,2.32,3.9,3.32.15,1.15-1,2.76-1.06,4.01-.25,4.87,8.55,6.52,11.36,8.47s3.9,6.66,9.18,5.62c1.17-.23,7.07-15.03,17.05-15.7,6.1-.41,5.41,3.09,8.08,5.02.36.26,6.29,2.89,6.64,2.83,3.41-.62,5.67-6.81,6.64-7.38,1.31-.77,3.45-.24,4.95-1.05,3.19-1.72,7.22-5.75,11.02-6.98,2.89-.93,8.84-.65,11.01-1.99,2.62-1.62,1.16-6.38,3-8,1.47-1.3,5.78-1.12,7.94-2.06,4.98-2.18,11.41-7.75,16.21-10.79,1.6-1.01,6.87-2.81,7.44-3.59,1.3-1.82-1.88-3.87-1.58-5.52.48-2.64,4.68-.24,5-.53.27-.24-1.06-2.7-.09-4.27.73-1.18,3.93-2.48,5.09-3.73.62.48.62,1.48,0,3Z"></path><path class="cls-23" d="M31.55,194.44c1.19,3.22,1.29,7.61,1,11,3.32,2.35.02,12.29-4,12-3.04,7.22-10.44,8.19-12-1-.18-5.68-.54-12.97,2.54-17.96,2.58-4.18,8.15-8.69,12.46-4.04Z"></path><path class="cls-251" d="M44.55,302.44c.65.04,1.51-.14,2,0,3.13,4.16,8.25,14.82,3,18,4.01,2.31-3.43,9.93-6.98,10.81s-8.89-3.8-7.02-6.81c-.39-.78-1.96-3.78-2-4-.82-4.7.71-12.39,4-16,2.4-2.64,3.32-2.25,7-2Z"></path><path class="cls-79" d="M22.55,266.44c-7.28,1.6-7.77-13.02-6.95-17.45.86-4.65,8.36-10.89,11.47-5.56,2.13,3.65-1.37,2.83-1.52,3.02-.58.09-1.25.09-2,0-1.91,4.1-3.25,8.44-4,13,2.5.91,4.11-.48,4.84-4.17l2.16-.83,2.01.51-2.01,7.49c-1.36,1.3-2.6,2.68-4,4Z"></path><path class="cls-179" d="M25.55,246.44c-.25.32,1.23,5.54,1,8-.45,4.85-5.53,11.27-7,5,.55-4.52,1.88-8.85,4-13,.29-.19.52-1.29,1.47-1.01l.53,1.01Z"></path><path class="cls-122" d="M28.55,217.44c.98-.31,1.31.02,1,1-.05,3.06-2.92,8.89-6,6-.24.08-.66,0-1,0-3.5.08-6.07-2.65-6.63-6.03-.24-1.45.63-1.87.63-1.97l4.65,5.84c1.45.27,6.43-3.65,7.35-4.84Z"></path><path class="cls-161" d="M23.55,156.44c-.88,5.64-5.46,12.55-9,17-1.01-.03-3.18,2.67-3.07-3.57.03-1.45,1.03-2.15,1.07-2.43,2.46-5.92,5.79-11.26,10-16,1.45.2,1.23,3.54,1,5Z"></path><path class="cls-75" d="M22.55,151.44c-1.6,6.85-7.82,11.59-9.01,18.48l-.99-2.48c.63-4.2,4.37-16.78,10-16Z"></path><path class="cls-55" d="M238.55,290.44c-2.01,4.33-4.99,8.33-9,11-.65.69-1.62,2.8-2.51,3-4.66,1.01-.81-11.04,1.49-13.52,2.48-2.67,9.99-5.98,10.02-.48Z"></path><path class="cls-7" d="M229.55,301.44c3.26-3.47,5.94-7.39,9-11,.02,3.52-5.17,10.3-9,11Z"></path><path class="cls-106" d="M74.55,317.44c7.39,1.22,6.35-3.27,10.52-6.99l2.98,4.97c1.59-.89,10.03-4.19,10.9-4.06.52.08,1.56,3.51,4.6,4.08,1.77-1.11,7.57-3.1,9-1-2.29,1.55-4,4.53-7.97,5.53-9.66,2.42-6.31-.26-15.7,5.3-8.28,4.9-5.79,2.89-13.88,3.27-1.5.07-2.93,1.9-5.92,2.02-5.07.2-14-1.33-18.9-.83-3.98.41-5.36,4.99-12,1.58-1.19-.61-8.12-6.77-2.63-6.87.86,1.75,2.71,6.08,5.32,5.86,3.1-.27,8.19-6.92,8.68-9.86,4.22-5.01,8.95-1.73,13,2,1.08-1.97,3.08-2.31,6-1,.29-1.83,4.18-4.3,6-4Z"></path><path class="cls-233" d="M123.55,304.44c-1.16,1.18-1.65,3.64-2,4-2.24,2.32-6.18,4.09-9,6-2.71.77-6.23,1.52-9,1-.73-2.58,2.03-1.88,5-3,.84-2.32,3.17-4.13,7-5.44,1.95-2.32,3.95-3.51,6-3.56,2.32-3.56,5.68-1.88,2,1Z"></path><path class="cls-231" d="M24.55,280.44c6.2,1.4.19,20.55-2.99,18-.21-.17-1.97-4.73-2.01-5,.69-5.28,2.36-9.61,5-13Z"></path><path class="cls-135" d="M24.55,280.44c.39,4.34-2.46,9.9-5,13-.62-3.83-.76-14.3,5-13Z"></path><path class="cls-227" d="M195.55,174.44c1.77.94,3.06,2.76,3.87,5.46,2.53,1.37,3.57,2.88,3.13,4.54l4.98-.2c1.68-1.1,3.02-1.04,4.02.2-2.16,3.18.02,8-1.48,11.02-.6,1.2-8.5,4.46-11.06,6.94-3.12,3.02-4.73,7.21-7.55,10.45l-29.65,15.84c-3.9,4.07-.19,8.19-.32,9.14-.38,2.74-15.11,7.26-16.43,1.64-.49.01-2.11,3.2-2.5,3.98-.99,2.7-3.18,1.82-3-1l-1.65-1.45c3.75-14.48-3.75-20.23-15.18-10.05l-2.18-.5c-1.83,1.93-2.83,1.93-3,0-2.21-1.82-1.68-1.87,1-2-.39-5.42,8.25-8.82,12.97-10.34,4.15-1.33,16.8-2.66,21.15-2.36,1.41,1.42,3.7,1.65,6.88.7l1.19-2.29c7.88-2.72,11.97-9.09,15.47-16.21l1.34-.5c-2.22-1.69-1.59-5.08,1-6l12.01-8.49c1.82-2.12,3.72-7.83,3.99-10.51-.06.78.92,1.61,1,2Z"></path><path class="cls-49" d="M203.55,231.44c2.54.34,4.54,1,6,2-2.74,3.2,1.2,8.17.94,9.4-.47,2.15-6.42,2.8-8.48,3.56-1.66.61-3.2,2.31-4.43,2.65-2.92.81-4.22-3.51-9.02,1.39-1.84-.5-2.31-2.57-2-4l-1.63-1.64c3.18-10.47-4.65-15.58-12.83-8.54l-2.54-.82c-.63,1.14-1.3,1.47-2,1,3.07-5.3,7.96-9.16,14.56-8.87,3.47.16,3.51,3.77,8.38,2.32,5.13-1.53,1.26-5.21,5.06-7.45l1.37.03c1.87,3.21,4.08,6.2,6.63,8.97Z"></path><path class="cls-209" d="M215.55,168.44c3.43,2.29-.86,9.81-3.18,12.33-2.75,2.99-5.67,4.79-9.82,3.67-5.68-3.06-5.78-4.14-7-10-2.18-8.78,2.63-26.11,14.27-22.84,6.15,1.73,6.19,11.79,5.73,16.84Z"></path><path class="cls-289" d="M196.55,210.44c2.89-4.93,5.51-9.01,11.59-9.98,1.93-.31,6.95.94,7.42,2.7.37,1.41.34,15.56-.01,17.29,1.85,4-7.68,15.02-12,11-4.53.17-7.29-5.3-8-9-.31-1.64.08-4.14,0-6-.04-2.34.3-4.34,1-6Z"></path><path class="cls-13" d="M219.55,169.44c-.88,3.88-4.75,12.8-8,15-4,2.71-5.62,1.82-9,0,7.89-2.46,12.25-7.82,13-16h1c.99-2.7,3.18-1.82,3,1Z"></path><path class="cls-83" d="M215.55,220.44c2.67-.47,2.04.63,2,3-2.03,1.66-4.43,8.38-8,10-.74.34-6.71,1.23-7,.99l1-2.99c4.26-.16,11.21-7.11,12-11Z"></path><path class="cls-220" d="M216.55,168.44c-.96-13.27,5.79-11.39,3,1l-3-1Z"></path><path class="cls-180" d="M142.55,243.44c-.22.44.23,1.62,0,2-1.5,2.5-3.94,4.1-6,6-2.9.76-2.98-1.07-1-3-2.26-1.96,1.3-6.88,4-6l3,1Z"></path><path class="cls-171" d="M165.55,244.44c.05-.99-.1-2.02,0-3,.07-.65-.12-1.42,0-2,.54-2.66,1.57-2.25,2-3,.67-.32,1.33-.67,2-1,2.64,1.75-.95,9.49-4,9Z"></path><path class="cls-49" d="M195.55,216.44c-.06-1.45-.98-3.34-.78-4.41.21-1.15,1.63-1.33,1.78-1.59-.14,1.88.77,4.88-1,6Z"></path><path class="cls-205" d="M174.55,188.44c.23.75-.16,2.09,0,3,2.61,1.79,2.28,4.46-1,8,1.31,6.4-8.36,13.82-14.21,15.17-1.95.45-5.6,1.17-5.79-1.17-2.59.42-2.74-.06-1-2-4.53-6.32-2.95-21.13,2.87-26.72s20.13-7.67,19.13,3.72Z"></path><path class="cls-245" d="M170.55,178.44l-1.73,1.78c-12.1-.41-18.32,7.77-18.92,19.29l-1.35.93c-.4,2.6-2.7,3.57-6.9,2.93-8.88-1.64-10.97-1.34-16.82,5.72-2.59,2.91-5.35,3.69-8.28,2.36-.6,3.14-5.38,3.12-6,0-7.87-5.89,1.3-8.19,7.11-8.49,5.8-1.18,7.99-7.4,8.71-12.58l2.18-.92c-1.39-1.53-1.74-3.55-1.04-6.06-1.38-2-1.7-3.64-.96-4.94l1.49-1.9c5.71,2.57,11.07,3.58,16.09,3.04,9.34,3.64,13.65.52,10.71-9.29l2.71-1.84c1.18-2.28,6.16-4.83,8-7,.85,4.78,4.65,8.67,6.24,13.32.69,2.02,1.25,2.71-1.24,3.68Z"></path><path class="cls-252" d="M170.55,178.44c3.41.89,6.51,6.53,4,10-.9-2.96-2.25-5.65-5.44-6.05-16.9-2.13-20.13,16.21-16.56,29.05-2.74,6.66-8.35-9.19-4-11-.08-4.71,2.19-13.55,5.57-16.93,3.04-3.04,12.33-6.15,16.43-5.07Z"></path><path class="cls-8" d="M174.55,191.44c.06-.09,1.74.41,2.02-.66.58-2.18-1.47-5.06,1.98-4.34,0,1.66.02,3.33,0,5-.02,2.73-.2,3.49-1,6-.93,1.23-2.63,2.73-4,2,.24-1.37.68-7.51,1-8Z"></path><path class="cls-102" d="M140.55,155.44c.83,7.22-1.89,11.83,9,12-1.26.5-2.21,1.47-4,1.01v.98s2,1.01,2,1.01c2.16,1.51-.63,5.76-2.35,6.8-8.45,5.1-28.68-6.34-34.79-12.57-7.53.82-16.5,1.29-21.86-4.23-.12-1.06.21-2.39,1-4l-.81-2.19c3.32-4.94,4.99-10.85,5.72-16.72l2.09-1.09c1.75,3.2,2.81,8.03,7.48,8.09,2.99.04,4.54-2.32,7.06-3.04,6.3-1.81,13.04-1.88,18.46-6.04,3.21-.79,8.36,6.21,9.86,9.04,2.18,4.1,1.96,6.36,1.14,10.96Z"></path><path class="cls-298" d="M96.55,136.44c-.34,6.04-3.03,15.4-7,20-.8,4.16-9.38,9.62-13,8-1.98.49-4.05.95-6,0-1.5.73-1.75-.69-1-2-3.44-1.12-1.36-15.1.05-17.3l2.95-1.7c3.36-5.79,14.49-12.86,21.31-10.8,2.47.74,1.96,2.47,2.69,3.8Z"></path><path class="cls-198" d="M72.55,143.44c-2.8,4.82-2.74,13.32-3,19-1.01,3.19,2.66,4.71,5.34,3.9l.66,1.1c2.19,1.9.21,3.37-1.81,4.56l-8.19.44c-8.1-9.34-8.52-13.43-10-26,4.96,8.88,5.08.84,7.57-.93,1.96-1.38,6.9-1.88,9.43-2.07Z"></path><path class="cls-37" d="M83.55,101.44l1.79,1.69c15.81.7,2.77,16.89-6.92,18.62l1.13,1.7c-3.48,1.02-6.09,1.46-9.95.94-3.56-9.66,4.61-20.46,13.95-22.94Z"></path><path class="cls-133" d="M140.55,155.44c-1.26-10.98-4.77-12.14-11-20,.96-.74,6.51-6.31,7-7,3.2,3.56,8.02,5.92,9.82,10.66l-5.82,16.34Z"></path><path class="cls-34" d="M94.55,103.44c-.27,2.17.39,4.99,0,7-.82,4.24-10.99,11.83-15,13h-9c-.6-2.96.68-10.55,3.52-11.99,3.41-1.73-1.41,8.13-.51,8.99,8.26.43,18.23-5.93,17-15-4.18-.41-8.18,2.15-7-4,6.62-1.76,6.07.11,11,2Z"></path><path class="cls-149" d="M116.55,128.44c2.13-3.11,4.41-6.16,9-5,.04-3.04,3.75-7.14,6-9,6.04.77,1.26,9.2-1.45,12.05-2.18,2.29-12.85,9.04-14.51,4.3-.45-1.29.92-2.11.96-2.35Z"></path><path class="cls-165" d="M131.55,114.44c.19,4.37-2.93,6.63-6,9-2.33,1.35-4.33.68-6-2,.27-.37.07-1.48,1.04-2.42,2.57-2.51,7.24-5.05,10.96-4.58Z"></path><path class="cls-36" d="M125.55,123.44c-2.88,2.22-6.15,3.09-8.5,5.98l-.5-.98c.26-1.67-.07-2.89.76-4.76.6-1.36,1.83-1.66,2.24-2.24,2.33-2.09,3.17,2.11,6,2Z"></path><path class="cls-5" d="M81.55,77.44c1.34-.29,5.08-2.63,5.04,1.5-.04,4.4-13.28,11.36-17.45,11.5-1.36.05-.82-2.05-.59-3.01,4.08-3.57,8.62-6.48,13.62-8.73l-.62-1.27Z"></path><path class="cls-237" d="M81.55,77.44c2.8-.33,2.51.68,1.03,2.53-2.49,3.1-10.03,6.34-14.03,7.47,1.55-6.25,7.13-8.74,13-10Z"></path><path class="cls-217" d="M147.55,170.44c1.78-.79,7.6-.65,10-2-3.16,6.1,4.29,8.53-2.5,13-6.18,4.07-6.89.3-10.95.12-1.38-.06-2.77,1.03-4.8.72-4.13-.64-5.44-3.51-12.75-3.84-.09.49-.22.95-.49,1.31-.6.82-7.81.74-9.51.69l-.66,2.74c-.38.67-9.06,11.47-9.77,11.79-.79.35-1.75-.09-2.57-.52-.02.56-.08,1.1-.27,1.59-.95,2.51-18.86,2.51-18.73-2.59-3.54,2.45-9.32-6.03-9-9-1.05-1.73-.61-4.18,1.32-7.37-4.28-.58-7.87-2.01-11.32-4.63-.75-.89,5.71-1.45,7.3-2.22s2.52-2.7,2.7-2.78c-.11-.67-.16-1.21.05-1.33,2.78-1.62,8.58-4.52,11.65-5.99.31-.15.78.04,1.3.33,4.4-.46,8.41,2.86,12.54,3.05,2.72.13,4.76-1.02,7.01-1.09,5.88-.18,7.4,4.5,11.76,7.23,4.66,2.93,18.65,8.56,23.68,6.29,2.42-1.09,2.77-4.93,4.01-5.48Z"></path><path class="cls-171" d="M142.55,293.44c.61-2.32,4.8-3.17,6-1-2.17,10.43-19.82,6.76-25,12,.17-2.67.04-2.28-2-1l-1.16-2.03c2.46-4.67,3.42-10.48-.38-14.69l.54-2.28c7.2.86,5.22,6.86,8.71,7.86,2.12.61,4.01-.73,5.65-.52,2.56.32,4.9,1.61,7.64,1.66Z"></path><path class="cls-171" d="M184.55,257.44c.95,6.42-3.04,6.11-5.67,8.32-2.8,2.35-4.92,5.91-9.96,6.38s-5.43-3.79-7.37,3.3c-.99,2.7-3.18,1.82-3-1-2.65-1.04-3.44-7.29-3-10-2.55-.97-5.45-.96-8,0-1.91,3.28-6.05,9.85-10,10,.11-1.67-.43-3.38.51-4.98.54-.93,8.02-6.16,9.46-6.55,6.14-1.63,10.81-.14,13.54,5.56,3.23.53,2.82-2.19,3.77-2.73.77-.44,4.68-1.97,5.72-2.3,1.09-1.7,3.43-2.89,7.05-3.58,2.56-2.04,4.87-2.85,6.95-2.42Z"></path><path class="cls-71" d="M161.55,275.44c-.36,1.3,0,3.02-.67,4.8-1.87,4.99-7.35,10.46-12.33,12.2-1.11.39-4.8,1.02-6,1-.72-.77-1.31-2.41-2-3l1.21-2.07c7.13-.67,13.43-5.61,14.65-12.84l2.14-1.09,3,1Z"></path><path class="cls-80" d="M188.55,250.44c-1.86,1.9-2.25,5-3,6-.07.1-.74.75-1,1-4.82,4.71-8.91,4.37-14,6-2.77.46-2.46-.92-1-3l1.04-2.05c6.31-.82,11.42-5.72,13.71-11.49l2.25-.46c1.84.52,2.17,2.26,2,4Z"></path><path class="cls-291" d="M197.55,268.44c6.76-2.68,6.76,4.82,4.2,9.7-6.62,12.57-18.9,6.87-9.2-5.7,2.16,3.46,6.87-1.36,5-4Z"></path><path class="cls-277" d="M197.55,268.44c7.57-1.21-1.46,7.74-2.52,7.99-1.95.46-2.82-2.42-2.48-3.99,2.05-2.65,1.78-2.72,5-4Z"></path><path class="cls-229" d="M135.55,321.44l2.13.3c.19,3.65,2.82-.3,1.87-2.3,2.74-.85,6.28-.88,6.01,3.41-.51,8.2-18.37,19.03-13.35,2.76.81-2.63,1.52-2.72,3.33-4.16Z"></path><path class="cls-42" d="M139.55,319.44c5.59.38-.97,7-2.51,7.99l-1.49-5.99c1.38-1.1,2.34-1.48,4-2Z"></path><path class="cls-2" d="M107.55,345.44l1.56,1.47c-1.21,1.94-.4,1.12,2.44-2.47,4.92,1.11,1.44,11.47-4.72,12.81-9.02,1.97-4.97-8.91.72-11.81Z"></path><path class="cls-115" d="M111.55,344.44c.55,4.37-1.74,6.58-6,5.99l2-4.99c1.15-.59,2.72-1.29,4-1Z"></path><path class="cls-259" d="M169.55,299.44c1.97-.09,2.1-.42,2.04,1.52-.14,4.68-4.16,6.04-6.04,1.48.85-1.66,2.39-2.35,4-3Z"></path><path class="cls-9" d="M233.55,240.44c13.16-6.43,4.86,20.78-4.99,19-1.49-6.38-1.87-10.43,1.99-16,2.53,4.66,4.52.71,3-3Z"></path><path class="cls-95" d="M233.55,240.44c2.27,0,3.63-.87,2.81,2.31-1.49,5.8-7.07,9.46-5.81.69.96-1.39,1.34-2.19,3-3Z"></path><path class="cls-211" d="M239.55,183.44c5.59-2.92,10.08.59,12,6,.22,1.16-.12,2.72,0,4,.18,1.95,1.28,3.4,1.03,6.48-.58,6.96-4.3,11.23-10.03,14.52-8.13,1.33-8.1-6.45-9-12-.82-2.62-.63-5.36,0-8,1-5.55.61-7.31,6-11Z"></path><path class="cls-267" d="M251.55,189.44c-3.45-3.61-6.38-7.12-12-6,1.19-.81,1.44-1.86,3.52-1.97,6.95-.37,7.45,2.47,8.48,7.97Z"></path><path class="cls-267" d="M233.55,202.44c-.1-.64-1.08-1.52-1.12-3.46-.05-2.55.9-3.3,1.12-4.54v8Z"></path><path class="cls-74" d="M265.55,270.44c-2.2,2.36-3.54,4.02-4,5-1.78,1.42-3.29,3.5-5.99,2.99.23-3.69,1.02-8.35,2.98-11.51,3.01-4.87,11.35-11.36,9.98-1.07-.44,3.27-2.12,3.23-2.97,4.58Z"></path><path class="cls-90" d="M261.55,275.44l-.98-.5,4.98-4.5c-1.7,2.72-.96,2.58-4,5Z"></path><path class="cls-84" d="M73.55,183.44c1.51-2.28,2.37-1.71,2,1,3.5,2.25,4.95,6.9,9,9,3.41,4.59-7.91,5.93-8,1-1.6-.66-2.67-2.23-3.22-4.69-11.65-5.34-19.06,12.37-17.93,22.11l-1.85,1.58c-.71-.29-1.34-.21-2,.1-.83.4,2.49,7.41,3,7.9.29-2.07,6.11-3.63,7-1l3.07-.58c-1.55,5.14-.59,7.2,2.88,6.17,13.34-4.07,12.98,1.09,11.05,11.42,2.37-.06,3.99,2.97,3,5,6.01.49,8.92.54,14.01-3.64,2.32-2.88,4.65-4.67,6.99-5.36,1.71-1.34,4.26-1.55,7.64-.63,2.79-1.71,5.25-2.5,7.36-2.37h3l.8,2.36c-3.61,6.12-3.84,13.96-.8,20.35l-1,2.29c.96,1.22.55,1.93-1,2-6.46.11-5.59,8.59-10.27,7.87-9.14-1.41-1.84-12.82-11.47-14.62-9.35-1.75-12.34,2.95-18.26,8.75-1.69,5.86-7.21,13.03-12.82,15.56-7.2,3.25-13.25.79-10.18-7.56l-.53-1.23c4.57-2.87,7.41-6.46,8.53-10.77-2.55-2.23-.58-9.49,2-11-.12-11.95-10.32-10.19-18.65-7.88-2.57,2.34-5.43,2.49-6.66-1.04-4.71.2-6.98-1.86-7.47-6.5-5.3-1.11-6.38-4.64-3.22-10.58-.31-.36-.62-.71-1-1,2-2.57,3.72-8.73,4-12,.87-2.25,1.97-8.43,1.88-10.55s-3.76-7.07.12-9.45c.41-.25,2.45-.05,3.68-.77,6.56-3.83,7.12-6.02,11.32-11.23,1.69-2.1,4.11-4.01,5.5-6.98,3.51,6.18,4.75,12.02,11.8,15.18,2.15.96,4.72,1,6.7,1.8Z"></path><path class="cls-141" d="M52.55,152.44c2,7.24.1,14.81-4,21-1.91,2.89-10.87,10.68-14.07,8.57-.91-.6-.65-1.88-.93-2.57-1.77-11.62,3.85-31.8,19-27Z"></path><path class="cls-297" d="M65.55,172.44c1.87.86,12.49,2.57,12.92,3.08,1.64,1.94-1.89,6.97-2.92,8.92-.57-.37-1.36-.74-2-1-1.41-5.45-4.61-7.09-8-11Z"></path><path class="cls-296" d="M46.55,110.44c.65-.22,1.31-1.67,3-.99,2.09,6.56-6.32,17.17-12.49,18.01-3.34.46-.74-3.2-.5-4.02,3.37-4.12,6.83-8.18,10.37-12.17.71,1.18.59.9-.37-.83Z"></path><path class="cls-286" d="M46.55,110.44c3.19-.3,1.74.58.83,2.33-1.13,2.17-2.37,4.22-3.83,6.17l-7,4.5c2.04-6.99,2.67-10.53,10-13Z"></path><path class="cls-145" d="M65.55,337.44c1.76,1.39,3.42,1.06,5-1,9.46,5.23-6.77,23.88-8.04,9.5-.4-4.52.09-5.58,3.04-8.5Z"></path><path class="cls-264" d="M70.55,336.44c.14,2.93-1.34,5.23-3.51,7l-1.49-6c1.95-1.93,1.26-3.07,5-1Z"></path><path class="cls-127" d="M78.55,268.44c2.79,1.06,4.33,11.15,2,13,2.22.53,2.58,1.06,1,3,.74,1.29,1.23,2.45,1,4-3.33,1.05-8.67-1.22-11.29-.81-3.84.59-8.4,7.1-11.75,8.28-5.87,2.07-12.71,2.45-13.9-5.01-.34-2.11-.51-12.03-.08-13.74.29-1.16,2.91-1.32,2.99-2.18.02-.18-1.44-2.05-1.76-3.27-.3-1.13,0-2.62-.21-3.25,2-1.7,6.89-2.69,9-1,3.04,1.24-.4,6.07,2.62,6.92.68.19,6.4-1,7.39-1.41,3.58-1.45,9.71-10.3,12.98-13.52-.71,3-.15,5.98,0,9Z"></path><path class="cls-127" d="M29.55,218.44c2.05,2.36-.64,3.89.09,6.33.63,2.09,3.81,1.9,4.66,2.92s.49,4.26,2.24,5.26c1.48.85,3.57.07,5.05,1,.91.57.61,2.55,1.48,2.52,1.34-.04,2.16-1.55,3.24-1.78,8.66-1.8,21.18-2.65,19.24,9.74-2.29-.24-3.85-2.38-4.68-6.41-13.71-1.8-15.72,16.03-11.93,25.66l-1.39,1.76c-.03,1.12-.7,1.78-2,2-.34-.46-1.7-.78-2.43-2.03-2.43-4.14-4.05-11.2-3.58-15.97l-5.98,3c-1.28-10.87-5.03-18.55-10.01-28,1.79-.6,4.54-4.54,6-6Z"></path><path class="cls-164" d="M97.55,272.44c.45,5.02-12.83,14.05-17,9-1.54-5.72-1.7-6.93-2-13,1.66-5.2,2.3-8.19,6.48-12.02,13.29-12.17,19.05,4.31,12.52,16.02Z"></path><path class="cls-15" d="M136.55,251.44c-4.3,3.95-7.15,6.81-13.53,7.08-1.91.08-3.8-1.09-4.47-1.08-.09-.94-.15-1.73,1-2,.67-1.87,2.68-2.75,6.03-2.63l7.66-5.1,2.3.73,1,3Z"></path><path class="cls-188" d="M55.55,267.44c-2.28,1.19-6.57,2.19-9,1-.19-.54-.79-.72-1-1-.28-2.71.07-1.81,2-2l1.16-2.14c5.48-.3,9.79-2.8,12.39-7.68l2.45-.18c-.02.08.88.62.78,1.34-.38,2.61-6.34,9.39-8.78,10.66Z"></path><path class="cls-118" d="M97.55,272.44c2.84-.31,2.46.61,1.01,2.51-3.62,4.76-10.68,10.64-17.01,9.49-2.24-3.88-.58-1.43-1-3,6.25,1.36,14.08-3.76,17-9Z"></path><path class="cls-219" d="M169.55,235.44c2.27-1.1,4.71-3.62,6.52-3.98,11.01-2.18,13.08,6.02,10.48,14.98-2.06,7.11-9.41,14-17,14-.32,0-.69.06-1,0-1.5-.52-2.53-1.47-3-3-.06-.32.03-.67,0-1-.98-3.24-.93-6.75,0-10,.02-.67-.03-1.34,0-2l4-9Z"></path><path class="cls-210" d="M120.55,284.44c5.73,5.19,4.62,12.8,1,19-3.07,5.26-7.68,6.98-13,9-13.44,1.16-6.13-21.35,1-26,1.55-1.7,2.88-2.37,4-2,1.38-.29,5.44-.19,7,0Z"></path><path class="cls-239" d="M155.55,264.44c2.4.88,3.2,7.54,3,10-.74,9.34-8.92,15.8-18,16-.56-.48-1.38-.27-3-2-1.41-3.59-3.14-8.04,0-11,.03-1-.07-2.01,0-3,2.43-2.94,5.98-9.06,10-10,2.52-.98,5.46-.97,8,0Z"></path><path class="cls-53" d="M76.55,312.44c-1.44,3.86-6.79,9.33-11,7-3.07,1.3-5.88-2.28-4-5,0-7.95-1.31-15.44,6.07-20.43,9.3-6.29,14.41,1.01,12.49,10.49-.56,2.75-2.48,5.38-3.56,7.94Z"></path><path class="cls-236" d="M59.55,319.44c2.34-2.18,5.48.7,3,3-2.78-.49-3.3-2.49-4.7-2.85-1.85-.48-5.83,1.7-8.3.85.99-5.97-.17-12.72-3-18,3.93,1.15,4.4,8.29,6.55,10.95,1.03,1.28,4.7,4.25,6.45,6.05Z"></path><path class="cls-127" d="M59.55,319.44c.18-2.01-3.46-7.55-1.99-9,2.44-2.42,3.34,2.97,3.99,4,1.42,2.25,1.97,3.15,4,5,2.36.06,3.36.73,3,2-2.19.82-3.22,1.49-6,1-.41-1.67-2.16-2.14-3-3Z"></path><path class="cls-272" d="M74.55,317.44c-1.63,1.73-3.71,3.14-6,4-1.28-.34-2.07-1.15-3-2,4.52.06,7.95-4.14,11-7-.12.28,1.22,1.57-2,5Z"></path><path class="cls-171" d="M137.55,277.44c-.11,3.65.08,7.34,0,11-2.73-2.92-6.29-9.71,0-11Z"></path><path class="cls-171" d="M165.55,256.44c-1.71-2.21-1.66-7.98,0-10-.07,3.17-.26,6.9,0,10Z"></path><path class="cls-171" d="M113.55,284.44c-.22.05-3.81,1.88-4,2l3.5-4,.5,2Z"></path><path class="cls-171" d="M168.55,260.44c-.98-.18-1.78,0-2.53-.97-.47-.61-.35-1.34-.47-2.03l3,3Z"></path><path class="cls-240" d="M27.55,197.44c4.53.52.99,15.64-1.96,18.54-3.35,3.29-4.65,1.24-5.04-2.54,2.07-4.86,3.81-9.72,5.22-14.58l1.78-1.42Z"></path><path class="cls-125" d="M27.55,197.44c1.59,7.33-3.93,10.38-7,16-.48-4.6.47-16.76,7-16Z"></path><path class="cls-46" d="M37.55,316.44l.84-2.93c3.48-1.09,3.83-3.37,3.16-6.07,3.01-1.64,4.02-.49,4.77,2.72,1.38,5.91-.37,11.7-5.27,15.26-2.89-2.23-3.44-5.52-3.5-8.98Z"></path><path class="cls-107" d="M41.55,307.44c3.68-1.04,1.6,5.76,1.12,6.43-.89,1.23-4.31-.35-5.12,2.57-.07-4,.17-6.91,4-9Z"></path><path class="cls-232" d="M19.55,259.44c-1.2-5.12-.5-10.09,4-13,2.8,4.03-3.35,8.71-4,13Z"></path><path class="cls-221" d="M148.55,200.44c.03,1.6,1.41,9.28,1.99,10.31.65,1.16,1.89.56,2.01.69.27.28.87,1.55,1,2,2.64.79,4.64,1.79,6,3-15.68,4.21-27.73-1.73-41,12-2.18,1.8-5.28,1.74-9.31-.18-2.12,1.91-4.02,2.63-5.69,2.18-1.29.03-1.72-.84-2-2-2.36-1.5-.59-9.31,2-10l1.86-1.18c4.33,1.77,13.01-.1,11.14-5.82,6.69-1.24,12.14-10.25,14.7-10.84,2.84-.66,12.74,2.25,17.3-.16Z"></path><path class="cls-65" d="M139.55,242.44c-.15.41-3.54,5.54-4,6-.75.76-8.24,5.88-9.27,6.23-2.81.96-4.79.31-6.73.77-4.47-7.15-4.07-18.37,1-25,3.63-4.75,11.15-8.28,17-5.5,4.31,2.05,3.34,13.72,2,17.5Z"></path><path class="cls-120" d="M177.55,197.44c-2.88,9.08-8.44,16.43-18,19-1.31-.26-5.48.41-5.99-.02-.31-.26.2-2.24,0-2.98,5.69.66,12.3-3.48,16-7.5,1.74-1.9,2.62-4.7,4-6.5,1.25-1.62,1.46-2.53,4-2Z"></path><path class="cls-158" d="M118.55,228.44c-.41.43-.57,1.53-1,2-4.84,5.24-7.66,5.17-15,3-2.01-.93-1.17-3.24,1-3,6.44-7.95,7.35-2.14,15-2Z"></path><path class="cls-136" d="M211.55,161.44c3.51,13.68-13.19,28.07-13.11,7.42,0-2.07.91-2.58,1.11-3.42l1.89,1.15c-.51,8.28,5.65,4.66,5.13-1.76,1.64-5.6,3.3-6.73,4.98-3.39Z"></path><path class="cls-103" d="M205.55,157.44c1.93-.45,3.5-.48,5,1,.59.9.74,1.98,1,3-1.72.22-2.73-2.47-3,.49-.32,3.61.64,9.67-3.97,11.12-4.88,1.53-5.54-3.75-5.03-7.61.88-3.76.2-3.13,3-6q2.18,1.68,0,0c1.47-1.51.86-1.21,3-2Z"></path><path class="cls-136" d="M210.55,158.44l-5-1c2.67-.99,2.88-2.25,5,1Z"></path><path class="cls-22" d="M208.55,206.44c6.08.56,3.43,11.78,1.21,15.71-4.71,8.35-8.54,6.01-9.97-2.45-.82-4.88-.39-5.48,1.76-9.27,1.43.2,2.26,1.23,2.5,3.1,1.81-2.19,3.31-4.56,4.5-7.1Z"></path><path class="cls-56" d="M208.55,206.44c1.99,6.85-7.13,14.15-7,4,1.63-2.87,2.57-4.4,7-4Z"></path><path class="cls-25" d="M155.55,198.44c1.89-.23,2.18.56,2.03,2.22,5.17-3.41,8.82-7.82,10.97-13.22,4.27,3.71.89,12.45-2.51,15.99-4.24,4.39-10.58,8.42-11.44-.65-.27-2.79.75-3.14.96-4.34Z"></path><path class="cls-96" d="M168.55,187.44c2.51,3.96-12.31,17.98-12.99,17v-6c.45-2.63.19-4.96,2.12-7.42,1.26-1.61,2.39-1.21,2.87-1.58-.3,8.32,4.42,1.96,3-2,2.02-.75,2.46-2.21,5,0Z"></path><path class="cls-59" d="M163.55,187.44c7.32-1.05-.79,8.27-2.52,8.99-2.65,1.1-2.97-5.87-.48-6.99,1.3-1.01.7-1.14,3-2Z"></path><path class="cls-279" d="M88.55,160.44c-4.19,4.81-8.14,4.74-13,7-2.56.46-7.02-.23-6.97-3.48.01-.83.96-1.37.97-1.52-.04.99.25,1.41,1,2,2.03.9,3.92.49,6,0,4.17-1.23,10.18-4.73,13-8,2.1.35-.17,3.05-1,4Z"></path><path class="cls-185" d="M89.55,140.44c.67,0,1.33-.02,2,0,.51,4.59-.26,7.82-3,11.5-1.63,2.19-12.4,10.89-13.99,6.51.49-1.42,1.3-3.56,2.42-6.44,7.22-1.86,11.41-5.71,12.58-11.56Z"></path><path class="cls-287" d="M89.55,140.44c3.44,7.14-11.8,12.6-12.8,14.23-.92,1.5,1.23,4.48-2.2,3.77-1.17-3.21,1.09-8.29,3-11,3.41.54,10.61-4.79,9-6,.92-.28,1.05-.97,3-1Z"></path><path class="cls-192" d="M86.55,141.44c2.84-.31,2.46.62,1.02,2.52-1.63,2.14-8.3,8.36-10.02,3.48,2.73-3.88,4.59-4.63,9-6Z"></path><path class="cls-198" d="M76.55,164.44c-2.35.69-3.04,2.3-6,0h6Z"></path><path class="cls-158" d="M103.55,194.44c2.81-.77,3.22,1.12,3.46,3.6-1.01,5.6.17,10.06,3.54,13.4,1.21.21,4.81.22,6,0,6.32.21-.26,6.73-2.01,7.48-2.69,1.15-8.51,1.54-10.99-.48l-2.08-1.02c-6.51-17.34-21.02,6.25-18.01,16.55l-1.91,1.47c-1,.52-2,1.19-3,2-1.29-3.95-1.17-6.76-1-11-3.8-.47-14.46,4.59-15.59-.94-.63-3.06,3.58-5.46-.41-5.06l.14-2.29c5.07-2.53,8.69-6.1,10.86-10.71-2.14-2.86,1.22-10.96,4-13,2.69.75,6.48,2.4,8-1,3.95,2.05,15.22,3.17,19,1Z"></path><path class="cls-66" d="M116.55,180.44c2.73,2.87,6.59,4.82,11.59,5.87l.41,3.13c-.8,4.94-1.4,8.4-4.99,12.51-5.46,6.26-18.26.43-13.01,9.49-9.79-1.65-2.75-12.41-7-17,3.81-2.19,5.32-9.94,13-14Z"></path><path class="cls-63" d="M126.55,178.44c4.5,4.2,2.77,6.19,2,11-3.47-5-13.24-1.38-12-9,.33-.18.38-1.59,2.48-1.98,1.97-.37,5.34-.11,7.52-.02Z"></path><path class="cls-6" d="M155.55,264.44c-.55-.2-7.15-.2-8,0,1.58-1.68,6.46-1.67,8,0Z"></path><path class="cls-43" d="M239.55,189.44c8.65-7.47,13.12,15.1,2.99,20.5-5.32,2.84-6.48-10.26-6.04-14.1.17-1.47.89-1.89,1.05-2.4,5.15,3.29,4.48-.76,2-4Z"></path><path class="cls-294" d="M239.55,189.44c8.42-.15.97,14.43-2,4,.39-1.29.99-3.12,2-4Z"></path><path class="cls-130" d="M53.55,213.44c-1.02-7.75,1.72-18.52,7.97-23.53s14.95-5.44,15.03,4.53c.03,3.4-2.68,9.63-4,13-1.54,4.37-9.47,12.67-14,10-4.16,1.55-8.24-.12-5-4Z"></path><path class="cls-222" d="M47.55,265.44c-5.29-10.56-1.9-32.96,14.32-29.03.65.16,3.59,7.34,3.68,8.03.3,2.56-1.38,8.05-2,11-4.45,7.59-7.54,9.15-16,10Z"></path><path class="cls-172" d="M101.55,228.44c2.13-.24,2.24-.13,2,2-.7.86-.71,2.66-1,3-4.46,5.18-13.96,15.61-21,9-1.79-2.78-.61-3.97,2-2l1.5-1.58c6.28,1.12,11.26-4.58,13.98-9.6l2.52-.82Z"></path><path class="cls-24" d="M61.55,220.44c-.33.12-6.58,1.01-7,1-5.11-4.22-.08-4.12,4-4,5.99-2.79,9.93-4.2,14-10-.03.08.79.47.27,1.62-1.44,3.2-8.24,10.26-11.27,11.38Z"></path><path class="cls-39" d="M53.55,213.44c1.14,2.65,1.14,4.29,5,4-2.25,1.05-6.27,1.43-4,4-5.64-.15-5.19-9.96-4.99-13.99,3.19-.26,2.95,3.55,3.99,5.99Z"></path><path class="cls-87" d="M81.55,235.44c2.71.06,4.33,3.17,2,5-.03.14-1.97.77-2,2-1.28-1.2-2.46-3.36-3-5,0-3.25,1.34-5.69,3-2Z"></path><path class="cls-230" d="M37.55,169.44l.58.61c-.03-1.28,1.93-7.87,6.42-5.61l-.66-2c1.81-1.54,2.36-3.2,1.66-5,.89-.4,2.01-2.33,3.52-.03,3.49,5.29-5.52,20.59-10.92,18.98-3.38-1.01-.87-5.49-.61-6.95Z"></path><path class="cls-160" d="M42.55,159.44c1.55.4,2.22,2.06,2,5-2.54,2.18-5.98,3.07-6.01,6.99-1.43.31-.98-.64-.99-1.99.96-5.44.58-6.13,5-10Z"></path><path class="cls-276" d="M45.55,157.44c4.6.28,1.76,4.63-1,7-3.23.74-1.74-2.35-2-5,1.08-.95,1.65-1.39,3-2Z"></path><path class="cls-57" d="M83.55,267.44l1.8-2.41c3.64,2.86,6.89-3.01,6.2-6.59.69-.28.49-1.87,2.54-.08,10.07,8.78-16.97,30.61-10.54,9.08Z"></path><path class="cls-144" d="M91.55,258.44c5.19,2.2-1.07,8.77-3.66,9.85-3.24,1.35-1.43-3.37-4.34-.85,1.34-4.49,3.55-7.18,8-9Z"></path><path class="cls-97" d="M173.55,239.44l1.57,1.62c-.87,2.67.61,1.13,4.43-4.62,3.78.78,3.48,7.08,2.55,10.06-.76,2.42-9.65,12.04-12.03,8.93-3.77-4.91-.41-12.36,3.48-15.99Z"></path><path class="cls-235" d="M179.55,236.44c.51,4.99-2.92,9.17-8,8.99l2-5.99c1.86-1.74,1.92-3.84,6-3Z"></path><path class="cls-148" d="M117.55,289.44c1.29.24,2.34,0,2.86,1.65,2.27,7.05-7.3,18.64-14.86,17.36-.18-4.23-.29-7.07,1-11l2.12.36c.75,6.59,9.49-4.6,8.88-8.36Z"></path><path class="cls-266" d="M117.55,289.44c.71,5.96-3.55,13.47-9.96,12.96l-1.04-4.96c.77-2.35,2.01-4.41,4-6,2.91,1.99,4.26,1.84,4.07-.44l1.93-1.56c.32,0,.7-.06,1,0Z"></path><path class="cls-60" d="M116.55,289.44c.75,5.93-4.43,8.04-6,2,2.42-1.93,2.75-2.01,6-2Z"></path><path class="cls-19" d="M151.55,268.44c5.12.08,2.88,10.39-.06,13.44-11.12,11.51-14.51-3.35-6.94-10.44,1.34.56,1.96,1.82,1.86,3.8,1.78-2.36,3.49-4.62,5.14-6.8Z"></path><path class="cls-292" d="M151.55,268.44c.96,7.23-9.68,14.48-7,3,1.84-1.72,4.45-3.04,7-3Z"></path><path class="cls-258" d="M65.55,312.44l.32-2.05c2.84-3.11,5.4-6.43,7.68-9.95-2.1-2.08-1.83-3.15,1-4,3.19.74,2.26,8.25,1.24,10.74-.93,2.28-8.92,10.9-10.24,5.26Z"></path><path class="cls-138" d="M73.55,300.44c-1.08,4.86-2.69,10.23-8,12-.95-4.08-.57-11.2,3-14,1.01,1.39,2.68,2.05,5,2Z"></path><path class="cls-26" d="M74.55,296.44c-.32,1.34-.7,2.66-1,4-3.29,3.07-7.09,2.66-5-2,1.72-1.35,3.68-2.54,6-2Z"></path><path class="cls-257" d="M103.55,218.44c.13,3.02-.98,7.13-2,10-2.24,6.31-10.62,15.17-18,12,.05-.26-1.86-3.36-2-5-.69-8.08,1.13-19.24,8.49-24.01s13.15-1.39,13.51,7.01Z"></path><path class="cls-108" d="M135.55,231.44c2.03,5.02-.25,12.43-4.48,16.02-2.85,2.43-9.77,5.25-10.52-.02l1.16-3.42c5.81-3.1,9.93-7.23,12.35-12.38l1.5-.2Z"></path><path class="cls-51" d="M135.55,231.44c-2.47,7.1-9.46,11.38-15,16-.85-5.97,1.19-12.29,6-16,1.34,1.03,1.64,2.7.89,5l5.11-8c2.96.01,2.27,1.2,3,3Z"></path><path class="cls-27" d="M132.55,228.44c1.23,9.1-11.21,16.5-6,3,1.73-1.34,3.65-3.01,6-3Z"></path><path class="cls-73" d="M202.55,159.44c.33-.33,4.75-1.25,4.99-1,1.71,2.91-4.21,8.81-5.99,6.99-.31-.32.55-5.55.99-5.99Z"></path><path class="cls-254" d="M62.55,195.44c2.2,4.47,6.69-.84,5-3,8-2.83,4.43,8.29,1.84,12.34-1.93,3.02-10.72,11.2-11.84,5.15-.91-4.9,1.43-11.27,5-14.49Z"></path><path class="cls-226" d="M67.55,192.44c2.77-.62,2.43,1.65,1.82,3.31-1.21,3.27-8.72,6.55-6.82-.31,1.47-1.32,3.15-2.35,5-3Z"></path><path class="cls-270" d="M49.55,260.44c-.15-3.71,2.19-9.49,6-10-1.37-2.48,1.21-8.24,3-10,4.39.76,3.14,8.35,2.05,11.55-1.02,2.98-8.25,12.31-11.05,8.45Z"></path><path class="cls-218" d="M58.55,240.44c1.09,4.74-1.29,6.59-3,10-1.31,2.71-6.28.94-6-2,1.1-3.74,4.21-8.83,9-8Z"></path><path class="cls-48" d="M55.55,250.44c-1.76,3.5-3.46,6.98-6,10-2.16-2.98-.94-8.79,0-12l6,2Z"></path><path class="cls-20" d="M92.55,216.44c8.88-3.39,7.57,5.92,4.87,11.37s-11.08,14.5-11.87,3.63l2.18-6.39c2.51-.6,4.78-1.81,6.82-3.61-.94-1.39-1.61-3.06-2-5Z"></path><path class="cls-204" d="M92.55,216.44c-.17,2.55.49,4.22,2,5-1.82,5.12-3.68,3.2-5.97,5.52-1.27,1.29-.97,3.8-3.03,4.48-.42-5.8,1.25-12.81,7-15Z"></path><path class="cls-197" d="M94.55,221.44l-5,1.49c-1.04-1.51,2.31-6.25,3-6.49,3.45-1.2,2.78,2.82,2,5Z"></path></g></svg> 