<?xml version="1.0" encoding="UTF-8"?> <svg xmlns="http://www.w3.org/2000/svg" id="Laag_2" viewBox="0 0 390.05 387.84"><defs><style>.cls-1{fill:#3b5066;}.cls-2{fill:#c60816;}.cls-3{fill:#a55d3c;}.cls-4{fill:#f8f0e3;}.cls-5{fill:#74433f;}.cls-6{fill:#f4e2cd;}.cls-7{fill:#b57b5f;}.cls-8{fill:#c60917;}.cls-9{fill:#9b4425;}.cls-10{fill:#e7c2ac;}.cls-11{fill:#f0f6e3;}.cls-12{fill:#f9f4f1;}.cls-13{fill:#803c22;}.cls-14{fill:#c68f69;}.cls-15{fill:#843c24;}.cls-16{fill:#4d1a1a;}.cls-17{fill:#b97551;}.cls-18{fill:#550c07;}.cls-19{fill:#dca881;}.cls-20{fill:#f6d4b3;}.cls-21{fill:#b98066;}.cls-22{fill:#85554f;}.cls-23{fill:#fbefdb;}.cls-24{fill:#270805;}.cls-25{fill:#f4e6db;}.cls-26{fill:#792416;}.cls-27{fill:#561a12;}.cls-28{fill:#9f614c;}.cls-29{fill:#a46343;}.cls-30{fill:#6a2920;}.cls-31{fill:#f5e4d2;}.cls-32{fill:#e7d6ce;}.cls-33{fill:#f6e8d8;}.cls-34{fill:#70342b;}.cls-35{fill:#d5bfb5;}.cls-36{fill:#c0815b;}.cls-37{fill:#f6efe8;}.cls-38{fill:#fadcd7;}.cls-39{fill:#faf5f0;}.cls-40{fill:#b09e97;}.cls-41{fill:#853c22;}.cls-42{fill:#9c4c36;}.cls-43{fill:#daa892;}.cls-44{fill:#aa6845;}.cls-45{fill:#b2dded;}.cls-46{fill:#79331f;}.cls-47{fill:#1e5d0e;}.cls-48{fill:#f9f4ee;}.cls-49{fill:#cca493;}.cls-50{fill:#200b0e;}.cls-51{fill:#c15724;}.cls-52{fill:#aa7770;}.cls-53{fill:#d39d82;}.cls-54{fill:#965a3f;}.cls-55{fill:#75271e;}.cls-56{fill:#fbf4eb;}.cls-57{fill:#b77551;}.cls-58{fill:#4a0b07;}.cls-59{fill:#824136;}.cls-60{fill:#faf5ed;}.cls-61{fill:#f6ebde;}.cls-62{fill:#671309;}.cls-63{fill:#fbf3ea;}.cls-64{fill:#541411;}.cls-65{fill:#f0b615;}.cls-66{fill:#30090a;}.cls-67{fill:#2f0605;}.cls-68{fill:#fbf2d7;}.cls-69{fill:#0a3809;}.cls-70{fill:#9e4c37;}.cls-71{fill:#c60514;}.cls-72{fill:#400906;}.cls-73{fill:#8c5636;}.cls-74{fill:#faf3e7;}.cls-75{fill:#864f4a;}.cls-76{fill:#a05c3a;}.cls-77{fill:#f1d6c3;}.cls-78{fill:#591610;}.cls-79{fill:#bc835c;}.cls-80{fill:#360d09;}.cls-81{fill:#7d9aaa;}.cls-82{fill:#f7efe1;}.cls-83{fill:#fcfdf0;}.cls-84{fill:#893e22;}.cls-85{fill:#b8835d;}.cls-86{fill:#ecd0a4;}.cls-87{fill:#f8e5d4;}.cls-88{fill:#0d4707;}.cls-89{fill:#edf0dc;}.cls-90{fill:#fbfaf3;}.cls-91{fill:#b18779;}.cls-92{fill:#dead8a;}.cls-93{fill:#faf6f0;}.cls-94{fill:#97514a;}.cls-95{fill:#c59687;}.cls-96{fill:#2b0506;}.cls-97{fill:#490f0f;}.cls-98{fill:#d6ac8d;}.cls-99{fill:#704034;}.cls-100{fill:#753021;}.cls-101{fill:#c40816;}.cls-102{fill:#6a2218;}.cls-103{fill:#f0dac6;}.cls-104{fill:#430505;}.cls-105{fill:#783d32;}.cls-106{fill:#f7f1e9;}.cls-107{fill:#5a5b77;}.cls-108{fill:#280505;}.cls-109{fill:#e0d1c9;}.cls-110{fill:#94553a;}.cls-111{fill:#d6dcda;}.cls-112{fill:#391114;}.cls-113{fill:#b9040f;}.cls-114{fill:#c99777;}.cls-115{fill:#a94a37;}.cls-116{fill:#2c0506;}.cls-117{fill:#5a150f;}.cls-118{fill:#d8c67e;}.cls-119{fill:#591a12;}.cls-120{fill:#b4867a;}.cls-121{fill:#5f2617;}.cls-122{fill:#390d11;}.cls-123{fill:#423630;}.cls-124{fill:#b99b98;}.cls-125{fill:#f0e1d6;}.cls-126{fill:#ba9a96;}.cls-127{fill:#f6e5d4;}.cls-128{fill:#fbf8f5;}.cls-129{fill:#c48e62;}.cls-130{fill:#8e4829;}.cls-131{fill:#f0c9a3;}.cls-132{fill:#efdfd0;}.cls-133{fill:#f4e9dd;}.cls-134{fill:#12690b;}.cls-135{fill:#914f34;}.cls-136{fill:#fbf7f0;}.cls-137{fill:#5c1d13;}.cls-138{fill:#1e1216;}.cls-139{fill:#470f10;}.cls-140{fill:#f6f3f2;}.cls-141{fill:#ceb0a1;}.cls-142{fill:#bf846f;}.cls-143{fill:#4a100e;}.cls-144{fill:#f8f3ea;}.cls-145{fill:#944d30;}.cls-146{fill:#e8a550;}.cls-147{fill:#954f31;}.cls-148{fill:#985233;}.cls-149{fill:#aba7a2;}.cls-150{fill:#c1c4c0;}.cls-151{fill:#90462f;}.cls-152{fill:#153c12;}.cls-153{fill:#4c130f;}.cls-154{fill:#91706b;}.cls-155{fill:#4e0f0c;}.cls-156{fill:#975436;}.cls-157{fill:#e4a572;}.cls-158{fill:#934b34;}.cls-159{fill:#ab6e4b;}.cls-160{fill:#692818;}.cls-161{fill:#834e48;}.cls-162{fill:#5e2218;}.cls-163{fill:#9e583a;}.cls-164{fill:#7f3e28;}.cls-165{fill:#5d2119;}.cls-166{fill:#c97a5d;}.cls-167{fill:#f2d8cb;}.cls-168{fill:#9b5034;}.cls-169{fill:#ca7d5c;}.cls-170{fill:#732716;}.cls-171{fill:#560803;}.cls-172{fill:#c7825f;}.cls-173{fill:#aa6f4b;}.cls-174{fill:#982e26;}.cls-175{fill:#fbf9ef;}.cls-176{fill:#250203;}.cls-177{fill:#2c1716;}.cls-178{fill:#e9e7bc;}.cls-179{fill:#f5f0e5;}.cls-180{fill:#e5d4d0;}.cls-181{fill:#92553e;}.cls-182{fill:#400505;}.cls-183{fill:#662620;}.cls-184{fill:#682219;}.cls-185{fill:#dcc1b9;}.cls-186{fill:#934d31;}.cls-187{fill:#5f2014;}.cls-188{fill:#8e3032;}.cls-189{fill:#d9b497;}.cls-190{fill:#651a10;}.cls-191{fill:#f9f1e8;}.cls-192{fill:#bf7616;}.cls-193{fill:#145e13;}.cls-194{fill:#b19d7a;}.cls-195{fill:#fcf7f0;}.cls-196{fill:#e6e3dd;}.cls-197{fill:#5e1e18;}.cls-198{fill:#c6581b;}.cls-199{fill:#faf2e8;}.cls-200{fill:#270303;}.cls-201{fill:#e7eae3;}.cls-202{fill:#f9f6f0;}.cls-203{fill:#390d10;}.cls-204{fill:#faf6f1;}.cls-205{fill:#6a2c29;}.cls-206{fill:#faf6ef;}.cls-207{fill:#e36f25;}.cls-208{fill:#541208;}.cls-209{fill:#892309;}.cls-210{fill:#f0d39d;}.cls-211{fill:#1d0202;}.cls-212{fill:#c00410;}.cls-213{fill:#2f751d;}.cls-214{fill:#bb9c95;}.cls-215{fill:#11260a;}.cls-216{fill:#793a28;}.cls-217{fill:#deb79d;}</style></defs><g id="Laag_1-2"><path class="cls-176" d="M301.92,47.07c7.66,7.41,8.67,12.66,9.34,23.16.41,6.46.76,21.8-.08,27.9-.53,3.82-5.07,10.41-4.66,12.92.44,2.7,9.52,14.7,11.55,18.36,3.79,6.82,8.26,15.1,9.07,22.93,1.95,18.7-1.78,38.88-.68,57.68,5.48,5.03,12.29,7.71,18.28,12.72,40.1,33.54,32.97,80.28-7.56,109.38-50.12,35.99-129.67,36.37-186.42,17.6-35.26-11.66-67.79-34.91-106.98-31-6.65.66-16.21,4.24-19.96,10.04s-4.06,20.51-14.59,9.49c-6-6.27-6.69-16.7-5.84-24.92.46-4.4,4.5-13.19,4.5-15.13,0-1.58-3.57-6.75-4.34-9.28-11.1-36.09,20.88-67.31,52.59-77.36l.22-62.28c1.23-3.97,2.27-8.16,4.09-11.91,2.61-5.37,17.25-23.69,17.67-26.4.36-2.32-3.41-7.82-3.85-11.77-.97-8.56-.93-29.41,0-38.01,1.96-18.14,30.24-26.75,45.01-30.99,19.89-5.71,40.28-8.44,60.81-10.69,3.55-6.66-4.11-13.25-4.83-17.34s10.04-1.49,12.04-1.01c14.16,3.42,24.02,15.1,34.77,19.23,7.58,2.91,24.78,4.45,34.21,6.79,14.77,3.67,34.53,9.11,45.64,19.86Z"></path><path class="cls-96" d="M81.07,355.01c2.53-.23,5.73-1.36,6.25,2.24.18,1.28-1.66,16.81-2.13,18.9-3.91,17.48-31.54,14.96-28.83-4.84,1.58-11.6,14.77-15.39,24.71-16.3Z"></path><path class="cls-108" d="M372.01,131.95c20.64-3.3,24.59,27.46,6.52,30.53-25.62,4.36-25.81-27.45-6.52-30.53Z"></path><path class="cls-66" d="M8.03,167.94c17.35-2.77,17.31,24.1-.79,19.31-10.77-2.85-8.69-17.79.79-19.31Z"></path><path class="cls-116" d="M377.98,203.44c-1.07,1.26-5.52,2.96-7.3,3.2-16.78,2.21-14.25-18.59.08-17.98,6.75.29,12.08,9.1,7.22,14.78Z"></path><path class="cls-122" d="M29.02,144.97c5.14,4.94-8.21,13.21-8.48,3.08-.13-4.77,5.78-5.68,8.48-3.08Z"></path><path class="cls-112" d="M103.01,358.47c-3.52,3.37-11.38.28-7.81-5.07,3.09-4.63,11.94,1.11,7.81,5.07Z"></path><path class="cls-16" d="M28.98,196.91c9.8-2.94,4.74,14.58-3.66,4.19-.22-1.29,2.47-3.84,3.66-4.19Z"></path><path class="cls-203" d="M344.91,195.8c2.13-.36,6.39,4.1,2.42,7.48-6.27,5.34-8.17-6.52-2.42-7.48Z"></path><path class="cls-177" d="M349.12,160.86c4.78,2.96-4.49,7.81-5.84,3.35-1.02-3.34,3.97-4.5,5.84-3.35Z"></path><path class="cls-123" d="M348.26,187.71h-3.99c.02-3.98,3.99-3.93,3.99,0Z"></path><path class="cls-83" d="M179.27,179.72c.56.65,1.03,1.92.57,2.15-3.31,1.64-6.64,2.94-10.11,4.11l.18,2.72c-4.47,2.94-5.02,5.94-1.65,9.02.76.09,1.77.25,2,.87.54,1.42.73,16.45-2,16.63,4.77,4.19,10.13,6.56,16.94,5.43l.18-6.02c-9.55,1.32-11.04-22.75.06-18.82-.65-3.53-.04-5.89,1.82-7.09-3.72.5-6.95-5.83-5.13-7.67,1.39-1.41,26.52-1.04,31.22-.93,1.67.04,11.67.48,12.05.96,1.54,1.97,1.62,23.45-6.38,9.33l-3.76-1.7-1.92,1.56c-33.07-9.2-28.5,40.08.6,28.5l2.32.94c1.64-1.2,5.38,3.26,6.92,5.11.16.19.14.52.08.89,11.31,5.55,22.32,4.47,34,1,4.49-4.7,9.49-7.03,15-7,1.74-.63,3.74-.96,6-1-.22-2.87,1.82-3.89,4-2,1.53-1.38,2.05-.59,3,1,.7-.97,1.35-1.06,2,0,5.67-1.53,9.16.91,5.14,6.3-3.62,4.86-13.93,2.39-18.14-1.3-3,2.77-1.14,8.65.21,12.13l-1.21,1.87c-.29.74-.62.72-1,0-1.4-.35-2.4.31-3,2,.64,1.72-.24,3.81-2.63,6.25l-.37,4.75c5.39.87.72,4.27-2.12,6.17-.51,2.18-1.47,3.46-2.88,3.83-.08,6.25-1.87,6.91-5.36,1.98-9.14,1.4-18.24,1.48-27.31.24l-2.33-3.22c-4.34,3.21-13.46,7.77-10-2-3.02-2.69-3.67-8.92-1-12-1.45-.49-2.27-1.09-1.91-2.49-13.88-2.54-27.86-4.3-41.94-5.27.84-2.43.66-4.9-.14-7.25h-2.27c-3.2-4.08-7.26-2.46-12.16,4.84l-2.58.16-2.65,2.05c-10.73-1.12-20.16.53-28.27,4.96l-2.08-1.01c-3.78,2.19-5.77,6.42-6.85,10.5l-1.15.5c.88,3.2.88,5.87,0,8-.28.87-.62.86-1,0-2.36,1.37-3.04.47-2-2l-4.28-.33c-4.42,2.97-7.11,1.1-8.07-5.64l-3.18-2.21c-5.42-9.66-14.07-15.79-25.97-18.39l-.68,10.41c-1.79,2.72-3.11,2.08-3.82-.84-1.7-28.58-2.23-57.3-1.99-86,11.01,11.36,26.72,15.55,41.8,18.69,25.27,5.26,49.52,6.01,75.19,6.31Z"></path><path class="cls-147" d="M98.27,280.72c1.24.46,2.43.3,3.58-.41,7.92,2.55,15.85,5.16,23.7,7.94,1.27.45,2.21,1.14,2.72,2.47,14.76,3.89,29.55,7.96,44.37,12.22l1.63,1.78,3.54-1.15c6.63,3.24,13.45,4.96,20.46,5.15,1.6-2.67,7.22-2.09,8,1,6.91-.85,13.24-.19,19,2,9.36-1.32,21.06-2.23,30,1-.46.87.87,1.54,4,2,1.4-1.46,4.29-2.11,5,0l5-1c.35-2.43,7.34-4.01,8-1,2.59-1.03,3.59-.7,3,1,1.77,1.2,3.44,2.53,5,4,.69.62,1.19,1.68.62,2.18-3.79,3.27-31.86,4.64-37.64,1.76-9.21,3.05-18.81,3.67-28.79,1.87l-3.15.66c-4.71,4.18-10.91,3.48-18.6-2.09-8.4.18-14.57-2.54-18.49-8.16-9.68-3.91-19.84-7.58-30.09-9.91-5.78-1.31-10.19-2.25-15.86-.3,33.13,16.21,76.12,32.34,116.78,28.36l5.22,1.64c1.02.16,1.69.5,2,1-.52,1.89-.86,3.89-1,6-.23.97-1.23,1.64-3,2-3.1,3.57-11.41,4.04-15,1-.96.54-1.94,1.04-2.97,1.4s-1.99.69-2.97.7c-27.97.22-50.32-4.83-77.01-11.89-5.73-1.52-43.75-14.37-44.22-16.69-.17-.86-.23-1.67.17-2.51l.2-2.25c5.99-1.05-1.54-6.21-.29-.97.21.86-.28,1.63-.9,2.21-2.45,3.31-10.63.09-9-4l.74-2.12c5.45-1.63-4.96-7.93-2.33-.58l-1.41,1.7-2.99,1.51c-27.87-6.9-67.9-16-81.63,16.83,1.21,4.66.42,6.55-2.38,5.65-1.03-2.03-1.52-3.78-2-6l.56-14.29,1.44-.71c1.8-3.69,6.17-6.38,10-7-2.31-1.6-1.17-3.8,1-5-1.76-2.39.38-3.35,2-1,.61-1.72,1.44-1.76,2.86-1.02,4.06-3.43,7.93-4.4,13.14-4.98-1.39-6.6,3.85-9.7,4-2,3.72.77,6.29.01,7.73-2.26l2.27-.74c-.66-3.49,6.35-4.02,5,0l2.16.56c1.65,4.04,7.23,4.09,6.13-1.13l1.71-1.44c-2.7-1.76-5.08-3.91-6.98-6.54l.98-2.46c.61-.53,1.25-1.02,1.95-1.39,5.34-2.84,27.67,1.36,33.05,5.39Z"></path><path class="cls-153" d="M299.27,121.72c5.27,1.9,10.41,10.85,13.13,16.22,2.21,4.39,5,10.1,2.87,14.78-16.96,13.81-64.45,18.7-86.46,20.04-17.31,1.06-38.85,1.75-56.08,1.01-2.6-.11-4.94-.66-7.46-1.05-1.75-2.44,1.59-3.35,3.84-3.82,9.16.86,11.74-2.14,15.95-9.73l3.2-1.45,1.53-1.07c22.2-.8,44.13-3.45,65.81-7.96,14.73,2.74,9.75-11.41-4.5-6.8l-20.88,2.69-2.95-1.87c-1.28-.98-2.01-1.35-4.41-.66l-.59-1.34c6.53-1.54,13.62-1.25,20.36-2.14,14.94-1.96,32.98-6.11,46.68-12.32,3.64-1.65,5.31-4.63,9.96-4.54Z"></path><path class="cls-119" d="M98.27,308.72c1.43-2.35,2.67-1.45,3,1,1.67,2.57,6.01,3.58,9,4,1.41-1.26,1.91-.72,1,1,.67.54.99,1.03,1.95,1.51,9.84,4.87,26.35,10.39,37.07,13.97,29.15,9.72,57.1,14.37,87.98,13.52.89,2.5,3.02,3.63,6.4,3.37,3.24.23,4.44,1.44,3.6,3.63-1.62,1.35-3.48,2-5.56,2.14-36.95,2.61-75.05-5.63-107.73-17.89l-1.71.75c-28.64-10.86-87.36-41.32-112.69-10.69-1.95,2.36-4.58,11.07-5.83,11.68-1.34.65-2.99-3.02-3.49-3.99,2.09-1.42.01-3.95.44-6.03,1.94-9.5,14.61-19.73,23.55-22.49,23-7.09,41.39.97,63.02,4.52Z"></path><path class="cls-130" d="M317.27,307.72l-1.45,3.22c-20.68,12.38-43.66,21.97-67.83,19.56-.4,1.28-1.31,1.83-2.71,2.03-34.47,5.06-81.41-15.01-112.01-28.82,2.4-3.82,5.19-3.44,9.51-3,7.03.7,31.11,8.29,37.47,11.52,1.75.89,2.1,3.87,4.72,5.28,3.91,2.11,9.41,1.52,13.33,2.67,5.52,1.61,8.32,7.47,15.18,4.45,1-.44.98-1.82,2-2.22,6.2-2.48,14.37.67,20.25.37,4.05-.21,8.5-3.17,13.04-3.13,3.2.03,5.51,1.85,7.96,1.92,5.4.14,17.08-1.25,22.91-1.96,1.28-.16,5.08-.64,5.62-1.88-2.55-.58-2.39-1.01,0-2-.73-3.11,1.27-3.62,3-1,1.17-.87,2.92-1.32,5.24-1.35l.76-4.65c-2.63-.2-2.14-.71,0-2-1.1-2.35,2.31-3.79,4-2,.88-.44,1.55-.44,2,0l1.21.69c-.06,6.63,8.42,1.94,3.17-.31l-.38-2.38c-.99.33-1.32,0-1-1l.5-1.85c10.18-5.63,17.82-13.96,24.5-23.15,1.46-4.5,3.13-8.99,5.02-13.49.1-.12-1.13,2.85-2.02,1.49.48-1.85.61-4.08,1-6l.56-1.96c-.96-16.3,5.86-10.74,8.65,1.55,4.81,21.11-7.09,38.08-24.22,49.41Z"></path><path class="cls-40" d="M316.27,254.72c-6.03,9.87-14.63,15.11-24,21l-.75-2.68c3.11-15.29,5.86-30.68,8.27-46.18.5-5.86,1.32-11.58,2.47-17.14-2.85-1.6-2.14-8.75,1-9.5-.78-.21-1.95-.55-2-1.17-.49-5.49-.48-15.89,0-21.38l2-1.46c-3.5-.06-4.59-8.2-1-9.5,4.69-1.79,10.91-5.05,15-8,.78,0,1.97.22,1.97.71.39,24.71-.04,50.97-.77,75.87-.03,6.56-.1,13.19-2.2,19.43Z"></path><path class="cls-155" d="M335.27,222.72c3.87,3.41,7.87,7.75,12,13,10.33,9.51,16.55,25.82,16.18,40.06-.17,6.37-1.34,16.18-6.18,19.94.13,4.61-5.04,11.07-9,13-3.33,7.01-11.92,14.3-18.95,18.27-.48.27-1.22.07-2.05-.27.05.83,0,1.53-.35,1.79-6.56,4.69-16.43,9.16-24.09,11.81-.4.14-.96-.17-1.56-.6-.53.77-1.1,1.46-1.83,1.85-6.59,3.53-42.45,11.81-48.72,10.24-.86-.21-1.66-.63-2.46-1.09-2.2-2.6-10.76-1.67-12-3.01-1.74-1.89,3.1-1.96,2-3.99,5.19-.14,9.84-.33,15-1,2.09-1.29,4.09-1.63,6-1,.45-1.17,1.87-1.66,3-1,1.63-3.03,3.71-3.03,6.6-1.63,2.38-1.6,4.18-1.72,5.4-.37,2.31-.45,3.91-1.51,4.79-3.16,24.81-6.12,50.6-16.64,63.49-39.53l2.72-.31c.56-1.12.82-2.11-.14-3.14,14.1-16.3,6.83-46.37-9.86-57.86-5.16-5.99-11.07-5.69-5.99-16,.99-.94,4.95,3.2,5.99,4Z"></path><path class="cls-175" d="M302.27,166.72c-1.05,2.97,1,7.62,1,9.5v24c0,1.84-.84,6.6-1,9.5-.63,3-.98,6.1-1.05,9.3-1.99,2.34-8.53-.98-5.37-3.44l-.05-30.41c-1.72-2.71-1.9-4.2-.52-4.46-1.68-1.47-3.98-1.52-6.88-.15l-1.12-.85c.96,2.56.29,3.9-2,4,3.95.08,1.38,4.55-2.19,4.1-18.18-7.95-30.47,15.71-16.72,28.37l-.09,2.54c.28.39.52.78.57,1.2.08.61-8.81,6.19-10.57,5.8-8.72,5.24-24.13,6.04-32-1-2.37.05-7.73-5.14-5-7l-.77-2.13c6.36-5.86-6.09-5.09-9.02-1.36-5.36,2.47-14.43-4.03-7.78-8.42l20.44-.99c.74-5.41-2.93-10.37-6.93-13.64l.07-2.46c1.04.28,2.31-.26,3.94.52,2.04.97,3.14,4.75,6.05,4.48l-.12-10.86c-2.39-1.75-5.01.19-7.29-.13-1.71-.24-2.95-1.73-6.01-2.07-8.83-.98-19.52.87-28.58.07-1.97,4.96,3.52,6.04,4,8,.53,2.89-5.86,2.39-7.08,1.2-1.31-1.28-1.99-10,1.08-10.2,15.15.11,29.96-.01,45-1l2,.67v39.78c.48.88,8.34.92,9,0v-40.28s2-1.18,2-1.18c.64-.05,1.83-.89,3-1,.84-.22,1.52-.05,2.02.6l1.38,40.93c.31,1,7.21.6,7.65-.14l.93-41.27,2.03-1.13c15.33-1.71,31.46-3.45,46-9Z"></path><path class="cls-76" d="M99.27,127.72c16.76,8.01,35.2,11.36,53.53,13.49l1.47,1.51c.87.28.86.62,0,1q-1.27,2.66,0,0l.52-.52c7.24,1.77,14.64,2.82,22.2,3.15,4.77,5.34-8.8,6.34-12.44,4.77-5.17,2.32-10.64,3.29-16.29,3.6l-1.98,1.8-19.15-2.01c-12.34-.41-16.17,2.57-25.16,10.63l-4.71.57c-10.09-2.71-17.48-5.25-26-11,.47-3.48,7.9-12.99,11-9,2.54-1.43,5.21-2.43,8-3,.12-3.16,1.64-5.9,4.57-8.23-1.14-2.44-1.33-4.36-.57-5.77-3.97-.62-6.61-3.23-2-5,2.13,1.47,4.81,2.67,7,4Z"></path><path class="cls-13" d="M158.27,103.72c27.09,2.42,52.94,2.2,80-.99-2.34,3.9-8.72,8.02-10.46,12.05-.89,2.07-.22,3.52-.54,4.94,2.8,3.84.46,6.18-7,7-10.09.44-20.84.06-31,0-4-1.41-7.34-3.74-10-7-.59,1.02-1.42,1.44-2.52,1.48-17.32.57-50.07-.66-64.85-8.59-.68-.37-1.18-1.08-1.63-1.89l2.68-1.79c16.34,3.88,32.83,6.91,49.64,7.86l-.32-2.07c5.49.22,14.33.66,19.52,0,1.38-.18,2.97-.59,1.48-1.99-2.31-2.19-23.87-1-28-3.01,1.44-1.31,3.42-2.37,5.95-3.19-1.82-.3-2.98-.6-2.95-2.81Z"></path><path class="cls-27" d="M148.27,154.72c9.95-1.08,21.94-.59,31.92.92,1.54.23,2.86,1.17,4.08,2.08,1.52-.77,2.82-1.34,4,0-1.4,2.52-6.48,10.39-8.3,11.69-2.53,1.8-7.89,1.02-11,1.53-1.58.26-3.4,1.75-3.69,1.78-17.28,1.81-51.04-2.44-68-7,6.63-3.26,12.24-11.36,19.74-12.76,8.57-1.6,22.16.86,31.26,1.76Z"></path><path class="cls-89" d="M64.27,240.72c2.79,1.82,1.82.92,2-1.49.27-3.54-.04-7.02,1.01-10.52,1.07-.17,2.02.14,3.04.45,2.96.9,17.87,8.18,19.97,10.03,3.44,3.03,3.77,5.81,5.96,9.04.72,1.07,2.71,1.37,3.47,2.53.91,1.38.98,5.36,1.68,5.82,1.4.91,5.44-.88,8.87,1.13-.76,1.23-2.22,2.21-4.38,2.93.87,6.92-.67,10.61-4.62,11.07-5.18-.78-10.61-2.73-15.75-3.75-4.59-.92-13.7-.41-16.78-3.22-5.63-5.14-4.07-17.32-4.47-24.03Z"></path><path class="cls-140" d="M98.27,44.72c-30.41,26.76,16.03,40.58,36.8,44.7,36.74,7.29,69.57,3.62,106.2,1.3,9.23-2.35,12.57-1.35,10,3-12.36,3.9-27.37,5.06-40.59,5.1-.8,0-1.61-.48-2.41-1.1l-7,1c-8.9,1.42-18.08,1.29-27,0l-7-1c-8.76,1.53-20.06-.36-29.36-1.98-14.71-2.56-31.97-5.89-43.64-15.02-4.25-2.03-7.91-5.03-11-9-.19-.32-1.36-.64-1.77-1.69-5.17-13.14,4.73-20.63,14.77-26.31,2.11-.8,2.77-.47,2,1Z"></path><path class="cls-58" d="M344.27,285.72c2.44,2.5.37,6.65-3,7l.06,3.46c-15.11,20.02-40.03,28.17-62.94,35.64-.88-.95-1.91-1.36-3.12-1.1-3.33,1.9-3.8,2.82-2.67,6.98-4.14,2.63-7.74,2.13-8.52-3.2-3-.19-5.94-.45-8.81-.78-45.43,3.76-81.99-8.72-121.75-28.77-2.04-1.03-1-.03-.25-1.23,16.93,5.35,32.96,13.43,49.98,18.52,16.02,4.79,45.35,10.61,61.58,8.56,1.91-.24.95-1.92,2.87-2.16,5.15-.65,11.5.58,16.96-.03,17.8-1.99,37.57-11.63,52.61-20.89,9-5.89,16.13-13.2,21.4-21.92l2.6-1.08,3,1Z"></path><path class="cls-145" d="M322.27,255.72c1.05-1.55,2.01-2.52,3.21-1.01,3.36,4.19-9.56,23.22-12.68,26.36-22.04,22.2-55.63,27.62-85.54,27.65-1.03.35-1.89.85-2.6,1.49l-18.4-.49c-2.53-.38-5.53-.52-8-1-2.15,1.22-15.06-2.34-15.53-3.42-1.52-3.46,12.57-5.08,14.53-2.58,13.41-1.42,27.61-1.31,41-1l1.62-1.41c21.8-2.68,43.83-8.12,62.29-20.46l2.09-.12c.25-2.2,3.8-5.12,6-5,1-1.98,2-3.98,3-6,3.82-4.1,6.65-7.86,9-13Z"></path><path class="cls-11" d="M287.27,179.72c1.95.65,4.11.49,6.48-.48l1.52,1.48c.04.84.98,2.56,1.04,4.43.18,5.11-.92,28.79.34,31.11,1,1.84,2.69,2.27,4.14.48.37-.46-.64-5.87,1.48-7.01-.22,4.12.33,8.38-.01,12.49-1.47,17.84-5.95,36.14-9.99,53.51-1.35.85-2.76,3.08-5,4l-1.16-2.36c2.18-7.25,2.6-13.31-5.84-15.64-.6,1.99-4.08-.17-4-2-.97-1.8-.27-4.36,2.11-7.71-2.1-1.79-3.13-3.55-3.11-5.29-.53-.2-.97-.44-1.12-.81-.92-2.16-2.99-7.77-1.88-9.19h1l2.18-.47c8.8,3.37,17.77-9.41,2.09-8.29-2.99-.74-6.09-2.64-3.26-5.24,5.12,2.38,12.02,5.43,16.58.05,2.64-3.11.63-6.04-3.58-5.05-.61-2.95,6.66-4.37,8-2-.78-.09-1.94-.33-2-.9-.73-6.43-.82-24.32,0-30.64l2-1.46c.09,3.61-8.71,4-10,1,.6-1.38.77-2.95,2-4Z"></path><path class="cls-78" d="M208.27,17.72c5.26,3.48,8.14,6.66,12.67,9.83,5.15,3.62,13.29,4.75,17.33,8.17,3.05,5.35,5.78,11.05,1,17-10.88,9.43-29.35,8.99-43,9l-.71-2.22c4.59-2.32,9.15-4.77,13.68-7.35,16.68-9.66,4.39-23.92-4.57-34.03-.03-1.69,1.18-1.82,3.61-.41Z"></path><path class="cls-207" d="M140.27,277.72l.88-1.14c9.15,2.72,18.54,1.33,28.18-4.17,1.16.44,1.88,1.32,2.34,2.43l30.47,1.12,1.13,1.76c2.52,2.14,4.46,9.4,1,11l-1.62,1.92c-10.11,1.32-26.01,2.04-34.48-3.63-2.26,2.28-4.79,2.74-7.9,2.71-12.51-2.57-24.68-6.73-37-10.01.4-1.23,1.97-2.19,3-2.99.75-1.93,3.33-4.29,5-3,3.82.22,6.82,1.55,9,4Z"></path><path class="cls-170" d="M262.27,37.72c4.54.47,9.27,4,13,7,1.47.84,2.12,1.47,3,2,6.58,9.35-4.49,22.14-12.71,27.4-4.54,2.9-15.18,8.37-19.29,4.6-1.3-1.42-.77-2.69,1.59-3.82-7.08,2.46-14.35,4.17-21.78,5.13-4.5.58-27.29,2.06-28.96-.28-1.18-1.65-.82-2.35,1.15-3.04l3.28-2.07c10.45-.57,20.71-1.83,30.76-3.78l1.96.86c1.07-.64,2.02-1.25,2.07-2.64,12.37-2.33,35.64-14.47,23.68-28.9l.25-2.46c-.25-1.7,1.22-1.33,2,0Z"></path><path class="cls-168" d="M192.27,8.72c1.97.76,4.05,2.04,6,3,.45,1.1,1.11,2.1,2,3,.89.19.85.52,0,1,2.94,4.24,3.21,10.85,3,15.99-.72,18.06-10.08,17.84-25,16.01.69,1.83-1.99.99-1.85,1.02,5.18.41,10.13,1.07,14.85,1.98,1.78-3.49,16.65-1.2,9.65,3.1l-10.65,3.9-1.54,2.04c-13.64-.07-28.07-.54-38.89-9.7-1.32,1.82-2.06,1.3-3.57-.34-.54-2.14.08-3.34,1-5l1.8.82c.08-1.68,7.66-6.57,10.26-3.74-.27,6.13,2.6,4.87,4.95.92.26-3.53,4.06-2.42,4,2,.46-2.44,3.58-3.18,5-1,1.44-2.57,2.64-3.4,5-1,14.4.03,21.09-18.91,12-29-.28.87-.62.86-1,0-2-.02-2.62-1.81-1-3-2.21-2.64-.87-3.31,4-2Z"></path><path class="cls-2" d="M181.27,179.72v9.01s6,0,6,0c.23.92.32,8.69,0,9.01-.41.41-6.6-.42-7.01-.01-.34.34-.19,8.17-.05,9.56.78,8.2,5.9,4.36,7.06,5.44.37.35-.27,8.32,0,10-5.28.78-19.01-.18-19.01-7.51v-17.5c-.93-.17-3.71.29-4.01,0s-.11-7.58.15-7.87c.39-.42,2.66-.09,3.45-1.08.74-.92-.63-2.65-.42-3.45.44-1.73,9.94-3.32,11.82-5.59.67,0,1.33,0,2,0Z"></path><path class="cls-184" d="M129.27,68.72l3.16.12c5.44,3.59,11.46,5.85,17.75,7.47l1.09,2.41c29.56,5.48,60.46,6.08,90.32-.11l4.68,1.11c1,2.92-1.34,4.92-7,6-28.45,4.22-69.55,6.78-96.27-4.23-7.98-3.29-22.42-9.42-23.73-18.77,1.71-4.81,11.1,1.46,10,6Z"></path><path class="cls-8" d="M256.27,175.72l-1.01,44.99c-3.87.07-7.8-.51-11.48,1.02l-1.51-45.01c4.7-.45,9.07-.45,14-1Z"></path><path class="cls-101" d="M239.27,177.72v44.01s-13.01,0-13.01,0v-43.01c4.24-.28,8.75-.64,13.01-1Z"></path><path class="cls-150" d="M304.27,60.72c2.65,19.38-28.09,28.92-42.79,32.71-38.68,9.98-130.15,11.27-164.91-9.52-1.41-.84-2.66-1.58-3.3-3.2h1c17.47,10.87,52.51,16.82,73,17l7,1c8.98.1,18.02.08,27,0l7-1c14.3-.16,28.94-1.12,43-4l-.12-2.08c11.62-2.8,22.08-6.37,31.38-10.71l.74-2.21c7.45-3.96,9.42-7.3,13-14,.52-5.17,4.3-8.66,8-4Z"></path><path class="cls-205" d="M248.27,350.72c17.69-1.72,36.29-4.91,53-11,2.72-.84,3,.07,1,2-56.08,21.4-113.83,14.92-169-6-.33-3.33.69-1.39,2.6-1.1,11.69,1.78,24.19,7.79,36.39,10.62,25.16,5.83,50.46,7.97,76.01,5.49Z"></path><path class="cls-148" d="M260.27,37.72c7.52,6.26,6.21,14.02.41,20.91-6.3,7.49-17.3,10.61-26.41,13.09-.91-1.74-.12-3.67,1-5-2.02.28-2.44-.56-1-2,1.77-2,6.94-4.79,9.99-6.16.26-.12.62,0,1.01.16l.14-1.01c1.65-1.24,7.78-5.87,3.86-4.99,2.77-7.98.17-13.19-5-19,3.21-2.39,14.48.39,16,4Z"></path><path class="cls-64" d="M283.27,50.72c3.75,4.64,6.92,9.82,6,16-5.25,10.78-38.7,17.33-50,19,3.54-1.28,4.76-3.76,7-6-.86-.28-.84-.61,0-1,16.09-1.53,34.51-14.06,32-32,.54.33,1.62.27,2.53.97,1.24.95,1.65,2.21,2.47,3.03Z"></path><path class="cls-137" d="M322.27,255.72c1.65-3.62,3.62-6.51,3-11h2v15.5c0,7.29-12.28,22.67-17.78,27.51-12.52,11.02-28.23,15.92-44.22,18.99-3.07,2.72-7.13,3.92-12.17,3.62-8.09.92-18.28,1.05-25.83-.62-.87-.28-.86-.62,0-1,27.6-1,70.13-9.49,87.43-33.07,1.61-2.2,8.57-14.43,9.34-16.67.61-1.78,1.04-3.83-1.77-3.26Z"></path><path class="cls-135" d="M158.27,103.72l5.99,1.49c-2.42,5.22-4.19,4.25-8.99,4.51-10.33.55-27.12-3.36-37.42-6.08-5.34-1.41-21.7-6-24.58-9.92-3.12-1.22-4.75-6.12-1-7,17.42,11.09,45.78,15.19,66,17Z"></path><path class="cls-204" d="M101.27,278.72c4.29,2.28.33,2.93-3,2-11.39-2.94-23.23-4.47-35-4l-1.97,2.11c-19.26,1.39-41.73,10.45-47.42,30.09l-2.61,2.8c-1,5.38-.48,10.41-2,15-7.47-34.65,26.72-55.9,57.55-55.04,11.34.31,23.61,3.97,34.45,7.04Z"></path><path class="cls-143" d="M299.27,104.72c-16.18,14.2-57.59,21.07-79,22,5.02-2.16,5.79-1.71,7-7,2,1.23,4.23,1.15,6.47,1.01,18.73-1.21,48.35-10.81,63.53-22.01,3.26-.41,3.98,3.93,2,6Z"></path><path class="cls-102" d="M208.27,17.72c-3.43-.74-1.12,2.26-.45,2.95,5.93,6.11,10.22,7.43,11.37,17.64,1.87,16.6-15.32,14.06-22.92,23.41-13.28,0-29.79.43-41.89-5.61-1.81-.9-7.67-4.62-8.11-6.39,2.38.74,1.44-2.4,3.36-1.92,2.18.55,6.52,4.73,9.96,6.11,7.82,3.13,22.21,4.32,30.69,3.81,22.23-4.66,27.55-20.78,12.02-37.34l-2.02-4.66c-.02-.33,0-.67,0-1-1.76-.7-1.87-1.52,0-2,2.85,1.48,5.34,3.24,8,5Z"></path><path class="cls-61" d="M162.27,114.72c2.64,2.48,19.08.03,20.01,1v2.99c-5.8-.19-11.69.29-17.5,0-8.6-.43-20.31-1.8-28.89-3.11s-16.94-4.44-25.62-4.88c-1.62,1.86-2.3,1.38-2-1-6.26-1.43-12.25-3.52-17.99-6.3.79,1.81-.02,2.68-2.01,2.3-5.74-3.7-8.03-3.72-8.96-11.56-.17-1.45-.14-1.78,1.47-1.46,2.62.51,9.67,5.57,12.97,7.03,20.73,9.17,45.84,14.07,68.51,14.99Z"></path><path class="cls-121" d="M222.27,140.72c2.68.09,5.76-1.08,5,2-.92.39-2.26.72-4,1-1.22,2.63-10.66,4.25-11.5,1,0,.78-.19,1.97-.67,2-12.53.72-28.97.91-40.33-2l-.36,1.02c-5.47-.28-10.85-1.28-16.14-3.02-18.95-2.13-38.76-5.11-55-15,33.6,12.24,69.87,14.85,105.54,14.04,5.71-.13,11.17-1.25,17.46-1.04Z"></path><path class="cls-179" d="M316.27,254.72l1-96c1.05-.76,2.02-2.86,3.99-3-.18,13.49.26,27.04.05,40.54-.23,14.74.2,31.28-1.06,45.94-.46,5.38-1.27,8.07-3.99,12.51Z"></path><path class="cls-187" d="M341.27,284.72c-4.47,12.03-14.08,16.88-24,23,10.34-10.43,21.92-20.7,23.04-36.46.27-3.77-.5-22.45-5.54-22.52-2.17-.03-1.26,6.8-1.57,8.41-.16.83-.89,1.35-.93,1.57.97-9.17-1.99-16.71-4.99-25,16.59,11.88,20.98,32.16,13.99,51Z"></path><path class="cls-3" d="M40.27,265.72c3.15-.42,3.51,1.16,1.36,3.19-.86.81-20.82,8.64-22,8.72l-3.35-.92c-2.1.51-4.43.51-7,0-2.13-4.8-.68-14.32,3-18,1.7-3.15,2.7-2.1,2.99,3.13.72,3.5,2.72,4.13,6.01,1.87-2.06-1.95-.49-3.8,2-4,2.48-2.91,4-6.21,4.55-9.89l2.45-1.11c-1.13,7.27,2.16,15.6,10,17Z"></path><path class="cls-199" d="M171.27,26.72c.66-.12,1.35.07,1.76.65.99,1.39-27.4,7.69-32.54,8.7l-4.22-.35c-.31.08-.69-.08-1,0-10.54,2.5-19.83,8.61-27.94,15.71.36,1.13.34,2.22-.06,3.29,2.62,4.74-3.53,11.75-7.64,5.2-1.41,2.13-2.87,4.07-4.36,5.8-.37-.65-2.2-.35-1.85-3.23,1.43-11.9,16.72-21.9,26.88-26.24,11.24-4.8,25.8-6.88,37.97-8.53,2.23-.77,4.57-1.11,7-1,1.97-.18,4.02.15,6,0Z"></path><path class="cls-132" d="M241.27,292.72c-21.31,3.34-59.74,1.37-81-3,1.94-.28,7.16-4.85,7.64-4.94,1.1-.19,2.98,2.21,4.88,2.91,10.05,3.71,22.55.33,31.48,1.02l.48-1.27c10.25,2.83,20.01,4.54,27.92-4.95l2.61.22c2.91.44,8.26,7.06,6,10Z"></path><path class="cls-160" d="M335.27,234.72c.8-2.21,5.11,1.82,5.65,2.35,10.32,10.36,15,25.51,13.27,40.07-.99,8.32-4.2,12.33-8.92,18.58-1.93-.6-3.26-1.6-4-3,1.16-1.81,2.17-4.96,3-7,8.44-20.68,5.27-34.41-9-51Z"></path><path class="cls-30" d="M103.27,111.72c.41-.93,1.04-1.27,1.95-.99,25.46,7.72,43.57,11.2,71.8,10.47,1.13-.03,1.88-.33,2.25-1.47,6.04.55,5.66,3.24,10,7-33.16-.18-56.27-.58-87-14-1.33-1.41-.77-1.92,1-1Z"></path><path class="cls-216" d="M122.27,42.72c-12.73,12.98-14.14,23.99,1.69,34.81l16.31,8.18c-9.33-.96-19.04-4.09-27.67-7.82-6.76-2.92-13.74-5.86-17.33-12.17,2.22-3.92,3.69-6.36,6.88-.39l7.28,4.92c-2.86-6.2-2.91-11.37-.16-15.54-3.25-4.8,8.73-13.12,13-12Z"></path><path class="cls-93" d="M186.27,6.72c1.52.65,2.19,1.98,2,4,.46,1.07.83,1.76,1,3,2.83,8.3,1.71,13.41-5.26,19.19-2.78,2.31-9.81,7.13-12.74,4.81,1.03,2.66-.81,3.71-3,2l-.77,2.35c-1.38-1.82-2.8-1.5-3.23.65,2.75,6.76-9.6,7.19-6,0-3.34-.6-5.34,2.5-7.94,3.55-1.85.75-3.55,1.3-3.06-1.56,3.66-6.57,15.51-7.04,21.98-9.52,12.38-4.75,20.96-14.93,15.03-28.47.66.01,1.34-.06,1.99,0Z"></path><path class="cls-36" d="M92.27,123.72c-1.17,3.57,1.23,3.77,2,5-.83,1.3-2.4,2.28-4.73,2.93.62,4.4-.14,6.09-2.27,5.07-4.65.89-6.08,3.14-4.28,6.73l-.72,2.27c-3.81-.35-7.29,8.2-11,9-1.06-.71-1.87-1.04-3-2-2.01-1.95.12-6.63,1.33-9.05,3.68-7.38,9.54-16.21,14.65-22.74l3.02-1.21c1.78,1.24,3.21,2.77,5,4Z"></path><path class="cls-82" d="M8.27,282.72c-6.45-28.54,20.23-58.21,46.55-64.95,2.9-.74.39,1.53.45,1.95-.45,2.66-6.82,6.22-9,5l-1.88,2.8c-5.76,3.25-10.81,7.08-15.14,11.51,2.32,2.92,1.05,9-2.98,6.69-6.37.11-10.26,7.65-12.55,13.01h-1.45c-2.39,5.63-3.5,11.86-3,17.99,2.54,1.09,2.53,1.85,0,3,1.19,3.18.85,4.18-1,3Z"></path><path class="cls-17" d="M140.27,50.72c.37.93.38,2,1,3-.46,1.78.57,3.38,3.1,4.8l-.1,1.2c.09,2.27-1.02,7.42-4,6-3.31-5.29-4.5-5.51-3.56-.66l-1.44,1.66c-.44,3.74-3.02,3.43-6,2-2.98-2.33-6.78-8.23-10-6-.12-.87-.04-2.07,0-3,.6-.93,1.54-1.75,2.85-2.47.93-2.99,3.48-3.77,2.15-.53,2.75,4.49,9.74,3.46,5.53-1.69l.47-2.31c-3.31-.16-3.79-1.38-2-4-1.71-3.19,6.3-8.31,9-8l2.49,1.47c-.39,2.89-.22,5.74.51,8.53Z"></path><path class="cls-128" d="M87.27,119.72c-4.4,7.96-11.1,15.17-15.18,23.32-1.67,3.33-2.21,6.5-3.82,9.68-.13-.11-1.16.29-2.04-.68-2.21-2.46-2.31-5.31-1.48-8.35,1.01-3.71,14.63-25.04,17.54-26.53,1.83-.94,3.43,1.46,4.99,2.56Z"></path><path class="cls-59" d="M294.27,95.72c-14.71,11.75-41.08,16.58-59.5,20,.18-1.55,2.39-3.74,3.5-5,3.67-2.35,7.76-3.54,11.95-4.56l2.05,1.56c5.17-3.42,14.1-5.73,20.56-6.92l3.44.92c-.4-2.93.48-3.87,3-2,3.11-2.47,6.38-4.78,9.8-6.93l2.2.93c2.05-.91,2.74-.13,3,2Z"></path><path class="cls-125" d="M348.27,234.72c16.48,18,22.94,40.72,11,63-2.82,3.04-3.47,1.46-2-2,8.86-20.09,3.13-43.45-10-60-1.33-1.41-.77-1.92,1-1Z"></path><path class="cls-139" d="M285.27,90.72c2.94,2.23.94,5.23-6,9-1.03.45-2.04,1.64-3,2-6.28-1.91-18.3,2.52-24,6-4.36.97-9.11,2.9-14,3,13.43-15.41,30.3-11.62,47-20Z"></path><path class="cls-57" d="M46.27,224.72c1.92.31,1.59,1.64-1,4-7.47,5.72-11.69,11.16-15,20-1.89,5.04-.31,8.9-7,11-2.31-1.79-2.79-6.28-2-9-5.76.78,1.08-5.75,5-5,2.53-1.58,2.22-2.53,2-5.5-1.72.36-2.97.9-1.52-1.52,3.19-5.32,14.11-10.85,19.52-13.99Z"></path><path class="cls-6" d="M328.27,276.72c-5.94,11.25-14.09,18.63-25,25-.38,1.65-2.05,2.65-5,3-1.27.6-3.05,1.6-4,2-.02.55-.09,1.01-.32,1.12-5.13,2.45-10.92,4.36-16.68,4.88-3.25.04-5.08.58-8,1l-5,1c-1.66.05-3.34-.09-5,0-1.91-.77-1.58-1.44,1-2,.36-3.07,1.95-3.19,4-1,23.06-4.23,50.81-14.33,63-36,1.41-1.33,1.92-.77,1,1Z"></path><path class="cls-127" d="M304.27,279.72c-18.69,13.85-43.2,19.65-66,22-1.7.18-10.57.9-8.4-1.28.35-.35.85-.56,1.4-.72.99-.07,2.01.07,3,0,2.6-.72,5.26-1.05,8-1,19.63-2.56,44.79-9.41,61-21,2.57-1.12,3.03.21,1,2Z"></path><path class="cls-183" d="M268.27,123.72c1.42-.07,3.01.48,3,2-21.22,6.35-41.71,8.34-64,9-2.25-1.03-4.71-1.34-7.35-.91l-.65-1.09,41.37-3.13c9.34-1.34,18.56-3.35,27.63-5.87Z"></path><path class="cls-54" d="M47.27,259.72c.7.68.82,1.2,2,2,8.18,5.03-3.74,7.82-6,3-2.93-1.07-7.42-4.94-8-8,.18-8.19,4.49-19.06,12-22,1.01.2,1.65.77,1.88,1.75-6.37,7.57-4.53,14.89-1.88,23.25Z"></path><path class="cls-14" d="M204.27,300.72c-2.42.72-4.75,1.39-7,2l-13.99,1.99c5.06,1.21,9.85,3,14.99,4.01.4,3.25-.96,1.67-2.84,1.35-7.29-1.24-14.07-3.58-21.16-5.35l-.43-1.15c-5.68-1.69-11.31-3.53-16.9-5.51l.33-2.33c5.79,1.14,11.72,1.78,17.51,2.99l29.49,2.01Z"></path><path class="cls-105" d="M199.27,132.72c2.77.08,6.87-1.04,8,2-24.84.74-47.57.47-72-4-2.46-1.44-1.59-2.09,1-2,5.23.85,17.96,3,22.5,3h16c7.63,0,16.53.76,24.5,1Z"></path><path class="cls-111" d="M137.27,264.72c1.64,2.7-2.1,6.2-5,6-1.06,1.83-3.85,4.21-6,4-.82.62-3.14,2.73-3.49,2.75-1.04.08-4.49-2.79-5.51-3.75-4.68,3.17-2.86-7.38,1-5-.21-2.78.01-4.58,3-3-1.08-3.28,6.1-8.54,9-7,1.42.24,2.4,1.43,2.93,3.56,2.17.28,3.53,1.1,4.07,2.44Z"></path><path class="cls-171" d="M280.27,261.72c2.32.7,3.32,1.7,3,3,2.37,7.19-.63,13.53-9,19-2.57,1.64-3.88,2.89-7,4-2.58.25-4.34-2.79-3-5l-.26-2.44c11.51-5.92,15.27-12.11,11.26-18.56-.7-.23-.66-.56,0-1-1.38-1.49-.75-2.08,1-1,1.01.99,2.65,1.67,4,2Z"></path><path class="cls-196" d="M315.27,152.72c-1.51-2.05-1.09-4.93-1.94-7.56-2.83-8.72-9.12-15.95-14.06-23.44-2.58-3.92,2.28-4.66,4.01-3.57.77.49,8.41,13.51,9.51,15.55,1.34,2.48,6.28,11.71,6.29,13.72,0,1.28-2.76,4.45-3.81,5.3Z"></path><path class="cls-201" d="M283.27,78.72l3,3.5c-9.96,5.03-20.49,7.33-31.27,9.76-1.44.33-2.72,1.53-3.73,1.74-.51-5.36-5.71-3.27-10-3,13.3-3.46,29.77-5.5,42-12Z"></path><path class="cls-19" d="M142.27,291.72c4.96,1.37,9.95,3.01,15,4,3.82,3.66,11.01,3.73,15.72,5.78,1.17.51,3.77,2.18,1.28,3.22-15.59-3.88-31.3-7.15-46-14l.92-1.14c4.7,1.52,9.06,2.24,13.08,2.14Z"></path><path class="cls-164" d="M49.27,261.72c2.4,1.62,7.11,3.7,10,4.01-1.39,3.22-6.03,1.59-9.25,2.24-9.6,1.92-21.06,6.65-28.75,12.75-2.37,2.08-6.39-1.22-5-4l25.01-9.01-1.01-1.99c1.21.55,2.69-.98,3-1,3.31-.2,10.77,3.44,6-3Z"></path><path class="cls-182" d="M265.27,306.72c-1.07,1.37-3.34,4.04-1,5-1.06.19-2.18.72-4,1-1.43,1.46-4.19,2.02-5,0-10.07.5-20.06-.27-30-1-4.15-1.09-1.15-3.48,2-2,13.33-1.34,23.84-.28,38-3Z"></path><path class="cls-181" d="M171.27,26.72c.26-.02,7.33-2.41,4,.98-2.52,2.56-16.37,4.53-20.55,5.96-7.57,2.6-16.26,7.86-14.45,17.05-1.27-3.18-2.03-6.71-3-10,1.51-2.03,1.84-3.03,1-3,.66-.42,2.83-1.59,1.99-1.99h-3.99c11.73-2.9,23.64-5.31,35.63-7.89l-.63-1.12Z"></path><path class="cls-53" d="M141.27,53.72c7.73,12.39,41.66,14.19,55,14,2.26.34,2.93,1,2,2-6.93.45-13.93.79-21,1-.94,2.97-5.36,2.12-7,0-8.63-2.11-17.08-4.9-25.38-8.37l-.62-2.63c-2.29-1.36-7.96-6.52-3-6Z"></path><path class="cls-193" d="M110.27,257.72c.44.26,1.83,1.61,2,2,3.13,4.2,2.81,10.84-1.74,11.63l-1.26,1.37c-2.73.23-5.35-.6-8-1,6.32-4.64-2.84-15.08,9-14Z"></path><path class="cls-149" d="M304.27,60.72c-5.06-.23-5.84-.04-8,4,2.05-11.36-8.45-16.83-15-23.99,7.7,2.4,21.85,11.59,23,19.99Z"></path><path class="cls-97" d="M298.27,88.72c.27,2.46-4.66,6.8-7,5-4.97,3.44-7,3.82-12,6,.93-4.53,6.38-2.69,6-9,4.47-2.24,10.98-7.67,15-11,2.35,1.86,1.22,9-2,9Z"></path><path class="cls-103" d="M142.27,291.72c-.79,2.47-1.82,1.45-3.54,1.13-3.13-.6-7.52-1.37-10.46-2.13-10.17-2.63-19.85-7.38-30-10,2.37.04,3.47.67,3-2,13.84,3.92,27.26,9.21,41,13Z"></path><path class="cls-77" d="M244.27,57.72c1.41-1.33,1.92-.77,1,1-3.94,2.72-6.42,4.37-11,6,.16,2.06-4.86,4.46-6,2-7.78,6.17-20.91,4.93-30,3l-2-2c13.83-.19,36.26-2.45,48-10Z"></path><path class="cls-62" d="M236.27,274.72c4.79,2.95,5.45,4.95,2,6,5.65,5.01,11.02,8.58,17.97,4.7,2.19-.81,3.24-.09,3.03,2.3,1.25.55.91,1.22-1,2-5.23,1.11-11.6,2.15-17,3-1.49-4.16-4.58-5.16-6-10-3.07.67-4.03-6.27-1-7-1.86-2.61-.55-3.95,2-2,.87.28.86.62,0,1Z"></path><path class="cls-100" d="M49.27,230.72c2.19-1.65,8.12-8.25,7.05-.46-.71,5.11-9.79,9.5-10.91,15.2-.56,2.84,4.09,10.03,1.87,14.25-.67-.65-1.73-.74-2.43-2.03-1.62-3.01-1.26-11.1-.52-14.42.65-2.94,2.99-4.55,2.95-8.55,1.04-1.61,1.71-2.94,2-4Z"></path><path class="cls-85" d="M135.27,35.72c-4.36,2.39-8.71,4.45-13,7-3.98,2.37-11.84,7.07-13,12-.75,2.59-1.01,2.59-2,0-1.01-.54-2.12-2.57-4-2.5,7.64-6.49,16.12-13.12,25.99-16.02,2.31-.68,4.53-.1,6-.49Z"></path><path class="cls-117" d="M56.26,239.72c-.08,7.66-.73,15.02,3,21.99-9.92-2.03-13.33-18.56-3-21.99Z"></path><path class="cls-162" d="M16.27,276.72c1.67,1.31,3.14,2.92,5,4-3.64,2.89-6.62,6.34-9.5,9.98l-1.5-2.98-1-8c.1-.97-.14-2.07,0-3,.22-1.44,1.6-4,1.5-6.01.64,4.47,3.06,4.11,5.5,6.01Z"></path><path class="cls-217" d="M231.27,299.72c-.86,3.54,4.13,1.54,7,2-13.31,1.37-27.47,2.02-41,1l-1-1.99c2.66-.04,5.34.02,8-.01,8.96-.1,18.07-.37,27-1Z"></path><path class="cls-161" d="M329.27,328.72c-10.06,6.61-15.86,8.75-27,13l-1-2c8.41-3.07,18.42-8.22,26-13,2.53-1.29,3.32-.54,2,2Z"></path><path class="cls-110" d="M108.27,109.72c-1.05,1.34-2.55,1.57-4.53.68l-.47,1.32-1,1c-5.31-2.32-8.92-3.72-14-7,1.76-.41-.73-2.14-1.02-3.49-.32-1.49-.03-1.73,1.41-1.42,5.78,1.28,13.45,7.11,19.61,8.9Z"></path><path class="cls-18" d="M287.27,279.72c-2.92,1.19-4.67,1.27-8,1l-.24-1.24c4.54-3.4,7.46-11.61,4.24-14.76-1.33-.83-2.38-1.45-3-3,1.75.43,3.15-.21,5.38,1.11,5.25,3.09,3.94,12.21,1.62,16.89Z"></path><path class="cls-120" d="M349.27,310.72c-7.25,8.46-10.26,11.6-20,18l-2-2c7.94-5,15.05-10.72,21-18,2.18-1.15,2.52-.48,1,2Z"></path><path class="cls-33" d="M138.27,37.72l2,.49c-.8,1.1-1.92,1.74-3,2.51-4.35,3.12-5.34,4.2-9,8,.68,1.53-.1,2.82-2.32,3.85-4.51,6.57-6.4,7.62-5.68,3.15,2.93-10.81,9.42-12.55,18-18Z"></path><path class="cls-32" d="M299.27,90.72c-2.73,1.01-2.81.11-1-2,.83-1.61.9-6.85,2-9,2.58-2.13,4.41-6.83,5.07-.53.76,7.26-2.27,7.31-6.07,11.53Z"></path><path class="cls-106" d="M85.27,80.72l5.15,7.55c.36,2.43.31,3.57-2.15,2.45-7.67-5.29-9.07-4.65-7.99-15.99,1.93,1.29,3.27,4.29,4.99,5.99Z"></path><path class="cls-22" d="M136.27,128.72l-1,2c-8.02-1.47-13.21-2.64-21-5l1-2c6.9,1.98,13.9,3.84,21,5Z"></path><path class="cls-154" d="M282.27,121.72c-3.89,1.11-4.74.09-1-2,6.69-2.62,13.05-5.96,18.99-10-2.56,7.46-11.72,9.37-17.99,12Z"></path><path class="cls-109" d="M299.27,104.72l-2-6c2.92-2.16,5.03-4.95,7.99-7,.77,6.92-1.41,8.98-5.99,13Z"></path><path class="cls-167" d="M46.27,233.72c1.68-1.42,2.27-.83,1,1-7.47,7.11-9.49,11.84-12,22-1.69-8.94,3.38-16.69,9.32-22.7.47-.47,1.53-.16,1.68-.3Z"></path><path class="cls-180" d="M107.27,121.72c.93,1.01.26,1.35-2,1-6.73-2.63-14.57-4.61-19-10.99,7.05,2.92,13.81,7.43,21,9.99Z"></path><path class="cls-35" d="M357.27,295.72c-.24,2.13-.13,2.24,2,2-3.15,5.88-5.82,8.12-10,13l-1-2c2.26-2.77,7.7-10.06,9-13Z"></path><path class="cls-73" d="M115.27,259.72c3.11,1.26,4.89,6.1,3,9-.77.76-2.51,1.3-2.96,2.56-.57,1.59,1,1.52,1.96,2.44-.94,3.32-6.94,2.33-4.99.01.09-.11,2.05.28,2.05-.62,0-.62-1.1-1.25-1.07-1.39l-.92-1.23c2.3-2.47,2.6-6.06.92-10.77-.24-1.96-.26-6.07,0-8l1.21.16.79,7.84Z"></path><path class="cls-75" d="M238.27,35.72c3.8,3.21,6.72,8.99,4.48,13.99-.64,1.43-2.39,2.06-3.48,3.01l1.03-9.52c.25-2.56-1.46-3.76-2.51-5.5-.84-1.39-3.23-2.12.48-1.98Z"></path><path class="cls-42" d="M279.27,280.72c-1.44,1.29-3.4,1.98-5,3-2.02-.44,1.08-2.62,1.53-2.97,6.03-4.8,8.46-7.42,7.47-16.03.11.07,1.29-1.71,1.86.61,1.58,6.45-1.25,11.28-5.86,15.39Z"></path><path class="cls-7" d="M92.27,86.72c-.69,2.77-.73,4.63,1,7-2.78.29-3.73-2.12-5-3l.98-.49c-1.68-2.97-3.95-5.97-3.98-9.51,1.33,1.32,5.63,5.13,7,6Z"></path><path class="cls-49" d="M263.27,36.72c1.33,1.33.8,1.35-1,1-.46-.18-1.39.12-2,0-3.57-2.97-11.28-4.22-16-4-.5-.56-2.08-.79-2-1.99,7.41-.87,14.41,1.99,21,4.99Z"></path><path class="cls-114" d="M130.27,52.72c-1.79,3.31-3.79,4.65-6,4-.09.01-.54-.85-.95-1l-1.06,5-2.99-1c.1-2.39.59-2.49,1-4-.12,5.13,3.49-2.91,4-3.5,1.3-1.51,2.91-2.36,4-3.5.73,1.26,1.2,2.81,2,4Z"></path><path class="cls-5" d="M281.27,119.72c-1.28,2.04-1.67,2.17,1,2-4.31,1.81-6.36,2.61-11,4-1.46-.01-2.57-.57-3-2,4.45-1.24,8.69-2.31,13-4Z"></path><path class="cls-52" d="M289.27,66.72c-1.68-5.57-3.01-10.94-6-16,4.59,4.61,9.55,8.7,6,16Z"></path><path class="cls-99" d="M55.27,219.72c.08.63,1.48,2.39,1.01,2.98-.39.5-8.3,3.94-11.01,6.02l1-4c2.91-1.69,5.64-4.1,9-5Z"></path><path class="cls-185" d="M264.27,282.72c1.21,1.47,2.77,2.98,3,5-2.37.84-6.39,1.44-9,2,.38-.6.58-1.48,1-2-1.43-.33,1.41-7.62,1.74-7.96,2-2.07,5.8.33,3.26,2.96Z"></path><path class="cls-178" d="M113.27,271.72c-1.41-.41-3.11.93-4,1-2.56-3.32,3.07-2.35,3.88-4.62.67-1.88-.04-6.48-.88-8.38h1c.27,2.16,2.28,4.29,2.1,7.52-.14,2.43-1.85,3.37-2.1,4.48Z"></path><path class="cls-148" d="M275.27,44.72c-3.08-1.75-10.22-5.92-13-7l1-1c4.29,1.95,9.12,3.88,12,8Z"></path><path class="cls-43" d="M328.27,276.72l-1-1c1.77-3.15,3.09-7.47,4-11l2.02-1.49c-.86,3.75-1.65,8.32-3.24,11.8-.5,1.1-1.66,1.47-1.77,1.69Z"></path><path class="cls-91" d="M299.27,90.72c-1.88,2.09-2.67,3.14-5,5-1.46-.01-2.57-.57-3-2,1.46-1.01,6.32-3.69,7-5l1,2Z"></path><path class="cls-189" d="M249.27,52.72c6.12-3.58,1.03,3.14-1.49,5.05-.95.72-2.11.68-2.51.95l-1-1c1.11-.71,2.55-3.57,5-5Z"></path><path class="cls-124" d="M348.27,234.72l-1,1c-2.1-2.64-7.58-7.62-10.41-10.05-.48-.41-3.65-2.43-1.59-2.95,5.22,4.02,8.57,7.16,13,12Z"></path><path class="cls-214" d="M115.27,123.72c1.28,2.04,1.67,2.17-1,2-3.59-1.09-5.35-1.57-9-3l2-1c2.47.88,5.66,1.33,8,2Z"></path><path class="cls-201" d="M94.27,80.72h-1c-5.23-1.37-7.55-4.9-10-9,4.07,2.1,7.38,6.75,11,9Z"></path><path class="cls-10" d="M310.27,274.72c-1.47,1.54-4.21,3.68-6,5l-1-2c1.16-.83,4.92-4.02,6-5,2.66-1.13,2.4-.07,1,2Z"></path><path class="cls-104" d="M132.27,270.72c.33-.41.67-.41,1,0,1.93,2.19.86,3.76-2,3-1.18.97-3.48,1.83-5,3v-2c1.93-1.46,3.32-3.66,6-4Z"></path><path class="cls-126" d="M96.27,43.72c2.77-1.56,5.39-4.31,8.99-3.99-1.11,2.27-5.34,3.54-6.99,4.99l-2-1Z"></path><path class="cls-21" d="M310.27,274.72l-1-2c.99-.9,3.05-2.98,4-4l1.01.52c-.49,2.44-2.43,3.83-4.01,5.48Z"></path><path class="cls-3" d="M10.27,287.72c-.88-1.76-1.55-3.01-2-5,1.36-.49.88-1.93,1-3,1.35,1.86,3.03,6.36,1,8Z"></path><path class="cls-141" d="M192.27,8.72l-.59.79c-2.51-.33-3.85-2.08-3.41,1.21-.39-.91-2.37-2.09-2-4,2.06.18,4.1,1.26,6,2Z"></path><path class="cls-95" d="M47.27,234.72c0-.47-.47-.98-1-1,1.03-.95,1.42-1.81,3-3,2.77,1.36-.98,3.03-2,4Z"></path><path class="cls-217" d="M242.27,298.72c-2.65.35-5.03.8-8,1,1.73-2,5.5-.68,8-1Z"></path><path class="cls-181" d="M165.27,26.72c-1.63.15-4.9.72-7,1,1.42-1.9,4.81-.76,7-1Z"></path><path class="cls-84" d="M200.27,12.72c0,.67-.01,1.33,0,2-2.4-.11-3.67-1.14-2-3,.67.33,1.34.66,2,1Z"></path><path class="cls-158" d="M76.27,359.72c1.17-.51,2.3-.66,3.39-.45.76,10.21-3.3,27.82-16.39,18.45-.77-1.4-1.81-1.51-2-4l1.61-1.5c4.63,1.7,6.43-2.02,4.56-6l.83-2.5c3.48-2.32,3.35-2.71,8-4Z"></path><path class="cls-165" d="M76.27,359.72c.97-.27,2.13-1.76,4-1-1.62,6.75,2.88,20.77-5.94,23.55-6.56,2.06-8.31.46-11.06-4.55,12.08,3.49,14.68-6.04,15.9-15.62.42-3.28-.21-2.38-2.9-2.38Z"></path><path class="cls-12" d="M68.27,363.72c4.39,6.21.74,13.53-7,10-.47-6.34,2.99-7.33,7-10Z"></path><path class="cls-156" d="M383.27,142.72c3.98,11.75-12.23,17.43-19,9-1.4-3.93-1.38-4.17,0-8,.83-.07,1.71.07,2.21.78,3.8,5.36,7.9-2.48,3.68-4.36l-.89-2.41c5.84-2.84,10.74-.21,14,5Z"></path><path class="cls-197" d="M364.27,151.72c8.71,4.08,18.88,2.11,19-9,8.16,13.04-14,23.05-19,9Z"></path><path class="cls-39" d="M364.27,143.72c.96-2.67,2.3-4.69,5-6,12.47,3.27-2.93,18.63-5,6Z"></path><path class="cls-34" d="M4.27,177.72c.85-1.3,2.18-2.05,4.01-2.27-.4-1.73-.07-2.97.99-3.73,2-.34,2.38-1.21,4.45,1.05,10.75,11.73-8.55,14.96-9.45,4.95Z"></path><path class="cls-133" d="M9.27,171.72c2.68,4.91.1,6.7-5,6-.37-4.14,1.37-5.38,5-6Z"></path><path class="cls-55" d="M373.69,196.34c.36.6,2.93.45,1.11,3.42-5.69,9.3-19.04-5.33-5.78-6.84,4.5-.51,3.02.69,4.67,3.42Z"></path><path class="cls-104" d="M215.27,244.72c.4,4.03.91,7.92,1,12-.88,1.88-.75,3.37.4,4.47-2.07,2.54-5.22,3.77-9.48,3.71,1.08,5.09.44,8.37-1.92,9.82-.37.45-.76.85-1.23,1.12-1.19.68-25.55-.6-27.25-1.59-.85-.49-1.21-1.57-1.51-2.53-2.42-1.72-3.42-4.39-3-8-1.48-1.41-3.43-2.45-5.85-3.13.31,1.8-.08,3.51-1.15,5.13,1.61,3.74-5.59,6.01-9,5-1.32,1.75-3.91,2.64-7.77,2.68-.86,2.21-3.27,2.65-7.23,1.32-3.85.81-5.52-.19-5-3-1.58-1.65-.53-2.64.84-3.89l17.55-11.49c-.99-5.08-.95-6.06,2.36-9.96,1.56-1.84,7.23-6.6,9.24-4.65,6.42-2.89,17.35-3.4,24.6-2.98,6.08.35,17.27,2.38,23.31,3.86l1.09,2.12Z"></path><path class="cls-113" d="M285.27,183.72c.45-.28,8.21-.05,10-1v33c0,.41-7.01,1.8-8,2-.39.08-.92.83-1.48.76-.32-.04-.4-.74-.52-.76-.84-1.09-1.62-1.3-3-1-1.06.65-2.86,1.6-4,2-2,.35-4.03.6-6,0-1.42.88-5.36,2.15-6,0-12.05-9.38-9.98-28.38,4.71-33.79,7.72-2.84,10.3,1.63,13.65.84,1.02-.24.55-2,.64-2.05Z"></path><path class="cls-71" d="M215.27,188.72c5.85,4.19,9.95,10.48,9.01,18l-22.44.98c-2.52,2.5,2.66,5.09,4.94,5.12,2.99.04,3.56-2.62,6.01-3.09,3.08-.6,7.23.37,10.48,0-.24,3.11-1.92,5.82-4,7.99.86,2.95-.51,3.65-3,2-21.17,13.61-39.04-18.33-20.33-29.83,6.62-4.07,12.36-3.04,19.33-1.17Z"></path><path class="cls-212" d="M127.27,187.72c1.79.29,10.63-.41,11,0,1.23,1.31.3,18.27,1.2,21.3,1.38,4.68,9.28,4.09,10.56-3.03,2.11-11.75-8.63-20.71,12.24-18.27v34c-2.58-1.36-11.58,1.46-11.99,1.01-.14-.16-.08-3.98-1.51-3.99-.88,0-4.94,3.97-11.77,2.75-3.18-.57-9.73-5.14-9.73-8.27v-25.5Z"></path><path class="cls-211" d="M102.27,217.72c-2.87-.77-7.93-.39-10.35-1.15-3.72-1.17-.59-8.74-.65-11.35-.04-1.95-1.04-3.83-1.04-5.96-.02-5.51.1-11.04.05-16.53,4.94,1.83,14.27-1.42,11,5.99,4.53-4.15,11.11-5.49,16.49-2,8.3,5.37,6.68,25.22,5.49,34-3.73-1.81-7.99-.77-11.99-1v-21.5c0-3.53-9-4.18-9-1v20.5Z"></path><path class="cls-65" d="M216.27,256.72c.03,1.33-.04,2.67,0,4,5.44.48,4.32-3.68,10-2,2.88,2.44,3.55,4.11,2,5,1.93,1.45,2.65,4.31,2.17,8.56,2.17.87,3.45,2.02,3.83,3.44-.08.58.77,6.2,1,7-6.98,7.09-11.14,9.87-21.38,8.88-3.06-.3-8.52-2.79-9.62-2.88.54-3.39-1.88-7.82-1-11-1.65-2.24-.54-2.98,2-3,1.25-3.65-1.26-8.7.44-11.07,1.1-1.54,6.78-.77,8.57-2.42,1.29-1.19.6-3.39,1.99-4.51Z"></path><path class="cls-200" d="M171.27,229.72c2.85,7.06,1.18,11.06-5,12-2.92,2.64-7.97,5.11-9.9,8.68s4.11,5.59-3.38,9.54c-5.03,2.65-3.99,2.42-7.81,5.19-3.03,2.2-6.93,3.35-8.91,6.59-1.6,2.38-2.82,1.79-3-1-.31-.03-.69-.04-1,0,1.49-1.74,3.43-4.54,5-6l-.37-2.36c6.13-3.49,9.83-8.39,11.07-14.7l2.3-.94c-2.16-2.29-2.63-6.07,1-7-2.91-2.41-.1-4.25,3-5,4.1-5.91,12.24-14.89,17-5Z"></path><path class="cls-210" d="M154.27,234.72c-1.01,1.45-2.5,3.37-3,5l-1.67,1.77c-14.39-2.28-36.22,2.67-27.33,21.69l-1,2.55c-.96.9-2.04,2.04-3,3-.89-3.02-2.18-5.97-3-9-1.85-7.3-.62-14.68,6-19,3.46-2.34,5.84-3.99,10.76-4.74,6.93-1.06,15.19-1.06,22.24-1.26Z"></path><path class="cls-86" d="M171.27,229.72c1.05,2.18,1.38,3.31.99,6.01,14.4.37,29,1.4,42.87,5.15.46,1.24,0,2.59.13,3.85l-24.51-3.99-24.49.99c4.64-4.19,5.94-5.18,5-12Z"></path><path class="cls-47" d="M274.27,222.72c.78,5.05,8.99,2.76,12.42,5.07,6.34,4.28-7.99,16.91-13.42,8.93-2.48-3.64-3.09-10.75-1.99-15,1.43-.36,1.98.53,2.99,1Z"></path><path class="cls-50" d="M107.27,226.72c-4.46-1.85-3.57-6.65,2-5,8.33-.99,18.69,2.05,27.33,2.17l1.66,3.32c-.72,2.3-10.94,1.61-13.54,1.56-5.29-.11-12.14-1.24-17.45-2.05Z"></path><path class="cls-134" d="M273.27,248.72c2.8-1.54,2.97,1.64.84,3.26,1.48,2.73,2.36,7.2-.84,8.74-.05,3.38-7.08,8.14-10,6-2.95.01-3.62-2.32-2-7,.4-1.32-.35-2.39.95-4.53,2-3.31,6.21-2.44,4.05-5.47-.07-3.05,5.98-3.78,7-1Z"></path><path class="cls-213" d="M226.27,258.72c.71.21,1.54,1.45,2.74,1.73,8.68,2.02,19.75-.75,28.69-.78l2.07,5.05c.21-1.81,1-3.36,1.5-4.99.05,2.51-.87,6,2,7,1.49,1.29.84,1.9-1,1-1.88.7-4.05.13-6.51-1.7-2.09.32-3.59-.11-4.49-1.3-1.4,1.48-3.89,3.35-6,1-4.97,3.74-12.43.22-17-2-.16-1.22-2.17-3.24-2-5Z"></path><path class="cls-138" d="M109.27,221.72c-.98.12-2.02-.11-3,0l1,5c-2.51-.38-17.31-2.41-17.89-3.1s.16-4.49-.1-5.89l19.99,4Z"></path><path class="cls-69" d="M275.27,246.72c1.18,2.49.43,3.2-2,2l-7,1c-.22-.31-1.47-.42-1.83-1.66-1.06-3.61,2.28-7.03,4.83-9.34.53-1.34,1.55-2.87,3-2,1.8,4.12,4.85,5.1,3,10Z"></path><path class="cls-81" d="M256.27,225.72c1.67-.65,1.92-.62,1,1-11.63,4.57-22.78,6.38-34-1-1.33-1.41-.77-1.92,1-1,8.7,5.46,22.86,5.03,32,1Z"></path><path class="cls-1" d="M272.27,218.72c.87.28.86.62,0,1-5.68,1.27-9.25,4.74-15,7l-1-1c2.29-1.01,9.37-6.79,10-7,1.03-.34,4.45.01,6,0Z"></path><path class="cls-194" d="M121.27,240.72c-5.02,5.96-7.04,10.95-6,19-.74-2.72-.75-5.51-2-8,.44-3.24,3.24-8.83,6.04-10.47.71-.42,1.68-.33,1.96-.53Z"></path><path class="cls-107" d="M224.27,224.72l-1,1c-3.15-2.07-4.09-3.58-7-6,.57-.36,2.88-1.87,3-2,.67,2.89,2.53,5.45,5,7Z"></path><path class="cls-11" d="M278.27,218.72c-2.93,1.03-3.87.52-6,1v-1c2-.02,4,.01,6,0Z"></path><path class="cls-47" d="M272.27,236.72c-.28-.12-2.5,1.55-3,2-.1-2.06,1.67-4.21,3-2Z"></path><path class="cls-11" d="M285.27,217.72c-.86-.21-1.87-1.1-3-1,1.15-.71,1.75-4.34,3,1Z"></path><path class="cls-159" d="M63.27,276.72c1.63,4.05,4.51,3.69,6,9-.82,1.57-2.68,1.85-5.57.84-1.84,1.41-3.32,1.8-4.43,1.16-.09.01-.74-.91-1.52-.82-1.11.13-2.92.91-3.48.82-1.25,1.25-3.34.56-6.28-2.06-.78,2.75-2.02,4.44-3.72,5.06-.66-.91-1.03-3.2-1.49-3-1.44,1.38-1.43,3.19-2.51,5-1.68.06-2.84-1.09-3.49-3.45l-4.47,4.61c-4.69,1.09-5.41,1.52-8.05,4.84-1.19.12-1.67.91-2,1-1.37,1.8-1.7,3.47-1,5-1.71,3.31-6.81,5.27-10,7,4.37-23.52,30.38-34.14,52-35Z"></path><path class="cls-74" d="M40.27,292.72c-2.72,4.56-4.61,1.99-7.99,3.51-1.29.58-2.05,2.85-3.74,3.35-2.1.62-3.79-.91-4.27-.86-.3-7.13,3.98-4.82,6.99-6.51,2.15-1.21,6.2-10.86,9.01.51Z"></path><path class="cls-28" d="M275.27,330.72c1.95-.52,2.62-.19,2,1-1.62,1.67-2.62,3.67-3,6,.87.28.86.62,0,1-3.91.85-8.04,1.33-12,2-1.28.29-1.6.22-1-1l-.72-2.48c-2.04.02-3.13-.82-3.28-2.52-.83-.11-1.76.01-2-1,3.78-.31,7.84-1.81,12-.99-3.09,4.22,3.73,9.29,3.92,2.63.03-1.08-1.36-2.53-.5-3.67,1.2-1.6,3.48-.61,4.58-.97Z"></path><path class="cls-60" d="M69.27,285.72c2.76,9.86-9.06,9.31-10,2,.89-.1,1.24-2.64,3.51-3.06,2.07-.38,4.48.59,6.49,1.06Z"></path><path class="cls-202" d="M54.27,287.72c-.79,4.88-6.89,7.3-10,3,1.69-13.63,8.6-3.22,10-3Z"></path><path class="cls-48" d="M98.27,308.72c-5.02-9.89,9.08-9.01,7.06-.65-.23.94-3.19,1.65-4.06,1.65-1.85,0-2.48-.92-3-1Z"></path><path class="cls-63" d="M85.98,296.86c6.72-1.89,7.6,10.67.3,7.35-3.3-1.5-4.26-6.24-.3-7.35Z"></path><path class="cls-173" d="M294.27,306.72c.11.62-.17,1.5,0,2-2.3,1.82-4.3,3.82-6,6-.93-.11-2.17.53-3,1-2.12-.27-3.79-.94-5-2-.29-.03-1.29-1.02-3-1,4.86-3.34,11.94-3.86,17-6Z"></path><path class="cls-190" d="M227.27,308.72v1c-1.63.16-2.36-.25-2,2-6.38-.47-12.67-1.06-19-2,6.43-2.02,14.19-.75,21-1Z"></path><path class="cls-25" d="M110.27,313.72c-8.46-11.3,15.74-4.72,1,1-.27-.22-.8-.73-1-1Z"></path><path class="cls-67" d="M261.27,339.72c-.55,1.08-1.92,1.66-3,1-.15,1.03-1.61.99-2,0-3.85-1.85-1.66-4.29,1-6,3.72.47,7.87.62,4,5Z"></path><path class="cls-92" d="M260.27,312.72l-1,2c-2.7.14-8.11,3.19-10-.99,2.26.97,4.75-.85,6-1.01,1.59-.2,3.45.24,5,0Z"></path><path class="cls-131" d="M285.27,315.72c.07.44.11,1.75,0,2-3.31.4-5.46-.27-5-4,1.49.13,4.16-3.32,5,2Z"></path><path class="cls-31" d="M22.27,299.72c.18,1.86-.15,3.35-1,5-7.05-1-4.18-3.59,1-5Z"></path><path class="cls-119" d="M258.27,340.72c1.3-.29,1.59-.29,1,1-2,.31-3.88.73-6,1,.89-.56,2.09-1.69,3-2,.51-.17,1.41.15,2,0Z"></path><path class="cls-92" d="M269.27,313.72c-.85,1.61-3.4.95-5,1,.86-1.74,3.47-.78,5-1Z"></path><path class="cls-15" d="M188.27,157.72c-1.33,0-2.67,0-4,0-.87-3.53,2.29-3.95,5.33-4.12,12.24.77,24.5-2.83,36.02-6.94,1.42.36.63-.62-2.35-2.94.69-1.5,2.68-.97,4-1,8.97-.18,17.49-2.67,26.51-2.99,8.02-.29,16.5-.27,10.31,10.31-1.72,2.94-5.56.45-9.28.66-9.9.54-23.3,5.01-34.05,6-9.97.93-22.36.97-32.48,1.02Z"></path><path class="cls-191" d="M300.27,304.72c.65-1.07,2.69-1.95,4-2,1.24.72,3.37,1.06,3.9,2.66,2.02,6.16-10.16,8.6-7.9-.66Z"></path><path class="cls-144" d="M294.27,308.72c.61,1.82,3.44,2.81,1.09,5.58-2.66,3.14-5.24.63-7.09.42-.57-4.35,1.74-6.57,6-6Z"></path><path class="cls-4" d="M310.9,298.84c7.02-2.18,5.1,5.16,2.85,5.86-3.07.96-6.18-4.83-2.85-5.86Z"></path><path class="cls-173" d="M304.27,302.72c-.94,1.51-2.41,1.74-4,2-.63.1-1.35-.07-2,0,1.23-.58,3.54-2.15,5-3,.3.34.61.77,1,1Z"></path><path class="cls-41" d="M341.27,292.72c3.46-.06,4.55-.9,4,3-5.09,6.75-7.74,12.58-14.97,18.53-16.07,13.2-36.16,20.13-56.03,24.47v-1c1.6-1.6,2.6-3.6,3-6-.48-.88-1.04-1.04-2-1,22.75-7.32,52.25-16.58,66-38Z"></path><path class="cls-147" d="M261.27,339.72c.17.01.61.82,1,1-.49.08-1.52.77-3,1l-1-1c.87-.22,1.94-1.09,3-1Z"></path><path class="cls-188" d="M287.27,179.72c1.28-1.09,7.85-2.93,9-1.99.35,1.05-1.02,2.53-1,2.99-2.93.02-8.77,3.09-8-1Z"></path><path class="cls-186" d="M223.27,143.72c3.68.17,4.48-.73,5,3.99-10.34,4.2-20.37,6.74-31.52,8-4.07.46-9.46-1.44-12.49,2.02-12.59-.08-23.86-1.79-36-3l15.96-5.56c3.73-.37,8.78,2.39,12.04-.95-3.22-3.29-9.39-.16-12.05-.91-3.41-.96-1.45-4.99-9.95-3.59v-1c4.04.45,13.43,2,16.5,2h41c2.93,0,7.28-1.2,11.5-1Z"></path><path class="cls-206" d="M87.27,136.72c4.2-2.29,5.35,2.35,3,6-1.76,2.61-3.11,3.83-6.39,3.97-.74.03-1.39-.95-1.61-.97-4.32-4.29-1.31-12.56,5-9Z"></path><path class="cls-37" d="M94.27,128.72c1.65,2.66,4.41,5.27.99,8.51s-1.81.78-4.99,5.49c.52-2.81-.6-4.65-3-6l.78-.58c-1.98-5.63.42-8.09,6.22-7.42Z"></path><path class="cls-172" d="M154.27,143.72c3.9,4.67,2.26,7.89-4,7-.28-3.71-.14-6.31,4-7Z"></path><path class="cls-80" d="M108.27,109.72c.99.32,1.71.91,2,1,16.14,5,30.35,8.03,47.46,9.04,6.98.41,14.66-.67,21.54-.04.77,1.32,2.5,2.82-.48,3-15.02.93-33.95-.49-48.76-3.26-5.97-1.12-21.71-5.2-26.76-7.74-.44-.22-3.44-3.21-4-3.99,2.54.86,6.76,1.27,9,1.99Z"></path><path class="cls-201" d="M208.27,97.72c-1.36,1.74-4.81.98-7,1,1.36-1.74,4.81-.98,7-1Z"></path><path class="cls-201" d="M174.27,98.72c-2.19-.02-5.64.74-7-1,2.19.02,5.64-.74,7,1Z"></path><path class="cls-215" d="M288.79,236.97c1.26.1,3.5,3.88,3.46,5.27-.06,2.14-6.34,7.29-8.3,7.25-1.19-.02-6.45-2.23-6.69-3.3-.49-2.2,9.85-9.36,11.52-9.23Z"></path><path class="cls-152" d="M275.27,246.72c8.86,4.82,4.11,7.3,1,13-.17.3-.89.61-1,1-.28.87-.62.86-1,0-.24.89-.57.86-1,0-.16-3.22,1.37-7.72-3-8.02-.61-.79,2.92-2.23,3.5-2.99.35-.46-.53-.94-.5-.99.7-1.07,1.95-1.87,2-2Z"></path><path class="cls-68" d="M169.27,270.72c2.5-3.1,4.5-2.77,6,1,9.7,3.25,20.12,1,30,3-.73,2.14-1.95,2.83-2,3l-33.46-.93-.55-3.08c-5.45,3.78-15.85,6.63-22.4,5.94-1.96-.21-4.45-1.39-6.59-1.93-3.9-1.49-3.45-5.37,1-3,1.06.02,1.72.35,2,1,4.67.86,9.61,1.11,14-1,.07-.72.19-1.31.52-1.46.7-.32,9.8-3.76,10.31-3.55.45.19.82.57,1.17,1.01Z"></path><path class="cls-20" d="M136.27,271.72c1.11.43,3.52,2.34,5,3-.66.03-1.33-.03-1.99,0l.99,2.99c-3.19-.8-7.53-.28-9-4,.68-.56,1.28-2.24,2-3,.32.03,2.41.77,3,1Z"></path><path class="cls-151" d="M198.27,76.72c-.56,3.03,1.53,1.92,3.45,2,16.96.67,30.07-.25,46.09-5.96,2.11-.75,12.92-6.55,13.45-6.04,1.23,1.17-1.59,2.68-2.27,3.22-3.01,2.37-10.9,6.74-12.72,8.78-.17.18.17.83,0,1-29.23,6.04-62.95,8.17-92.09.54-1.35-.35-2.29-1.36-2.91-1.54.48-3.45,3.83-4.12,10.03-2.02l4.97.1c10.28-1.12,20.28-1.15,30-.08.56-1.91,1.44-1.91,2,0Z"></path><path class="cls-29" d="M228.27,66.72c2.5.93,3.38.78,5.83-.69l1.17.69c1.31,2.56,1,2.47-1,5-12.58,3.42-22.96,4.82-36,5-.67,0-1.33,0-2,0l-3.23-.99c-5.51,1.21-13.33-.87-5.27-4.01,4.75-1,11.37-.86,16.5,0-5.63-.93-14.44-1.79-19.13,1.3l-1.87-1.3c-.91,1.94-2.09,1.94-3,0-1.13,2.43-2.97,1.57-3-1,6.42-1.96,14.2-.83,21-1,10.14-.25,20.08-.56,30-3Z"></path><path class="cls-84" d="M190.27,57.72c3.14-3.75,8.06-4.14,12-6.5-3.86.82-7.18-.33-11-.5-3.94-1.08-8.29-1.61-13.04-1.61l.04-1.39c9.79.96,22.18-.3,22.96-12.62.28-4.4-.64-14.26-.96-19.38,18.59,15.85,18.71,40.28-10,42Z"></path><path class="cls-79" d="M190.27,14.72c.37,1.76,1.04,3.09,2,4,5.99,8.11-3.71,24.67-14,24-2.25.93-3.07.64-5,1-2.29-2.34-2.96-4.34-2-6,10.89-5.03,19.96-9.55,18-24h1c.87.28.86.62,0,1Z"></path><path class="cls-46" d="M190.27,13.72c.7-2.05,3.58,2.36,4.07,3.44,2.44,5.41,2.31,11.69,0,17.13-2.97,6.96-6.79,8.05-13.53,9.48-1.85.39-2.85,2.31-2.53-1.04,9.91-4.08,15.18-13.32,14-24-1.03-.77-1.7-2.1-2-4v-1Z"></path><path class="cls-208" d="M178.27,47.72c.22.03,1.12.9,2.42,1.04,3.47.39,11.4-1.72,10.58,1.96-3.54-.15-17.88-.02-20-2.01-3.17-2.97,6.12-1.1,7-.99Z"></path><path class="cls-23" d="M173.27,43.72c-1.4.26-3.24,1.6-5,1l-.77-3.03c-1.86-.3-1.6-.95.77-1.97.64-.28,1.71-1.41,3-2,1.3,2.21,4.18,3.37,2,6Z"></path><path class="cls-79" d="M168.27,39.72v5c-1.67-.57.18-4.19-3.49-2.99l-.51.99c-.09-.23-1.55-.16-.99-1.99,1.55-.21,3.6-.4,4.99-1.01Z"></path><path class="cls-163" d="M144.27,59.72c7.65,4.55,21.15,7.63,29.99,9.01-.04,1.88-2.08.38-3.99,1.99,1.57,1.46,4.23,2.17,7.98,2.13l1.02,1.87c1.08-1.09,2.42-2.09,4-3,.18,0,1.55-1.07,3.38-1.07,4.68-.02,9.47-.12,14.13.07,1.23.05,3.71-.76,3.49,1h-16.5c-.62,0-2.09,2.43-1.49,2.99.88.84,9.13-1.75,9.99,2.01-12.19.03-22.27,2.52-34.45,2.03-3.38-.13-7.01-2.47-10.55-.03-9.37-2.8-13.97-3.71-22-10,2.14-.12,4.1-1.5,6-2-.18-2.98,3.2-2.3,5-1,1.65-1.66.88-5.2,4-6Z"></path><path class="cls-129" d="M234.27,64.72c.32.67.66,1.34,1,2l-6.49,4.01-.51-4.01c1.41-.35,4.43-1.44,6-2Z"></path><path class="cls-90" d="M21.27,250.72c2.26,2.35,2.44,5.91,2,9-.25,1.77-1.08,2.64-2,4-6.39,5.75-7.95-4.63-5.59-9.43,1.02-2.09,4.06-6.44,5.59-3.57Z"></path><path class="cls-98" d="M26.27,245.72c-1.95,1.22-5,1.34-5.78,3.5-.12.34.86,1.38.78,1.5-.12.16-1.95.13-3.46,2.03-3.61,4.54-4.34,12.83,3.46,10.97-.55.81-4.65,5.15-5.49,4.99-2.8-.51,1.64-10.24-3.51-9.99,1.8-4.23,8.43-15.91,14-13Z"></path><path class="cls-44" d="M109.27,54.72c-1.52,6.48,2.01,12.83,2.99,18.99-.95.98-10.22-5.86-11.54-6.99s-1.29-4.27-3.39-2.9c-.34.22.69,2.83-2.07,1.9-.34-3.91,3.12-6.46,4.01-9.99,2.05.36,1.64,5.56,4.46,4.98,1.34-.28,3.56-4.32,3.53-5.98.37.19,1.41-.13,2,0Z"></path><path class="cls-195" d="M130.27,52.72c.67,1.01,2.44,1.31,2.82,3.72,1.05,6.54-9.46,7.43-8.82.28,1.19-.18,2.66-5.26,6-4Z"></path><path class="cls-56" d="M135.27,66.72c-4.4-8.86,6.83-9.6,5-1-1.88,1.89-3.36.57-5,1Z"></path><path class="cls-176" d="M276.27,101.72c-8,2.99-15.78,4.16-24,6-2.04-.88,2.32-3.61,2.72-3.78,2-.84,16.41-5.29,17.81-5.29,2.3,0,3.48.57,3.47,3.07Z"></path><path class="cls-72" d="M151.27,239.72c-.52,1.66-.49,4.94-1,7-6.82.87-12.69,5.03-17.61,12.48l-2.39-.48c-2.45,2.17-6.24,4.43-9,7-11.54-22.68,12.19-29,30-26Z"></path><path class="cls-45" d="M130.27,258.72c2.58-2.29,5.07-6.1,7.99-8.51s9.41-8.66,12.01-3.49c-3.22,13.13-4.46,10.11-13,18-4.8.78-6.98-1.15-7-6Z"></path><path class="cls-209" d="M275.27,261.72c9.14,2.16.16,11.37-3.47,15.06-2.23,2.27-5.27,3.75-7.53,5.94-.47-.57-1.05-1.22-1.01-1.99h-.98c.14,3.6-1.18,4.72-3.01,6.99-1.61-1.9-3.93,1.01-6.46,1.03-6.73.06-10.93-2.57-14.54-8.03,2.46-1.24,5.72-.35,9.78,2.65-2.36-3.5-2.96-6.39-1.78-8.65l.07-2.16c3.12-1.46,4.76-4.07,4.93-7.84,1.62-.15,2.08-1.3,5.03-.62,1.26.29,5.67,2.85,5.97,3.62,3.01.5,2.87,3.28,0,4,3.35,4.76,13.93-1.42,13-10Z"></path><path class="cls-198" d="M275.27,261.72c-.4,5.04,2.74,7.6-2.5,11-2.46,1.6-6.06,2.52-8.97,2-4.2-.74-1.53-2.78-1.53-3.01,4.97-2.74,8.97-6.41,12-11h1c-.07.27.03.65,0,1Z"></path><path class="cls-87" d="M177.27,70.72c1.11.11,2.55,1,3,1,2.51.9,1.48,2.83-1,3-4.33.05-6.84-.17-9.98-3.5.16-.67.86-.39.98-.5,2.3.16,4.71-.22,7,0Z"></path><path class="cls-88" d="M245.27,265.72c1.64,2.85-6.04,9-9,8-.56.56-1.81.7-2,2-8.84-.63-5.22-6.05-6-12,5.46-1.85,10.63,3.51,17,2Z"></path><path class="cls-157" d="M251.27,264.72c3.97,3.83-1.27,8.83-5,10-.15,4.07-8.79,3.03-10,0v-1c1.02-1.02,8.2-7.54,9-8,.64-.37,3.82-1.52,4.65-1.71.64-.14,1.24.72,1.35.71Z"></path><path class="cls-51" d="M246.27,274.72c1.27,4.28,4.93,7.16,3.99,12l-11.99-6c-.2-.3.45-1.81-.23-2.75-.75-1.04-3.96-.71-1.77-3.25,3.1.3,6.97.95,10,0Z"></path><path class="cls-26" d="M172.27,263.72c1.59,3.97.59,6.3-3,7-4.15,1.37-7.3,3.15-12,4-4.36,2.1-9.34,1.88-14,1-.9-.31-1.37-.72-2-1,1.99-.08,4.01.07,6-.01.99-1.2-3.96-.76-.99-2.48s6.68-1.55,9.99-1.51c4.51,2.08,14.13-5.75,9-5l-2-7.99c.35-.26,7.47,2.11,8.02,2.5,1.47,1.03.65,2.81.98,3.49Z"></path><path class="cls-9" d="M192.27,244.73c.28.23-1.25,2.26-1.1,3.35.17,1.23,4.59,1.23,2.11,3.15-1.78,1.38-13.39,5.21-14,4.49-.22-9,4.09-12.5,12.99-10.99Z"></path><path class="cls-70" d="M206.27,255.72c-1.18,2.16-11.29,8.74-13,6.99.1-.81-.2-2.8-.01-2.99.46-.47,10.67-1.91,12.01-5.01.87-.75,1.2-.42,1,1Z"></path><path class="cls-166" d="M156.27,270.72c4.38-.71,6.25-1.75,9-5,.51-.61,1.12-2.16,1.5-2,4.9,2.12-2.05,8.13-7.06,8.11-1.85,0-3.25-1.11-3.43-1.12Z"></path><path class="cls-142" d="M206.27,255.72c-.6.2-1.06-.59-1-1,.22-1.61,1.51-1.93-.09-4.35s-4.8-2.44-5.9-4.64c5.6-.38,9.9,4.66,7,9.99Z"></path><path class="cls-169" d="M175.27,271.72c-3.4-1.14-1-2.65-6-1,2.63-2.47,2.36-3.83,3-7,1.29,2.71,2.39,4.64,3,8Z"></path><path class="cls-115" d="M183.27,261.73c2.97.73,7.53-2.81,5.99,1.48-.99,2.76-5.27.71-5.99-1.48Z"></path><path class="cls-136" d="M282.97,196.01c5.18,6.41-3.64,16.49-10.27,11.78-8.02-5.7,4.44-18.99,10.27-11.78Z"></path><path class="cls-38" d="M211.26,200.71c-2.48-.11-5.03.19-7.51,0-1.13-.08-3.29.58-2.47-1.49,1.52-3.87,10.11-3.62,9.98,1.48Z"></path><path class="cls-192" d="M217.27,274.72l1.99-9,.94,5.56,6.06,3.92c-3.25,4.21-5.68,3.24-9.99,1.51-.85-1.45.87-1.46,2.3-1.34l-1.3-.66Z"></path><path class="cls-118" d="M217.27,274.72c4.04.09,1.46.83-1,2-.44-.18-1.38.15-2,0-.52-2.66.68-2.04,3-2Z"></path><path class="cls-146" d="M262.27,271.72c0-1.05.24-3.38,0-4,.38-.23.69-.85,1-1,3.85-1.83,6.68-4.35,10-6,.25-.12.68.09,1,0-.2,6.14-2.74,8.05-8.04,10.46-.8.37-3.66,2.13-3.96.54Z"></path><path class="cls-24" d="M277.27,331.72c1.89,3.47,1.48,6.37-3,6-2.36-2.95-1.09-6.62,3-6Z"></path><path class="cls-20" d="M157.27,274.72c-3.31,3.34-10.11,2.36-14,1,4.88.34,9.24-.14,14-1Z"></path><path class="cls-53" d="M183.27,71.72c.55,4.05-.59,2.96-4,3l1-3c1,0,2,0,3,0Z"></path><path class="cls-168" d="M192.27,18.72c-3,.62-1.88-1.48-2-4,1.45.93,1.82,2.41,2,4Z"></path><path class="cls-174" d="M130.27,254.72c2.25-4.38-1.4-4.34-1.99-7.99,2.67-1.09,2.37,2.95,3.49,2.98,1.03.02,2.56-4.27,4.16-4.82,1.83-.62,4.37.02,6.34-.15-3.74,3.05-7.65,7.98-12,9.99Z"></path><path class="cls-94" d="M130.27,254.72c-3.37,1.56-4.16-1.43-3.99-5l3.99,5Z"></path></g></svg> 