<?xml version="1.0" encoding="UTF-8"?> <svg xmlns="http://www.w3.org/2000/svg" id="Laag_2" viewBox="0 0 206.16 352.3"><defs><style>.cls-1{fill:#333243;}.cls-2{fill:#bccec4;}.cls-3{fill:#d9eef3;}.cls-4{fill:#0d152d;}.cls-5{fill:#c6d3d8;}.cls-6{fill:#d3e4e5;}.cls-7{fill:#d27b80;}.cls-8{fill:#a8c0bc;}.cls-9{fill:#c6d9ca;}.cls-10{fill:#f8fae8;}.cls-11{fill:#2c2e3e;}.cls-12{fill:#818f9a;}.cls-13{fill:#050317;}.cls-14{fill:#8ea4a8;}.cls-15{fill:#f23d38;}.cls-16{fill:#dbdcd9;}.cls-17{fill:#141422;}.cls-18{fill:#82a3a5;}.cls-19{fill:#798185;}.cls-20{fill:#95253d;}.cls-21{fill:#f9fbeb;}.cls-22{fill:#fbfce9;}.cls-23{fill:#b9ccd3;}.cls-24{fill:#b5c7cc;}.cls-25{fill:#acc3bd;}.cls-26{fill:#c7c4b0;}.cls-27{fill:#f9faea;}.cls-28{fill:#f4faef;}.cls-29{fill:#cce2e6;}.cls-30{fill:#788f93;}.cls-31{fill:#fbfced;}.cls-32{fill:#241f37;}.cls-33{fill:#c2d4d0;}.cls-34{fill:#464f59;}.cls-35{fill:#ca798a;}.cls-36{fill:#2a2838;}.cls-37{fill:#f3f6f2;}.cls-38{fill:#747565;}.cls-39{fill:#2b2b36;}.cls-40{fill:#82a7a5;}.cls-41{fill:#618f92;}.cls-42{fill:#789a9a;}.cls-43{fill:#afcbc8;}.cls-44{fill:#f2f7ee;}.cls-45{fill:#b0c9c4;}.cls-46{fill:#fbfbf8;}.cls-47{fill:#eb3e3a;}.cls-48{fill:#c3dacf;}.cls-49{fill:#f1d4d0;}.cls-50{fill:#b6b5c1;}.cls-51{fill:#a9ccd5;}.cls-52{fill:#f2403f;}.cls-53{fill:#e38883;}.cls-54{fill:#f8c3bb;}.cls-55{fill:#f1f5f4;}.cls-56{fill:#888f8d;}.cls-57{fill:#1b1d2d;}.cls-58{fill:#7b9ca4;}.cls-59{fill:#f6f8f6;}.cls-60{fill:#14234d;}.cls-61{fill:#aec9c8;}.cls-62{fill:#b0c9c0;}.cls-63{fill:#c6d9e7;}.cls-64{fill:#f7c9c3;}.cls-65{fill:#3b0108;}.cls-66{fill:#f44e41;}.cls-67{fill:#d63342;}.cls-68{fill:#4b5259;}.cls-69{fill:#fbfbe8;}.cls-70{fill:#324453;}.cls-71{fill:#4f0514;}.cls-72{fill:#c8c9c2;}.cls-73{fill:#9db8b6;}.cls-74{fill:#f9fbe7;}.cls-75{fill:#1b0212;}.cls-76{fill:#ec3a37;}.cls-77{fill:#2e3e4d;}.cls-78{fill:#dfb7b3;}.cls-79{fill:#111f32;}.cls-80{fill:#1d1e2f;}.cls-81{fill:#545764;}.cls-82{fill:#190311;}.cls-83{fill:#7798a2;}.cls-84{fill:#ebb8b9;}.cls-85{fill:#181a22;}.cls-86{fill:#eb5e6e;}.cls-87{fill:#19142e;}.cls-88{fill:#e9363b;}.cls-89{fill:#b5ccc5;}.cls-90{fill:#f4f5e6;}.cls-91{fill:#0e0f28;}.cls-92{fill:#565c64;}.cls-93{fill:#585a6a;}.cls-94{fill:#729ba1;}.cls-95{fill:#9babae;}.cls-96{fill:#9cb9bf;}.cls-97{fill:#070314;}.cls-98{fill:#e9b4b5;}.cls-99{fill:#a8bfba;}.cls-100{fill:#afc9c2;}.cls-101{fill:#f7f9ec;}.cls-102{fill:#f9f9e8;}.cls-103{fill:#9aabbc;}.cls-104{fill:#91aaa5;}.cls-105{fill:#68112b;}.cls-106{fill:#1b0310;}.cls-107{fill:#200511;}.cls-108{fill:#e4beb8;}.cls-109{fill:#cfddd9;}.cls-110{fill:#b4b4cc;}.cls-111{fill:#d7ecef;}.cls-112{fill:#d5d5c4;}.cls-113{fill:#280411;}.cls-114{fill:#e1f1f7;}.cls-115{fill:#edcac6;}.cls-116{fill:#bfc7c3;}.cls-117{fill:#c33d41;}.cls-118{fill:#a3b4ad;}.cls-119{fill:#8fb2b0;}.cls-120{fill:#7e9493;}.cls-121{fill:#97adaf;}.cls-122{fill:#e6ead8;}.cls-123{fill:#aed6d7;}.cls-124{fill:#e9bfb7;}.cls-125{fill:#b1c2bc;}.cls-126{fill:#9aaeae;}.cls-127{fill:#93b0b8;}.cls-128{fill:#b4132e;}.cls-129{fill:#f53e3d;}.cls-130{fill:#102135;}.cls-131{fill:#1c243f;}.cls-132{fill:#ee3e3c;}.cls-133{fill:#fafceb;}.cls-134{fill:#d7e7ef;}.cls-135{fill:#f59087;}.cls-136{fill:#fafcf9;}.cls-137{fill:#d41f2f;}.cls-138{fill:#f13e3b;}.cls-139{fill:#da807a;}.cls-140{fill:#c7dcd0;}.cls-141{fill:#6a6f70;}.cls-142{fill:#ccdcce;}.cls-143{fill:#28030d;}.cls-144{fill:#b7c8cf;}.cls-145{fill:#5e6d73;}.cls-146{fill:#b41c35;}.cls-147{fill:#c1e2eb;}.cls-148{fill:#2c3c49;}.cls-149{fill:#738d8c;}.cls-150{fill:#1a2434;}.cls-151{fill:#a1b1c6;}.cls-152{fill:#c5d5d3;}.cls-153{fill:#456668;}.cls-154{fill:#0f0c1f;}.cls-155{fill:#efbbb3;}.cls-156{fill:#6c797e;}.cls-157{fill:#729090;}.cls-158{fill:#2b010b;}.cls-159{fill:#d0dae1;}.cls-160{fill:#808888;}.cls-161{fill:#d0e6dc;}</style></defs><g id="Laag_1-2"><path class="cls-13" d="M163.02,22.12c.67.56,10.57,2.18,15.84,6.67,11.45,9.75,3.73,16.4-4.49,24.48-6.07,5.96-14.83,13.16-21.62,18.43-2.81,2.18-17.17,10.84-17.71,11.76-.33.55-.38,2.38-.13,2.78.39.61,11.27,3.81,13.62,4.9,82.16,37.84,75.4,163.01-13.44,185.39-.41.29-1.27,2.6-1.29,3.2-.01.64,9.7,4.78,11.36,5.77,6.89,4.13,38.52,25.11,39.54,31.53.75,4.72-8.27,10.73-12.15,12.47-2.8,1.26-6.97,1.56-9.08,2.92s-3,4.64-6.36,6.64c-8.9,5.29-18.75,4.24-27.51,6.49-4.01,1.03-8.73,4.44-14.49,5.51-19.47,3.62-23.68-1.29-40.18-5.3-8.92-2.17-20.21-1.96-28.01-7.99-2.08-1.61-3.04-4.31-4.66-5.34-2.61-1.67-8.35-2.64-12.09-4.91-4.34-2.63-9.84-6.73-8.11-12.49,1.57-5.21,33.42-25.95,39.89-30.13,2.08-1.34,11.12-4.35,8.92-7.57-.35-.51-9.61-2.94-11.68-3.83C12.14,253.09-8.68,203.51,3.34,154.29c8.02-32.82,35.6-58.97,67.5-68.48-.55-2.3-12.97-9.76-15.91-12.09-6.34-5.02-32-27.26-33.65-33.41-2.01-7.52,8.04-13.59,13.88-16.2,2.08-.93,6.5-1.24,7.7-2.3,2.88-2.54.84-6.29,9.76-10.24s15.3-1.61,21.53-3.47c1.33-.4,3.46-3.11,5.71-4.29,10.35-5.41,35.19-4.82,45.7.28,1.82.88,3.49,3.34,5.24,3.79,7.29,1.89,13.47-.82,22.94,4.03,7.46,3.82,7.24,8.52,9.28,10.21Z"></path><path class="cls-136" d="M10.85,151.3c8.79-29.88,37.2-56.75,68.6-61.91,2.46-.4.97.85.4,1.91-3.97,3.17-8.21,5.76-12.73,7.76l-1.27-.76c.85,2.8-6.38,8.15-9,7-2.83,4.98-8.09,10.51-13,13,.04.73,0,1.4-.34,1.88-2.57,3.69-6.41,9.08-9.66,11.12.19,2.08,1.19,2.75,3,2-1.08-4.9,4.07-12.49,9-14,.73-3.27,7.55-10.6,11-10,1.41-5.2,8.72-8.32,14-9-.89-3.84,3.09-3.63,3.78.69.06.38-3.55,6.05-4.78,5.31-2.49,5.47-5.19,10.94-8.1,16.41l-2.9,1.59.8,1.83,14.18-2.74,1.01.91c.92-2.36,5.16-2.3,6,0,.61-2.74,1.77-2.48,3,0,8.44-.17,5.22,4.34-.6,6.69,2.3,1.47,2.48,1.78.92,4.2,1.66.55,1.51.92-.32,1.11,2.84,1.25,2.84,4.73,0,6,.26,3.71-3.42,5.9-7,6-.44,2.68-.95,2.43-2,0-2.86-.68-2.68-2.76,0-4l1.18-1.85c2.28.28,2.55-1.1.82-4.15.54-1.08-.13-1.41-2-1,1.25,1.14,1.8,2.29.36,1.74,3.8,1.04,3.15,4.59-.36,5.26-2.35,1.66-4.73-.39-7.11-6.16-5.88-7.41-7.36-7.9-11.79,1.09-5.1,4.1-10.68,7.71-16.75,10.85l-1.35,3.22c-1.35,2.44-8.87,3.27-11,1l-3.9.8c-3.08-.43-2.05-9.31-1.1-11.8l-.62-2.31c.68-2.52,6.08-13.66,8.62-13.69.22-1.26-.78-1.6-3-1,.2,1.22.23,2.49-.33,3.62-2.59,5.23-7.38,13.1-11.67,16.38l-.05,1.61c3.79,3.16-4.53,9.8-3.95,3.39Z"></path><path class="cls-22" d="M94.85,66.3c-6.36-18.36-11.03-37.15-15.55-56.05,14.53-6.08,32.43-7.29,46.58.62-1.87,7.06-14.37,58.62-17.5,59.22-.33-.16-.49-.79-.53-.79-2.86-.06-2.73-2.32,0-3l.56-6.13c-1.66-3.02-2.83-10.42.44-12.87l-2.21-3.6c-.76-10.68-.61-21.29.43-31.84-7.16-2.66-10.09.64-8.78,9.88l.57,21.93-2.01,1.62c3.89,5.7,1.55,15.99-2,21Z"></path><path class="cls-102" d="M95.85,87.3c1.33-.04,2.68,0,4,0-.7,9.49.77,18.67,2,28.01,2,.26,1.64.19,2.26-1.24,1.13-2.64,1.32-22.27.74-25.76.88-.33,1.88-.66,3-1,9.72.18,21.42,14.23,27,22,3.58.09,10.07,12.72,8.7,14.95-.36.59-1.56.67-2.99.61-13.68-2.28-27.5-3.79-41.34-4.28l-2.36-1.27c-4.37,2.59-10.84,4.38-15,1l-.91-1.04c4.27-6.17,3.64-10.87-1.88-14.1-2.23-4.34,6.25-11.65,9.79-9.86l1.9.66c1.24,4.78,3.28,5.89,6.1,3.34l1.26.18c.23-4.03-.19-6.76-1.26-8.18-.6,1.81-1.27,1.81-2,0-2.99-1.09-1.62-3.15,1-4Z"></path><path class="cls-69" d="M98.85,287.3c2.18,3.64,1.08,9.21-2,12-.27,1.43.2,2.15,1.89,2.27l-.39,28.43c-1.5,8.42,1.36,11.46,8.58,9.12-.87-10.72-1.22-21.6-1.04-32.66.36-2.31,1.48-3.41,3.41-2.55-2.24-1.8-1.88-3.37-.45-5.6-3.79.39-4.36-10.49,0-9,2.15,6.26,18.64,48.59,17.52,51.04-3.7,8.15-40.35,7.2-47.56.39l18.18-53.32c.59-.37,1.27-.04,1.87-.1Z"></path><path class="cls-119" d="M140.85,235.3c1.3.14,2.69-.11,4,0,.55,1.86-.86,1.73-1,1.99-1.81.26-3.04,1.56-3.67,3.89l-1.33.11c.73,2.98-4.87,11.07-8,11-5.9,5.33-17.34,1.71-22-4l-1.39-.94-.61,11.68c-.11,1.37-.63,1.9-1.99,1.25v-16c-4.99,2.31-2.88,8.19-5,12l-1.38-.29c-.17-2.67-.71-3.24-1.62-1.71-4.03-1.01-7.82-.72-11.37.85-1.85,3.28-3.73,4-5.63,2.15-5.95-1.94-12.07-11.55-13-18-2.38.18-2.92-1.64-1-3,1.7-3.3,12.49-1.3,13.5,2,.02-.77.14-1.9.67-2,6.24-1.21,29.77-.47,37.15.05l1.18,1.95c.42-1.99,1.25-2.91,2.05-.99l13.45-1.01c.78-1.47,3.11-1.8,7-1Z"></path><path class="cls-55" d="M131.85,91.3c52.85,14.38,82.78,73.85,63,125-4.22,4.57-4.58-2.83-3.21-6.71l3.21-9.29-1.69-2.24c1.22-8.13,1.73-16.33,1.51-24.61l1.18-1.16-2.06-1.7c.12-6.84-1.86-12.61-5.94-17.3l-2.31-.15-7.38-10.63.69-2.22c2.69-.91,5.54.24,8.53,3.43,3.33,1.21-21.04-29.81-22.53-31.43-2.53-1.82-2.87-1.49-1,1,4.19,1.84,15.16,15.78,14.76,20.15l-1.76,1.85c-1.91.73-2.77-.03-2-2-4.71-3.26-7.71-6.93-9-11-1.02.95-2.02-.05-3-3l-1.97-.15c-8.87-8.89-18.14-17.75-29.25-23.74l-1.78-3.11c-.91-.99-.24-1.32,2-1Z"></path><path class="cls-74" d="M75.85,13.3c.74,3.92-2.12,5.91-8.58,5.96,4.26,10.79,7.58,21.85,9.96,33.2,1.32,4.67-.48,9.15-3.89,4.77l-.49,1.07c1.12,2.57-.21,3.03-2,1-9.16-12.05-16.74-23.57-22.87-37.52,7.61-6.66,18.02-8.81,27.87-8.48Z"></path><path class="cls-37" d="M21.85,143.3c.65,1.5,1.32,3.2,1.44,4.84.29,3.82-2.95,7.16,3.56,6.16l-.82,2.32c-5.09,1.39-7.98,5.4-9.79,10.15l-2.38.53c-2,10.75-.98,21.42,1.25,32.01-1.21,1.45-1.62,2.77-1.25,3.99,2.67.42,2.53,1.19,0,2l3.51,11.16-1.51,1.84c3.64,3.1,8.57,10.47,8,15l3.14.9c4.71,5.66,9,11.35,12.86,17.1,1.29-1.05,1.81-.5,1,1,2.29,1.71,1.75,2.43-1,2C7.27,228.22-.76,190.79,10.85,151.3l.51.99c2.79-.15,2.27-3.45,3.49-5.99,2.66-2.56,4.99-3.56,7-3Z"></path><path class="cls-133" d="M129.85,64.3c-2.42-.2-2.42-2.2,0-6-1.92-.56-1.95-1.46,0-2-1.16-.85-1.2-1.98-.13-3.37l10.16-33.57c-7.63-.25-10.97-2.27-10.02-6.05,10.08-.8,20.16,2.03,27.93,8.6.69,2.92-22.67,38.97-27.93,42.4Z"></path><path class="cls-21" d="M86.85,286.3c2.45,1.88-1.12,7.86-4,7-5.32,12.95-11.32,25.62-18,38,2.73,2.47,6.46,3.95,11.19,4.43.66.71.9,1.58.81,2.57-.39,1.65,1,1.93-1.5,2.04-3.72.17-27.19-5.97-27.39-8.52,3.67-6.44,7.7-12.78,12.38-18.53s11.48-13.23,16.49-18.51c2.35-2.48,7.04-7.91,10.03-8.47Z"></path><path class="cls-10" d="M128.85,338.3l.25-2.16,9.36-2.8c-1.88-7.04-4.37-13.91-7.45-20.62.69-.44,1.2-.83,1.14-1.03-1.69-5.37-3.96-10.85-7.3-15.39-2.38.34-5.08-5.09-4-7-.67-.82-2.86-1.41-3-2.99,1.5-.28,2.34.16,3.55.94,3.32,2.17,11.8,12.38,14.97,16.03,7.74,8.93,14.89,18.68,21.46,28.52-.13,1.82-16.16,6.5-18.93,7.02-2.5.47-8.94,2.37-10.04-.53Z"></path><path class="cls-45" d="M129.85,13.3c-.08,4.84,10.95,1.85,11.88,5.58.47,1.89-8.8,29.87-10.13,34.72-.39,1.44-1.69,2.48-1.75,2.71-2.38,2.33-9.91-4.03-9-7,2.31-11.87,7.22-23.36,8.09-35.44l.91-.56Z"></path><path class="cls-101" d="M45.85,28.3c1.53,1.93.39,3.6-3.43,5.03l10.44,14.67c2.75,3.37,4.43,7.43,1.72,10.57,1.95,2,3.37,4.24,4.26,6.73,2.37-1.84,4.71.08,4,3,2.59-1.81,7.38,3.36,6,6,1.33,1.41.77,1.92-1,1-15.26-9.8-28.21-21.85-40.28-35.3-1.87-3.57,3.15-6.79,5.97-8.52s9.71-5.28,12.32-3.18Z"></path><path class="cls-44" d="M76.85,284.3c.41.65.69,1.23.51,1.56-1.09,2.03-6.02,4.35-8.36,5.39-.33.14-.73.12-1.15.04-1.6,3.51-7.72,8.68-12,9-.86,2.24-.23,4,1.89,5.3l-1.89,1.7c-2.29,5.29-5.97,10.07-11.03,14.35.55,1,.89,2.22,1.03,3.65-.17.23.28,1.34-.08,1.9l-1.34.11c-3.39-.33-12.88-5.36-15.14-7.96-.94-1.09-1.85-1.34-1.01-3.04.75-1.51,11.79-10.16,14.1-11.97,4.28-3.35,9.38-7.13,13.93-10.07,3.89-2.52,16.65-10.78,20.53-9.97Z"></path><path class="cls-43" d="M194.85,200.3c-2.26,8.06-5.16,15.7-12,21-.24.69-.52,1.35-.9,1.94-2.48,3.79-25.59,10.55-31.1,8.06-3.09.51-6.84.62-10,1-3.62,2.25-7.06,3.73-11,1,6.44-4.51,16.09-6.95,23.92-6.19,4.71-.96,25.44-9.55,19.39-15.37l-.31-2.44,1.67-1.75c11.53,1.13,18.42-12.29,15.58-22.36l1.75-1.88-.03-7.93c-.02-3.31,1.11-6.07,4.03-3.07,1.08,11.78.33,16.56-1,28Z"></path><path class="cls-25" d="M79.85,33.3c.63,9.18,2.5,17.92,4.85,26.85-.25,3.97-5.31,6.02-7.85,3.15-1.8.94-4.79-3.16-4-5-1.08-1.61-2.72-4.09-2.99-6l5.98,5.99c-.74-13.37-6.66-26.81-10.85-39.53,2.34-3.86,10.4-.18,10.86-5.47l4,20Z"></path><path class="cls-46" d="M95.85,87.3l-1,4c.69,2.51-4.04,6.16-6,4-1.84,1.24-1.87,1.4-3.62,2.85-1.12.93-4.2,1.94-4.42,2.85-1.27,5.2,2.6,4.74,4.11,6.73,2.86,3.78-.85,9.21-3.07,12.58,1.51,1.47.9,2.11-1,1,.05,2.34-5.42,1.69-7,1-1.19,1.89-7.75,3.42-9,1l-3.47.04c-.67-.61,7.11-14.43,9.47-15.04.12-2.75,2.82-7.96,6-7,4.93-5.63,11.11-13.74,19-14Z"></path><path class="cls-28" d="M159.85,29.3c.22-.37-.6-1.89.6-2.08,3.01.28,6,.93,8.74,2.24,3.3,1.59,11,6.91,9.16,10.82-.73,1.55-19.3,19.72-22,22.02-4.25,3.62-15.08,11.76-19.82,14.18-1.81.92-3.49,2.1-5.68,1.81-.02-1.18,1.31-1.46,2-1.99,2.19-5.57,10.12-11.07,16-12,1.45-4.01,4.19-7.51,8.23-10.51.14-6.86,2.57-13.48,7.28-19.86-3.18-.99-4.69-2.53-4.51-4.64Z"></path><path class="cls-154" d="M165.85,129.3c3.38-2.79,6.69,1.21,9,4,.86.53,1.6,1.02,2,2,3.51-1.49,3.9,4.54,0,3l-2.6.77c-18.99-9.25-40.77-11.89-61.61-13.68l-1.79-2.09-5.67-.63c-12.58.89-15.36-.24-8.33-3.37,15.7-.51,30.58,1.45,46,3.99-2.65-4.6-4.9-9.67-8-13.99,2.37.04,3.47.67,3-2l2.29-.09,9.33,16.52,13.33,2.74c1.48.35,2.87,1.25,3.05,2.83Z"></path><path class="cls-79" d="M164.85,251.3c-.46-.31-.44-.64,0-1l-1.2-1.75c4.23-4.96,4.63-6.71,1.2-5.25.24-2.13.13-2.24-2-2-.74-2.18-.23-4.33,1.53-6.46l-12.93,1.29-1.6-1.84c.07-.73,1.06-1.98,1-3,10.79-1.8,22.26-5.01,32-10,2.86-3.9,10.17-10.04,8.87-1.97-1.17,7.25-18.26,29.98-24.91,33.12l-1.96-1.15Z"></path><path class="cls-62" d="M159.85,29.3l6.92,3.6c-1.72,6.9-8.6,12.05-7.91,19.39,2.61-1.56,5.62-7.06,8.98-6.5-6.34,6.16-12.25,12.76-19,18.5-3.66.44-5.54-7.97-4-11,5.42-7.68,10.21-15.92,15-24Z"></path><path class="cls-100" d="M124.85,296.3c5.9,3.34,6,10.52,8.24,16.26,2.84,7.28,6.36,14.29,7.83,22.13l-12.07,3.61c-1.18-9.26-4.19-18.18-7-27l1.29-1.88c3.85,1.31,5.75.27,5.71-3.12-1.94-1.37-3.24-4.56-3-7-1.79-.1-2.85-2.17-1-3Z"></path><path class="cls-114" d="M194.85,200.3c-.51,4.38-1.1,8.44-1.73,12.78-.28,1.94-1.31,3.71,1.73,3.22-10.2,26.39-33.74,49.56-62,54.99,4.46-4.26,11.19-6.02,16-9.99,4.51-1.58,8.33-4.37,11.45-8.37l2.55.37c-.04-1.11.87-1.92,2-2,.75-.65,2.4-.98,3.48-1.99,9.48-8.98,18.91-20.18,22.52-33.01-2.66,1.9-5.05,3.49-7.99,5l12-21Z"></path><path class="cls-128" d="M90.85,274.3c-1.13.83-.8,1.83,1,3,1.35-1.06,3.01-2.06,5-3,7.87-.1,20.79-1.97,27.55-1.05,3.87.52,6.25,2.61,2.16,5.26-7.3,4.72-34.88,3.14-44.12,1.71-1.99-.31-6.96-1.79-6.53-4.3.61-3.58,13.37-3.47,14.95-1.61Z"></path><path class="cls-8" d="M85.85,303.3c-3.64,11.43-6.25,23.32-9,35-2.84-1.77-9.69-1.97-12.01-3.5-1.95-1.29-.28-2.35,0-3.5l10.9-21.61,3.1-1.39c.27-1.18.86-2.45,2-3,1.02-4.2,5.06-9.84,5-2Z"></path><path class="cls-90" d="M161.85,122.3c2.44-.21,3.06.65,3,3,3.51-.22,5.37,4.97,1,4-3.33-1.11-16.88-3.35-17.6-3.9-.83-.64-8.55-15.2-10.4-18.1-.4-.62-.59-1.39-1-2-1.23-2.4-.9-3.4,1-3,3.82,0,7.55,1.89,11.19,5.67,4.53,3.5,11.41,9.36,12.81,14.33Z"></path><path class="cls-42" d="M149.85,234.3l18-1.99c-1.41,3.15-3.09,6.11-5,8.99-.25.37-.74.64-1,1-2.7,3.58-5.7,6.25-9,8-2.98,3.27-7.57,7.02-11.52,9.48-.28.18-.84-.09-1.48-.48-1.61.79-2.98.77-2.79-1.02,5.56-6.91,9.83-14.56,12.79-22.98.05-.32-.03-.67,0-1Z"></path><path class="cls-59" d="M132.85,285.3c4.51,1.33,11.23,5.55,15.33,8.17,10.82,6.92,20.36,15.76,30.67,23.36.64,2.57-15.85,12.99-19,9.46-1.41-3.09,2.04-4.4,4-2l-.06-2.41c5.74-5.19,2.47-10.91-9.81-17.17l-.13-2.42c-6.41-1.28-11.86-5.27-15-11-3.64,3.07-14.98-8.06-6-6Z"></path><path class="cls-118" d="M153.85,302.3c1.25,1.38.97,2.78-.83,4.19l11.69,14.76c.92,1.08.22,2.09-.86,3.05-1.08.73-3.06.67-4,2-7.95-10.61-16.46-20.86-25-31-.57-2.17.77-3.5,4-4,5.09,3.59,10.05,7.21,15,11Z"></path><path class="cls-40" d="M130.85,252.3c.25.78.38,1.46.1,1.79-5.78,6.8-13.27,13.08-22.1,15.21-.33,0-.67.01-1,0-.75-.29-1.35-.61-1.43-1.04-.4-2.03.49-18.17,1.06-18.93.33-.44.82-.75,1.37-1.03,3.52-.62,6.2,3.02,8.75,3.75,1.67.48,3.69.18,5.54.48,3.26.52,3.18,1.81,7.71-.23Z"></path><path class="cls-77" d="M74.85,233.3c1.79-.77,3.68-1.57,5.66-1.54,11.2.18,22.53.42,33.73.72.94.03,1.87.28,2.8.58s1.89.75,2.81,1.23c4.24.81,8.72,1.01,13.41.59l.59,1.41c-4.11.46-11.58,2-15.5,2h-39c-3.56,0-8.26-2.32-13.5-2-.69,1.34-1.69,2.01-3,2-.55-.92-1.33-1.85-2-3,.98-1.09,1.31-2.09,1-3l1.35-1.26,11.65,2.26Z"></path><path class="cls-89" d="M96.85,45.3c1.56-5.99,11.45-4.63,12,2,.21,5.91.69,13.43-1,19-1.26-1.64-6.55-1.69-8.92-1.17.37,2.34-.33,3.73-2.08,4.17-.09,0-.27,1.16-.98,1.01-.28-1.32-.58-2.73-1.02-4.01,1.67-6.64,1.83-14.19,2-21Z"></path><path class="cls-125" d="M58.85,52.3c-.65,3.6.06,7.42,2.11,11.46l-2.11,1.54c-3.06-2.71-5.07-4.75-7.97-7.53-2.53-2.43-8.46-5.16-7.54-8.46,3.12,3.57,7.23,6.04,11.5,7.99,2.26-2.76-13.87-20.49-14.89-24.61-.59-2.4,5.47-1.33,5.9-4.39,3.1,2.5,9.94,19.27,13,24Z"></path><path class="cls-4" d="M21.85,220.3l2.77-.96c5.22,1.57,13.5,5.03,18.54,7.38.39.18.57.82.69,1.58,3.7-1.19,10.31.21,13,3-.23,1.54.52,2.67,1,4-5.4,2.41-15,.38-19-4-1.57,2.09-3.9,1.75-7-1-1.64-.17-2.64.5-3,2,.71,3.18-3.15,3.05-5,1-3.75-5.24-5.95-9-8-15,1.62-3.02,5.35-.5,6,2Z"></path><path class="cls-94" d="M51.85,248.3c-1.26.21-7.22-6.19-7.24-6.7-.16-3.11,11.14-7.33,12.96-3.64,2.21,4.73,4.36,9.17,6.45,13.34l.83-1c2.62,4.31,6.66,9.16,10,13-.02,1.79-1.36,1.79-4,0-6.72-1.31-14.85-9.29-19-15Z"></path><path class="cls-99" d="M74.85,290.3c-9.7,11.45-20.31,22.75-29,35l-4.98-2.5c5.1-5,9.79-10.62,14.98-15.5-.12-1.69.9-3.1,3.07-4.23-2.03-.17-3.05-1.09-3.07-2.77,4.02-3.26,6.29-6.97,12-9,3.85-2.21,6.18-2.55,7-1Z"></path><path class="cls-18" d="M79.85,257.3c2.89.11,2.41-2.92,5.26-4.24,3.34-1.55,9.84-2.85,11.74,1.24,2.95,3.71,2.43,10.37,1,15-.64.18-2.14.02-3,0-5.61-1.52-14.76-6.11-15-12Z"></path><path class="cls-126" d="M79.85,33.3l10.98,35.58c.31,2.78-4.39,2.03-5.98,2.42-1.3-.37-2.63-1.37-4-3-2.08,1.12-5.34-3.23-4-5,1.47-1.3,5.2.13,5.84-2.6.44-1.88-3.8-13.39-3.88-16.94-.07-3.27,1.8-6.89,1.04-10.45Z"></path><path class="cls-104" d="M148.85,64.3c-5.01,4.27-10.76,8-16,12-9.74-1.18-2.49-4.27.97-8.53,3.79-4.66,7.57-9.57,11.03-14.47l4,11Z"></path><path class="cls-67" d="M90.85,76.3c3.01,1.84,6.61,2.09,10.82.74,3.55,1.1,5.94.85,7.18-.74,4.99.53,5.46.69,10,2,.8,3.97-3.96,4.29-7,4-8.59-.74-17.45.45-26,1-6.86,2.17-9.86,1.83-9-1,2.28-2.54,10.5-5.34,14-6Z"></path><path class="cls-87" d="M162.85,119.3c2.26,2.55,2.35,5.68-1,3-8.47-9.47-14.33-13.07-24-20-.58.4-1.08.68-1.33.53-.61-.37-2.41-2.41-3.04-3.16-.07-.09,1.9.66-.64.63-1.71-2.46-4.41-4.51-4-8,.34-.87.67-.87,1,0,13.83,6.49,22.91,16.34,33,27Z"></path><path class="cls-127" d="M57.85,235.3c1.8,5,4.24,10.46,7,15,.36,3.08-.77,2.11-2,.5-6.17-8.12-2.46-17.85-16.98-9,2.3,1.77,4.05,4.59,5.98,6.5,1.33,1.41.77,1.92-1,1-2.1-2.16-3.87-3.32-6-6-3.37-.28-10.57-9.94-6-12,6.33,1.59,12.49,3.16,19,4Z"></path><path class="cls-73" d="M129.85,56.3c-.15.56.14,1.41,0,2-.59,3.65-1.92,5.31-4,5-1.75,1.58-3.81,4.05-6.19,7.41l-4.81-.41c-.84-.71-1.42-.37-.58-2l6.58-19,9,7Z"></path><path class="cls-123" d="M164.85,250.3c-1.35,1.38-2.02,2.38-2,3-3.58,2.99-7.87,10.02-14,8,5.47-4.51,11.38-12.58,16-18s8.81-11.99,14.5-17c.76-.14.63.95.51,1.51-.33,1.6-12.94,19.71-15.02,22.49Z"></path><path class="cls-147" d="M67.85,268.3c1.16,1.22.49,1.55-2,1-11.39-3.82-16.72-7.58-26-15l1-2c.93-1.65,3.27.35,3,2l1.74-.56c-2.07-3.49-1.98-4.64.26-3.44,8.16,5.9,12.68,12.79,22,18Z"></path><path class="cls-83" d="M98.85,287.3c1.48-.16,9.59-.27,9.99.03.28.21-.16,1.47,0,1.97-1.73,1.46-.54,6.8,0,9,.52,4.53-1.74,4.59-6.76.2-1.93,3.45-5.17,6.39-5.24.8.34-4.04,1.07-8.07,2-12Z"></path><path class="cls-51" d="M31.85,230.3c.72.09,1.37.33,2,.68,3.1,1.7,8.33,11.14,9,14.32.7.88,1.45,3.93,3,5l-.98.49,8.98,9.5c-3.73-.96-6.96-3.82-10-5.99-.36-1.58-1.41-2.8-3.14-3.67l.14-1.33c-3.11-.61-12.37-11.71-12.91-14.5l.91-2.5c-1.24-2.36-2.76-3.66-1.99-7,1.87,1.03,3.8,3.26,4.99,5Z"></path><path class="cls-95" d="M124.85,301.3c1.21,1.22,2.54,2.89,4,5,.86,2.05,1.81,4.1,3,5.99l-10-.99c-1.25-3.92-2.67-8.08-4-12-1.24-3.69-.49-7.36,3-4,2.66-.37,4.16,3.55,4,6Z"></path><path class="cls-134" d="M79.85,257.3c4.98,5.31,8.08,8.77,15,12-13.55-.34-22.39-15.85-29-26-1.15-2.83-.81-4.16,1-4,3.44,7.16,7.65,12.3,13,18Z"></path><path class="cls-30" d="M86.85,286.3c.81-.15,5.04-.31,5.01.51-.61,5.83-4.39,11.4-6.01,16.49-.63-1.44-1.33-2.34-2.99-2,.14,1.92-1.21,2.76-2.01,4v-1l-1.38-1.98,3.38-9.02,4-7Z"></path><path class="cls-58" d="M66.85,63.3c2.26,2.96,9.83,7.93,9.02,12.31-.04.2-2.82,2.66-3.02,2.69-1.8-1.04-3.13-2.37-4-4-2.03-1.69-4.05-4.33-6-6-2.09-2.19,1.35-6.28,4-5Z"></path><path class="cls-121" d="M66.85,63.3l-4,5c-1.1-.94-2.43-1.61-4-3,1.15-6.54-6.58-7.25,0-13,1.85,2.86,5.87,8.2,8,11Z"></path><path class="cls-3" d="M140.85,242.3c-6.04,10.5-18.86,26.65-32,27,9.02-3.76,15.56-9.93,22-17,4.23-4.64,5.04-5.19,8-11,1.4-2.44,2.54-1.68,2,1Z"></path><path class="cls-68" d="M79.85,91.3c-1.47,2.74-5.85,6.96-3,10-1.99,2.27-4.3,4.52-6,7-1.46,1.07-1.8.4-1-2,.72-1.17,3.5-6.26,2.99-7-.76-.1-1.36.94-1.99,1-3.04,1.61-7.62,2.35-5-2,4.2-2.72,8.46-6.61,14-7Z"></path><path class="cls-96" d="M139.85,259.3c.16,2.29-6.2,5.79-8,4,3.25-5.52,8.22-10.61,11.44-16.06,2.25-3.8,2.79-9.21,6.56-11.94-1.46,9.06-4,12.83-9.02,20.48-.56.85-3.43,2.62-.98,3.52Z"></path><path class="cls-14" d="M107.85,66.3v3c-3.63.01-7.39-.23-11,0v-7c4.72,2.06,9.47,1.94,10.01-3.99,1.86.79.99,6.02.99,7.99Z"></path><path class="cls-148" d="M38.85,231.3c.02,4.78,3.22,8.5,6,12-2.13-.24-2.24-.13-2,2-4.71-5.93-6.71-8.71-11-15,2.69-.57,4.65.41,7,1Z"></path><path class="cls-152" d="M74.85,233.3c-4.32-.4-8.66-1-13-1-.63,1.04-1.96.71-4-1-.32-.08-.68.08-1,0-4.32-1.03-8.71-1.8-13-3-2.58-1.16-2.83-2.1,0-3l2.86-1.18,20.43,4.51c4.05.37,6.62,1.92,7.71,4.67Z"></path><path class="cls-111" d="M153.85,251.3c-7.51,6.7-17.97,15.18-28,16.99,1.36-1.8,4.06-3.87,6-4.99,2.45-1.42,4.92-1.99,8-4,4.44-2.91,8.15-6.71,13-9,1.41-1.33,1.92-.77,1,1Z"></path><path class="cls-3" d="M108.85,248.3c-.15,6.96-1.75,13.94-1,21-1-.04-2.01.05-3,0,.14-2.98-.2-6.04,0-9.01.01-.16.95-1.13,1.04-2.42.35-4.97-1.62-12.14,2.95-15.58,0,1.99.05,4.01,0,6Z"></path><path class="cls-120" d="M132.85,285.3c-1.13-.37-2.72.26-1.99.99.33.33,6.46,3.93,7.99,5.01.28,2.68-2.32,2.65-4,4-2.91-3.45-6.34-6.75-9-10.5,2.38-1.66,4.91-.11,7,.5Z"></path><path class="cls-115" d="M108.85,76.3c1,5.5-3.71,1.92-6.41,2.08-4.26.25-9.69,4.79-11.59-2.08,6.62-1.25,11.55-.69,18,0Z"></path><path class="cls-150" d="M140.85,232.3c-4.15,1.92-5.07,2.45,0,3-1.41,1.91-4.81.75-7,1-2.34-.45-13.18.62-14.01,0-.16-.12.1-1.44,0-2,1.92-3.04,7.62-3.8,10-1,3.73-.27,7.3-.55,11-1Z"></path><path class="cls-63" d="M70.85,263.3c4.25.54,4.33,3.87,0,2-8.73-4.23-13.45-9.28-20-16l1-1c3.19,3.15,15.55,14.14,19,15Z"></path><path class="cls-29" d="M99.85,256.3c.3,2.8.95,12.17-2,13-.05-4.99-.54-10.04-1-15-.24-2.62-1.33-5.63-.5-7.99,1.91,2.43,3.18,7.02,3.5,9.99Z"></path><path class="cls-146" d="M124.85,80.3c3.43,2.14,3.19,4.48-1,4-3.55-.56-8.89-1.73-12-2,3.35.67,3.84-3.12,7-4,2.39.69,3.5.66,6,2Z"></path><path class="cls-33" d="M129.85,64.3c-1.29,3.21-5.25,8.1-9,8-1.49-2.65,2.93-7.33,5-9,.9-1.59,2.43-4.01,4-5-.08.33.12,5.69,0,6Z"></path><path class="cls-159" d="M76.85,63.3c1.62,2.19,1.2,2.87,4,5,1.61.88,3.61,2.54,2,4-.16.07-.21.95-.49.93-2.02-.15-9.77-11.64-11.51-13.93l2-1c.88,1.32,2.86,3.46,4,5Z"></path><path class="cls-12" d="M116.85,288.3c.67,1.34,1.44,2.05,2,3,2.27-.5,3.75,2.45,2,4-2.46.78-3.6,1.1-3,4-1.24-3.64-2.62-7.41-4-11-1.07-2.19,2.2-1.97,3,0Z"></path><path class="cls-131" d="M124.85,296.3c.36.7.5,1.94,1,3,.47,1.85.14,2.51-1,2-1.3-2.06-2.67-3.77-4-6-.76-1.27-1.25-2.72-2-4l2-2c1.88,2.29,2.71,4.44,4,7Z"></path><path class="cls-130" d="M125.85,63.3c-1.62,2.88-2.55,6.36-5,9-.96-.02-5.11-1.26-6-2,3.52.29,5.78-3.26,8-5.5.46-.46,2.58-3.5,3-1.5Z"></path><path class="cls-157" d="M74.85,290.3c-2.43-.82-4.02,1.25-5.71,1.71-.64.17-1.22-.73-1.29-.71,2.5-3.06,7.21-3.39,9-7,4.59.96-.81,4.59-2,6Z"></path><path class="cls-103" d="M74.85,263.3c.13.15-.23,1.16.24,1.72,1.1,1.31,4.47,1.35,4.75,3.27-3.47.54-6.16-1.62-9-2.99,3.36.22,2.1-.86,0-2,1.08.27,2.78-.18,4,0Z"></path><path class="cls-23" d="M161.85,242.3c-2.97,4.13-4.18,5.59-8,9l-1-1,9-8Z"></path><path class="cls-144" d="M65.85,236.3c.67.85.61,2.2,1,3l-1,4c-1.21-1.86-1.93-3.19-3-5-.46-2.88.71-1.86,3-2Z"></path><path class="cls-54" d="M96.85,274.3l1,2.99c-1.98-.1-4.03.18-6,0-2.65-.64-3.45-1.35-1-3,1.98-.12,4.01.03,6,0Z"></path><path class="cls-105" d="M124.85,80.3c1.06.57,2.57.25,3.53,1.96,2.82,5.03-2.56,2.35-4.53,2.04,1.51-.99,2.26-2.49,1-4Z"></path><path class="cls-24" d="M143.85,237.3c-.96,1.95-2.04,3.32-3,5l-2-1c1.32-2.58,1.53-5.93,4.48-4.98l.52.98Z"></path><path class="cls-50" d="M137.85,102.3l-1,3c-1.09-1.64-2.77-3.23-4-5l.49-1.99c1.65.85,3.3,3.13,4.51,3.99Z"></path><path class="cls-4" d="M61.85,232.3c1.21.38,2.64,1.15,4,1.49-1.17,1.64-3.16,1.65-5,1.51-.82-1.39-.86-2.51-3-4,1.33.32,2.7.59,4,1Z"></path><path class="cls-151" d="M67.85,268.3c1.37.77,4.49.53,5,2.99-2.93.83-5.01-1.32-7-1.99l2-1Z"></path><path class="cls-5" d="M72.85,78.3c-2.8.41-3.79-2.23-5-3l1-1c1.33,1.11,4.27,1.03,4,4Z"></path><path class="cls-70" d="M84.85,71.3c-.63.16-1.35.71-2,1l-2-4c.22.17,3.29-.14,4,3Z"></path><path class="cls-110" d="M131.85,91.3l-2,1c-.27-.13-.72.12-1,0-1.37-.6-3.33-.77-3-1.99,2.6-.82,4.27.52,6,.99Z"></path><path class="cls-20" d="M76.85,82.3c.09.57-.15,1.86,0,1.99.35.29,7.03-.87,8.99-.99-3.31,1.2-13.41,3.9-9-1Z"></path><path class="cls-131" d="M113.85,288.3c-.08-.21-1.55-.17-1-1.99,5.2-.6,3.18.36,4,1.99l-2.41-.91-.59.91Z"></path><path class="cls-112" d="M107.85,87.3c.34,3.29-.55,1.44-3,1-.02-.1-1.26-.19-1-.99,1.33-.01,2.67-.04,4-.01Z"></path><path class="cls-97" d="M76.85,148.3c3.51-1.83,5.61-1.86,9.18-.24,8.54-7.19,25.77-3.9,24.37,9.31,4.19,1.83,8.27,3.96,12.25,6.4,4.69-3.74,11.22-4.48,16.9-2.79-.68-11.8,11.07-20.83,20.11-11.12,13.43-5.63,16.2,7.29,15.37,17.77,7.48-1.09,15.29,3.87,15.82,11.67,1.7.29,1.34,2.43,1,4,.25,2.88,1.33,4.44.89,8.39-1.12,10.15-8.75,19.91-19.89,17.61-1.82,1.01-4.21-.19-7.19-3.61-5.07,3.59-8.92,3.09-13.7-.45-4.96,1.62-7.93.23-11.14-3.72-6.25,2.8-11.63,2.3-17-1.91-3.46,2.91-7.18,3.79-11.02.99-4.99,3.01-9.05,1.19-13.73-1.63-3.56,5.53-11.51,5.97-16.19,1.45-3.21,4.26-8.69,5.06-13.26,2.42-2.93,2.39-5.85,2.58-9.5,2.51-4.3,10.84-15.18,9.53-22.88,3.32-2.33,4.26-7.28,7.3-11.39,3.62-5.13.89-12.27-9.64-9-14-1.03-.47-2.08-1.12-2.31-2.18-2.03-9.44-2.39-19.3-.69-28.82,2.84-6.96,5.23-10.96,13-13,2.82-.74,8.27-1.56,11-1,4.77-2.83,10.86,6.08,11.83,10.93,3.53-.28,7.04-.4,10.55-.36.98-4.8,3.12-9.84,6.71-13.28,2.07-1.98,5.96-5.44,7.9-2.29.56-.12,1.35.05,2,0Z"></path><path class="cls-31" d="M110.85,123.3c17.14.76,51.63,5.79,66,15,2.22-1.9,3.39-.55,2,2,2.03,2.02,7.91,10.38,9,13,5.87,7.75,6.35,17.42,3,26-3.73-6.55-10.09-12.03-17.99-9-.37-6.31,2.19-17.66-5.95-19.58-5.15-1.21-6.03,1.59-8.5,1.64-.83.02-.86-3.14-3.24-3.87-10.79-3.32-14.66,6.82-13.32,15.81-4.24-2.82-9.82-2.6-14.54-1.05-1.58.52-3.85,2.79-4.94,2.74-1.66-.08-10.66-8.43-15.51-5.69,5.93-8.54-3.69-14.95-12.4-13.91-3.65.43-6.99,3.58-8.27,3.77-.48.07-5.24-2.16-9.32-1.85,4.23-1.87,2.29-3.67,7-6l1.21-2.61c7.32-.02,3.23-6.3-1.21-3.39,1.42-3.45-3.45-3.33-3-5.49s6.11-2.63,6.49-5.51l-3.49-1,3.65-2.26c7.61.29,15.4.71,23.35,1.26Z"></path><path class="cls-31" d="M74.85,144.3c-.18,1.26.12,2.71,0,4-7.87,1.71-12.68,11.47-13.01,19.01-2.33-2.75-13.39-.61-13.93-1.07-.26-.22-.74-4.4-2.06-6.44-1.05-1.62-6.24-6.13-8.01-6.49-.74-1.52-2.37-1.6-1.08-3.51,2.33-3.44,12.48-7.02,16.04-10.03,3.95-3.35,2.65-8.9,9.75-9.31,1.21-.07,9.82,8.81,9.26,11.4.45.72,2.26,2.28,3.04,2.45Z"></path><path class="cls-57" d="M29.85,127.3c-2.92,5.19-3.85,11.75-8,16-1.74,1.78-4.46,3.5-6.51,4.99l-.49-1.99c3.35-6.99,7.12-13.92,12-20,2.11-1.64,3.04-1.99,3,1Z"></path><path class="cls-32" d="M96.85,119.3l-2.99,2.99c5.39.6,11.99-1.28,16.99,1.01-9.19-.41-18.19.4-27,1-.99.07-2.02-.09-3,0-2.86-.06-2.73-2.32,0-3,.66-.15.71-.57,1-1,5.05-.12,9.93-.83,15-1Z"></path><path class="cls-156" d="M65.85,98.3c.69,2.25,3.01,2.17,5,2-4.51,3.43-9.47,5.47-14,9-4.39,1.82-2.29-1.52,0-4,3.97-3.52,4.39-4.02,9-7Z"></path><path class="cls-19" d="M70.85,108.3c-2.67,3.88-4.86,8.4-6.81,12.69-.8,1.75-2.51,2.57.81,2.31.05,2.71-5.34,3.83-6,1,3.79-7.86,6.82-11.16,11-18l1,2Z"></path><path class="cls-93" d="M73.85,122.3c2.5-1.04,3.05.21,1,2-5.36.8-11.78,3.6-17.49,4.02-2.21-1.95,1.33-3.68,1.49-4.02,2.03-.05,4.18-.71,6-1,2.82-.44,6.36-.5,9-1Z"></path><path class="cls-56" d="M56.85,105.3c-.82,1.12-1.72,3.45,0,4-3.12,2.43-7.97,7.12-11,10-1.8,1.12-2.44,1.35-2-1,4.61-5.39,7.95-8.52,13-13Z"></path><path class="cls-39" d="M83.85,142.3c.28-1.78-.4-4.44,0-6,1.65-6.38,7.48-1.31,7.97,3.51-2.56,1.62-4.8.92-7.97,2.49Z"></path><path class="cls-34" d="M26.85,126.3c1.05-1.31,8.57-10.32,10-8.99-1.96,2.42-2.95,5.37-4.56,7.98-.66,1.07-2.28,1.73-2.44,2.01l-3-1Z"></path><path class="cls-80" d="M76.85,138.3c5.85,2.14,3.05,7.09-2,6,.15-1.09,1.12-2.69,1.05-3.43-.08-.88-3.74.16-1.05-3.57,1.49-1.15,2.35-.89,2,1Z"></path><path class="cls-11" d="M33.85,131.3c3.15-2.87,4.54-2.09,3,2-1.55,2.4-3.9,4.94-7,4.99.6-2.98,2.52-4.74,4-6.99Z"></path><path class="cls-116" d="M45.85,119.3c-1.13,1.07-5.61,5.13-5.9,5.6-1.53,2.48-.84,4.88-3.1,8.4.47-2.67-.63-2.04-3-2,2.94-4.45,6.41-8.8,10-13l2,1Z"></path><path class="cls-16" d="M80.85,121.3v3c-1.44.14-3.85-.32-6,0l-1-2c.33-.06,1.23-.8,2.47-1.04,1.42-.28,3.29.32,4.53.04Z"></path><path class="cls-81" d="M74.85,137.3c3.1-4.27,6.44-1.18,2,1-.69-.25-1.32-.72-2-1Z"></path><path class="cls-72" d="M52.84,129.29c-.14.14-.65-.05-.98,0-.27-1.78.06-3.51,1.98-3.99.11.79-.77,3.77-1,3.99Z"></path><path class="cls-140" d="M96.85,45.3c.19-7.67-1.49-27.55.2-33.3,1.3-4.44,11.42-2.83,11.84-1.04,1.22,5.26-1.03,13.41-1.09,18.79-.07,6.22.84,11.64,1.05,17.55-3.46-4.67-7.26-4.26-12-2Z"></path><path class="cls-122" d="M96.85,91.3c1.59,1.26,1.86,6.97,0,8-.15,1.03-.78,2.37-1.02,4.31-.52,4.31-7.98-6.02-6.98-8.31,2.05-1.37,3.6-3.1,6-4,1.65-.62.84-.41,2,0Z"></path><path class="cls-112" d="M108.86,100.29l-1-9.99c.96-1,8.98,3.98,8.98,4.5l-7.97,5.5Z"></path><path class="cls-46" d="M96.85,91.3c.42.15,1.28-.32,1.86.11.33.41,1.03,10.44-1.35,8.88l-.51-.99c.36-2.43-.25-5.46,0-8Z"></path><path class="cls-48" d="M96.85,299.3c-.12,5.19,3.42-2.64,4.6-2.93,1.66-.41,4.75,2.68,5.91,3.92l1.49-1.99c.92,3.74,3.83,8.7,3.99,13l-4.98-6.99c.18,7.15-.26,14.38-.05,21.54.1,3.42,2.47,11.83.61,14.52-1.05,1.51-10.59,1.84-11.42-.7-1.31-3.99-.2-26.81-.09-32.9.05-2.99-.33-4.11-.05-7.46Z"></path><path class="cls-91" d="M164.85,112.3c9.48,7.83,22.01,22.67,26.22,34.28.45,1.25,1.55,3.71.28,4.72-3.03-5.14-7.61-7.91-12.5-11-.62-.62-1.32-1.57-2-2,1.8-.41.02-2.44,0-3-.26-5.91-8.62-16.7-13-22-1.33-1.41-.77-1.92,1-1Z"></path><path class="cls-161" d="M187.85,153.3c.87-2.46,1.55.96,1.84,1.65,2.37,5.78,4.46,4.77,5.19,6.05,1.52,2.65.69,8.22.97,11.3-5.9.94-1.07,7.27-4,11-.11-1.24-1-2.75-1-4,0-9.04.89-16.64-3-26Z"></path><path class="cls-160" d="M174.85,133.3c-1.97-1.23-6.75-3.25-9-4l.98-.49c-.61-1.08-1.72-2.33-1.98-3.51-1.73-1.54-1.3-2.92,1-3,2.96,3.25,7.76,6.06,9,11Z"></path><path class="cls-92" d="M165.85,122.3c-.42.78-1.17,2.2-1,3-1.65-.48-2.09-1.99-3-3,3.29.34,1.44-.55,1-3,.93.98,1.91,1.81,3,3Z"></path><path class="cls-141" d="M164.85,112.3l-1,1c-1.16-1.4-4.35-2.73-5-4.99,2.39.08,4.25,2.55,6,3.99Z"></path><path class="cls-61" d="M25.85,212.3l3.37.86c3.86,4.3,8.22,7.99,13.85,9.74l.78,2.4v3c-8.59-2.4-13.92-4.37-22-8-4.1-3.62-6.53-8.75-8-15-.09-.64.08-1.36,0-2-.61-3.33-.44-5.09,3-5,1.92,8.26,4.12,8.65,9,14Z"></path><path class="cls-109" d="M16.85,198.3c.62,3.71-4.22.05-3,5-1.81-14.13-5.94-21.41,0-36,.87,9.77.8,21.55,3,31Z"></path><path class="cls-60" d="M28.85,232.3c2.85,5.43,7.93,12.34,12,17,2.06,1.85,1.67,2.44-1,2-5.75-5.06-11.51-11.72-16-18l5-1Z"></path><path class="cls-6" d="M21.85,220.3c-1.73-.78-4.13-1.39-6-2-2.02-5.93-1.27-7.88-2-13,2.62,3.81,4.28,7.51,7.02,11.48.44.64,2.82,3.21.98,3.52Z"></path><path class="cls-41" d="M43.85,254.3c-.9-.65-2.71-1.76-3-2-.36-.29-.65-.69-1-1l1-2c1.12,1.29,3.98,2.09,4.01,4.48l-1.01.52Z"></path><path class="cls-2" d="M80.85,304.3l-2,4c-2.84,4.68-4.76,9.44-7.2,14.3l-6.8,8.7c2.86-11.48,11.14-28.53,18-38-.4,3.78-.45,7.42-2,11Z"></path><path class="cls-9" d="M55.85,300.3l5,1.01c1.06,4.39-3.7,4.77-5,5.99.77-2.38-1.5-2.01-2.68-1.66-2.38.71-4.21,3.15-6.33,2.15,1.37-3.48,6.71-5.62,9.01-7.49Z"></path><path class="cls-27" d="M172.85,209.3c.85.73,2.52.89,3.05,1.67,5.49,8.02-16.09,16.63-21.79,18.1-1.2.31-2.79-.64-4.3-.32-6.62,1.41-13.39,2.94-19.96,4.55-3.38.24-6.61.86-10,1-14.71.6-30.43.35-45-1-9.82-4.28-21.18-4.59-31-8s-11.53-5.91-18-13c4.78.61,9.95-1.88,10.01-7,5.08,3.36,8.77,6.98,15.43,5.94,6.13-.95,5.81-7.03,8.22-7.78,1.66-.52,3.86.12,5.63-.36s3.55-2.48,4.19-2.47c1.29,0,2.98,2.53,7.8,1.45,4.27-.96,4.06-4.25,4.73-4.78,1.93-1.5,2.11,1.7,2.99,2.44,2.43,2.06,8.81,2.35,11.02.05,1.13-1.18.65-3.47,1.49-3.52,1.91-.11,6.79,3.91,10.09,3.99,2.51.06,3.71-1.67,5.07-1.8s2.7,2.15,5.73,1.85c2.52-.25,4.08-2.68,5.28-2.87s5.04,3.36,7.89,3.79c4.44.67,8.77-1.99,9.79-1.79,1.4.27,3.28,3.85,5.6,4.44,1.85.47,3.61-.82,5.47-.59,2.15.26,3.55,2.8,6.12,2.99,3.28.25,6.62-3.07,7.81-2.86.44.07,5.45,4.85,6.64,5.89Z"></path><path class="cls-153" d="M164.85,251.3c-.6.52-1.12,1.27-2,2l-.98-.49c.5-1.16,2.49-1.85,2.98-2.51v1Z"></path><path class="cls-145" d="M128.85,306.3c-1.28,2.31-3.2-3.73-4-5l1-2c1.16,2.45,1.97,4.55,3,7Z"></path><path class="cls-86" d="M90.85,274.3c.25.3.27,2.36,1,3-2.5-.21-5.21.46-5-2.99,1.32-.07,2.68.08,4,0Z"></path><path class="cls-149" d="M80.85,305.3c-.61.94-1.58,2.31-2,3-.38-1.92,1.66-3.21,2-4v1Z"></path><path class="cls-142" d="M153.85,302.3c1.07.82,3.47,1.68,5.2,3.06,7.72,6.17,15.8,11.57,4.8,18.94-.9-4.44-12.44-14.65-12.87-17.69-.23-1.6,2.35-2.82,2.87-4.31Z"></path><path class="cls-129" d="M38.85,160.3c4.85,5.2,3.42,10.95.05,16.55-1.52,2.52-6.25,5.41-6.05,7.45l10.04,11.41c5.42,2.32,7.41,4.85,5.96,7.59-6.45,3.67-14.4-6.14-18-11-2.33,1.63-2.67,4.96-1,10-.24,2.66-2.79,3.68-5.33,2.9-3.28-1-5.23-16.22-5.67-19.9.9-4.39.91-10.08.03-17.08l.97-.92c.22-8.44,12.45-9.94,19-7Z"></path><path class="cls-52" d="M98.85,151.3c2.31.57,2.13,2.98,2,4.99-3.55.43-6.84-.32-7.75,3.71-1.88,8.32,2.76,4.29,3.75,5.3,2.13,5.57-4.65,4.08-5.07,5.61-1.02,3.73,1.62,20.25-.87,21.95-.9.61-4.28.75-5.4.48-2.45-.59-1.41-10.18-1.67-12.53-.36-3.16-3.23-13.6-.72-15.32.77-.53,2.41.01,2.74-.2s-1.04-1.72-1.01-1.99c-.18-7.71,7.31-11.12,14-12Z"></path><path class="cls-138" d="M114.85,167.3c2.03,1.18,2.18.9,4,3,1.6,3.59,2.02,6.13,1.73,10.16.85,4.24.45,6.88-.73,10.84-2.97,3.15-5.74-1.06-7.3-.82-1.13.18-2.15,1.76-5.17,1.93-7.26.4-12.9-5.74-9.86-12.91.75-1.78,2.05-.98,2.33-1.2,5.26-1.93,8.92-3.26,11-4,2.8-7.99-7.23-3.57-10.43-4.03-2.06-.3-1.17-.82-.57-1.97,4.09-2.79,10.56-3.05,15-1Z"></path><path class="cls-132" d="M137.85,167.3c5.05,1.63,8.69,10.35,2.26,12.76l-10.24,3.72c2.38,5.33,6.97,5.16,11.98,3.52.14,8.76-10.26,7.31-15.99,4l-3.27-3.99c-2.49-2.51-3.51-12.36.27-14.01.35-.05.74.09,1,0,3.65-5.14,8.06-6.08,14-6Z"></path><path class="cls-15" d="M79.85,153.3c1.76,1.22,2.1,2.96,2,5-6.98-.9-7.6,3.01-6.99,9l4.99-1c1.09,7.5-1.61,3.8-4.04,5.44-3,2.02,1.49,18.03.04,22.56-4.32,2.61-10.06-.95-9.54-6.11l-.41-10.93c-3.35-3.75-3.7-6.73-1.05-8.96.57-.31,1.69.44,3-1-.67-7.61,3.87-14.44,12-14Z"></path><path class="cls-47" d="M56.85,170.3c8.57-1.5,15.33,31.13,2.26,25.81l-2.26.19c-1.42-.03-2.9,1.11-5.23.82-6.06-.77-12.76-7.37-7.31-12.9.75-.77,2.2-.64,2.54-.91,1.48-1.31,2.81-1.65,4-1,.66.61,1.06,1.39.85,2.28-2.02,8.5,6.4,4.52,1.83-1.25l1.32-2.03c-2.72.32-2.97.03-1-2-.02-.16,1.39-1.42,1-3-4.39-.83-5.39-2.16-3-4,.71-1.35,2.37-2.02,5-2Z"></path><path class="cls-66" d="M154.85,159.3c0,3.06.64,5.51,1.92,7.37.54,4.4-1.19,25.6-3.26,28.11-.47.57-1.05,1.06-1.66,1.52-9.59-2.4-5.18-4-4.96-11.46.26-8.75-.52-16.09,1.96-24.54.17-4.35,1.17-6.02,3-5,1.62-.35,2.62.98,3,4Z"></path><path class="cls-76" d="M161.85,198.3c-3.1,2.38-6.61-1.84-7.24-4.41-.27-1.09,1.9-21.31,2.34-22.35.65-1.55.92-1.89,2.9-1.24l1.57-13.06c1.36-.71,2.89-1.27,4.43-.94,1.7,1.82,1.15,6.84.99,9.49-.33,5.53-1.26,14.45-2.09,19.91-.31,2.03-2.27,11.51-2.9,12.6Z"></path><path class="cls-88" d="M187.85,189.3c-.86,4-5.81,4.3-5,0-.8-.2-1.61-.62-1.82-1.43-2.67-10.14-5.81-3.86-5.35,3.01l-1.83,1.43c.27,1.47-.51,2.22-1.68,2.68,1.8,2.3,1.65,4.01-1.32,3.32-.44-.53-1.79-.77-2.43-2.02-3.68-7.12-3.31-12.46,2.43-17.98,2.74-1.95,5.51-3.44,9-3,6.13,2.19,8.29,7.77,8,14Z"></path><path class="cls-75" d="M49.85,170.3c3.22-5.27,8.83.29,12.48.12,1.81-.08,1.92-1.8,2.52-2.12-1.48,4.04,2.51,5.94,2.99,8.51,1.26,6.69-2.42,20.12,8.01,17.49-1.2,3.76-7.47-.03-8.36.14-1.11.21-1.97,2.53-4.19,2.89-2.55.42-4.53-.99-6.45-1.03l2.03-2.38c.46,2.35,2.09,2.84,4.38,2.3,3.49-1.16-.74-17.94-1.88-20.94-.74-1.93-2.63-4.15-4.52-4.98-2.65.96-4.98.96-7,0Z"></path><path class="cls-143" d="M154.85,154.3c2.23,2.35.46,8.61,1.01,11.99l3.99-3.99c1.13,2.42.76,5.45,0,8-.04.23-1.08.79-.98,1.51,1.09,7.36-3.4,17.05-2.02,24,.58,2.96,2.46,2.62,5,2.49-2.49,4.31-6.28-1.88-6.74-2.02-1.01-.31-2.42.23-3.26.02,2.37-11.59,3-25.05,3-37-1.54-2.31-1.54-3.97,0-5Z"></path><path class="cls-137" d="M187.85,189.3c-.39,8.39-8.11,17.5-16.31,11.04-.94-.74-.55-1.87-.69-2.04l.98-.49c-2.73-2.94-1.85-4.79,2.02-5.51.88-1.18,2.31-1.01,4.29.51,1.25-2.48,2.83-3.65,4.71-3.51,1.39,1.58,3.44,1.07,5,0Z"></path><path class="cls-49" d="M38.85,160.3l-11.83.67c-3.09,1.26-6.16,2.9-7.17,6.33-1.65,1.01-1.41-1.47-1-3,3.56-6.51,14.35-10.05,20-4Z"></path><path class="cls-65" d="M122.85,173.3c-2.34,7.35-.53,11.73,3,18-1.99-1.15-3.05-2.98-4.99-4,.08,1.66.24,2.67-1.01,4l-1-21c.91,1.04,1.27,2.98,1.97,3.58.84.71,1.53-.5,2.03-.58Z"></path><path class="cls-135" d="M19.85,167.3c.48,4.22.77,10.07,1.04,14.5.11,1.87.83,4.09-2.04,3.5-.62-5.24-2.28-16.82,0-21-.51,1.18.96,2.62,1,3Z"></path><path class="cls-124" d="M114.85,167.3l-15,1c2.32-4.5,8.32-4.58,12.63-3.08,1.69.59,1.96,1.84,2.37,2.08Z"></path><path class="cls-47" d="M32.85,184.3c4.28,2.5,7.07,7.42,10.35,10.65,2.36,2.32,10.93,5.35,5.65,8.35,1.29-5.1-3.42-4.19-6.49-7.01-1.66-1.52-9.35-10.47-9.51-11.99Z"></path><path class="cls-117" d="M51.85,172.3c-.17,1.72,2.88,3.49,3,4h-11c-.24-1.28.33-2.03,1-3,2-1.19,5.62-3.01,7-1Z"></path><path class="cls-155" d="M79.85,153.3c-1.26,1.35-3.37.83-4.92,1.58-8.53,4.11-4.36,9.43-7.08,12.42-3.92-5.77,6.28-17.94,12-14Z"></path><path class="cls-98" d="M98.85,151.3c-6.01,3.43-12.92,3.36-14,12-1.54-7.36,7.46-13.61,14-12Z"></path><path class="cls-108" d="M137.85,167.3c-2.02,1.66-4.71.69-7.06,1.44-2.47.79-3.44,3.32-6.94,4.56,1.44-5.92,9-7.61,14-6Z"></path><path class="cls-7" d="M165.85,156.3c-6.22,2.02-4.08,7.73-5.04,12.48-.19.94-.94,1.42-.96,1.52.06-2.66-.08-5.34,0-8,.02-.67.57-1.67.65-2.64.09-1.03-.91-3.08-.66-3.35.29-.32,4.79-1.32,6.01,0Z"></path><path class="cls-71" d="M30.85,192.3c-2.03,2.38-.71,6.81-1,10-1.91-4.19-2.09-9.48-1.99-14,2.32.3,2.35,3.13,2.99,4Z"></path><path class="cls-78" d="M56.85,170.3c-1.18,2.04-3.13,1.66-5,2-2.25.41-4.73.45-7,1,1.31-1.89,2.77-2.38,5-3,2.64-.73,4.3-1.19,7,0Z"></path><path class="cls-53" d="M110.85,174.3c-.14.41.36,1.49-.12,1.84-.51.38-8.97.68-10.88,2.16,3.62-2.84,5.96-4.1,11-4Z"></path><path class="cls-84" d="M179.85,175.3l-9,3c3.35-3.22,3.91-4.82,9-3Z"></path><path class="cls-139" d="M53.85,179.3c.06.56.8,1.36,1,2-.8,2.2-2.26,2.57-4,1-1.33.34-2.66.68-4,1,2.05-1.63,3.01-4.1,7-4Z"></path><path class="cls-35" d="M154.85,154.3c0,1.67,0,3.33,0,5-1.07-1.23-2.12-2.64-3-4-2.01.32-2.4-.54-1-2,1.69-.07,2.67-.4,4,1Z"></path><path class="cls-64" d="M150.85,153.3c.36.64.6,1.38,1,2-1.44.48-2.56,3.49-3,5v-7.01c.67-.05,1.34.03,2,0Z"></path><path class="cls-17" d="M112.85,132.3c.83,3.67-3.34,1.32-4,2-.59.61.21,3.43,1.51,3.99l.5-3c6.95,1.38.36,9.45-4.09,3.56-2.84-3.76,1.82-7.95,6.08-6.55Z"></path><path class="cls-85" d="M99.87,140.29c-.19-.13-.42-2.58-1.52-2.97l-2.49,2.98v-7.99s4.99,2,4.99,2l.5-3c3.03,1.44,1.5,11.04-1.48,8.99Z"></path><path class="cls-1" d="M131.85,136.31c.4,1.81-1.68.63-1.99,1-.38.44,4.81,4.45,0,4-.43,1.77,1.72.66,1.99.99.57.7-.85,2.95-1.49,2.97-.24.01-4.29-1.88-4.44-2.07-.89-1.21,1.31-10.97,5.92-6.89Z"></path><path class="cls-36" d="M119.85,134.29c-.92,3.61,1.92,5.69,1.99,9.01-5.5-1.46-4.95-2.28-3.95-7.48.31-1.61-.71-1.74,1.96-1.52Z"></path><polygon class="cls-26" points="114.84 210.3 115.84 214.3 111.86 214.3 114.84 210.3"></polygon><path class="cls-38" d="M104.85,215.29c-.52.57-5.1-1.35-3.99-1.98l3.98-1.01c-.1.81.22,2.76,0,2.99Z"></path><path class="cls-106" d="M25.85,180.3v-14.5c0-1.86,8.64-3.56,8.98,3.08.17,3.26-4.75,11.68-8.98,11.42Z"></path><path class="cls-107" d="M108.59,177.44c4.46-.63,5.92,7.54,2.27,9.37-7.54,3.76-8.42-8.5-2.27-9.37Z"></path><path class="cls-158" d="M129.86,177.29c-1.48-3.95,6.91-8.21,7.99-4.48s-5.29,5-7.99,4.48Z"></path><path class="cls-113" d="M54.85,181.3c.67,2.17,2.43,3.4,2.03,6.44-.93,7.04-12.5,2.88-6.03-5.44,1.33-.34,2.66-.68,4-1Z"></path><path class="cls-82" d="M182.85,189.3c-.17.88-3.41,5.74-4.64,5.93-.87.02-4.27-2.68-4.36-2.93-.37-1.02-.1-5.95.21-7.29,1.94-8.46,10.33-3.42,8.79,4.29Z"></path></g></svg> 