<?xml version="1.0" encoding="UTF-8"?> <svg xmlns="http://www.w3.org/2000/svg" xmlns:xlink="http://www.w3.org/1999/xlink" viewBox="0 0 841.89 595.28"><defs><style> .cls-1 { fill: #1c181d; } .cls-2 { fill: url(#radial-gradient-7); } .cls-3 { fill: url(#radial-gradient-6); } .cls-4 { fill: url(#radial-gradient-5); } .cls-5 { fill: url(#radial-gradient-4); } .cls-6 { fill: url(#radial-gradient-9); } .cls-7 { fill: url(#radial-gradient-8); } .cls-8 { fill: url(#radial-gradient-3); } .cls-9 { fill: url(#radial-gradient-2); } .cls-10 { fill: url(#radial-gradient); } .cls-11 { fill: #231f20; font-family: Heebo-Regular, Heebo; font-size: 11.21px; } .cls-12 { fill: url(#radial-gradient-16); } .cls-13 { fill: url(#radial-gradient-12); } .cls-14 { fill: url(#radial-gradient-14); } .cls-15 { fill: url(#radial-gradient-13); } .cls-16 { fill: url(#radial-gradient-10); } .cls-17 { fill: url(#radial-gradient-17); } .cls-18 { fill: url(#radial-gradient-19); } .cls-19 { fill: url(#radial-gradient-11); } .cls-20 { fill: url(#radial-gradient-18); } .cls-21 { fill: url(#radial-gradient-15); } .cls-22 { fill: #d5c8bb; } .cls-23 { letter-spacing: -.01em; } </style><radialGradient id="radial-gradient" cx="975.44" cy="453.24" fx="975.44" fy="453.24" r="61.99" gradientTransform="translate(-1078.73) scale(1.67 1)" gradientUnits="userSpaceOnUse"><stop offset="0" stop-color="#d5c8bb"></stop><stop offset="1" stop-color="#c6bcbc"></stop></radialGradient><radialGradient id="radial-gradient-2" cx="739.76" cy="378.55" fx="739.76" fy="378.55" r="61.99" gradientTransform="translate(-439.28) scale(1.33 1)" xlink:href="#radial-gradient"></radialGradient><radialGradient id="radial-gradient-3" cx="547" cy="307.06" fx="547" fy="307.06" r="61.99" gradientTransform="translate(0 -2.76)" xlink:href="#radial-gradient"></radialGradient><radialGradient id="radial-gradient-4" cx="1080.71" cy="455.53" fx="1080.71" fy="455.53" r="62.63" xlink:href="#radial-gradient"></radialGradient><radialGradient id="radial-gradient-5" cx="867.96" cy="2738.37" fx="867.96" fy="2738.37" r="61.99" gradientTransform="translate(-1078.73 -1362.37) scale(1.67 .67)" xlink:href="#radial-gradient"></radialGradient><radialGradient id="radial-gradient-6" cx="605.36" cy="2871.27" fx="605.36" fy="2871.27" r="61.99" gradientTransform="translate(-439.28 -1499.55) scale(1.33 .67)" xlink:href="#radial-gradient"></radialGradient><radialGradient id="radial-gradient-7" cx="367.87" cy="2940.79" fx="367.87" fy="2940.79" r="61.99" gradientTransform="translate(0 -1594.59) scale(1 .67)" xlink:href="#radial-gradient"></radialGradient><radialGradient id="radial-gradient-8" cx="871.49" cy="380.54" fx="871.49" fy="380.54" r="62.63" gradientTransform="translate(-439.28) scale(1.33 1)" xlink:href="#radial-gradient"></radialGradient><radialGradient id="radial-gradient-9" cx="722.71" cy="307.55" fx="722.71" fy="307.55" r="62.63" gradientTransform="translate(0 -2.76)" xlink:href="#radial-gradient"></radialGradient><radialGradient id="radial-gradient-10" cx="587.12" cy="232.26" fx="587.12" fy="232.26" r="62.63" gradientTransform="translate(331.29 -2.76) scale(.67 1)" xlink:href="#radial-gradient"></radialGradient><radialGradient id="radial-gradient-11" cx="53.17" cy="450" fx="53.17" fy="450" r="62.7" gradientTransform="matrix(1,0,0,1,0,0)" xlink:href="#radial-gradient"></radialGradient><radialGradient id="radial-gradient-12" cx="-361.83" cy="377.92" fx="-361.83" fy="377.92" r="62.7" gradientTransform="translate(294.38 -2.76) scale(.67 1)" xlink:href="#radial-gradient"></radialGradient><radialGradient id="radial-gradient-13" cx="481.32" cy="451.68" fx="481.32" fy="451.68" r="62.04" gradientTransform="translate(-439.28) scale(1.33 1)" xlink:href="#radial-gradient"></radialGradient><radialGradient id="radial-gradient-14" cx="202.47" cy="380.16" fx="202.47" fy="380.16" r="62.04" gradientTransform="translate(0 -2.94)" xlink:href="#radial-gradient"></radialGradient><radialGradient id="radial-gradient-15" cx="212.24" cy="94.12" fx="212.24" fy="94.12" r="61.1" gradientTransform="matrix(1,0,0,1,0,0)" xlink:href="#radial-gradient"></radialGradient><radialGradient id="radial-gradient-16" cx="1063.14" cy="98.21" fx="1063.14" fy="98.21" r="61.92" xlink:href="#radial-gradient"></radialGradient><radialGradient id="radial-gradient-17" cx="722.82" cy="98.48" fx="722.82" fy="98.48" r="61.76" gradientTransform="translate(-439.28) scale(1.33 1)" xlink:href="#radial-gradient"></radialGradient><radialGradient id="radial-gradient-18" cx="593.58" cy="109.38" fx="593.58" fy="109.38" r="52.5" gradientTransform="translate(-439.28) scale(1.33 1)" xlink:href="#radial-gradient"></radialGradient><radialGradient id="radial-gradient-19" cx="89.44" cy="106.42" fx="89.44" fy="106.42" r="51.94" gradientTransform="matrix(1,0,0,1,0,0)" xlink:href="#radial-gradient"></radialGradient></defs><g id="Layer_1"><path class="cls-10" d="M480.35,413.22v70.6c0,5.22,29.84,9.45,66.65,9.45s66.65-4.23,66.65-9.45v-70.6h-133.3Z"></path><ellipse class="cls-22" cx="547" cy="413.11" rx="66.65" ry="9.45"></ellipse><path class="cls-9" d="M493.75,338.53v70.6c0,5.22,23.87,9.45,53.32,9.45s53.32-4.23,53.32-9.45v-70.6h-106.64Z"></path><ellipse class="cls-22" cx="547.07" cy="338.41" rx="53.32" ry="9.45"></ellipse><path class="cls-8" d="M507.01,264.07v70.54c0,5.21,17.9,9.44,39.99,9.44s39.99-4.23,39.99-9.44v-70.54h-79.98Z"></path><ellipse class="cls-22" cx="547" cy="263.92" rx="39.99" ry="9.45"></ellipse><path class="cls-5" d="M655.12,415.09v71.33c0,5.27,30.15,9.55,67.34,9.55s67.34-4.27,67.34-9.55v-71.33h-134.68Z"></path><ellipse class="cls-22" cx="722.46" cy="414.97" rx="67.34" ry="9.55"></ellipse><path class="cls-4" d="M301.22,435.12v47.03c0,3.48,29.84,6.29,66.65,6.29s66.65-2.82,66.65-6.29v-47.03h-133.3Z"></path><ellipse class="cls-22" cx="367.87" cy="435.12" rx="66.65" ry="9.45"></ellipse><path class="cls-3" d="M314.55,386.46v47.03c0,3.48,23.87,6.29,53.32,6.29s53.32-2.82,53.32-6.29v-47.03h-106.64Z"></path><ellipse class="cls-22" cx="367.87" cy="386.46" rx="53.32" ry="9.45"></ellipse><path class="cls-2" d="M327.88,337.74v47.03c0,3.48,17.9,6.29,39.99,6.29s39.99-2.82,39.99-6.29v-47.03h-79.98Z"></path><ellipse class="cls-22" cx="367.87" cy="337.74" rx="39.99" ry="9.45"></ellipse><path class="cls-7" d="M668.84,340.1v71.33c0,5.27,24.12,9.55,53.87,9.55s53.87-4.27,53.87-9.55v-71.33h-107.75Z"></path><ellipse class="cls-22" cx="722.71" cy="339.99" rx="53.87" ry="9.55"></ellipse><path class="cls-6" d="M682.3,264.14v71.27c0,5.27,18.09,9.54,40.4,9.54s40.4-4.27,40.4-9.54v-71.27h-80.81Z"></path><ellipse class="cls-22" cx="722.71" cy="263.99" rx="40.4" ry="9.55"></ellipse><path class="cls-16" d="M695.77,188.92v71.27c0,5.27,12.06,9.54,26.94,9.54s26.94-4.27,26.94-9.54v-71.27h-53.87Z"></path><ellipse class="cls-22" cx="722.71" cy="188.77" rx="26.94" ry="9.55"></ellipse><text class="cls-11" transform="translate(496.7 511.75)"><tspan class="cls-23" x="0" y="0">F</tspan><tspan x="6.08" y="0">or 100 - 120 guests</tspan></text><text class="cls-11" transform="translate(669.99 516.43)"><tspan class="cls-23" x="0" y="0">F</tspan><tspan x="6.08" y="0">or 140 - 150 guests</tspan></text><text class="cls-11" transform="translate(323.19 507.15)"><tspan class="cls-23" x="0" y="0">F</tspan><tspan x="6.08" y="0">or 70 - 75 guests</tspan></text><text class="cls-11" transform="translate(352.39 374.76)"><tspan x="0" y="0">15 cm</tspan></text><text class="cls-11" transform="translate(353.33 422.35)"><tspan x="0" y="0">20 cm</tspan></text><text class="cls-11" transform="translate(448.88 413.12)"><tspan x="0" y="0">30 cm</tspan></text><text class="cls-11" transform="translate(352.34 472.68)"><tspan x="0" y="0">25 cm</tspan></text><text class="cls-11" transform="translate(706.73 323.67)"><tspan x="0" y="0">15 cm</tspan></text><text class="cls-11" transform="translate(706.73 243.64)"><tspan x="0" y="0">10 cm</tspan></text><text class="cls-11" transform="translate(707.67 401.45)"><tspan x="0" y="0">20 cm</tspan></text><text class="cls-11" transform="translate(706.84 477.27)"><tspan x="0" y="0">25 cm</tspan></text><text class="cls-11" transform="translate(531.59 322.69)"><tspan x="0" y="0">15 cm</tspan></text><text class="cls-11" transform="translate(532.53 403.14)"><tspan x="0" y="0">20 cm</tspan></text><text class="cls-11" transform="translate(531.46 474.2)"><tspan x="0" y="0">25 cm</tspan></text><path class="cls-19" d="M12.72,409.52v71.4c0,5.28,18.11,9.56,40.45,9.56s40.45-4.28,40.45-9.56v-71.4H12.72Z"></path><ellipse class="cls-22" cx="53.17" cy="409.4" rx="40.45" ry="9.56"></ellipse><path class="cls-13" d="M26.2,334.42v71.35c0,5.27,12.07,9.55,26.97,9.55s26.97-4.28,26.97-9.55v-71.35H26.2Z"></path><ellipse class="cls-22" cx="53.17" cy="334.27" rx="26.97" ry="9.56"></ellipse><path class="cls-15" d="M149.1,411.62v70.66c0,5.22,23.89,9.46,53.37,9.46s53.37-4.23,53.37-9.46v-70.66h-106.74Z"></path><ellipse class="cls-22" cx="202.47" cy="411.5" rx="53.37" ry="9.46"></ellipse><path class="cls-14" d="M162.44,336.9v70.6c0,5.22,17.92,9.45,40.03,9.45s40.03-4.23,40.03-9.45v-70.6h-80.05Z"></path><ellipse class="cls-22" cx="202.47" cy="336.75" rx="40.03" ry="9.46"></ellipse><path class="cls-21" d="M172.83,54.67v69.58c0,5.14,17.65,9.31,39.42,9.31s39.42-4.17,39.42-9.31V54.67h-78.83Z"></path><ellipse class="cls-22" cx="212.24" cy="54.55" rx="39.42" ry="9.31"></ellipse><path class="cls-12" d="M626.59,58.23v70.52c0,5.21,29.81,9.44,66.58,9.44s66.58-4.23,66.58-9.44V58.23h-133.15Z"></path><ellipse class="cls-22" cx="693.17" cy="58.11" rx="66.58" ry="9.44"></ellipse><path class="cls-17" d="M471.35,58.6v70.34c0,5.2,23.79,9.41,53.13,9.41s53.13-4.21,53.13-9.41V58.6h-106.25Z"></path><ellipse class="cls-22" cx="524.47" cy="58.48" rx="53.13" ry="9.41"></ellipse><path class="cls-20" d="M299.03,82.76v23.87s0,19.96,0,19.96c0,5.2,23.79,9.41,53.13,9.41s53.13-4.21,53.13-9.41v-43.83"></path><ellipse class="cls-22" cx="352.16" cy="82.76" rx="53.13" ry="9.41"></ellipse><path class="cls-18" d="M50.02,80.09v23.61s0,19.75,0,19.75c0,5.14,17.65,9.31,39.42,9.31s39.42-4.17,39.42-9.31v-43.36"></path><ellipse class="cls-22" cx="89.44" cy="80.09" rx="39.42" ry="9.31"></ellipse><text class="cls-11" transform="translate(50.69 150.82)"><tspan class="cls-23" x="0" y="0">F</tspan><tspan x="6.08" y="0">or 8-10 guests</tspan></text><text class="cls-11" transform="translate(178.19 152.42)"><tspan class="cls-23" x="0" y="0">F</tspan><tspan x="6.08" y="0">or 15 guests</tspan></text><text class="cls-11" transform="translate(493.77 154.14)"><tspan class="cls-23" x="0" y="0">F</tspan><tspan x="6.08" y="0">or 30 guests</tspan></text><text class="cls-11" transform="translate(19.12 511.94)"><tspan class="cls-23" x="0" y="0">F</tspan><tspan x="6.08" y="0">or 35 guests</tspan></text><text class="cls-11" transform="translate(159.49 511.94)"><tspan class="cls-23" x="0" y="0">F</tspan><tspan x="6.08" y="0">or 50 - 60 guests</tspan></text><text class="cls-11" transform="translate(660.65 154.14)"><tspan class="cls-23" x="0" y="0">F</tspan><tspan x="6.08" y="0">or 40 guests</tspan></text><text class="cls-11" transform="translate(319.24 152.28)"><tspan class="cls-23" x="0" y="0">F</tspan><tspan x="6.08" y="0">or 20 guests</tspan></text><text class="cls-11" transform="translate(37.63 394.75)"><tspan x="0" y="0">10 cm</tspan></text><text class="cls-11" transform="translate(37.63 473.4)"><tspan x="0" y="0">15 cm</tspan></text><text class="cls-11" transform="translate(188.63 397.32)"><tspan x="0" y="0">15 cm</tspan></text><text class="cls-11" transform="translate(198.21 115.99)"><tspan x="0" y="0">15 cm</tspan></text><text class="cls-11" transform="translate(75.4 115.99)"><tspan x="0" y="0">15 cm</tspan></text><text class="cls-11" transform="translate(188.63 466.12)"><tspan x="0" y="0">20 cm</tspan></text><text class="cls-11" transform="translate(335.95 115.99)"><tspan x="0" y="0">20 cm</tspan></text><text class="cls-11" transform="translate(508.93 114.58)"><tspan x="0" y="0">20 cm</tspan></text><text class="cls-11" transform="translate(679.16 117.73)"><tspan x="0" y="0">25 cm</tspan></text><text class="cls-11" transform="translate(628.09 382.6)"><tspan x="0" y="0">45 cm</tspan></text><text class="cls-11" transform="translate(267.99 411.62)"><tspan x="0" y="0">30 cm</tspan></text><text class="cls-11" transform="translate(770.44 96.75)"><tspan x="0" y="0">15 cm</tspan></text><text class="cls-11" transform="translate(264.45 96.76)"><tspan x="0" y="0">15 cm</tspan></text><text class="cls-11" transform="translate(418.03 110.13)"><tspan x="0" y="0">10 cm</tspan></text><text class="cls-11" transform="translate(138.13 110.13)"><tspan x="0" y="0">10 cm</tspan></text><text class="cls-11" transform="translate(586.87 96.75)"><tspan x="0" y="0">15 cm</tspan></text><text class="cls-11" transform="translate(807.31 348.54)"><tspan x="0" y="0">60 cm</tspan></text><path class="cls-1" d="M802.86,481.6c0-5.11,0-134.32,0-139.43,0,0,0,0,0-.01v-49.95s0,0,0-.01c0-5.11,0-91.22,0-96.33v-.23c.82.37,1.62.73,2.47,1.12-1.12-2.63-2.22-5.21-3.34-7.83-1.12,2.62-2.22,5.2-3.34,7.83.85-.38,1.65-.75,2.47-1.12v95.82c0,.27,0,.54,0,.81,0,.01,0,.02,0,.03v49.75s0,.02,0,.03c0,.27,0,.54,0,.81v138.93c-.82-.37-1.62-.73-2.47-1.12,1.12,2.63,2.22,5.21,3.34,7.83,1.12-2.62,2.22-5.2,3.34-7.83-.85.38-1.65.75-2.47,1.12v-.23Z"></path><path class="cls-1" d="M623.92,481.28c0-5.11,0-134.32,0-139.43,0,0,0,0,0-.01v-49.95s0,0,0-.01c0-5.11,0-19.81,0-24.92v-.23c.82.37,1.62.73,2.47,1.12-1.12-2.63-2.22-5.21-3.34-7.83-1.12,2.62-2.22,5.2-3.34,7.83.85-.38,1.65-.75,2.47-1.12v24.41c0,.27,0,.54,0,.81,0,.01,0,.02,0,.03v49.75s0,.02,0,.03c0,.27,0,.54,0,.81v138.93c-.82-.37-1.62-.73-2.47-1.12,1.12,2.63,2.22,5.21,3.34,7.83,1.12-2.62,2.22-5.2,3.34-7.83-.85.38-1.65.75-2.47,1.12v-.23Z"></path><path class="cls-1" d="M264.49,478.14c0-5.11,0-57.24,0-62.35,0,0,0,0,0-.01v-49.95s0,0,0-.01c0-5.11,0-19.81,0-24.92v-.23c.82.37,1.62.73,2.47,1.12-1.12-2.63-2.22-5.21-3.34-7.83-1.12,2.62-2.22,5.2-3.34,7.83.85-.38,1.65-.75,2.47-1.12v24.41c0,.27,0,.54,0,.81,0,.01,0,.02,0,.03v49.75s0,.02,0,.03c0,.27,0,.54,0,.81v61.84c-.82-.37-1.62-.73-2.47-1.12,1.12,2.63,2.22,5.21,3.34,7.83,1.12-2.62,2.22-5.2,3.34-7.83-.85.38-1.65.75-2.47,1.12v-.23Z"></path><path class="cls-1" d="M444.72,478.66c0-5.11,0-57.24,0-62.35,0,0,0,0,0-.01v-49.95s0,0,0-.01c0-5.11,0-19.81,0-24.92v-.23c.82.37,1.62.73,2.47,1.12-1.12-2.63-2.22-5.21-3.34-7.83-1.12,2.62-2.22,5.2-3.34,7.83.85-.38,1.65-.75,2.47-1.12v24.41c0,.27,0,.54,0,.81,0,.01,0,.02,0,.03v49.75s0,.02,0,.03c0,.27,0,.54,0,.81v61.84c-.82-.37-1.62-.73-2.47-1.12,1.12,2.63,2.22,5.21,3.34,7.83,1.12-2.62,2.22-5.2,3.34-7.83-.85.38-1.65.75-2.47,1.12v-.23Z"></path><text class="cls-11" transform="translate(104.51 411.62)"><tspan x="0" y="0">30 cm</tspan></text><path class="cls-1" d="M101.01,478.14c0-5.11,0-57.24,0-62.35,0,0,0,0,0-.01v-49.95s0,0,0-.01c0-5.11,0-19.81,0-24.92v-.23c.82.37,1.62.73,2.47,1.12-1.12-2.63-2.22-5.21-3.34-7.83-1.12,2.62-2.22,5.2-3.34,7.83.85-.38,1.65-.75,2.47-1.12v24.41c0,.27,0,.54,0,.81,0,.01,0,.02,0,.03v49.75s0,.02,0,.03c0,.27,0,.54,0,.81v61.84c-.82-.37-1.62-.73-2.47-1.12,1.12,2.63,2.22,5.21,3.34,7.83,1.12-2.62,2.22-5.2,3.34-7.83-.85.38-1.65.75-2.47,1.12v-.23Z"></path></g><g id="Layer_3"><path class="cls-1" d="M689.39,329.92c3.76,0,61.48,0,65.24,0,0,0,0,0,0,0h2.87s0,0,0,0c3.76,0-4.56,0-.81,0h.17c-.27.6-.54,1.19-.82,1.81,1.93-.82,3.83-1.63,5.76-2.45-1.93-.82-3.82-1.63-5.76-2.45.28.62.55,1.21.82,1.81h-.17c-3.58,0,4.92,0,1.35,0-.2,0-.4,0-.6,0,0,0-.02,0-.02,0h-2.73s-.01,0-.02,0c-.2,0-54.37,0-54.57,0h-10.89c.27-.6.54-1.19.82-1.81-1.93.82-3.83,1.63-5.76,2.45,1.93.82,3.82,1.63,5.76,2.45-.28-.62-.55-1.21-.82-1.81h.17Z"></path><path class="cls-1" d="M675.78,407.68c3.76,0,87.67,0,91.43,0,0,0,0,0,0,0h2.87s0,0,0,0c3.76,0-4.56,0-.81,0h.17c-.27.6-.54,1.19-.82,1.81,1.93-.82,3.83-1.63,5.76-2.45-1.93-.82-3.82-1.63-5.76-2.45.28.62.55,1.21.82,1.81h-.17c-3.58,0,4.92,0,1.35,0-.2,0-.4,0-.6,0,0,0-.02,0-.02,0h-2.73s-.01,0-.02,0c-.2,0-80.56,0-80.76,0h-10.89c.27-.6.54-1.19.82-1.81-1.93.82-3.83,1.63-5.76,2.45,1.93.82,3.82,1.63,5.76,2.45-.28-.62-.55-1.21-.82-1.81h.17Z"></path><path class="cls-1" d="M662.29,483.51c3.76,0,114.59,0,118.34,0,0,0,0,0,0,0h2.87s0,0,0,0c3.76,0-4.56,0-.81,0h.17c-.27.6-.54,1.19-.82,1.81,1.93-.82,3.83-1.63,5.76-2.45-1.93-.82-3.82-1.63-5.76-2.45.28.62.55,1.21.82,1.81h-.17c-3.58,0,4.92,0,1.35,0-.2,0-.4,0-.6,0,0,0-.02,0-.02,0h-2.73s-.01,0-.02,0c-.2,0-80.38,0-80.58,0h-37.99c.27-.6.54-1.19.82-1.81-1.93.82-3.83,1.63-5.76,2.45,1.93.82,3.82,1.63,5.76,2.45-.28-.62-.55-1.21-.82-1.81h.17Z"></path><path class="cls-1" d="M334.82,380.11c3.76,0,61.48,0,65.24,0,0,0,0,0,0,0h2.87s0,0,0,0c3.76,0-4.56,0-.81,0h.17c-.27.6-.54,1.19-.82,1.81,1.93-.82,3.83-1.63,5.76-2.45-1.93-.82-3.82-1.63-5.76-2.45.28.62.55,1.21.82,1.81h-.17c-3.58,0,4.92,0,1.35,0-.2,0-.4,0-.6,0,0,0-.02,0-.02,0h-2.73s-.01,0-.02,0c-.2,0-54.37,0-54.57,0h-10.89c.27-.6.54-1.19.82-1.81-1.93.82-3.83,1.63-5.76,2.45,1.93.82,3.82,1.63,5.76,2.45-.28-.62-.55-1.21-.82-1.81h.17Z"></path><path class="cls-1" d="M321.2,427.27c3.76,0,87.67,0,91.43,0,0,0,0,0,0,0h2.87s0,0,0,0c3.76,0-4.56,0-.81,0h.17c-.27.6-.54,1.19-.82,1.81,1.93-.82,3.83-1.63,5.76-2.45-1.93-.82-3.82-1.63-5.76-2.45.28.62.55,1.21.82,1.81h-.17c-3.58,0,4.92,0,1.35,0-.2,0-.4,0-.6,0,0,0-.02,0-.02,0h-2.73s-.01,0-.02,0c-.2,0-80.56,0-80.76,0h-10.89c.27-.6.54-1.19.82-1.81-1.93.82-3.83,1.63-5.76,2.45,1.93.82,3.82,1.63,5.76,2.45-.28-.62-.55-1.21-.82-1.81h.17Z"></path><path class="cls-1" d="M307.72,479.74c3.76,0,114.59,0,118.34,0,0,0,0,0,0,0h2.87s0,0,0,0c3.76,0-4.56,0-.81,0h.17c-.27.6-.54,1.19-.82,1.81,1.93-.82,3.83-1.63,5.76-2.45-1.93-.82-3.82-1.63-5.76-2.45.28.62.55,1.21.82,1.81h-.17c-3.58,0,4.92,0,1.35,0-.2,0-.4,0-.6,0,0,0-.02,0-.02,0h-2.73s-.01,0-.02,0c-.2,0-80.38,0-80.58,0h-37.99c.27-.6.54-1.19.82-1.81-1.93.82-3.83,1.63-5.76,2.45,1.93.82,3.82,1.63,5.76,2.45-.28-.62-.55-1.21-.82-1.81h.17Z"></path><path class="cls-1" d="M514.02,328.09c3.76,0,61.48,0,65.24,0,0,0,0,0,0,0h2.87s0,0,0,0c3.76,0-4.56,0-.81,0h.17c-.27.6-.54,1.19-.82,1.81,1.93-.82,3.83-1.63,5.76-2.45-1.93-.82-3.82-1.63-5.76-2.45.28.62.55,1.21.82,1.81h-.17c-3.58,0,4.92,0,1.35,0-.2,0-.4,0-.6,0,0,0-.02,0-.02,0h-2.73s-.01,0-.02,0c-.2,0-54.37,0-54.57,0h-10.89c.27-.6.54-1.19.82-1.81-1.93.82-3.83,1.63-5.76,2.45,1.93.82,3.82,1.63,5.76,2.45-.28-.62-.55-1.21-.82-1.81h.17Z"></path><path class="cls-1" d="M500.41,408.45c3.76,0,87.67,0,91.43,0,0,0,0,0,0,0h2.87s0,0,0,0c3.76,0-4.56,0-.81,0h.17c-.27.6-.54,1.19-.82,1.81,1.93-.82,3.83-1.63,5.76-2.45-1.93-.82-3.82-1.63-5.76-2.45.28.62.55,1.21.82,1.81h-.17c-3.58,0,4.92,0,1.35,0-.2,0-.4,0-.6,0,0,0-.02,0-.02,0h-2.73s-.01,0-.02,0c-.2,0-80.56,0-80.76,0h-10.89c.27-.6.54-1.19.82-1.81-1.93.82-3.83,1.63-5.76,2.45,1.93.82,3.82,1.63,5.76,2.45-.28-.62-.55-1.21-.82-1.81h.17Z"></path><path class="cls-1" d="M155.71,474.95c3.76,0,87.67,0,91.43,0,0,0,0,0,0,0h2.87s0,0,0,0c3.76,0-4.56,0-.81,0h.17c-.27.6-.54,1.19-.82,1.81,1.93-.82,3.83-1.63,5.76-2.45-1.93-.82-3.82-1.63-5.76-2.45.28.62.55,1.21.82,1.81h-.17c-3.58,0,4.92,0,1.35,0-.2,0-.4,0-.6,0,0,0-.02,0-.02,0h-2.73s-.01,0-.02,0c-.2,0-80.56,0-80.76,0h-10.89c.27-.6.54-1.19.82-1.81-1.93.82-3.83,1.63-5.76,2.45,1.93.82,3.82,1.63,5.76,2.45-.28-.62-.55-1.21-.82-1.81h.17Z"></path><path class="cls-1" d="M305.4,122.71c3.76,0,87.67,0,91.43,0,0,0,0,0,0,0h2.87s0,0,0,0c3.76,0-4.56,0-.81,0h.17c-.27.6-.54,1.19-.82,1.81,1.93-.82,3.83-1.63,5.76-2.45-1.93-.82-3.82-1.63-5.76-2.45.28.62.55,1.21.82,1.81h-.17c-3.58,0,4.92,0,1.35,0-.2,0-.4,0-.6,0,0,0-.02,0-.02,0h-2.73s-.01,0-.02,0c-.2,0-80.56,0-80.76,0h-10.89c.27-.6.54-1.19.82-1.81-1.93.82-3.83,1.63-5.76,2.45,1.93.82,3.82,1.63,5.76,2.45-.28-.62-.55-1.21-.82-1.81h.17Z"></path><path class="cls-1" d="M477.72,124.67c3.76,0,87.67,0,91.43,0,0,0,0,0,0,0h2.87s0,0,0,0c3.76,0-4.56,0-.81,0h.17c-.27.6-.54,1.19-.82,1.81,1.93-.82,3.83-1.63,5.76-2.45-1.93-.82-3.82-1.63-5.76-2.45.28.62.55,1.21.82,1.81h-.17c-3.58,0,4.92,0,1.35,0-.2,0-.4,0-.6,0,0,0-.02,0-.02,0h-2.73s-.01,0-.02,0c-.2,0-80.56,0-80.76,0h-10.89c.27-.6.54-1.19.82-1.81-1.93.82-3.83,1.63-5.76,2.45,1.93.82,3.82,1.63,5.76,2.45-.28-.62-.55-1.21-.82-1.81h.17Z"></path><path class="cls-1" d="M169.42,402.69c3.76,0,60.67,0,64.42,0,0,0,0,0,0,0h2.87s0,0,0,0c3.76,0-4.56,0-.81,0h.17c-.27.6-.54,1.19-.82,1.81,1.93-.82,3.83-1.63,5.76-2.45-1.93-.82-3.82-1.63-5.76-2.45.28.62.55,1.21.82,1.81h-.17c-3.58,0,4.92,0,1.35,0-.2,0-.4,0-.6,0,0,0-.02,0-.02,0h-2.73s-.01,0-.02,0c-.2,0-53.56,0-53.75,0h-10.89c.27-.6.54-1.19.82-1.81-1.93.82-3.83,1.63-5.76,2.45,1.93.82,3.82,1.63,5.76,2.45-.28-.62-.55-1.21-.82-1.81h.17Z"></path><path class="cls-1" d="M178.99,121.35c3.76,0,60.67,0,64.42,0,0,0,0,0,0,0h2.87s0,0,0,0c3.76,0-4.56,0-.81,0h.17c-.27.6-.54,1.19-.82,1.81,1.93-.82,3.83-1.63,5.76-2.45-1.93-.82-3.82-1.63-5.76-2.45.28.62.55,1.21.82,1.81h-.17c-3.58,0,4.92,0,1.35,0-.2,0-.4,0-.6,0,0,0-.02,0-.02,0h-2.73s-.01,0-.02,0c-.2,0-53.56,0-53.75,0h-10.89c.27-.6.54-1.19.82-1.81-1.93.82-3.83,1.63-5.76,2.45,1.93.82,3.82,1.63,5.76,2.45-.28-.62-.55-1.21-.82-1.81h.17Z"></path><path class="cls-1" d="M56.19,121.35c3.76,0,60.67,0,64.42,0,0,0,0,0,0,0h2.87s0,0,0,0c3.76,0-4.56,0-.81,0h.17c-.27.6-.54,1.19-.82,1.81,1.93-.82,3.83-1.63,5.76-2.45-1.93-.82-3.82-1.63-5.76-2.45.28.62.55,1.21.82,1.81h-.17c-3.58,0,4.92,0,1.35,0-.2,0-.4,0-.6,0,0,0-.02,0-.02,0h-2.73s-.01,0-.02,0c-.2,0-53.56,0-53.75,0h-10.89c.27-.6.54-1.19.82-1.81-1.93.82-3.83,1.63-5.76,2.45,1.93.82,3.82,1.63,5.76,2.45-.28-.62-.55-1.21-.82-1.81h.17Z"></path><path class="cls-1" d="M19.91,478.99c3.76,0,60.67,0,64.42,0,0,0,0,0,0,0h2.87s0,0,0,0c3.76,0-4.56,0-.81,0h.17c-.27.6-.54,1.19-.82,1.81,1.93-.82,3.83-1.63,5.76-2.45-1.93-.82-3.82-1.63-5.76-2.45.28.62.55,1.21.82,1.81h-.17c-3.58,0,4.92,0,1.35,0-.2,0-.4,0-.6,0,0,0-.02,0-.02,0h-2.73s-.01,0-.02,0c-.2,0-53.56,0-53.75,0h-10.89c.27-.6.54-1.19.82-1.81-1.93.82-3.83,1.63-5.76,2.45,1.93.82,3.82,1.63,5.76,2.45-.28-.62-.55-1.21-.82-1.81h.17Z"></path><path class="cls-1" d="M32.31,401.51c3.76,0,35.32,0,39.07,0,0,0,0,0,0,0h2.87s0,0,0,0c3.76,0-4.56,0-.81,0h.17c-.27.6-.54,1.19-.82,1.81,1.93-.82,3.83-1.63,5.76-2.45-1.93-.82-3.82-1.63-5.76-2.45.28.62.55,1.21.82,1.81h-.17c-3.58,0,4.92,0,1.35,0-.2,0-.4,0-.6,0,0,0-.02,0-.02,0h-2.73s-.01,0-.02,0c-.2,0-28.2,0-28.4,0h-10.89c.27-.6.54-1.19.82-1.81-1.93.82-3.83,1.63-5.76,2.45,1.93.82,3.82,1.63,5.76,2.45-.28-.62-.55-1.21-.82-1.81h.17Z"></path><path class="cls-1" d="M413.1,85.2c0,3.76,0,35.32,0,39.07,0,0,0,0,0,0v2.87s0,0,0,0c0,3.76,0-4.56,0-.81v.17c-.6-.27-1.19-.54-1.81-.82.82,1.93,1.63,3.83,2.45,5.76.82-1.93,1.63-3.82,2.45-5.76-.62.28-1.21.55-1.81.82v-.17c0-3.58,0,4.92,0,1.35,0-.2,0-.4,0-.6,0,0,0-.02,0-.02v-2.73s0-.01,0-.02c0-.2,0-28.2,0-28.4v-.25c0-3.49,0-6.98,0-10.48v-.17c.6.27,1.19.54,1.81.82-.82-1.93-1.63-3.83-2.45-5.76-.82,1.93-1.63,3.82-2.45,5.76.62-.28,1.21-.55,1.81-.82v.17Z"></path><path class="cls-1" d="M133.2,85.2c0,3.76,0,35.32,0,39.07,0,0,0,0,0,0v2.87s0,0,0,0c0,3.76,0-4.56,0-.81v.17c-.6-.27-1.19-.54-1.81-.82.82,1.93,1.63,3.83,2.45,5.76.82-1.93,1.63-3.82,2.45-5.76-.62.28-1.21.55-1.81.82v-.17c0-3.58,0,4.92,0,1.35,0-.2,0-.4,0-.6,0,0,0-.02,0-.02v-2.73s0-.01,0-.02c0-.2,0-28.2,0-28.4v-.25c0-3.49,0-6.98,0-10.48v-.17c.6.27,1.19.54,1.81.82-.82-1.93-1.63-3.83-2.45-5.76-.82,1.93-1.63,3.82-2.45,5.76.62-.28,1.21-.55,1.81-.82v.17Z"></path><path class="cls-1" d="M764.56,59.34c0,3.76,0,59.79,0,63.55,0,0,0,0,0,0v2.87s0,0,0,0c0,3.76,0-4.56,0-.81v.17c-.6-.27-1.19-.54-1.81-.82.82,1.93,1.63,3.83,2.45,5.76.82-1.93,1.63-3.82,2.45-5.76-.62.28-1.21.55-1.81.82v-.17c0-3.58,0,4.92,0,1.35,0-.2,0-.4,0-.6,0,0,0-.02,0-.02v-2.73s0-.01,0-.02c0-.2,0-52.68,0-52.88v-.25c0-3.49,0-6.98,0-10.48v-.17c.6.27,1.19.54,1.81.82-.82-1.93-1.63-3.83-2.45-5.76-.82,1.93-1.63,3.82-2.45,5.76.62-.28,1.21-.55,1.81-.82v.17Z"></path><path class="cls-1" d="M258.56,59.35c0,3.76,0,59.79,0,63.55,0,0,0,0,0,0v2.87s0,0,0,0c0,3.76,0-4.56,0-.81v.17c-.6-.27-1.19-.54-1.81-.82.82,1.93,1.63,3.83,2.45,5.76.82-1.93,1.63-3.82,2.45-5.76-.62.28-1.21.55-1.81.82v-.17c0-3.58,0,4.92,0,1.35,0-.2,0-.4,0-.6,0,0,0-.02,0-.02v-2.73s0-.01,0-.02c0-.2,0-52.68,0-52.88v-.25c0-3.49,0-6.98,0-10.48v-.17c.6.27,1.19.54,1.81.82-.82-1.93-1.63-3.83-2.45-5.76-.82,1.93-1.63,3.82-2.45,5.76.62-.28,1.21-.55,1.81-.82v.17Z"></path><path class="cls-1" d="M580.98,59.34c0,3.76,0,59.79,0,63.55,0,0,0,0,0,0v2.87s0,0,0,0c0,3.76,0-4.56,0-.81v.17c-.6-.27-1.19-.54-1.81-.82.82,1.93,1.63,3.83,2.45,5.76.82-1.93,1.63-3.82,2.45-5.76-.62.28-1.21.55-1.81.82v-.17c0-3.58,0,4.92,0,1.35,0-.2,0-.4,0-.6,0,0,0-.02,0-.02v-2.73s0-.01,0-.02c0-.2,0-52.68,0-52.88v-.25c0-3.49,0-6.98,0-10.48v-.17c.6.27,1.19.54,1.81.82-.82-1.93-1.63-3.83-2.45-5.76-.82,1.93-1.63,3.82-2.45,5.76.62-.28,1.21-.55,1.81-.82v.17Z"></path><path class="cls-1" d="M486.92,481.45c3.76,0,114.59,0,118.34,0,0,0,0,0,0,0h2.87s0,0,0,0c3.76,0-4.56,0-.81,0h.17c-.27.6-.54,1.19-.82,1.81,1.93-.82,3.83-1.63,5.76-2.45-1.93-.82-3.82-1.63-5.76-2.45.28.62.55,1.21.82,1.81h-.17c-3.58,0,4.92,0,1.35,0-.2,0-.4,0-.6,0,0,0-.02,0-.02,0h-2.73s-.01,0-.02,0c-.2,0-80.38,0-80.58,0h-37.99c.27-.6.54-1.19.82-1.81-1.93.82-3.83,1.63-5.76,2.45,1.93.82,3.82,1.63,5.76,2.45-.28-.62-.55-1.21-.82-1.81h.17Z"></path><path class="cls-1" d="M632.96,124.67c3.76,0,114.59,0,118.34,0,0,0,0,0,0,0h2.87s0,0,0,0c3.76,0-4.56,0-.81,0h.17c-.27.6-.54,1.19-.82,1.81,1.93-.82,3.83-1.63,5.76-2.45-1.93-.82-3.82-1.63-5.76-2.45.28.62.55,1.21.82,1.81h-.17c-3.58,0,4.92,0,1.35,0-.2,0-.4,0-.6,0,0,0-.02,0-.02,0h-2.73s-.01,0-.02,0c-.2,0-80.38,0-80.58,0h-37.99c.27-.6.54-1.19.82-1.81-1.93.82-3.83,1.63-5.76,2.45,1.93.82,3.82,1.63,5.76,2.45-.28-.62-.55-1.21-.82-1.81h.17Z"></path><path class="cls-1" d="M702.62,249.86c3.76,0,34.64,0,38.39,0,0,0,0,0,0,0h2.87s0,0,0,0c3.76,0-4.56,0-.81,0h.17c-.27.6-.54,1.19-.82,1.81,1.93-.82,3.83-1.63,5.76-2.45-1.93-.82-3.82-1.63-5.76-2.45.28.62.55,1.21.82,1.81h-.17c-3.58,0,4.92,0,1.35,0-.2,0-.4,0-.6,0,0,0-.02,0-.02,0h-2.73s-.01,0-.02,0c-.2,0-27.53,0-27.72,0h-10.89c.27-.6.54-1.19.82-1.81-1.93.82-3.83,1.63-5.76,2.45,1.93.82,3.82,1.63,5.76,2.45-.28-.62-.55-1.21-.82-1.81h.17Z"></path></g></svg> 