<?xml version="1.0" encoding="UTF-8"?> <svg xmlns="http://www.w3.org/2000/svg" id="Laag_2" viewBox="0 0 309.19 425.86"><defs><style>.cls-1{fill:#8e4f37;}.cls-2{fill:#95604b;}.cls-3{fill:#381409;}.cls-4{fill:#53220f;}.cls-5{fill:#270d0a;}.cls-6{fill:#fdf1d5;}.cls-7{fill:#a67154;}.cls-8{fill:#f3d2bf;}.cls-9{fill:#3e190d;}.cls-10{fill:#340c04;}.cls-11{fill:#cf8d66;}.cls-12{fill:#2d0903;}.cls-13{fill:#bd9384;}.cls-14{fill:#351009;}.cls-15{fill:#eac89d;}.cls-16{fill:#c1957d;}.cls-17{fill:#fcf0df;}.cls-18{fill:#e1b48a;}.cls-19{fill:#f4be9d;}.cls-20{fill:#af6e4b;}.cls-21{fill:#6e4b3e;}.cls-22{fill:#793f2d;}.cls-23{fill:#b48271;}.cls-24{fill:#563125;}.cls-25{fill:#77402e;}.cls-26{fill:#85624e;}.cls-27{fill:#450f07;}.cls-28{fill:#522617;}.cls-29{fill:#e8bf95;}.cls-30{fill:#723a27;}.cls-31{fill:#6a3021;}.cls-32{fill:#c88561;}.cls-33{fill:#582513;}.cls-34{fill:#77402d;}.cls-35{fill:#b8815f;}.cls-36{fill:#492314;}.cls-37{fill:#dc9d77;}.cls-38{fill:#d6a087;}.cls-39{fill:#3f190d;}.cls-40{fill:#ab7551;}.cls-41{fill:#dea88c;}.cls-42{fill:#240401;}.cls-43{fill:#612511;}.cls-44{fill:#854429;}.cls-45{fill:#fbe4c1;}.cls-46{fill:#290c08;}.cls-47{fill:#eebda2;}.cls-48{fill:#b78064;}.cls-49{fill:#b87c5a;}.cls-50{fill:#411406;}.cls-51{fill:#dda885;}.cls-52{fill:#ba8d7d;}.cls-53{fill:#e2ae94;}.cls-54{fill:#491505;}.cls-55{fill:#b98461;}.cls-56{fill:#d1a790;}.cls-57{fill:#a1593b;}.cls-58{fill:#592513;}.cls-59{fill:#c48a6a;}.cls-60{fill:#f1c798;}.cls-61{fill:#381609;}.cls-62{fill:#774c3b;}.cls-63{fill:#b58571;}.cls-64{fill:#622e1a;}.cls-65{fill:#c37953;}.cls-66{fill:#b0775a;}.cls-67{fill:#e1af91;}.cls-68{fill:#ecb494;}.cls-69{fill:#f5dbcb;}.cls-70{fill:#aa7457;}.cls-71{fill:#a1715e;}.cls-72{fill:#662a15;}.cls-73{fill:#cf8d62;}.cls-74{fill:#a77361;}.cls-75{fill:#dba77c;}.cls-76{fill:#e0b195;}.cls-77{fill:#895a43;}.cls-78{fill:#2a0602;}.cls-79{fill:#3b0d03;}.cls-80{fill:#c79071;}.cls-81{fill:#cda18b;}.cls-82{fill:#350e05;}.cls-83{fill:#daa98e;}.cls-84{fill:#350d05;}.cls-85{fill:#dea789;}.cls-86{fill:#eacebd;}.cls-87{fill:#e7bd91;}.cls-88{fill:#5d2d1c;}.cls-89{fill:#f5d3bb;}.cls-90{fill:#6b351e;}.cls-91{fill:#491c0f;}.cls-92{fill:#350a02;}.cls-93{fill:#864f3a;}.cls-94{fill:#ad6142;}.cls-95{fill:#4a1c10;}.cls-96{fill:#692f18;}.cls-97{fill:#6d3824;}.cls-98{fill:#3e170a;}.cls-99{fill:#a26143;}.cls-100{fill:#b7846b;}.cls-101{fill:#e0b19a;}.cls-102{fill:#8e4d38;}.cls-103{fill:#f6d5ac;}.cls-104{fill:#622b1a;}.cls-105{fill:#d9b3a3;}.cls-106{fill:#875338;}.cls-107{fill:#d49881;}.cls-108{fill:#eecaa1;}.cls-109{fill:#ba7a5a;}.cls-110{fill:#e7b8a0;}.cls-111{fill:#270503;}.cls-112{fill:#5f3f31;}.cls-113{fill:#361309;}.cls-114{fill:#ce9273;}.cls-115{fill:#180302;}.cls-116{fill:#906256;}.cls-117{fill:#5f2814;}.cls-118{fill:#4d2f25;}.cls-119{fill:#bf7752;}.cls-120{fill:#7d4b34;}.cls-121{fill:#482112;}.cls-122{fill:#e0ab7f;}.cls-123{fill:#1b0603;}.cls-124{fill:#5c2711;}.cls-125{fill:#622f1a;}.cls-126{fill:#d69f74;}.cls-127{fill:#a2786a;}.cls-128{fill:#4a1d13;}.cls-129{fill:#9c766a;}.cls-130{fill:#e4b2a7;}.cls-131{fill:#552210;}.cls-132{fill:#764633;}.cls-133{fill:#1e0502;}.cls-134{fill:#b98d79;}.cls-135{fill:#7b422c;}.cls-136{fill:#f2d3ab;}.cls-137{fill:#f5c9a7;}.cls-138{fill:#d8ae9f;}.cls-139{fill:#512617;}.cls-140{fill:#d19366;}.cls-141{fill:#6b4233;}</style></defs><g id="Laag_1-2"><path class="cls-10" d="M297.13,92.11c2.94.52,8.6,3.53,10,6,1.39,1.72.48,4.47-2,4.26-3.37,1.53-9.5,3.9-13.64,5.39-.33.12-.82-.2-1.36-.65l-6.7,4.47c-89.08,42.45-176.18,84.08-261.3,124.89-2.85.85-6.63,1.2-7-2.36-2.63,2.77-11.07-1.79-12-5-.53.56-.87.23-1-1-3.06-3.54-2.28-10.75-1-15l1.51-.31c.51,6.03,5.52,7.48,10.8,8.89l1.69,2.42c1.15-1.66,3.22-2.53,6.21-2.6,19.13-8.44,38.12-17.61,56.97-27.5l2.82.09c-.36-2.11,3.78-3.91,5-2,2.22-1.44,4.56-2.77,7-4,1.9-1.58,3.85-3.04,6-4.09,42.71-20.88,85.72-41.48,128.71-61.78,12.74-6.67,25.84-12.38,39.29-17.14,3.83-4.2,10.35-6.76,16-7,3.02-3.48,9.26-7.35,14-6Z"></path><path class="cls-39" d="M131.13,2.11c2.14.52,4.48.85,7,1,2.1-2.69,10.56.67,10,4,2.94,1.75.44,4.08-1.94,5.57-5.38,1.95-8.76,4.59-10.42,10.21-2.02,8.88-5.26,15.75-11.69,22.27,1.01,2.57,1.36,4.89,1.04,6.94-1.12,4.63-6.38,9.05-11,10-5.05,6.85-8.56,14.27-10.55,22.27l-1.45.73c4.37,5.95,9.84,10.4,16.39,13.32,10.46,3.62,20.14,8.37,29.02,14.27l-.4,2.41c-1.23,1.47-3.55,1.64-6.96.53-1.13,4.28-15.41,5.36-18.38,4.33-4.33-1.5-5.25-4.36-6.41-8.37-5.09-1.39-9.84-3.22-14.25-5.49l-2,1.48c-1.44-1.33-2.44-.83-3,1.52-.7.34-1.36,0-2-1-.99.45-1.66-.21-2-2-.9,2.69-1.57,5.36-2,8,.07,3.53.43,7.42,1.06,11.67l-2.06,1.33c-.2,1.25-.54,2.25-1,3-4.21,5.54-4.61-3.18-3-7l-.95-1.01,3.44-16.18c-.59-1.1-1.08-2.04-1.49-2.82h1c3.59-.92,2.59-1.26-3-1-10.81,5.39-15.38,14.47-20,25,.74.92.23,2.12-1,2-1.73,4.88-1.81,10.06-.26,15.52l-1.74,1.48-1.62,1.28c-5.28-2.96-9.38-.63-12.27,6.99-2.65,6.88-6.34,12.28-11.83,17.13l-2.28-.4-1.11-.66c3.58-5.56,6.62-11.34,9.11-17.34l1.29-4.72c9.35-16.51,19.25-32.6,29.71-48.28,16.7-29.26,33.92-58.19,51.67-86.8l.33-2.2c3.08-4.56,1.55-5.78,7-9Z"></path><path class="cls-133" d="M308.13,185.11c-.24,10.31,1.71,22.78-.23,33.27-3.06,16.52-18.91,18.97-31,25-73.82,36.81-149.22,73.9-224.46,107.54-7.27,3.25-22.08,12.37-29.12,13.04-1.59.15-1.96-.81-2.18-.84l-.06-2.55c6.95-3.28,13.39-7.25,19.33-11.91,2.03-2.86,5.15-3.19,9.36-.98l7.42-5.91c7.98-1.52,14-4.85,18.05-9.99,8.45-.04,11.46-2.69,9.02-7.96l1.87-1.69.59-2.45c5.71,1.77,11.59-.02,17.62-5.35l2.84,1.25c1.53-4.64,8.35-10.18,12.97-6.57,1.97-4.32,6.05-6.39,12.25-6.21l4.52-3.12c-4.2-9.66,10.69-14.31,8.68-2.59,3.64-5.86,7.19-7.95,10.65-6.28,1.78-3.03,5.01-4.93,9.69-5.71,2.31-8.28,5.85-10.5,10.6-6.67.65-3.3,3.2-5.35,6.33-3.47,4.42,6.53,10.04,3.76,16.87-8.3,2.45-.43,4.68.7,6.69,3.4,4.97-5.19,10.2-8.38,16.74-11.28,4.09-4.05,8.42-8.12,13.76-3.55-5.03-4.9-10.13-15.4,1.31-13.35,2.64,8.58,5.25,9.89,7.84,3.93,2.26-1.4,4.45-.48,6.18,1.24,7.89-5.28,16.12-9.99,24.69-14.13,3.35-4.51,6.63-5.08,12.01-4.86,1.17-3.9,2.07-5.91,5.76-7.84,6.6.15,8.05-3.69,4.35-11.53,3.03-5.4,3.71-10.92,2.06-16.55-3.23-.24-2.27-2.39,0-4-.84-2.62,3.22-4.91,5-3,.14-2.72,1.14-2.57,2,0Z"></path><path class="cls-6" d="M296.13,136.11l7.37-3.29c6.62-1,3.47,4.78.56,7.63-.88-1.2-1.82-.99-2.93-.34.42.86.04,1.16-1,1-2.46,2.27-4.46,2.94-6,2-5.63,6.04-14.07,9.47-22,11-2.47,3.32-4.81,4.32-7,3-2.27,2.42-5.6,4.09-10,5-.27.89-.6.87-1,0-62.15,33.6-126.08,64.14-191,92-9.23,8.09-21.02,13.39-33,16,.22,2.88-3.97,3.65-6,3-.76,1.06-1.17,1.2-1.21.42l-.79,22.58c.74,1,.74,2.04,0,3-.23,2.15-1.38,2.76-2.36.82.58-9.18-.99-17.05-2.71-25.6-4.5-2.75-9.15-4.82-13.93-6.22-.23-13.28-1.83-26.63-1-40,.13.15.94.96,1,1,2.12,1.82,3.15,2.97,0,4,1.94.91,1.94,2.09,0,3,2.43,1.52,2.97,1.9,0,3l1.99.91.09,17.01,14.37,7.7.55,2.38,2.81-2.79c29.84-13.57,59.59-27.54,89.25-41.91l2.94-.3c17.98-11.98,38.34-21.89,58.08-31.01,5.28-2.96,10.95-4.95,16.92-5.99,6.08-5.86,15.35-9.81,23.33-12.44,24.26-14.37,50.48-25.88,76.68-36.45.86-.35,1.85-.36,2.89-.38s2.07.11,3.1.28Z"></path><path class="cls-78" d="M301.13,188.11v4l-2.98,2.71c-70.95,35.5-143.35,70.7-217.2,105.62l-12.82,4.67c-3.27,5.03-12,8.61-18,8-.34,2.98-1.42,3.54-4,2,.09.47.15.93.07,1.36-.13.69-10.58,6.13-12.1,6.85-13.7,6.54-15.42,6.24-28.48-2.88l2.02,6.1c5.95.55,3.54,5.58-1.21,6.79,2.38,3.21,2.33,7.43-.16,12.66l5.71,7.7c2.06.65,3.11,1.79,3.14,3.41,4.47.68,8.56-1.54,12.3-6.66,3.38-.79,6.1-2.73,8.16-5.82,12.03.67,17.33-2.35,15.91-9.06,4.14-2.32,9.28-3.25,15.41-2.81-7.24-4.6,4.38-13.45,8.02-8.56,3.11-.56,6.15-1.68,8.98-3.13l2.23,1.04c.06,4.6,3.14,7.68-2.43,10.07-2.96,1.27-6.14.44-7.38,1.14-.38.22-1.18,2.74-2.66,3.83-4.6,3.4-10.6,4.12-15.6,6.4-2.38,1.08-6.52,5.68-7.18,5.88-4.05,1.29-4.99-2.24-5.31-2.32-3.16-.84-2.3,1.82-3.88,3.03-1.86,1.43-4.56,3.66-6.21,4.82-4.77,3.36-10.23,4.38-14.35,8.15-4.33-.67-9.34-2.92-12.5-6-.93-.91-6.85-9.12-7.1-9.97-.89-2.94.73-4.86.69-7.53-.13-9.41-.76-17.76-.09-27.5l1.19-.95c6.05,3.76,12.25,6.72,18.6,8.88,2.54-1.6,4.61-1.91,6.21-.93,10.41-6.33,21.4-11.88,32.98-16.67,65.92-33.65,135.34-66.94,204.72-99.67,11.54-5.44,23.3-10.34,35.3-14.66Z"></path><path class="cls-14" d="M255.13,285.11c6.98,2.56,7.55,9.23,8.01,16,5.67-1.6,10.14-8.61,16.55-6.07,5.88,2.33,8.29,10.43,9.45,16.08-2.25.4-3.9-.98-4.96-4.14l-3.04-7.86c-1.26.97-2.14.86-2.8-.48-.21,2.79-1.28,4.28-3.2,4.48.51,2.56.14,6.63-2,8,0,5.09-3.1,13.71-8,15-.06,1.18.61,2.18,2,3,4.02-.87,8.34-1.46,12.96-1.75,3.76-6.6,6.11-8.01,7.04-4.25-4.54,9.38-12.09,15.14-23.07,12.57-5.32-1.25-12.26-7.69-11.94-13.57-18.54,10.78-40.34-3.87-24.99-24,1.41-1.33,1.92-.77,1,1,2.15,1.58,1.61,2.22-1,2l.39,2.48c-2.89,7.29-3.78,10.69,4.52,11.51,2.32.23,9.52-.93,11.92-2.07,7.87-3.75,12.37-17.86,10.17-25.92-1.42,1.38-1.98.77-1-1-.31-1.27.84-1.15,2-1Z"></path><path class="cls-4" d="M150.13,422.11c-1.82.26-2.32-.46-1.8-2.15-3.14.64-4.21-1.32-3.2-5.85-.45-.67-.9-1.69-.45-2.07,17.67-14.89,38.42-30.79,57.45-42.93,1.48,2.63,4.91,9.17,3.08,11.56l-55.08,41.44Z"></path><path class="cls-64" d="M95.13,391.11c.77-1.07,1.71-2.14,3.17-2.14,15.75,8.6,31.49,16.39,47.22,23.37l-.39,1.76c1.65.47.38,3.97,1.53,4.01,1.87.06,5.29-1.35,7.47-1-.25,1.95-2.92,2.23-3.75,3.27-.48.6-.13,1.6-.25,1.72-1.62,1.72-2.86,4.48-5.99,3.56l-52.01-25.58c1.18-2.79,1.78-6.28,3-8.99Z"></path><path class="cls-5" d="M247.13,50.11c-.48,2.57-3.26,1.48-5,0-1.28-.08-2.55-.19-3.79-.45s-2.42-.53-3.51-1.04c-26.9-12.53-53.74-24.81-80.81-36.96-1.1-.49-2.09-1.22-3.08-1.98s-1.92-1.66-2.81-2.58c-3.78-1.52-5.56-2.74-10-4-3.1.33-5.1-.34-6-2,8.02-2.7,12.48,0,19.68,2.82l95.32,46.18Z"></path><path class="cls-117" d="M201.13,368.11c-1.64,2.01-6.56,6.33-9,5-8.68,5.41-17.35,11.41-26,18-9.53-3.94-18.9-9.72-27-16-4.05-1.05-9.25-2.98-12-6,.21-2.96,2.64-3.4,7.28-1.32,8.29,4.49,16.45,8.99,24.5,13.51l2.22-.19c.39-2.01,2.2-2.22,5.44-.6,8.38-3.55,16.06-10.05,23.01-16.01,2.57-.23,3.75-1.02,3.55-2.38-1.38.37-3.49-.54-4-2-1.32-1.38-.76-1.87,1-1,6.28,3.83,6.19,1.61,11,9Z"></path><path class="cls-46" d="M247.13,50.11c5.01.74,26.13,12.32,32.02,15.48s25.95,13.29,28.4,17.6c3.4,6.02.46,9.96.58,14.92-.28.87-.62.86-1,0-4.04-.18-8-2.52-10-6-.27-2,.57-2.42,2-1,1.76-.44,2.83-.89,4-2-1.8-1.03-.92-1.86,1-2-2.93-3.04-7.18-5.83-12.74-8.37l-.26-2.63c-1.09-.01-2.17-.06-3.23-.25s-2.04-.4-2.93-.84c-9.57-4.77-19.33-10.03-27.83-15.91l-2.33.68c-1.42-.31-13.42-6.47-13.69-7.54l1.02-2.14c1.61.16,3.45-.23,5,0Z"></path><path class="cls-112" d="M72.13,100.11c-10.55,17.48-20.39,35.57-31,53-9.29,18.4-19.75,37.18-33,53,.94,2.45-1.34,5.48-4,5-1.49,1.26-2.05.7-1-1,15.73-30,37.25-60.38,54.81-89.69,4.06-6.78,8.16-13.65,12.19-20.31,1.77-2.41,2.95-3.4,2,0Z"></path><path class="cls-67" d="M201.13,368.11c.23.36.79.63,1,1l-57,45-.99,3c-.21-1.23.79-3.22-.66-4.05-3.25-1.86-9.56-3.5-13.37-5.42-9.65-4.85-20.97-12.54-30.63-16.43-1.65-.66-2.62-1.52-4.34-.1,1.41-3.12,1.51-2.21,3-4l3.52.65c13.88,7.39,27.71,14.84,41.48,22.35.2-1.3.84-1.27,1,0,1.71-3.62,7.86-9.8,12-9,2.25-2.61,4.44-5.22,6.57-7.84l3.43-.16c7.66-7.51,16.46-15.11,26-20,2.43-1.77,6.17-3.86,9-5Z"></path><path class="cls-24" d="M124.13,11.11c1.83,2.17.3,2.54-.46,4.01-14.86,28.85-34.5,56.76-51.54,84.99l-.5-.97-1.5.97c17.93-29.71,34.53-60.14,54-89Z"></path><path class="cls-60" d="M3.13,293.11c4.89-.02,9.69.22,14.52,1.66l1.48,2.34c2.52,5.76,1.73,14.81,1,21l-1.41,1.54c-5.67-3.37-11.2-6.55-16.59-9.54.31-5.61.84-11.23,1-17Z"></path><path class="cls-45" d="M3.13,268.11c1.76-.65,3.11-.97,5.01-.6,1.28.25,10.19,5.07,10.53,5.56,1.34,1.95,1.32,18.96,1.46,22.58.07,1.92-1.03,4.01,2,3.46.93.23.57,2.08,0,3,1.97,5.31,1.97,10.69,0,16-.13,2.7-.99,2.45-2,0-1.73-6.76-.86-14.03-1-21l-2-1.13c.38-4.04.24-8.04-.42-11.99l-12.5.27-1.09-2.16c-.02-4.65.08-9.35,0-14Z"></path><path class="cls-125" d="M108.13,385.11c1.23-1.94,3.46.14,3,2,1.02-.54,2.38.02,3,1,1.51.03,10.57,2.88,11.67,3.66l.33,2.34c3.93.99,7.6,2.66,11,5,4.61-2.78,7.51,2.7,7,7,3.21.39,2.05,2.24,0,4-.23.07-.38,1.12-1,0-13.7-7.59-27.55-15.05-41.54-22.38l-3.46-.62c1.87-2.26,2.78-3.12,5-5,1.87-.63,3.54.37,5,3Z"></path><path class="cls-128" d="M289.13,311.11c.03.12.95.57,1.02,1.52.35,4.63-1.27,6.88-3.02,10.48-.4-2-2.72,1.1-3,1.5-1.05,1.49-.79,3.31-2.68,4.31-4.36,2.31-9.87.86-14.31.19-2.31-1.4-1.5-1.9,1-2,3.55-3.79,7.75-7.09,11.9-9.6,1.16-5.41.88-11.12-.84-17.13l1.93-1.27c3.59,3.79,4.91,8.01,8,12Z"></path><path class="cls-103" d="M19.13,297.11c-3.42-.65-7.13-1.66-10.56-2.05-3.66-.42-3.79,3.09-5.44-1.95.1-3.65.02-7.35,0-11,3.17.82,13.34-1.52,15.01.45,1.86,2.2.92,10.98.99,14.55Z"></path><path class="cls-99" d="M309.13,117.11c.03,5.85-.5,11.3-1.6,16.34-.93.81-4.56-.68-5.4-1.34-1.53-1.28-1.14-2.97,1.16-5.08l-.18-20.35c-3.64,2.32-6.63,2.79-8.98,1.43-.42,2.8-3.51,4.56-6,3-5.58,1-1.03-2.49,2-4,3.74-2.9,9.56-4.79,14.02-6.53,1.54-.6,3.57.3,2.98-2.47h1c.16,6.23.93,12.6,1,19Z"></path><path class="cls-40" d="M305.13,150.11c1.96-4.08,3.59-1.53,4,2-.06,11.07-.75,22.07-1,33-.62.11-1.49-.16-2,0-2.44-.12-2.66-1.2-1-3-3.76-1.91-3.15-14.58,0-17-1.97-1.95-1.97-4.05,0-6-1.61-1.18-1.93-2.24,0-3-2.36-2.7-2.36-4.7,0-6Z"></path><path class="cls-7" d="M20.13,318.11c.56.07,1.46.09,2,0,.44-2.15,1.11-2.48,2-1,3.47-1.31,8.32-1.59,4,2-2.02.79-4.61,2.48-5.76,2.8-5.34,1.5-14.4-8.87-20.24-9.8.05-.66-.04-1.34,0-2,6.54-1.07,11.64,7.23,18,8Z"></path><path class="cls-29" d="M309.13,140.11c-2.12.58-2.79,3.15-2,7.72l-2,1.28c-2.45,2.26-4.04-.43-1-2-1.91-.22-2.51-1.91-1.8-5.07l-1.2-1.93c2.76-2.73,5.16-.99,3.99-7-2.18.99-4.24,2.4-6.56,3.11-1.75.54-2.31-.16-2.43-.11-1.16-2.89,3.94-6.53,6-4,.95-.39,5.15-.02,5.87-1.14,1.53-2.38-1.64-10.94,1.13-13.86.09,7.65-.02,15.35,0,23Z"></path><path class="cls-85" d="M105.13,380.11l10.4-8.63c2.92.32,2.31,2.78.6,4.63,1.74,1.98.59,3.65-2,3,.63,1.63.3,3.29-1,5,.58.3.57.63,0,1l-1.8.53c-2.61-3.02-3.68-3.2-3.2-.53-1.54-.8-4.22-.46-5-3,.82-.7,1.49-1.59,2-2Z"></path><path class="cls-118" d="M255.13,285.11c-1-.1-1.38.52-2,1,.28.95-.05,1.28-1,1-2.71.24-4.98,1.64-7.13,3.24l-1.87-1.24c-3.19,1.98-6.52,3.65-10,5,1.18,2.5-2.51,6.07-5,5l-1-1c1.48-1.94,3.06-3.99,4.99-5.51,4.86-3.85,17.39-9.55,23.01-7.49Z"></path><path class="cls-26" d="M151.13,343.11c-7.27,7.19-15.27,13.86-24,20-3.3,2.54-1.7-.61-.15-.01.26.1-.77,5.12-2.85,4.01-2.33,1.54-2.95.59-2-2,8.94-7.79,17.82-16.54,28-23,1.48-.92,1.96-.57,1,1Z"></path><path class="cls-13" d="M4.13,211.11c1.28.67,1.95,2.67,2,6,2.06-1.35,7.69.42,8,3,2.92.36,3.57,2.44,1,4-1.3-.18-11.4-4.76-12.02-5.48-1.55-1.79-.31-4.16-1.98-5.52.76-2.54,1.67-2.36,2-3,.19.38.98.82,1,1Z"></path><path class="cls-55" d="M305.13,149.11c.1-3.96-.95-15.38,4-9,.01,3.99.02,8.01,0,12-.91-1.82-1.93-2.41-4-2-.89-.19-.85-.52,0-1Z"></path><path class="cls-110" d="M124.13,367.11c2.48-1.3,3.25-.79,3,2,3.88,2.17,8.07,3.84,12,6,1.33,1.41.77,1.92-1,1l-2.29,1.07c-4.7-2.36-9.53-4.59-14.65-5.83l-1.06-2.24c-1.24.26-1.24-.41,0-2,.7-.63,1.3-1.39,2-2,.71.6,1.27,1.43,2,2Z"></path><path class="cls-77" d="M120.13,369.11c2.7,1.36,1.68,4.01-1,5,.98,2.64-.77,3.67-3,2l-.49-3.99c-2.54,2.41-5.25,4.9-8.03,7.02-.91.69-2.21.75-2.49.97,3.84-5.51,10.07-8.6,15-13-.07.65.11,1.38,0,2Z"></path><path class="cls-21" d="M190.13,359.11l-1,1c-1.35.27-2.69-.4-4-2-4.51-.03-10.73-4.76-14-8-.54.42-1.04.73-1.41.61-4.52-1.49-11.92-4.33-14.59-7.61-1.46.19-2.79.19-4,0l-1-1c.92-.58,1.68-1.42,2.72-1.82,12.67,4.96,25.53,11.65,37.28,18.82Z"></path><path class="cls-3" d="M138.13,3.11c-2.6-.13-5.38,1.73-7-1,.37-.22.69-.9,1-1,1.71,1,4.07,1.45,6,2Z"></path><path class="cls-20" d="M290.13,107.11c-1.27.98-3.39,2.41-2.99,3.49l.99.51-19.77,10.79c-84.46,40.78-166.3,79.98-245.5,117.63-2.78,3.07-10.29,1.43-10.73-2.41-.49-1.73.51-2.73,3-3,1.83.47,3.21,1.15,5.24.82,3.83-.62,21.43-9.34,26.44-11.65,31-14.32,61.83-29.62,92.69-44.31,50.19-23.9,99.8-49.18,150.64-71.86Z"></path><path class="cls-16" d="M266.13,103.11c2.57-1.12,3.03.21,1,2-58.07,27.41-115.06,57.33-174,83l-7,4c-1.58.7-3.23,1.13-5,2-2.57.73-3.33.59-2-2,2.37-1.69,4.79-3.29,7.36-4.57,54.12-26.87,108.65-52.93,163.31-78.69,5.27-2.48,10.53-4.79,16.33-5.75Z"></path><path class="cls-134" d="M81.13,194.11c-17.74,8.68-35.91,19.81-54.33,27.17-3.95,1.58-7.23,3.44-11.67,2.83l-1-4c1.55-2.6,2.44-2.59,4,0l8.79-3.32c16.65-8.94,34.06-17.17,52.21-24.68l2,2Z"></path><path class="cls-2" d="M304.13,87.11c-.22.64-.69,1.35-1,2-.85,1.2-2.18,1.87-4,2-.66.34-1.33.68-2,1-4.52,2.16-9.43,3.94-14,6-2.57,1.12-3.03-.21-1-2l.11-2c3.14-1.69,6.47-2.98,9.89-4-.69-3.23,10.32-6.32,11.44-4.52.28.45.44.97.56,1.52Z"></path><path class="cls-63" d="M282.13,96.11l1,2c-5.28,2.38-10.79,4.54-16,7l-1-2c.92-2.07,3.25-3.4,7-4,1.42-2.42,6.5-4.85,9-3Z"></path><path class="cls-48" d="M15.13,234.11c.66,2.4-1.56,1.8-3,3-.89,2.18-3.04,1.33-3-1-2.1.67-5.38-.84-6-3v-4c1.42.95,10.11,4.51,12,5Z"></path><path class="cls-134" d="M93.13,188.11c-1.29,2.81-4.66,2.96-7,4,1.18-3.36,4.58-2.94,7-4Z"></path><path class="cls-3" d="M148.13,7.11c30.86,12.41,64.42,27.76,94,43,.23.12.75,1.76,2.03,2.43,4.4,2.3,8.84,2.93,12.97,6.57,18.08,9.98-3.73,19.9-14.01,23.29l-1.99-1.29c-2.3-.2-2.97-2.2-2-6-.89-.26-.87-.6,0-1,2.12-4.18-1.39-10.64-5.55-13.85l-.45-2.15c-2.4.52-2.74-.15-1-2-4.11-2.1-7.78-4.44-11-7-19.63-8.18-39.09-16.91-58.36-26.18l-35.23,29.15c-.72.62-1.53.57-2.41.03-2.19-.84-3.33-6.6-3.04-8.33.13-.78,1.7-.72,2.04-1.36,2.17-4.09,4.67-5.77,5.49-7.32,2.7-5.11,3.33-14.96,8.63-20.37,2.77-2.83,9.06-2.9,9.88-7.62Z"></path><path class="cls-115" d="M239.13,75.11c.22.16,1.42-.29,1.86.17.21.22-.58,4.73.14,5.83.06.73.08,1.45-.03,2.14s-.22,1.31-.57,1.7c-2.99,3.33-6.13,6.38-9.42,9.42-8.85,8.19-19.66,16.96-29.98,22.74l-.33,2.27-13.75,9.41c-3.75,2.52-6.39,2.62-7.91.31-10.48-3.04-20.73-6.87-30.77-11.47l-1.23-2.53c-2.48-2.69-6.68-4.96-9.96-6.54-7.59-3.64-20.11-7.81-26.78-12.22-3.84-2.53-5.33-6.26-9.13-8.4-.88-1.36.8-2.43.88-2.85.55-2.3,1.12-2.24,2,0,25.78,11.98,51.12,24.32,76,37,.59-1.86,1.5-1.87,2,0,5.71-5.47,11.71-10.8,18-16,12.28-10.31,24.67-20.56,37.19-30.74l1.81-.26Z"></path><path class="cls-36" d="M101.13,106.11c3.42.61,13.01,1.45,15.77,4.23,1.2,1.21.96,7.03,5.79,7.78.68.11,13.07-.84,13.73-1,1.01-.25,1.23-2.97,3.58-3.53,1.25-.3,5.55,1.02,7.13,1.51,6.77,2.08,12.71,6.24,19.7,7.8l12.3,6.2c-.3,2.71-1.23,2.58-2,0-3.37.38-6.94.68-10.72.91l-18.64,4.9c-5.98,2.08-11.54,2.3-16.69.65-3.11,3.49-6.54,3.36-6.77-1.64-5.74-8.98-7.43-6.83-5.08,6.44.7,7.33-1.92,12.12-7.47,16.59-3.21,2.58-12.4,7.3-15.63,5.15-.87-.28-.86-.62,0-1l.53-2.22c6.27-2.37,11.58-7.12,15.17-12.74l2.29-.04,1-8c-2.68-.66-2.42-1.76,0-3l-2.24-1.43c-1.86-9.16-6.4-17.63-12.15-24.93l.39-2.63Z"></path><path class="cls-121" d="M61.13,146.11l2.35,1c4.54,12.75,19.27,14.42,30.98,12.26l1.67,1.74v1c.41,1.58-1.84,2.09-3,1-2.09-.01-4.09.32-6,1-.42,1.78-2.33,1.77-3,0l-4.08.95c-9.51-.02-15.81.87-22.4,8.15-3.72-.09-7.36.05-10.92.4-2.02,4.36-5.07,8.52-10.48,7.17-2.11,3.12-7.98,3.93-11.13,2.33.79-3.61,4.82-10.55,8-12,2.09-2.6,5.67-5.5,7.44-8.06,3.74-5.44,3.04-8.07,7.99-14.01,1.07-1.29,1.44-3.74,2.59-4.48,1.56-1.01,8.37-.02,9.98,1.55Z"></path><path class="cls-82" d="M101.13,106.11c6.38,7.26,12.84,19.32,14,29l-2.08,1.41c-1.35,5.14-6.03,15.65-11.92,13.59l-1.28-.57c-11.28,5.75-27.06,5.27-33.8-6.86-1.85-3.33-3.28-11.52,1.34-10.24,7.72,9.86,13.64,11.2,17.77,4.02,19.65,5.9,20.18-8.22,13.96-22.36-.89-.24-.87-.58,0-1l-2-3c-1,1-1.37.41-1-1l-3-4.99c3.32-.97,5.33,1.51,8,1.99Z"></path><path class="cls-123" d="M63.13,138.11h.98c5.02,15.81,22.45,18.27,35.82,11.38l1.2.62c4.7-2.58,7.42-6.86,9.52-12.01,1.24-3.03-1.02-5.75,4.48-2.99.11.96-.03,2.02,0,3l-1,8c-3.01,6.03-11.4,13.45-18,15-1.67.39-7.5.96-9.46,1.04-11.05.44-22.82-4.39-25.54-16.04-.97-4.13-.96-11.28.21-15.33.37-1.26,1.75-1.55,1.79-1.67,1.07,2.42,1.07,5.42,0,9Z"></path><path class="cls-95" d="M99.13,114.11c9.93,14.27,6.8,31.02-13.41,23.93-5.51,12.37-14.56.25-20.58-4.93-2.44,10.81,10.83,19.24,20.48,19.08,4.55-.08,8.59-1.93,12.8-3.29,1.85-.59,3.05-2.08,2.71,1.21-9.45,5.19-23.54,6.39-31.91-1.59-1.9-1.81-5.74-7.86-6.09-10.41.22-3.78.88-7.12,2-10-.54-1.61.45-4.37,2-5,2.52-2.31,6.57,2.6,5.2,5.46,6.61,11.86,9.48,4.03,11.6-5.43l1.21-.03c-.61,10.02,1.53,5.58,3,7,9.12,7.4,12.45-7.77,9.82-15.25l1.18-.75Z"></path><path class="cls-17" d="M221.13,49.11c1.14,1.25.47,1.58-2,1-11.01-1.82-22.97-7.52-32-14l-1.94.56c-6.9-3.85-14.07-7.02-21.5-9.53-5.58,2.94-10.69,6.75-15.34,11.44l-1.22-.47-1.27,2.76c-6.44,5.08-12.73,10.32-18.88,15.73-2.7,5.15-6.32,7.32-10.86,6.51-.18,2.64-1.07,2.43-2,0v-1c3.46-3.49,7.31-6.77,11-10,2.68-2.35,5.15-3.97,7.5-6,9.84-8.49,19.59-17.13,29.97-24.98,19.44,9.59,39.53,17.61,58.53,27.98Z"></path><path class="cls-30" d="M86.13,103.11c1.74.95,2.15,1.29,2.05,3.4-.25,5.13-2.7,10.98-3.05,16.6-2.16,2.92-1.74,13.4-6.49,13.76-2.05.15-10.89-6.66-7.54-10.15l-3.97-3.61c-.55-2.24,1.65-7.78,4-8,1.87-1.94,2.46-1.67,2,1,.94-.12,1.48.15,1.58.95,1.08,8.28,2.56,19.46,8.42,5.05l-.8-1.63c1.73-4.45,2.74-8.98,3.01-13.59l-1.21-.78c.59,2.03-.61,2.57-2,1-1.77,2.32-2.42,1.68-2-1-.7-2.06,3.89-3.6,6-3Z"></path><path class="cls-61" d="M33.13,171.11c-1.55,3.27-5.61,7.94-8,12,2.21,1.87.88,4.76-2,4l-2,4c.38,3.6-2.26,7.69-6,8,1.49,2.12-.18,4.02-1.78,5.65-1.91,1.95-6.54,5.35-5.22,1.35,11.47-15.97,22.63-35.96,33-53,1.02,6.23-4.79,10.24-7.47,15.07-.66,1.19-.31,2.47-.53,2.93Z"></path><path class="cls-135" d="M94.13,108.11c4.75,4.38,6.49,15.38,1.87,20.39-3.75,4.08-8.77,5.62-6.87-1.39.24-3.3-.2-7.9.02-11.52.04-.69.18-1.52.98-1.48.29-2.01.96-4.68,2-8,1-.03,1.55,1.26,2,2Z"></path><path class="cls-104" d="M96.13,109.11c.13.08.49.64,1,1l2,3c.05.33-.05.67,0,1,.46,3.09,1.76,7.51,1.63,10.35-.25,5.46-6.66,12.56-12.05,8.73-1.13-.81-.42-2.92-.59-3.08-.49-1.12.98-2.7,1-3-1.05,5.66,3.98,1.91,5.46-.04,3.89-5.11,2.68-13.82-.46-18.96.64.38,1.37.62,2,1Z"></path><path class="cls-69" d="M114.13,63.11c1.67,1.22,1.44,3.38-.68,6.46,2.26.58,3.15,1.76,2.68,3.54,3.77,2.36,3.33,3.84-1,3-1.27,1.2-3.28,1.4-6.04.58-.44,3.73-1.76,6.2-3.96,7.42,1.64,1.19.96,1.73-1,1-.41-.19-1.4.13-2,0,1.78-10.23,4.79-15.73,12-23v1Z"></path><path class="cls-86" d="M84.13,102.11c1.84-.31,2.84.02,3,1-.33.05-.68-.06-1,0-1.75.33-4.49,1.96-6,3-1.51,3.96-4.51,6.96-9,9-2.12,2.95-2.75,4.71-4,8-.67,1.76-1.44,2.63-2,5-1.24,1.25-1.51.69-1-1,3.96-10.95,7.11-21.44,20-25Z"></path><path class="cls-71" d="M92.13,106.11l-1.01,13c-1.78.08-.99-3.77-.99-5,0-1.95-.76-7.9,2-8Z"></path><path class="cls-129" d="M65.13,128.11c-.71,3.01-.18,7.32-2,10-.39-2.76.27-6.13,0-9,.3-.95.83-1.52,1-2l1,1Z"></path><path class="cls-127" d="M84.13,102.11c4.08-1.13,5.67-1.18,9.99.01-.68,2.05-5.16.73-6.99.99l-3-1Z"></path><path class="cls-113" d="M301.13,192.11c.99-.41,1.55-1.4,2.99-1-1.14,3.17.34,7.84.01,10.42-.3,2.36-3.09,3.71-3.07,7.08.02,3.17,2.73,4.69,1.89,8.76-1.25,6.03-6.48,3-9.34,5.69-2.09,1.96-2.34,5.87-3.43,6.59-1.78,1.19-5.44-.2-8.03.97-1.26.56-2.54,2.94-4.08,3.92-3.63,2.32-8.23,3.64-10.94,5.24-3.15,1.85-12.59,9.74-15.23,9.14-1.22-.28-2.87-2.71-4.64-1.68-.28.16-1.78,4.49-3.77,4.8-.48.08-4.98-2.89-5.13-3.15-.65-1.16.41-6.45-2.71-5.78-6.93,1.49,2.73,9.46,3.29,11.71,1.71,6.77-4.98.56-5.51.44-4.26-1.02-6.79,3.73-9.37,5.29-3.14,1.89-7.16,3.32-9.89,5.11-2.2,1.44-5.03,6.08-7.72,6.32-2.3.2-3.82-4.32-5.81-3.86-2.35,4.65-9.92,15.9-15.9,11.9-1.62-1.08-3.87-7.06-6.14-1.86-.61,1.39,1.33,3.96-.99,4.96-2.63,1.13-1.17-6.46-6.22-4.32-2.65,1.13-1.46,5.07-3.7,7.39s-6.49,1.94-8.27,3.23c-.87.63-1.46,3.43-2.89,3.67-1.26.22-2.23-2.11-3.41-1.55-1.39.66-5.62,8.61-9.5,8.55-2.67-.04,1.06-4.27.43-6.36-.96-3.2-5.7-1.26-5.98,1.94-.19,2.15,2.89,4.56,2.06,5.43-.1.11-1.88-.03-2.88.59-2.2,1.37-3.37,3.14-6.36,3.78-2.18.46-4.36-.64-5.75.07-1.69.86-2.75,5.1-4.65,5.44-1.61.29-2.71-2.17-5.06-1.16-.65.28-5.47,3.9-5.75,4.34-.74,1.17-.57,4.59-2.07,4.94-2.19.5-2.24-2.82-2.5-2.99-1.08-.69-8.12,7-13.7,6.73-2.16-.1-2.3-2.58-5.28-.74-2.57,1.59-7.26,3.49-10.62,4s-1.94-3.4-5.73-1.86c-1.09.44-3.67,4.2-3.69,5.34,0,.48,4.76,1.78,3.02,4.51-.93,1.46-14.85.69-16,2.02-.33.38,2.65,6-3.01,8.48-2.85,1.25-12.56,1.21-13.98,1.95s-1.74,3.16-3.06,4c-1.21.77-3.12.51-4.48,1.52-2.57,1.9-4.84,5.86-8.25,6.83-.57.16-4.85.09-5.05-.08-.36-.3-.02-1.63-.17-1.71,3.07-3.06,4.74-6.4,5-10,1.24-2.17,4.79-5.07,7-3,.44-.77.44-1.43,0-2-2.26.51-2.84-1.03-3-3-.8-1.91,1.14-3.72,5.8-5.42-6.99-6.23-3.06-8.71,4.54-10.6,5.53-1.37,8.48-1.43,13.13,2.16,3.13.81,5.74-2.92,7.24-5.24,2.44-13.94,17.09-5,5.86,3.3,11.09-.68,12.24-7.47,7.2-15.83l.23-2.37c44.9-21.47,89.42-43.55,134.38-65.12,32.26-15.48,65.88-34.19,98.62-47.88Z"></path><path class="cls-106" d="M306.13,185.11c-1.56.49-3.69,2.39-5,3-57.58,27-115.16,54.52-172.38,82.12-32.75,15.8-66.94,35.68-100.62,48.88.62-3-1.48-1.88-4-2-.5-2.69.18-2.98,2-1,1.63-1.66,3.33-3.36,5.46-4.37,20.61-9.8,41.08-19.71,61.61-29.69,7.55-3.67,15.66-6.99,22.94-9.94l.44-2.06c41.29-19.11,84.1-39.36,128.42-60.77l18.14-7.16c12.55-8.31,25.9-15.41,40.07-21.3l1.93,1.3c.06.43,1.5,1.79,1,3Z"></path><path class="cls-32" d="M279.13,119.11c2.42,1.65.71,3.47-.96,5.14-5.78,3.38-10.3,7.62-13.58,12.72l-14.84,10.8c1.1,1.89,1.6,3.53-.24,5.19-10.04,3.23-19.5,7.75-28.38,13.56-2.28,3.91-8.66,8.68-12.66,5.6l-.96,2.61c-6.76,2.62-12.56,6.08-17.38,10.38-24.92,11.88-49.95,24.96-75,37-5.47,1.15-10.75,3.1-15.83,5.86-6.09-1.11-10.42.14-13.01,3.77-7.49,1.79-14.89,3.81-22.19,6.06-5.74,4.38-16.62,9.38-23.96,8.27-3.91-.59-11.41-3.38-10.02-7.95,81.67-42.33,164.79-81.99,249-119Z"></path><path class="cls-136" d="M254.13,162.11c.4.44.76.9.99,1.41.2.44.31.86.19,1.2-.36,1.01-13.51,13.06-15.62,14.66-17.08,10.26-35.07,19.43-53.97,27.51-17.43,10.38-35.68,18.87-54.76,25.49-19.55,10.17-40.57,18.83-62.89,22.78-.75.13-1.56-.02-2.4-.19s-1.71-.5-2.54-.85c63.52-30.69,127.44-61.17,191-92Z"></path><path class="cls-18" d="M301.13,140.11c4.66-1.11,2.79,3.18,3,7-21.05,24.29-48.35,45.73-78.26,60.97l-50.54,25.31c-30.25,17.06-62.86,29.14-96.01,39.56-17.63,8.15-35.45,15.71-53.46,22.7l-2.72-.54c-.76-2.94-.78-6.06,0-9,1.13-1.48,3.06-2.24,5.79-2.29,6.5-4.21,12.67-5.72,18.52-4.52,17.83-6.59,35.76-12.96,53.77-19.11,39.83-15.59,79.47-34,115.92-56.09l3.12-3.78c16.91-11.4,33.09-22.94,47.76-36.16,12.24-3.76,22.51-7.92,27.7-20.13l4.42-2.93c.32-.35.66-.67,1-1Z"></path><path class="cls-65" d="M302.13,132.11c-1.4.58-4.52,2.97-6,4-34.09,12.39-72.77,33.16-106,49-1.75-.44,1.85-4.25,2.07-4.43,3.6-2.82,11.2-4.75,13.25-6.5,1.13-.96.85-3.66,2.21-4.07,1.93-.58,3.35,2.02,4.77,1.82,5.09-.72,5.82-5.54,7.39-6.88.83-.72,16.65-9.46,19.05-10.7,2.02-1.05,10.17-2.36,10.25-3.72-.5-.98-2.17-2.25-1.55-3.53.44-.9,13.52-9.61,16.1-11.94,1.34-1.21,1.33-3.18,2.52-4.48,2.99-3.25,11.58-6.37,12.95-11.55l.2-1.97c6.9-2.23,11.84-5.24,14.8-9.03,3.6-1.67,7.72-2.44,10.99-5l.02,24.51-3.01,4.49Z"></path><path class="cls-15" d="M294.13,143.11c.86-.56,2.13-.64,2.41.2,1.72,5.08-16.74,13.24-21.03,13.78-24.86,23.74-55.38,44.64-86.29,60.69-24.74,12.85-52.06,24.32-77.7,34.92l-5.66-.39c-3.84,3.1-7.94,5.65-12.88,6.98-18.85,4.55-37.21,9.3-54.65,16.85l-9.72.02c-2.5.74-4.32.39-5.48-1.05-.95-.92-.18-1.75,1-2,2.52-1.52,3.56-1.86,6-3,16.45-5.48,33.05-10.73,49.8-15.75,29.85-12.98,59.87-25.27,90.05-36.87,12.85-9.33,26.94-16.73,42.27-22.2,18.75-6.99,32.79-18.47,47.15-31.72,4.62-2.31,8.86-5.46,12.72-9.46,7.34-3.5,14.59-7.53,22-11Z"></path><path class="cls-29" d="M300.13,141.11c-4.26,4.72-6.83,11.84-11.5,16-6.57,5.84-16.58,6.32-23.41,10.59-4.69,2.93-7.97,9.34-13.16,12.84-11.62,7.85-23.33,15.48-34.93,23.57-40.63,25.17-87.1,44.3-130.87,61.92-17.59,3.85-34.55,8.78-50.89,14.79-2.83.76-10.01,1.49-12.24.28-.8-1.6-.89-4.46,0-6,5.76-2.09,12.85.03,18.29-1.21,3.51-.8,11.77-5.84,16.5-7.5,13.78-4.86,28.27-5.63,41.26-11.74,2.31-1.09,4.41-4.01,6.68-4.41,1.98-.35,3.69.85,5.5.6,15.92-2.13,29.08-12.24,43.08-18.93,16.33-7.8,36.02-14.66,51.18-24.82,19.62-13.14,40.44-25.76,58.51-41.49,2.93-2.55,7.76-8.93,10.61-10.39,7.91-4.06,8.98-.49,18.1-8.91,1.23-1.13,3.18-.96,1.28-3.21,1.96-.92,3.63-2.22,6-2Z"></path><path class="cls-108" d="M272.13,154.11c-2.43,5.68-7.17,7.57-11.48,11.02-5.59,4.47-20.27,18.14-25.15,20.85-7.77,4.32-23.26,11.67-31.69,15.31-5.59,2.42-12.89,3.64-17.74,6.26s-9.52,9.11-15.26,11.74c-4.98,2.28-12.13,3.19-17.67,5.33-15.19,5.86-26.9,13.63-42.84,19.16-15.06,5.23-26.68,12.97-42.74,16.26-9.28,1.9-7.82,2.06-15.75,5.25-6.14,2.47-15.15,5.94-21.69,4.81,11.03-5.16,22.02-10.69,33-16,13.66-2.7,26.89-5.66,39.91-10.59,6.18-2.34,14.47-6.2,19.71-9.25,8.43-4.92,13.09-5.53,21.39-8.66,29.62-11.16,58.14-29.85,87-43,7.6-3.46,8.85-7,14.1-11.9,2.9-2.7,8.12-4.28,8.89-8.61.3-.09.69.09,1,0,4.31-.85,7.64-2.52,10-5,2.4-1.12,4.92-2.01,7-3Z"></path><path class="cls-37" d="M279.13,119.11c-83.05,39.52-166.1,79.36-249,119-.53,2.27-2.6,3.68-6.21,4.22.91,3.79.31,6.38-1.79,7.78-.56,3.51-1.28,7.43-3.89,2.69,1.37-8.5-6.49-11.34-13.48-11.86l-1.63-1.83v-3c1.25-.91,3.25-.91,6,0,1.09.56,2.07.63,3,1,1.96.78,2.67,1.91,5.54,2.04,7.46.34,19.7-8.87,26.78-12.22,81.22-38.51,162.32-77.55,243.68-115.82,2.02-.95,4.01-2.08,6-3,1.47,2.07,1.19,2.37-.63,3.86-2.95,2.42-10.54,5.32-14.37,7.14Z"></path><path class="cls-119" d="M115.13,222.11c-28.17,13.54-60.21,31.5-88.64,42.85-1.72.69-4.63,2.24-6.36,2.15-1.13-1.54-1.17-3.6-.13-6.17-.19-4.34.72-7.02,2.13-10.83.08-2.92-.32-5.91.21-8.8,2.16-1.91,5.61-2.16,7.79-3.2,9.08,10.37,18.77,5.3,29.27.77,1.5-.65,2.5-2.28,4.03-2.97,7.04-3.16,15.31-3.49,22.03-5.97,1.71-.63,1.7-3.11,3.33-3.67,2.59-.9,7.56.25,10.78-.22,4.73-.7,10.32-6.46,15.57-3.93Z"></path><path class="cls-11" d="M3.13,239.11c3.32-.76,9.94,1.29,12.5,3,4.69,3.14,5.02,6.61,4.51,11.99l1.99-3.99c-.15,5.75.95,11.76-2,17-.94-.05-16.02-8.18-16.51-8.99-1.14-1.87-.49-15.51-.49-19.01Z"></path><path class="cls-108" d="M24.13,273.11c-.18.64-.94,1.47-1,2-.2,1.87.03,4.05,0,6,2.51,1.8,2.52,3.2,0,5-.03,2.99.03,6.01,0,9,.89.19.86.52,0,1-.28.87-.62.86-1,0,0-7.66,0-15.35,0-23.01.6-.14,1.68.2,2,0Z"></path><path class="cls-136" d="M265.13,157.11c1.25,5.08-6.78,4.07-10,5,2.82-2.57,6.65-3.43,10-5Z"></path><path class="cls-51" d="M9.13,236.11c-1.2,1.94-4.38.99-6,0,0-1,0-2,0-3,2.63-.09,4.24,2.09,6,3Z"></path><path class="cls-87" d="M23.13,297.11c2.89.78,2.49,1.55,0,3,3.17.65,2.01,3.3-1,2v-3c0-1,0-2,0-3h1c.89.19.86.52,0,1Z"></path><path class="cls-98" d="M68.13,305.11c4.24,2.45,6.05,13.69,2.96,16.44-2.21,1.96-14.3,6.73-12.95,1.09.12-.52,8.14-4.75,3.84-7.39s-4.08,3.38-5.43,5.78c-.41.72-4.08,5.17-4.65,5.41-6.18,2.63-6.64-1.39-10.23-2.2-3.81-.86-10.65,2.39-14.54,2.88-.73.7,5.01,4.21,4.84,6.3-.36,4.6-5.22,2.52-7.84,5.69,2.1,2.56-.81,5.86-3.75,6.15l-.25,1.85c.54.56,1.95.93,2.05,1.69.27,2.14-3.62,9.33-7.05,8.31-1.18-.68-2.74-.4-4.52-1.98-.66-.59-6.13-8.12-6.23-8.64-.54-2.8,2.39-7.91,2.4-8.9.01-1.05-2.92-3.14-2.65-4.94.35-1.47,6.55-2.02,4.98-4.54-.14-.23-1.99,1.55-3.43-1.04-.65-1.17-3.17-9.28-2.56-9.96,6.97,1.58,12,9.77,19.5,9.08,5.69-.53,15.37-8.03,20.59-10.53,1.1-.53,2.42-.32,2.91-.55l1.37-.13c3.18,3.67,4.06,3.05,2.63-1.87,5.89-2.78,12.31-5.28,18-8Z"></path><path class="cls-113" d="M50.13,313.11c6.92,4.84-1.24,9.95-4,2,1.33-.63,2.64-1.36,4-2Z"></path><path class="cls-22" d="M254.13,287.11c.55.19,1.76-.59,2.05.62,2.22,9.24-3.52,24.7-13.1,27.82-3.54,1.15-15.68,1.24-18.03-1.85-2.87-3.78.27-9.18,2.09-12.59,4.3,0,4.9,3.29,1.81,9.88l1.19,2.12c.94-.13,1.62.18,2,1,7.02-4.9,17.1-14.98,20-24-1.46-1.13.55-2.95,2-3Z"></path><path class="cls-25" d="M281.13,299.11c.14,6.42,4.05,14.26.09,20.34-.81,1.25-2.49.92-3.35,1.61-2.84,2.28-5.66,5.05-9.74,6.05-.32.65-.66.65-1,0l-.26-1.28c3.01-4.05,5.43-8.29,7.26-12.72.62-3.29.96-6.63,1-10,.45-1.71,1.3-6.73,2.51-6.99,1.98-.19,2.52,1.97,3.49,2.99Z"></path><path class="cls-93" d="M252.13,287.11c-3.66,5.15-7.96,10.01-12.93,14.6-2.67,4.55-5.69,8.35-9.07,11.4-.41-.28-2.75.61-3.05-.51-1.14-4.2,4.52-7.69.05-11.49.34-.64.6-1.43,1-2,1.48-2.1,2.98-3.45,5-5,3.46-1.39,6.79-3.05,10-5,2.35-.97,6.79-4.32,9-2Z"></path><path class="cls-102" d="M259.13,309.11c1.45-1.97,12.51-12.26,14-10.99-1.39,4.31-2.49,8.71-4,12.99-2.01,2.74-3.67,5.74-5,9-1.03,2.69-1.57,3.6-3,6-6.88,0-4.69-12.38-2-17Z"></path><path class="cls-12" d="M254.13,287.11c-.6,1.03-1.42,1.96-2,3,.09.5.14,1,.04,1.46-.6,2.87-15.52,20.61-18.25,22.56-.39.28-1.06.18-1.8-.02-.25-.03-1.46,1.23-1.84.78-.4-.47,0-1.68-.16-1.78,4.15-10.72,12.86-19.4,22-26,.37-.27.64-.72,1-1,.38.21.72.9,1,1Z"></path><path class="cls-34" d="M261.13,326.11c-.39.66-.04,2.34-1.5,2.98-7.14-5.49-5.12-13.71-.5-19.98-1.4,5.06-2.22,13.1,2,17Z"></path><path class="cls-52" d="M274.13,313.11c-1.63,5.57-2.57,9.84-7,14-.58,1.92-3.43,1.13-2-1,5.04-5.46,5.8-8.16,8-15,.96-.91,1.3-.24,1,2Z"></path><path class="cls-31" d="M269.13,311.11c-1.14,3.24-1.61,6.98-5,9,1.07-2.81.45-8.74,5-9Z"></path><path class="cls-116" d="M274.13,313.11l-1-2c.98-3.06,1.27-5.23,2-8,2.47,2.51-.18,7.19-1,10Z"></path><path class="cls-34" d="M267.13,327.11c.31,0,.72.07,1,0l-1,2c-1.55-.23-3.39.18-5,0,.19-1.58,2.21-2.13,3-2.99.32.96,1.12.97,2,1Z"></path><path class="cls-49" d="M185.13,358.11c2.25,1.89,5.1,4.1,8,4,.51.34,2.49,1.34,2,1.99-8.7,3.5-15.87,9.71-23.06,15.45-2.58,2.06-5.87,1.34-4.95,6.55-1.84-.1-.74-2.65-2.41-4.11-1.24-1.09-3.07-.59-3.58-.89-.53.53-1,.91-1.26.8-1.92-.83-10.04-5.65-8.74-7.8-.14-2.63,1.68-2.81,5.47-.54,2.83,2.6,5.67,3.78,8.53,3.54.7-1.47,2.48-1.61,3,0,6.8-3.54,13.21-7.85,19.25-12.94l-1.25-.06c-2.46-.08-6.71-3.35-6-6-3.76-1.64-7.09-3.64-10-6-2.44-1.4-1.68-2.54,1-2,5.12,2.55,9.19,5.24,14,8Z"></path><path class="cls-90" d="M127.13,363.11c.64-1.66,1.78-1.94,2,0,.25-.31.51-.58.82-.69.68-.23,4.69,1.39,6.55,2.16,5.03,2.08,9.8,4.73,14.53,7.37l.09,2.15c2.91,1.65,6.77,5.12,10,7-.12,5.51-5.02-.94-5.97-1.39-1.03-.49-4.14-.24-6.73-1.41-3.9-1.75-7.81-5.78-12.31-7.69-1.68-.71-7.37-3.14-8.98-1.51-.97-.54-2.12-1.32-3-2l1.01-5c.3-.36,1.4.85,1.99,1Z"></path><path class="cls-50" d="M192.13,373.11c-8.69,6.33-17.5,13.46-26,20-1.54,1.21-2.07.65-1-1-.28-.95.06-1.28,1-1,7.4-5.75,14.46-11.92,22.06-17.44.87-.63,3.36-2.58,3.94-.56Z"></path><path class="cls-38" d="M166.13,391.11c-.36.28-.63.71-1,1-2.04,2.08-4.91.4-5-2-6.42-.12-14.25-5.69-18-11-2.56,1.84-4.7-.05-4-3l1-1c9.17,5.04,18.41,10,27,16Z"></path><path class="cls-107" d="M189.13,360.11c1.26.73,2.83,1.23,4,2l-.56.95c-2.84-.84-6.04-2.17-7.44-4.95,1.14.65,2.59,1.19,4,2Z"></path><path class="cls-28" d="M304.13,87.11c-2.95-1.17-8.19,1.89-12,3l-22,9c-23.12,11.34-46.9,22.6-70.54,33.37l-2.46-.37c-6.56,3.37-11.01,4.73-17.88,3.35l-12.28,4.78c-21.81,4-40.61,10.75-57.96,24.7-23.03,4.89-40.65,16.2-59.59,29.95-6.75,4.13-32.07,19.34-38.56,17.87-1.1-.25-2.01-.78-2.73-1.66-1.93-3.08,5.49-7,8.62-7.83l2.04-1.19c5.69-9.65,14.65-15.41,25.63-17.22,5.33-4.06,10-7.55,16.84-8.86,11.19-7.49,23.95-11.93,38.29-13.3,9.65-3.03,16.12-7.08,20.36-16.47l7.86-4.86c16.32-5.11,32.77-9.19,49.35-12.25.59.1,1.36.01,2,0,8.61-.16,14.77-9.55,22-12,4.61-1.73,9.29-3.43,14.04-5.11,20.69-13.39,41.12-22.94,65.18-28.36l7.22-4.2c-.11-3.71,1.07-4.82,3.56-3.33,1.33.73,2.33,1.96,3.73,2.76,3.24,1.87,7.33,1.81,9.84,6.28.96,1.7-.48,1.7-.57,1.96Z"></path><path class="cls-9" d="M291.13,76.11c-2.61.68-.66,2.97-1.88,4.53-.52.66-7.15,4.5-8.21,4.88-10.58,3.85-24.49,6.18-34.89,11.11-10.98,5.21-22.72,14.19-34.01,18.98-4.18,1.77-7.49.31-11,1.5,12.79-12.68,28.65-21.75,40-36,5.85-2.93,27.43-8.64,19-18.54-.57-.67-2.81-3.29-3-3.46,1.76.22,3.3.82,4.88,1.61,9.67,4.82,19.64,10.19,29.12,15.39Z"></path><path class="cls-10" d="M303.13,89.11c-.81,1.67,1.08,2.59-4,2,1.07-.55,2.02-2.3,4-2Z"></path><path class="cls-139" d="M96.13,162.11c.84-.21,2.27.29,3.4-.06,4.56-1.42,13.21-5.14,15.47-9.57,3.97-7.76,1.54-15.58,1.35-23.18s12.18,2.02,9.78,6.8c2.21.67,3.08-2.56,4.47-2.68,1.11-.09,2.75,1.39,4.15,1.37,12.72-.16,26.55-7.05,37.16-7.52,2.28-.1,3.17,1.5,5.21,1.83-.67,1.76-2.16,2.2-3.76,2.74-15.64,5.32-38.84,5.09-52.13,15.87-1.87,1.52-2.99,4.67-4.71,6.29-14.13,13.29-29.48,9.08-45.08,17.92-8.65,4.9-6.29,4.45-16.38,7.62-2.99.94-6.99,6.03-10.53,7.47-2.94,1.2-5.6.79-8.16,1.84-.73.3-12.43,7.96-13.02,8.49-1.11,1.01-1.38,4.61-3.27,6.23-3.94,3.39-8.18,1.1-11.97,7.53,1.72,2.31.69,5.13-2,6-2.92-2.75-1.61-2.57-2-6,1.37-1.59,2.78-3.3,4-5l.49.98c2.59-2.29,4.41-5.27,6.51-7.98l2.51-.51c5.96-10.04,12.35-17.71,25.18-17.58,5.01-4.19,10.56-6.8,16.65-7.82,4.52-6.36,11.42-9.08,20.69-8.17l3.97-.91c.99-.07,2.01.07,3,0l6-1c1.17-.21,2.07-.77,3-1Z"></path><path class="cls-131" d="M160.13,390.11l2.74,3.23c-2.32,2.49-4.57,5.08-6.74,7.77-3.28,2.44-8.53,7.95-12,9-.15-1.27.22-2.82,0-4l-1.49-4.94c2.45-3.68,5.79-6.63,10.01-8.85l-1.53-1.21c-2.09-.16-5.84-1.81-6-4-6.7-5.49-7.7-8.15-3-8,6.09,3.34,11.95,7.53,18,11Z"></path><path class="cls-131" d="M143.13,410.11l-45-23c4.67-2.23,5.67,2.05,9.45,4.05,9.13,4.83,19.1,9.04,28.44,13.56,2.44,1.18,5.76,2.92,7.11,5.39Z"></path><path class="cls-84" d="M165.13,392.11c.35.21.62.75,1,1-3.26,2.51-6.49,5.39-10,8-1.6-.31,1.65-3.81,2-4.22,1.18-1.42,6.18-3.64.7-3.76l1.31-3.01c1.18.67,3.3.95,5,2Z"></path><path class="cls-126" d="M305.13,159.11c-.02,2-.02,4,0,6-11.88,13.71-22.97,24.49-39.63,34.81l-2.37,2.19c-35.16,16.74-70.17,33.46-105.35,50.15-7.25,3.44-36.53,19.8-41.65,19.85-28.14,11.26-56.51,22.23-85.1,32.91-4.11,1.6-4.26,5.44-3.31,9.21l-1.59,1.88c-.77.3-1.62.88-2,1-.65.21-1.4.9-2,1,0-5.32,0-10.68,0-16,.98-.28.92-1.15,1-2,.51-1.25,1.81-1.79,3.91-1.63,19.11-8.78,39.9-17.97,60.75-25.1,24-7.82,47.21-15.58,69.59-26.88,1.39-.7,3.05-.87,4.79-.89,2.13-2.44,4.74-4.13,7.6-5.58,25.56-12.91,50.93-25.72,75.93-39.31,20.25-12.6,39.59-27.32,55.02-44.39,2.02-.98,4,.61,4.4,2.78Z"></path><path class="cls-100" d="M113.13,385.11c.89-.42,2.13.38,3,1,2.91,1.29,5.85,2.52,9,3,.24-.86.58-.84,1,0,2.72,1.05,4.72,2.38,6,4,.92,1.33,2.59,1.5,4,1,5.09,1.92,8.49,1.17,10.21-2.24l2.79.24c-.85-2.16.27-2.46,2-1,1.02-.49,1.57-1.37,3.01-.99-2.12,2.76,1.23,1.66.99,2.49-4.28,4.13-12.27,5.99-11,13.51-.75-4.06-3.44-5.1-7-7-3.4-2.36-7.07-4.02-11-5-2.04-1-11.76-4.62-12-6-.4-1.22-1.84-1.21-3-1-1.35-.63-2.15-1.56-3-2-2.34-2.46-2.11-3.42.98-5,.22,2.34,2.11,3.94,4.02,5Z"></path><path class="cls-81" d="M126.13,394.11l4.13.37,6.87,4.63c-3.15-1.68-7.54-3.31-11-5Z"></path><path class="cls-130" d="M111.13,387.11l.61-.81c5.27.84,2.35,1.57,2.39,1.81-1.08-.14-2.03-.55-3-1Z"></path><path class="cls-122" d="M304.13,147.11c.05.85.04,1.73,1,2,0,.33,0,.67,0,1-.04,2,.03,4,0,6l-5,.79c-20.23,22.47-46.21,40.18-73.61,54.26-23.47,10.41-45.59,22.13-66.36,35.17l-1.21-1.04c-23.15,12.24-48.35,20.98-73.67,28.89-19.32,6.76-37.86,14.61-55.6,23.54-3.5,1.57-5.68,1.36-6.55-.63,0-.33,0-.67,0-1s0-.67,0-1c22.34-6.84,42.77-18.83,64.74-26.76,23.57-8.5,43.6-14.14,66.37-25.63,46.01-23.22,103.09-47.92,138.4-85.6,3.17-3.38,5.72-10.83,11.49-10.01Z"></path><path class="cls-75" d="M305.13,156.11c-.01,1,0,2,0,3-5.17-2.96-4.34.16-5.98,1.47-4.79,3.81-6.66,7.05-10.47,10.58-26.57,24.57-61.44,41.25-93.17,57.83-15.05,7.87-30.5,15.54-45.32,23.68-11.11,6.1-27.14,8.96-39.03,13.97-22.37,9.41-45.98,15.75-68.41,25.59-6.05,2.65-11.8,8.35-19.61,7.89.09-.98-.03-2.01,0-3,6.31,1.26,10.68-3.59,15.76-5.74,2.26-.96,4.72-1.1,6.93-2.07,16.35-7.11,34.86-17.65,51.72-20.28,6.48-1.01,36.54-13.97,44.57-17.43,3.38-1.45,14.93-8.78,17.36-8.31,1.03.2,2.08,2.19,2.64,1.82.2-.13.66-2.51,2.5-4.02s8.68-5.45,11.19-6.81c21.17-11.41,45.42-21.29,66.23-32.77,11.74-6.48,25.61-19.31,37.58-26.42l22.1-21.95,3.42,2.97Z"></path><path class="cls-73" d="M305.13,165.11c.04,5.11-.68,12.28,0,17l-42,20c.53-1.67.71-2.34,2.28-3.29,8.22-4.97,17.06-12.9,24.25-19.68,4.04-3.82,7.65-9.81,11.49-13.58,1.62-1.58,2.07-1.08,3.98-.45Z"></path><path class="cls-111" d="M145.13,387.11c2.17,1.14,4.95,1.93,6,4-.57.27-1.61.74-2,1l-2.22,1.07c-2.28-2.86-22.99-13.8-24.46-12.74-.18.13-.48.1-.82.05-.51-.07-1-.21-1.49-.37.28,2.25-.38,2.58-2,1-1.45,2.58-4.66.74-4-2,.7-1.09.76-1.97,2-3,.51-.42,2.73-1.99,3-2,.22-.45.47-.87.81-1.18,1.26-1.13,24.08,10.38,25.19,14.18Z"></path><path class="cls-27" d="M118.13,381.11l1.31,1.93c4.21,1.05,5.78,2.75,4.69,5.07-1.78,1.21-5.25-.63-7-2-1.75-.26-3.09-.92-4-2-2.49-3.39.14-3.66,1-5l4,2Z"></path><path class="cls-105" d="M117.13,386.11h-1c-1.02-.34-1.97-.43-3-1v-1l4,2Z"></path><path class="cls-74" d="M243.13,289.11l-6.09,4.41-3.91.59c3.57-2.74,6.23-3.45,10-5Z"></path><path class="cls-137" d="M155.13,343.11c-.03.6-.11,1.18-.36,1.67-.92,1.8-18.46,13.71-21.64,15.33-.51,2.75-1.85,3.75-4,3-.5-.18-1.41.15-2,0-.03-2.15,1.26-2.72,2.66-3.84,4.6-3.72,10.41-7.2,15.26-10.74,1.99-1.45,4.05-4.34,6.08-5.42.79-.42,1.49-.99,2.47-.92.87.02,1.3.87,1.53.92Z"></path><path class="cls-88" d="M197.13,132.11c.27.68.47,1.21.41,1.24-58.89,29.19-119.97,58.85-179.41,86.76-1.22.08-2.8.12-4,0-3.09-.3-5.68-.81-8-3,.1-1.98,1.02-4.34,2-6,13.33-1.34,25.89-9.47,37.34-16.16s26.71-18.9,37.94-24.06c7.65-3.51,18.97-4.57,26.41-8.59,4.78-2.58,9.44-7.48,14.63-10.37,14.81-8.22,25.25-9.35,40.73-13.27,4.3-1.09,10.49-4.69,14.7-5.39,3.34-.55,4.66,1.82,7.6,1.77,1.98-.03,7.3-2.12,9.63-2.94Z"></path><path class="cls-96" d="M138.13,376.11c1.23.64,2.76,2.32,4,3l-.96.58c-.47,3.76,4.03,4.34,5.96,6.93l-1.99.49c-3.37-1.76-24.55-13.03-26-13-.04-1.74.71-3.34,1-5,5.59.91,12.87,4.32,18,7Z"></path><path class="cls-80" d="M155.13,343.11c5.7,1.22,10.78,4.4,16,7l-1,2c-.77.44-1.77.1-3-1-3.55,1.03-7.5.28-11.85-2.26l-17.8,13.01-2.35-.76c-1.2.96-1.75.38-2-1,7.08-5.37,13.66-13.06,22-17Z"></path><path class="cls-120" d="M270.13,99.11c1.67-1.1,2.67-1.1,3,0-1.91,1.27-5,3.11-7,4-63.08,27.86-124.82,59.3-187,89-12.08,5.77-24.29,11.35-36.38,17.12-7.86,3.75-15.64,10.27-24.62,10.88l179-88c24.52-8.69,47.87-24.86,73-33Z"></path><path class="cls-97" d="M292.13,90.11c-3.18,1.44-7.16,4.72-10,6s-5.96,2.09-9,3c-.8.24-2.24-.25-3,0,3.31-3.2,10.31-6.39,14.72-7.78,2.81-.88,5.45-.69,7.28-1.22Z"></path><path class="cls-53" d="M233.13,58.11c.12.14,1.8.05,2.87,1.58,1.01,1.44,5.61,10.59,5.98,12.09.52,2.12-1.79,1.37-2.86,2.32-.46-.33-.46-.67,0-1l-2.23-.46c-.34-1.34-2.08-7.86-2.9-8.05l-50.71,42.51c-.52,3.69-.37,7.42.43,11.08l-1.59,1.92c2.02.21,1.3.86,0,2-.46.12-1.42.04-2,0-1.74-.68-2.07-1.34-1-2-2.49-.62-2.73-10.13-2.14-11.44-17.19-7.85-38.58-18.53-57.36-28.27-.87-.45-1.63-1.14-2.39-1.85s-1.46-1.57-2.12-2.43c1.88-.71,2.34-1.47,1-3l2.55-.25c17.08,8.1,34.18,16.36,51.28,24.77l3.17,3.48c1.51-.78,3.4-.54,5.65.73,18.08-14.05,35.8-28.74,53.15-44.07l1.2.34Z"></path><path class="cls-54" d="M233.13,58.11l-48.09,41.41c-5.49,4.43-6.1,3.92-11.91,1.59-3.52-3.58,4.48-5.84,5-1,.68-.5,1.15-1.3,1.39-2.4l49.4-41.35,2.21.76c-.75-1.79-.42-2.12,1-1,.72.72.75,1.7,1,2Z"></path><path class="cls-62" d="M239.13,74.11c.11.33-.15.89,0,1-10.03,6.57-18.34,15.52-27.53,22.97-3.64,2.95-7.84,5.26-11.47,8.03.26-.93.56-1.85.98-2.71,2.33-4.77,30.16-28.6,35.15-29.89.93-.24,1.9-.34,2.87-.4.1.3-.1.7,0,1Z"></path><path class="cls-8" d="M232.13,56.11l-1,1c-2.24.29-4.16-.39-4-3-2.29.4-3.93.6-4-2-2.2.58-3.99.45-4-2l2-1c5.53,3.02,5.87,1.91,11,7Z"></path><path class="cls-132" d="M179.13,120.11l1,2c-2.09-.15-4.41-1.34-6.36-2.15-22.96-9.57-46.88-24.27-69.64-34.85.47-.12.92-.54,1-1l1.71-1.39,69.07,33.6c2.09.62,2.77,1.75,3.22,3.79Z"></path><path class="cls-141" d="M200.13,106.11c-3.47,3.18-14.21,15.04-18,16-.09-.64.13-1.43,0-2l.48-2.61,13.1-11.5c1.75-1.53,3.06-2.05,4.42.11Z"></path><path class="cls-82" d="M114.13,146.11c.32-2.5-1-6.27,1-8,.09,3.28.46,5.07-1,8Z"></path><path class="cls-36" d="M84.13,164.11c-4.47,3.21-11.52,2.05-16.06,3.44-3.82,1.17-5.19,6.03-7.63,7.37-2.19,1.21-4.98.73-7.24,1.76s-8.29,5.79-9.78,6.22c-2.5.72-4.92-.17-8.02.98-.72.27-9.55,5.15-9.97,5.53-2.35,2.1-5.95,15.67-10.3,9.69,2.03-2.63,3.89-5.37,6-8l2-4c.77-1.26,1.25-2.73,2-4,3.63-2.98,8.16.5,10.01-3.99-4.19,1.48-3.65-3.52-1.49-4,3.1-.7.74,4.67,4.92,3.96,5.52-.94,5-6.22,7.56-7.47,3.47-1.69,7.58.53,10.14-.01s4.74-4.97,7.83-6.03c6.15-2.12,13.75-.98,20.04-1.46Z"></path><path class="cls-36" d="M93.13,163.11c-2.13.38-3.18.81-6,1,1.12-1.77,4.12-.86,6-1Z"></path><path class="cls-39" d="M97.13,110.11c1.61,1.13,1.31-1.95,2,3-1.43-.43-1.99-1.54-2-3Z"></path><path class="cls-58" d="M116.13,63.11c7.42-1.05,16.31,3.47,21.49,8.87,10.13,3.97,19.63,8.68,28.51,14.13,2.28-2.46,11.75,2.62,11,6,3.5-.4,4.01,6.85,1,8-2.11-.39-3.96-2.02-5,1-18.3-7.35-38.7-19.27-57-28-9.33-4.45-4.32-2.16-2-10,.62.11,1.5-.16,2,0Z"></path><path class="cls-59" d="M148.13,40.11c.5.38.5,1.05,0,2,1.17,2.78-3.33,7.84-6,6-16.57,8.26-18.79,14.22-6.66,17.88l-.34,1.12,3.42,3.36,28.48,12.55c2.21,1.6,1.79,3.76-.91,3.09-12.79-6.62-36.95-18.74-50-23,5.26-1.29,8.17-6.23,11.99-9.51,6.17-5.31,12.73-10.31,19.01-15.49,2.55-.09,2.59-.05,1,2Z"></path><path class="cls-35" d="M187.13,36.11c2.24,2.15.46,2.69-2,2-6.84-2.85-13.96-5.51-21.37-7.95-5.44,3.36-10.65,6.67-15.63,9.95-.04-.29-1.1-1.24-1-2,3.11-2.56,13.53-12.94,16.5-12.93,3.78.02,19.06,8.98,23.5,10.93Z"></path><path class="cls-70" d="M219.13,50.11c1.32.63,2.67,1.35,4,2,.16,3.41-5.52,5.01-8,3-.6-.39-.94-1.39-1-3-1.82,2.04-2.39,1.72-2-1l-11-5c-5.53-2.47-10.87-5.14-16-8l2-2c10.67,4.69,21.42,8.94,32,14Z"></path><path class="cls-66" d="M84.13,106.11c.76-.39,2.07-2.21,3.01-.49-1.8,5.39-2.7,11-4.01,16.49-4.81,12.58-9.39,2.26-8.41-5.93l-1.59-.07-2-1c2.21-3.08,5.88-6.86,9-9l2,1c.15,1.54.82,1.21,2-1Z"></path><path class="cls-1" d="M73.13,116.11c.07-.99,2.81-3.57,3.99-4-1.97,6.47-2.01,20.9,6.01,10-.83,3.46-1.06,11.43-5.8,8.78-.27-.15-2.84-4.78-3-5.48-.2-.91-1.23-8.83-1.2-9.3Z"></path><path class="cls-41" d="M82.13,107.11c.41-.37,1.4-.69,2-1,2.33,1.78-2.75,14.82-3.51,14.99-4.82,1.08-2.32-10.55,1.51-13.99Z"></path><path class="cls-121" d="M21.13,191.11c-.85-2.58,1.52-3.21,2-4,.7,2.7-1.15,2.94-2,4Z"></path><path class="cls-33" d="M115.13,76.11c21.53,9.71,41.97,22.09,63.84,31.14l.16,12.86-74-36c.71-4.18,1.75-7.05,3.01-11,2.1,1.54,4.74,1.98,6.99,3Z"></path><path class="cls-42" d="M24.13,339.11c2.75-.08,2.8,2.88,3,3,2.12.03,2.08,1.58,0,2-2.26,1.07-3.94,3.49-7,3-1.22-1.28-3.38-1.78-3-3.99,5.7,1.06,4.53-1.03,7-4.01Z"></path><path class="cls-78" d="M45.63,329.13c.35,0,4.68,3.69,5.48,4.48-5.42,7.63-8.47-4.54-5.48-4.48Z"></path><path class="cls-133" d="M191.12,270.12c1.01,1.06-1,6.5-3.48,5.99-3.82-.79,1.3-8.27,3.48-5.99Z"></path><path class="cls-98" d="M27.13,342.11c.63.36,2.7-.67,3.01.51.69,2.61-1.92.98-3.01,1.49v-2Z"></path><path class="cls-140" d="M116.13,272.11c-.63,1.86-2.26,2.05-3.75,2.75-28.36,13.47-57.18,29.8-86.25,41.25-3.95-14.25,6.23-12.73,15.51-16.99,20.7-9.5,36.58-14.11,57.49-21.51,7.68-2.72,8.52-5.42,17-5.5Z"></path><path class="cls-87" d="M217.13,204.11c-49.95,34.86-112.8,54.84-169.5,77.09-9.91-4.07-14.52,6.99-24.5,4.91.01-1.67-.03-3.33,0-5,4.33-2.47,8.71-1.43,13.06-2.44,4.16-.96,8.67-4.07,12.71-5.29,12.19-3.7,25.46-4.78,37.26-7.74,8.7-2.18,26.45-11.95,35.98-16.02,27.59-11.79,55.37-24.14,82.05-37.95,4.36-2.26,7.07-7.84,12.94-7.56Z"></path><path class="cls-23" d="M252.13,290.11c1.96.57.05,3.06-.47,4.03-3.83,7.13-9.71,12.22-15.09,17.95-.83.88-1.38,2.84-1.55,2.95-1.16.78-2.49-.88-2.89-.93,7.74-8.41,14.33-13.83,20-24Z"></path><path class="cls-79" d="M167.13,351.11l13,7c2.21,1.62,5.78,3.37,6,6-4.6,5.3-11.58,10.07-18,13-.88.12-2.08.05-3,0-2.94.87-6.48-1.67-8-4l1.26-1.78c5.89,3.27,15.17.05,18.48-5.47.63-1.05-18.24-10.93-21.1-11.32-4.86,3.13-9.31,6.73-13.64,10.57-1.67,2.04-5.05.58-5-2-1.69-.16-3.33-.49-2-2l19.91-14.56c3.87,1.77,8.23,3.01,12.09,4.56Z"></path><path class="cls-114" d="M133.13,360.11c1.07,1.57,2.41,2.57,4,3,1.36.48,3.77,1.41,5,2,4.52-1.37,13.14,3.65,15,8,2.4,1.19,4.8,3.86,8,4-.12,0-.7,1.08-2.2.86-3.93-.6-7.42-6.83-11.8-3.86-5.25-2.98-16.66-9.09-22-11,.74-2.12,3.06-2.29,4-3Z"></path><path class="cls-68" d="M168.13,377.11c5.68-4.73,11.95-8.77,18-13,1.44-1.01.44-3.55,2.98-.5-.08,1.15-16.51,12.98-18.33,13.8-2.18.98-2.52-.31-2.65-.3Z"></path><path class="cls-138" d="M170.13,352.11c4.17,1.78,6.56,3.49,10,6-4.32-1.58-9.9-3.53-13-7,.9.36,1.92.54,3,1Z"></path><path class="cls-44" d="M120.13,380.11c.36-.39.81-.73,1.36-.76,1.39-.08,24.42,11.09,24.94,12.38,2.83,7-18.45-.24-20.3-2.63-.33-.04-.68.06-1,0-1.13.5-1.58.13-1-1-1.32-3.12-9.43-2.29-6-7,.74-1.02,1.62-.74,2-1Z"></path><path class="cls-91" d="M149.13,392.11c-1.62,1.06-3.98,4.5-6.48,4.61-1.97.09-4.64-1.97-6.52-2.61-1.32.57-3.16.34-4-1-2.02-.86-5.05-2.14-6-4,5.76.63,14.62,7.75,19,3.01l-25-12.01c1.19-.83.62-2.72,4.02-1.6l24.98,13.6Z"></path><path class="cls-83" d="M124.13,388.11c.3.13.62.78,1,1-.1-.02-.44.89-1.96.63-2.22-.39-5.34-2.03-7.04-3.63.3.1.7-.1,1,0,1.99.71,4.76,1.06,7,2Z"></path><path class="cls-101" d="M136.13,394.11c-.95,2.06-3.43.04-5-.01l1-.99c1.15.49,2.75.58,4,1Z"></path><path class="cls-19" d="M135.13,361.11c.51.42.84,1.82,2,2-.26-.09-2.96.83-5-1.02l1-1.98c1.89-.5,1.57.65,2,1Z"></path><path class="cls-124" d="M239.13,73.11c-13.97,9.75-26.48,21.5-39,33-.27.21-1.54.22-2.51.94-5.12,3.83-9.65,9.9-15.49,13.06-1.06-4.53-1.76-9.29-.5-14l50-42c4.69-5.26,6.23,5.25,7.49,8.99Z"></path><path class="cls-72" d="M227.13,54.11c1.48.77,3.32.56,4,3l-52.04,43.57c-.7.55-.88-.55-.96-.57-.04-1.66-.34-6.95-1-8l-.54-2.12c12.15-9.32,24.05-19.1,35.68-29.33,4.64-4.41,9.59-6.6,14.86-6.55Z"></path><path class="cls-109" d="M227.13,54.11c-8.82,3.67-16.87,10.19-23.53,16.97l-26.47,21.03c-.33-.53-9.43-5.19-11-6,2.21-.77-1.48-2.27-1.97-2.53-8.32-4.36-18.23-8.05-26.76-11.74l-2.27-4.73.58-.89,40.39,17.72c5.13-2.02,9.8-4.63,14.03-7.83,7.64-7.99,15.98-14.99,25-21,2.37-1.62,5.82-1.18,8-3,1.36.67,2.65,1.3,4,2Z"></path><path class="cls-92" d="M201.13,46.11l11,5c.67.47,1.89.9,2,1,1.48,2.98-2.63,5.7-5,6l-2.26.26c-12.94-7.65-26.39-15.21-40.95-19.92l-12.48,8.79c-6.09,7.43-13.19,12.72-21.31,15.88-.99,1.47-4.63-.77-4.93-2.7s12.33-12.66,14.93-12.3c2.23-1.91,4.32-4.64,6-6,2.77-3.4,12.01-11.64,16.4-12.01,12.36,4.63,24.56,9.96,36.6,16.01Z"></path><path class="cls-47" d="M142.13,48.11c-2.42,2.07-12.75,9.4-13.55,11-1.46,2.91,2.2,3.24,3.55,4l4.6.21,38.66,17.74c1.91.74,9.45-5.07,11.21-6.5l2.53.56c1.43-1.05,1.95-.59,1,1-.45.34-.93,1.65-2.02,2.44-2.21,1.61-10.03,6.57-12.23,6.38l-40.75-17.82c-1.77-2.63-9.98-3.3-8.88-7.32.46-1.69,9.81-9.76,11.85-11.21,1.16-.82,2.92-2.88,4.03-.48Z"></path><path class="cls-76" d="M185.13,38.11c6.08,2.8,10.14,4.65,16,8-4.93-2.02-10.02-4.44-15.02-6.48-3.38-1.38-19.66-8.62-21.5-8.6-2.54.03-13.71,8.83-16.48,11.08-1.33-.1.04-1.7,0-2,3.73-2.29,11.55-10.62,15.56-11.01,2.49-.25,17.92,7.39,21.44,9.01Z"></path><path class="cls-89" d="M215.13,55.11c-7.55,5.16-16.84,14.86-25,21l-1-1,.95-3.28,15.64-13.34,3.41-.38c1.67-1.51,4.84-1.88,5-6,1.06,1.03,1.26,1.46,1,3Z"></path><path class="cls-56" d="M212.13,51.11c-4.21-.04-7.58-3.04-11-5,4.37,1.79,6.52,1.85,11,5Z"></path><path class="cls-57" d="M157.13,373.11c-5.1-2.52-10.32-5.76-15-8l-1-1.5c.8-1.6,13.16-11.04,14.67-11.3s24.31,11.55,24.31,13.29c-3.94,3.65-8.46,7.65-13.57,9.5l-9.41-2Z"></path><path class="cls-43" d="M209.13,58.11c-6.1,5.52-13.53,12.02-20,17-3.27,2.51-10.3,8.53-14.25,7.84-13.74-6.75-29.47-12.42-42.75-19.84,1.87-3.96,6.26-4.56,8.89-6.61,3.51-2.75,7.74-8.04,11.16-10.81,2.08-1.68,11.91-9.05,13.62-9.32,1.13-.18,18.66,7.15,21.22,8.36s4.72,3.49,7.21,4.79c4.79,2.5,11.78,3.54,14.9,8.6Z"></path><path class="cls-94" d="M206.13,58.1c-8.1.96-24.62,21.67-30.45,21.89l-38.54-16.89c9.06-8.44,18.21-16.93,28.64-23.74,3.39.15,41.72,16.97,40.36,18.74Z"></path></g></svg> 