<?xml version="1.0" encoding="UTF-8"?> <svg xmlns="http://www.w3.org/2000/svg" id="Laag_2" viewBox="0 0 399.67 447.73"><defs><style>.cls-1{fill:#e8dda2;}.cls-2{fill:#a66a12;}.cls-3{fill:#bbb3a0;}.cls-4{fill:#b37a1d;}.cls-5{fill:#b6a892;}.cls-6{fill:#dfd1a7;}.cls-7{fill:#c3baa7;}.cls-8{fill:#35190f;}.cls-9{fill:#b47d22;}.cls-10{fill:#b97f20;}.cls-11{fill:#ab721d;}.cls-12{fill:#72451d;}.cls-13{fill:#918481;}.cls-14{fill:#200202;}.cls-15{fill:#ede7c3;}.cls-16{fill:#e7d6a0;}.cls-17{fill:#856b62;}.cls-18{fill:#b2a491;}.cls-19{fill:#6d5044;}.cls-20{fill:#e3cc89;}.cls-21{fill:#b4761a;}.cls-22{fill:#5c483b;}.cls-23{fill:#b48220;}.cls-24{fill:#c0a13c;}.cls-25{fill:#d9c890;}.cls-26{fill:#a28a7f;}.cls-27{fill:#91683d;}.cls-28{fill:#b2a371;}.cls-29{fill:#beb27f;}.cls-30{fill:#f6edac;}.cls-31{fill:#c88a49;}.cls-32{fill:#bf8e30;}.cls-33{fill:#ae7519;}.cls-34{fill:#452d24;}.cls-35{fill:#f8f0b1;}.cls-36{fill:#b4a794;}.cls-37{fill:#be7525;}.cls-38{fill:#c9c0ac;}.cls-39{fill:#ddb855;}.cls-40{fill:#bf8820;}.cls-41{fill:#452f26;}.cls-42{fill:#e7cb96;}.cls-43{fill:#f5f4d0;}.cls-44{fill:#645451;}.cls-45{fill:#48180c;}.cls-46{fill:#dcc88a;}.cls-47{fill:#674941;}.cls-48{fill:#a96d12;}.cls-49{fill:#dddcd7;}.cls-50{fill:#fdfeed;}.cls-51{fill:#c58c31;}.cls-52{fill:#ddc77b;}.cls-53{fill:#cb9d56;}.cls-54{fill:#190302;}.cls-55{fill:#a17118;}.cls-56{fill:#b87017;}.cls-57{fill:#cdae6d;}.cls-58{fill:#c1b5a0;}.cls-59{fill:#b27319;}.cls-60{fill:#b57d1d;}.cls-61{fill:#b87715;}.cls-62{fill:#ac9f68;}.cls-63{fill:#d6be7a;}.cls-64{fill:#876a5c;}.cls-65{fill:#b88124;}.cls-66{fill:#f7eddc;}.cls-67{fill:#ae9c72;}.cls-68{fill:#c98b30;}.cls-69{fill:#b57918;}.cls-70{fill:#baad75;}.cls-71{fill:#e7be67;}.cls-72{fill:#bfb29e;}.cls-73{fill:#be8f2b;}.cls-74{fill:#b68a21;}.cls-75{fill:#d5bd81;}.cls-76{fill:#b26e26;}.cls-77{fill:#fdfbeb;}.cls-78{fill:#d2ab63;}.cls-79{fill:#c9beac;}.cls-80{fill:#aa8f7a;}.cls-81{fill:#c7c0aa;}.cls-82{fill:#290402;}.cls-83{fill:#361c17;}.cls-84{fill:#d7b065;}.cls-85{fill:#d4bf7d;}.cls-86{fill:#250f09;}.cls-87{fill:#ae7821;}.cls-88{fill:#ba8b2b;}.cls-89{fill:#fcfdec;}.cls-90{fill:#cbc0ae;}.cls-91{fill:#b38426;}.cls-92{fill:#c8ba8f;}.cls-93{fill:#e4d8b9;}.cls-94{fill:#b77e21;}.cls-95{fill:#c0b29b;}.cls-96{fill:#d1c591;}.cls-97{fill:#a2884a;}.cls-98{fill:#3e221c;}.cls-99{fill:#dac38a;}.cls-100{fill:#faf2cf;}.cls-101{fill:#fdfce1;}.cls-102{fill:#d5c087;}.cls-103{fill:#cc9d4a;}.cls-104{fill:#e6dcaf;}.cls-105{fill:#d2b377;}.cls-106{fill:#d39a39;}.cls-107{fill:#cfb55f;}.cls-108{fill:#3e211d;}.cls-109{fill:#c18f2d;}.cls-110{fill:#c28c2d;}.cls-111{fill:#a35719;}.cls-112{fill:#c8c0af;}.cls-113{fill:#e8e3b3;}.cls-114{fill:#b28224;}.cls-115{fill:#c68630;}.cls-116{fill:#230503;}.cls-117{fill:#b17618;}.cls-118{fill:#ab691b;}.cls-119{fill:#eee7cf;}.cls-120{fill:#c49f51;}.cls-121{fill:#d6ac48;}.cls-122{fill:#442e26;}.cls-123{fill:#d2c097;}.cls-124{fill:#8f3f06;}.cls-125{fill:#cd9f4b;}.cls-126{fill:#cec9b8;}.cls-127{fill:#f3f2ca;}.cls-128{fill:#cba96e;}.cls-129{fill:#f4e48c;}.cls-130{fill:#d9aa46;}.cls-131{fill:#f1ecd6;}.cls-132{fill:#b2731c;}.cls-133{fill:#bf842a;}.cls-134{fill:#cac4b4;}.cls-135{fill:#c7c2b4;}.cls-136{fill:#bb8128;}.cls-137{fill:#b8a993;}.cls-138{fill:#a65c1e;}.cls-139{fill:#d6a341;}.cls-140{fill:#fcfcf5;}.cls-141{fill:#e4d5a1;}.cls-142{fill:#c38c28;}.cls-143{fill:#c1883a;}.cls-144{fill:#c38939;}.cls-145{fill:#f9f4b7;}.cls-146{fill:#fcfaee;}.cls-147{fill:#cac0af;}.cls-148{fill:#3e2214;}.cls-149{fill:#bcad79;}.cls-150{fill:#c1a064;}.cls-151{fill:#ac7111;}.cls-152{fill:#deb854;}.cls-153{fill:#ae6107;}.cls-154{fill:#d1c9ba;}.cls-155{fill:#160302;}.cls-156{fill:#dbb04c;}.cls-157{fill:#d6a443;}.cls-158{fill:#53382e;}.cls-159{fill:#240302;}.cls-160{fill:#b9842a;}.cls-161{fill:#9d5c0b;}.cls-162{fill:#b19a6c;}.cls-163{fill:#af7f1e;}.cls-164{fill:#6d4f43;}.cls-165{fill:#b37a1a;}.cls-166{fill:#bdb287;}.cls-167{fill:#ab741e;}.cls-168{fill:#f0f2ca;}.cls-169{fill:#d1cccc;}.cls-170{fill:#b2791f;}.cls-171{fill:#483029;}.cls-172{fill:#f0edbe;}.cls-173{fill:#eed878;}.cls-174{fill:#742;}.cls-175{fill:#f8f3d7;}.cls-176{fill:#907460;}.cls-177{fill:#cdb57a;}.cls-178{fill:#fdfefa;}.cls-179{fill:#bd8a2c;}.cls-180{fill:#c49f5f;}.cls-181{fill:#f2e09e;}.cls-182{fill:#aa611f;}.cls-183{fill:#2d1009;}.cls-184{fill:#c8b579;}.cls-185{fill:#9f8573;}.cls-186{fill:#d09d49;}.cls-187{fill:#a24d0a;}.cls-188{fill:#ac7415;}.cls-189{fill:#c29239;}.cls-190{fill:#dbbe79;}.cls-191{fill:#ae6916;}.cls-192{fill:#f9f2d3;}.cls-193{fill:#64463b;}.cls-194{fill:#2e1914;}.cls-195{fill:#f3f4cc;}.cls-196{fill:#af7919;}.cls-197{fill:#ddca8f;}.cls-198{fill:#f6e7a3;}.cls-199{fill:#35190b;}.cls-200{fill:#aa7414;}.cls-201{fill:#ceba89;}.cls-202{fill:#5a423c;}.cls-203{fill:#ad7719;}.cls-204{fill:#aa801e;}.cls-205{fill:#b26d12;}.cls-206{fill:#62544f;}.cls-207{fill:#b38220;}.cls-208{fill:#ce973b;}.cls-209{fill:#3d1205;}.cls-210{fill:#d9af4f;}.cls-211{fill:#b68322;}.cls-212{fill:#efdb7c;}.cls-213{fill:#e5dcb2;}.cls-214{fill:#b98322;}</style></defs><g id="Laag_1-2"><path class="cls-54" d="M342.67,246.27c-1.78,5.86-3.51,10.95-8.64,14.58l-2.36-.58c-.94,4.64-7.47,7.46-12,7,.76,2.88-2.13,4.19-4,2-5.51,6.95-15.25,13.64-24,15-.59,2.88-4.03,4.6-6,2-6.33,2.87-7.63-.82-3-5l.41-2.6c3.37-3.24,11.09-8.57,15.59-8.4l.17-2.18c12.5-5.57,23.77-12.66,33.83-21.27,2.66-7.81,3.36-16.22,2.09-25.22l1.92-1.33-.94-2.13c-2.7-.73-5.79-3.35-3.06-5.87l-.68-2.28c3.26-11.21,4.16-23.09,2.68-35.65l2-1.06-.99-1.7c3.42.62-8.64.02-3.01-5.3-.32-1.02.47-2.45,2.38-4.29.11-3.11.65-5.68,1.62-7.71-.58-.22-1.08-.49-1.29-.9-.58-1.13-.79-22.99-.45-25.35l1.74-1.75c-2.59,1.06-5.13-1.72-3-4l-1.37-1.69c2.1-3.74,1.22-7.84-2.63-12.31-2.26,1.86-6.99-1.39-7-4-24.81-8.23-49.22-19.18-72-32-.88-.18-1.22.14-1,1,2.44.24,6.46,2.08,5,5,6.47,2.77,11.53,15.09,8,21,2.74,3.28,4,11.96,0,14,1.83,4.05-.35,12.12-5,14,.44.94.92,2.02.63,3.04-3.11,10.67-30.66,29.02-42.63,27.96-1.05.35-2.38.68-4,1-.4,2.08-2.59,2.07-3,0-.39.57-.81,1.08-1.34,1.39-2.27,1.33-27.82.63-32.47.14-13.29-1.39-30.66-5.99-38.18-17.54-2.42.55-4.56-.68-6.43-3.69l-3.57-6.31c-3.51-.98-6.4-8.55-7.66-12.31-2.03-3.66-2.14-6.55-.34-8.69-.74-3.82-.88-7.71-.41-11.68-.74-.42-1.32-.85-1.33-1.29-.22-14.22,9.98-26.32,20.99-33.8,3.33-7.35,7.42-14.24,12.26-20.66l3.48-.57c.59-5.13-9.98-3.92-12.39-.15-3.4,5.56-6.8,10.97-10.21,16.21l-1.4-.07c-2.09,8.95-7.05,16.99-14,23-.18,4.97-2.05,11.03-7,13l-3.28,8.16c-33.38,55.64-64.84,110.92-94.39,165.84l-2.33,1c1.88,3.93,1.88,6.59,0,8,.48,1.63.3,4.9-1.53,5.22l-.47,5.78,1.85,1.82.02,19.36-1.87,1.81c.53,3.31,1.85,6.61,4.33,8.95l-.33,2.05c4.54,3.06,1.74,5.78-3,5l1.18.63c-.63,11.73-.51,23.54.36,35.44l-1.54,1.93c2.73,1.5,4.39,3.17,5,5,2.8,3.3-1.86,4.39-5,4,.76.25.74.59,0,1,.46,8.51.75,17.05.88,25.64l-1.88,1.36c1.77,1.04,4.52,5.02,3,7,2.37,2.78,5.17,6.5,0,7-.37-.28-1.64-.23-2.5-.97-3.82-3.29-5.93-6.35-6.51-11.53-.83-7.37-.44-20.36-.03-28.03.72-13.34-.87-27.93,0-42.01.51-8.17,1.17-6.41-.02-14.91s-.71-43.23,1.54-50.57c1.14-3.73,5.31-10.82,7.35-14.65C48.4,182.23,94.4,110.76,135.22,38.33c4.98-5.1,11.82-5.91,18.7-4.82s11,7.77,16.57.09c3.63-5.01,4.03-13.8,3.11-19.77-1-6.5-9.06-15.73,5.5-13.5,8.68,1.33,29.56,17.12,36.57,23.42,11.51,10.34,20.62,22.78,25.42,37.58,27.46,11.62,55.51,22.54,82.24,35.76,11.49,5.68,18.24,8.48,19.36,22.64,1.23,15.55-1.1,31.61-1.07,46.99.05,26.15,2.05,53.3,1.04,79.55Z"></path><path class="cls-155" d="M327.67,330.27c-.1.71.25,1.03,1,1,10.72-4.46,50.34-21.84,55.45-30.05,1.67-2.68,1.81-4.82,1.54-7.95-2.81-.99-2.1,2.66-3.5,2.99-4.89,1.16-5.65-12.83,6.94-10.94,5.7.86,8.17,4.82,9.56,9.94.57,2.98.62,6.01,0,9-.24.82-.7,2.35-1,3-1.94,12.03-16.35,21.58-26.7,27.24-32.36,17.71-65.74,34.59-99.29,50.54-1.36.65-2.86,1.04-4.37,1.41s-3.08.61-4.65.81l-1.12,2.75-16.92,7.77-2.96-.52c-1.2-.26-2.32.49-3,2,.36,3.11-1.11,4.24-4,3-4.24-.02-4.32-4.64-.11-6.25l1.98-2.74c2.95-1.4,4.33-3.41,4.13-6.01l2.86-3.88c34.21-28.45,68.53-55.79,102.97-82.01l1.17.89c1.35-1.34,2.88-2.76,4.6-4.25,5.66-6.31,13.57-18.3,9.57-26.76l.83-1.99c-2.8-2.53-4.14-3.2-4-2,3.88,3.32,4.55,5.99,2,8,.73,2.12.11,4.14-1,6,1.74,1.17,1.15,2.11-1,2l-4,5c-13.32,17.34-31.86,30.36-50,42-6.47,6.24-14.14,11.63-22,16,.73,4-2.37,3.7-5,3-20.9,17.46-42.23,34.46-64,51-6.17,5.51-12.91,10.82-20,15-5.38,5.06-11.05,10.06-17,15-2.43,2.38-4.76,4.72-7,7-1.61,3.67-6.13,1.51-4-2,4.97-8.49,13.59-13.23,20.72-19.78,1.08-.99,2.78-1.08,2.27-3.22-13.11,2.3-45.24,16.15-55.56,4.06-3.65-4.27-3.21-10.64,3.13-11.04,2.41-.15,4.62,1.61,7.02,1.89,19.8,2.32,72.2-26.21,91.74-36.1,30.25-15.3,68.53-43.94,95.16-65.84,5.81-4.78,26.6-22.6,26.5-29.5-.11-7.76-12.31.56-15.07-2.89-3.64-4.56,4.65-11.48,8.82-12.35,9.21-1.92,18.21,3.78,19.22,13.38,2.04,19.6-27.56,45.55-41.94,56.39Z"></path><path class="cls-14" d="M282.67,281.27l-1,5h4c.56,3.22-6.31,7.98-9,6-4.89-1.67-9.69.35-14.41,6.05l-8.41,3.62c.54,1.46.21,2.38-1.18,3.33-1.57,4.27-5.54,6.68-10,6-2.76-1.09-4.1-.42-4,2-.68,3.96-7.12,8.27-11,7-3.35,4.49-7.91,7.54-13.05,9.68-9.95,7.69-20.6,13.46-31.95,17.32.35,3.11-2.82,3.94-5,2-.64,1.41-1.33,2.93-2.61,3.89-6.79,5.1-16.49,11.79-24.39,13.11-10.25,9.53-23.62,16.91-37,21-.23,1.82-.69,2.43-2,1-.5.88-1.03,1.74-1.67,2.5s-1.25,1.47-2.02,1.95c-16.68,10.27-33.67,20.13-50.69,29.8-1.81.67-3.69.92-5.62.75-1.8,4.3-5.46,5.46-10,4-.61.1-1.35-.06-2,0-3.54.82-7.2.82-11,0-8.63-1.64-12.2-3.89-19-9,1.61-2.21.77-4.61,0-7l2.26-.65c5.33,3.73,11.12,6.47,17.38,8.22l.36,1.43c8.72.2,18.09-5.19,26.32-9.95,70.44-41.6,141.95-82.76,214.53-123.5l12.16-5.55Z"></path><path class="cls-58" d="M291.67,284.27c2.4.81,5.32.37,8.76-1.31,4.68-1.34,7.43-.57,8.24,2.31-25.83,17.7-48.36,29.37-75,45-7.55,2.72-8.63-5.01-6-10,3.68-2.15,7.47-4.94,11-7-.3-2.46,2.42-3.9,4-2,3.33-1.95,6.67-4.06,10-6,.26-.74.56-1.45.97-2.1,1.04-1.62,15.42-9.36,18.66-10.73,1.37-.58,2.93-.37,4.36-.18,2.98-1.74,6.31-4.43,9-6,1.33-.78,4.68-1.22,6-2Z"></path><path class="cls-147" d="M262.67,396.27c-1.29-2.47-2.01-6.86,0-9,33.71-16.74,70.04-33.42,102.67-51.83,11.66-6.58,26.51-15.66,32.33-28.17,1.98.92.37,3.18,0,4.5-6.72,24.87-23.81,24.64-44.37,34.64-31.58,15.37-60.07,33.1-90.64,49.86Z"></path><path class="cls-72" d="M111.67,388.27c2.09,2.02,2.74,5.32,1.97,9.89.79,2.71.47,4.74-.97,6.11-1.01.33-1.75.85-3,1-3.4,1.6-7.19,2.3-11.36,2.09-.15,2.19-.69,3.83-1.64,4.91-6.67,3.59-13.06,7.54-20,11-4.28,1.02-8.58,1.68-13.01,1.65.6,5.18-3.18,6.24-6.96,3.31-4.79.6-11.04-.49-5.03-4.96,19.29-10.15,40.58-23.83,60-35Z"></path><path class="cls-116" d="M240.67,387.27c2.33,4.59,8.54-4.5,11.01-5.52,1.16-.48,1.79.53,1.99,1.5l-20.56,15.01,1.56,4.01c.14,3.72-7.4,10.29-11,9-7.55,9.17-17.86,16.87-29,21l-1.44,3.31c-4.39,2.8-8.91,5.37-13.56,7.69-4.18,1.17-15.89,10.34-16.68-1.63-.25-3.73,1.51-4.38,2.68-6.37.52,1.84,2.26,2.17,4,2,.28.89-.06,2.22-1,4,3.05-1.22,18.18-11.27,18.56-12.78.22-.86.11-1.6-.55-2.33,8.62-9.85,20.96-19.18,32.74-24.9,3.06-3.08,6.14-5.07,9.25-5.99,3.21.91,4.71-1.61,6-4-1.2-2.88,3.7-5.86,6-4Z"></path><path class="cls-3" d="M150.67,366.27c3.08.11,8.49,1.71,9,5,3,2.17,2.67,5.69,0,8-7.87,5.25-9.04,2.69-14.95,5.55-4.72,2.28-12.77,8.37-18.05,11.45l-2.22-.41c-.69-3.77-3.3-5.42-7.83-4.92-3.3,1.06-5.43-1.05-2.96-3.67,12.25-7.05,24.86-13.96,37-21Z"></path><path class="cls-95" d="M262.67,396.27c-1.74.96-4.52,3.93-7,5-4.18,1.73-7.51,4.06-10,7-5.33,3.28-10.68,6.68-16,10-4.39,1.98-10.46-2.98-6-7,3.75-2.67,7.62-6.6,11-9,1.37-.97,2.63-2.04,4-3,.39-1.28,1.64-2.32,3-2,7.2-4.66,13.76-6.4,21-10,.93,3,1.79,6.15,0,9Z"></path><path class="cls-5" d="M227.67,320.27c2.78,4.95-2.2,10.15,5.31,9.19l.69.81c-1.65.97-3.38,1.99-5,3-2.14-1.73-13.77-.09-14.25.64.48,4.76-.44,8.21-2.75,10.36-4.63,3.97-9.7,5.92-15.21,5.85-.98,2.46-2.82,2.53-5.53.2-6.18,1.5-8.93.48-8.26-3.05,14.88-8.62,29.95-18.21,45-27Z"></path><path class="cls-90" d="M229.67,418.27c-9.02,5.62-25.84,18.8-34,22-4.65.42-4.15-5.6-1-8,9.73-6.85,19.29-14.08,29-21-.36,5.45,2.24,4.44,6,7Z"></path><path class="cls-7" d="M211.67,344.27c.56.3.55.63,0,1-6.29,4.04-28.07,19.07-34,20-5.19-1.01-3.25-12.74,0-16,1.67-.97,3.87-1.35,5-2,3.39,4.64,8.74-2.63,11.99,4-1.19-5.28,4.55-1.97,8.06-3.45l8.95-3.55Z"></path><path class="cls-79" d="M76.67,423.27c-5.53,2.75-23.81,13.11-28.59,12.95-2.15-.07-3.21-3.17-3.96-4.96-.83-1.99,2.31-2.55-2.45-3.99,1.6-.27,8.3-3.11,10-4-3.36,4.84,2.74,2.4,5.48,3.02,1.81.41,2.36,1.84,4.01,1.99,1.23.04.06-4.59.5-5.01.65-.62,12.94-.86,15.01,0Z"></path><path class="cls-36" d="M315.67,269.27c1.86,2.53,1.64,9.74-1,12-1.98,1.37-4.12,2.71-6,4-6.47-2.3-11.52,1.1-17.49,3.01l.49-4.01c7.91-4.65,16.04-10.14,24-15Z"></path><path class="cls-38" d="M113.67,387.27c-.52,3.43,1.51,1.53,3.17,1.69,6.8.63,7.79.44,9.83,7.31-4.5,2.62-8.91,6.35-14,8-1.73-5.14-.79-10.66-1-16,.71-.41,1.43-.67,2-1Z"></path><path class="cls-134" d="M177.67,365.27c.01,4.85-13.8,11.19-18,14,.07-2.66-.11-5.34,0-8-3.43-2.78-2.78-6,1-8.18.78-.45,16.92-.32,17,2.18Z"></path><path class="cls-126" d="M211.67,344.27l1.01-14c4.94,3.85,14.29-4.03,15.99,3-5.87,3.69-11.39,8.4-17,12v-1Z"></path><path class="cls-112" d="M331.67,268.27c-1.1,5.87-12.53,9.89-17,13,.28-3.96-.88-8.36,1-12,1.26-.77,2.74-1.23,4-2l10.38-.78,1.62,1.78Z"></path><path class="cls-81" d="M331.67,268.27c-3.03-1.86-2.51-5.71,0-8,.6-.45,4.81-4.45,5.4-5.11,2.39-2.7,3.91-5.78,5.6-8.89-.14,3.63-1.74,6.78-1.79,8.68s3.07,3.72,2.33,5.34c-1.02,2.26-9.07,7.52-11.54,7.98Z"></path><path class="cls-49" d="M194.67,432.27c-.69,2.4-.71,5.97,1,8-5.79,2.27-10.78,1.54-16,3,3.65-5.03,10.33-7.71,15-11Z"></path><path class="cls-135" d="M109.67,405.27c-2.89,3.89-9.09,4.9-13,7-4.04-10.49,6.56-6.21,13-7Z"></path><path class="cls-154" d="M255.67,401.27c-1.96,4.29-6.72,4.98-10,7-.55-6.74,5.3-4.98,10-7Z"></path><path class="cls-79" d="M39.67,427.27c-3.08,2.5-7.69.63-11,0,3.59-.23,7.46.33,11,0Z"></path><path class="cls-147" d="M398.67,304.27v-9c1.26,4.6,1.4,4.3,0,9Z"></path><path class="cls-169" d="M328.67,331.27c-1.15.48-2.51,2.86-4.99,1.99-1.03-.47,3.07-2.3,3.99-2.99l1,1Z"></path><path class="cls-145" d="M114.67,97.27c1.35-.02,2.55.24,3.6.8-.44,4.82-.3,9.55.4,14.2,1.59,9.06,5,13.19,8,21,2.53,5.31,5.59,10.23,9.16,14.74l-.16,2.26,2.7.52c24.4,16.7,55.85,15.26,83.92,11.73l1.39.75c3.71-.71,10.08-.18,12,3-33.06,21.66-67.97,40.75-104,57-6.57-.48-3.69-7.42,1.9-8.89-2.99-6.75-6.28-10.76-14.01-10.67-2.4-.85-3.93-2.82-4.83-5.14-2.82-13-3.94-10.97-3.37,6.11,12.45,4.36-.07,22.09-10.38,14.98-5.81-9.58-6.65-1.04.28,1.81,2.26,3.51,1.97,19.21-4.6,14.81l-2.81-.39c-5.73,4.61-9.16,4.43-10.27-.54l-6.22-1.09c-9.39,7.03-27.47-11.68-14.87-17.3-1.77-3.58-.13-6.99,4.9-10.22,1.62-3.04,2.55-15.32-.79-7.87l-8.73,7.33c3.54,1.91,4.19,8.05-.22,8.07-3.97-4.7-3.98-3.01-1,1,1.02,2.23-.37,3.81-4.18,4.72.3,4.59-.84,7.32-5.61,8.64-.34,2.7-2.34,3.68-4.62,4.38l-5.64,10.55c-1.82,1.52-2.6,2.12-3.96-.29-2.71-.55-2.62-1.71-1.55-3.93,27.2-43.38,52.09-88.91,76.56-134.19,1.23-2.28,3.12-4.12,4.99-5.88.38-2.32,1.04-2.99,2-2Z"></path><path class="cls-50" d="M190.67,14.27c.97,2.14,1.64,4.14,2,6,2.45-.46,7.28,4.36,6,7,10.4,10.47,16.18,39.5,2.62,49-13.56,9.51-40.3,11.69-51.15-3.41,1.09,3.15,2.23,9.52-2.47,7.4-10.35-31.08,30.25-30.4,32.89-54.6.74-6.82-.9-12.05-2.88-18.39,1.48-1.38,11.12,5.82,13,6.99Z"></path><path class="cls-30" d="M254.67,78.27l1.3-1.83c21.74,9.76,43.32,19.53,64.74,29.3l-.04,1.53c5.81-.39,11.1,6.73,5.17,12.03-26.03,14.62-52.38,29.06-78.82,43.08-1.74.92-3.62,1.58-5.52,2.23s-3.86,1.18-5.83,1.66c-4.26.47-8.01-1.96-12-3,.36-1.12,1.7-1.79,4-2l1.55-2.02,17.45-4.98.31-1.49c14.44-7.56,26.95-20.46,24.15-37.81l1.54-1.7c-3.73-4.35-7.07-9.02-10-14-.65-7.79-3.24-14.88-8-21Z"></path><path class="cls-159" d="M332.67,166.27c-.73,4.3,4.47,4.01,4.97,5.61.21.67-.97,1.3-.97,1.39-2.6-.07-2.96.08-1.07.47-11.87,6.1-23.4,12.53-34.57,19.28l-1.36-.75c-11.32,7.79-23.2,14.62-35.19,21.33-73.92,41.34-147.75,82.66-217.59,122.42-1.34.82-2.75.88-4.23.25-2.36,6.09-12.63,3.54-17.89,2.04-4.12-1.17-11.54-3.68-13.11-7.04-1.71,2.23-3.68.27-4-2,.41-1.19,4.55-.32,3-5,1.53-1.8,5.92-.13,6,2,3.1-.96,9.98,2.62,12,5,1.13-1.53,2.47-.83,2,1,1.53-.76,3.45-.74,5,0v-1.36c7.76-3.54,15.29-7.24,23.3-11.88,89.38-51.31,183.52-104.08,271.58-153.04l2.13.27Z"></path><path class="cls-82" d="M332.67,212.27c1.69,5.1,3.55,1.72,4,8-2.32.52-4.32.52-6,0-4.16,4.57-9.47,8.13-15.94,10.66-5.29,4.79-10.97,7.57-17.06,8.34-38.28,24.94-78.52,46.9-119,68,.94,1.46.27,1.8-2,1-1.39,1.49-2.83,2.91-4.44,4.11-3.21,2.38-6.48,4.41-9.87,6.5-15.02,9.28-30.57,18.5-46.7,25.39.13,1.43-1.2,2.1-4,2-.38,1.48-1.36,2.23-2.59,2.92-18.84,10.7-37.58,21.58-56.02,33-3.53,2.84-6.99,3.87-10.38,3.08-.39,3.75-5.89,3.7-9.14,3.59-8.68-.3-19.22-6.09-24.86-12.59-.28.87-.62.86-1,0,1.37-1.78,4.08-1.73,5-4l1.37-.67c7.19,5.24,14.81,7.69,22.85,7.34l1.78,1.33.7-2.01c91.82-51.32,185.88-105.07,282.17-161.26l11.14-4.73Z"></path><path class="cls-124" d="M333.67,122.27c.53,1.39,2.71,2.74,3,4,.03,2.33-2.94,4.77-5,3-.17.72-.38,1.42-.72,2.04-.32.58-.66,1.1-1.15,1.37-10.62,5.99-21.92,12.22-33.13,16.59-3.47,2.85-7.02,5.64-10.97,7.8-68.6,37.51-136.91,75.52-204.65,114.58-11.84,6.71-23.96,12.25-36.38,16.62-2.81,1.28-7.6,1.88-8-2,2.1-2.67,5.43-4.72,9.99-6.14,90.41-52.17,182.49-103.53,276.24-154.07l3.77-.79c.9-2.99,4.48-5.63,7-3Z"></path><path class="cls-178" d="M143.67,85.27c2.82,9.66,16.23,16.9,25.32,20.06,12.47,4.32,26.92,4.74,39.68,1.94.23-2.01,1.23-1.94,2,0,12.13-4,11.6,6.69,1,9-3.11,4.38-12.61,7.12-18.31,8.48-19.42,4.62-55.13,1.06-62.95-20.5.59,2.29,0,3.63-1.74,4.02,1.67,2.8,1.67,4.8,0,6,1.43,3.97.73,6.67-2,2-3.23-12.16-1.45-26.53,7.48-36.02,7.13-7.58,7.49-2.23,9.52,5.02Z"></path><path class="cls-101" d="M329.67,108.27c4.29,3.4,3.48,11.06-2,12l-2.86,4c-95.88,51.9-190.15,104.57-282.81,158.01-6.42,3.48-15.68,5.06-21.32.99-4.38.26-12.97-4.43-10-9,1.51-.82,3.05-.43,4.62,1.18-1.21-3.29-1.21-11.1,3.38-8.18l1.83,1.67c-1.36,13.54,14.05,7.42,21.12,4.13,17.9-8.34,35.54-19.63,52.15-30.38,1.65-.64,3.28-1.11,4.91-1.42l5.93-4.61c8.53-3.95,16.89-8.08,25.07-12.39-.19-2.04.64-2.49,2-1,34.71-19.04,69.52-38.08,104-57,29.39-16.13,59.41-31.27,88.5-48,1.78-1.22,3.13-3.13,2.4-5.34-.13-.39-5.55-5.45-5.9-5.66-.1-1.6.57-2.6,2-3,2.48.68,5,2.44,7,4Z"></path><path class="cls-140" d="M108.67,96.27c4.14-4.87,7-2.25,4,3-13.51,29.31-31.19,57.75-47.38,86.12-10.19,17.85-19.98,36.41-31.36,53.54-1.02,1.53-1.99,1.61-1.26,4.33l.38,2.94-11.54,20.02-2.84,1.04c-.17.32-1.62.34-2,2.49-1.07,6.04,7.35,16.64-6,4.51-1.33.24-1.99-.76-2-3,1.21-5.45,5.03-11.57,7.83-16.67,29.33-53.4,61.24-105.99,92.17-158.33Z"></path><path class="cls-201" d="M336.67,173.27c-.13,9.18,2.28,33-4,39-87.43,48.92-172.92,101.33-260.33,150.17-8.56,4.78-25.19,15.56-33.67,17.83-2.65-.11-3.99-.63-2-3,.29-.87.62-.86,1,0,11.02-7.34,22.1-14.61,33.58-21.21,68.74-39.54,137.52-79.04,206.3-118.51,11.45-6.57,23.27-12.47,35.12-18.28,1.27-3.32,3.98-4.89,8.13-4.7,2.02-2.77,6.53-7.27,10.87-7.8-.78-.21-1.91-.52-2-1.15-.53-3.54-.55-19.94,0-23.41l2-1.44c-9.62,5.51-19.62,10.01-30,13.5-3.39,1.58-4.65.62-2-2,2.86-1.58,5.78-4.19,8.69-5.81,8.47-4.71,17.23-9.79,25.8-14.21,2.31-1.19.73-1.24,2.51,1.02Z"></path><path class="cls-76" d="M336.67,154.27c-.26,5.51.4,7.75-4,12-3.77,3.64-15.13,9.19-20.33,12.17-42.68,24.52-86.4,47.54-129.34,71.66s-85.1,50.35-128.66,73.34c-4.24,2.24-14.62,8.18-18.67,8.83-1.61-.68-3.38-.72-5,0-1-.11-1.63-.91-2-1-3.99-1.89-1.63-2.89,2-2,1.27-2.37,4.16-3.21,6-1l1.97-2.84c74.03-40.73,150.16-83.81,228.39-129.25,7.69-4.05,15.57-7.69,23.64-10.92.34-3.31,3.99-5.93,7-4-.27-3.42,3.55-3.38,6-2,3.37-5.43,10.63-9.95,17-10,.09-3.59,7.12-7.24,10-5,3.22-2.07,4.35-5.68,3.39-10.81.84-1.74,1.94-1.05,2.61.81Z"></path><path class="cls-182" d="M296.67,267.27c1.67.26,2.12,1.39,2,3-5.22,3.1-11.14,8.16-16,11-53.55,31.34-107.95,61.8-161.67,92.83-23.5,13.57-46.57,28.92-70.66,41.34-8.25,4.26-11.31,6.61-20.67,4.83l.48-1.29c2.34,0,4.51-.58,6.52-1.71.25-.87.58-.85,1,0l.73-2.25c5.59-2.66,11.07-5.54,16.42-8.62-1.52-2.39-1.62-3.28.85-5.13,3.6-1.32,5.66-1.08,6.15.69,27.03-14.65,53.66-30.15,79.89-46.51l2.96-.19c-.64-3.12,3.63-4.7,6-3,11.41-9.48,24.11-16.8,38-22,1.09-4.56,5.96-6.57,10-6,4.41-6.03,11.59-10.13,19-11,.76-2.81,3.09-4.14,7-4,10.74-9.14,22.77-16.13,36-21,10.12-9.48,22.82-16.71,36-21Z"></path><path class="cls-150" d="M227.67,141.27c-5.91,5.63-17.25,10.03-25,8-9.71,1.81-21.03-4.12-6.7-9.74,10.96-4.05,21.68-8.23,31.7-14.26-1.68-1.43,2.26-5.2,4-4,6.38-1.74,11.97-25.97,8.15-29.11-3.11.03-4.49-1.93-4.15-5.89-1.64-1.32.78-9.07,1.77-10.98l2.23-1.02c.32.02.69-.06,1,0,16.58,14.07,18.56,39.6,4.12,56.23-3.87,4.46-11.42,11.53-17.12,10.77Z"></path><path class="cls-89" d="M11.67,331.27c6.22,6.42,18.28,9.53,27.3,8.42l1.7,1.58c1.61,2.18,1.26,5.46-1.04,9.82l.04,23.34c-.32,1.03-.98,1.98-2,2.84-.28.09-.67-.07-1,0-.07.6-.21,1.14-.55,1.46-4.1,3.82-24.5-7.9-28.45-11.46-1.81-5.29-1.34-18.44-1.05-24.55.09-1.96.83-12.81,1.05-13.45,1.98-.27,2.88,1.4,4,2Z"></path><path class="cls-127" d="M211.67,43.27c13.68,21.9,3.4,37.42-18.55,46.93-.92.4-1.8-.12-2.45-.93l-6,1c-.18.9-.52.86-1,0-9.18,3.21-20.95-2.69-28.49-8.09,3.66,7.84,11.8,12.13,19.98,13.76l1.51,2.33c1.97-2.74,7.48-1.75,9,1,2.74,1.64,1.85,2.51-1,3-3.2,3.56-15.32.24-17-4-3.36,1.6-12.19-1.86-11-6-1.99,2.37-6.56-1.33-5-4-.62-.8-3.61-6.82-4-8,4.64-2.59-2.86-7.25,2.5-10.98,3.26,6.21,14.32,12.63,21.07,12.92,2.77.12,16.79-2.25,19.71-3.15.56-.17,9.95-4.73,10.4-5.11,7.58-6.31,6.25-23.8,3.63-32.49-.6-2-5.3-12.78-6.31-14.19.28-.87.62-.86,1,0,5.05,2.42,11.42,10.3,12,16Z"></path><path class="cls-173" d="M8.67,376.27c7.01,7.97,17.3,12.27,27.8,12.94,2.73,1.04,3.59,3.99,2.58,8.86,1.04,4.55.59,7.95-1.38,10.19,2.96,2.22,2.87,6.74,0,9-.32.06-.67-.03-1,0-7.83,4.18-27.57-4.19-28-13,.42-9.03.09-18.03-1-27,.13-.31-.15-.81,0-1h1Z"></path><path class="cls-181" d="M153.67,44.27c-9.31,8.24-9.56,16.84-14.55,22.95-1.9,2.33-7.42,5.01-10.47,8.53-9.07,10.49-10.93,23-9.98,36.52-.05-.29-.87-1.07-1.04-2.41-.39-2.93.72-7.62.11-10.03-.32-1.29-3.96.65-3.07-2.55l-.94-.63c.35-5.4,1-9.85,1.94-13.37,4.6-7.74,9.3-15.33,14-23,1.02-1.13,2.46-1.64,4.3-1.51l7.36-14.05c2.08-4.67,11.17-5.14,12.34-.44Z"></path><path class="cls-53" d="M237.67,155.27c-3.4,4.41-14.22,5.23-19.99,5.23-.34,0-.67-.54-1.01-1.23-.65-.13-1.08-.24-1-1,15.8-4.77,34.41-15.9,42-31,1.34-2.78,4.47-2.2,6.94-.94,5.75,2.94,4.28,6.07,1.74,10.68-4.7,8.5-19.59,16.46-28.67,18.26Z"></path><path class="cls-146" d="M322.67,104.27c.04,2.37.67,3.47-2,3-6.33-3.9-19.42-7.93-27.09-11.43-8.93-4.08-18.86-8.18-28.16-12.82-3.43-1.71-5.92-4.78-10.75-4.75-1.84-2.36-2.84-3.13-5-5-1.33-1.41-.77-1.92,1-1,24.22,10.07,48.42,20.78,72,32Z"></path><path class="cls-78" d="M272.67,113.27c.2,1.02.93,1.9,1.01,3.45.93,18.01-12.6,29.66-27.01,37.55-4.02,2.09-7.02,2.42-9,1,1.54-3.74,5.73-2.29,8.23-3.27,4.45-1.73,18.51-12.57,20.24-16.77,2.63-6.39-3.27-8.29-8.47-7.96,1.25-2.49,4.67-11.55,5-14,3.12-.54.94,1.34.96,1.18.65-5.44,7.46-7.11,9.04-1.18Z"></path><path class="cls-111" d="M330.67,220.27c2.32-1.15,3.91-4.2,6,0,.39,5.53.66,16.14-.09,21.41-1.82,12.85-27.69,22.53-37.91,28.59l-3.01-1.01,1.01-1.99c.64-3.83,5.41-6.29,9-5,.53-3.62,3.61-5.3,7-4,2.26-4.96,9.44-8.36,14.41-9.82,4.51-.68,4.56-21.77,3.77-23.19-3.89-.83-2.67-2.95-.17-4.99Z"></path><path class="cls-131" d="M224.67,146.27c-1.69-.97-.69-2.64,3-5,19.27-9.5,30.06-29.15,23.05-50.55-2.24-6.85-7.14-10.21-10.05-16.45,7.55,1.5,14.27,17.35,14.99,24.51,2.48,24.65-9.87,38.28-30.99,47.49Z"></path><path class="cls-43" d="M146.67,89.27c2.97.18,7.95,2.84,7,6,2.85-.61,6.79.42,7,4,7.05,1.48,13.95,3.24,21.14,5.19,4.51,0,8.13.93,10.86,2.81l13.13-1.73c1.24-.12,2.21.72,2.87,1.73-1.62,1.89-5.28,2.66-7.61,2.89-16.9,1.68-33.56-.51-47.36-10.42-1.53-1.1-1.91-3.2-3.09-3.94-1.01-.63-2.6-.28-3.6-.91-3.37-2.11-2.62-7.05-3.34-9.62,1.39,1.03,1.98,2.7,3,4Z"></path><path class="cls-66" d="M233.67,63.27c.74,3.38.74,6.71,0,10-1.08,5.37-3.73,4.21-3-1l-1.73-2.33c1.58-13.07-6.81-22.8-15.57-31.27-.74-1.08-1.32-2.09-.7-3.39-4.97-.68-9.96-5.07-11-10-.75-.48-1.53-.37-2.33.14-3.04-4.19-5.26-5.9-6.67-5.14-1-1.18-4.3-2.95-5-4.5l3-1.5c17.58,10.98,38.57,27.31,43,49Z"></path><path class="cls-187" d="M17.67,284.27c6.34.83,10.61,1.28,16.98.78.9-.07,1.55.35,2.02,1.22l8,2c1.78,2.77-3.78,6.23-6,4-3,5.69-12.56,2.54-17.74.63-3.49-1.29-10.44-4.25-11.26-7.63-1.42.88-1.69,2.38-.8,4.51l-2.2.49c.28-2.71-.46-5.94.01-8.53.37-2.03,1.94-2.32,1.99-2.47,2.21-1.91,7.52,3.23,9,5Z"></path><path class="cls-119" d="M132.67,121.27c2.79,1.11,5.06,3.61,6.83,7.52,5.12,5.47,10.85,10.3,17.17,14.48,2.99-.86,6.41-.21,10.26,1.95,4.02.43,6.93,1.79,8.74,4.05,4.63,2.53-.81,2.68-4,2-19.35-3.84-39.54-14.47-45-35l1.99,1v-3c3.76-.52,4.9,4.27,4.01,7Z"></path><path class="cls-128" d="M208.67,159.27c2.86.06,2.73,2.32,0,3-.34.51-.71.99-1.16,1.37-2.21,1.84-23.29.88-27.82.55-13.99-1.02-30.01-4.91-41.31-13.39-.18-.14,0-.76.29-1.53-3.69.18-5.59-4.2-2-6,22.65,19.64,44.3,17.21,72,16Z"></path><path class="cls-213" d="M227.67,141.27l-3,5c-18.06,7.87-33.54,8.86-53,5,2.52-.12,4.62,1,4-2l3.34-1.57c7.9.68,15.79,1.2,23.66,1.57,8.61-1.38,17.2-4.16,25-8Z"></path><path class="cls-100" d="M129.67,60.27c7.46-12.17,9.36-27.19,28-18.99-.15,2.24-3.39,2.45-4,2.99-2.23-.57-6.87-1.89-8.79-.77-2.48,1.44-7.07,14.08-9.73,16.82-.62.64-4.76,1.09-5.48-.04Z"></path><path class="cls-209" d="M239.67,74.27c-.53,3.35-2.32,9.24-4,12,2.19,3.95-5.3,9.15-9,8-.86,1.31-9.83,6.1-7,0l-.3-1.46c4.93-4.77,10.14-9.82,12.22-16.63l2.08-.91c1.85-1.14,3.92-1.12,6-1Z"></path><path class="cls-175" d="M9.67,285.27c1.84,1.98,2.18,3.65,1,5,2.89,6.26,2.87,19.47,1.84,26.69l-1.84,2.31c-2.28.77-3.62-1.23-4-6-.31-6.66-.65-16.55,0-23,.11-1.13,2.01-3.79,1.01-6,.16-.28,1.41.76,1.99,1Z"></path><path class="cls-143" d="M8.67,404.27c.7.5,2.11,2.83,3.53,3.97,6.64,5.31,15.78,9.8,24.47,9.03-1.24,3.1-3.96,3.32-7,3-6.09-1.16-15.57-4.67-20-9-1.94-1.89-2.72-4.4-3-7,.36-2.66,1.03-2.48,2,0Z"></path><path class="cls-138" d="M336.67,126.27c1.06,4.59.27,22.2,0,28-3.84-.8-.94,4.7-2.5,8.01-.82,1.74-2.27,1.48-3.5,1.99-.45-2.03-.15-4.45.91-7.27-.8-7.17-1.01-14.36-.62-21.55l1.71-2.18c-2.67-.73-2.24-2.09-1-4,1.55-1.01,2.66-2.98,5-3Z"></path><path class="cls-6" d="M36.67,377.27l2,3c-8.67,2.32-18.79-2.98-26-8-2.71-1.88-4.01-2.12-5-5,9.74,2.53,18.43,12.28,29,10Z"></path><path class="cls-84" d="M246.67,154.27c-5.98,3.28-11.99,6.9-19,7-6.89,2.48-13.22,2.81-19,1v-3c1-.04,2.01.05,3,0,1.5-.79,3.45-.72,5,0,8.37-.14,12.93-2.5,21-4,2.66-.49,6.2-.49,9-1Z"></path><path class="cls-198" d="M7.67,377.27c4,7.11,3.31,15.62,3,23.55-.08,1.92,1.03,4.01-2,3.45-.28-.2-1.43.13-2,0-.63-5.97-.63-18.59-.05-24.59.14-1.46.77-1.71,1.05-2.41Z"></path><path class="cls-190" d="M262.67,99.27c6.18,5.3,8.32,5.62,10,14-3.42-3.74-6.76-.96-9.02,2.47l-.98-2.47c.46-3.45.3-10.39,0-14Z"></path><path class="cls-15" d="M230.67,72.27c.62,3.23,1.51,4.07,3,1-.06.65.1,1.39,0,2-1.25,7.38-8.31,14.56-14,19-.28.82-.61.8-1,0-3.26,2.19-5.45.45-2-2l-.02-2.37c5.58-4.12,10.02-10.03,11.83-16.77l2.2-.87Z"></path><path class="cls-63" d="M136.67,143.27c-.37,2.4.49,4.22,2,6,.86,2.13-.14,2.46-3,1-8.91-7.91-5.53-7.97-9-17,3.64,2.98,6.44,6.92,10,10Z"></path><path class="cls-31" d="M333.67,122.27c-.36.32-5.42,2-7,3-2.42-.62-2.09-2.28,1-5,1.98-4.59,4.47-5.58,2-12,3.07,2.4,6.59,4.95,6,9.42-.05.38-1.81,4.41-2,4.58Z"></path><path class="cls-18" d="M331.67,260.27c-.3,2.48.43,5.69,0,8-2.8.52-9.93.95-12-1,3.43-2.11,9.19-4.89,12-7Z"></path><path class="cls-192" d="M114.67,97.27c-.26.61-1.71,1.37-2,2v-4s-4,1-4,1c2.46-4.16,4.48-8.77,7-13,3.09,1.08,1.03,2.01.87,3.28-.34,2.72-.93,8.54-1.87,10.72Z"></path><path class="cls-42" d="M10.67,274.27c2.85,6.22,3.58,6.07,10,9,.27,1.13-.73,1.46-3,1-3.68-1.53-5.71-3.01-9-5,.13-.4-.83-4.25,0-8,.68.95,1.51,1.93,2,3Z"></path><path class="cls-180" d="M10.67,319.27c2.25-1.51,5.71,1.97,7,4,.85.25.83.58,0,1,1.53,1.91,1.38,1.93-1,2-1.17-.59-4.48-.92-6-2-4.39-3.13-3.79-6.46-4-11,1.13,3.45,1.91,3.85,4,6Z"></path><path class="cls-45" d="M151.67,88.27c.77,1,3.77,2.97,5,4,2.92,3.35.67,4.8-3,3-3.08-2.22-4.48-2.79-7-6l5-1Z"></path><path class="cls-209" d="M233.67,73.27c.32-3.21-.22-6.74,0-10,.83,4.06,2.13,5.6,0,10Z"></path><path class="cls-17" d="M250.67,72.27l-1,1c-.99-.86-2.72-1.44-3-2.99,1.72-.33,2.86.84,4,1.99Z"></path><path class="cls-128" d="M215.67,158.27l1,1c-1.66.03-3.35-.09-5,0,.7-1.67,2.96-.69,4-1Z"></path><path class="cls-199" d="M347.67,302.27c-3.15,1.54-6.28,5.14-8.62,6.84-33.44,24.14-65.26,52.86-98.38,78.16-1.93,1.48-4.3,2.71-6,4,.13,2.39-2.97,4.52-5,3-3.36,1.25-6.49,3.38-9.38,6.39-4.03,3.23-6.23,3.43-6.62.61-.49-.3-.47-.64,0-1l64.41-50.11c.5.62.36.32-.41-.89,1.79-1.35,3.66-1.99,5-3,7.54-4.66,15.21-9.66,23-15,13.34-10.13,26.45-20.7,39.33-31.73l1.67-.27c2.75-.83,3.36,1.45,1,3Z"></path><path class="cls-8" d="M392.67,296.27c.05.09,1.72-.42,2.02.67,1.14,4.17-3.1,10.9-5.52,14.33-1.3-2.39,2.12-4.15,2.53-6.49.32-1.83-1.24-2.17-2.01-1.51-.2.17-.62,3.51-1.63,4.92-6.87,9.61-20.28,14.59-30.06,19.89-18.79,10.19-37.8,19.61-57.02,28.98l-2.3-.3c10.18-8.21,23.94-12.04,34.74-19.28,2.62-1.76.78-1.07-.74-1.23,11.76-6.14,23.6-12.16,35.54-18.05l.46-.95c4.34-2.53,9.16-5.76,13-9,3.23-.25,8.08-6.52,9.55-11.73l1.45-.27Z"></path><path class="cls-183" d="M224.67,383.27c.08,2-3.63,4.42-5.07,5.43-9.08,6.37-18.61,8.86-28.93,12.58l7,1c.33.26-.58,1.22-.99,1.5-5.9,3.92-35.91,11.94-43.47,12.53-4.3.34-14.44,1.23-15.54-4.04l11.23.07c15.5-3.18,30.42-8.54,44.77-16.07,4.01-2.53,8.34-4.53,13-6l16.68-7.52,1.32.52Z"></path><path class="cls-86" d="M362.67,269.27c3.24,4.9,2.51,10.36.38,15.88-.91,2.35-9.17,14.61-10.91,16.1-1.98,1.69-3.73.65-4.47,1.02l-1-3c2.12-3.77,4.79-7.43,8-11l4-5c.38-.61.71-1.34,1-2,1.09-1.97,1.66-3.77,1-6-.41-3-.2-5.04-2-8,1.62.28,2.95.95,4,2Z"></path><path class="cls-185" d="M277.67,349.27c4.02-.53.31,2.32-.52,2.98-20.78,16.3-42.46,32.15-63.48,48.02,20.94-17.49,42.15-34.53,64-51Z"></path><path class="cls-176" d="M346.67,299.27c-10.65,11.15-28.31,22.77-41,32-1.49.9-1.96.57-1-1,17.28-12.92,35.45-25.7,50-42-2.3,3.69-4.85,7.7-8,11Z"></path><path class="cls-47" d="M193.67,396.27c-14.77,7.26-39.05,21.37-56,16-.33-.1-.77.13-1,0-.57-1.3.43-1.64,3-1,20.2,2.04,36.34-8.73,54-16,.76.29.75.62,0,1Z"></path><path class="cls-83" d="M329.67,347.27c-13.65,6.94-26.76,15.23-41,20.99,12.15-8.33,26.6-15.57,40-21.99,1.44-.45,1.72-.4,1,1Z"></path><path class="cls-194" d="M318.67,329.27c9.57-7.94,18.93-15.55,27.99-24,.44,1.87-1.04,2.38-1.99,3.5-5,5.93-12.61,12.27-18.63,17.32-1.54,1.29-5.36,2.34-6.37,3.18h-1Z"></path><path class="cls-34" d="M332.67,336.27c-4.25,2.07-8.35,5.07-13,5.99,14.81-10.88,33.2-15.79,49-24.99,1.96,1-3.28,3.6-3.68,3.82-10.14,5.45-21.8,10.07-32.32,15.18Z"></path><path class="cls-41" d="M307.67,340.27c-5.07,4.05-10.21,8.12-15.08,12.42l-13.92,9.57c8.53-8.59,18.64-15.31,28-22.99,1.45-.99,1.95-.58,1,1Z"></path><path class="cls-80" d="M305.67,331.27c-6.47,4.71-12.82,9.57-19.45,14.07-1.17.79-1.92,2.72-3.55.93,7.24-5.47,14.75-10.58,22-16l1,1Z"></path><path class="cls-26" d="M213.67,400.27c-.16.14.16.86,0,1-.15.82-.35,1.61-.72,2.32-1.84,3.56-14,11.16-18.28,12.68-1.41,1.33-1.92.77-1-1,6.6-5.35,13.41-10.02,20-15Z"></path><path class="cls-64" d="M194.67,416.27c-2.32,4.79-8.96,10.26-13.73,13.7l-3.27.3h-1c4.47-6.23,11.15-10.26,17-15l1,1Z"></path><path class="cls-193" d="M206.67,390.27c7.16-3.61,14.19-7.65,21.52-10.99,3.86-.24-3.26,3.86-3.52,3.99-5.31,2.51-12.51,5.08-18,7Z"></path><path class="cls-41" d="M259.67,376.27c4.37-3.96,8.91-8.76,14.49-11.01,1.31.48-1.16,2.1-1.58,2.42-3.7,2.87-7.94,6.2-11.91,8.59h-1Z"></path><path class="cls-158" d="M389.67,293.27h2c.92,1.42.77,2.61,1,3-1.09,4.58-4.27,7.67-7.46,11.04-.75.79-2.79,3.25-3.54.96,5.71-4.81,7.95-6.89,8-15Z"></path><path class="cls-98" d="M328.67,346.27c5.17-2.48,10.58-5.1,16-6.99-3.6,4.16-10.3,5.6-15,7.99l-1-1Z"></path><path class="cls-164" d="M176.67,430.27h1c-.04,4.31-4.96,9.7-9,11-.38-1.25.52-2.84,1-4,1.22-2.92,3.69-6.49,7-7Z"></path><path class="cls-19" d="M206.67,390.27c-4.53,2.29-8.91,3.99-13,6v-1c4.26-1.75,8.5-4.25,13-5Z"></path><path class="cls-202" d="M362.67,269.27l-.5.98c-1.11-1.05-2.09-2.31-3.5-2.98-3.29-1.56-6.45-.94-9.99-1.01l9.47-.97c2.25.32,3.39,2.26,4.53,3.98Z"></path><path class="cls-171" d="M313.67,334.27c.43.31.42.64,0,1-2.02,1.65-3.96,3.37-6,5l-1-1c2.18-1.79,5.36-3.65,7-5Z"></path><path class="cls-122" d="M319.67,329.27c-1.83,1.52-3.56,4.01-6,6v-1c1.44-1.19,2.98-3.32,5-5h1Z"></path><path class="cls-22" d="M260.67,376.27l-4.49,4.01-.5-.5c1.03-1.51,2.73-2.36,4-3.5h1Z"></path><path class="cls-44" d="M354.67,288.27c1.03-1.65,1.12-4.07,4-5-1.86,3-1.92,2.67-4,5Z"></path><path class="cls-206" d="M359.67,281.27l1-6c.07.5,1.35,1.05.88,3.26-.32,1.55-1.62,2.13-1.88,2.74Z"></path><path class="cls-116" d="M241.67,397.27c-.87.56-2.19,1.43-3,2-.37-2.03,1.07-2.13,2.51-2.97l.49.97Z"></path><path class="cls-13" d="M391.67,293.27c.23,3.36-.86,2.11-2,0,0-.59-1.8-1.86-.49-2.01,1.55-.27,1.85,1.03,2.49,2.01Z"></path><path class="cls-183" d="M139.67,411.27l-3,1c-.18-.1-.74.18-.99-.51v-1.48c1.65-.82,3.4.93,3.99.99Z"></path><path class="cls-137" d="M177.67,365.27c-2.94.46-17.38-.65-18.01,0-.06,1.99.08,4.01,0,6.01-3.17-1.48-7.13-1.77-9-5,8.88-5.15,17.85-11.7,27-17,.01,3.62-.96,6.84-1.07,10.52-.07,2.33,1.07,4.49,1.07,5.48Z"></path><path class="cls-54" d="M276.67,292.27c-7.8,4.56-16.5,8.63-24,13-2.14-6.34.28-4.58,3.21-6.1,2.57-1.33,4.4-1.51,5.57-2.14.56-.3,5.16-5.34,5.95-5.79,2.36-1.33,9.23-4.05,9.28,1.03Z"></path><path class="cls-54" d="M238.67,313.27c-5.05-4.19,4.51-6.18,4-2-1.41.82-2.9,1.36-4,2Z"></path><path class="cls-148" d="M229.67,394.27c.28.95-.06,1.28-1,1-10.54,7.99-29.51,19.87-38.01,28.49-1.05,1.07-2.36,1.72-1.98,3.51,2.76-1.25,5.14-3.33,7.9-4.59,1.61-.74,3.27-.86,1.03,1.04-8.39,4.42-17.67,14.9-26.14,17.86-1.21.42-2.25,1.54-2.8-.31,2.66-4.07,5.49-7.61,9-11,4.99-4.83,11.55-9.34,17-14,6.12-5.23,12.84-9.84,19-15,4.85,2.6,8.76-3.89,12.06-6.44.83-.64,3.39-2.57,3.94-.56Z"></path><path class="cls-108" d="M228.67,400.28c-4.19,4.08-9.38,9.25-15,10.98,3.69-4.42,9.71-8.52,15-10.98Z"></path><path class="cls-155" d="M234.67,391.27c2.96,3.67-6.87,8.76-6,4,.36-.27.63-.72,1-1,1.33-1.01,3.44-1.81,5-3Z"></path><path class="cls-35" d="M96.67,236.27c1.24-.59,2.79-.72,3.37-2.27.27-.72.45-10.26.17-10.72-1.44-2.31-7.92-2.88-5.02-8.99,2.82-5.96,4.98,2.23,6.54,3.43,5.12,3.94,11.21.33,12.55-5.39,1.45-6.22-2.14-4.17-4.35-6.3-1.93-1.87-.13-5-.17-7.25s-2.16-9.43,1.51-10.44c4.45-1.23,4.33,7.03,5.34,9.51,2.6,6.42,6.75,3.18,11.45,5.55,1.6.81,7.65,9.3,7.67,10.37.07,4.98-9.65,2.03-4.04,9.5-.55.3-1.24.59-2,1-8.16,4.34-16.38,8.39-24.67,12.16l-6.33,4.84c-6.62,6.63-45.23,28.41-55.31,33.19s-27.14,10.58-24.69-7.19c4.03-7.43,9.12-17.31,14-24,.1-.14,1.75-.04,2.46-1,1.45-1.98,5.04-10.1,5.82-10.73,2.07-1.66,4.88.03,3.72-6.27,7.87,3.34,5.05-5.64,6.1-6.9.22-.27,3.26-.35,5.9-3.1-1.21-1.48-.66-1.99,1-1,2.93-6.31-1.2-5.82-1.94-7.06-1.54-2.58,8.87-8.52,10.02-10.37,1.01-1.61.37-5.53,2.41-4.57,4.21,1.99,2.95,14.38-.43,17.56-1.48,1.39-3.81,1.34-3.97,1.52-.91,1,1.48,6.11.92,7.92-10.08-.77-2.1,10.23,2.46,13.03,5.99,3.67,6.64.34,10.07-.02,2.18-.23,5.39,2.16,7.53.57,1.44-1.07.28-5.35,3.62-6.37,2.96-.9,6.42.02,9.3.81-.12,1.76-3.07.74-4.96,1.52-2.77,1.15-11.33,10.2-4.73,8.28,2.07-.61,6.89-3.82,8.69-.81q-1.76,2.82,0,0Z"></path><path class="cls-20" d="M138.67,149.27c1.97,2.31,19.06,9.79,22.77,10.73,13.18,3.32,33.41,2.72,47.23,2.27,6.32-.2,12.9-.91,19-1-1.05.65-2.91,1.72-4,2-24.82,6.47-68.07,4.7-88-13l3-1Z"></path><path class="cls-77" d="M57.67,214.27c-.12.25-.7.69-1,1-10.16-1.54,1.39-12.13,1-1Z"></path><path class="cls-46" d="M82.66,185.28c1.61,1.6-1.53,7.01-3.9,3.88s2.32-5.45,3.9-3.88Z"></path><path class="cls-99" d="M90.66,181.28c.98.91-2.78,5.83-3.99,2.48-1.14-3.17,1.39-2.62,3.99-2.48Z"></path><path class="cls-1" d="M201.67,25.27c-.18,1.24-.83,2.14-2,2h-1c-.92-1.27-4.63-5.4-6-7-.3-2.86.57-2.44,2.5-1,2.34,1.73,4.36,4.09,6.5,6Z"></path><path class="cls-52" d="M291.66,104.28c.35.32-.93,3.79-1.1,3.89-3.88,2.39-4.42-4.93,1.1-3.89Z"></path><path class="cls-123" d="M299.67,192.27c1.01,1.58-1.19,2.36,2,2-9.82,8.52-22.29,16.65-35,20-55.74,33.47-112.09,65.75-169.03,96.84l-34.4,20.31c-5.62,4.08-11.47,6.37-17.57,6.85-2.05.91-2.74.13-3-2,24.32-10.59,53.49-30.8,77.3-44.2,59.7-33.59,119.72-66.67,179.7-99.8Z"></path><path class="cls-93" d="M42.67,336.27c1.46.01,2.57.57,3,2,1.13,2.71-2.9,5.28-5,3-8.06,2.88-20.85-3.29-28.6-6.91-2.59-1.21-1.5-1.04-.4-3.09,9.49,5.12,20.5,9.57,31,5Z"></path><path class="cls-144" d="M30.67,329.27c-2.13-.24-2.24-.13-2,2-5.5-1.29-7.36-2.68-12-5-.05-.95.45-1.36,1-2,2.93-2.88,11.24,1.52,13,5Z"></path><path class="cls-144" d="M35.67,332.27c-1.22.19-3.72.15-5,0,.66-1.58,4.34-1.58,5,0Z"></path><path class="cls-152" d="M253.67,268.27c4.21-1.85,5.14,2.84,1.68,5.24-3.96,1.4-8.02,3.46-8.71,8.06,1.33,2.53,3.37,6.52-.98,5.7-1,1.56-2.41,2.95-4,4-.99,1.94-3.5,2.7-7.53,2.3-6.09,5.52-9.92,6.42-11.47,2.7-1-4.26-2-3.92-3,1,.36,3.64-10.54,16.2-11,8-1.87-2.49-3.54-2.49-5,0,2.56,1.59.51,3.18-1.52,4.44-9.18,3.96-9.18,6.83-3.48,14.56-3.16,1.84-6.65,4.05-10,6-1.4-.19-2.74-1.16-4.02-2.92-2.68.12-4.34-.58-4.98-2.08-3.59-3.77-3.8-.76-3,2l-1.32,3.31c-7.67,5.6-15.68,10.64-24.03,15.13l-3.65-.44-1.03,2.09c-2.05,0-1.37.65,2.03,1.91,2.24-2.69,5.21,1.16,2,3-2.2,1.28-4.36,2.05-6,3l-2.09-.36c-6.92,4.22-12.08,4.29-15.48.22-2.11,5.36-4.25,6.74-6.43,4.14-1.11-.94-2.11-.27-3,2,4.85,1.37,1.44,9.38-3,7-.57,1.28-1.9,2.28-4,3,.67,2.79-1.5,3.33-3,1l-1.8-.78c1.83.69-1.05,1.99-2.2-.22l-.96,2.31c-5.99,1.29-11.83,3.47-16.63,7.39l-2.41-.7c-1.27-.85-2.27.15-3,3,7.03,1.05.98,5.8-4.57,4.48-5.27,3.81-10.69,6.55-17.44,6.73l-.99-2.2c-3.83.11-3.13,1.74-1,4,3.98-6.18,6.46,6.53,3.23,5.78-.89-1.35-2.3-1.61-4.23-.78-1.09,5.1-14.4,11.4-18,7-.17-5.76-1.33-11.18,0-17-9.62-.27-25.21-5.41-29-15,10.23,6.45,21.69,13.96,34,9l5.06-.19,50.86-30.19c5.51-2.95,11.2-5.49,17.08-7.62-2.93,1.19-4.26.86-4-1,.84-1.74,3.02-1.44,4-2,3.91-1.23,1.9.95,0,3l2.5-2.94c20.1-11.01,39.44-22.39,58.02-34.12l.48-1.94c.64-.37,1.36-.63,2-1,1.88.41,3.66.07,5.33-1.02,20.61-12.38,41.45-24.52,62.94-36.17,2.11-1.14,4.31-1.82,6.73-1.81Z"></path><path class="cls-103" d="M297.67,239.27c4.45-.78,4.12.55-1,4-12.56,10.79-27.34,19.59-43,25-12.75,7.26-26.05,13.68-38.71,20.79-10.45,5.87-19.98,14.31-31.57,19.43-2.48,1.09-3.37,1.51-4.71-1.22,39.62-22.75,79.21-45.46,119-68Z"></path><path class="cls-68" d="M330.67,220.27l-1,2.99c.45.34,2.83-.67,3.07.56.51,2.56.18,19.04-.73,21.22-1.28,3.07-15.65,11.02-19.34,13.24-5.86-3.55,2.53-8.79,6.57-10.97,1.06-2.47,2.54-3.48,4.43-3.03,1.48.88,1.83.56,1-1-3.37,2.88-9.56-6.15-7.24-8.99,8.32-4.75,3.84-2.97-1.56.3l-2.2-.31c.47,2.4-1.04,3.84-4.53,4.3-2.29,3.08-9.34,7.57-12.47,4.7-1.19.07-1.11-.92-1-2h3.01s-.01-1.49-.01-1.49l-.99-.51c11.18-6.33,21.17-13.15,33-19Z"></path><path class="cls-186" d="M115.67,347.27c-13.4,7.8-26.88,15.46-40.34,23.16-10.49,5.99-20.58,12.96-31.17,18.83-4.91-1.26,3.45-2.03-1.48-3.99,22.31-8.99,46.11-29.57,69-39,.92.09,3.56,1.34,4,1Z"></path><path class="cls-125" d="M176.67,308.27c2.11,1.52,2.83.79.53,3.03-2,1.94-8,5.72-10.66,7.34-16.51,10.03-34.16,18.92-50.86,28.64.11-.08.06-2.01.97-2.51l-.97-.49c20.43-11.7,40.53-24.25,61-36Z"></path><path class="cls-71" d="M326.67,125.27c-15.3,9.69-31.5,18.36-47.33,27.17-57.27,31.86-115.12,62.71-172.34,94.66-20.19,11.27-42.9,26.98-63.28,36.71-2.38,1.14-4.47,1.88-7.04,2.46-7.73,1.74-11.81.99-19-2,.93-.5,1.94-.91,3-1,4.04-.35,7.23,1.35,11.24.79,7.99-1.13,23.36-12.67,31.09-16.96,75.63-41.96,151.48-84.4,226.93-126.12,12.51-6.92,25.76-12.79,37.74-20.71-.62,1.45-.8,3.41-1,5Z"></path><path class="cls-115" d="M303.67,149.27c-19.17,14.63-40.96,25.47-63,35v1.38c-31.11,17.75-62.78,35.62-95.03,53.61,2.15,3.5-1.77,7.99-5.42,3.38-18.1,9.36-36.11,19.2-54.04,29.5-.47,6.1-3.74,12.19-9.01,5.18-.69-.21-11.74,5.51-11.88,6.97,3.05,6.84-5.72,11.69-8.42,4.13l-13.51,7.94c-4.52,3.79-10.31-1.11-4.69-4.08,2.43-.73,4.79-3.4,6-4,85.09-42.47,166.69-96.33,252-139l7.07-2.47c.48.81.42,1.63-.07,2.47Z"></path><path class="cls-37" d="M332.67,133.27l-1.43,3.07c-8.32,3.46-16.08,7.76-23.28,12.89l-2.29-.95c.66,1.96-.36,2.33-2,1l-.58-.77-6.42.77c10.98-7.88,23.7-12.66,35-20,1.62.71.8,2.77,1,4Z"></path><path class="cls-168" d="M128.67,108.27c-.14-3.22-.95-6.7.49-9.99,3.04,2.79,3.18,7.11,5.52,10.48,10.69,15.45,40.38,17.46,57.23,14.25,6.77-1.29,13.47-5.03,19.76-6.74,3.8-3.01,9.44-2.96,13,0,.09.98.19,2.12-.41,2.95-7.21,10.13-39,19.61-51.59,17.05-.41.37-.83.68-1.29.76-5.49,1.02-25.08-3.42-26.71-9.76l-7.71-7.44c-4.62-2.47-7.47-6.29-8.29-11.56Z"></path><path class="cls-43" d="M224.67,116.27c-5.07,1.43-6.61-1.73-13,0,6.29-5.89,10.54-8.01-1-9l-.27-1.47c6.91-3.87,14.33-7.38,22.27-10.53-.68-2.92.59-3.74,3-2,4.59,1.73,2.3,11.75.12,15.53-1.4,2.42-8.3,9.07-11.12,7.47Z"></path><path class="cls-113" d="M232.67,95.27c-2.39,1.82-7.27,5.63-9.66,6.8-3.69,1.81-9.06,2.51-12.34,5.2-.66-.06-1.34.04-2,0-5.46-.32-10.43-.38-16,0,2.23-3.01,6.23-4.01,12-3,2.2-2.54,5.55-4.27,10.06-5.21,3.45-2.19,7.1-3.12,10.94-2.79,2.02-1.79,6.04-4.48,7-1Z"></path><path class="cls-104" d="M144.67,127.27l-2.28.87-8.51-7.15c1.02-.75.62-.66-1.21.28-.8-1.56-3.63-5.72-4-7-.64-2.2.07-4.5,0-6,5.14,6.64,10.04,13.04,16,19Z"></path><path class="cls-145" d="M129.67,224.27c-.24.13-.63,1.34-1.59,1.87-9.76,5.32-19.41,10.36-29.41,15.13.94-.94,3.87-5.53,6.02-6.48s4.58-.25,6.78-1.24c1.37-.62,7.22-6.15,8.91-7.04,1.99-1.05,6.86-2.13,9.3-2.24Z"></path><path class="cls-195" d="M314.67,195.27c1.7.42,3.02,1.56,4,3,4.48-3,6.58,7.11,0,7,.78,1.4,1.78,2.73,3,4,7.27.26-1.77,7.13-6.36,6.33-.45,1.35-1.33,2.57-2.64,3.67-90.83,53.43-182.8,106.2-275,158v-26.5s3-9.5,3-9.5c1.44-.52,3.45-2.27,5-3,18.59-8.67,35.55-20.24,53.29-30.21,55.85-31.4,111.71-62.72,167.71-93.79,4.69-1.98,8.16-1.8,10.42.56.71-3.53,3.5-5.74,8.37-6.64,3.56-5.82,9.3-9.22,17.22-10.2,2.86-4.35,13.33-12.07,11.98-2.72Z"></path><path class="cls-172" d="M312.67,219.27l1-6.01,6.99,1.01v-3.02c4.12,2.51.99-1.3,1-1.98-1.25-1.07-2.33-2.45-3-4,1.01-1.24,2.17-.4,2.12-3.51s-2.03-3.02-2.12-3.49c-1-1.55-2.33-2.55-4-3-3.32-7.34-8.63,3.29-11.04,4.46-3.41,1.66-9.61,1.51-13.35,4.64-1.89,1.58-1.63,3.82-3.61,5.39-1.77,1.41-5.89,1.74-6.77,2.74s-.61,4.73-2.75,5.75c-2.25,1.08-.57-2.36-2.68-3.32-3.21-1.46-5.4.78-7.8-.67,11.71-6.49,23.24-13.59,35-20,9.18-5.01,18.32-10.13,27.66-14.87.81-.51,2.34,1.14,2.34,1.37v26c0,3.22-15.99,10.73-19,12.5Z"></path><path class="cls-39" d="M240.67,184.27l9.47-3.04c5.98-4.32,12.28-7.79,18.89-10.41,4.94,4.59,8.37,4.31,10.3-.84,7.09-7.15,18.53-.24,11.2,8.13,2.32,2.56,3.12,4.9.13,7.16-71.82,39.89-142.88,81.9-214.68,121.82-9.96,5.54-29.75,18.21-39.32,21.18l-1.52-2.63c.57-4.14,1.46-24.1-.33-25.7-8.24.81-16.91-2.3-22.15-8.67-.79,1.3-1.45.97-2-1-.14-1.07-3.27-2.82-1-5,10.02,4.08,16.56,10.72,29,7l-.49,4.01c3.65.13,18.2-12.04,20.45-9.98.19.18-.01,2.08.57,2.9,2.63,3.72,8.05-2.82,2.49-5.43,0-.98,13.65-8.38,15.56-8.53,2.37-.19,1.49,4.02,4.92,3.03,2.83-1.93.13-6.22,3.11-7.89,15.54-6.79,29.77-17.73,44.72-25.28,1.45-.73,10.5-4.93,11.11-4.89.56.04,3.58,7.76,3.09-2,16.42-10.47,34.02-19.35,51.15-28.76,9.36-5.15,37.25-23.3,45.33-25.17Z"></path><path class="cls-130" d="M315.67,161.27c1.42.65,2.75,1.98,4,4,3.14-.02,3.65,2.26,1,4-5.73,3.17-11.32,6.84-17,10-1.77.52-2.85-.24-2-2-.2-1.76-1.2-2.42-3-2,1.14,2.09.89,4.29-1,6-2.17,1.22-4.7,2.72-7,4,.95-7.5-5.03-6.62-8.99-10.51,1.08-.99,4.01-1.82,5.32-1.57s1.05,3.85,3.67,3.07c-.05-3.96,1.24-6.62-3.48-7.08-8.72-.85-5.48,5.83-11.26,6.94-3.92.75-4.07-2.09-6.55-3.13-5.2-2.19-13.49,7.98-18.48,10.01-3.8,1.55-7.25.58-10.23,1.27,21.03-11.58,42.1-23.18,63-35,.65-.37,1.35-.63,2-1,2.74-2.08,10.96,8.74,11.27,10.76.13.82-.63,1.61-1.27,2.24Z"></path><path class="cls-212" d="M12.67,291.27c7.86,3.99,15.78,8.83,24.99,6-.58,10.17,1.25,21.09-.99,31-2.16.67-3.51,1.37-6,1-3.57-.53-9.02-4.46-13-5,.16-.19-.16-.77,0-1,1.57-6.17,1.99-11.94,1.24-17.3-6.88-.13-8.81-3.01-4.46-8.7-1.85-1.34-3.69-4.32-1.78-6Z"></path><path class="cls-106" d="M332.67,133.27c1.13,6.96.03,8.7-.04,14.55-.06,5.53,3.16,11.06-1.96,16.45-3.67,1.52-6.37,2.99-10,5,.18-1.25-.91-3.15-1-4-1.33-1.06-2.66-2.39-4-4-.34-1.49-1.86-3.47-2.56-4.94l-7.44-8.06c2.98-1.68,6.63-4.67,9.96-6.54,5.38-3.03,11.66-5.32,17.04-8.46Z"></path><path class="cls-39" d="M301.67,177.27c.91.53,1.66.89,2,2-1.89,1.05-4.67,1.26-6,2-1.25-3.6-.21-3.71,1-6,2.14-.64,2.97-.52,3,2Z"></path><path class="cls-156" d="M313.67,234.27c5.52-1.61,4.71,11.67,0,6-1.7,1.2-3.37,2.2-5,3l1.21,1.98c-3.8,3.37-7.21,6.71-10.21,10.02,4.51,2.66.29,11.95-4,7-.89,2.87-3.1,2.85-4,0-1.12,1.62-3.48,2.02-7.07,1.21-4.56,6.85-7.53,8.44-8.93,4.79-2.93-1.68-3.6-1.01-2,2,3.84-2.22,4.69.2,2.71,3.96-2.88,5.47-10.32,7.3-15.71,8.04,1.21.98,1.4,3.08,0,4,1.61-.11,1.61.55,0,2-11.97,7.02-24.02,13.99-36,21-3.48-.06-5.81,1.28-7,4-6.26,3.66-12.78,7.37-19,11-3.21.65-2.41-.38-3.52-1.95-8.61-12.13,7.1-12.02,8.52-17.05,1.43-1.43,3.91-2.24,5,0,.16-.01,1.03,1.55,2.93.57s2.26-3.28,3.36-4.27c1.64-1.48,3.28-2.98,4.71-4.3-.66-2.84,1.51-3.49,3-1,.82-.11,1.97.98,3.71.26,2.41-.98,4.62-4.48,8.05-5.09.48-.09,6.89-.25,7.24-.17,3.02.28,3.87-.42,2.54-2.09l1.46-1.91c-.01-.1.8-.64.72-1.34-.15-1.32-1.58-2.59-1.73-4.23-.26-2.87,2.79-6.28,5.04-7.89,2.01-1.42,9.33-2.28,3.96-5.54,14.38-8.19,28.65-16.75,43-25,2.85-.84,6.17-2.26,8.74-3.72,2.27-1.29,5.52-3.65,8.26-5.28Z"></path><path class="cls-210" d="M120.67,359.27c.4-.28,1.56-.04,2.47-1,1.32-1.4,2.09-6.83,5.39-4.82.46.28.1,2.39,2.64,2.88,3.09.59,8.18-2.68,12.1-2.98,2.82-.22.13,1.28,1.4,1.92-25.01,14.52-52.14,33.91-77.98,46.52-1.23.6-6.13,3.43-7.01,2.48-.24-.26.33-2.49-.1-2.87-.3-.26-3.77-.27-3.91-.13,1.97-1.11,3.85-.87,4.01-1.01.34-.31-.75-3.5-1.2-3.84-.59-.45-1.4-.02-1.81-.15-2.83-.91-1.87-3.98,1-4,1.54.94,9.37-1.37,11.24-2.26,4.72-2.26,4.98-6.01,12.76-3.74.45-1.47-.67-2.05-1-2.99.31-1.82.81-3.29,3-3,8.05-6.08,10.39-6.54,20-9,1.3.84,2.64,1.18,4,1,.12-.1,2.45-.83,3-1,1.27-.86,2.61-1.86,4-3,3.54-2.24,3.75-3.34,3-7-.07-2.16.92-3,3-2Z"></path><path class="cls-121" d="M179.67,325.27c4.77-.9,8.16.18,9,5-12.65,7.35-25.36,14.66-38,22,.46-1.79-1.82-2.62-2-3-2.82.17-3-2.62-1-4,11.26-5.31,19.04-11.3,29-18-.98-2.79.62-3.89,3-2Z"></path><path class="cls-139" d="M299.67,255.27c4.66-5.22,9.54,3.46,6,7-2.96,1.79-6.07,3.25-9,5-11.97,7.15-24.06,14-36,21-.09-.64.13-1.43,0-2,.97-1.57.86-2.42,0-4,2.07-4.08,4.57-2.31,7.74-3.76,2.2-1,7.23-5.12,7.27-7.73.02-1.04-1.45-.29-2.01-.51-2.41-2.17-.64-3.93,2-2,.11-.04.84,1.06,2.31-.04,2.06-1.54,3.95-6.18,6.41-6.82,1.77-.46,4.89.78,7.28.86,1.25,3.54,1.96,4.06,2.11,1.56l1.89-1.56c5.39-.38,3.26-2.59,4-7Z"></path><path class="cls-157" d="M37.67,417.27c-.06-2.99.09-6.01,0-9,2.62-.04,5.57-.57,8-1.51,3.42-1.32,7.15-3.88,10-5.49-1.4,1.36,2.06,5.33,1.54,6.01-.77,1-17.68,9.64-19.54,9.99Z"></path><path class="cls-51" d="M224.67,309.27c-2.16,1.27-4.66,2.63-7,4-1.08-5.68,2.69-4.89,7-4Z"></path><path class="cls-177" d="M227.67,125.27c-2.52,2.44-6.73,6.18-9.74,7.76-3.85,2.02-25.44,9.28-26.77,11.24-1.62,2.38,9.5,6.11,11.52,5.01-9.31,1.49-17.57,1.41-27,0-7.41-1.11-12.32-3-19-6-8.41-5.03-9.02-8.01-1.83-8.93,5.88,1.42,12.03,2.55,17.83,2.93,16.9-.19,31.76-5.61,47.16-12.06l2.84,1.06c2.62-2.23,4.28-2.56,5-1Z"></path><path class="cls-105" d="M235.67,86.27c3.6-.78,1.33,2.95,2.01,4.01.16.26,3.54-1.67,4.79,2.71.58,2.02.51,8.51.15,10.72s-1.81,3.63-2.42,5.58c-1.48,4.73-2.22,10.89-8.52,11.98l-.64-1.34,5.64-7.66c-1.88-1.33-1.57-4.17.93-8.51.73-2.96,1.73-10.08-1.93-10.49-1.01.6-2.07,1.29-3,2-2.38-.16-4.76.23-7,1-1.32-.47-.22-1.88,1-2,3.26-1.71,7.02-4.74,9-8Z"></path><path class="cls-25" d="M231.67,121.27c-.56.69-3.08,3.11-4,4-1.66.16-3.44.41-5,1l-.61-2.22c4.06-4.06,8.13-8.13,12.2-12.2l2.42.41c-1.23,3.72-2.43,5.81-5,9Z"></path><path class="cls-92" d="M19.67,361.28c1.5,1.13-.04,5.5-2.48,4.99-3.53-.74-.35-7.12,2.48-4.99Z"></path><path class="cls-197" d="M213.67,44.27c3.72.61,6.91,9.16,7.76,12.86.81,3.5,1.04,11.95-2.76,13.14-5.5,14.34-18.75,21.19-31.72,27.1l-1.28,1.9c-3.29-.13-5.79-.43-9-1-5.11-4,2.81-7.58,7-8,.33.03.67,0,1,0l6-1c7.59-1.95,14.74-6.7,20.05-12.45,7.4-8.02,5.58-24.43.95-33.55.22-1.04.89-.71,2,1Z"></path><path class="cls-141" d="M183.67,90.27c-2.08,3.4-7.66,2.88-7,8-11.72-2.09-20.89-7.33-25-18.99,5.11-.08,8.11,4.46,13.02,6.47,4.51,1.85,14.12,4.14,18.98,4.52Z"></path><path class="cls-27" d="M184.67,102.27c2.67-1.92,12.46-3.25,14,0,3.16-.59,5.16.07,6,2-3.56.9-8.24,2.71-12,3-10.31.8-23.08-3.79-32-8l.64-1.2c2.34.44,4.04.71,6.36.2,6.39,2.4,10.07,3.56,17,4Z"></path><path class="cls-16" d="M216.67,92.27c-.24,2.13-.13,2.24,2,2l.43,2.27c-5.77,3.67-13.55,6.82-20.43,5.73-4.09-.62-9.61.28-14,0,.5-.87,1.05-2,1-3,1.59-1.84,4.22-2.58,7.88-2.21,3.89-1.35,6.93-1.28,9.12.21,1.68-3.25,10.65-5.99,14-5Z"></path><path class="cls-85" d="M201.67,25.27c3.66,3.27,7.51,6.57,11,10,1.78,3.79,2.12,6.79,1,9l-2-1c-2.59-5.11-9.53-10.28-12-16-.24-2.13-.13-2.24,2-2Z"></path><path class="cls-174" d="M167.67,98.27c-1.19,3.28-4.67,1.68-7,1-2.63-1.24-4.61-2.28-7-4,2.02.08,3.08-1.02,3-3,4.91,4.11,5.36,3.89,11,6Z"></path><path class="cls-141" d="M190.67,89.27c-2.42.62-2.81,1.06-6,1,1.12-1.77,4.12-.86,6-1Z"></path><path class="cls-189" d="M17.18,400.28c7.28,2.16.2,8.94-1.36,3.32-.49-1.78.08-2.28,1.36-3.32Z"></path><path class="cls-24" d="M19.66,390.28c1.37,1.89-2.01,5.37-3.99,3.99-2.65-1.83,2.04-6.69,3.99-3.99Z"></path><path class="cls-204" d="M30.66,410.28c1.59,1.59-1.4,4.58-2.99,2.99s1.4-4.58,2.99-2.99Z"></path><path class="cls-208" d="M313.67,234.27c.27-.16.65-1.31,1.6-1.86,1.01-.57,9.05-4.52,9.39-4.14,1.11,5.91-4.05,5.15-6.98,8.5,3.95,2.11,2.72,4.52,6.98,6.5.41.85.03,1.15-1,1-1.37,1.47-1.83,3.36-3.04,4.46-2.81,2.55-9.11,3.46-7.96,9.54-2.3,1.38-4.72,2.62-7,4-.37-1.17-1.75-6.73-2.06-6.96-.16-.12-2.85,1.4-3.94-.04.21-1.25-.4-2.49.51-3.96,1.5-2.45,6.33-3.32,8.49-8.04,1.79-1.06,3.46-2.06,5-3,.11-.15,2.17.73,2.11-1.47-.05-1.83-1.04-3.19-2.11-4.53Z"></path><path class="cls-57" d="M230.67,72.27c-1.08,7.33-7.69,16.19-14,20-4.94,2.98-8.58,3.72-14,5-5.74.42-.5-6.42,1.75-9.04,6.15-4.74,11.27-10.72,14.25-17.96,2.99-14.47-.17-14.62-5-26-.96-2.27-3.92-8.75-1-9,10.81,10.62,20.53,19.82,18,37Z"></path><path class="cls-102" d="M144.67,127.27c8.09,5.04,18.38,8.42,28,9,.87.28.86.62,0,1-.33,0-1.26.84-2.43.84-3.18,0-15.1-2.2-16.91-1.72-5.24,1.37,2.76,4.54,3.34,6.89-12.87-5.78-17.51-9.38-24-22-.5-2.77,1.24-2.49,2.99-1.5,2.51,1.42,5.17,5.11,9.01,7.5Z"></path><path class="cls-12" d="M226.67,94.27l-1,2c-7.83,2.7-11.74,5.67-21,8-2.17.75-5.02-1.85-6-2,5-1.8,10.82-2.91,15.7-4.8,2.38-.92,3.52-2.8,4.3-3.2.11-.06.9-.06,1,0,.36.21.69,2.13,2.48,2.06,1.9-.07,2.58-2.18,3.54-2.54.66-.25.92.51.97.49Z"></path><path class="cls-129" d="M12.67,291.27c-.34,2.58,3.65,4.18,3.9,5.64.28,1.6-3.45,4.05-2.9,6.35,2.84.71,7.28-.48,8.02,3.53.31,1.66-1.43,13.88-2.03,15.78-.41,1.27-1.92.59-1.99.7-3.18.25-5.02-1.96-7-4-.86-9.09,1.17-20.19,0-29,.67.33,1.34.66,2,1Z"></path><path class="cls-120" d="M96.67,236.27c.25.42,1.13,3.8,1.01,3.99-4.97,2.66-8.77-1.33-3.28-3.76.79-.35,1.87-.04,2.28-.23Z"></path><path class="cls-2" d="M245.67,287.27c.16,1.35,1.95,3.02.55,5.03-2.27,3.24-4.19-.95-4.55-1.03-.38-3.06,1-4.38,4-4Z"></path><path class="cls-65" d="M222.67,296.27c-.22.03-2.88.89-3,1-1.29-2.04-1.7-4.47.51-5.99,3.43-.42,4.41,2.23,2.49,4.99Z"></path><path class="cls-136" d="M64.18,380.29c4.5-1.35,4.06,5.35.97,5.98-2.88.59-3.51-5.22-.97-5.98Z"></path><path class="cls-21" d="M208.67,305.27c-1.35.12-3.08,1.88-5,0,.03-.1-1.18-.78-.57-1.92,1.97-3.65,6.29-2.37,5.57,1.92Z"></path><path class="cls-196" d="M57.67,392.27l-1,4c-.66-.21-2.08.41-2.82-.14-1.8-1.33-.83-4.98,1.39-5.85,1.66-.38,2.03,1.74,2.43,1.99Z"></path><path class="cls-94" d="M155.66,329.28c1.59,1.12.43,6.58-2.48,5.99-3.41-.69-.86-8.35,2.48-5.99Z"></path><path class="cls-118" d="M193.66,322.28c2.14,2.16-2.89,7.11-4.99,4.99s2.89-7.11,4.99-4.99Z"></path><path class="cls-214" d="M176.67,327.27c-2.71.68-2.34-1.87-2.07-3.51.6-3.53,5.39-3.39,5.07,1.51-.57.11-2.25,1.5-3,2Z"></path><path class="cls-61" d="M233.67,286.27c-2.17-3.82,4.14-6.67,4.99-3.48s-2.57,3.91-4.99,3.48Z"></path><path class="cls-4" d="M147.67,345.27c1.02,1.05.62,3.18,1,4-2.76,2.36-6.57-.07-4.54-3.05.88-1.3,2.89-.64,3.54-.95Z"></path><path class="cls-55" d="M133.18,349.28c4.6-1.29,4.6,6.27,0,4.98-2.01-.56-2.01-4.42,0-4.98Z"></path><path class="cls-170" d="M103.67,371.27c1.9-.49,4.41-2.95,4,1-.62.52-1.11,3.35-2.5,3.98-1.74-1.2-1.67-3.01-1.5-4.98Z"></path><path class="cls-110" d="M81.67,372.27c-2.29-2.28,4.12-6.31,4.99-2.48.55,2.45-4.34,3.13-4.99,2.48Z"></path><path class="cls-109" d="M80.67,383.27c-.32-.91-1.95-2.23-.91-3.91.45-.72,5.32-2.24,3.91.91-.28.21-.28,3.65-3,3Z"></path><path class="cls-40" d="M94.18,363.28c3.4-.92,4.59,3.28,1.98,3.98-3.4.92-4.59-3.28-1.98-3.98Z"></path><path class="cls-165" d="M164.18,323.28c3.4-.92,4.59,3.28,1.98,3.98-3.4.92-4.59-3.28-1.98-3.98Z"></path><path class="cls-163" d="M117.67,361.27c-.16-.79-1.78-3.24-.99-4,.53-.5,5.39-.54,3.99,2-.68.47-1.07,2.35-3,2Z"></path><path class="cls-91" d="M114.67,368.27c2.66,4.31-3.3,2.79-4,3-.39-3.64,3.14-2.45,4-3Z"></path><path class="cls-74" d="M186.66,310.28c1.91,1.77-4,4.48-3.98,1.49.01-1.03,3.31-2.11,3.98-1.49Z"></path><path class="cls-161" d="M323.67,244.27c.32-.35.65-.69,1-1,.67.31,3.61-.21,4,1.52.65,2.87-5.91,5.72-5-.52Z"></path><path class="cls-113" d="M236.67,112.27l-14,14c-22.33,8.39-24.42,10.66-50,11v-1c17.68,1.07,39.33-9.03,52-20,6.57-5.69,17.66-12.65,11-23,.29-.17.1-1.39,1.48-1,3.6,1.04.62,16.65-.48,20Z"></path><path class="cls-97" d="M114.18,322.28c4.29-1.2,3.96,4.33.98,4.99-2.63.58-3.5-4.28-.98-4.99Z"></path><path class="cls-28" d="M314.67,195.27c1.8-1.73,2.69-1.74,5-1,.43.54-1.19,3-1,4-6.09.73-3.13-1.08-4-3Z"></path><path class="cls-29" d="M318.67,205.27h4c.53,1.41-.98,3.24-1,4-2.5.28-4.64-.72-3.94-3.46.19-.43.8-.36.94-.54Z"></path><path class="cls-149" d="M227.66,256.28c.65.65-.03,5.54-2.48,4.99-3.83-.87.2-7.28,2.48-4.99Z"></path><path class="cls-184" d="M44.66,350.28c.86,4.15-2.5,7.49-3.99,2.51,1.26-1.23,2.11-2.89,3.99-2.51Z"></path><path class="cls-70" d="M73.66,350.28c1.62,1.6-2.37,5.61-3.99,3.99-2.07-2.08,1.88-6.07,3.99-3.99Z"></path><path class="cls-162" d="M132.18,302.28c3.61-.82,2.09,4.98-.01,4.98-2.29,0-2.77-4.35.01-4.98Z"></path><path class="cls-67" d="M239.66,243.28c1.62,1.6-2.37,5.61-3.99,3.99-2.07-2.08,1.88-6.07,3.99-3.99Z"></path><path class="cls-96" d="M307.66,211.27c-2.67,2.64-6.81-5.92-1.5-3.99,1.33.48,2.09,3.4,1.5,3.99Z"></path><path class="cls-62" d="M289.66,226.28c.43.43.96,5.27-2.48,3.98-3.85-1.43.84-5.63,2.48-3.98Z"></path><path class="cls-166" d="M180.67,285.27c-.43-.43-.96-5.27,2.48-3.98,3.85,1.43-.84,5.63-2.48,3.98Z"></path><path class="cls-10" d="M93.27,268.36c5.13-1.66,5.72,4.74,1.73,5.77s-4.51-4.87-1.73-5.77Z"></path><path class="cls-87" d="M72.33,292.42c5.38-1.39,3.36,7.07-1.15,5.85-2.61-.71-1.51-5.16,1.15-5.85Z"></path><path class="cls-167" d="M215.4,209.04c-1.31,1.36-3.19.53-4.73.23-.89-8.55,9.22-4.88,4.73-.23Z"></path><path class="cls-179" d="M184.67,238.27c-1.59-2.01,3.57-7.71,5.99-3.48-.04,2.54-4.45,5.44-5.99,3.48Z"></path><path class="cls-117" d="M145.27,253.37c4.71-1.47,5.76,3.65,1.72,4.75-3.63.99-4.58-3.86-1.72-4.75Z"></path><path class="cls-132" d="M174.18,226.29c4.5-1.35,4.06,5.35.97,5.98-2.88.59-3.51-5.22-.97-5.98Z"></path><path class="cls-160" d="M253.34,193.43c6.7-1.79.1,10.72-2.61,2.47.59-.92,1.57-2.19,2.61-2.47Z"></path><path class="cls-48" d="M47.64,296.31c.94,1.2-.18,5.94-3.46,4.96-4.21-1.25.98-8.13,3.46-4.96Z"></path><path class="cls-32" d="M109.66,278.28c1.22,1.57-1.97,6.72-3.48,5.99-3.89-1.89-.9-7.22,3.48-5.99Z"></path><path class="cls-69" d="M79.67,288.27c-1.65-6.6,6.37-6.06,4.98-1.51-.51,1.66-3.51,1.68-4.98,1.51Z"></path><path class="cls-142" d="M45.66,314.28c.17,1.47.16,4.48-1.51,4.98-4.55,1.39-5.1-6.64,1.51-4.98Z"></path><path class="cls-23" d="M219.18,216.28c4.03-1.14,4.58,4.15.99,5.97-2.12-1-3.81-5.17-.99-5.97Z"></path><path class="cls-9" d="M264.18,181.28c2.94-.66,3.43,5.44.97,5.99-2.94.66-3.43-5.44-.97-5.99Z"></path><path class="cls-11" d="M172.66,241.28l-3.48,4.99c-3.6-3.2-.58-5.7,3.48-4.99Z"></path><path class="cls-59" d="M237.66,194.28c.71,4.06-1.79,7.08-4.99,3.48l4.99-3.48Z"></path><path class="cls-73" d="M198.66,228.28l-1,5c-6.33-.34-5.14-5.79,1-5Z"></path><path class="cls-60" d="M124.18,252.28c3.26-.74,3.56,6.17-1,4.99-2.48-.64-.12-4.73,1-4.99Z"></path><path class="cls-207" d="M119.66,268.28c.38,3.4-.3,5.58-3.99,4.99-.38-3.4.3-5.58,3.99-4.99Z"></path><path class="cls-133" d="M232.67,209.27c-.65-.65.03-5.54,2.48-4.99,3.83.87-.2,7.28-2.48,4.99Z"></path><path class="cls-203" d="M54.66,311.28c.65.65-.03,5.54-2.48,4.99-3.83-.87.2-7.28,2.48-4.99Z"></path><path class="cls-114" d="M203.66,214.28c.65.65-.03,5.54-2.48,4.99-3.83-.87.2-7.28,2.48-4.99Z"></path><polygon class="cls-88" points="99.66 277.28 97.17 282.26 94.67 278.29 99.66 277.28"></polygon><path class="cls-200" d="M269.67,193.27c-.73-.73.37-4.45,2.48-3.99,3.7.81-.55,5.92-2.48,3.99Z"></path><path class="cls-151" d="M301.67,177.27c-.86-.5-2.67-.1-3-2,3.89-7.36,6.92-2.94,3,2Z"></path><path class="cls-56" d="M319.67,165.27l-4,1c-.24-1.54.31-3.6,0-5,7.06-.44,3.8,2.14,4,4Z"></path><path class="cls-33" d="M307.66,157.28l-3.48,4.99c-3.6-3.2-.58-5.7,3.48-4.99Z"></path><path class="cls-153" d="M330.66,148.28c1.62,1.62-2.39,5.61-3.99,3.99-2.08-2.11,1.91-6.06,3.99-3.99Z"></path><path class="cls-191" d="M295.67,262.27c1.14,7.27-7.32,6.33-4,0,1.31.04,2.7.09,4,0Z"></path><path class="cls-205" d="M313.67,240.27c-.82,1.09.65,6.26-5,3,1.01-2.21-.46-5.89,5-3Z"></path><path class="cls-188" d="M275.67,268.27c-1.02.34-1.64,1-2,2-7.47-2.98,1.13-8.43,2-2Z"></path><path class="cls-211" d="M260.67,282.27c3.23-.91,2.97,5.09,0,4-.43-1.9-1.23-1.58,0-4Z"></path><path class="cls-75" d="M202.67,97.27c-6.75,1.6-9.73,2.29-17,2-.02-.43-1.19-1.5-.89-2.39.6-1.82,3.79-1.7,5.26-2.75,5.79-4.09,6.02-3.87,12.17-6.83,8.14-3.92,11.41-9.8,16.47-17.03-2.17,10.52-10.16,14.46-15.42,23.08-.58.94-2.65,3.31-.58,3.92Z"></path><path class="cls-107" d="M16.66,310.28c.23,1.84.06,2.93-1.51,3.98h-1.48s0-3.99,0-3.99h2.99Z"></path></g></svg> 