<?xml version="1.0" encoding="UTF-8"?> <svg xmlns="http://www.w3.org/2000/svg" id="Laag_2" viewBox="0 0 387.9 377.73"><defs><style>.cls-1{fill:#d5b470;}.cls-2{fill:#fcf3b7;}.cls-3{fill:#afb126;}.cls-4{fill:#e5bb1d;}.cls-5{fill:#d6b878;}.cls-6{fill:#edd476;}.cls-7{fill:#c0a365;}.cls-8{fill:#fafccc;}.cls-9{fill:#a26e3f;}.cls-10{fill:#f8edce;}.cls-11{fill:#a0752d;}.cls-12{fill:#f8f2ba;}.cls-13{fill:#81a121;}.cls-14{fill:#e8c335;}.cls-15{fill:#f9f3d6;}.cls-16{fill:#cf9220;}.cls-17{fill:#fcf058;}.cls-18{fill:#8f5422;}.cls-19{fill:#ac952e;}.cls-20{fill:#c4a07a;}.cls-21{fill:#391008;}.cls-22{fill:#f3e2b3;}.cls-23{fill:#f6d43a;}.cls-24{fill:#fcfdf6;}.cls-25{fill:#fdfaf2;}.cls-26{fill:#8a5f3a;}.cls-27{fill:#aab525;}.cls-28{fill:#fcfaf1;}.cls-29{fill:#eebf50;}.cls-30{fill:#f1cb3c;}.cls-31{fill:#dfbd75;}.cls-32{fill:#846320;}.cls-33{fill:#aab034;}.cls-34{fill:#f3e8b3;}.cls-35{fill:#ab9441;}.cls-36{fill:#b37f49;}.cls-37{fill:#8bb025;}.cls-38{fill:#f6e3ab;}.cls-39{fill:#ccee7d;}.cls-40{fill:#5c2207;}.cls-41{fill:#eacf8e;}.cls-42{fill:#dcc695;}.cls-43{fill:#e2ab1f;}.cls-44{fill:#b38c64;}.cls-45{fill:#fdfcea;}.cls-46{fill:#99b421;}.cls-47{fill:#e2a824;}.cls-48{fill:#cead7c;}.cls-49{fill:#f1e5b3;}.cls-50{fill:#dfa61a;}.cls-51{fill:#c99e65;}.cls-52{fill:#6d3717;}.cls-53{fill:#e5b733;}.cls-54{fill:#d4bb8a;}.cls-55{fill:#fdfce8;}.cls-56{fill:#cba669;}.cls-57{fill:#fbee53;}.cls-58{fill:#a47d3b;}.cls-59{fill:#bbb628;}.cls-60{fill:#e6cc8a;}.cls-61{fill:#97b021;}.cls-62{fill:#fcf766;}.cls-63{fill:#eedaa2;}.cls-64{fill:#bc9058;}.cls-65{fill:#eee5d1;}.cls-66{fill:#faf1c6;}.cls-67{fill:#fcf2b6;}.cls-68{fill:#190302;}.cls-69{fill:#96a228;}.cls-70{fill:#af8a48;}.cls-71{fill:#b0780a;}.cls-72{fill:#d9bb76;}.cls-73{fill:#fbf7eb;}.cls-74{fill:#dbc38d;}.cls-75{fill:#b4be30;}.cls-76{fill:#cea86f;}.cls-77{fill:#ac7e55;}.cls-78{fill:#f5eab9;}.cls-79{fill:#fcf9ba;}.cls-80{fill:#bb8842;}.cls-81{fill:#c8a068;}.cls-82{fill:#e9d8b7;}.cls-83{fill:#d3b66c;}.cls-84{fill:#c39256;}.cls-85{fill:#f5db87;}.cls-86{fill:#f9e166;}.cls-87{fill:#ecc966;}.cls-88{fill:#fcf6d3;}.cls-89{fill:#fdfbaa;}.cls-90{fill:#b79270;}.cls-91{fill:#f4e29a;}.cls-92{fill:#faf6e8;}.cls-93{fill:#f9f8c3;}.cls-94{fill:#f6eabd;}.cls-95{fill:#290705;}.cls-96{fill:#f2cc3d;}.cls-97{fill:#f8f5ec;}.cls-98{fill:#ab9558;}.cls-99{fill:#c9b269;}.cls-100{fill:#fcf260;}.cls-101{fill:#916425;}.cls-102{fill:#dbc290;}.cls-103{fill:#f1e4ae;}.cls-104{fill:#906022;}.cls-105{fill:#fcf9ee;}.cls-106{fill:#fefcc6;}.cls-107{fill:#fbf692;}.cls-108{fill:#fdfddc;}.cls-109{fill:#96632a;}.cls-110{fill:#8cb828;}.cls-111{fill:#f6e9ba;}.cls-112{fill:#faf7e6;}.cls-113{fill:#ac953e;}.cls-114{fill:#d1ba8a;}.cls-115{fill:#fcf6da;}.cls-116{fill:#fdfcf7;}.cls-117{fill:#e3d8be;}.cls-118{fill:#e3ce90;}.cls-119{fill:#ebc886;}.cls-120{fill:#6fbc1c;}.cls-121{fill:#dbc39c;}.cls-122{fill:#aaa413;}.cls-123{fill:#fdfdf5;}.cls-124{fill:#a16e34;}.cls-125{fill:#c2b22f;}.cls-126{fill:#76b41d;}.cls-127{fill:#b0b933;}.cls-128{fill:#95b426;}.cls-129{fill:#a68742;}.cls-130{fill:#f0ca3f;}.cls-131{fill:#817133;}.cls-132{fill:#f7ede4;}.cls-133{fill:#210201;}.cls-134{fill:#cdc46e;}.cls-135{fill:#fcfdeb;}.cls-136{fill:#fcfceb;}.cls-137{fill:#fcf2b7;}.cls-138{fill:#fbf1b2;}.cls-139{fill:#bb8b0b;}.cls-140{fill:#fcf5be;}.cls-141{fill:#e0c384;}.cls-142{fill:#c4bb34;}.cls-143{fill:#f8f985;}.cls-144{fill:#e6cd98;}.cls-145{fill:#ab7747;}.cls-146{fill:#fcf3b8;}.cls-147{fill:#bd9760;}.cls-148{fill:#b38660;}.cls-149{fill:#997c69;}.cls-150{fill:#8b5526;}.cls-151{fill:#f9f7e8;}.cls-152{fill:#fcfaf2;}.cls-153{fill:#d7b172;}.cls-154{fill:#d2b37a;}.cls-155{fill:#cbae7c;}.cls-156{fill:#eedeb0;}.cls-157{fill:#c0a573;}.cls-158{fill:#ebd9b7;}.cls-159{fill:#e4c99e;}.cls-160{fill:#c4a079;}.cls-161{fill:#d9a957;}.cls-162{fill:#fcfbef;}.cls-163{fill:#fdfbf3;}.cls-164{fill:#8cba24;}.cls-165{fill:#977132;}.cls-166{fill:#e6b126;}.cls-167{fill:#f5ee95;}.cls-168{fill:#faf7a4;}.cls-169{fill:#fcf6a7;}.cls-170{fill:#95623a;}.cls-171{fill:#fafb96;}.cls-172{fill:#c2a077;}.cls-173{fill:#fbfbe3;}.cls-174{fill:#885e25;}.cls-175{fill:#ceb174;}.cls-176{fill:#fced56;}.cls-177{fill:#c9a67b;}.cls-178{fill:#b0af20;}.cls-179{fill:#b3854f;}.cls-180{fill:#d0b482;}.cls-181{fill:#56260d;}.cls-182{fill:#e8d8b3;}.cls-183{fill:#f3e5c0;}.cls-184{fill:#fbf5c6;}.cls-185{fill:#917239;}.cls-186{fill:#fdfbe2;}.cls-187{fill:#e7c984;}.cls-188{fill:#b68450;}.cls-189{fill:#7d400a;}.cls-190{fill:#99b525;}.cls-191{fill:#dabc84;}.cls-192{fill:#77491d;}.cls-193{fill:#af8348;}.cls-194{fill:#bea66b;}.cls-195{fill:#f2df9e;}.cls-196{fill:#eedaa9;}.cls-197{fill:#f0db9a;}.cls-198{fill:#a58c11;}.cls-199{fill:#75b21f;}.cls-200{fill:#fcfaaa;}.cls-201{fill:#e9d652;}.cls-202{fill:#9d7a30;}.cls-203{fill:#fdfbf5;}.cls-204{fill:#fefdfc;}.cls-205{fill:#b7872f;}.cls-206{fill:#44260c;}.cls-207{fill:#e7cc93;}.cls-208{fill:#fcfce5;}.cls-209{fill:#fbf9f3;}.cls-210{fill:#ceb99b;}.cls-211{fill:#fcfbf1;}.cls-212{fill:#c09756;}.cls-213{fill:#f7de9a;}.cls-214{fill:#f8e6ab;}</style></defs><g id="Laag_1-2"><path class="cls-68" d="M338.84,325.64c-5.77,5.39-8.84,12.35-16.97,18.53-59.41,45.11-198.52,45.97-254.8-4.86-4.08-3.69-7.81-9.55-11.59-12.41-3.05-2.31-8.02-4.16-11.46-6.54C-33.2,266.76-.38,197.2,77.3,170.59c5.77-1.98,12.16-4.35,18.24-4.26-7.28-16.17-1.68-34.12,9.95-46.54,1.38-1.48,5.09-3.39,5.58-4.41s-1.31-3.89-1.45-5.63c-1.29-15.49,5.11-29.26,16.91-38.93,11.83-9.7,29.97-12.15,28.95-31.85-.36-6.96-6.18-17.2-13.7-18.43-3.74-.61-12.87,2.84-14.1-.84-3.62-10.89,9.38-18.2,18.46-19.26,31.35-3.66,63.12,15.94,83.88,37.65,26.51-20.46,60.38-17.62,77.92,12.33,13.15,22.45,11.03,41.09-8.4,58.42-2.23,1.99-12.07,7.97-12.07,9.97,6.83,9.53,12.55,20.68,14.76,32.31.83,4.34.59,12.87,1.46,15.54.66,2.04,17.94,7.82,21.52,9.48,38.04,17.65,66.78,42.92,62.2,88.56-2.19,21.86-21.38,42.24-38.14,54.86-2.76,2.08-8.47,4.23-10.44,6.07Z"></path><path class="cls-17" d="M154.54,10.34c5.03.74,14.4,2.66,15,8,.48-.31.97-.56,1.48-.61,1.03-.11,7.11,4.63,8.46,5.77,2.71,2.27,8.28,7.54,7.06,10.85,6.31,3.58,7.92,4.76,6.17,12.15,2.17,4.37,6.47,6.16,8.3.51l2.53-.67,1.16-.41c3.14,4.96,5.75,10.1,7.84,15.41.28-.87.62-.86,1,0-2.25,8.1.11,16.28-1,24-2.69-.58-4.22,1.47-4.58,6.15l-2.42.85-12.84,15.84c-.76,1.05-1.95.71-3.16.16-1.54,6.09-11,9.42-16.92,11.14-17.02,4.96-43.83,2.1-52.15-15.72.36-2.99.38-5.47.08-7.42-2.9-2.78,2.55-8.44,5.05-10.68s7.54-6.52,9.95-3.32c4.46-1.99,9.12-2.66,14-2,.93-2.68,3.05-4.92,6.36-6.71,2.28-3.06,4.83-4.82,7.64-5.29l4-9c-.86-.33-.86-.66,0-1,2.8-5.34,1.69-13.22-1-18l-2.07-1.4c-1.13-15.29-12.19-28.67-28.53-25.17-.56-.71-.66-1.53-.4-2.43.31-.33.65-.71,1-1,5.01-1,13.42-2.42,18,0Z"></path><path class="cls-57" d="M266.54,162.34c3.48,3.12,2.45,10.3-1.98,12.75-1.81,4.03-4.15,7.44-7.02,10.25l1.35,1.78c-2.14,4.45-1.98,6.34,1.65,9.22.52,1.58,5.57.4,5.69.13-.72-3.4.59-7.56,4.77-6.47-2.21-2.35,2.19-7.11,4.37-9.25,2.83-3.52,5.55-4.98,8.17-4.4v1l1.47,2.07c-4.16,11.81-10.63,22.8-17.93,32.92h-2.54c1.99,2.39-2.23,7.57-5,6.01-.05.74-.14,1.47-.35,2.17-3.44,11.04-53.19,31.86-66.65,24.83-5.12.05-10.56-.87-16-1-8.19,1.7-16.42,2.14-24.68,1.3l-3.32-2.3c-4.11-3.89-11.08-7.48-16-12l-2.07-2.08c-12.37-4.4.98-9.13,5.07-2.92l3.57-1.93c11.58-.43,23.06-1.45,34.43-3.07l1.91-2.63c22.37-8.04,45.77-19.26,59.09-39.37,1.51-1.22,3.73-1.99,5-3,1.38.85,1.38,2.08,0,3.69,8.94-2.96,20.73-8.11,22.6-18.26,1.85-2.13,3.75-2.34,4.4.57Z"></path><path class="cls-116" d="M40.54,286.34c-19.14-13.49-29.53-42.83-16-63.7,3.17-4.89,7.69-4.7,6,.7,1.47,2.8-.98,9.94-4,11,2.62,1.9,1.22,10.21-.56,12.19l.56,4.81c2.51.65,5.17,8.38,3,10,22.25,52.66,125.68,64.91,175.55,64.05,45.22-.79,137.87-16,155.45-65.05-1.22-2.32-1.08-5.25.41-8.81-.17-4.02.7-7.08,2.59-9.19-2.78-1.25-2.69-4.75,0-6,0-2.93,3.34-2.8,4,0,3.14.73,2.85,12.07,2.1,14.7l-2.1,1.3c3.38,4.33-.58,12.63-2.97,17.46-12.6,25.44-44.94,41.76-70.9,49.63-3.54,9.55-15.12,9.26-22.86,5.99-17.82,3.23-35.76,4.96-53.84,5.19l-2.43-1.26c-19.97,2.24-40.02,1.73-60.17-1.53-9.2.47-17.81-.68-25.83-3.47-1.83,1.76-4.86,1.76-9.1,0-4.06,6.35-21.26,2.23-19.26-5.84-21.59-5.27-41.37-14.25-58.7-28.95l-.94-3.2Z"></path><path class="cls-204" d="M185.54,129.34c12.27-5.72,19.98-15.74,25.86-27.64.98-1.98,2.81-9,3.15-9.36,1.74-1.78,2.62,2.48,2.99,3-.86,2.77-.08,4.64,1.96,6.45l6.76,10.14-.72,2.41,1.11,2c-1.11,3.84-4.61,13.43-6.52,16.64-4.78,8.01-19.27,12.03-28.26,11.46-3.02,4.03-4.81,5.01-9.06,7.26-9.91,5.24-53.1,17.58-62.42,13.96-11.82-6.53-7.77-9.63,12.15-9.31l1.24-1.07c10.48-1.44,20.73-4.42,30.76-8.93,4.39-1.9,7.26-4.27,8.62-7.1,2.64-2.14,10.02-7.7,12.65-8.76.16-.06-.46,2.86-.27-1.14Z"></path><path class="cls-203" d="M284.54,108.34c-3.23,4.34-13.22.98-18.1-.72-11.33-3.95-24.42-12.39-26.9-24.28-5.91-10.35-6.8-23.85-2.49-34.99,10.43-26.92,45.52-21.41,61.51-2.54,16.95,20,17.36,59.38-14.02,62.52Z"></path><path class="cls-188" d="M379.54,258.34c1.8-.47,2.94.3,3,2-.42,6.54-1.71,10.14-4,16-17.29,34.13-52.48,51.81-88.48,62.07-12.88,3.67-27.45,7.4-40.52,6.93-3.17-.71-11.22-4.04-7-7l2.27-2.31c48.19-8.27,114.52-23.39,132.16-75.32l2.58-2.38Z"></path><path class="cls-38" d="M85.54,182.34l-2.15,2.82c-19.2,9.3-38.19,21.01-50.64,38.51l-2.21-.33c-.58-.88-1.57-3.19-2.98-1.99-.63.53-5.14,10.38-5.56,11.95-5.32,19.71,4.1,39.98,18.54,53.04-1.37,2.25-6.76-.78-8.42-2.3-4.55-7.1-9.95-13.72-15.45-20.18-3.1.86-5.14.36-6.12-1.52-1.06-.64-1.4-1.97-1-4-4.6-.85-3.39-6.26-2.53-9.93l-.47-3.07c.04-.33-.04-.67,0-1,3.17-7.91,6.85-15.77,11.03-23.57,6.62-15.16,55.74-46.81,68.5-45.09.84.11,1.66.37,2.47.66-.92,1.63-2.25,4.28-3,6Z"></path><path class="cls-43" d="M265.54,220.34c2.99-2.03,7.4-7.41,10.16-11.16,8.45-11.48,12.02-20.98,14.3-34.53,2.2-6.11,5.7-3.74,4.99,1.92l-.45,5.77c.81.96,1.49,2.13,1.26,3.41-3.93,21.95-18.23,38.64-36.26,50.59-6.37.77-10.92-.88-17.7,1.8-8.53,3.37-20.61,17.67-27.93,18.18-4.31.3-8.73-4.96-12.69-7.16-2.92-1.62-6.07-1.94-8.68-3.82,24.52-.22,49.24-9.92,67-27,1.41,1.75,3.41,2.42,6,2Z"></path><path class="cls-166" d="M205.54,92.34c1.16-2.67,1.82-8.68,3.98-10.52,2.95-2.51,1.49,3.39,3.02,3.52-2.44,16.94-19.28,35.88-35,42l-1.96-.48c-9.81,3.69-24.99,6.01-36.04,1.48-3.07,1.95-10.57-2.1-13.79-4.42-3.77-2.72-6.57-4.97-6.21-9.58-4.78-2.07-4.27-16.61,1-18,3.73-2.73.99,2.57,1.21,4.26,1.17,9.17,13.32,15.77,21.57,17.46,16.8,3.45,32.81,1.23,46.22-9.72,1.59,1.58,2.87,1.55,3.83-.09,3.87-5.44,7.93-10.75,12.17-15.91Z"></path><path class="cls-133" d="M96.54,343.34c2.29-1.36,7.84-.33,10.25.25,4.72,1.13,12.65,7.85,14.75.75l2.8-.72c15.67,2.92,31.41,5.16,47.2,6.72l5,1c.92-1.55,2.04-1.53,3,0,13.46-1.59,27.4-1.3,41-1,2.51-3.07,8.08-3.75,11-1,15.51-2.29,31.02-4.88,46.53-7.78l2.47.78c2.47,4.77,8.82-.16,12,2-9.39,6.48-22.74,8.41-34,8-4.06,3.9-13.78,4.95-19,3-1.76.72-3.43.72-5,0-1.09,1.13-2.38,2.15-3.97,2.37-36.02,5.01-71.17,1.2-106.53-5.13l-3.5-2.24c-9.19.17-17.19-2.16-24-7Z"></path><path class="cls-163" d="M174.3,250.59c26.35-3.54,43.51,12.1,39.01,39.01-3.78,22.58-35.09,33.63-54.12,22.59-27.51-15.94-14.38-57.64,15.12-61.6Z"></path><path class="cls-211" d="M115.54,123.34c.74,1.91.18,4.25-1.68,7.03,18.46,8.75,38.05,11.81,58.57,6.27,5.58,3.41-4.23,7.91-7.89,8.71-1.99,1.58-5.58,3.59-8,3-2.41.36-4.87.74-7,2-.24.89-.58.87-1,0-12.88,4.5-34.85,3.41-41.81-10.09l-2.19.09.81,2.47c-3.25,7.93-2.55,16.58,1.89,23.93l-.7,2.6c1.92,2.24.4,3.35-2,2-13.44-17.24-6.85-37.67,8.53-50.99,2.3-.53,2.08,2.58,2.47,2.99Z"></path><path class="cls-214" d="M304.54,179.34l.97-2.11c32.55,9.21,68.81,32.06,75.03,68.11.92,1.21,1.27,3.85,0,5-.33,5.8-9.24,3.61-13,2,.37-4.49.38-11.52,0-16l-2.12-.81c-.55-7.87-3.18-12.27-7.88-13.19l-2.37.07c-10.36-14.33-24.78-24.97-40.81-32.84l-4.82-4.23c-1.17-1.75-3.88-3.7-5-6Z"></path><path class="cls-25" d="M247.3,241.6c18.37-2.72,32.99,5.85,42.04,21.44,23.19,39.98-31.32,57.8-53.62,20.62-8.61-14.35-8.46-39.09,11.58-42.06Z"></path><path class="cls-56" d="M82.54,191.34c-2.1,4.49-3.16,2.6-5.52,4.98-7.71,7.75-22.54,27.15-26.48,37.02-1.12-.81-2.97,1.17-5.54,5.94l-2.46.06c-2.86,2.43-8.63,5.03-12,4-2.9-.75-2.8-4.18,0-5-1.23-5.03-.33-7.11,2.17-11.91,9.2-17.6,31.81-30.68,49.26-38.54,1.27.41,1.46,1.56.57,3.45Z"></path><path class="cls-111" d="M42.54,239.34c1.26-1.87,3.91-5.76,5.47-7.03,1.83-1.49,2.86-1.77,2.53,1.03-3.66,9.18-5.15,16.92,1,25,2.14,12.71,10.05,19.6,20.27,26.55,1.25,1.57,2.91,4.48,2.73,6.45,2.74.11,7.05,7.43,2,6-14.8-7.18-36.14-21.61-43-37-.87-.33-.87-.66,0-1-.89-7.09,2.56-16.71,9-20Z"></path><path class="cls-94" d="M341.54,234.34c3.58-.53,9.03,6.8,7,10,6.17,2.45,8.31,13.96,5,20-12.26,20.88-35.37,33.2-58,40-4-3.65,4.21-9.25,8.08-10.44,14.58-3.02,25.5-10.77,31.92-24.56,9.41-10.39,7.88-21.69,3-34-1.6-4.87.04-4.11,3-1Z"></path><path class="cls-81" d="M356.54,231.34l-.76,1.57c.28,4.56-1.33,14.83-7.24,11.43-2.08-4.08-4.68-6.76-7-10-3.37-2.7-6.37-6.04-9-10-2.4-2.21-9.2-8.75-10.28-11.31-.83-1.97.02-5.42-1.23-8.69-.87-2.28-4.06-7.64-5.49-10.01,1.2-.47,2.39-.48,3.62-.21,7.27,1.55,24.71,17.55,30.47,23.42,2.38,2.43,9.8,11.22,6.9,13.79Z"></path><path class="cls-28" d="M109.28,230.58c21.71-3.73,27,19.29,21.98,35.97s-24.21,31.81-42.53,26.1c-20.38-6.35-10.86-36.43-.69-48.33,4.29-5.02,14.75-12.63,21.25-13.75Z"></path><path class="cls-162" d="M166.54,48.34c4.32-4.39,2.96,7,1,10-.05.32.06.68,0,1l-4,9c-3.75,4.96-8.46,9.16-14,12-4.98-.37-9.64.3-14,2-6.77,1.65-12.57,7.81-15,14-2.18,5.56-3.23,12.16-1,18,1.32,3.56,1.56,6.48-2,3-7.7-13.91.39-31.59,11.53-40.97,6.45-5.44,14.17-8.28,20.47-13.03,1.55-.1,2.27.86,2.19,2.88.7.09,7.19-3.71,7.81-4.88l-.91-2.03c3.14-3.16,5.45-6.81,6.91-10.97.22-.93.55-.9,1,0Z"></path><path class="cls-53" d="M228.54,183.34l-.26,2.84c-8.26,7.35-17.03,13.93-26.94,18.92l-2.81-.77c-1.87,1.11-3.54,1.44-5,1,1.25-1.79,1.25-2.46,0-2-1.54-.2-3.17-.55-4.9-1.05-26.58,3.92-56.83,3.59-80.14-12.29-4-2.72-10.87-7.77-7.96-12.66.28-.87.62-.86,1,0,29.52,27.31,73.65,25.64,109.52,13.02,6-2.11,11.34-5.69,17.48-7.02Z"></path><path class="cls-50" d="M280.54,124.34c.82.21,1.52.49,1.78,1,2.71,5.2,3.73,16.16,3.22,22,.53-4.95.1-10.07-1.28-15.35l1.28-.65c1.9-.67,3.4,2.09,3,4,2.56,1.81,4.93,7.01,4,10l1.95,15.28c-4.44,5.69-5.43-2.9-5.08-7.05-.81-.97-1.43-2.05-1.86-3.23,2.92,2.24,3.28,12.75,0,14.5,3.41,1.91-.2,12.68-4,12.5.08-.31-.08-.68,0-1-1.13-4.4-1.11-9.24.06-14.51-.58-5.5.06-10.33,1.94-14.49-1.04,3.35-3.91,1.29-4.71-1.6-2.18-1.79-11.7,12.82-11.97,15.75l-2.33.84c-3.67-.6-2.36.37-3.3,2.17-1.22,2.34-1.87,5.31-3.69,7.35-2.25,2.51-20.22,10.95-23.51,11.5-.58.1-1.65.26-1.5-.51l5-6.5c15.37-12.23,24.89-22.33,33.04-40.46,1.7-3.78.59-7.66,4.61-10.44,1.11-.77,2.56-.68,3.35-1.11Z"></path><path class="cls-54" d="M249.54,124.34c1.9.83,2.21,2.63.95,5.39l7.21,2.92c3.67,1.21,4.95,3.11,3.84,5.7.35.44.67.89.83,1.39.61,1.81-9.32,18.04-12.83,17.61-5.62,3.98-11.29,2.98-17-3l-.9-1.96c2.54-2.96,14.63-18.32,13.37-20.79-.19-.38-6.35-5.15-6.77-5.08-3.64,3.97-5.4,2.23-5.96-2.42-1.86-1.55-2.44-3.13-1.75-4.74-1.88-2.24-1.03-4.5,2-4,2.79,2.1,13.49,7.64,17,9Z"></path><path class="cls-152" d="M299.31,208.53c16.51-2.38,36.33,27.16,37.21,42.32,1.06,18.08-12.45,19.35-25.34,11.35-8.6-5.34-19.62-22.75-21.19-32.8-1.1-7.03.75-19.63,9.31-20.86Z"></path><path class="cls-160" d="M6.54,245.34l2.01,4.5c-3.34.79-1.79,3.57-2,6.5l1.98-3.99c.95,1.88.6,4.31,1.01,5.99,4.32,41.1,52.89,64.05,88.73,74.91l3.27,3.09c1.95.62,3.85.47,5.71-.41,22.15,6.39,44.98,9.94,67.98,11.14l5.3,2.26c2.17,1.12.96,1.51-1,2-1,0-2,.02-3,0l-5-1c-16.48-.32-33.81-2.67-50-6C73.34,334.43-.04,305.25,6.54,245.34Z"></path><path class="cls-28" d="M6.54,244.34c4.75-34.78,50.39-67.48,83.52-71.99,3.72-.51-1.31,3.62-1.52,3.99-8.99,2.58-17.65,6.18-25.88,10.62-22.21,11.99-39.84,22.49-50.34,46.66-1.45,3.33-.73,9.95-5.78,10.72Z"></path><path class="cls-62" d="M182.54,20.34c2.47-.33,8.19,1.01,8,4,3.23-2.31,6.16,4.53,7.29,7.21l2.71,2.79c3.16.49,4.46-.22,3.9-2.13l2.1-.87c-1.28-1.72-.75-2.25,1-1,3.13-2.17,17.1,10.83,16.74,12.72-.09.46-.38.88-.74,1.28-2,1.93-9.21,14.16-10,17h-1c-3.29-7.58-6.85-15.15-12-22-2.38,1.76-5.87-1.21-5-4-.61.19-1.21.31-1.75.19-1.26-.3-19.34-15.31-19.88-16.49-.24-.51-.33-1.09-.37-1.69-1.56-.97-2.54-2.17-1.09-2.78,2.92-1.22,8.57,3.18,10.09,5.78Z"></path><path class="cls-150" d="M357.54,222.34c2.75-1.46,7.31,9.95,7.53,12.09l-1.53,1.91c.3,1.6-.04,4.17,0,6-1.34,3.33-3,5.33-5,6l-1.93-1.89c-.56-5.4-.58-10.44-.07-15.11-1.11-2.73-3.78-6.46-5.58-8.92-9.06-12.33-22.35-20.56-35.42-28.08-1.59-2.63-4.16-6.24-6-9,10.2,4.34,21.23,10.65,29.91,17.59,5.42,4.33,14.32,13.65,18.09,19.41Z"></path><path class="cls-45" d="M234.54,179.34c-1.23,8.55-10.84,16-17.67,20.83-11.89,8.4-29.38,17.38-43.33,21.17l-12.51,1.93c-3.68-.96.14-2.9,2.51-3.93l1.27-1.62c11.55-3.59,22.79-8.06,33.73-13.38,14.75-7.83,17.71-10.55,30-21,1.87-1.59,4.44-2.74,6-4Z"></path><path class="cls-18" d="M85.54,182.34c-1.3,2.98-1.64,6.09-3,9,1.12-3.83-5.15.53-5.67.83-18.41,10.26-41.95,23.85-46.33,46.17-1.68-.53-3.86-2.04-4-4,.68-3.64,2.02-7.83,4-11,.62-.99,4.39-5.74,5.47-7.03,12.35-14.65,32.05-26.62,49.53-33.97Z"></path><path class="cls-20" d="M280.54,342.34c-16.75,4.08-31.92,5.51-49,7-1.65-.16-2.82-1.1-1.71-2.18,2.03-1.98,16.65-4.17,19.71-1.82,37.93-5.47,77.06-16.5,107.01-41.49,9.18-7.66,14.08-18.71,21.99-27.51-14.44,36.91-61.92,57.21-98,66Z"></path><path class="cls-182" d="M185.54,129.34c1.05,1.21,3.12.6.93,2.42-7.96,6.6-12.7,9.94-21.93,14.58-.84-.29-.83-.62,0-1,2.38-1.13,11.19-4.55,7.52-6.97-15.88,4.26-32.14,3.94-47.72-1.33-3.85-1.3-8.07-5.31-12.8-4.71-.91-.9,2.57-7.97,4.01-8.99,18.52,19.36,47.39,16.54,70,6Z"></path><path class="cls-105" d="M381.54,244.34c-.06.93-.39,1.27-1,1-2.05-.62-1.87-2.55-2.33-4.17-8.48-29.63-28.61-42.24-54.62-55.38-5.1-2.58-13.51-7.42-19.04-6.46-.87-1.79-.75-3.11.52-5.02,32.7,11.39,70.88,32.53,76.48,70.02Z"></path><path class="cls-73" d="M82.53,199.34c4.13,14.82-7.12,39.6-19.08,48.41-11.04,8.14-12.49,2.48-9.43-8.43,2.73-9.75,15.64-27.63,22.54-35.46,1.71-1.94,3.5-3.61,5.97-4.52Z"></path><path class="cls-51" d="M295.54,304.34c-3.24.97-7.52,3.87-11,2.5,5.62-3.42,9.24-6.77,12.4-12.6.93-1.72,1.45-5.71,2.55-6.45,1.75-1.17,9.14-.17,12.3-.7,7.1-1.19,18.81-12.32,23.74-17.76-.67,9.33-10.3,18.46-18.31,22.19-7.3,3.41-19.86,3.63-21.69,12.81Z"></path><path class="cls-170" d="M292.54,344.34c10.69-3.02,21.48-5.91,31.49-11.01,1.78,1.25-.4,2.12-1.17,2.83-3,2.76-7.79,5.98-11.32,8.18l-1.6.07c-6.24,4.08-12.71,6.73-19.4,7.93l-5.36.78c-5.76,2.67-12.25,4.99-18.43,2.22-3.46.85-10.69,2.33-8.21-3,11.68-2.11,22.75-4.82,34-8Z"></path><path class="cls-1" d="M228.54,283.34c2.1,1.34,3.16,3.78,3.17,7.32,1.64-.68,2.92-.45,3.83.68,1.12,1.46,10.43,10.03,12,11,.47,3.59-5.41,9.06-9,11-2.5.33-1.91.7-4.68-.79-10.44-5.61-5.9-5.96-5.31-13.71.39-5.09-.29-10.4,0-15.51Z"></path><path class="cls-4" d="M166.54,40.34c2.37,2.29,2.42,5.72,0,8-.33,0-.81-.08-1,0-1.17,3.3-4.05,11.07-7.03,6.99l1.03-7.99c.11-.48-.17-1.07,0-1.49.2-.47.51-.58.99-.51,2.23-8.04-.78-19.87-8-25-6.72-4.8-11.61-6.62-19.99-4-.4-2.58,1.72-3.61,2.99-5,1.87,1.76,4.81-.15,7.45-.04,14.5.63,23.27,16.04,23.55,29.04Z"></path><path class="cls-95" d="M239.54,83.34c3.04,2.16,6.06,9.01,9.48,12.02,8.77,7.73,23.73,14.16,35.52,12.98.14,2.06,4.92,3.1,3.99,3.99-.97.12-2.2.48-2.99,1.01-4.05,1.33-10.63,3.19-13-1-3.7.44-5.7-.23-6-2-2.87,2.33-10.05-1.34-10-5-3.94.67-5.61-.33-5-3-2.17,2.34-9.11-2.98-8-6-3.46.54-9.15-7.2-7-10-2.57,1.24-4-.9-2-3-2.7-.41-2.53-1.12,0-2,1.28.58,4.04,1.32,5,2Z"></path><path class="cls-86" d="M198.54,204.34c-11.3,6-22.09,11.95-35,15-1.46.57-2.52,1.48-3.16,2.72-7.69,1.63-15.52,2.33-23.21,2.46l-1.63,1.81c-3.1-.12-5.89-1.2-9-.99.39,2.47,3.66,2.4,4.71,3.3.83.7.86,2.3,1.29,2.69-5.43-2.78-9.16-4.33-15-6-8.3-.3-6.96-4.63,0-4l4.19-1.86c11.39-.55,22.66-.93,33.81-1.14l.98-1.22c12.47-2.72,24.43-6.84,35.89-12.36l1.13.58c1.53-.4,3.43-.31,5-1Z"></path><path class="cls-60" d="M230.54,69.34c1.23,5.75,1.62,6.8,4,12,.21.46-.22,1.58,0,2,2.1,1.85-8.95,9.76-9.69,9.77-.87,0-1.63-.19-2.31-.77-2.43-5.88-3.63-10.68-4-17,.25-2.04,9.92-8.32,10.48-7.95.76.5,1.36.98,1.52,1.95Z"></path><path class="cls-209" d="M141.54,7.34c19.78-6.26,46.14,5.01,62,16,1.45,2.62-.22,2.62-5,0-1.99,2.16-6.19-.1-6-3-3.83,2.21-9.94-2.11-13-5-1.01,1.29-2.37.59-2-1-2.1-.29-4.16-.9-6-2-2.58,4.8-8.87.39-12-2-6.63-1.13-13.25-1.52-19.86-1.17l1.86-1.83Z"></path><path class="cls-147" d="M51.54,258.34c3.36,4.4,9.78,12.2,13.98,15.52,1.8,1.42,6.66,3.3,6.86,3.63.73,1.23.67,8.32,3.16,11.84,1.19,1.95.86,2.61-1,2-5.19-8.48-13.5-9.93-18.84-17.66-2.47-3.57-6.43-11.16-4.16-15.34Z"></path><path class="cls-92" d="M101.54,177.34h-1c-.76,5.05-3.02,12.99-7,16-.4,7.09.63,13.65,3.09,19.68l-1.09,2.32c.8,1.08,1.13,2.08,1,3,1.26,1.95.93,2.61-1,2-8.82-11.06-10.3-24.02-4.5-37,1.89-4.23,8.15-15.14,10.5-6Z"></path><path class="cls-175" d="M256.54,105.34c3.04,1.8,6.7,3.76,10,5,.57.51,1.19,1.27.9,1.83-.61,1.17-7.36,8.23-8.9,8.17-3.24-.55-12.08-2.27-14.39-3.92-1.08-.77-.45-1.87-.61-2.08,1.28-3.96,8.2-11.5,13-9Z"></path><path class="cls-158" d="M169.54,190.34c.66-1.73,2.2-1.95,3,0,2.86.06,2.73,2.32,0,3-23.39,1.33-52.66-2.32-68-22l2-2,2.96.63c14.03,16.31,37.47,19.05,57.78,18.49l2.26,1.88Z"></path><path class="cls-213" d="M295.54,174.34c3.58-2.7,1.47,7.32,1.88,4.02l1.12-.02c-.93,13.83-6.5,26.73-14.78,37.72-4.26,5.65-17.54,19.48-24.22,20.28-.49-2.14,1.22-2.13,2.41-3.04,17.87-13.72,29.56-27.7,32.59-50.96.01-2.9.35-5.56,1-8Z"></path><path class="cls-148" d="M311.54,344.34c-23.96,14.94-60.79,25.91-89,26-1.67.75-3.37.81-5,0-.21.68-.55.65-1,0-.87-.28-.86-.62,0-1,1.08-2.5,8.95-3.97,10-1,6.55-3.43,13.89-4.43,22-3,4.03-3.53,8.84-4.57,14-3-.17-2.82,3.15-4.35,5-2-.25-1.94,1.63-2.29,3-1,.95-3.39,10.25-5,13-3,1.03-1.18,2.5-1.77,4-2-1.09-1.94,1.22-2.06,3-2,5.7-2.5,11.36-4.8,16.99-7.51,1.02-.49,3.41-2.5,4.01-.49Z"></path><path class="cls-26" d="M96.54,343.34c7.85,2.38,15.99,4.59,24,7l-.57,2.17c-4.76.66-9.57.61-14.43-.17l-.78,1.13c-8.33-3.01-16.31-7.06-24.22-11.13-2.98-2.02-5.72-3.42-8-6.5,3.02-.28,7.11,2.33,10.48,3.52,4.48,1.59,9.01,2.62,13.52,3.98Z"></path><path class="cls-82" d="M268.54,129.34c-6.1,22.79-25.35,39.94-46,50-1.89.51-2.56.17-2-1l.96-2.73c9.29-5.43,18.15-11.52,26.58-18.25l1.46-.02c6.2-6.51,8.42-11.08,12-19-1.02-1.9-.64-3.96,1.15-6.17.07-4.33,3.02-5.2,5.85-2.83Z"></path><path class="cls-90" d="M105.54,352.34l3.64.04c5.55,3.2,11.76,4.85,17.9,6.48l1.47,2.48c6.13-.53,12.52.29,19.17,2.45,6.98.38,13.26,1.9,18.83,4.55,2.2,1.14,1.04,1.59-1,2-28.11-2.13-61.58-12.18-85-28l25,10Z"></path><path class="cls-48" d="M356.54,231.34c2.22,5.46,2.25,11.17,2,17,3.18,1.3,1.77,11.25-2,11-.81,2.14-2.01,3.31-3,5,.92-7.48-1.71-13.55-5-20,5.06-1.29,4.48-5.92,5.52-10.03.42-1.68-.11-3.53,2.48-2.97Z"></path><path class="cls-72" d="M243.54,96.34l-9.58,7.95c-1.55.99-3.03,0-4.42-.95-2.07-2.49-3.39-4.1-5-7-.87-3.59,8.45-10.91,12-10,.88,1.47,6.16,9.11,7,10Z"></path><path class="cls-153" d="M261.54,306.34c4.17,2.98-1.45,6.61-5,8-4.36.75-10.91,2.39-15.01,1.52-2.42-.51-2.38-.56-.99-2.52,2.19-3.23,5.75-8.19,9-10,2.78,1.18,8.89,2.54,12,3Z"></path><path class="cls-154" d="M217.54,295.34c1.86.52,4.38,3.73,4,6-1.64,6.75-1.36,9.51-7,15-2.34,2.18-9.93-2.97-9-6,.47-.37,4.55-4.46,5-5,3.93,2.53,4.27,2.2,1-1,1.72-2.32,3.65-9.56,4.01-10.01.26-.32,1.55.93,1.99,1.01Z"></path><path class="cls-5" d="M251.54,102.34c1.48,3.19-6.94,10.53-10,10-1.16-.45-2.53-.1-4.35-1.12-1.98-1.11-2.46-2.79-3.65-3.88l-.32-2.45,10.32-8.55c.35.37,6.8,5.16,8,6Z"></path><polygon class="cls-16" points="143.46 305.41 149.53 317.33 125.55 313.32 140.5 305.77 143.46 305.41"></polygon><path class="cls-212" d="M205.54,310.34l9,6c-.48.46-.64,1.34-1.57,1.88-4.29,2.47-20.6,1.37-26.43,2.11,2.37-2.73,6.64-2.79,10.04-4.45,1.85-.91,7.45-4.33,8.96-5.54Z"></path><path class="cls-161" d="M272.54,112.34c4.49-.32,8.09,1.8,12.42.22l.58.78c-8.78,5.89-12.71,8.94-24,8-2.54-1.2,4.11-8.38,5.51-9.04s3.93-.35,5.49.04Z"></path><path class="cls-121" d="M222.54,179.34c-15.19,7.4-32.97,13.04-50,14v-3l3.58-2.35c13.76-1.45,27.43-4.34,40.16-9.88l4.26.23,2,1Z"></path><path class="cls-157" d="M249.54,124.34c6.36,2.47,13.2,3.95,20,3.01.5,1.53-.96,1.87-1,1.99l-3.93-.52c1.69,3.13-1.87,6.87-3.07,9.52-1.05-3.85-12.45-6.42-12.92-7.09-.82-1.16,1.1-5.2.92-6.91Z"></path><path class="cls-91" d="M89.54,235.34c-2.31,2.45-6.78,8.07-9,11-3.38,1.25-7.18-2.76-5-6,1.7-2.5,4.58-8.09,6-11,2.2-1.88,8.41,3.55,8,6Z"></path><path class="cls-10" d="M298.54,178.34l-1.01,1.99h-.98c-.54-1.32,1.03-5.02-1.01-5.99-3.11-4.03-2.08-10.56-1.17-15.18l-1.83-13.82c-1.09-3.57-2.35-6.68-4-10-.94-2.03-.61-2.7,1-2,7.87,14.87,10.14,28.01,9,45Z"></path><path class="cls-14" d="M176.54,244.34c-8.08,1.71-14.7,4.29-21.48,9.01-2.2-3.12-3.69-7.32-6.52-10.01,9.33,1.21,18.62.78,28,1Z"></path><path class="cls-74" d="M110.54,295.34c3.85-2.62,13.62,7.22,15.75,10.22.26.36-.93,1.38-1.75,1.78-2.24.7-2.93,1.68-6,2-4.49-3.28-8.88-6.73-13.19-10.34-1.36-1.12-.29-2,1.19-2.66,1.26-.42,2.8-.5,4-1Z"></path><path class="cls-7" d="M135.54,292.34c1.68-1.18,3.01-.18,4,3,.15,1.39,1.07,1.86.09,3.52s-5.27,4.49-7.09,5.48l-1.88.04c-1.91-.9-12.04-12.7-10.12-15.04.35-.28.64-.7,1-1l2.07-1.04c4.55,5.2,8.53,6.88,11.93,5.04Z"></path><path class="cls-117" d="M217.54,95.34c4.25,6.02,9.05,15.51,15,20l-2,4c-2.58,1.79-6.46-2.18-5-5-3.36-4.36-5.36-9.82-9.79-13.71-.02-1.66-1.71-5.99,1.79-5.29Z"></path><path class="cls-191" d="M235.54,291.34l-5.99,2.99c.56-3.97-.28-7.39-1.01-10.99-1.73-8.53-5.17-11.92-9-19,1.1-1.93,4.39-4.85,6-2-.43,7.01,5.69,23.35,10,29Z"></path><path class="cls-141" d="M310.54,266.34l1.23,2.1c-1.12,2.37-9.41,11.93-12.23,9.9-.53-2.22-.4-5.87-1-8-.94-3.93,2.73-7.04,6-8,.77.64,5.09,3.52,6,4Z"></path><path class="cls-42" d="M120.54,289.34l12,15c-1.05.58-2.19.61-3,1-3.97,1.25-12.38-7.53-14.14-10.9l1.14-2.1c.65-.41,3.16-2.34,4-3Z"></path><path class="cls-29" d="M139.54,128.34c8.24,1.51,22.38,1.33,30.34-.31,1.22-.25,7.73-5.99,7.66-.69-11.05,4.3-23.58,5.67-35,4-2.08-1.05-3.08-2.05-3-3Z"></path><path class="cls-197" d="M303.54,261.34c-.69,2.27-4.65,6.58-7,4-1.46-3.32-4.76-8.04-7-11-1.41-2.36,2.91-5.64,5-4,2.07,3.06,6.37,8.54,9,11Z"></path><path class="cls-31" d="M312.54,206.34c-2.47-.89-14.92-3.67-14.98-4.49,2.43-3.68,3.99-8.29,4.98-12.51,2.21,1.99,10.48,13.1,10.84,15.76.05.37-.33.8-.84,1.24Z"></path><path class="cls-187" d="M315.54,268.34c1.54.57,3.81,1.7,5,2,1.32,4.12-6.88,9.85-11,11-2.89.23-1.91,1.09-6,0-1.42-4.2,7.49-13.79,12-13Z"></path><path class="cls-44" d="M216.54,370.34c.33,0,.67,0,1,0,.87.28.86.62,0,1-12.28.24-24.71.12-37,0l-7-1c-2.63-.03-5.4.2-8,0l1-2,3.16-1.07c15.8-.58,31.41.45,46.84,3.07Z"></path><path class="cls-15" d="M203.54,23.34c4.76,3.3,20.76,14.52,21.95,19.56.57,2.42-1.59,1.09-1.95,1.44-3.28-7.16-10.25-9.71-16-14-2.68-1.54-5.5-2.93-8.45-4.19l-.55-2.81,4.4.77.6-.77Z"></path><path class="cls-97" d="M219.54,61.34c.71-2.94.69-4.19,2.57-6.93.83-1.22,10.23-10.75,10.95-11.06,3.46-1.49-.72,5.18-.99,6.02-.6,1.85-1.24,4.07-1.52,5.98-.32,2.38-.97,2.59-1.95.66-2.6,3.82-5.62,5.6-9.05,5.34Z"></path><path class="cls-76" d="M103.54,298.34c.57-.34,1.1-.57,1.48-.42.78.32,11.04,9.94,11.52,11.42-4.05-.11-7.04-.98-10.67-2.83-1.71-.87-8.9-5.95-9.85-7.15-.59-.74-.6-1.1-.47-2.02,3.03.16,5.47-.82,7.99.99Z"></path><path class="cls-42" d="M135.54,292.34c-1.3,8.35-10.09-1.8-14-4,.77-.66,3.18-3.12,4-4,2.47-1.8,11.69,5,10,8Z"></path><path class="cls-84" d="M261.54,306.34c5.32.79,9.61,1.35,15,.5-4.83,5.78-13.14,6.33-20,7.5,1.71-2.74,4.84-4.43,5-8Z"></path><path class="cls-85" d="M139.54,128.34c.83.95,5.43,2.1,3,3-9.3-1.36-20.07-5.1-25-14,2.67.47,2.04-.63,2-3,2.75,7.21,12.73,12.67,20,14Z"></path><path class="cls-181" d="M363.54,242.34c.14,7.1-.62,11.37-3,18l-4-1c1.71-4.51,1.31-6.85,2-11,.3-1.81,1.92-4.27,1-7l4,1Z"></path><path class="cls-77" d="M75.54,289.34c3.91,5.53,13.76,10.06,19,14.5-2.88.25-6.77-1.46-9.51-2.49-3.05-1.14-5.61-2.63-8.48-4.02l.98-.49c-1.3-1.66-1.9-3.75-2.98-5.51l1-2Z"></path><path class="cls-132" d="M302.54,189.34c.28-1.22-.94-4.15.99-3.99,3.32,7.73,10.16,14.08,12.02,22.49-.61,1.23-2.5-1.31-3.01-1.49-2.76-5.88-8.79-10.55-10-17Z"></path><path class="cls-130" d="M95.54,215.34c2.35.41,4.9,1.4,7.66,2.96l13.35.27c1.37.24,1.39,1.4.99,2.77l-5.01,2.5c1.79.2,3.4,1.04,5.01,1.5-4.3-.32-7.82.03-12,1-3.17-.16-8.96-4.86-9-8-.67-1.02-.61-2.22-1-3Z"></path><path class="cls-65" d="M148.54,254.34c-2.7,1.65-5.92.76-9.67-2.69l-1.33.69-2.5-13c5.67,4.83,10.85,7.5,13.5,15Z"></path><path class="cls-49" d="M286.54,232.34c.32,1.52.71,5.26,1,6-.91,2.16-5.7,5.75-8,5-1.2-.9-4.12-.58-6-3-.2-.39-.36-.78-.37-1.18-.03-.79,11.67-8.61,13.37-6.82Z"></path><path class="cls-22" d="M95.54,230.34c-1.49,2.96-3.4,2.38-4,3-2.08,1.29-9.05-4.34-8-7,.65-1.44,1.24-5.01,2-7,.38-.33.76-.6,1.18-.68.73-.14,8.52,9.7,8.82,11.68Z"></path><path class="cls-184" d="M229.54,62.34c-.17.99-.4,2.19-1,3,.31.37.57.75.68,1.17.17.64-8.67,7.11-10.68,5.83-.03-3.27.75-4.81,1-7-.25-1.92,9.14-9.49,9.84-9.36,1.06.21,1.07,5.37.16,6.36Z"></path><path class="cls-102" d="M71.54,271.34c-2.45-2.67-13.04-11.06-13.99-13.52-.74-1.91,2.14-1.84,2.99-2.48,1.72-.38,10.63,7.12,11.24,8.35.81,1.62.31,5.75-.24,7.65Z"></path><path class="cls-103" d="M289.54,241.34c.61,1.33,2.35,4.92,3,6,1.42,2.33-2.88,5.65-5,4-.8-.94-5.1-5.26-6-6-.63-2.87,5.53-6.99,8-4Z"></path><path class="cls-193" d="M320.54,270.34c1.33.34,3.48-.25,5,0,.18.95,0,1.28-.47,2.02-.34.54-8.83,7.61-9.85,8.19-3.46,1.98-3.39.6-5.68.78l11-11Z"></path><path class="cls-109" d="M315.54,268.34c-4.81,2.85-8.88,8.52-12,13-3.39-.9-3.27.03-4-3,3.77-3.41,9.12-7.18,11-12,1.23.65,3.55,1.47,5,2Z"></path><path class="cls-21" d="M30.54,247.34l2.11,1.11c.79,3.59,1.09,7.22.89,10.89.12.29-.12.73,0,1l-4,1c-1.65-3.91-2.76-5.37-3-10-1.99-5.51,1.38-10.04,4-4Z"></path><path class="cls-174" d="M129.54,305.34c-1.67.79-3.24,1.45-5,2,.09-2.26-1.39-2.67-2.68-3.82-3.26-2.89-7.14-7.69-11.32-8.18,2.08-.86,4.08-1.8,6-3,2.43,4.89,8.11,10.57,13,13Z"></path><path class="cls-201" d="M159.54,47.34v8c2.53-.87,4.25-6.26,6-7,.67,5.12-3.19,9.26-6,13-5.35,6.87-6.17-.74-2-6,.5-2.63,1.36-5.36,2-8Z"></path><path class="cls-118" d="M74.54,257.34c-.41,1.31-.66,3.45-1,5-3.61,1.43-11.33-5.21-10-9,1.18-.95,3.38-2.42,4-3,2.08-.77,7.15,4.43,7,7Z"></path><path class="cls-192" d="M236.54,86.34l-12,10c-.8-1.43-1.36-2.44-2-4l12-9c.39.74,1.39,1.98,2,3Z"></path><path class="cls-11" d="M73.54,262.34c-.67,3.08-.75,6.39-2,9,1.83-8.06-7.54-9.73-11-16,1.01-.76,2.26-1.41,3-2,2.56,3.75,6.13,6.71,10,9Z"></path><path class="cls-34" d="M141.54,271.34c-.59,1.6-1.66,4.5-2,6-2.23,2.12-7.4-2.36-6-5,.61-1.41,1.55-4.41,2-6,2.97-2.27,7.74.92,6,5Z"></path><path class="cls-41" d="M138.54,282.34c-.16,1.54-.01,3.39,0,5,.54,5.91-9.8-2.09-11.29-3.93l1.29-2.07c.42-.6,1.35-2.84,2-4,.37-.79.94-1.26,1.78-1.34l6.22,6.34Z"></path><path class="cls-167" d="M157.54,55.34c-.5,2.67-.86,5.28-.99,8l2.99-2c-.55.73-.36,2.04-1.94,3.54-2.12,2.01-5.03,3.88-8.06,3.45v-4.99c3.25-2.45,5.23-5.2,8-8Z"></path><path class="cls-207" d="M285.54,229.34c-.6,3.37-9.66,8.84-13,8,.12-5.67,10.23-9.17,12.5-15,1.18,1.89.16,4.87.5,7Z"></path><path class="cls-185" d="M128.54,281.34c-.09,2.02,4.55,4.51,6.1,5.45,1.33.81,2.32,1.86,3.9.55.02,3.25.69,5.2,1,8-1.3-.99-2.79-1.92-4-3-3-2.67-6.2-6.82-10-8,.95-1.03,2.06-1.65,3-3Z"></path><path class="cls-40" d="M256.54,105.34c-5.22.49-8.3,6.8-13,9-.68-.89-.6-1.47-2-2l10-10c1.57,1.11,3.34,2.02,5,3Z"></path><path class="cls-112" d="M148.54,254.34c.28.79,1.02,1.45.96,2.52-.06,1.01-.85,1.22-.96,1.48-1.87,2.3-10.94-1.02-11-4,.07-.65-.05-1.34,0-2,.1-1.17-.54-3.38.49-3.99,3.05,2.59,6.5,5.17,10.51,5.99Z"></path><path class="cls-83" d="M139.54,277.34c-.26,1.16-.9,4.07-1,5-2.99,2.1-5.04-3.98-8-5,.8-1.44,2.54-3.95,3-5l6,5Z"></path><path class="cls-78" d="M223.54,289.34c0,3.71-.36,6.41-1,10-1.74.1-4.07-3.31-4-5-1.48-2.79-1.12-6.01-1-9,1.8-1.15,5.58,1.7,6,4Z"></path><path class="cls-101" d="M285.54,229.34c.19,1.21.82,2.14,1,3l-13,8c-.99-1.27-1.04-1.26-1-3l13-8Z"></path><path class="cls-80" d="M243.54,96.34c-2.24,4.68-6.42,7.51-10,11-1.69-1.55-2.44-2.12-4-4,5.81.15,8.24-6.7,14-7Z"></path><path class="cls-189" d="M280.54,124.34c.82-.44.79-2.85,2.99-1.99.16,1,.43,2.16,1.01,2.99.94,2.47,1.27,4.47,1,6-.33,3.59.88,6.9,1.05,10.46.06,1.38.67,5.53-1.05,5.54-.45-8.15-2.14-15.33-5-23Z"></path><path class="cls-99" d="M230.54,55.34c-.32,2.14.96,5.59-1,7,.16-.9.7-6.03-.99-5.99.18,4.99-5.76,6.21-9.01,8.99.1-.89-.52-1.86,0-4,3.46-2.27,6.51-6.06,11-6Z"></path><path class="cls-151" d="M146.54,261.34c-.96,1.74-2.37,3.66-3,5-.54,2.96-7.15-.84-7-3,.13-.6-.11-1.38,0-2,.12-6.88,8.27-4.13,10,0Z"></path><path class="cls-144" d="M77.54,250.34c-.38.68-1.73,3.36-2,4-2.39,1.37-7.8-4.11-6-7,.87-.94,2.6-2.48,3-3,2.64-1.66,6.76,3.6,5,6Z"></path><path class="cls-87" d="M152.54,20.34c.53.38,1.68.17,3.01,1.45,6.03,5.8,7.59,16.71,5.97,24.56-.52-.08-.83-.99-.98-1.01.55-9.01-1.89-18.2-8-25Z"></path><path class="cls-205" d="M219.54,319.33c1-1.4,3.14-5.57,4.63-5.86,1.23-.24,7.33,3.9,7.35,4.37.1,2.35-10.01,1.33-11.98,1.49Z"></path><path class="cls-70" d="M230.54,69.34c-4.31-1.3-7.41,6.16-12,6-.06-.99,0-2,0-3,2.16-2.62,8.37-4.79,10-7,1.57.95,1.66,2.42,2,4Z"></path><path class="cls-134" d="M148.54,258.34c-.59,1.41-1.49,2.07-2,3l-8.48-3.02-1.52,3.02c.4-2.25.75-4.73,1-7l11,4Z"></path><path class="cls-165" d="M106.54,296.34c-1.81,2.17-.09,2.1,1.27,3.23,3.72,3.07,8.14,5.47,10.73,9.77-.64.07-1.35.02-2,0-2.76-2.86-6.35-4.65-9.48-7.02-1.5-1.14-2.72-3.4-3.52-3.98.82-2.06,1.69-1.57,3-2Z"></path><path class="cls-194" d="M95.54,230.34l-10-11c.3-.78.52-4.82,2.01-3.51.28,5.5,10.15,10.24,7.99,14.51Z"></path><path class="cls-19" d="M91.54,233.34c-.65.66-1.38,1.35-2,2l-8-6c.6-1.23,1.71-2.35,2-3l8,7Z"></path><path class="cls-124" d="M272.54,112.34c-4.82.34-9.34,4.46-11,9-.57-.05-1.9-.81-3-1l8-10c2.12.8,4.41.67,6,2Z"></path><path class="cls-93" d="M141.54,7.34c-.41,3.47,1.09,1.4,2.79,1.3,5.09-.3,10.63-1.17,15.21,1.7-1.34.62-3,.62-5,0-6.36-1.49-11.44.59-18,0,1.97-1.63,2.37-2.17,5-3Z"></path><path class="cls-202" d="M75.54,240.34c.22,2.47,3.41,3.99,5,6-.82,1.09-2.47,3.05-3,4l-5-6c.96-1.24,2.15-2.74,3-4Z"></path><path class="cls-58" d="M304.54,262.34l-6,8c-.22-.76-1.57-4.02-2-5l7-4c.34.32.65.71,1,1Z"></path><path class="cls-104" d="M249.54,303.34c-1.14,2.97-6.19,8.73-9,10-.38.17-1.36-.08-2,0l9-11c.4.25,1.52.79,2,1Z"></path><path class="cls-172" d="M382.54,260.34c-1.66.35-2.23-.75-3-2-3.37-2.1-1.04-5.85,1-8,.09-1.62-.22-3.49,0-5,.07-.47.52-.89,1-1,.83,5.56,1.37,10.24,1,16Z"></path><path class="cls-159" d="M341.54,234.34c-2.08-1.46-3.46-1.77-3,1-1.52-3.84-4.13-7.33-6-11,5.3,4.87,4.55,3.77,9,10Z"></path><path class="cls-210" d="M222.54,283.34c-2.36,1.01-3.44-1.95-4-4-.23-3.29-1.56-5.92-1.99-9,1.19-1.53,7.44,10.77,5.99,13Z"></path><path class="cls-183" d="M225.54,262.34l-6,2c-.09-.16-1.01-.2-.98-.49l8.49-9.51c1.24,2.55-1.35,5.38-1.5,8Z"></path><path class="cls-35" d="M287.54,238.34c.2.52,1.44,1.77,2,3-2.96-.03-5.76,2.19-8,4-.84-.69-1.59-1.69-2-2,2.74-1.71,4.43-4.84,8-5Z"></path><path class="cls-98" d="M75.54,254.34c-.24.58-.76,2.22-1,3l-7-7c.38-.35,1.09-2.02,2-3,.45,3.06,3.62,5.24,6,7Z"></path><path class="cls-6" d="M96.54,218.34c1.91,2.89,6.51,5.55,9,8-.18.04-.59,1.03-1.49,1.01-2.02-.05-7.02-5.14-8.51-7.01l1-2Z"></path><path class="cls-113" d="M143.54,266.34c-.67,1.43-1.44,3.47-2,5-.09-2.85-3.53-4.33-6-5,.27-.97.75-1.8,1-3l7,3Z"></path><path class="cls-32" d="M294.54,250.34l-5,4c-.75-.99-1.46-2.36-2-3l5-4c.54.9,1.38,2.08,2,3Z"></path><path class="cls-129" d="M211.54,304.34c3.01,1.06,5.88,3.52,5.99,6.99-1.15,1.19-6.43-4.77-6.99-5.99.3-.36.75-.66,1-1Z"></path><path class="cls-119" d="M289.54,133.34l-1,2c-.6-1.21-2.39-2.81-3-4-.73-1.44-2.8-5.24-1-6,2.03,2.89,3.32,4.84,5,8Z"></path><path class="cls-131" d="M223.54,286.34c.13.91,0,2.03,0,3l-6-4c.02-.52.99-1.5,1-2,1.07-2.41,4.05,1.27,5,3Z"></path><path class="cls-195" d="M222.54,283.34c.99,1.56.75,1.22,1,3l-5-3c.03-1.31.09-2.69,0-4,.97.94,3.43,3.09,4,4Z"></path><path class="cls-149" d="M162.54,319.33c-2.07,1.04-8.53-3.4-6.99-4.98.75-.77,6.5,3.81,6.99,4.98Z"></path><path class="cls-206" d="M222.54,299.34c-.11.59-.84,1.35-1,2l-4-6c.57.09,1.15-.35,1-1,.43.81,3.36,3.52,4,5Z"></path><path class="cls-36" d="M180.54,371.34c-2.19-.02-5.64.74-7-1,2.19.03,5.64-.74,7,1Z"></path><path class="cls-145" d="M222.54,370.34c-.84,1.6-3.39.97-5,1v-1c1.67.02,3.33,0,5,0Z"></path><path class="cls-208" d="M196.26,58.51c13.49-3.97,7.32,26.02-3.25,13.86-3.15-3.63-1.4-12.49,3.25-13.86Z"></path><path class="cls-24" d="M161.24,79.55c14.73-4.4,10.5,16.34-2,12.59-5.2-1.56-2.37-11.28,2-12.59Z"></path><path class="cls-108" d="M173.54,17.34c8.23,4.09,15.39,11.81,22,18-.29,4.49-3.29,4.16-9-1-6.2-7.43-8.8-10.56-17-16-4.47-4.15,3.82-5.9,4-1Z"></path><path class="cls-168" d="M195.54,35.34c1.21,1.13,3.3,2.3,5,4,2.26,2.48,3.26,4.82,3,7-2.32,4.98-4.18,8.65-9.98,4.47-5.38-3.88-1.48-7.85-2.17-10.78-.17-.73-3.81-4.45-4.85-5.69,2.84.89,6.24,3.81,9,1Z"></path><path class="cls-23" d="M189.54,108.34c5.94-4.85,9.09-12.47,16-16-1.87,4.33-9.47,18.49-13.96,19.57-2.07.5-2.2-2.29-2.04-3.57Z"></path><path class="cls-143" d="M159.54,10.34c5.11.14,3.75,1.75,4.69,1.97,2.11.51,5.02-.25,7.31.03,1.84,1.07,3.9,1.69,6,2,.28.09,1,.68,2,1,3.84,2.1,4.84,3.76,3,5-2.3-1.62-9.58-7.98-9-3-2.35-1.17-4.55-2.19-4,1-5-3.32-8.88-6.57-15-8,1.67.03,3.34-.05,5,0Z"></path><path class="cls-198" d="M212.54,61.34l-.98,1c-2.25-3.58-3.02-8.02-4.84-11.68-.89-1.78-2.44-3-3.18-4.32-.97-1.72-1.92-5.05-3-7,6.36,6.35,10.47,12.97,12,22Z"></path><path class="cls-79" d="M167.54,58.34c.54-3.31,2.94-9.92-1-10-.04-2.66.06-5.34,0-8,1.96-1.61,2.56-.5,2.97,1.53.94,4.7,1.34,12.48-1.97,16.47Z"></path><path class="cls-107" d="M135.54,82.34c1.37-1.98,5.44-3.63,7.63-4,2.76-.46,2.64,3.41,6.37,2-6.52,3.34-7.58.43-14,2Z"></path><path class="cls-79" d="M163.54,68.34c-.44-3.46,1.95-6.44,4-9-.99,4.95-.89,4.88-4,9Z"></path><path class="cls-100" d="M266.54,162.34c1.16-5.2,8.9-18.44,14.49-19.02,2.93-.31.2,4.06,4.51,4.02.54,9.76.28,19.53-2,29l-11.58,9.97c-.67,1.33,1.86,3.02,1.58,4.51-.5,2.64-5.78-.28-5.96,2-.35,4.63,4.89,5.38-5.02,6.06-3.07.21-1.91.74-2.02-2.54,2.27-3.55,4.12-7.44,5.57-11.68,12.98-4.88.84-17.44-2.47-1.59-1.33,2.76-3.72,5.18-6.1,2.27,1.66-3.16,7.91-11.64,8.61-13.97s-.36-5.67.39-9.03Z"></path><path class="cls-96" d="M295.54,174.34c-.13,3.38-.64,5.25-1,8-.03-.76.83-12.01-1.99-9-.72.76-3.64,16.44-5.23,20.28-4.16,10.02-11.73,20.02-19.78,27.22-1.49,1.33-2.2,2.83-2-.5.29-2.33-.24-4.19-1.6-5.58l.6-2.42c6.45-8.12,16.3-25.08,19-35,1.63-2.61,4-9.8,4-12.5v-14.5c5.24.41,3.61,5.12,4,8.52.17,1.49.79,3.07,2,1.48l-.99-15c3.07,10.07,3.4,18.52,3,29Z"></path><path class="cls-173" d="M257.54,185.34c5.13-.54,4.4-5.29,6.13-8.37,5.06-9.01,16.24.12,6.37,8.41-.98.82-3.01.74-3.33,1.12-.88,1.03.25,9.39-6.17,9.84-7.14.5-5.27-6.69-3-11Z"></path><path class="cls-106" d="M163.54,219.34l-2.99,3,12.99-1c-12.3,3.34-25.58,5.49-38,5-3.65-5.41,6.8-3.69,9.49-4,5.85-.69,12.81-1.65,18.51-3Z"></path><path class="cls-135" d="M252.29,198.48c6.01-1.22,7.03,9.94-.25,9.95-6.49,0-5.75-8.74.25-9.95Z"></path><path class="cls-200" d="M218.54,218.34c-1.46-.6-2.67.16-3.06-2.52-1.1-7.44,11.98-8.29,13.63-4.49-.77,4.64-6.11,8.83-10.57,7,5.67-3.7,1.19-9.12.97-1.75l-.97,1.75Z"></path><path class="cls-89" d="M242.23,191.48c3.41-.53,5.19,7.3.6,8.67-7.81,2.34-6.38-7.77-.6-8.67Z"></path><path class="cls-139" d="M265.54,220.34c-3.12,3-6.3,2.83-6-2,.91-.88,3.94-4.67,5-6,2.51,3.17,4.65,4.49,1,8Z"></path><path class="cls-63" d="M379.54,258.34c-10.15,52.04-92.13,74.46-137,80-1.1.65-2.21,1.27-3.38,1.74s-2.3.91-3.47,1.05c-40.06,4.7-85.69,2.05-124.75-8.06-1.14-.3-2.21-.9-3.29-1.53s-2.11-1.4-3.1-2.21l-3.18,1.19c-29.48-9.02-64.17-23.29-83.01-48.91-3.98-5.41-9.07-12.63-7.81-19.28l7-.56c4.76,6.58,11.44,12.06,14.54,19.52,1.8,2.26,6.53,3.6,8.46,5.04,14.58,10.88,22.57,17.43,40.21,24.29,3.34,1.3,21.16,5.78,21.8,6.72.33.49-1.28,2.5-.57,3.98,1.29,2.69,10.24,4.61,13.08,4.06,2.49-.48,2.05-2.71,3.14-3.01,1.87-.5,7.74,1.69,10.34,1.96,7.73,2.77,16.11,3.91,25.13,3.41,20.45,3.34,40.74,3.87,60.87,1.59,7.18-.21,14.33-.39,21.49-1.01,10.36-.9,27.82-5.35,37.07-4.89,2.08.1,3.17,2.64,5.75,2.63,2.43,0,11.64-2.96,12.62-5.31,1.34-3.19-1.98-1.67-1.92-3.42,4.93.4,9.64-1.64,14.18-3.32,26.04-9.66,61.32-31.12,63.81-61.69,4.56-2.56,11,1.95,13-2-.18,3.14-.4,4.94-1,8Z"></path><path class="cls-66" d="M214.54,329.34c-8.88,3.23-18.16,3.1-27.49,3-12.13-.14-22.9-3.21-35.01-3.79-5.81-.28-9.86,1.18-16.88-.31-1.46-.31-7.3-1.44-6.62-3.89,29.63,3.06,55.65,5.87,86,5Z"></path><path class="cls-115" d="M367.54,236.34h-4c-.4-2.13-4.64-11.92-6-14,5.8-6.66,9.7,10.49,10,14Z"></path><path class="cls-52" d="M26.54,234.34c.96.36,3.37.51,3.85,1.18s.09,1.96.15,2.82c.12,1.65-.09,3.34,0,5,2.84.74,2.76,3.22,0,4l-4-1c.04,1.65-.09,3.34,0,5-2.15-5.01-.97-11.84,0-17Z"></path><path class="cls-88" d="M230.54,119.34c2.44,2.53,4.61,3.36,4.01,7.99,1.79.28.87-3.97,2.49-3.98.69,0,8.99,6.65,10.58,7.62.57,3.51-12.08,20.36-15.08,23.36l.25,2.53c-5.5,5-11.61,9.33-17.86,13.33l-2.39-.87c-5.59,1.89-11.53,2.73-17.81,2.53-6.88,2.65-13.95,4.47-21.19,5.47l-3.04,1.99c-18.8.17-39.76-.3-55.09-12.34-2.15-1.69-12.38-11.01-8.55-13.66,2.29-1.59,21.58,1.95,25.68,3.01-4.03,2.87-12.95-1.08-16.07,2.44-3.5,3.94,5.86,5.41,8.6,5.56,6.33.35,23.81-3.58,30.49-5.47,4.86-1.37,27.2-8.76,30.26-10.74,2.23-1.44,2.99-4.87,5.42-5.58,2.8-.82,6.41.21,9.57-.43,1.65-.33,13.43-5.36,14.65-6.35,5.17-4.22,6.18-15.65,10.08-21.42,1.65,2.15,3.37,3.3,5,5Z"></path><path class="cls-114" d="M148.54,150.34c.33-.04.67.04,1,0,2.13-1.28,4.59-1.66,7-2,2.19-.74,6.07-2.09,8-3v1c-10.88,5.47-19.46,9.19-32,10-8.43.54-16.76-.31-24.99-1.99,3.76,9.51,15.92,16.37,25.21,19.28,13.17,4.13,27.14,3.63,40.78,3.72,6.94-1.26,13.96-1.84,21.05-1.73l1.95,1.73v2.6c-8.93,3.61-17.92,7.08-27,10.4-20.7,1.3-50.08-2.39-63-21-5.87-8.45-7.17-19.84-2-29,.77-.64,1.73-.85,2.28-.12,7.37,9.89,10.72,10.6,23.21,12.21,6.1.79,12.86.28,18.51-2.09Z"></path><path class="cls-2" d="M268.54,35.35c-7.11,9.54,12.09,14.8,11.51,2.98,1.9,0,8.77,4.23,10.42,5.58,13.06,10.63,17.56,23.93,15,40.88-.48,3.18-6.8,14.11-9.14,15.35-1.2.64-3.08-.18-4.05.25-1.35.59-3.02,3.16-6.49,3.72-11.05,1.76-27.43-5.63-34.66-13.86-18.19-20.69-16.11-57.01,17.4-54.89Z"></path><path class="cls-64" d="M242.54,338.34c-.21,3.3,5.86,3,7,7-5.99.87-12.53,2.11-18.78,2.73l.78,1.27c-3.46.3-7.24.78-11,1-12.27-.31-24.79-.29-37.57.05l-2.43-1.05c-28.25-1.22-52.12-4.88-79-13,1.36-1.71,1.76-3.53,1.2-5.44l1.8-1.56c44.57,12.16,92.17,14.66,138,9Z"></path><path class="cls-179" d="M10.54,262.34c11.3,36.18,60.2,57.78,94,67l1,7h-4c-29.12-8.8-55.27-19.2-76.51-41.99-8.54-9.16-19.3-22.77-15.49-36.01.33,1.33.59,2.7,1,4Z"></path><path class="cls-9" d="M120.54,350.34c16.4.81,34.44,6.14,51.46,7.04,19.47,1.03,43.32.59,62.54-2.04,1.54.7,3.21.7,5,0,6.32-1.47,12.66-1.85,19-3,1.62,3.82,5.43.84,8.38,1.02,1.7.1,3.33,1.4,5.08,1.5,5.63.29,12.8-5.23,18.53-2.52-.69.3-1.67,1.43-3,2-1.52.26-2.96.83-4,2-4.36,1.61-9.01,1.84-13,3-1.82-.83-2.82-.5-3,1-1.27.35-2.84,1.47-5,2l-5.05-1.93c-7.77,1.91-15.65,1.86-23.65-.13-8.01,2.57-16.12,4.34-24.32,5.29l-1.99-1.23c-3.72,2.43-8.27,3.16-13.66,2.19-21.13-2.91-42.12-4.9-62.97-5.97l-2.37.79c-7.95-2.21-16.16-3.98-23-9,3.57-2.89,8.12-1.15,11.55-1.19,1.28-.02,2.71-.84,3.45-.81Z"></path><path class="cls-177" d="M220.54,350.34c-13.74.81-27.15,1.1-41,1l1-2c11.43.49,23.05-.16,34.51-.02,1.69.02,4.44-.64,5.49,1.02Z"></path><path class="cls-64" d="M176.54,351.34c-1.6-.03-4.16.6-5-1,1.6.03,4.16-.6,5,1Z"></path><path class="cls-145" d="M239.54,355.34c-1.01.23-3.51,2.63-5,0,1.58-.22,3.38.15,5,0Z"></path><path class="cls-137" d="M179.54,254.33v8.01c6.69.01,12.25,1.73,9.01-7,19.9.79,25.44,25.25,18.17,40.67-.74,1.56-8.28,11.53-9.45,12.01-1.35.54-2.97.1-3.96.55-6.35,2.88-9.26,5.09-17.27,4.83-9.45-.31-22.44-8.16-25.79-17.27-2.89-7.85-2.05-18.53,1.59-26,4.91-10.07,17.26-14.35,27.7-15.8Z"></path><path class="cls-196" d="M104.54,140.34c3.81-6.74,2.68.29,6.97,4.53,7.58,7.51,26.86,6.55,37.03,5.47-2.06,2.2-5.85,3.32-8.76,3.74-8.69,1.26-24.76-2.06-31.14-8.34-1.64-1.62-2.32-3.92-4.1-5.4Z"></path><path class="cls-196" d="M156.54,148.34c-2.69.91-3.85,1.6-7,2,1.57-2.3,4.55-2.1,7-2Z"></path><path class="cls-67" d="M259.54,244.34c-2.52,8.74,3.19,2.55,7.41,2.99,7.4.77,19.75,16.14,22.27,22.83,2.74,7.29,3.16,12.84-.64,19.77-8.35,15.22-27.59,11.38-39.36,2.24-20.06-15.58-21.55-50.82,10.33-47.82Z"></path><path class="cls-180" d="M42.54,239.34c-4.2,6.25-6.84,12.83-9,20-1.88-4.7-2.57-6.91-3-12-.11-1.32.08-2.68,0-4,3.4-3.03,7.65-3.36,12-4Z"></path><path class="cls-140" d="M91.54,289.34c.78-1.78,2.78-2.54,6.02-2.29,11.18-1.02,17.36-8.84,13.98-19.71-1.42.25-3.03-.42-4.83-2-.75,2.15-1.81,3.48-3.17,4-.44,8.71-4.54,3.79-3.34-2.55l-.66-2.45c-1.01,2.42-1.99,2.65-4,1-5.12,1.47-4.24-7.04,0-4,3.7-1.63,6.23-3.21,2.26-6.78l.74-2.22c-2.47-2.9-3.69-2.8-6.21.46-2.89,2.84-5.16,3.35-6.79,1.54,4.09-7.66,6.63-11.7,14.78-15.72,25.49-12.55,34.21,9.56,25.71,30.71-5.22,13-20.05,24.27-34.49,20.01Z"></path><path class="cls-138" d="M85.54,254.34c3.24-.6,9.55-6.67,11.49-7.02,2.88-.51.97,3.47,1.51,5.02-3.23,1.14-4.24,4.19-1.92,6.89l-1.08,2.11c-.37.9-3.51.35,0,4l.57,2.11c-10.79,13.02,3.22,11.36,1.7-1.57l1.73-1.54c2.3,2.14-.52,6.92,2.99,8l1.01-3,2.06.91c1.06,6.62,4.98,4.08,4.17-1.46l1.77-1.45c.91,1.7,3.41,8.73,2.9,10.33-.24.75-1.45.71-1.83,1.45-.64,1.24-.41,2.78-1.35,3.96-3.48,4.34-14.24,6.87-19.72,6.26-6.92-.76-10.97-6.86-11.91-13.59-1.17-8.42,2.27-14.6,5.91-21.41Z"></path><path class="cls-176" d="M193.54,203.34c-4.41,2.98-10.77,6.78-16,6-10.62,2.96-21.49,5.04-32.59,6.23-13.56.19-34.85-.31-43.41-11.23,0,1.68-.35,2.21-1.63,1.88-4.3-1.13-6.9-8.81-6.37-12.88,1.38-5.8,3.36-11.36,7-16-.1,3.75,4.43,7.18,7.08,9.42,16.16,13.63,42.84,16.27,63.41,15.57,4.92-.17,14.71-2.38,18.99-2,2.54.22,2.51,2.16,3.52,3.01Z"></path><path class="cls-71" d="M193.54,203.34c.33.27,2.04-.55,2.01.5l-2.01,1.5c-5.75,1.51-10.54,5.4-16.02,7.48-6.61,2.51-14.99,4.15-21.98,5.52-3.82.65-4.96-.6-1-2,4.43-2.64,11.65-4.8,17.19-6.22,1.91-.49,3.83-.82,5.81-.78,5.35-1.94,10.77-3.74,16-6Z"></path><path class="cls-155" d="M249.54,157.34c-7.36,7.74-19.4,16.33-29,21-14.84,7.22-31.59,10.57-48,12-.99.09-2.01-.06-3,0-.09-2.27,1.34-2.66,2.94-3.56,8-4.52,17.09-3.14,24.06-9.44l1.1-2.37c4.85-2.31,9.61-4.4,14.9-5.63,5.98-3.66,15.1-10.11,20-15,4.74-1.78,6.63,3.63,9.56,4.04,3.3.47,5.13-3.49,7.44-1.04Z"></path><path class="cls-146" d="M301.08,244.78c-4.97-7.98-10.28-18.68-6.03-28.44,1.92-4.42,5.13-4.97,9.75-3.76.8.21,12.41,8.13,13.78,9.21,4.28,3.39,13.99,18.99,14.9,24.1,2.24,12.56-1.07,20.7-14.83,15.83-7.94-2.81-13.31-10.11-17.57-16.94Z"></path><path class="cls-171" d="M192.54,20.34c2.02.98,3.46,1.37,6,3,3.26,2.1,5.96,4.73,9,7-.48.1-.93.54-1,1-1.82.45-4.08-.09-6.78-1.63,1.51,1.67,1.77,3.22.78,4.63-4.56-2.61-9.34-9.72-10-10-2.58-1.45-.74-4.66,2-4Z"></path><path class="cls-8" d="M192.54,20.34l-2,4c-3.37-1.41-4.08-.16-8-4-.33-.33-.83-3.09-3.02-3.68l.02-1.32c5.27,1.66,8.24,2.69,13,5Z"></path><path class="cls-186" d="M206.54,31.34c-.41,2.9.42,6.24-4.34,4.84-1.18-.35-1.42-1.7-1.66-1.84-7.15-8.08.47-8.49,6-3Z"></path><path class="cls-12" d="M69.54,219.34l6.7-10.02,3.29-1.98c.68.94-.88,11.17-1.55,12.94-1.08,2.85-5.05,4.64-5.34,5.71-.35,1.27.95,3.03.73,4.65-.68,4.92-12.07,17-17.82,17.7-1.16-7.46,3-11.38,5.99-17,3.71,1.42,11.92-10.4,8-12Z"></path><path class="cls-142" d="M69.54,219.34c.72-.48,2.34-1.98,2.5-1.98,5.13,0-4.13,14.81-8.4,16.58-3.04,1.25-2.03-.69-2.1-2.6,2.57-4.82,2.72-8.45,8-12Z"></path><path class="cls-47" d="M93.54,193.34c1.4,3.18,3.56,8.5,6.28,10.75.6.49,1.54.12,1.72.25,8.06,10.98,29.73,11.27,42.67,11.24,4.28-.8,7.72-.55,10.33.76-1.28,2.04-1.67,2.17,1,2-12.96,2.55-24.7,3.62-38,3-.13,0-1.13-.96-2.42-1.04-7.81-.47-14.51,2.51-19.58-4.96-4.67-9.32-4.39-11.96-2-22Z"></path><path class="cls-8" d="M177.54,14.34c-2.18.12-4.7,0-6-2,3.2.39,3.91,1.36,6,2Z"></path><path class="cls-36" d="M207.54,364.34c4.04.79,7.04,2.45,9,5v1c-16.33-.21-33.73-.57-50-2-13.56-1.2-24.97-3.37-38-7-.81-2.82,5.09-3.1,6.51-3.08,23.56.34,47.86,8,72.49,6.08Z"></path><path class="cls-145" d="M207.54,364.34c7.94-.62,18.33-4.62,25.54-5.02,4.3-.24,8.29,1.28,13,1.06,5.54-.27,14.38-5.34,16.46,1.96-4.62,1.12-9.33,2.12-14,3l-5.4-.05c-6.82-3.13-12.37-3.3-16.6,3.05-3.43.25-6.22,1.37-10,1-3.19-.31-7.72-1.75-9-5Z"></path><path class="cls-36" d="M248.54,365.34c-7.46,1.4-14.38,2.44-22,3-.68-7.28,7.75-7.88,13.07-6.57,3.49.86,4.93,4.34,8.93,3.57Z"></path><path class="cls-145" d="M270.54,359.34c-.89.26-1.81.67-3,1-2.68-1.82,1.77-4.93,3-1Z"></path><path class="cls-145" d="M287.54,354.34c-1.19.51-2.04,1.27-4,2,.52-1.84,2.26-2.17,4-2Z"></path><path class="cls-123" d="M195.03,39.55c4.65-.35,7.98,11.13,3.03,11.52-6.56.51-7.15-11.21-3.03-11.52Z"></path><path class="cls-55" d="M218.54,218.34c-2.33-1.1-1.27-9.81,4.06-6.56,3,2.58-1.05,7.97-4.06,6.56Z"></path><path class="cls-156" d="M212.54,169.34c-3.7,2.26-12.08,7.29-16,8-6.66,1.2-16.02.04-23,0,7.61-2.09,14.59-6.75,22.75-7.74,5.41-.66,10.81.69,16.25-.26Z"></path><path class="cls-126" d="M270.32,66.1c-4.61,4.53-15.95-4.78-13.35-10.83,5.88-5.29,18.06,6.21,13.35,10.83Z"></path><path class="cls-190" d="M274.54,87.34l-1.74,1.45c-2.66-1.65-5.08-2.14-7.26-1.45-4.33-4.18,3.35-21.15,7.91-14.4,1.59,2.35,1.42,11.22,1.09,14.4Z"></path><path class="cls-178" d="M281.25,56.55c11.13-3.24,14.29,6.97,4.36,9.35-10.49,2.52-9.77-7.78-4.36-9.35Z"></path><path class="cls-27" d="M279.55,70.34c2.01-2.11,17.64,10.7,9.99,14.53-6.63,3.31-11.29-9.42-9.99-14.53Z"></path><path class="cls-120" d="M265.54,87.34c.13-1.48-.83-3.55,1.51-3.02l7.49,3.02c-.11,1.07-.61,2.97-1,4-2.36,3.19-5.91,3.75-8,0-.18-.97-.1-2.92,0-4Z"></path><path class="cls-39" d="M273.54,91.34c-2.12,5.62-6.98,5.55-8,0,2.44,1.45,5.54,1.46,8,0Z"></path><path class="cls-199" d="M175.53,286.34c2.47,4.2,1.15,18.06-5.34,16.84-7.38-1.39-3.18-17.56,5.34-16.84Z"></path><path class="cls-59" d="M188.27,271.58c14.26-2.64,7.81,9.55-1.28,9.81-8.14.23-6.83-8.31,1.28-9.81Z"></path><path class="cls-75" d="M191.29,297.08c-5.13,5.11-14.59-9.32-8.73-12.29,4.57-2.32,12.89,8.14,8.73,12.29Z"></path><path class="cls-164" d="M165.85,280.03c-6.38-6.86,2.05-12.12,8.61-5.12s-3.03,11.13-8.61,5.12Z"></path><path class="cls-37" d="M247.54,260.34c4.14-.6,10.43,1.2,12.25,5.26,4.07,9.11-15.83,4.08-12.25-5.26Z"></path><path class="cls-128" d="M277.29,286.08c-4.73,4.71-12.22-6.68-9.74-11.75,4.88-1.43,13.65,7.86,9.74,11.75Z"></path><path class="cls-46" d="M259.21,273.48c5.22-1.39,4.74,13.92-.17,13.88-5.93-.04-6.14-12.21.17-13.88Z"></path><path class="cls-125" d="M267.18,262.48c2.46-.82,11.55-.83,11.21,3.18-.38,4.43-7.76,5.68-11.21,4.53-2.5-.83-2.44-6.91,0-7.71Z"></path><path class="cls-3" d="M106.54,255.34c.69-2.14,1.25-4.01,3.29-5.3,10.83-6.88,11.1,10.58-2.29,10.3-1.44-.7-1.77-2.37-1-5Z"></path><path class="cls-110" d="M99.54,264.34c1.36,4.73-1.43,16.8-7.99,13.52-4.59-2.29,1.39-10.74,3.99-12.52,1.24-.85,2.5-1.17,4-1Z"></path><path class="cls-127" d="M111.54,267.34c2.31,10.41-7.67,12.38-8,2-.22-7.09,4.78-8.01,8-2Z"></path><path class="cls-61" d="M98.54,252.34c.37,1.08,4.36,2.7,2.87,7.33-.48,1.49-4.49,3.93-5.87,1.67.14-.34-1.77-2.17-2-3.55-.6-3.66,1.23-7.88,5-5.45Z"></path><path class="cls-138" d="M107.54,260.34c-.67-.01-1.33.04-2,0-.72-2.23.5-3.46,1-5l1,5Z"></path><path class="cls-30" d="M177.54,209.34c-7.44,2.71-14.96,6.27-23,7-11.5,1.05-32.13-.06-43.22-3.28-2.94-.86-12.53-4.51-9.78-8.72,14.84,10.73,39.42,12.04,56.84,8.34,6.24-1.33,12.22-5.53,19.16-3.34Z"></path><path class="cls-136" d="M127.54,201.34c11.23,8.81-5.78,9-12,5-2.38-2.41-3.13-6.72.72-7.84,2.96-.86,7.97,1.8,11.28,2.84Z"></path><path class="cls-169" d="M127.54,201.34c1.76.55,9.28,2.17,9.86,3.13.79,1.31.2,4.24-1.51,4.78-.65.2-11.49.12-12.74,0-2.58-.28-5.79-1.05-7.61-2.89,6.24,1.52,18.27,5.61,12-5Z"></path><path class="cls-69" d="M313.53,236.33c-4.85,1.71-13.89-10.43-8.44-11.99,4.13-1.18,10,7.91,8.44,11.99Z"></path><path class="cls-13" d="M311.07,239.34c4.37-1.32,7.65,8.88,3.93,9.98-4.04,1.2-8.01-7.27-3.93-9.98Z"></path><path class="cls-33" d="M327.46,250.25c-2.74,3.59-9.89-6.19-7.91-9.91,3.81-.86,10.11,7.03,7.91,9.91Z"></path><path class="cls-122" d="M317.55,229.34c1.65,1.27,6.65,1.62,7.54,2.94,4.26,6.32-10.53,8.03-7.54-2.94Z"></path></g></svg> 