<?xml version="1.0" encoding="UTF-8"?> <svg xmlns="http://www.w3.org/2000/svg" id="Laag_2" viewBox="0 0 347.57 337.31"><defs><style>.cls-1{fill:#4c1408;}.cls-2{fill:#fbf8f2;}.cls-3{fill:#a24f35;}.cls-4{fill:#6d2818;}.cls-5{fill:#8f4129;}.cls-6{fill:#f8f4f1;}.cls-7{fill:#b76847;}.cls-8{fill:#e1b78a;}.cls-9{fill:#ae5c3c;}.cls-10{fill:#e5c8a8;}.cls-11{fill:#faeee1;}.cls-12{fill:#f3c3a2;}.cls-13{fill:#672311;}.cls-14{fill:#b66447;}.cls-15{fill:#a55637;}.cls-16{fill:#a8593b;}.cls-17{fill:#612210;}.cls-18{fill:#b8684c;}.cls-19{fill:#9e4e31;}.cls-20{fill:#b27851;}.cls-21{fill:#1f0202;}.cls-22{fill:#51190a;}.cls-23{fill:#662b16;}.cls-24{fill:#c1988e;}.cls-25{fill:#cb9d74;}.cls-26{fill:#b77d5b;}.cls-27{fill:#a97151;}.cls-28{fill:#723a27;}.cls-29{fill:#d3a57f;}.cls-30{fill:#f6f2ef;}.cls-31{fill:#af5c3c;}.cls-32{fill:#884b38;}.cls-33{fill:#e8cbaa;}.cls-34{fill:#8a442a;}.cls-35{fill:#d2aaa0;}.cls-36{fill:#fbfcfa;}.cls-37{fill:#652411;}.cls-38{fill:#300502;}.cls-39{fill:#91482e;}.cls-40{fill:#450e03;}.cls-41{fill:#9d4a2f;}.cls-42{fill:#91442b;}.cls-43{fill:#dd9069;}.cls-44{fill:#e6c8bc;}.cls-45{fill:#8f4329;}.cls-46{fill:#d1a67e;}.cls-47{fill:#decbc3;}.cls-48{fill:#6e2e1c;}.cls-49{fill:#f8f3ed;}.cls-50{fill:#6e2917;}.cls-51{fill:#fbead4;}.cls-52{fill:#6d321a;}.cls-53{fill:#7c351f;}.cls-54{fill:#b87f56;}.cls-55{fill:#fcf6eb;}.cls-56{fill:#733c2f;}.cls-57{fill:#f7e9e6;}.cls-58{fill:#ce916f;}.cls-59{fill:#883b25;}.cls-60{fill:#3e0d04;}.cls-61{fill:#9c6b61;}.cls-62{fill:#ac5c3b;}.cls-63{fill:#a95e41;}.cls-64{fill:#80411f;}.cls-65{fill:#591e0c;}.cls-66{fill:#ba9d99;}.cls-67{fill:#551706;}.cls-68{fill:#97482f;}.cls-69{fill:#854829;}.cls-70{fill:#8c4e32;}.cls-71{fill:#6c2b19;}.cls-72{fill:#f0d9d0;}.cls-73{fill:#d49472;}.cls-74{fill:#c69470;}.cls-75{fill:#fdfbf2;}.cls-76{fill:#824433;}.cls-77{fill:#a87352;}.cls-78{fill:#f9f1ed;}.cls-79{fill:#f9e2b8;}.cls-80{fill:#caa899;}.cls-81{fill:#fdfaef;}.cls-82{fill:#dab187;}.cls-83{fill:#fbfbf7;}.cls-84{fill:#c6704a;}.cls-85{fill:#90573b;}.cls-86{fill:#f9f2ec;}.cls-87{fill:#e6c399;}.cls-88{fill:#2e0302;}.cls-89{fill:#763a28;}.cls-90{fill:#ab5b3e;}.cls-91{fill:#b6948b;}.cls-92{fill:#fcf7f0;}.cls-93{fill:#c27a5a;}.cls-94{fill:#81361f;}.cls-95{fill:#863a22;}.cls-96{fill:#904128;}.cls-97{fill:#fbebd3;}.cls-98{fill:#faeed9;}</style></defs><g id="Laag_1-2"><path class="cls-21" d="M59.89,160.13c1.51-5.76.92-11.18,2.3-17.2,2.85-12.44,11.07-19.14,22.7-23.33-8.46-15.85-3.04-36.46,14.76-42.24,1.22-.4,4.04-.04,4.25-.23.34-.32-.06-7.15.26-9.24,3.48-22.65,21.83-20.35,35.22-30.78C158.19,22.44,166.44-1.74,196.43.1c27.18,1.67,30.09,38.92,1.47,37.53,3.78,2.23,8.88,10.67,11.71,12.55,2.18,1.45,7.41,2.15,10.27,3.47,15.79,7.27,28.58,20.5,33.49,37.51,1.46,5.07,1.58,15.68,3.04,18.96.89,2.01,7.26,8.13,9.29,11.71,2.34,4.12,3.99,11.77,5.77,14.23,1.66,2.3,8.1,6.16,10.43,8.57,6.82,7.07,7.08,13.28,16.01,18.49,3.83,3.08-.82,4.33-4.18,4.23,1.72.3,2.45.76,2.18,2.77,3.41,2.53,4.08,4.53,2,6,3.61.3,4.11,11.45,1,13,3.42,4.45,2.63,16.58-2,20,1.39,4.04-.61,12.42-5,13l.59,3.18c-.78,5.75-25.76,30.23-31.41,31.25-1.11.2-2.16.09-3.18-.42.02,4.52-7.11,5.54-11,6-1.56,3.12-4.88,4.96-9.96,5.5-4.34,1.16-12.82,3.16-16.04.5-7.22,1.17-3.85-5.96,1-3,1.76-2.55,4.58-4.23,8.47-5.04,23.5-10.91,51.98-24.56,58.45-52.14,1.26-10.14,2.14-19.91,2.09-29.82-.88-.25-.86-.58,0-1l-1.1-.55c-2.64-9.02-6.28-17.5-10.9-25.45-.95.02-1.95-.65-3-2-2.28,1.71-1.03.33-.84.59,2.57,3.55-.34,22.29-1.39,26.35-15.3,59.35-75.68,87.94-133.32,87.1-13.93-.2-31.94-1.3-43.45-9.04-2.14,3.07-7.31-.28-9-3-2.51,2.19-9.12-1.63-9-5l-2.43.95c-5.89-2.64-17.64-9.69-18.57-15.95-3.14,2.48-10.26-12.17-10.2-13.49l1.2-2.51c-5.05-1.51-5.09-18.07-3.17-21.83l3.17-3.17-1.07-2.4c4.36-6.61,9.75-12.41,16.18-17.39-1.07-.8-.76-1.99-.11-3.21-.89-.28-.88-.61,0-1-3.39.51-6.22-3.11-4-6Z"></path><path class="cls-38" d="M297.89,163.13c29.7,17.35,57.36,35.78,47.73,76.23-4.11,17.29-13.96,21.32-23.2,32.8-4.24,5.27-7.13,15.74-12.01,21.99-37.73,48.33-153.67,49.14-207.73,35.69-23.52-5.85-52.9-17.38-67.2-37.8-5.48-7.83-7.15-16.06-13.59-22.91-1.32-4.78,4-4.26,6.17-.63l4.1,8.81c5.81.95,7.72,2.55,5.73,4.82,2.84,3.61,5.7,7.31,8.57,11.08,11.35,11.44,27.66,17.74,42.67,23.24l1.75,2.68c36.65,7.29,73.63,11.43,111.39,8.29,31.04-2.58,61.59-8.86,88.61-24.29l-.07-2.41c7.25-5.65,13.61-12.18,19.07-19.59-2.55-1.17-2.22-6.59,0-8l1.17-3.06c17.11-10.73,31.33-29.88,28.83-50.94-1.15-.48-1.8-1.3-2.13-2.44-6.13-21.17-18.28-34.81-38.96-43.11l-2.91-3.45c-2.18-.9-5.19-.76-3.99-3.49,1.32-3.02,6.68.43,5.99-3.51Z"></path><path class="cls-60" d="M59.89,160.13c.68,2.34,3,4.37,4,6l-1.05.95c-27.61,11.1-55.28,28.18-54.69,61.59l-1.25,1.46c2.87.26,3.73,4.89,1,6,2.11,1.21,2.44,2.21,1,3,9.02,14.55,17.82,24.79,32.81,33.63,19.73,11.64,42.83,17.68,65.12,21.97l2.07,2.4c3.8,5.08-2.09,6.98-7,6-.76.36-1.53.68-2.33.87-6.35,1.54-46.78-12.18-53.84-16.47-1.91-1.16-3.57-2.52-4.83-4.4-.75,1.01-1.75.68-3-1-.4-.17-.76-1.56-1.23-1.73-1.77-.63-3.46.1-5.34-1.19-3.52-2.42-4.68-16.18-9.42-10.08-8.5-9.04-15.74-15.17-19.5-28-11.91-40.55,22.86-69.71,57.5-81Z"></path><path class="cls-79" d="M48.89,190.13l-2.41,3.24c-9.05,5.44-15.76,14.28-16.53,25.03l-2.05,1.73c2.47.86,3.58,5.84,1,7-1.22,2.77-.39,5.69,2.48,8.75,12.7,15.99,31.96,24.5,50.98,30.5,4.65,4.49-1.7,5.37-5.9,4.82-7.84,4.02,7.11,8.15,10.6,9.06,6.13,1.6,21.19,5.01,11.01-5.33-2.54-6.12,14.2-1.4,14.64-.62,1.85,3.24-1.99,3.99-4.37,4.4-5.26,7.83,22.24,11.84,16.82,2.78-3.69-1.12-7.79-2.94-3.19-6.26,58.26,9.28,125.6,4.87,178.04-24.26,3.81-2.12,12.28-7.12,11.89-11.83-.59-2.3.2-4.81,2.39-7.54.87-3.63,2.4-6.11,4.61-7.46-.08-2.44-.73-7.51-1.68-10.34-3.15-9.4-8.7-16.52-17.2-21.74l-1.12-2.92c-.03-3.48-.32-9.7-1-13-.32-.82-.43-1.78.21-2.26,2.31-1.74,15.98,7.96,17.95,9.59,14.04,11.6,19.75,22.53,23.84,39.67v4c-9.18,24.47-29.85,42.19-55,50-.58.74-1.18,1.45-1.88,2.06s-1.32,1.15-2.07,1.41c-45.03,15.65-89.51,19.41-137.22,15.82-16.83-1.27-38.84-3.56-54.69-8.85-1.99-.66-3.62-2.03-5.15-3.43-4.67-.18-8.67-1.51-12-4-.33,2.68-.85,2.39-2,0-22.39-7.08-42.68-19.41-55.72-39.03-2.23-1.56-4.33-3.22-6.28-4.97-.48-2.19-.84-3.68-1-6,.01-1.66.48-2.47,1.42-2.43-.59-32.56,28.09-50.74,55.58-60.57.74,1.16,2.16,2.25,2.92,3.51-5.92,5.23-14.78,12.12-17.92,19.49Z"></path><path class="cls-17" d="M261.89,137.13c1.86.38,2.47,2.74,1,4,7.16,17.7,1.01,36.6-6,53-29.12,57.02-115.85,75.28-171,48-3.25-3.78-7.47-6.87-12.67-9.25-7.18-3.92-11.63-9.17-13.33-15.75-2.01.59-2.1-.41-1-2-2.78-.58-3.16-5.71-3.37-8.6-.34-4.55.3-13.65,5.37-14.4l2.18.96c.28,10.72,1.94,15.71,11.16,22.41,23.48,17.06,53.93,21.02,79.66,7.63l1.34-2.52c13.92-5.02,28-11.73,38.61-22.17-15.37,3.25-30.88,6.09-46.54,8.52l-3.42-1.83c-10.17,3.27-22.59.82-32.99-1.47-6.07-1.33-28.64-7.47-31.18-11.6-.36-.59-.61-1.25-.83-1.93-4.77.26-8.53-1.24-10-6-1.49-2.72,2.69-5.95,5-4,9.55,4.74,14.42,9.35,25.49,13.01,22.51,7.46,43.24,8.8,66.72,4.69,8.83-1.55,21.16-7.15,28.79-7.71,7.96-2.39,11.27-3.32,12.86,5.73,3.45.69,6.17,1.78,8.14,3.27l.15,2.72c-9.21,9.65-19.94,17.81-32.2,24.51-5.7,12.14,13.88,4.45,18.58.83l3.47-.06c.16-3.41,8.91-7.94,12-7,16.67-11.15,29.03-27.19,36-46l-1.74-1.4c2.56-6.63,4.94-33.05-2.24-10.1-1.52,4.55-3.86,7.39-7.02,8.5-4.31,5.35-8.44,10.56-11.26,16.85-1.98,3.34-5.89,7.11-9.74,5.15-.44-1.25-.5-2.51-.15-3.78,11.43-15.91,21.57-32.28,30.41-49.12,2.14-2.57,7.59-7.08,9.75-3.1Z"></path><path class="cls-37" d="M246.89,105.13c6.66,35.16-22.42,62.32-52.17,75.52l-.83,1.48c-33.09,13.26-90.17,18.24-117-10-.38-2.49-1.84-4.9-4.38-7.22l-.62-5.78c-4.17-1.44-3.9-13.53,1-14l2.71,1.25c6.79,14.28,21.99,20.74,36.99,22.54l5.3,2.21c.19-.89.52-.85,1,0,8.13,1.13,16.36.69,24.43-.69l2.57,1.69c7.64-1.43,14.3-4.43,20-9l.28-1.47c17.59-10.14,31-23.59,40.21-40.35l2.51-1.18,1.87,1.13-1.34,11.18c2.59-1.23,4.42-1,5.47.69l.76,2.78c-2.3,4.28-4.83,8.5-8.21,12.04-11.05,6.94-24.23,27.31.38,11.88,6.58-4.12,13.97-8.88,19.06-14.7l-.21-2.79c1.67-3.95,7.28-12.03,10.21-15.21-1.8-2-.8-4.67,3-8-2.68-1.3-1.82-10.15,1-11-.26-6.99,1.41-9.99,5-9,1.86.67,2.42,4.67,1,6Z"></path><path class="cls-22" d="M275.89,149.13c1.41.84,2.08,1.84,2,3,3.02,2.22,7.22,8.51,6,12-.4,2.27-1.83,4.64-4.29,7.11-.23,4.06-1.46,6.69-3.71,7.89.35.63.67,1.26.85,1.93,1.26,4.52-8.15,21.13-11.18,25.94-3.53,5.6-13.94,20.29-18.96,23.32-1.13.68-2.41.88-3.72.8-.01,4.77-5.95,8.81-10.18,10.68-3.39,3.08,26.26-8.47,25.18-10.68l.52-3.13c5.68-5.13,11.06-10.66,15.47-16.94l3.01-.93c12.34-19.36,16.91-8.67,7.64,9.24-11.29,21.8-38.6,33.88-60.04,42.96l-2.6,2.8c-1.43.68-2.95,1.21-4,2.5l3,.5c.03,1.52-1,2.46-3.1,2.81-.37,1.83-.78,2.78-2.9,3.19-1.18.63-2.38,1.23-3.62,1.69s-2.45.88-3.69.99c-21.89,1.93-61.86,4.12-82.11-1.89-1.26-.37-2.43-1.04-3.58-1.79-5.77-3.62-11.42-7.09-17.87-9.42-3.27-1.83-9.96-5.69-7.13-9.58,69.21,22.83,168.85-10.22,176.99-91.51.41-4.07-.64-9,.16-12.84.61-2.94,1.16-.86,1.86-.64Z"></path><path class="cls-13" d="M97.89,124.13l-.83-1.03c-3.33-4-5.39-8.32-6.17-12.97-3.35-1.59-2.08-11.4,2-11l2.71.87c8.35,14.83,26.2,15.07,41.19,12.82l3.11,1.31c.11-2.85,7.49-4.19,9-2,13.46-3.37,25.66-10.6,29.85-24.69,6.53-10.93,10.86-21.36,8.15-34.31-2.62-2.95-3.95-7.07-3.98-12.34-.42-4.15-.65-13.1,1.98-15.66-1.32-2.66,1.11-7.1,4-6-6.21,18.93,13.04,27.23,19.03,41.47,23.22,55.24-74.6,88.86-110.03,63.53Z"></path><path class="cls-42" d="M208.89,120.13c-5.23,17.2-27.69,34.87-43,43-5.69,4.58-12.36,7.58-20,9-8.95,1.18-18.26,1.73-27-1l3.3-2.1c13.27-.14,25.28-3.32,37.58-7.99,6.1-2.32,10.69-4.07,10.12-10.92l.72-2.1c27.36-9.1,7.97-23.32-8.52-6.88l-2.2-.02c-1.17,1.23-2.61,1.26-4.3.08-18.29,3.92-34.32,4.18-52.7,1.99.59,10.33,6.95,20.42,15.85,25.8l-.85,2.14c-18.19-.36-37.99-8.08-45-26-2.63-3.41,2.44-8.16,5.2-10.59,3.63-3.21,8.81-6.38,13.8-5.41,4.55,1.95,9.14,5.14,13.73,6.77,23.21,8.28,58.01.85,79.27-10.77l1.94.49c7.3-3.93,14.26-8.49,20.85-13.69,5.16-1.11,5.61,7.74,1.2,8.2Z"></path><path class="cls-50" d="M114.89,81.13c-.72-.34-2.46-2.2-3-3-.68-4.08-1.02-13.1,4-13l2.65-.21c15.88,13.98,38.45-1.75,45.35-17.79-2.3-1.69-.06-9.4,3-9-1.38-2.3,1.36-6.14,4-6,3.09,1.45,2.31,11.8,1.8,15.61-2.21,16.37-9.91,29.72-25.7,36.2-9.34,3.83-25.06,5.35-32.1-2.81Z"></path><path class="cls-1" d="M261.89,136.13c.89.27.87.6,0,1-9.62.6-11.35,11.27-15.14,17.36-3.3,5.3-6.76,10.71-10.03,15.97-4.73,7.59-10.55,14.77-14.83,22.67,1.22,2.56-3.42,7.78-6,6-3.6.27-9.34.25-10.8-3.74-.47-1.27.4-3.5-.78-4.38-1.51-1.13-7.28-1.04-9.42-.88,5.66-2.94,12.44-5.42,17.89-8.61,24.21-14.16,36.4-32.13,43.11-59.39,3.7,2.42,6.4,9.57,6,14Z"></path><path class="cls-71" d="M288.89,177.13c1.4,2.88,1.74,6.54,1.01,11-.25-3.87.08-7.2.99-10,1.44,5.88,1.52,14.43,1.04,20.54-3.16,40.06-40.23,52.36-70.04,66.46-.58-5.2,4.6-4.34,7.68-5.82,22.97-10.97,53.72-26.41,58.23-54.78,1.5-9.45-8.01,5.34-10.91,5.59l-1.12-2.03c3.21-6.23,5.31-13.29,5.34-20.34.02-4.28-1.12-7.12-5.21-8.63,1.86-7.12.07-9.98,8-15,3.4,1.56,6,9.39,5,13Z"></path><path class="cls-65" d="M221.89,84.13c.89.24.87.58,0,1,4.35,11.03,4.61,24.71-1,35,2.72,3.11-2.05,12.74-6,13l-7.99,2,1.99-15c.51-1.67,1.35-5.4.51-6.99-5.73,4.02-12.93,10-19.28,12.72-1.27.55-5.96,3.08-5.23-.73,6.69-3.66,17.86-12.91,22.52-18.98,2.42-3.15,4.36-7.22,5.49-11.02l8.98,3.99c-2.63-6.67-3.31-12.02-4-18.99,1.44-1.51,2.77-.18,4,4Z"></path><path class="cls-52" d="M43.89,239.13c5.96.18,12.76,5.58,17,10,4.62-1.15,13.25,2.97,16,7l1.66-1.49,13.19,5.06c-4.66-3.17-5.94-6.03-3.85-8.57,2.07.85,6.5,2.18,9,3,5.12,11.2,19.28,8.23,25,19-.93.9-2.04,1.35-3.29,1.57-4.48.78-28.64-5.44-34.46-7.28-7.81-2.46-40.8-15.56-42.99-22.26-.21-.64-.26-1.33-.26-2.03-3.06-3.47-.78-7.08,3-4Z"></path><path class="cls-88" d="M179.89,25.13c.63,2.96.21,6.43-1.27,10.42l-2.03,19.2c-3.61,11.01-8.76,25.2-20.71,29.39-.12,1.01-.46,2.02-1.34,2.42-12.31,5.53-22.28,7.66-34.66,1.58-.22.81-1.27.46-2,0,1.1-3.79-3.85-3.03-3-7,26.4,12.22,54.31-6.3,55.88-34.62l.12-14.38c-1.94-2.69,2.54-10.72,6-9,2-2.11,3.94-.7,3,2Z"></path><path class="cls-20" d="M318.89,224.13l-1.66-.92c-.85,5.17-4.79,12.45-10.34,11.92-1.86-2.62-3.14-6.02-3.84-10.19-3.36-5.24-5.41-10.51-6.16-15.81,1.88-6.79,2.06-13.02,2-20,11.31,5.87,22.18,19.27,21.04,32.59-.12,1.38-.97,2.06-1.04,2.41Z"></path><path class="cls-27" d="M294.89,245.13c1.46,1.39.86,1.97-1,1l-2.1,3.53c-8.92,4.83-18.39,8.64-28.05,11.7l-2.85-1.23c-3.18.09-6.75-1.33-3-4,13.06-7.6,27.23-20.34,34-34,2.58-.96,5.07,4.15,5.84,6.39,2.06,6,1.31,11.8-2.84,16.61Z"></path><path class="cls-54" d="M48.89,190.13c-3.27,7.67-2.56,17.37,0,25l.13,2.5c-4.18,4-5.97,9.71-6.92,15.29l-2.21,1.21-2.36.34c-3.53-4.72-6.74-9.5-9.64-14.34-.02-13.09,9.11-25.04,21-30Z"></path><path class="cls-2" d="M194.89,7.13c1.89.77,1.56,1.44-1,2l-.68,1.28c-4.19.69-24.08,8.44-24.32,11.94,4.26,3.99.84,12.52-4,12.78-.68,3.58-4.9,1.91-7.54.79-5.67,8.05-14.25,13.13-22.64,17.89l-2.82-.69-.13,2.36c-5.88,1.83-10.36,4.97-13.43,9.44l-2.44.2c-2.95,5.24-2.69,7.55-4,13-3.7-5.49-1.07-13.94,2.59-18.91,6.81-9.27,19.65-10.47,28.35-16.65,18.08-12.85,23.33-36.04,52.06-35.44Z"></path><path class="cls-23" d="M292.89,252.13c-.53,1.36-1.23,2.67-2.4,3.58-6.7,5.16-23.09,10.24-31.67,12.73-10.68,3.09-29.17,7.53-39.94,7.3-1.47-.03-2.79-.83-3.99-1.6,1.25-4.88.58-5.16,6-6,10.43-1.61,15.78-1.52,26-6,3.84-.64,7.57-1.71,11.17-3.22l2.83,1.22c10.32-3.01,23.91-8.46,33-14,3.63,1.11.88,4.26-1,6Z"></path><path class="cls-10" d="M57.89,231.13c.93,3.03,1.39,6.34,1.39,9.95,1.75,3.07,2.29,5.75,1.61,8.05-5.62-2.91-12.19-5.84-17-10-3.09.53-5.64-1.97-4-5,.97-6.87,3.23-14.59,9-19,1.63,4.85,5.65,12.19,9,16Z"></path><path class="cls-92" d="M63.89,166.13c.15.24-.15.76,0,1-19.38,12.26-41.49,18.73-50.48,42.02-2.69,6.97-2.66,11.38-3.45,18.51-.24,2.21-1.55,1.67-3.07,2.47-2.43-34.64,26.97-55.49,57-64Z"></path><path class="cls-89" d="M248.89,106.13c3.4,37.84-22.21,62.86-55,76-3.08-1.33,3.23-4.3,3.87-4.63,28.81-15.22,51.71-36.44,49.13-72.37.5-1.72,1.17-1.38,2,1Z"></path><path class="cls-33" d="M306.89,235.13c1.04,3.87-8.37,11.81-12,10,.1-4.4,2.45-7.49,1.94-12.39-.43-4.09-3.23-7.13-4.94-10.61,1.53-3.09,4.07-9.65,5-13,4.39,8.29,10.51,16.02,10,26Z"></path><path class="cls-48" d="M202.89,8.13c12.14,4.12,9.99,26.21-2.82,22.35-11.56-3.48-1.49-18.71,7.81-8.35-1.88-12.15-11.96-11.27-18.99-3-1.68,1.97-3.09,2.54-4,6-2.52,1.25-3.77-.85-2-3-.38-2.34.96-4.68,4-7l.33-2.51,9.67-3.49c1.39-.77,3.39-1.11,6-1Z"></path><path class="cls-77" d="M78.89,246.13c.41.29.77.61,1,1,.25.43-2.47,8.16-3,9-6.02-2.31-10.12-3.96-16-7-3.93-6.08-5.13-10.8-3-18,4.96,5.65,14.33,11.44,21,15Z"></path><path class="cls-55" d="M339.89,219.13v4c-3.82-.53-3.66-7.82-4.99-11.51-5.29-14.69-14.68-23.92-27.68-32.32-2-1.29-7.1-4.86-9.33-3.17-.3-1.46-2.14-3.93-2-6,21.83,9.05,40.46,24.7,44,49Z"></path><path class="cls-30" d="M91.89,129.13c-8.33,3.53-15.49,7.09-19,16-2.14,5.43-2.53,8.31-1,14,1.65,5.25,1.31,7.25-1,6-6.22-11.99-5.14-26.89,6.49-35.01,5.84-4.08,8.58-3.53,14.51-.99Z"></path><path class="cls-6" d="M117.89,88.13c.61.13,1.39-.13,2,0,.87.28.86.62,0,1l-1.87,1.68c-8.59-1.69-18.52-1.38-22.65,7.67l-2.47.64c-2.04,5.05-1.86,5.49-2,11,1.55,3.98,1.22,5.64-1,5-4.76-8.93-4.22-20.78,3.96-27.54,8.91-7.35,15.45-1.27,24.04.54Z"></path><path class="cls-4" d="M217.89,62.13c3.83-.5,19.01,11.73,18.58,14.52-.08.51-.31,1-.58,1.48-1.48,4.96-5.83,4.7-13.04-.8,1.33,3.37,1.01,5.64-.96,6.8l-4-4c-.78-8.01-1.7-11.64-3-19,.72-1.51,2.43-.49,3,1Z"></path><path class="cls-78" d="M73.89,180.13c-1.87,1.07-3.32,2.71-5,4,.03,2.93-5.31,8.16-8,8-3.83,6.97-5.18,15.52-2,23,.48,1.83-.31,3.23-2,2-3.49-7.97-4.8-18.35-.87-26.37,2.01-4.11,10.51-13.04,15.37-12.66,1.97.15,2.21,1.89,2.5,2.04Z"></path><path class="cls-85" d="M87.89,251.13c.52,5.46,6.72,5.85,7,10.99-1.45,1.34-15.4-5-18-5.99-1.94-5.08.14-5.82,2-10,2.52,1.35,6.82,4.1,9,5Z"></path><path class="cls-56" d="M262.89,141.13c1.04.32,2.04,1.32,3,3,4,20.49.17,32.04-9,50-.39-5.45,3.48-9.64,4.95-14.55,3.23-10.81,2.98-27.33,1.05-38.45Z"></path><path class="cls-28" d="M85.89,242.13c-10.23-5.06-20.96-10.87-27-21-.96-2.81-.63-4.14,1-4,.44.83,4.12,5.66,4.95,6.55,5.29,5.65,13.99,10.77,21.07,13.92l-.02,4.53Z"></path><path class="cls-57" d="M246.89,94.13c-.36,2.7-1.09,2.48-2,0-2.34-.82-4.07-2.98-5.17-6.47-2.98-3.41-4.26-6.58-3.83-9.53-6.07-8.5-9.1-10.8-18-16-1.32-1.32-.76-1.73,1-1,15.55,7.13,23.38,16.3,28,33Z"></path><path class="cls-72" d="M290.89,177.13c-.32,2.66-1.24,2.54-2,0-1.13-4.84-3.07-8.57-5-13s-3.38-7.88-6-12c-1.23-1.39-.7-1.93,1-1,5.55,6.01,10.97,17.93,12,26Z"></path><path class="cls-70" d="M257.89,256.13c-.62,2.38,2.19,2.1,3,4-3.88,1.13-10.63,3.72-14,2,3.53-1.55,7.6-4.02,11-6Z"></path><path class="cls-76" d="M97.89,124.13c-3.65-2.61-5.9-5.07-8-9,1.61-.84.96-3.4,1-5,1.25,1.5,1.28,3.4,2.33,5.17,1.55,2.58,7.33,6.02,4.67,8.83Z"></path><path class="cls-24" d="M263.89,136.13c-.32,2.66-1.24,2.54-2,0-1.35-4.98-3.46-9.55-6-14,.26-1.07-.84-3.25.99-2.99,3.42,6.09,5.04,10.39,7.01,16.99Z"></path><path class="cls-32" d="M76.89,172.13c-2.1-2.21-4.56-4.23-6-7,1.77-1.12.85-4.12,1-6,.25.95,1.65,4.57,2.13,5.38,1.76,3.01,6.77,4.09,2.87,7.62Z"></path><path class="cls-44" d="M246.89,94.13c1.29,4.65,1.57,7.25,2,12l-2-1c-.14-1.97-.62-4.06-1-6-2.95.12-3.47-3.55-1-5h2Z"></path><path class="cls-61" d="M263.89,136.13c.87,2.92,1.41,4.98,2,8-2.4.66-1.8-1.56-3-3-.28-1.62-.67-2.62-1-4-.08-.32.08-.69,0-1h2Z"></path><path class="cls-35" d="M290.89,177.13c.04.33-.03.67,0,1l-.99,10c.02-3.45-.23-7.66-1.01-11h2Z"></path><path class="cls-47" d="M202.89,8.13c-1.09,1.68-4.11.97-6,1-1.28.85-2.28.85-3,0l1-2c2.39.05,5.8.25,8,1Z"></path><path class="cls-80" d="M59.89,217.13l-1,4c-.46-.78-1.6-3.09-2-4l2-2c.23.55.7,1.43,1,2Z"></path><path class="cls-66" d="M218.89,61.13l-1,1c-.94-.55-1.92-.88-3-1-.11-.61.04-1.35,0-2,.28-.3,3.23,1.65,3.99,2Z"></path><path class="cls-91" d="M278.89,151.13l-1,1c-.58-.91-1.79-1.66-2-3,2.22.69,1.6.49,3,2Z"></path><path class="cls-82" d="M290.89,303.13c-47.59,33.26-146.45,33.16-200,16-.1-.92-.14-2.01.52-2.53.8-.63,17.79,2.01,19.85,3.34l10.71-4.6c6.3-.66,11.94-.73,16.92-.2-.19-1.92.76-2.56,2.58-2.41,29.3,3.36,60.66,1.01,90.66-1.51l2.75.92c4.45.49,8.82,1.76,13.12,3.81,11.77-1.24,23.06-5.26,33.87-12.04l2,1.23c-1.1-3.77,7.9-6.86,7-2Z"></path><path class="cls-26" d="M309.89,281.13c-1.97,8.36-12.17,17.22-19,22-.99-2.02-5.22,1.12-7,2-2.1-1.42-4.2-2.18-6.29-2.26-11.67,4.2-23.82,7.74-36.26,10.12l-6.45-.86c-24.59,3.97-53.58,4.61-78.54,4.04-4.28-.1-13.63-2.38-17.46-1.04l-.91.77c-5.71-1.43-11.75-1.64-18.09-.63-19.43-3.85-38.56-8.74-57.38-14.68-5.04,5.06-13.06-3.78-16.63-8.03-1.3-1.55-5.98-7.15-5.87-8.53.03-.32.4-.62.88-.9,21,9.83,38.25,15.29,61,20,2.35.21,4.66-.02,6.94-.68,40.11,8.5,78.92,5.52,119.16,1.74,2.34-.22,4.66.35,6.91.95l2.77-1.83c22.41-5.45,45.03-11.04,65.9-21.31l6.33-.87Z"></path><path class="cls-46" d="M40.89,283.13c.44,4.55,12.65,16.73,15.98,17.62,2.63.7,3.4-2.37,6.12-2.16,8.6.69,27.38,8.79,37.87,11.07,7.25,1.57,17.39,3.53,24.66,4.34,4.47.5,9.19-.82,13.38,1.12-.17.06-.66,1.78-1.62,1.9-1.31.17-2.34-1.72-3.92-1.9-8.79-1.01-17.87,6.77-22.15,6.78-1.46,0-2.43-1.57-3.86-1.74-2.28-.26-4.6.23-6.86-.14-2.92-.48-7.13-3.07-9.6-.9-20.17-6.46-43.51-16.96-53-37,.2.09.67-.09,3,1Z"></path><path class="cls-40" d="M309.89,273.13c.65,2.59.55,5.66,0,8-23.58,11.91-48.9,19.67-75,24-1.73-1.48-3.73-2.68-5.98-3.6l-.02-2.4,4.25-2.67c19.22-2.99,37.98-8.42,55.78-16.3l4.97-.03c2.42-4.18,11.72-8.27,16-7Z"></path><path class="cls-74" d="M309.89,273.13c-4.33,2.57-11.3,4.85-16,7-3.22-.59-1.6-4.26,1-5l.29-1.54c18.71-9.69,37.39-23.7,43.22-44.88l1.49-1.58c.12-1.29,0-2.69,0-4v-4c3.47,23.85-9.99,42.14-30,54Z"></path><path class="cls-29" d="M69.89,280.13c.63.11,1.38-.11,2,0,3.39,2.47,7.39,3.8,12,4,36.89,10.13,69.24,12.13,107.54,11.04,35.45-1.01,60.2-6.51,93.46-18.04l8.95-3.08,1.05,1.08-1,5c-21.7,9.91-41.15,15.57-65,19-1.84,1.2-3.78,2.45-5.98,2.82-31.01,5.19-77.14,3.85-108.13-1.83-1.03-.19-2.02-.65-3.01-1.15s-1.95-1.15-2.87-1.83c-33.94-5.86-88.19-21.26-100-58,1.75-1.25,3.84-.23,6.25,3.06,12.64,19.22,33.07,30.91,54.75,37.94Z"></path><path class="cls-67" d="M228.89,299.13c2.58,2.12,6.67,1.44,6,6-42.75,7.09-90.53,6.79-133-2,3.94.12,6.63-2.04,7-6,37.86,6.54,81.89,7.49,120,2Z"></path><path class="cls-87" d="M7.89,236.13c8.65,2.33,10.5,9.32,15.35,14.65,5.14,5.64,17.06,15.18,23.76,18.74,7.14,3.8,16.07,5.77,22.89,10.61-19.26-3.4-38.09-16.08-51.51-30.99-3.12-3.47-4.4-8.52-9.49-10.01-.33-1.02-.75-1.86-1-3Z"></path><path class="cls-75" d="M28.89,227.13c2.23,1.18,4.06,3.43,5.49,6.74,3.44,2.83,5.61,5.92,6.51,9.26,19.72,18.3,54.7,26.57,81,30,31.14,4.06,61.8,4.12,93,1,30.61-3.06,51.04-7.08,78-22,2.37-3.48,5.91-6.2,10.62-8.15,2.74-2.85,5.54-4.47,8.38-4.85,5.76.29-2.79,7.82-3.85,8.65-36.17,28.14-112.98,36.6-157.63,33.34-9.33-.68-19.88-3.89-29.51-3.97.95,2.04,4.4,1.1,6.07,3.41,1.75,2.43,1.32,6.46-1.77,7.37-5.63,1.66-23.55-.29-18.8-9.81,1.44-2.88,4.88-.82,5.5-2.98-4.89,1.07-8.35-1.99-12.99-2,3.13,2.68,5.36,4.67,4.06,9.38-1.17,4.24-27.94-1.56-30.59-7.41-1.07-2.36,1.01-5.12,3.24-5.76s6.34.88,7.28-1.2c-21.65-6.99-49.44-18.13-57.99-41.01h4Z"></path><path class="cls-8" d="M339.89,227.13c-1.82,19.55-27.7,41.48-45,48-1.69.64-7.74,1.22-10,2,18.34-9.25,39.12-20.8,48.74-39.76,1.63-3.22,1.26-9.45,6.26-10.24Z"></path><path class="cls-64" d="M306.89,235.13c1.94-1.96,5.52-4.93,6.65-6.85s2.11-6.88,2.41-7.11c1.74-1.37,3.91.52,2.94,2.96-1.03,5.19-3.61,10.91-7,15-5.66,6.83-12.05,9.15-19,13l1-6c.69-.42.89-.93,1-1,5.48-3.59,7.49-5.46,12-10Z"></path><path class="cls-69" d="M39.89,234.13c1.24,1.41,2.92,4.06,4,5-2.58-.11-3.27,1.66-3,4-5.43-5.04-9.88-8.27-12-16-.7-2.56-1-4.3-1-7,2.82-.35,2.9.33,4.06,2.44,2.95,5.36,3.92,6.99,7.94,11.56Z"></path><path class="cls-81" d="M63.04,265.28c5.86-3.71,11.99,6.8,4.29,7.88-6.05.84-6.51-6.47-4.29-7.88Z"></path><path class="cls-87" d="M83.89,284.13c-4.19-.18-10.91,1.13-12-4,4.61.83,8.17,2.95,12,4Z"></path><path class="cls-19" d="M153.89,223.13c-1.98,1.23-4.03,2.48-6.26,3.25-3.91,1.35-13.76,4.52-15.74.75-8.39,1.27-16.56,1.41-23.97-3.31-2.63-1.68-7.35-5.12-4.03-7.69-1.72-2.5,4.22-5.36,6-3,2.36-.41,4.36-.08,6,1l2.25-1.02c4.87,3.93,9.81,3.04,12.75-1.98l2.04.22c-.55-3.52,2.94-6.16,3.96-2.22,1,.6,1.35,1.58,1.05,2.92,5.21.95,5.2-.35-.05-3.92.38-1.84,2.38-2.84,6-3,16.68-.53,29.7-5.46,45.38-8.19,3.89-.68,10.74-1.46,5.52,3.6-9.64,9.35-28.05,18.73-40.9,22.6Z"></path><path class="cls-5" d="M78.89,190.13c18.35,9.68,44.18,15.66,65,15-2.09.95-3.98,1.87-6,3,1.3,1.43.74,1.97-1,1-.23.16-1.56-.38-1.89.1-.73,1.05,1.29,3.98-2.62,4.9-.73-.81-.68-1.9-1.49-3l-2.22.43c-3.5-3.89-9.11-3.42-10.61,1.94l-2.17.63c-1.33,0-3.62,3.19-6-1-.81.28-1.87.37-2.21-.27-3.59-6.72-10.3-1.05-3.78.69v2.58c.32.35.48,2.15,1.92,3.55,6.25,6.08,17.49,7.47,26.07,7.45l-.77,2.33c-12.52,2.69-36.74,2.06-45.17-8.62-1.5-1.9-13-24.51-13.06-26.12-.2-5.3.9-6.35,6-4.6Z"></path><path class="cls-94" d="M78.89,190.13c-8.4.58-2.11,7.14-.81,10.31,2.74,6.73,7.38,18.26,12.87,23.13,8.66,7.67,30.59,7.04,40.94,3.56,5.42,0,16.68-2.4,22-4-5.86,6.53-13.26,8.21-21.66,8.92-22.35,1.89-51.77-4.43-66.99-22.27-4.25-4.99-3.23-11.7-4.34-17.66,2.58-4.69,4.17-5.06,8-8,3.24,2.17,6.55,4.18,10,6Z"></path><path class="cls-95" d="M242.89,171.13c2.87,1.92.83,4.75-2,6,.15.77.27,1.54.25,2.3-.16,6-19.09,28.37-26.25,30.7l-.52,2.08-14.92,10.78c3.83.46,5.98,1.84,6.44,4.14-1.95,1.04-3.63,3.05-6.3,4.2-7.72,3.32-23.88,8.06-17.24-6.24,7.72-5.89,17.66-10.86,25.02-16.98,3.19-2.66,5.62-6.12,8.52-8.98,2.16-2.13,3.34-3.86,6-6,1.86-1.49,4.54-1.96,6.05-3.46,2.5-2.49,5.12-9.6,7.95-13.05,1.25-1.52,5.02-4.7,7-5.49Z"></path><path class="cls-63" d="M228.89,210.13l.31,1.07c-3.53,3.26-7.23,6.37-11.31,8.93-4.45,3.5-7.26,4.49-12,7l-10.99-3.49,18.04-12.99c.59-.41,1.27-.42,1.95-.53,3.49-2.63,11.85-3.95,14,0Z"></path><path class="cls-3" d="M242.89,171.13c1.49-3.04,3.68-6,5.19-9.31s1.26-11.02,7.2-9.76c3.98.84-.7,18.78-1.39,22.07-1.13,4.15-2.79,6.48-5,7-1.1-.3-1.91-1.25-2.42-2.87-2.49.53-4.35.15-5.58-1.13.81-1.49,1.23-4.42,2-6Z"></path><path class="cls-34" d="M217.89,220.13c3-2.35,8.19-7.2,11-10l-.72-2.12c7.85-7.65,14.01-16.29,18.5-25.94l2.23-.94,5-7c-2.3,11.05-6.68,18.66-14.02,27.48-5.62,6.75-14.02,14.83-21.98,18.52Z"></path><path class="cls-15" d="M159.89,141.13c1.23,1.33,2.11,3.27,2.62,5.84,3.47.56,5.93,1.62,7.38,3.16,4.5,4.57-.35,8.7-4.76,10.74-15.49,7.17-29.12,9.93-46.24,10.26-.33,0-.67,0-1,0-1.87-2.74-5.17-3.62-7.53-5.97-3.27-3.24-12.84-20.57-8.53-23.6,2.27-1.59,22.31,1.78,27.6,1.6,7.83-.26,19.32-4.35,25.91-4,1.64.09,3.1,1.3,4.54,1.96Z"></path><path class="cls-96" d="M235.89,78.13c3.28,4.6,7.27,10.62,9,16,.4,1.23.71,3.53,1,5-4.14,1.65-1.54,7.42-5,9-2.61.66-2.73.05-1-2l-2.17-1.56c-.33-15.79-7.4-11.19-5.69.7l-1.14,1.87c3.31.47,2.32,10.4-1,11,.67,4.68-.87,11.56-6,14,.78.44,1.2,1.08,1.17,1.95-.84.79-12.28,16.77-8.25,15.21,2.94-1.14,5.55-2.49,7.84-4.77l2.23.61c-3.62,6.82-12.19,12.83-18.69,16.81-3.71,2.28-17.35,10.74-16.13.95.92-7.36,9.65-11.66,14.32-16.75,3.7-4.03,5.99-8.44,8.49-13.01s4.53-7.83,6-13c5.62-10.14,5.29-24.15,1-35-.05-.33.05-.67,0-1-.48-3.25-.4-5.71-2-8.99,6.32-2.08,9.46,8.58,16,2.99Z"></path><path class="cls-90" d="M236.89,127.13c-2.55,6.79-4.89,12.5-10,18-2.07,2.23-11.25,9.55-12.91,4.36-1.15-3.6,7.88-13.54,9.91-17.36,1.89-1.91,10.37-7.63,12.17-6.21.37.29.61.73.83,1.21Z"></path><path class="cls-73" d="M239.89,106.13c.07.57.99,1.5,1,2,.09,3.12-.43,7.93-1,11-1.74,6.41-12.8,6.66-10-1,.43-1.89.96-8.74,1-11-1.2-4.8,8.33-6.05,9-1Z"></path><path class="cls-93" d="M229.89,118.13c-1.65,5.31,8.74,3.94,10,1-.8,4.28-1.87,4.99-3,8-4.84.61-8.14,5.44-13,5,.89-1.66,5.69-12.63,6-14Z"></path><path class="cls-59" d="M165.89,163.13c-3.25,6.85-13.47,8.14-20,9,6.55-2.98,13.66-5.63,20-9Z"></path><path class="cls-45" d="M275.89,179.13c4.43-1.73,5.69.96,6.72,4.77,1.88,6.96-1.88,20.13-5.72,26.23-4.77,7.59-12.24,15.11-19,21-4.01,3.65-15.06,7.5-15,0,14.73-13.87,27.83-32.27,33-52Z"></path><path class="cls-53" d="M257.89,231.13c-3.34,2.91-6.76,6.66-10.66,8.84-2.75,1.54-14.33,6.23-16.28,3.08s2.39-3.22,3.89-4.46c2.73-2.25,5.46-5.02,8.05-7.47,4.13,4.04,10.47,1.68,15,0Z"></path><path class="cls-9" d="M166.89,79.13c1.73.92-1.5,5.84-2.83,7.11l-18.38,8.61c-.37.24,6.23,5.22,6.68,5.55,2.31,1.67,19.73-6.7,19.38-11.66l2.14-.61c-1.89-2.41.94-3.85,3-2l2.17.83c-4.06,14-16.57,21.88-30.17,25.17-4.06,1.66-5.31,1.28-9,2-5.46-1.99-22.61-9.14-23.84-14.68-.83-3.75,2.6-5.67,5.51-7.06-1.71-.56-2.33-1.39-1.67-3.26v-1c16.03,3.33,21.27,2.13,36-4,3.69-1.52,6.99-3.58,9.92-6.18l1.08,1.18Z"></path><path class="cls-41" d="M119.89,89.13c.38.07,1.67,1.25,2.88,1.58,1.04.28,8.64.05,6.12,2.41-.85.8-9.84.57-10.9,4.7-1.52,5.91,19.14,10.98,21.9,16.31-17.57,3.44-38.22,3.22-47-15,4.82-11.93,15.52-12.26,27-10Z"></path><path class="cls-62" d="M184.89,25.13c.78,4.32-.39,10.71.02,15.48.36,4.16,1.68,7.97,1.98,12.52.61,2.53.61,4.86,0,7-1.48,1.54-4.08.79-7.82-2.26-.05,5.31-1.85,8.93-5.4,10.85-1.35,3.67-3.1,7.15-5.25,10.43h-1.53c-2.69.09-3.58,2.68-5.73,3.77-1.87.94-4.02.7-5.27,1.22,10.25-6.17,16.57-18.19,18.74-29.76,1.64-8.74.64-21.8,5.26-29.24-1.9-1.98.81-4.52,3-3,.38.91,1.86,2.22,2,3Z"></path><path class="cls-68" d="M202.89,59.13c-1.45,4.94-1.75,10.38-.89,16.32,1.35-.06,2.27.2,2.89,1.68-.4,4.49-4.58,14.78-9.56,11.07-5.41-4.03-.16-10.99.48-15.66.52-3.83-.06-17.02-.92-20.74-.17-.75-1.85-.56-1.94-1.29-.14-1.16,1.06-3.55-.05-5.38,4.69,3.07,8.24,8.73,9.99,14Z"></path><path class="cls-39" d="M148.89,112.13c3.01-1.23,12.21-5.42,14.51-6.99,2.04-1.39,12.74-12.47,13.59-14.46.74-1.72.09-2.85-.1-4.55-1.55-2.63,1.01-6.88,4-7-.84-3.75-.17-5.41,2-5,1.72-2.85,3.35-5.67,4-9-2.76-1.07-2.83-3.97,0-5,.04-2.29.15-4.73,0-7,2.6,10.58,1.04,21.92-4.18,31.32-2.64,4.76-5.72,10.01-8.42,14.58-5.2,8.82-16,11.01-25.41,13.09Z"></path><path class="cls-14" d="M202.89,59.13c1.84,5.54,2.52,12.17,2,18l-5,1c.43-4.96-.59-10.72-.06-15.55.25-2.26.34-3.47,3.05-3.45Z"></path><path class="cls-36" d="M169.89,150.13c-7.08.66-11.77-1.28-10-9,1.11-4.82,25.35-16.66,26.1-4.51.5,8.08-9.37,12.88-16.1,13.51Z"></path><path class="cls-11" d="M191.58,127.24c2.23-.58,5.22,2.91,5.1,4.41-.08,1.05-4.01,3.68-5.19,3.41-2.5-.59-3.86-6.8.09-7.82Z"></path><path class="cls-84" d="M131.89,53.13c9.99-5.77,20.56-11.39,26.01-21.99,1.86-.18,1.26,3.3,2.13,3.86,1.09.7,3.71-.25,4.85.14,3.02-1.23,2.9.4,2,3-.92,1.77-1.35,5.9-3,9-4.09,11.93-11.41,14.05-22.47,16.66l-1.53-1.66c-.71-4.13-2.3-5.53-4.75-4.2l-2.25-.8c-2.97.48-3.46-2.52-1-4Z"></path><path class="cls-31" d="M163.89,47.13c-5.09,19.01-31.44,35.13-48,18,4.96-8.81,8.65-7.76,16-12l1,4c.22,1.54.35,3.14.37,4.81,2.51-.21,4.71-.15,6.63.19,4.31-1.13,4.96-1.47,8.72-2.78,2.03-.71,3.97-.01,6.65-1.35,2.22-1.11,7.33-8.46,8.62-10.88Z"></path><path class="cls-16" d="M193.89,9.13c.98-.08,2.01.01,3,0-2.61,2.43-6.56,3.88-10,6l-7.92,8.32-2.08-.32c-3.42,3.79-3.61,4.67-6,9-1.01,1.82-3.05,4.19-4,6-.55-.53-1.73-2.91-2-3,1.99-2.51,5.78-6.65,3.51-10.05-.81-1.21-4.33-.29-1.54-3.48,6.12-6.97,18.03-11.7,27.03-12.47Z"></path><path class="cls-4" d="M221.89,85.13c3.69,3.27,5.31,14.71,5.08,19.52-.13,2.74-2.49,9.29-3.37,12.74-.43,1.69-.34,3.22-2.71,2.74,3.35-11.82,2.79-23.05,1-35Z"></path><path class="cls-13" d="M182.89,22.13c-.67.89-2.2,1.71-3,3l-3-2c3.89-4.31,5.16-5.01,10-8-.77,2.14-2.66,5.22-4,7Z"></path><path class="cls-25" d="M283.89,305.13c-8.63,4.28-26.99,14.48-36.26,12.77-3.5-.65-9.37-4.06-12.74-5.77,9.98-1.61,20.63-4.44,30.44-7.06,5.68-1.52,16.31-8.88,18.56.06Z"></path><path class="cls-83" d="M130.89,211.13c.96,6.58-5.31,6.93-10.29,5.79-1.79-.41-4-2.79-4.71-2.79,1.24-8.09,10.15-9.57,15-3Z"></path><path class="cls-86" d="M103.89,216.13c-1.57-1.72-3.69-1.73-4.94-3.62-.16-4.78,5.95-6.14,9.23-3.43,1.66,1.37,1.06,2.92,1.71,4.06l-6,3Z"></path><path class="cls-51" d="M136.89,209.13c.41-.28.72-.84,1-1,5.38-1.22,9.14,5.72,2.51,6.09-3.91.22-5.8-1.31-3.51-5.09Z"></path><path class="cls-58" d="M240.89,177.13c4.64-1.38,8.72-2.05,8,4-.9,7.6-14.37,23.39-20,29-4.08-.13-10.19-.6-14,0,10-10.12,19.17-20.36,26-33Z"></path><path class="cls-49" d="M145.13,147.38c3.53-3.42,11.51.36,8.27,5.76-3.41,5.69-12.59-1.58-8.27-5.76Z"></path><path class="cls-18" d="M230.89,107.13c0-.13-1.02-1.12-1.04-2.42-.03-2.35-.37-5.76.24-7.88s5.33-6.76,7.02-3.42c2.57,5.08,2.18,7.58,2.77,12.72-3.11-1.79-6.43-1.39-9,1Z"></path><path class="cls-7" d="M186.89,60.13c-.03,1.65.12,3.36,0,5-.44,3.71-1.77,6.04-4,7-2.41.67-5.07,1-8,1l.65,2.28c-2.79,3.42-5.49,6.87-7.46,10.84,3.34-.73,5.27-.11,5.81,1.88-1.14,1.83-.18,3.85-3.04,6.46-1.77,1.61-14.53,8.09-16.71,8.4-3.02.43-5-3.59-7.29-5.32-1.8-1.36-4.4-1.24-5.95-3.05l21.32-9.65c2.96-1.34,3.41-3.73,4.67-5.83,2.17-3.62,3.44-8.53,5.3-11.7.39-.67,2.32-.89,3.16-2.32,1.29-2.18,1.45-6.41,1.54-8.98,5.05-1.38,5.95,2.99,10,4Z"></path><path class="cls-97" d="M180.89,79.13c-1.45,3.33-2.01,4.06-4,7-.45.67-2.64,1.43-3,2-1.89-.58-8.44,1.51-8.01-1.49.41-2.8,6.81-11.17,9.01-13.51,5.32-2.65,7.19.97,6,6Z"></path><path class="cls-12" d="M182.89,72.13c1.79-.05,1.07.87,0,2-.68,1.8-1.23,3.23-2,5-1.12-3.18-1.88-6.46-6-6,2.67-2.85,4.39-2.7,8-1Z"></path><path class="cls-62" d="M182.89,74.13c.19-.5-.19-1.49,0-2,.7-1.87,3.12-4.82,4-7-.28,3.8.12,6.97-4,9Z"></path><path class="cls-98" d="M139.89,62.13c-.83.22-1.83,1.61-3.55,1.95-5.84,1.14-7.01-3.7-3.45-6.95,4.27-3.89,10.12-.73,7,5Z"></path><path class="cls-43" d="M144.88,58.13c-.2-4.33-.63-8.54,4.73-6.24,7.27,3.12,1.54,8.11-4.73,6.24Z"></path></g></svg> 