<?xml version="1.0" encoding="UTF-8"?> <svg xmlns="http://www.w3.org/2000/svg" id="Laag_2" viewBox="0 0 334.31 349.65"><defs><style>.cls-1{fill:#fcfbf7;}.cls-2{fill:#e2cba4;}.cls-3{fill:#f8f8f9;}.cls-4{fill:#82603f;}.cls-5{fill:#d6cabc;}.cls-6{fill:#f9f9f6;}.cls-7{fill:#481806;}.cls-8{fill:#b86b3d;}.cls-9{fill:#320c03;}.cls-10{fill:#b9a49b;}.cls-11{fill:#b9a87f;}.cls-12{fill:#5a2815;}.cls-13{fill:#f2eede;}.cls-14{fill:#f9f9f8;}.cls-15{fill:#a78562;}.cls-16{fill:#ebb773;}.cls-17{fill:#d1c0a3;}.cls-18{fill:#845e3a;}.cls-19{fill:#cea779;}.cls-20{fill:#fcfbf4;}.cls-21{fill:#200d0b;}.cls-22{fill:#b46d3c;}.cls-23{fill:#efbf7e;}.cls-24{fill:#c37745;}.cls-25{fill:#b26b3f;}.cls-26{fill:#f6f6f6;}.cls-27{fill:#bca881;}.cls-28{fill:#e2d5bf;}.cls-29{fill:#bfae87;}.cls-30{fill:#e4d6aa;}.cls-31{fill:#6e4925;}.cls-32{fill:#f6f7f6;}.cls-33{fill:#876643;}.cls-34{fill:#ac9670;}.cls-35{fill:#f8f5e0;}.cls-36{fill:#c97b41;}.cls-37{fill:#c8894b;}.cls-38{fill:#c7bb99;}.cls-39{fill:#f6deb2;}.cls-40{fill:#e8ad67;}.cls-41{fill:#fbfaf2;}.cls-42{fill:#ad8d69;}.cls-43{fill:#ba6b3f;}.cls-44{fill:#a1865b;}.cls-45{fill:#ab7a4f;}.cls-46{fill:#2b0d07;}.cls-47{fill:#cd8c51;}.cls-48{fill:#d6995f;}.cls-49{fill:#c6aa82;}.cls-50{fill:#cdc8a5;}.cls-51{fill:#764e2e;}.cls-52{fill:#e5dbb6;}.cls-53{fill:#f9d08d;}.cls-54{fill:#f6f8f6;}.cls-55{fill:#f7f6e2;}.cls-56{fill:#361106;}.cls-57{fill:#ceb591;}.cls-58{fill:#f4e9d5;}.cls-59{fill:#cfd3d3;}.cls-60{fill:#685843;}.cls-61{fill:#c06f3e;}.cls-62{fill:#d7874f;}.cls-63{fill:#f1eddd;}.cls-64{fill:#a5714a;}.cls-65{fill:#f9d3a4;}.cls-66{fill:#cdc8a3;}.cls-67{fill:#eab36e;}.cls-68{fill:#dc9857;}.cls-69{fill:#d38f56;}.cls-70{fill:#c9814d;}.cls-71{fill:#cec08f;}.cls-72{fill:#f3f1d2;}.cls-73{fill:#44220e;}.cls-74{fill:#fcf8ef;}.cls-75{fill:#c57b48;}.cls-76{fill:#fdfcf8;}.cls-77{fill:#c57e4b;}.cls-78{fill:#5c2f13;}.cls-79{fill:#fdfcf7;}.cls-80{fill:#b1a07c;}.cls-81{fill:#3b1407;}.cls-82{fill:#ecb170;}.cls-83{fill:#fcfcf8;}.cls-84{fill:#c47d45;}.cls-85{fill:#d5d1af;}.cls-86{fill:#f9f9f9;}.cls-87{fill:#edd0b7;}.cls-88{fill:#c7c69e;}.cls-89{fill:#d99354;}.cls-90{fill:#dc944f;}.cls-91{fill:#fae6b2;}.cls-92{fill:#faf7f0;}.cls-93{fill:#b3a27a;}.cls-94{fill:#995d38;}.cls-95{fill:#e7dbb1;}.cls-96{fill:#c27749;}.cls-97{fill:#f8f6de;}.cls-98{fill:#eeb770;}.cls-99{fill:#f4f1ef;}.cls-100{fill:#c8b498;}.cls-101{fill:#faf9f7;}.cls-102{fill:#d0c1a4;}.cls-103{fill:#dfdcb9;}.cls-104{fill:#55331b;}.cls-105{fill:#d9c2a1;}.cls-106{fill:#b48b5e;}.cls-107{fill:#cf854f;}.cls-108{fill:#d6cba5;}.cls-109{fill:#fcfcf3;}.cls-110{fill:#f7eada;}.cls-111{fill:#9b8463;}.cls-112{fill:#2f271f;}.cls-113{fill:#dccdc4;}.cls-114{fill:#ededd1;}.cls-115{fill:#dabd92;}.cls-116{fill:#f5f5de;}.cls-117{fill:#5c3318;}.cls-118{fill:#7d6048;}.cls-119{fill:#ebb977;}.cls-120{fill:#f6e0c3;}.cls-121{fill:#ca8550;}.cls-122{fill:#f2f6f5;}.cls-123{fill:#e5c397;}.cls-124{fill:#fbf7e4;}.cls-125{fill:#fbfaf1;}.cls-126{fill:#cac89e;}.cls-127{fill:#211009;}.cls-128{fill:#d3c5a5;}.cls-129{fill:#f3f3f3;}.cls-130{fill:#b1885d;}.cls-131{fill:#f8faf9;}.cls-132{fill:#c29f72;}.cls-133{fill:#fdfae8;}.cls-134{fill:#cac4a1;}.cls-135{fill:#fbf5e9;}.cls-136{fill:#c87940;}.cls-137{fill:#daddbc;}.cls-138{fill:#b5602d;}.cls-139{fill:#9b7e54;}.cls-140{fill:#fbf6e5;}.cls-141{fill:#a88967;}.cls-142{fill:#efe4cf;}.cls-143{fill:#f5f4da;}.cls-144{fill:#f3eee0;}.cls-145{fill:#fcfcf2;}.cls-146{fill:#f4f3d8;}.cls-147{fill:#7b5731;}.cls-148{fill:#e5cba2;}.cls-149{fill:#fcf7e8;}.cls-150{fill:#eab675;}.cls-151{fill:#cabf9c;}.cls-152{fill:#b6895f;}.cls-153{fill:#dbbe8e;}.cls-154{fill:#faf7e7;}.cls-155{fill:#f5f6f6;}.cls-156{fill:#b56536;}.cls-157{fill:#f7f3d8;}.cls-158{fill:#eab46d;}.cls-159{fill:#fcf9ed;}.cls-160{fill:#c3804a;}.cls-161{fill:#b0a685;}.cls-162{fill:#ebb36b;}.cls-163{fill:#d18c52;}</style></defs><g id="Laag_1-2"><path class="cls-9" d="M267.27,129.73c2.66,3.34,7.42,7.99,8.36,12.23.71,3.2-.22,11.83,1.09,13.82,1,1.52,11.92,3.85,15.75,11.25,3.53,6.82.61,9.68.75,15.25.15,6.05,14.08,13.78,18.53,17.47,22.67,18.79,29.77,47.24,14.32,73.28-27.81,46.87-69.91,68.79-123.43,74.57-57.31,6.19-134.24.39-174.34-46.4-27.45-32.03-44.36-69.28-5.5-101.44,3.38-2.8,9.55-5.67,12-8,.38-.36,5.81-7.61,6.01-8.07.71-1.57-.92-7.97-.45-11.38,1.31-9.46,10.86-13.6,18.91-15.58,1.62-1.31,2.43-3.94,2.43-7.89,2.13-4.65,3.66-3.35,4.57,3.89.51-.04,1-.03,1.42.15.82.34,3.71,10.45,3.58,11.85.87.28.86.62,0,1,.74,2.86-2.02,3.8-4,2l.46,2.27c-9.48,15.58,16.54,28.12,29.39,28.52l1.15,2.21c3.96,1,3.63,5.57-.57,5.49l-.43,1.51c2.39-.74,4.37,1.6,4,4,1.1-1.27,2.72-1.35,4.87-.24,7.09-.94,11.73,1.19,13.92,6.38,2.27-5.17,6.13-8.11,11.22-5.13,3.51-2.47,7.49,5.97,6,9,12.18.23,23.76-4.08,35-8.52l2,.52c3.69-1.44,6.13,2.62,3,5,.22,2.19-1.77,3.72-5.98,4.61,3.01.41,5,1.54,5.98,3.39,7.36-.22,13.02-1.89,17-5-3.6-1.47-.82-9.81,3-8,.01-6.64,11.51-4.1,12,1,3.2-2.17,5.86-2.83,8-2,2.63.18,4.4,3.2,2,5,2.42.07,9.62-2.18,13.97-3.91.77,1.31,1.78,1.36,3.03.91l.76-1.38c15.17-7.12,26.8-21.3,31.2-37.44,1.72-6.33,4.24-19.05-.96-23.18-1.87,3.34-10.62,7.49-13,4-1.12,1.81-1.79,1.81-2,0-2.99,3.01-5.65,1.01-8-6-2.75.52-4.33-7.64-2-9,2.55-3.19,8.6-8.98,12-5l.96-2.25c2.85-.11,5.19-1.02,7.04-2.75-1.82-3.32,2.65-4.49,5-2Z"></path><path class="cls-56" d="M221.27,49.73c1.87,3.73,4.26,6.13,5.52,10.98.87,3.33,1.32,14.17,1.69,14.82s8.88,7.38,10.78,9.71,2.38,5.6,4.47,7.53c1.56,1.44,5.16,2.12,6.04,3.96,1.64,3.45,1.35,14.62,2.98,18.02.45.94,11.78,11.56,14.51,14.99-1.19-.51-4.84,1.49-5,2l-2.04.75-6.5-6.92-2.46,1.16c2.2,2.47-.62,7.55-2.64,9.74l-7.36,5.26c.75,2.12.09,3.34-2,2l.08,2.37c-5.16,2.22-10.02,4.87-14.59,7.93,2.66-.07,4.16.83,4.51,2.7,5.32-1.8,17.86,2.07,17,9,3.26,1.23.62,9.42-1.28,11.19-1.32,1.24-7.99.43-10.72-.19-.31.65-.61,1.15-.89,1.14-2.37-.12-12.18-2.08-11.11-5.14-2.05,2.59-8.02-.95-7-4-1.33-.21-2.08-1.3-2.28-3.27-8.21,5.47-17.33,9.64-26.98,11.78l-2.75-1.5c-2.58,2.18-7.2,4.73-9,1-4.01,2.91-12.26,2.22-15-2-2.21-1.05-2.88-1.05-2,0,5.87.89,9.53,9.21,3,11,.64,3.11-7.17,6.61-9,4-.64.48-1.63,1.2-2.12.87-1.99-1.31-15.26-11.71-15.93-12.73-1.4-2.15-1.77-4.54,1.05-5.15-1.85-.45-1.98-1.69-.39-3.74-12-.2-26.11-3.95-34.61-12.26-1.36,1.69-2.69,1.02-4-2-4.79,1.77-1.39-4.72,1-6-4.62-1.75-7.96-4.42-10-8-4.18-2.46-5.81-7.2-4.87-14.21-7.93,3.79-13.96,15.47-13.55,24.38l-1.58,1.84c-.43-1.57-1.35-3.21-1.5-5-2.89,1.26-3.04,8.22-3.58,8.94-.27.36-1.4-.07-1.92.06,1.83-3.52.62-7.43,1.26-11.24,1.61-9.53,8.03-18.57,15.24-24.76,1.64-1.41,5.17-2.27,6.06-4.01s-.69-4.08-.5-6.33c.75-8.81,4.16-17.42,9.96-24.13,2.28-2.64,10.01-7.5,10.49-8.51,1.05-2.21,1.41-11.08,2.76-15.24.94-2.89,2.78-6.42,4.73-8.77,2.08-.84,4.67-.76,5,2,.06,3.06-.89,6.37-2.85,9.96-.16,4.32-1.21,7.67-3.15,10.04l2.01,1.53c.02,5.74,1.21,13.24,6.73,16.06l.26,2.41c2.85.61,5.05,1.75,4,5,1.99-.99,4.19-.55,3,2,4.96,1.54,9.88,3.42,14.78,5.67l1.22,2.33c3.29.11,6.1-.24,8.45-1.04l1.55,2.04c8.12-1.44,15.09-3.01,23-6.43,4.48-3.22,8.81-4.75,13-4.57l1.19,1.85c-1.09,1.51-.92,2.44-.19,4.15,3.7-1.51,7.47-2.85,11.32-4.02.62,1.43,1.47,1.45,2.68,1.02,18.71-11.46,25.5-30.29,15.21-50.1l.79-1.9c.48-2.25,1.97-2.49,4-2Z"></path><path class="cls-46" d="M109.27,53.73c-2.95-5.52-5.8-6.55-3.07-13.57,4.09-10.52,12.37.54,18.32-.62,2.41-.47,17.06-9.23,18.76-11.3,3.4-4.13,4.95-11.66,3.77-16.81-.81-3.54-7.63-8.23-1.24-10.65,11.32-4.3,35.61,10.06,44.47,17.43,2.93,2.44,14.49,16.23,15.61,16.43,1.61.28,6.31-5.2,11.68-1.96.79.48,4.25,5.66,4.5,6.77,1.19,5.16-2.94,6.04-.81,10.28-.52,1.84-2.26,2.17-4,2-1.48,1.76-2.35.94-3-1,.03,3.02-1.62,4.2-4,2-.04,3.03-2.91,4.27-5,2-.21,2.3-5.61,4.73-7.82,4.41-8.72-1.23-12.43-23.02.82-20.41-10.81-13.44-25.79-26.83-43.87-29.65,3.94,15.69-6.88,28.64-20.9,34.22,4.91,3.98,5.08,14.35-1.23,15.44-.45,3.66-9.13,3.62-10,0-1.39,2.71-8.67.02-8-3-1.48-.52-3.92.17-5-2Z"></path><path class="cls-79" d="M35.27,203.73l.03,1.61c-7.32,6.88-13.32,14.68-18.03,23.39,2.6,2.13.3,8.12-1,11,2.94,1.3,2.56,2.42,0,4l1.42,1.03c6.06,28.12,34.01,42.44,58.81,51.96,57.82,22.18,168.82,20.8,219.75-20.23,11.74-9.46,16.71-19.31,22.01-32.76-2.01-1.77-2.8-6.45,0-8-1.43-11.82-9.64-21.32-18.75-28.35l-.25-2.65c.63-1.28.8-3.52,1.01-5,2.12-1.82,13.62,9.78,15.5,11.99,6.33,7.46,9.86,14.3,11.49,24.01,1.45,17.31-10.75,34.1-23.16,45.17-16.46,14.68-36.46,22.88-56.98,28.27-.7,3.2-4.41,6.46-6.87,3.56-16.66,3.45-33.27,5.36-49.83,5.71-2.07,5.9-10.69,5.85-14.79,2.33-21.53.5-41.26-.83-62.75-4.35-2.86-.47-5.62-1.32-8.06-2.9-2.92,2.21-5.11,2.28-6.56.21-2.4,3.89-9.44-.76-12.04-3.69-34.48-10.71-78.23-31.95-79.96-73.31,2.89-17.56,13.61-28.86,27.51-38.99,1.3,1.38.89,4.47,1.49,5.99Z"></path><path class="cls-95" d="M56.27,233.73c3.19,6.48,6.75,13.74,10,20l.46,2.36c-8.67,13.6,6.98,22.73,17.4,28.31l.13,2.33,4.37-.05c42.91,18.81,93.17,20.34,138.34,9.22l4.29.84c3.77-.18,5.44.82,5,3l-2.5,2.65c-56.67,10.8-137.68,12.1-187.05-21.62-6.89-4.7-17.18-11.96-18.45-20.03-1.12-2.97-1.52-5.17,2-6,5.56-10.49,11.7-19.87,24.12-22.77l1.88,1.77Z"></path><path class="cls-42" d="M231.27,296.73c-42.6,12.98-107.43,10.67-147-10-2.68-3.46,1.55-5.55,5.01-4.97,3.99,1.46,7.03,1.55,10.99.97,6.86,3.93,33.57,11.19,41.63,11.87,27.57,2.31,52.51.42,79.43-6.31,11.34-2.84,20.75-9.73,31.34-14.66,8.04-3.74,14.61-13.23,18.61-20.89,7.61-.07,6.9,11.01,4.4,16.65-4.61,10.39-29.34,25.62-39.95,27.91-1.42.31-3.37.37-4.45-.55Z"></path><path class="cls-7" d="M289.27,297.73c2.39,3.75,14.41-6.99,10,1-7.77,6.14-18.28,13.42-28,14-.48.75-.98,1.48-1.59,2.1-5.42,5.56-37.74,11.84-47.25,13.45-33.99,5.75-67.84,6.01-101.96,2.07-.73-.08-1.43-.51-2.16-.97s-1.4-1.04-2.03-1.65l-6.55.86c-22.01-3.79-42.78-12.22-62.64-22.23l-2.81-3.62,5-3c2.5-1.66,3.53-.89,3,2,2.16,3.03,3.99,5.03,8,3,5.72.13,11.46,1.64,17.23,4.52,8.07,2.1,15.66,4.93,22.77,8.48l4.87-1.01c38.07,6.96,77.18,7.86,115.31,1.82l4.83,1.19,4.73-2.52c18.95-4.9,37.91-10.6,55.35-19.64l3.92.15Z"></path><path class="cls-145" d="M83.27,176.73l2.92-1.26c10,2.41,20.24,3.36,30.51,3.16l3.57,1.1c.85-1.64,2.41-1.96,4.69-.95,7.07-1.39,9.05-.8,14.13,3.88,2.6,2.4,8.48,7.96,7.18,11.07l-.08,2.24c-6.32,3.29-12.63,4.54-18.92,3.76.46,3.04-11.79,4.22-13.93,3.88-.92-.15-1.56-1.06-2.07-1.88-2.68,3.29-10.77,2.56-13-1-5.45-.82-13.71-2.64-18.69-4.81-9.25-4.02-23.21-19.28-12.31-28.19,2.56.02,5.24,1.33,8.05,3.92,4.04,1.04,6.69,2.73,7.95,5.08Z"></path><path class="cls-30" d="M303.27,263.73c-.03.79-.09,1.56-.29,2.3-1.53,5.77-19.87,17.44-25.93,20.77-6.7,3.69-32.66,15.2-38.62,13.76-.75-.18-1.46-.49-2.17-.83-1.45-1.56-4.39-.64-5-3,9.64-2.94,32.09-14.47,38.51-21.99,5.54-6.49,8.82-15.43,1.49-22.01,2.8-5.37,6.3-14.01,9-20,3.77-2.62,10.58,3.5,13.66,6.46,5.97,5.72,13.03,16.46,9.34,24.54Z"></path><path class="cls-45" d="M282.27,313.73c-19.38,13.81-42.56,22.02-66,26-4.2-.13-6.76-1.32-7.67-3.59-18.8.65-37.86,1.25-57.2,1.79-12.77-.48-26-1.07-38.4-4.39-.53-.14-1-.58-1.48-1.08s-.89-1.11-1.26-1.74c-.95-2.11,1.05-3.11,6-3,46.27,7.05,111.64,3.28,155-15l3.72.02c3.37-1.74,10.94-4.99,7.28.98Z"></path><path class="cls-98" d="M271.27,208.73c1.68,2.2.37,8.83-1,11-.61,4.7-9.86,4.62-14,4-.2.14-.95-.15-1,0-.7,1.52-1.03,3.18-1,5-.17.55.17,1.47,0,2-6.76,7.69-18.05,11.1-27,5-1.14.02-2.01.6-3,1-8.25,10.17-18.89,12.38-31,9-1.16-1.16-4.25-6.18-5.99-5-.13.09-.59,2.09-1.01,3-7.72,7.98-22.42,11.1-31.4,3.58l-1.6.42c-1.45-1.8-3.46-2.62-3.01-6-1.54-.63-2.47.87-2.99,1-9.09,7.78-22.82,6.93-31-1-.15-5.52-3.82-8.5-10.99-8.93l-1.01-2.07c2.22-1.96,5.41-.62,8-1,3.68.01,11.63,2.14,12,6-6.31,3.68,1.57,7.16,5,3,6.1,3.16,11.41,1.33,12-6,.66-1.83,2.25-1.78,4.78.14,16.71,1.04,34.89,2.01,51.35-.41l7.87.26c8.74,3.31,17.3,9.49,21-4,.09-4,7.77-6.09,10-3,2.97,5.31,12.89.58,5.28,0l-1.28-2.01c.2-2.37,2.53-3.71,7-4,.53-2.64,8.25-6.7,10-4l11.31-7.89c.98-.63,1.9.1,2.69.89Z"></path><path class="cls-152" d="M110.27,330.73c19.03,5.56,44.32,5.65,64.54,5.04,6.07-.18,31.66-3.67,35.06-1.11.8.6.97,2.37,1.66,2.8,1.25.79,4.15-.27,4.74,2.26-47.38,8.04-107.81,5.64-151-17,.31-4.39,7.62-3.54,11.2-3.01,10.7,3.85,21.6,6.76,32.69,8.74l1.11,2.27Z"></path><path class="cls-143" d="M214.27,170.73c2.39,1.73,1.94,3.18-1,3-3.76,3.63-7.05,8.15-9.87,13.55-16.36,19.26-40.27,34.2-66.13,34.45-2.62-2.04-1.58-5.72-6-9-6.49-.42-7.03-3.39-1-6,.45-2.73,1.11-3.06,3-1l2.69-2.79c14.97-4.31,29.09-11.69,40.54-22.32l3.77-.89,3.81-2.2c8.42-1.05,16.81-2.99,24.42-6.75,2.53-2.87,7.48-5.81,5.77-.04Z"></path><path class="cls-130" d="M318.27,235.73c.83,3.66.29,5.09,0,8l-1.64.56c-.28,5.11-4.57,16.05-10.36,16.44l-1.43-1c-2.48-12.76-10.02-23.84-20.78-31.09l-.78-2.9c1.06-2.57,2.97-10.27,3.5-10.99.79-1.07,7.78-3.18,9.5-5.01,3.61-3.27,10.47,3.89,13.2,7.04,4.61,5.33,8.02,11.93,8.8,18.96Z"></path><path class="cls-106" d="M36.27,205.73c2.68,3.75,11.54,7.75,12.75,9.25.47.58,2.17,7.39,3.25,9.75l-.08,2.55c-10.53,7.11-16.36,16.63-21.92,27.45-.56,2-1.3,4.04-2,6l-2.56-.13c-3.18-5.74-6.33-11.36-9.44-16.87-.09-1.31,0-2.68,0-4,1.82-8.82,5.98-15.6,11-23-1.01-3.57,6.1-9.29,9-11Z"></path><path class="cls-115" d="M98.27,313.73c2.91-.21,4.21,1.88,2,4-14.18-3.18-26.67-7.3-40-13-2.34,2.35-7.71.1-8-3-.71-.35-1.82-1.37-3-2-24.24-12.91-47.96-32.85-43-63,1.11,10.3,6.86,21.4,12.59,29.91,10.5,15.59,33.03,28.74,50.43,35.57,4.99,1.96,11.84,2.67,16.69,5.31,5.19,2.83,4.26,6.54,12.29,6.21Z"></path><path class="cls-55" d="M99.27,156.73c8.35,7.99,21.45,13.28,33.41,14.01l1.59,1.99c-.2,1.24-.17,2.87.51,3.97l16.49,13.03c1.84,2.69-2.6,6.19-5,4l-11.07-12.43c-4.43-2.49-6.82-.29-10.41-.54-1.62-.11-3.23-.98-4.52-1.04-11.06-.83-22.15-2.29-33.25-4.39l-1.75-2.61c-3.27,3.35-13.91-2.74-14-7v-1c-2.07-2.5,3.13-6.11,5.65-5.39l7.35,6.39,1.65-1.71c5.66,1.11,8.9-1.9,7.66-7.61l1.68-1.68c1.7-.03,2.77,1.45,4,2Z"></path><path class="cls-153" d="M328.27,250.73c-4.7,15.4-14.53,28.42-27.81,37.8l-1.19,2.2c-3.28,2.28-6.51,5.05-10,7-18.07,10.08-43.65,18.25-64,22-2.5-4.27,4.22-6.14,7.79-6.41l7.21-.59c6.31-1.88,3.83-3.76,5.64-5.09,1.69-1.24,15.38-4.51,18.9-5.87,29.08-11.22,58.59-33.03,62.46-66.04.83,4.96,1.48,9.69,1,15Z"></path><path class="cls-20" d="M209.27,214.73c-1.21-1.46-.24-3.61,2.91-6.43-6.64-2.11-5.99-8.13-.97-11.91,2.08-3.23,12.32-19.15,14.06-19.9,5.34,1.27,9.34,1.68,12,1.24l5.99-1.16c2.11.47-1.54,12.59-4.99,11.16l1.08,2.3c-4.99,8.92-11.51,17.21-19.65,23.46l-2.43-.76c-2.85,1.84-5.05,3.08-8,2Z"></path><path class="cls-146" d="M267.27,152.73c2.9,1.47.46,7.36-1.44,9.55-6.21,1.87-6.63,9.19-.02,10.61,6.69,3.64-9.41,27.17-11.13,27.21-.47,0-.94-.16-1.42-.37-7.97-1.01-8.95-5.4-7.59-12.81,2.49-8.48,5.02-16.87,7.59-25.19-2.59-.36-1.33-4.59,1-5,4.06-.38,8.57-2.9,13-4Z"></path><path class="cls-15" d="M100.27,282.73c-4.62,7.23-13.34-4.16-16,4-12.16-6.35-30.37-17.28-18-33,3.44,6.63,10.5,15.87,17.3,19.2,2.49,1.22,5.52,1.26,7.63,2.37,2.31,1.22,5.65,5.47,9.07,7.43Z"></path><path class="cls-67" d="M190.27,259.73c.41-1.53,1.16-2.63,2.7-2.32,7.05,1.98,14.24,2.87,21.58,2.66,1.97,2.27-2.85,17.29-5.26,19.79-5.46,5.69-22.18,8.08-21.01-3.13.74-5.58,1.4-11.41,2-17Z"></path><path class="cls-88" d="M253.27,161.73c-.76,9.46-6.55,23.77-6.07,30.53.52,7.38,4.73,2.24,6.07,7.47l.28,1.71c-4.89,5.46-11.36,9.53-17.92,12.48l.65.81c-5.84,2.43-11.44,4.88-18.01,3.98-.19-.71,1.01-.91,1.01-.98l.93-3.09c8.42-5.97,14.68-14.34,19.17-23.55l2.9-1.36-.93-2.7c3.41-6.5,5.67-13.34,6.76-20.51l2.17-1.8c.6-3.07,1.6-4.07,3-3Z"></path><path class="cls-64" d="M44.27,302.73c24.9,12.41,43.73,20.69,72,25l-6,3c-5.11-1.49-8.71-1.44-13.03-2.41-10.1-2.28-21.67-10.14-31.97-5.59-10.5-5.5-20.05-12.75-28-21.5,1.43-.56,5.78.9,7,1.5Z"></path><path class="cls-41" d="M267.27,152.73c.94-.23,2.18-1.75,4-1.01,4.87,26.61-10.43,52.8-35,63.01-3.15.33-2.17-.79-.35-1.85,6.62-3.86,12.19-7.08,17.35-13.15,3.09-3.63,14.52-20.75,11.86-24.86-.8-1.24-6.2-.31-5.92-7.61.24-6.16,4.27-4.52,5.9-7.18,1-1.63,1.38-5.34,2.16-7.34Z"></path><path class="cls-75" d="M184.26,256.74c-.52,4.74-2.5,29.79-5.2,31.8-2.18,1.62-21.37,1.71-22.69.1-.71-10.34-2.91-20.47-2.1-30.9,10.47,3.91,19.94,4.01,29.99-1Z"></path><path class="cls-77" d="M149.27,276.73c.02.19.96,1.11,1.04,2.42.21,3.17-.21,6.41-.05,9.58-5.55-1.25-17.72-.88-21.96-4.54-4.52-3.9-6.75-23.37-9.04-29.45,9.82,4.91,18.35,3.25,27.99-1.01,1.33,7.59,1.35,15.35,2.01,23q-2.79,1.98,0,0Z"></path><path class="cls-101" d="M66.27,152.73c-3.08-8.73,7.52-26.62,15.52-28.99,1.86-.55,1.34.31,1.48,1.46.72,5.6-.81,10.04,3,15.52,1.33,1.41.77,1.92-1,1-1.43.81-3.16.6-5.18-.62-10.26,2.35-8.57,9.7,5.08,22.03l-.89,2.59c-4.79-1.09-4.9-2.15-8.49-5.04l-4.51,4.04c-3.73-2.53-3.9-8-5-12Z"></path><path class="cls-61" d="M225.27,252.73c2.11-9.76,1.37-6.26,7.73-5.23,5.63.91,11.27,1.49,16.26-1.77-3.63,17.82-10.96,36.01-31.98,37-1.04-1.17,5.69-21.96,6.99-25,3.15-.8,2.9,3.12,2.29,5.54-6.54,12.57,1.13,11.44,8.68,4.31,1.62-1.53,8.68-10.91,6.31-11.95-4.25.6-8.2.04-11.84-1.68-1.71,3.76-4.64,2.77-4.44-1.21Z"></path><path class="cls-150" d="M90.27,253.73c.07-.78.27-1.94.83-2.03,2.06-.31,17.07-.71,18-.18,2.2,1.26,8.14,20.98,6.86,22.82-5.22,7.52-20.33-2.86-21.69-10.62-2.24-3.22-2.89-6.56-4-10Z"></path><path class="cls-79" d="M213.27,173.73c1.67,6.82-6.3,19.18-13,21,1.55,2.9-5.15,9.81-8,8,1.55,2.76-4.84,7.26-7,5,.72,3.51-7.95,7.78-11,6-4.32,2.11-8.62,3.85-13.24,5.26-5.16,1.58-19.69,5.91-23.76,2.74,7.28-2.46,15-2.55,22.27-5.23,12.56-4.62,30.84-17.3,39.75-27.25,4.06-4.54,6.34-9.94,9.68-14.27,1.56-2.01,2-1.33,4.3-1.26Z"></path><path class="cls-40" d="M225.27,252.73l2,2.51c1.34-6.21,3.13-2.14,7.58-1.59,2.64.33,5.49-.26,7.94.08,1.32.18,1.8-.52,1.49,1.5-1.5,9.7-11.59,20.61-22.01,19.51-1.44-4.92,2.31-9.63,2.68-13.68.11-1.26-.76-2.78-.68-3.33.3-1.95.61-3.18,1-5Z"></path><path class="cls-114" d="M234.27,176.73l3,1c.5,2.99-1.31,2.08-3.23,1.75-2.24-.38-5.76-2.36-7.75-1.31-1.48.78-5.5,7.99-7.02,10.06-2.84,3.88-3.31,3.83-6.14,8.86-1.02,1.82-3.62,2.84-3.81,5.11-.44,5.29,7.17,4.15,6.94,5.02l-6.99,7.51c-4.23-1.55-7.18-5.32-12-1-2.11,2.13-3.3.94-3.78-1.9s9.89-11.58,12.78-13.1v-3.24c5.17-6.5,10.22-13.23,13.27-21.03l2.73-1.73c3.16,1.28,8.66,3.08,12,4Z"></path><path class="cls-24" d="M190.27,259.73c.24-2.26-.18-4.71,0-7,2.49.29,3.88,2.2,6.43,3.05,6.98,2.32,14.13,3.1,20.55-1.06,1.27,1.76-5.68,27.92-8.57,29.92-2.45,1.69-21.24,4.28-22.42,3.08-.65-3.67,1.58-7.82,2-11,2.13,8.31,12.79,6.4,18.37,2.87,3.62-2.29,7.08-12.16,7.59-16.43.24-2.01.01-1.25-1.44-1.44-3.41-.46-7.48.36-11.01-.01-4.13-.43-7.78-3.32-11.51-1.99Z"></path><path class="cls-126" d="M206.27,198.73c-2.93,3.71-7.54,7.83-10.05,11.47-1.43,2.08-1.06,2.48,1.05,3.53-2.59,2.32-2.59,5-3,8l-.72,1.56c-5.21,1.99-10.77,2.75-16.28,3.44-4.21-.33-7.89-1.84-12.01-2.5-.03-.95,10.62-4.75,12.01-5.5-.08-3.18,6.13-7.71,9-6,.59-3.31,4.5-7.58,8-6,.15-3.62,6.7-10.09,10-8,1.13-1.33,1.76-1.96,2,0Z"></path><path class="cls-138" d="M279.27,187.73l1.16,2.17c-1.1,3.43-5.03,12.27-8.16,12.83-3.58,5.25-8.58,9.59-15,13-3.89,1.45-5.62,3.45-10,4-3.68,1.83-6.01,1.83-7,0,14.75-7.28,26.44-18.83,33-34,1.31-2.72,6.3-.92,6,2Z"></path><path class="cls-156" d="M62.27,189.73c7.2,9.49,19.07,10.1,24.55,15.95,2.49,2.65,2.97,7.51,7.44,8.06-.89,1.69-4.85,2.05-5.99,3.99-2.12,1.56-3.25.6-3-2-8.34-3.47-17.75-7.75-22-16-2.54,1.26-3.3.54-2-2-2.81-3.25-4.7-8.07,1-8Z"></path><path class="cls-22" d="M205.27,232.73c-19.51,5.6-39.66,1.5-59.56,2.08l-4.44-2.08c.03-.41-1.48-2.35-1.01-2.99.4-.55,11.95-2.01,13.43-1.95,9.23.38,17.18,5.91,30.06,4.92,11.64-.89,9.24-4.63,21.52.01Z"></path><path class="cls-82" d="M85.27,215.73c.96.62,2.32.79,3,2-1.16,1.97-.56,5.2-1,7,.24,2.41.24,4.74,0,7,.1,2.33-.56,3.67-2,4-.66-.95-1.72-.98-2.34-3.13-.69-2.4-.29-6.72-1.1-7.95s-3.2-.66-3.56-.92c-4.57.27-19.17-.25-20.91-5.01-.1-.27,3.13.28-1.09.01-.65-3.47.65-5.62,1-8l4.73.67c2.63,4.07,5.93,6.67,4.45-.11l1.82-1.56,1.07-.94c5.12,2.09,10.43,4.4,15.93,6.94Z"></path><path class="cls-89" d="M56.27,163.73c1.83-.6,3.76-2.18,5.99-2-4.41,8.76-6.38,19.57,0,28-2.5,2.53-2.21,4.88-1,8-2.34,2.14-7.82-3.34-6-6-2.34,2.07-6.51-3.01-4-5-2.69.96-3.87-11.6-3.45-13.36.74-3.09,5.62-7.97,8.45-9.64Z"></path><path class="cls-162" d="M294.27,195.73c1.32,2.46.03,4.69-2.53,2.88-2.84,2.89-7.47,6.79-11.47,6.12-.58-.19-2.15-.01-3,0-.11,2.66-3.94,3.58-5,1-2.29-.65-1.47-1.57,0-3,1.57-4.22,4.9-10.67,7-15-1.83-2.73.88-6.61,4-6,3.42,4.68,7.09,9.34,11,14Z"></path><path class="cls-6" d="M269.22,137.75c.86.63,2.47,5.79,1.14,7.54-.9,1.18-14.18,7.56-16.04,8.03-2.4.61-6.47-9.01-6.05-9.58,2.86-.35,20.07-6.64,20.95-5.99Z"></path><path class="cls-159" d="M306.27,260.73c1.83,2.42-.53,4.6-3,3,.32-13.5-10.9-26.36-23-31,1.03-2.28,2.04-4.69,3-7,12.27,7.69,21.81,20.14,23,35Z"></path><path class="cls-43" d="M261.27,256.73c-3.35,5.13-6.75,9.7-12.99,12l11.08-33.41c2.32-3.2,10.01-.52,13.91-2.58,1.07,1.1-2.51,4.98-2.99,6l-2.35,2.15c-6.52.69-13.02,13.12-6.65,15.85Z"></path><path class="cls-74" d="M56.27,233.73c-5,.21-12.41,5.18-15.91,8.59s-5.03,10.62-10.09,12.41c.75-2.68,1.15-5.75,2.21-8.29,3.35-8,12.84-16.67,19.79-21.71,1.31,2.87,2.67,6.3,4,9Z"></path><path class="cls-26" d="M221.14,224.86c1.21,1.92-1.62,7.97-4.19,7.72-.93-.09-16.08-7.63-16.7-8.33-1.77-1.99-1.77-8.69,1.34-8.38,2.5,1.76,18.74,7.71,19.55,8.99Z"></path><path class="cls-85" d="M130.27,206.73c-3.98,5.4-1.89,3.85,1,6-3.66-.43-7.07,1.58-8.87,4.64-.77,1.32-1.5,6.91-4.12,4.37-.64-.63,1.23-6.91-5.56-7.95-4.67-.71-6.57.82-11.44-2.06-1.71-2.07-2.16-3.87,1-4,1.21-2.68,2.77-2.72,4,0,4.22-.88,8.54-1.35,12.96-1.4,4.43-1.18,8.11-1.04,11.04.4Z"></path><path class="cls-73" d="M242.27,189.73c-5.71,11.87-11.78,20.44-23,28-.13-1.19-2.18-3.25-2-5,7.68-4.96,17.02-16.8,21-25,1.45-2.58,4.66-.74,4,2Z"></path><path class="cls-96" d="M90.27,253.73c-.7-2.16-2.4-4.33-1.99-7,7.52,2.37,14.21,2.59,21.46-1,1.89.4,8.3,32.41,10.53,36.99-11.45-1.44-24.19-6.01-26-18.99.56.81,7.33,8.01,8.04,8.46,3.34,2.12,8.1,2.66,11.96,2.55-.83-1.77.96-7.34.76-7.82-.05-.12-1.45-.2-1.7-.93-1.48-4.35-2.15-9.04-5.07-12.82l-18,.56Z"></path><path class="cls-31" d="M244.27,150.73c4.45,3.01,1.2,5.53,8,6,.16,2.67-.53,5.62-2,8-1.35,10.38-3.61,15.86-8,25l-4-2c.65-1.34,4.49-9.56,4-9.99-1.58-.21-3.52.27-5,0-1.62-.3-2.14-.76-3-1,10.42,1.4,11.16-1.7,12-11,0-.83-.02-1.71-.39-2.47-1.63-3.41-4.43-9.37-1.61-12.53Z"></path><path class="cls-36" d="M283.27,181.73c-.78,1.58-2.97,3.89-4,6l-6-2,5-22c7.65,3.46,11.93,10.35,6.33,18.04-.15.2-.68.12-1.33-.04Z"></path><path class="cls-155" d="M112.12,217.88c.93.59,1.83,5.15.16,6.37-1.47,1.07-19.31,4.21-20.01,3.48-.28-.29-.38-6.58-1.01-7.99,3.52.13,18.95-3.06,20.86-1.86Z"></path><path class="cls-69" d="M186.27,243.73c-1.35,2.94-.89,4.01-4.06,6.44-8.68,6.65-21.97,6.24-28.94-2.44.04-5.35,5.53.32,6.76.74,5.71,1.97,12.7.92,18.25-1.23,2.83-1.1,4.19-4.47,7.99-3.51Z"></path><path class="cls-121" d="M193.27,245.73c1.78-4.11,7.27-.14,10.62-.09,7.29.11,14.58-6.58,20.38-8.91-3.89,13.98-20.73,19.32-31,9Z"></path><path class="cls-144" d="M242.27,141.73c-.22,3.2,1.29,6.01,2,9,1.31,5.5,2.49,9.59,2,15-.06-2.08-1.02-2.85-2.72-3.78-2.62-1.43-11.17-4.39-14.28-5.22-1.17-2.02-.04-3.59,3.39-4.74,5.34-.69,7.06-2.84,5.15-6.44l1.46-1.82c.38-.29,1.27-1.36,2-2h1Z"></path><path class="cls-163" d="M147.27,242.73c-5.29,11.67-23.01,11.43-30.05,1.5-.69-.97-.67-2.07-.95-2.5.14.19,1.66-1.06,2.94-.54.91.37,2.34,2.29,4,3.1,8.23,4.03,16.22.43,24.06-1.56Z"></path><path class="cls-135" d="M56.27,163.73l-6.83,10.73c-.25,1.18,1.39,10.83,1.83,12.27-.11,2.82-4.15,8.56-7,9,3.87,7.18-5.87,4.69-3-2,1.31-5.1,6.7-9.76,6.83-11.66.07-1.06-1.61-2.71-1.88-4.78-1.27-9.61,2.5-11.07,10.05-13.56Z"></path><path class="cls-132" d="M299.27,290.73c-1.97-3,3.69-5.21,5.53-6.97,4.11-3.96,7.65-8.31,11.47-12.53l12-20.5c-1.64,18.07-15.19,30.37-29,40Z"></path><path class="cls-23" d="M104.27,230.73c3.18.1,6.91,1.19,9.5,2.99,5.33,3.7,1.59,6.77,2.5,8.01-1.03-1.57-2.01-4.9-2.99-5.59-1.32-.93-2.48.57-3.01.59-3.39,2.81-10.41,3.35-14.59,2.35-3.12-.74-8.98-2.56-7.41-6.35-.87-2.39-.47-2.69,2-2,.23-.05,2.83,1.2,4.48,1.09,3.26-.23,6.26-1.19,9.52-1.09Z"></path><path class="cls-122" d="M127.81,215.74c3.76-.85,9.13,14.99,8.47,18.48-.55,2.95-3.59,3.57-5.54,1.54-2.11-2.2-8.31-18.81-2.93-20.02Z"></path><path class="cls-48" d="M68.27,238.73c4.69-6.04,10.06,2.81,11.31,7.9.19-1.08.75-.71,1.69,1.1,1.12,2.9,1.9,6.14,3,9-1.44,1.75-4.82,4.07-7,3-.72-.85-1.36-2.04-2-3-2.68-5.84-5.01-11.84-7-18Z"></path><path class="cls-62" d="M270.27,238.73c-2.96,6.18-5.21,12.18-9,18l-4.99,1c-.17-8.83,3.53-19.27,13.99-19Z"></path><path class="cls-70" d="M254.27,230.73c-2.19,6.74-5.3,10.03-12.58,10.91-5.51.67-12.24-.16-14.42-5.91,6.94-.13,11.71,3.07,19.36-1.14,2.52-1.39,3.59-4.92,7.64-3.86Z"></path><path class="cls-84" d="M279.27,213.73c1.1,13.84-13.12,16.01-23,10,1.9-1.36,9.69-1.98,14-4-.57-1.49.31-2.48,2.65-2.99,1.33-3.27,4.35-7.83,6.35-3.01Z"></path><path class="cls-148" d="M318.27,235.73c-2.15-9.46-12.43-23.09-22-26,.2-.21,2.76-4.52,3-5,9.93,6.94,19.44,18.21,19,31Z"></path><path class="cls-47" d="M87.27,231.73c1.34-1.39,1.92-.77,1,1,6.56,6.87,13.42,4.25,22,4-2.65,6.77-14.98,5.67-20.67,3.16-3.58-1.58-2.94-2.16-4.33-4.16.12-2.52-1-4.62,2-4Z"></path><path class="cls-94" d="M299.27,298.73c-2.41,4.37-12.59,11.86-17,15,.31-3.24-.63-1.6-2.47-.98-3.45,1.16-5.18,3.41-8.53-.02l28-14Z"></path><path class="cls-120" d="M294.27,195.73c-1.98-3.53-12.31-7.91-11-14,1.65-3.37,2.96-6.33,1.79-10.29-1.02-3.45-6.29-3.81-6.79-7.71,7.28.74,11.11,4.96,9.94,12.43-.37,2.36-2.87,4.95-2.5,6.66.61,2.79,6.81,6.43,8.55,12.91Z"></path><path class="cls-160" d="M56.27,218.73c1.76-2.2.19-2.25,2.51-1.02,2.69,1.42,5.07,3.26,8.23,3.79,3.39.56,8.09-.45,10.6.22,1.07.29.58,1.95.66,2.01-4.62,6.63-20.6,2.41-22-5Z"></path><path class="cls-154" d="M58.27,206.73c1.15-5.2,4.15-4.2,9,3,.27-.86.61-.84,1,0l.99,8c-3.55.32-7.39-1.1-8.01-4.99-1.65-.24-1.31,2.88-2.48,2.97s-1.93-3.75-1.5-4.98c.18-1.21.64-2.78,1-4Z"></path><path class="cls-107" d="M41.27,193.73c-.79,2.58.54,5.77,3,4,.23-.17-.17-1.57,0-2,2.39-2.03,3.92-.5,2,2,3.74.6,10.66,2.53,12,6,.86.25.83.58,0,1-3.55-1.23-5.24,2.79-7.53,3.04-4.66.49-10.59-7.06-10.53-11.62.02-1.49.95-1.98,1.06-2.42Z"></path><path class="cls-65" d="M277.27,204.73c.16,3.23,1.74,5.7,2,9-4.07-1.06-2.83,2.49-5.03,4.49-1.3,1.18-2.81.97-3.97,1.51-2.16-5.26-.08-6.99,1-11-2.74-1.04-1.8-3.12,1-3,1.64-.42,3.28-.98,5-1Z"></path><path class="cls-136" d="M280.27,204.73c2.91-4.03,10.19-3.74,10.01-10l3.49,2.99c.82.13.64-1.74.5-2,.06.24.94.66,1,1.56.36,4.64-5.53,10.92-10.46,10.43-2.35-.23-3.65-2.69-4.55-2.99Z"></path><path class="cls-123" d="M36.27,205.73c-1.06,4.34-5.76,7.28-9,11l-8,12.93-2-.93c2.28-10.27,10.12-18.47,18-25,.11.27.92,1.88,1,2Z"></path><path class="cls-25" d="M65.27,232.73c4.26,1.77,10.58-.38,10.99,0,.58.54,4.19,12.89,5.01,15-3.69.79-2.41-.88-3.34-2.14-2.71-3.72-3.85-8.09-9.66-6.86-1.98-.07-3.45-4.04-3-6Z"></path><path class="cls-161" d="M85.27,172.73c3.69,1.72,1.86,4.72-2,4-7.07-2.11-10.66-3.38-16-9,.52-.42,3.78-2.01,4-2,.63.02,5.83,4.07,7.62,4.87,2.19.98,4.16,1.44,6.38,2.13Z"></path><path class="cls-33" d="M111.27,201.73c6.43,2.29.49,7.64-5,6-1.28-.15-2.78.2-4,0-.9,1.29-2.57,1.29-5,0-.49-.56-2.08-.79-2-1.99,4.17.15,4.29-1.75,3-5.01,4.21.63,8.72,1.15,13,1Z"></path><path class="cls-13" d="M262.27,131.73c-.21.69,1.15,2.8,1.01,2.99-.38.51-7.52,1.61-9.01,2.01l-1.82-1.46c.71-3.08-.12-5.73-1.18-8.54.46-1.35.1-3.93,1.5-5l9.5,10Z"></path><path class="cls-105" d="M254.27,136.73c-4.32,1.16-8.74,1.64-12,5h-1c4.7-4.14,8-9.07,10-15,4.34.02,3.47,6.66,3,10Z"></path><path class="cls-8" d="M84.27,256.73c.47,1.23,5.77,10.33,5,10.99-4.99-1.02-8.84-4.24-12-7.99,1.26-1.88,5.01-4.29,7-3Z"></path><path class="cls-117" d="M185.27,207.73c4.28-1.21,3.37,2.62,1,5-3.14,2.07-5.51,4.13-9,6-.26-2.02-1-4.14-3-5,2.84-1.39,8.48-4.35,11-6Z"></path><path class="cls-37" d="M240.27,219.73c2.14-.32,4.81.28,7,0-2.24,1.24-4.73,2.95-7,4,1.29,2.68-2.25,4.29-4,2-3.42,1.1-8.4-.23-10,3,.27-.98-.48-2.95.14-3.84.42-.61,12.68-4.98,13.86-5.16Z"></path><path class="cls-163" d="M128.27,237.73c-2.58,1.55-3.66.98-4-2-4.01-1.92-8.57-2.93-12-6,2.95-.43,4.87-3.2,7.02-2.62,2.92.79,8.33,7.41,8.98,10.62Z"></path><path class="cls-140" d="M124.27,235.73c1.36.65,2.67,1.36,4,2,.33.16.62.8,1,1,1.33,5.14-6.96,4.66-8.51,2.01-2.03-3.47-.58-6.15,3.51-5.01Z"></path><path class="cls-87" d="M65.27,232.73c-.12,2.61,2.16,4.28,3,6,2.24,4.58,4.28,9.37,6.51,13.99.49,1.02,2.5,3.41.49,4.01-4.73-7.1-9.04-16.32-11.01-24.49.53-1.43.96.47,1.01.49Z"></path><path class="cls-142" d="M194.27,221.73c-.24,1.77.87,2.41-1.22,3.31-3.77,1.62-11.63,2.02-15.78,1.69l17-5Z"></path><path class="cls-39" d="M63.27,202.73c2.81-.82,7.15,4.84,4,7-1.21-.62-3.49-.83-3.86-1.12-.33-.27-.29-7.83-5.14-1.88.16-.54-.14-1.4,0-2,.08-.34-.1-.73,0-1-3.43-3.51,4.23-6.11,5-1Z"></path><path class="cls-110" d="M90.27,230.73c-.14.03-.99,1.94-2,2-.31-.33-.79-.67-1-1-3.96-6.41-.52-4.88,0-7l3,6Z"></path><path class="cls-111" d="M254.27,156.73c-1.13,1.55-.86,3.25-1,5l-3,3c.37-2.84-.7-5.58,2-8,.63.04,1.37.06,2,0Z"></path><path class="cls-49" d="M102.27,207.73l-1,4c-2.2-1.3-2.55-2.34-4-4,1.38-2.63,4.08-.15,5,0Z"></path><path class="cls-70" d="M254.27,228.73c.05-1.71-.66-4.01,1-5-.34,1.02-.39,2.99-1,5Z"></path><path class="cls-109" d="M208.27,110.73c2,5.58-3.28,14.31-6.6,19.35s-9.29,13.51-15.4,13.65c1.5,3-9.48,9.49-12.14,10.3l-1.86-1.3c-.04,4.23-4.08,4.05-7,3-1.13,3.74-12.3,6.69-15,4-12.86,2.06-24.68,1.01-37-3-2.67-1.09-2.26-2.88.46-3.79l15.3,1.83c-16.81-12.74,6.92-14.21,16.94-13.45,4.07-2.62,8.16-4.13,12.26-4.54,4.95,1.92,8.43,1.95,13.04-1.06,4.04-4.75,5.98-9.37,1-14l.52-2.13,26.98-4.93c2.91-3.04,5.74-4.36,8.5-3.94Z"></path><path class="cls-125" d="M92.27,120.73c-6.81-8.23-5.7-17.08-.41-25.91,1.16-1.94,9.09-12.12,11.4-10.09.6,4.17,3.49,9.61,6.01,13,6.03,13.06,22.66,20.47,36.51,20.69l-.51,3.31c1.21,5.35,2.76,5.12,7,8,.02.78-.05,1.98-.59,2.11-6.4,1.58-29.52,4.35-33.97,2.37-.48-1.45-1.63-2.28-3.45-2.48-2.51,3.4-15.04-2.23-18.04-4.63l.04-2.37c-2.52,1.4-3.85.06-4-4Z"></path><path class="cls-97" d="M151.27,46.73c1.46,1.14,1.76,3.05.9,5.74,2.17-1.13,3.87-1.04,5.1.26,2.33,2.09-1.53,5.63-4,6-2-.02-3.86.33-5.58,1.05l-9.42,12.36c-9.74,4.27-2.23,9.43,4.17,12.62l.83,1.98c3.67,2.79,11.26-.98,15.07-3.59,1.97-3.66,6.88-6.81,7.93-1.41-.27,5.69-16.07,14-21.02,14.27-1.12.06-2.12-.63-2.98-1.27-.77,2.94-3.09,2.73-4,0-5.04.65-10.04.65-15,0-1.55.34-3.22.67-5,1-.31.45-.64.44-1,0-.57-.58-2.54-.91-3.49-1.98-4.89-5.48-5.51-10.84-5.51-18.02.83-1.8,2.75-2.52,5.76-2.16.13-5.42,2.88-10.36,8.24-14.84,4.39,1.21,9.5-.12,10,0l.94-.98c4,2.7,7.36-.08,10.07-8.34,2.09-2.85,5.61-6.39,7.99-2.68Z"></path><path class="cls-116" d="M91.27,124.73c2.61-.29,3.44.65,2,3l2.57-.05c4.13,4.84,10.28,6.51,16.29,7.75l1.14,2.31,3.33-1.35c12.26,2.45,24.74,1.1,36.1-4.17l3.57.52c3.87,2.01,10.94,4.92,15,3-7.37,8.65-8.99,2.36-15.41,3.01-3.06.31-5.11,3.7-9.53,4.55-4.8.92-24.37-2.13-20.59,6.41,2.27,5.13,13.23,4.43,17.93,3.93,5.34-.57,12.25-4.49,17.12-2.93,1.01.32,3.24.37,1.49,2.02-.62.59-14.64,3.62-16.65,3.84-8.99,1.01-20.61.38-29.51-1.18-1.89-.33-3.24-1.88-2.84,1.35-2.9-.95-11.22-3.16-11.77-6.61-.31-1.92,1.65-2.73-.17-5.93-2.69-4.74-7.49-3.6-9.97-6.05s-4.27-9.73-2.16-12.79c.65-.94,1.94-.49,2.07-.62Z"></path><path class="cls-79" d="M206.27,58.73c3.38,2.71,1.98,10.48,1.11,14.72-.75,3.65-1.7,6.82-3.48,10.13-.45.84-1.6,1.07-2.62,1.16.46.76,1.03,1.68.74,2.45-.83,2.23-10.89,11.85-13.39,13.73l-2.34-.18c-12.46,6.74-21.41,11.3-36,11-2.86-2.71-.41-4.28,7.36-4.7,4.1-1.76,7.64-2.2,10.64-1.3,2.76-2.01,5.28-4.21,7.54-6.57-4.14-4.2-3.11-11.53,2.53-14.3,6.7-5.19,8.51-11.09,10.59-18.59,1.85-6.69,3.82-10.72,6.82-1.3,3.26,2.78,4.77.67,4.51-6.35,1.72-1.97,5.62-3.09,6.01.12Z"></path><path class="cls-83" d="M234.27,107.73c4.34,4.6.5,22.77-3,27.38-.71.94-1.91,1.32-3,1.62-9.07,18.01-25.23,28.97-45,32l-5,1c-1.32.08-2.68.01-4,0-2.62-.95-2.29-2.31-.01-3.81,5.97-.03,11.58-2.02,16.93-4.47l2.08,1.29.5-2.4,12.06-6.37c-8.73-2.2-8.43-9.81-.71-13.36,1.88-7.96,9.59-20.95,19.39-15.74.91-3.62,1.22-7.39.93-11.31.44-4.01,2.56-8.2,6.83-5.82.5-.12,1.38-.01,2,0Z"></path><path class="cls-143" d="M227.27,104.73c1.65,1,3.75,1.33,5,3-6.88,1.64-4.31,9.06-5.02,14.5-1.22,9.38-6.01.94-10.98,4.01-.58.35-8.18,9.92-8.47,10.53-.73,1.57-.26,3.54-1.06,4.94s-4.72,2.27-5.33,4.73c-1.11,4.5,5.02,6.86,8.43,4.37,2.29-1.68,1.55-7.04,5.43-4.57.53,6.16-16.98,14.35-22.01,16.49-3.53.27-9.27-7.22-6-10-.34-1.46,1-2.8,4-4l.62-3.21c11.07-9.95,20.4-22.53,23.03-37.47l2.35-2.32.69-2.33c3.35.34,6.45.79,9.31,1.33Z"></path><path class="cls-29" d="M183.27,175.73c1.77,1.72.77,3.05-3,4-12.52,12.75-29.74,21.65-47,26-2.21-1.27-4.21-3.27-6-6,4.59-.87,14.8-3.95,19-6,2.43-1.19,4.7-3.89,5-4,2.57-.95,8.5-3.87,9-4,3.92-3.42,8.59-6.42,14-9,1.48-.03,7.35-.72,9-1Z"></path><path class="cls-11" d="M217.27,105.73c-2.03,17.44-13.17,31.98-26,43-1.14.95-2.14,1.28-3,1-1.94-1.03-2.61-3.03-2-6,11.77-9.44,17.49-18.88,22-33-.68-.98-.35-2.32,1-4,2.03-1.26,5.4-3.4,7-5,3.1-2.24,4.67,3.09,1,4Z"></path><path class="cls-72" d="M173.27,86.73l1.37.93c-2.3,4.67-1.82,8.24,1.46,10.72-1.81,2.7-4.43,5.15-7.84,7.35-5.1,2.18-8.99,3.16-14.51,4.03-1.85.29-4.05-1.26-3.49,1.97-3.63-.07-6.43-.26-10-1-1.44-2.27.29-3.37,5.21-3.3-.52-4.15.41-6.38,2.79-6.7l.97-2.44c7.52-3.18,14.79-7.27,21.44-12.01l2.59.44Z"></path><path class="cls-21" d="M85.27,141.73c3.42,3.9,6.53,5.76,9.34,5.56l1.66,1.44c.36,4.81-1.99,4.13-1.98,4.47.01.32.84.96.98,1.53,2.16,8.61-2.28,12.98-11,11-2.97-7.21-17.74-14.17-12-22.51,3.5-5.08,8.53-5.51,13-1.49Z"></path><path class="cls-151" d="M156.27,132.73c-14.26,7.11-27.55,8.48-43,5-.57-1.39-.24-3.39,1-6,5.53.93,11.9,1,17.54,1.04l20.46-3.04c1.02.69,3.76,2.88,4,3Z"></path><path class="cls-17" d="M208.27,110.73l-7.74,5.76-28.26,5.24c-2.28-2.11-6.31-3.17-8-5.99,4.5,1.16,11.57-4.52,14.66-4.79,1.7-.15,5.25,2.37,7.94,2.7,7.33.9,16.31-3.15,22.4-6.92l.96.48c-.26,1.23-1.65,2.57-1.96,3.52Z"></path><path class="cls-66" d="M214.27,89.73c.5,5.88-10.14,11.47-13.67,13.3l.67.7c-4.83,2.11-8.21,3.59-14,3l-.77-2.04,12.9-12.47c1.12-3.19,2.74-5.03,4.87-5.5-1.09-3.67,2.33-11.49,6-13,1.84,1.51,2.49,4.32,1.93,8.43,1.38,2.8,2.07,5.32,2.07,7.57Z"></path><path class="cls-93" d="M222.27,172.73c-3.2,9.96-9.68,18.01-16,26-.61.12-1.55-.18-2,0-2.66-2.14-.27-2.44-.51-1.63-.57,1.93-4.37-.18-3.49-2.37,5.83-6.34,10.26-12.87,13-21,.36-1.08.69-1.56,1-3-.34-2.37,0-3.04,1-2,2.11,1.38,4.7,3.07,7,4Z"></path><path class="cls-137" d="M193.27,162.73c-6.06,2.58-8.6,3.9-15.51,5.03-1.85.3-4.05-1.27-3.49,1.97-6.17-.05-7.4-.48-13-2-.74-2.44.83-2.9,3.1-2.87,4.45.65,7.15.05,8.51-4.51,3.91-2.97,10.03-7.58,14.39-7.62.52,4.05,4.27,6.48,6,10Z"></path><path class="cls-128" d="M215.27,168.73c-.14,1.01-.93,1.67-1,2,.66-4.24-3.5,1.11-4.75,1.75-8.65,4.38-19.63,6.79-29.25,7.25,1.03-1.05,2.03-2.8,3-4,10.79-1.81,22.82-7.47,31.51-13.99.74,1.78.75,5.1.49,6.99Z"></path><path class="cls-92" d="M217.27,51.73c2.47,2.34,5.78,15.81,5.99,19.53.82,14.1-9.56,27.05-21.99,32.47-1.53-.11-3.37.49-.8-1.29,6.4-4.43,9.45-5.81,13.8-12.71l-.75-2.61c5.43-10.84,5.07-22.41-1.09-34.71l1.85-1.67c.72-.12,2.46.49,3,1Z"></path><path class="cls-32" d="M224.28,89.73c3.28,1.56,19.19,6.24,20.57,7.96,1.13,1.4-1.88,6.75-4.11,7.1-4.12.64-22.9-7.52-16.46-15.06Z"></path><path class="cls-100" d="M99.27,156.73c12.55,5.63,23.38,11.52,38,10.01.27.2-2.84,4.98-3,5.99-10.33.38-25.74-5.26-33.16-12.35-1.22-1.16-2.58-.72-1.84-3.65Z"></path><path class="cls-3" d="M153.75,115.98c1.02-.08,16.4,8.59,17.07,9.72.49.83-1.64,6.05-2.53,6.62-1.3.83-16.7-7.21-17.56-8.57-1.42-2.23,1.12-7.61,3.02-7.77Z"></path><path class="cls-50" d="M244.27,108.73c.69.07,1.23.16,1.25.3.92,9.08-.63,16.73-5.25,24.7-1.03,1.19-7.66,7.54-8.51,7.99-2.53,1.34-.46-1.86-.49-1.99l-.57-3.21c3.77-7.83,5.72-16.47,5.67-25.16l1.9-2.63c1.3.08,5.19.28,6,0Z"></path><path class="cls-1" d="M122.27,58.73c2.3,4.12-4.98,6.82-5.8,9.7-1.66,5.82,2.49,7.75-8.2,7.3,0-7.58,1.27-13.96,6-20,2.49.88,5.86,2.41,8,3Z"></path><path class="cls-129" d="M155.25,186.73c-1.62,1.18-14.55-9.91-15.51-12.03-1.16-2.55,1.37-6.03,3.06-7.97,1.08-.26,13.39,12.72,14.03,14.03.99,2.02-1.69,4-1.58,5.97Z"></path><path class="cls-108" d="M148.27,100.73c-.9,1.64-.68,8.68-.99,9.01-.51.53-5.97-1.1-7.01.99-6.85-1.42-10.57-3.95-16-8,.2-.56.44-1.1.8-1.54,1.36-1.71,17.96-3.06,20.2-.46.89-2.79,1.9-2.58,3,0Z"></path><path class="cls-102" d="M109.27,97.73c8.3,11.2,24.01,19.02,38,19.01l-2,4.99c-.13-.6.17-1.85,0-2-.17-.14-1.87.92-3.19.77-6.66-.77-17.04-4.65-22.53-8.54-4.11-2.92-10.37-8.85-10.27-14.23Z"></path><path class="cls-38" d="M191.27,148.73c-1.24,1.07-2.75,3.01-4,4-3.19,2.52-9.14,4.47-11.93,7.57-1.63,1.81-1.38,4.33-4.15,5.86-3.7,2.05-6.8-.51-9.92,1.57-3.1-.85-5.77-2.19-9-3,2.21-3.49,9.27-5.88,13-4,1.29-2.76,5.56-5.55,8-3,2.04-4.1,10.57-9.57,15-8,.98-.45,1.9-.92,3-1Z"></path><path class="cls-131" d="M240.27,172.73c-2.46.28-19.53-5.66-20.04-6.6-.59-1.09-.27-2.28.04-3.4.2-.51-.6-1.74.63-2.04,3.02-.75,18.11,2.68,20.38,4.53,2.02,1.65.44,6-1.01,7.51Z"></path><path class="cls-78" d="M204.27,86.73c-1.2,2.31-1.72,5.43-4.02,7.48l-12.98,12.52c-3.79-.39-2.84-3.26-1-6,3.5-5.22,11.14-9,15-16,1.92-3.25,4.28-1.4,3,2Z"></path><path class="cls-141" d="M142.27,94.73c2.92-.84,5.29,4.09,3,6-7.12,1.25-14.02.3-21,2-.95-.71-2.1-1.25-3-2-1.35-2.09-.32-3.33,3.1-3.73l1.9-1.27c3.87-.56,7.87-.89,12-1,1.23-.19,2.9.26,4,0Z"></path><path class="cls-104" d="M238.27,108.73c.45,10.46-1.86,21.88-7,31-.37-1.59-1.09-3.6-3-3,4.75-9.43,6.76-18.33,6-29,1.2.03,2.74.92,4,1Z"></path><path class="cls-57" d="M239.27,143.73c4.57,11.72-4.38,6.65-10,13-2.23-.6-5.82-.19-8-1.5,4.17-6.79,12.45-7.32,18-11.5Z"></path><path class="cls-12" d="M165.27,155.73c5.69-1.25,3.06,2.79,0,5-4.37,1.49-8.44,3.03-13,4-.82-.21-2.06.15-3,0l1-4.99c3.01-.48,11.87-2.95,15-4Z"></path><path class="cls-63" d="M159.27,174.73c4.99,1.15,9.82,2.11,15,2-2.98,3.74-8.32,7.91-12.65,9.73-.5.21-1.28-.75-1.35-.73,3.31-3.8.1-8.3-3-11-.03-.94.64-.94,2,0Z"></path><path class="cls-58" d="M240.27,133.73l3.92-13.58.08-11.42c.35-.12.84-2.18,1.99-2,2.47,9.51.42,19.58-5.99,27Z"></path><path class="cls-59" d="M220.27,162.73c-.52,2.48,1.17,2.11,2.71,2.74,6.08,2.49,11.06,5.91,17.29,7.26-.94.98-.47,1.03-2.2.83-4.23-.5-10.59-3.78-14.83-5.33-3.93-1.43-5.52.99-2.97-5.49Z"></path><path class="cls-28" d="M227.27,104.73c-1.43,3.7-6.81-.84-10,1,.14-1.23.37-3.38-1-4,.77-.78,2.14-4.15,2.5-4,2.45,2.78,5.36,5.09,8.5,7Z"></path><path class="cls-5" d="M96.27,148.73c-7.47,3.68-6.71-3.14-11-7l1-1c3.94,5.68,9.52,1.46,10,8Z"></path><path class="cls-4" d="M123.27,95.73c1-.75,2.04-.75,3,0,.74,5.68-3.64,1.67-5,5-2.64-2.18-2.66-3.62-4-5h1c1.67-.74,3.37-.8,5,0Z"></path><path class="cls-118" d="M96.27,124.73c3.69,2.47.08,5.65-3,3-.76-.96-1.73-1.68-2-3,.85-.81,1-2.81,1-4,.48.57,3.53,3.66,4,4Z"></path><path class="cls-113" d="M232.27,87.72c-6.76,1.24-6.56-8.25-2-3.49.54.56,2.17,3.35,2,3.49Z"></path><path class="cls-10" d="M159.27,174.73c-.57-.13-1.36.09-2,0-.39-.34-2.47-.17-3-1.5,1.2-1.36,4.1.09,5,1.5Z"></path><path class="cls-137" d="M183.27,168.73c-1.52.23-2.48.85-5,1,.85-1.62,3.4-.94,5-1Z"></path><path class="cls-76" d="M198.27,38.73c-3.95,1.32-7.57-.88-10.88-6.6l-13.12-12.4c-1.13,1.08-1.97,1.4-2.98.33,3.36,3.4,5.02,6.95,4.98,10.67,4.72,1.31,6.34,9.64,6.95,14.33s1.31,12.36-2.95,14.67l-1.14.78c-8.28-4.06-10.46,6.13-3.86,10.22,3.1,3.15-5.4,12.6-9,11-4.93-2.52-4.5,1.35-6.76,3.02-4.3,3.17-10.43,5.38-15.75,4.98-3-.22-1.26-1.66-.48-3l-.35-2.08,8.03-8.4c7.86-6.53,8.56-11.61,2.13-15.22l.2-2.29c.24-2.71,2.7-3.81,4-6l-1.09-2.12c3.55-5.56,4.06-11.32,4.31-17.72,3.13-11.41,8.08,4.11,8.83,8.66,3.13-7.19-1.53-16.49-8.57-19.3l-3.54,17.52c-1.03,2.6-3.15,7.26-5.94,6.96-7.07-.6-9.54,12.29-11.98,13.51-4.65,2.33-6.36-1.35-7.02-1.51,4.37-7.64,4.21-10.93-3-15.99,16.45-5.48,28.84-18.89,22.01-37.01,12.5,2.67,24.34,8.05,34,16.49,1.98,1.73,13.96,13.97,14.04,15.07.09,1.32-.78,1.15-1.05,1.45Z"></path><path class="cls-35" d="M198.27,38.73c-1.76,1.88-7.08,2.32-7.75,6.67-.16,1.03,1.88,6.85,2.54,8.04,3.48,6.28,6.99,3.15,12.21,1.29,3.55-1.54,4.41,2.87,1,4l-4-.4-1.01,10.39c-.66.71-6.29-1.67-7.01-2.48-1.82-2.03.4-5.15-2.98-4.51.2,5.88-4.64,14.52-8.18,19.32-2.73,3.71-8.95,7.47-8.9,12.19.07,7.4,7.18,2.95,10.99.9,1.51-.81,4.22-5.02,4.07-.44-7.08,3.74-13.56,8.85-20.99,12.02.23-1.94,5.84-6.14,5.95-6.57.27-1.11-1.77-3.22-1.95-5.01-.26-2.5,1.34-4.89,1-7.42-.42-.86-.04-1.16,1-1,6.23-4.3,11.93-12.56,13-20l-1.24-2.84c3.67-11.89-.19-23.35-7.15-33.17l.38-2.99c-3.16.77-7.04-4.35-5-7,5.44,3.25,9.75,6.45,14.52,10.98,3.07,2.91,5.19,8.06,9.48,8.02Z"></path><path class="cls-103" d="M214.27,89.73c-5.27-4.53-4.19-9.52-4-16l-1.92-1.76c.96-5.75,1.1-11.46.41-17.14l1.51-2.09c1.36-.47,3.63-1.94,4-2,.26,5.66,3.95,10.01,4.74,15.76,1.3,9.51.25,15.33-4.74,23.24Z"></path><path class="cls-14" d="M197.4,52.61c-.59-.37-2.54-5.5-1.68-6.86.8-1.27,14.63-8.45,16.89-9.27,2.71-.98,5.09,3.37,4.52,5.55-1,3.85-16.76,12.44-19.73,10.58Z"></path><path class="cls-129" d="M130.07,48.93c.67,1.15-.27,6.3-.89,6.72-1.56,1.05-17.66-6.07-19.27-7.81s.26-8.21,2.68-7.98c.98.09,16.98,8.23,17.48,9.08Z"></path><path class="cls-18" d="M210.27,73.73c-1.66,4.97-3.68,8.54-6,13-.43-1.43-1.54-1.99-3-2,4.64-8.4,5.19-16.62,5-26-.03-1.32.5-3.31-1-4,1.64-.58,3.31-1.41,5-2,2.23,7.18.21,13.87,0,21Z"></path><path class="cls-81" d="M28.27,260.73c38.28,51.41,151.5,52.85,208,39,25.75-6.31,49.56-16.32,67-36,.86-.97,1.83-1.49,3-3,5.02-6.51,6.16-8.33,9.55-15.99.54-1.22.75-3.79,2.45-1.01-3.78,38.49-58.65,56.78-90.99,63.51-38.34,7.98-87,7.82-125.22-.8-29.81-6.73-83.33-27.01-85.79-62.71,2.01-1.69,2.25-.35,3.22,1.28,3.57,6,4.03,9.33,8.78,15.72Z"></path><path class="cls-2" d="M98.27,313.73c5.08-.21,5.15-3.06,5.48-3,.9.17,3.85,2.37,6.07,2.94,9.79,2.48,28.56,4.42,38.95,5.05,7.87.48,20.05-1.32,26.98.02,2.41.47,2.82,2.87,6,3.08,6.79.46,6.27-4.92,7.13-5.17,2.56-.73,9.36.39,12.87.05,12.95-1.24,25.54-5.92,38.51-3.99-5.38,1.6-11.56,1.42-15,7-36.97,6.82-88.31,6.22-125-2l-2-4Z"></path><path class="cls-19" d="M16.27,239.73c0-4.43.04-6.68,1-11,3.93-2.19,4.6-6.55,6.54-8.97,1.15-1.44,2.68-2.12,3.46-3.03-.86,4.99-4.58,9.1-6.4,13.1-1.46,3.2-1.05,7.96-4.6,9.9Z"></path><path class="cls-9" d="M60.27,304.73c-.2,6.19-11.09,1.12-8-3,2.55,1.25,5.42,1.9,8,3Z"></path><path class="cls-34" d="M127.27,199.73c3.69-.41,5.52,2.7,6,6-.93.23-1.84.76-3,1-9.71,1.97-14.38,2.11-24,1,3.97,1.17,7-3.06,5-6,3.7-.13,11.96-1.23,16-2Z"></path><path class="cls-134" d="M120.27,179.73c-13.96-.58-23.04,1.16-37-3,1.84-.52,2.17-2.26,2-4,7.06,2.2,16.27,3.99,23.63,4.87,3.64.43,9.34-1.36,11.37,2.13Z"></path><path class="cls-133" d="M172.27,238.73c5.84,1.59,2.2,7.87-3,6-3.64,1.35-8.72,1.85-11.96-.54-5.87-4.33,4.85-6.1,8.6-6.36,3.26-.23,4.08.6,6.36.9Z"></path><path class="cls-53" d="M169.27,244.73c3.14-1.16,5.35-2.69,3-6,2.33.31,5.99-.12,7.98,1.52,4.67,3.87-7.68,8.39-10.98,4.48Z"></path><path class="cls-149" d="M211.27,236.75c-1.82,5.25-13.92,5.49-11.88-.4,1.28-3.69,9.13-.7,11.88.4Z"></path><path class="cls-124" d="M240.27,223.73c1.4.25,4.08-.77,5.1.59,4.72,6.35-9.59,9.24-9.1,1.41.71-.23,2.85-1.47,4-2Z"></path><path class="cls-90" d="M272.27,205.73c-.31.98-.82,2.32-1,3l-14,7c4.94-4.32,9.24-9.8,15-13-.26.7.24,2.22,0,3Z"></path><path class="cls-79" d="M191,193.46c-.97.57-2.66.12-3.69.77-1.37.87-2.01,4.39-3.97,6.06-2.26,1.92-4.79,1.7-6.99,3.01s-4.63,5.59-6.77,6.22c-8.98,2.66-13.04-5.68-6.32-11.31,2.89-2.42,5.02-1.9,7.56-3.44,4.66-2.83,9.29-8.92,12.81-11.69,4.95-3.9,13.44-2.1,11.24,4.7-.18.55-3.57,5.51-3.86,5.68Z"></path><path class="cls-158" d="M156.27,262.73c8,2.9,15.84,4.73,23.99,1-.3,5.05.96,12.37-1.56,16.93-3.73,6.73-22.43,4.5-22.43-.43v-17.5Z"></path><path class="cls-16" d="M149.27,276.73c1.46,1.86-3.65,5.61-6.62,5.93-14.81,1.57-17.92-8.61-19.37-20.92,8.34,2.12,15.05.46,22.99-1.01.55.54.42,13.1.98,15.37.25,1.01,1.96.55,2.02.64Z"></path><path class="cls-44" d="M200.27,194.73l5,2.02-1,1.98c-1.02.41-7.94,6.43-10,8-2.25-.48-2.49-1.97-2-4,1.67-1.37,6.33-6.18,8-8Z"></path><path class="cls-147" d="M192.27,202.73c1.84.52,2.17,2.26,2,4-2.87,2.19-4.87,3.94-8,6-.06-1.6.62-4.15-1-5,1.47-.96,5.78-4,7-5Z"></path><path class="cls-119" d="M61.27,197.73c.74.66,1.56,1.65,2,2,1.66,1.93,1.66,2.93,0,3-.97-.69-2.09-1.19-3.31-.86-.87.34-1.38,1.02-1.69,1.86-4.25-.9-9.09-2.9-12-6,1.59-2.61,5.89-6.29,9-6,1.19,1.44,4.48,4.65,6,6Z"></path><path class="cls-68" d="M85.27,215.73l-14.02-3.64c-1.06-.68-1.8-1.84-2.98-2.36-.29-.13-.74.13-1,0-.59-1.94-2.49-5.93-4-7v-3c6.12,4.85,15.46,11.81,22,16Z"></path><path class="cls-91" d="M55.27,191.73c-2.01,2.66-5.64,6-9,6-.58-.62-.82-1.75-2-2,1.49-3.78,3.43-6.87,7-9,.31,1.01,3,3.78,4,5Z"></path><path class="cls-139" d="M188.27,149.73c-5.08,2.32-9.35,5.49-15,8-2.81-.53-2.18-3.04-1-5,3.82-1.85,10.64-6.31,14-9,2.59.84,2.08,3.84,2,6Z"></path><path class="cls-51" d="M172.27,152.73c1.62.85.94,3.4,1,5-2.9,1.29-5.06,2-8,3-.69-3.18,4.33-5.44,0-5,1.55-.52,5.4-2.22,7-3Z"></path><path class="cls-80" d="M114.27,131.73l3,1.5-4,4.5c-8.32-1.87-14.48-3.01-20-10,1.71-.72,3.55-.75,3-3,4.28,3.04,12.76,6.12,18,7Z"></path><path class="cls-27" d="M183.27,72.73c.9,4.75-4.96,10.28-9,13-.32.34-.66.68-1,1-4.15,3.83-19.62,12.51-25,14-.79.22-2.08-.16-3,0l-3-6c8.9-2.14,17.38-6.82,24-13,3.3-3.09,7.38-6.51,9-11,.42-1.53,1.06-1.18,2,0,1.47-2.14,3.14-3.81,5-5,2.61.56,2.94,2.89,1,7Z"></path><path class="cls-157" d="M157.27,52.73c-7.07,3.5-8.35,1.24-6-6,1.01-3.11,3.04-4.71,4.28-8.22,1.1-3.12,2.19-20.86,5.72-19.31,1.56,2.64,5.32,4.07,7.01,6.02,3.05,3.51,6.42,15.22,2.01,18.04s-4.69-12.51-6.53-12.51c-1.99,0-1.51,8.82-1.95,11.03-.7,3.53-2.69,7.82-4.55,10.95Z"></path><path class="cls-127" d="M153.27,58.73c2.35,1.5,7.47,5.89,6.59,9.02-.69,2.45-14.61,18.61-16.59,18.98-3.87.72-12.99-7.54-11.87-11.3.57-1.92,3.94-3.03,5.41-4.66,2.37-2.63,8.19-11.69,10.08-12.92,3.15-2.06,3.85-.73,6.38.88Z"></path><path class="cls-1" d="M120.9,65.86c8.62-2.99,11.51,10.76,1.98,9.87-6.82-.64-3.98-9.18-1.98-9.87Z"></path><path class="cls-27" d="M138.27,94.73c-4.5.71-7.18.99-12,1-1,0-2,0-3,0-.87-.28-.86-.62,0-1,4.99-.1,10.01.07,15,0Z"></path><path class="cls-141" d="M123.27,94.73v1c-1.67,0-3.33,0-5,0,.84-1.6,3.39-.97,5-1Z"></path><path class="cls-86" d="M78.91,142.81c2.3-.4,20.2,16.59,9.72,19.85-1.16.2-14.31-14.36-14.31-15.42,0-.32,4.11-4.34,4.59-4.43Z"></path><path class="cls-71" d="M187.27,65.73c.39,2.48-1.11,7.13-4,7-.32-2.34-.44-4.71-1-7-1.32-.23-1.65-1.56-1-4-1.69.22-2.51-.97-1-2,2.68-10.68,1.03-19.47-4-29-1.54-3.38-.6-6.19,3-4,8.77,12.66,13.09,23.35,8,39Z"></path><path class="cls-52" d="M174.27,19.73c1.4,2.51,3.37,4.65,5,7-1.73.76-2.93,2.03-3,4-1.74-3.29-8.27-11.1-8.99-13.52-1.17-3.92,6.09,1.99,6.99,2.52Z"></path><path class="cls-112" d="M180.27,59.73c.28.23.74,1.46,1,2,.27,1.26.43,2.27-1,2-6.04-2.03-7.37-.36-4,5,2.69-.39,3.05.21,1,2-.51.08-1.49.09-2,0-10.04-1.77-3.71-18.42,5-11Z"></path><path class="cls-72" d="M174.27,85.73c3.51-3.64,6.52-8.58,9-13,1.07-1.9,3.12-4.29,4-7,1.37,1.76.86,2.84.25,4.69-1.63,4.88-7.63,14.6-13.25,15.31Z"></path><path class="cls-60" d="M182.27,65.73c-1.82,2.58-1.42,4.41-5,5-.38-.5-.65-1.74-1-2,.65-2.97,1.99-4.64,4-5,.19-.51,1.05-1.16,1-2,1.05,2.19.61,2.41,1,4Z"></path><path class="cls-54" d="M152.96,63.06c3.18,2.69,1.43,4.78-.29,7.59-3.3,5.4-11.14,15.98-15.9,7.08-1.82-3.4.97-2.95,3.03-4.94,3.37-3.25,9.15-13.13,13.16-9.73Z"></path><path class="cls-99" d="M180.27,63.73c-.84,2.25-.66,4.99-4,5-.85-.61-2.14.07-3.28-2.24-2.75-5.61,4.68-7.86,7.28-2.76Z"></path></g></svg> 