<?xml version="1.0" encoding="UTF-8"?> <svg xmlns="http://www.w3.org/2000/svg" id="Laag_2" viewBox="0 0 416.35 360.52"><defs><style>.cls-1{fill:#fcfaf0;}.cls-2{fill:#f9eed8;}.cls-3{fill:#d9cba7;}.cls-4{fill:#dacaa8;}.cls-5{fill:#e7ddbd;}.cls-6{fill:#f9efda;}.cls-7{fill:#b3916a;}.cls-8{fill:#3a180c;}.cls-9{fill:#fdfdfb;}.cls-10{fill:#fbf6e3;}.cls-11{fill:#d6c9a4;}.cls-12{fill:#b6967e;}.cls-13{fill:#ddcaa3;}.cls-14{fill:#2c0d02;}.cls-15{fill:#a07f5f;}.cls-16{fill:#e0d3b4;}.cls-17{fill:#4a250b;}.cls-18{fill:#fbf9eb;}.cls-19{fill:#ede3ca;}.cls-20{fill:#f7efdc;}.cls-21{fill:#f5edd6;}.cls-22{fill:#f4ecd2;}.cls-23{fill:#c3aa7c;}.cls-24{fill:#ece1cc;}.cls-25{fill:#c6af86;}.cls-26{fill:#e3d6b5;}.cls-27{fill:#fdfdf9;}.cls-28{fill:#e6d6ba;}.cls-29{fill:#3a1604;}.cls-30{fill:#f9f4e0;}.cls-31{fill:#ded3b2;}.cls-32{fill:#c0a686;}.cls-33{fill:#f7ecd7;}.cls-34{fill:#ebe3c3;}.cls-35{fill:#fdfbee;}.cls-36{fill:#e3d3b8;}.cls-37{fill:#ab9074;}.cls-38{fill:#d5c6a3;}.cls-39{fill:#bba687;}.cls-40{fill:#ba9878;}.cls-41{fill:#d5bf9a;}.cls-42{fill:#d5c6a2;}.cls-43{fill:#eddcc2;}.cls-44{fill:#dbd0ad;}.cls-45{fill:#fbf5de;}.cls-46{fill:#e6dbbd;}.cls-47{fill:#977959;}.cls-48{fill:#c9b28d;}.cls-49{fill:#d0bf97;}.cls-50{fill:#edddbc;}.cls-51{fill:#e9dfbf;}.cls-52{fill:#fbf9ee;}.cls-53{fill:#ccb48b;}.cls-54{fill:#e7dcc2;}.cls-55{fill:#c5b090;}.cls-56{fill:#cdb98f;}.cls-57{fill:#dcd2b0;}.cls-58{fill:#e2d4b3;}.cls-59{fill:#c9b68f;}.cls-60{fill:#c6b092;}.cls-61{fill:#eae3c4;}.cls-62{fill:#90704f;}.cls-63{fill:#ede2c2;}.cls-64{fill:#f5eed5;}.cls-65{fill:#d6caa7;}.cls-66{fill:#f7f1da;}.cls-67{fill:#a88b6a;}.cls-68{fill:#d1bb93;}.cls-69{fill:#c3a67a;}.cls-70{fill:#3e210f;}.cls-71{fill:#f4e8cf;}.cls-72{fill:#e1d9ba;}.cls-73{fill:#faf6e6;}.cls-74{fill:#dcd1b0;}.cls-75{fill:#4c210b;}.cls-76{fill:#a78b6b;}.cls-77{fill:#e5d5bc;}.cls-78{fill:#dfd4b1;}.cls-79{fill:#9f7957;}.cls-80{fill:#af9676;}.cls-81{fill:#fcfdfc;}.cls-82{fill:#e2d7b6;}.cls-83{fill:#d9caae;}.cls-84{fill:#fdfdfa;}.cls-85{fill:#411d0a;}.cls-86{fill:#d1be96;}.cls-87{fill:#fcfbf2;}.cls-88{fill:#f3ecd3;}.cls-89{fill:#e9e0c2;}.cls-90{fill:#f4ecd3;}.cls-91{fill:#b39a7c;}.cls-92{fill:#d4c198;}.cls-93{fill:#f6ead4;}.cls-94{fill:#eee2c4;}.cls-95{fill:#b9a182;}.cls-96{fill:#efe2bf;}.cls-97{fill:#58351a;}.cls-98{fill:#d9bf9a;}.cls-99{fill:#dccca6;}.cls-100{fill:#faf5e1;}.cls-101{fill:#ece5c9;}.cls-102{fill:#9f7f59;}.cls-103{fill:#522e18;}.cls-104{fill:#d9cda8;}.cls-105{fill:#eee6cf;}.cls-106{fill:#f5eddb;}.cls-107{fill:#e3d7b8;}.cls-108{fill:#e7dfbf;}.cls-109{fill:#a88e6e;}.cls-110{fill:#c7b69a;}.cls-111{fill:#c5aa8a;}.cls-112{fill:#e3d8ba;}.cls-113{fill:#d2c29d;}.cls-114{fill:#ebddc2;}.cls-115{fill:#f7f0da;}.cls-116{fill:#e6d8b5;}.cls-117{fill:#fbf8e9;}.cls-118{fill:#f5f0dc;}.cls-119{fill:#f6edde;}.cls-120{fill:#fefdfb;}.cls-121{fill:#b89e77;}.cls-122{fill:#ede0c6;}.cls-123{fill:#fcfaf4;}.cls-124{fill:#c4a87a;}.cls-125{fill:#fdfaf1;}.cls-126{fill:#cfba9b;}.cls-127{fill:#dacda9;}.cls-128{fill:#ece0c1;}.cls-129{fill:#f0e4c7;}.cls-130{fill:#c5b293;}.cls-131{fill:#e9e1c9;}.cls-132{fill:#b9a078;}.cls-133{fill:#faf3e1;}.cls-134{fill:#ece2c2;}.cls-135{fill:#d0b698;}.cls-136{fill:#f3e9cd;}.cls-137{fill:#dfd6b6;}.cls-138{fill:#e2cfb1;}.cls-139{fill:#f8f1e0;}.cls-140{fill:#3c1b0b;}.cls-141{fill:#c1a885;}.cls-142{fill:#d7c7a9;}.cls-143{fill:#ad9374;}.cls-144{fill:#dbc8a7;}.cls-145{fill:#bf9f7a;}.cls-146{fill:#421b0c;}.cls-147{fill:#ede6ca;}.cls-148{fill:#ddceaa;}.cls-149{fill:#341406;}.cls-150{fill:#eae2c4;}.cls-151{fill:#f6efda;}.cls-152{fill:#d4c49f;}.cls-153{fill:#ded1af;}.cls-154{fill:#d6c6a8;}.cls-155{fill:#f9f2df;}.cls-156{fill:#b79a7a;}.cls-157{fill:#ceb78a;}.cls-158{fill:#d0bd92;}.cls-159{fill:#e6d4b0;}.cls-160{fill:#faf6e4;}.cls-161{fill:#371406;}.cls-162{fill:#efe3c7;}.cls-163{fill:#dbcea9;}.cls-164{fill:#f5ecd7;}.cls-165{fill:#c8b58d;}.cls-166{fill:#8a6949;}.cls-167{fill:#d1c0a5;}.cls-168{fill:#b69c85;}.cls-169{fill:#e1d5b4;}.cls-170{fill:#4e250a;}.cls-171{fill:#614023;}.cls-172{fill:#552d11;}.cls-173{fill:#612c10;}.cls-174{fill:#ede7cc;}.cls-175{fill:#fcfbf1;}.cls-176{fill:#f2e5d6;}.cls-177{fill:#bfa782;}</style></defs><g id="Laag_1-2"><path class="cls-85" d="M199.34,33.11c3.71,2.6-.52,9.55-2.83,12.5-3.32,4.25-7.89,7.04-13.06,8.44-9.4.81-17.74,3.34-25.03,7.58-2.13,3.08-4.49,4.91-7.08,5.48-.33.88-.19,1.72.33,2.53-3.46,4.67-5.25,9.6-4.35,15.45l-1.98,2.02c1.26,3.78,2.67,7.37,5.05,10.61l-1.05,2.39,1.72.4c6.98,15.07,22.55,20.21,38.26,19.42l2.01,2.17c6.79-1.47,13.23-1.81,19.32-1.02,4.71-1.31,9.27-2.31,13.68-2.98l.48-1.17c7.51-2.54,14.41-6.42,19.97-12.15l1.55.32-.25-1.67c5.45-6.44,9.68-14.02,11.15-22.39l2.1-1.94c1.08-3.21,2.79-4.89,4-1,2.33,2.84,2.27,10.64-2,11,.89,4.19-1.97,10.16-4.52,14.07-2.51,3.84-7.9,10.58-12.48,9.93-1.27,4.33-8.97,9.83-13,8,1.18,2.8-3.29,4.39-5,2-1.28,2.01-5.46,5.08-7,2-8.03,3.58-17.03,4.24-27,2-.74,1.04-1.7,1.52-2.93,1.41-18.71-1.72-37.78-7.11-45.07-26.41-2.82-1.81-4.47-5.24-4.95-10.28-1.97.29-3.99.72-6.05,1.28l-.74,2.91c-11.99,8.39-18.14,23.48-16.3,37.76l-.95,1.33,2.4,1.51c3.92,16.56,16.35,29.07,31.28,36.87l.32,1.63c4.11,2.75.19,3.39-3,2-2.24,1.62-4.57.62-7-3l-2.29.94c-3.59-1.98-18.53-14.26-18.34-17.56.03-.47.3-.93.63-1.38l-2.86-.66c-2.86-4.93-4.57-10.38-5.14-16.34-1.88-.24-2.15-1.09-1.86-2.72-10.7,5.91-19.49,19.13-19.08,31.62l-2.06,1.1,3.36,17.65-1.36,2.35,2.83,1.98c9.43,25.07,36.95,38.92,62.1,43.66l1.07,1.36c3.35-1.46,9.15-1.44,11,2,.38.82.35,1.68-.25,1.72l-8.75.28c-1.08,1.46-2.16,1.53-3.69,1.5-3.7-.06-11.51-2.49-14.31-4.5l-2.62,1.3c-12.6-4.59-26.2-10.24-34.38-21.3-1.64,1.21-2.34-.2-2-2-3.59,1.12-6.11-2.92-5-6-3.22.71-6.88-4.37-5-7-2.11.3-3.57-1.84-4.36-6.42-1.09-.51-9.85,15.9-8.58,18.99l-2.06,1.42-.35,11.7c1.74.72,2.77,2.7,3.09,5.95,1.9,3.22,2.32,6,1.26,8.34,4.6,3.95,7.94,9.28,10,16,4.1.43,9.66,5.87,10,10,12.9,8.59,26.06,15.73,41,20l3-1.4c20.04,3.85,40.77,5.95,61.14,3.8l2.86,1.6c1.52,1.04,2.52,2.37,3,4,2.94.29,2.79,3.28,0,4-1.82,1.1-4.39.74-7.71-1.08-18.57,2.51-39.98.36-58.67-3.78-14.69-3.25-32.37-7.97-42.62-19.14-3.76,1.81-14.04-8.67-14.78-11.76-.18-.73-.21-1.49-.22-2.24-2.75,1.85-3-.43-3-3l-3.05-.81c-5.58-8.28-9.37-17.69-11.47-27.44l1.51-2.75c-.68-3.45-.68-6.78,0-10-3.99-4.22-.05-13.46,2.53-18.32l9.04-11.93c.1-2.94.25-5.86.43-8.75-2.82-.95-2.78-3.03,0-4-2.78-1.19-2.79-2.81,0-4,.72-12.59,6-25.55,15.1-34.4,2.25-2.19,11.06-7,11.41-7.59.79-1.34,1.2-10.96,1.95-14.05,2.01-8.29,9.36-18.72,16.06-23.94,2.68-2.09,12.62-6.37,12.99-7.01,1.01-1.72,1.62-9.85,3.29-13.71,3.76-8.63,11.31-15.92,20.24-18.76,10.22-3.25,23.25-.75,28.79-12.21,7.07-14.64-6.7-28.32-12.74-17.68-2.11,3.72,2.22,8.11-1.7,11.24-5.19,4.14-9.85,1.66-13.39-2.89-.9-2.09-.12-2.75,2-3,1.74-.33,3.72-.01,5.91.95-2.32-14.51,15.62-21.03,24-9.95,3.22,4.26,5.66,11.28,2.09,15Z"></path><path class="cls-14" d="M41.34,307.11l5,4c19.9,14.05,42.14,23.05,65.23,30.33l1.77,1.67c27.45,5.63,55.17,10.16,83.52,10.83,44.62,1.05,90.97-4.61,132.57-21.02l2.91.19c4.03-.66,3,2.34,0,4-85.86,36.52-227.48,33.31-300-31-1.52-2.32-2.36-3.73,1-4,2.4-1.58,8.91,2,8,5Z"></path><path class="cls-146" d="M279.34,78.11c10.09,8.25,16.11,18.96,18.75,31.75.64,3.09-.21,6.2.7,9.3.92,3.13,5.95,9.2,7.72,13.28,2.23,5.14,2.65,12.03,4.38,15.62,1.08,2.24,6.04,5.52,7.88,8.12,1.47,2.07,5.15,11.26,5.79,11.71.87.62,8.73,1.77,10.99,2.5,23.97,7.78,46.56,17.78,63.78,36.72.13,2.37-.96,2.5-3,2l-2.67.11c-5.13-5.34-10.58-10.38-16.33-15.11-1.95,1.84-2.43,1.64-2-1-2.31-.5-3.64-1.5-4-3-5.43-.72-10.83-2.85-16.21-6.39-8.25-3.67-20.16-8.58-28.79-7.61-.76,1.95-.51,3.47,1.64,5.18,1.36,2.95-3.6,5.09-4.64,2.82-1.92-2.26-2.91-5.6-2.99-10.02-2.72-5.6-4.72-11.26-6.01-16.98-.84.15-1.51.82-2,2-1.47,7-5.5,7.09-4.47-.61l-.53-5.39-2.27-1.67c-.37-3.68-2.77-17.27-5.33-19.02-.21-.14-.76.2-1.4.69.76,2.41.43,3.41-1,3,2.77,6.9-19.78,33.22-22.59,32.55-.49-.12-.95-.32-1.41-.55-1.79,4.3-3.79,5.63-6,4-1.14,2.87-2.84,3.85-5.3,5.21-4.44,2.46-13.17,6.37-17.7,4.79l-9.56,1.6-.44-2.6c1.56-2.78,7.93-4.93,11-4l.91-1.73c14.8-6.17,29.24-14.8,37.84-28.77l3.25-1.5-.4-3.42c6.79-12.29,7.91-24.29,2.58-37.23l.82-3.35-2.28-.21c-2.76-6.46-6.27-12.69-11.16-17.79l.44-2c-2.39-1.77-.7-3.93,2-3Z"></path><path class="cls-8" d="M279.34,78.11l-2,3c-.31.37-.63.7-1.03.87-.58.26-10.48-5.97-10.97-6.38-.24-.2-.17-.79,0-1.49-1.28-.62-1.95.72-2,4-1.94-.31-3.26-.25-3.02,1.99l-.98-.99c-.84-.39-1.58-.97-1.62-1.82-.75-16.01-3.95-29.22-16.19-40.65l-.19-2.53c-8.92-9.15-18.94-16.3-30.05-21.45l-.95-2.55-2.28,1.2c-11.85-5.67-39.69-8.97-39.83,10.1l-1.89,1.7c2.85.73,3.36,2.12,1,4-.01,1.46-.57,2.57-2,3-1.36-1.75-2.21-1.65-2.76-4.74-2.39-13.41,6.52-23.24,19.52-25,33.41-4.52,78.95,33.69,80.72,67.76,6.21,3.47,10.93,5.41,16.52,9.98Z"></path><path class="cls-161" d="M399.34,207.11c49.19,54.1-19.25,109.69-67,130,1.01-1.31,1.02-2.67,0-4l1.16-1.98c16.78-7.72,32.31-17.63,46.84-29.02.02-1.09.52-1.87,1.24-2.61,12.12-12.32,19.68-21.28,25.24-37.98,2.47-7.42,4.7-15.66,3.52-23.42l-2.14-1.28-4.86-17.72c-3.42.22-7.87-6.75-7-10,.43-1.43,1.54-1.99,3-2Z"></path><path class="cls-70" d="M64.34,177.11c4.95-1.08,4.62.25-1,4l-.56,1.64c-19.83,9.82-41.96,20.78-51.76,41.96l-2.68,1.4c1.2,4.36.53,7.03-2,8-.16,2.51-.82,4.18-2,5-.21,2.98-2.89,2.27-3.1-.51-.01-.14,1.78,1.57-.9-.49,3.07-31.3,37.56-51.4,64-61Z"></path><path class="cls-149" d="M.34,238.11c2.31-1.63,1.48-.91,2.64,1h1.36c1.21,1.85,2.11,7.91,0,9l1,6c1.9.57,1.89,1.44,0,2,2.03-.05,2.84,2.97,1,4,6.47,12.33,13.24,25.17,23.82,35-.18,1.48.43,2.77,1.18,4,2.38-.09,3.12.85,2,3l-1,4C12.08,288.14-2.44,266.49.34,238.11Z"></path><path class="cls-103" d="M83.34,175.11c-.1,2.69-5.74,4.68-7,2-3.26,2.78-9.02,5.64-13,4l-1-1.99c2.98-.32,6.24-2.1,2-2.01,6.3-2.29,12.4-4.62,19-6-.07,1.31-.05,2.69,0,4Z"></path><path class="cls-113" d="M265.34,74.11c1.51,1.64,1.08,2.37-1,3,8.21,6.11,9.09,17.4,9.81,26.91.2,2.7.39,5.39.19,8.09,2.82,2.61,2.89,6.42,0,9l-1.85,13.41c-.97,3.9-3.03,11.19-7.15,11.59l-.57,3.7c-1.38.91-8.27,9.82-5.51,10.17,3.15-1.05,7.83-.5,5.08,3.13l-.54,2.86c-3.52,3.73-15.7,9.66-20.46,9.14-7.41,5.61-19.66,7.36-29.26,8.36-8.2.86-32.29,1.17-38.7-2.54-1.8-1.04,2.15-6.88,4.96-5.82l2.4-1.83c38.55.59,81.87-24.37,82.06-66.52,0-1.1.7-1.97,1.54-2.65-3.24-3.52-4.24-6.85-3-10-1.52-.59-2.19-2.25-2-5,1.4-4.37,1.8-6.35,2-11,.05-1.15-.85-3.31,0-4.99,1.86-.55,1.72.86,1.99.99Z"></path><path class="cls-9" d="M88.34,169.11c.22-2.76-.22-5.1.45-8.05,2.04-8.97,11.99-24.24,21.08-26.92,2.43-.72,1.42,3.44,1.47,4.98l4.91,20.76c1.2,2.76,3.43,4.91,6.09,6.24,3.14.59,6.14,2.48,8.99,5.67,4.05,1.93,7.06,4.37,9.01,7.33.4.74.73,1.97.21,2.24-6.49,3.47-22.77-8.02-27.58-12.82l.36-2.42c-6.67-1.81-10.67-9.38-12.99-15.65-2.96,6.91-1.21,13.8,2.86,19.81.51,2.43,1.22,4.71,2.13,6.84,17.16,21.6,45.9,24.06,71.62,25.86,9.9-4.64,14.6-3.83,14.1,2.42-4.2,1.39-8.44,2.63-12.71,3.73-32.25,8.03-84.26-1.52-90-40Z"></path><path class="cls-42" d="M91.34,250.11c3.08-1.12,6.7,1.71,6,5,40.16,31.21,103.05,35.34,149,16,.33-.86.67-.86,1,0,1.5-.29,2.96-.81,4-2-.09-3.04,6.73-5.79,9-4,2.4-1.04,3.4-.7,3,1l-1.28,3.17c-14.73,9.54-31.22,15.67-48.2,19.71l-.51,1.12c.48,2.9-3.25,4.41-5,2-18.59,3.07-48.46.18-67-4-14.97-4.14-28.15-11.68-41-20-3.7-3.13-6.94-6.23-10-10l-.16-1.58c-3.74-4.3-6.7-11.71,1.16-6.42Z"></path><path class="cls-131" d="M71.34,228.11c1.78,10.45,6.58,22.52,13,31,1.53,2.19,1.41,6.67-1,8-1.13,2.96-3.68,1.27-5.78-.28-2.65-3.85-5.5-5.28-8.54-4.29l-1.69-1.43c-2.73-.5-2.5-2.03,0-3-7.56-9.71-22.55-.92-12.43,9.99.56,7.66-3.46,18.4-9.5,7.1l-2.07-2.1-2.35-1.18c-.91-15.58-1.67-17.56-2.28-5.95l-2.37.13c-3.84-1.32-1.46-11.73-.21-15.21,1.76-4.87,3.5-7.13,8.4-9.25,7.14-7.92,15.01-14.77,23.62-20.56l2.19.02c.58,2.25.91,4.58,1,7Z"></path><path class="cls-29" d="M326.34,178.11c3.07.16,8.66,1.41,8,5,10.57,6.82,13.79,20.45,16.16,32.16-1.6.9-1.55,2.21-1.16,3.84,2.96,1.62,2.14,10.77,1.68,14.46.37,3.51-.52,5.35-2.68,5.54,2.46,1.95.97,4.91-2,5,2.61,1.28.77,4.67-2,4,2.32,2.04-.62,9.68-4,9,.35.34.65.69.78,1.1.94,2.94-13.6,16.21-16.7,18.81l-2.08-.91c-.94,3.38-3.69,5.86-8.26,7.41-12.43,3.61-24.09,8.72-35,15.35-1.03.27-1.95-.1-2.74-.76-.91,2.67-3.47,4.04-7.68,4.1-6.06,1.36-16.29,3.2-21.32.9-6.31.88-12.65.88-19,0-.98,2.65-2.16,2.67-3,0l-9.64-.14c-2.22-.01-3.87-.44-4.36-2.86v-4c.19-.88.53-.85,1,0,4.87-1.22,11.92-1.51,14.99,2.34l5.01.66c1.06-2.77,3.97-2.84,5,0,2.86-1.22,7.59-1.9,10,0l6-1c3.17-2.26,11.4-4.47,15-3l.72-1.61c8.46-3.48,16.52-7.68,24.2-12.61l3.08.22c1.62-.74,2.95-.74,4,0,.81-1.7,2.35-2.06,3,0,4.46-2.97,10.34-6.49,15-8l.42-1.75c27.94-22.71,31.85-58.67,9.58-86.25-.2-.53-.53-.19-1,1-1.48,2.82-2.14,6.27-1.96,10.37l-1.04.63c-.92.63-1.25-.03-1-2-2.75-1.6-2.7-9.3,0-11,6.21.75,1.38-3.22,1.3-5.54-.04-1.24,1.45-1.89,1.7-2.46,2.61.39,2.61,1.06,0,2Z"></path><path class="cls-18" d="M142.34,140.11c-.43-2.63-3.91-5.03-10.42-7.21-5.78-4.75-16.38-15.13-7.49-20.85,3.22,2.14,6.42,4.05,9.6,5.72-.11,6.71,6.19,9.6,7.36,1.65l1.95-1.31c5.09-.15,10.65,3.11,15,6l1.77-1.54c7.85,2.83,15.85,4.79,24,5.88l.23,1.67-1.2,2.01c-10.04.05-19.95-2.01-29.75-6.17-11.65-3.82.13,4.05,4.51,6.08,5.88,2.72,28.01,5.8,31.43-1.92,1.46-2.2,4.5-2.13,6,0,8.5-.15,16.5-1.81,24-5,2.2-.58,4.93-1.2,7-2,1.99-.75,2.52-.63,2.33,1.31-.13,1.37-8.31,9.93-10.33,7.69-.22,1.38-.71,2.63-1.78,3.53-7.35,6.2-40.93,14.97-50.11,12.6l-2.11-2.13c-5.85,2.93-18.35-.56-22-6Z"></path><path class="cls-101" d="M142.34,140.11c6.94,2.97,14.33,5.36,22,6-.72,3.06-.16,6.09,1.69,9.09l-1.69,1.91-1.28,2.18c-8.86.55-8.7,3.73.49,9.53l-.21,2.3-3.31,1.1c-11.94-3.86-22.01-11.53-31.34-19.66,7.15,9.97,17.9,16.14,28.67,21.37,2.01,1.86,1.69,3.87-1.02,3.19-1.39,2.56-6.83.71-7-2-14.92-6.91-30.68-23.56-34-40,.54-3.44.95-7.89,1.23-13.37l1.41-.75c6.68,7.11,13.98,13.15,23.58,16.72l.78,2.39Z"></path><path class="cls-82" d="M103.34,217.11c9.27,10.38,21.05,17.86,35.34,22.44l23.21,14.16c6.14,4.08,12.31,3.76,19.26,3.32l1.19,2.08c-2.02,3.54-14.41,2.3-18.5,1.46-1.28-.26-2.46-.63-3.5-1.46-9.88,2.68-23.29-2-33.04-5.84s-22.44-9.57-27.96-18.16c-4.15-3.62-11.05-9.9-2.19-11.45-.06-1.75,1.85-8.56,2.63-8.7.49-.09,1.02,0,1.56.15.68.65,1.44,1.51,2,2Z"></path><path class="cls-110" d="M87.34,262.11c1.42,9.42,7.36,16.46,17.81,21.13.63.43.61,1.09.19,1.87,15.46,7.38,31.35,13.26,48,17,10.65,1.17,21.32,2.51,32,4,30.57,4.1,60.57,1.66,90.68-1.14l1.32,1.14c-.53.68-1.09,1.33-1.73,1.87-8.53,7.13-59.52,6.87-73.01,6.28-.71-.03-1.41-.37-2.15-.74s-1.44-.88-2.11-1.41l-2.98,1.87c-34.85-2.69-76.2-7.25-103.94-30.2-3.62-2.99-12.15-12.85-8.07-16.68-.36-2.68.25-5.45,1-8,.45.59,2.01,1.82,3,3Z"></path><path class="cls-81" d="M203.34,39.11c1.96,15.36-9.12,24.03-21,31-1.16,4.29-11.93,4.37-16.39,4.32-2.13-.02-11.41-.56-12.24-1.92-.45-.73-.5-1.56-.36-2.4-2.71,2.77-3.38.04-2-3,10.01-15.68,19.27-10.58,33.79-15.71,7.85-2.77,13.56-9.87,14.21-18.29,1.43-8.87,6.48,2.05,4,6Z"></path><path class="cls-9" d="M76.34,216.11c.19-1.29-.12-2.7.24-4.21,1.23-5.21,5.64-14.9,9.74-18.31,1.02-.85,1.25-1.11,1.99.16,1.23,2.09,2.26,6.98,3.02,8.36,1.07,2.71-2.17,4.36-4,2-5.61,6.23,1.57,16.49,5.76,22.39.41,1.34.49,2.54.24,3.61,8.5,9.81,19.22,17.74,32.15,23.79,10.8,6.33,1.05,14-7.15,8.21l-3,.53c-13.5-6.16-31.74-18.13-36.51-32.5l-2.16-.22c-.94-4.43-1.05-9.03-.34-13.81Z"></path><path class="cls-122" d="M83.34,175.11c.05,1.33-.07,2.67,0,4,2.63,6.76-5.21,9.52-10,7l-1.24,2.68c-22.38,9.55-50.01,21.96-54.39,48.73-1.63.69-2.42,2.22-2.36,4.59,2.03,2.83,3.15,9.14,3,13,1.31.1,2.05.8,2.7,1.81,6.08,9.35,11.88,17.32,21.23,23.89l1.07,3.3c2.29,1.74,1.74,2.42-1,2-1.11,1.34-2.78,1.67-5,1-.62.15-1.24.26-1.86.24-3.31-.12-20.15-16.25-19.14-21.24,1.4-2.47,2.69,1.24,2.07.7-5.22-4.52-8.83-14.21-9.71-20.96-.56-4.24-1.74-14.55,2.64-15.74-2.72-5.61,5.42-14.19,9.54-18.5,15.4-16.14,32.55-24.15,52.51-32.36,1.17-.48,2.2-1.13,2.95-2.14,2.18-.61,4.53-1.79,7-2Z"></path><path class="cls-67" d="M211.34,300.11c4.63,1.24,9.49,1.46,14,3-.83,1.15-1.86,2.34-3.23,2.5-22.23,2.59-47.03,0-68.77-4.5-13.99-1.8-29.33-6.28-41-14l-10.37-6.03c-1.65-1.87-1.94-3.53.37-4.97,25.08,17.16,63.61,22.39,93.54,22.04,2.69-.03,5.14-1.3,7.94-1.11,3.29.22,5.02,2.4,7.52,3.07Z"></path><path class="cls-44" d="M193.34,234.11l-.17,2.57c-7.08,1.68-14.36,2.16-21.83,1.43-1.26,1.95-2.74,1.95-4,0-3.76.03-7.41-1.28-11-2l-.55-1.26c-14.92-2.64-29.54-8.26-41.74-17.34-1.12-.84-1.69-1.95-1.71-3.39-.36-.95-.54-2.2.17-2.63.83-.51,16.78,5.01,18.52,5.8.58.27.73,1.1.81,1.83.86-2.48,11.43-2.53,14.54-2,1.44.24,4.23.9,4.46,2,.48-.69,1.25-1.36,1.87-1.05,11.85,5.94,25.21,11.5,38.48,13.79l2.15,2.26Z"></path><path class="cls-84" d="M133.34,93.11c4.21-1.87,6.15-2.55,5.17,2.92.97,5.75.67,9.37-.45,15.16,3.25,1.22,9.46,3.6,5.28,6.92.4,3.38-1.54,8.38-5.43,8.03-6.52-.59-5.24-7.6-5.63-7.98-.31-.3-2.3.18-3.24-.25-1.79-.82-2.5-4.52-5.7-3.79-.19,3.47-.34,5.92,1.54,8.95.46.74,7.55,7.79,8.49,8.49,2.44,1.82,9.68,4.27,10.5,5.53.99,1.52,1.27,3.58-1.54,3.04-8.82-3.77-20.25-9.16-24.5-18-1.01,3.01-.37,6.41-.49,9.54-.08,1.92,1.03,4.01-2,3.45-3.4-16.83,3.72-32.94,18-42Z"></path><path class="cls-68" d="M158.34,240.11c12,.02,23.99.39,36,1.1l4,1.9c5.96.6,12.05,1.64,18.29,3.12,9.12-2.68,18.35-5.15,27.69-7.4l3.02,1.28.36,1.51c-3.58,1.97-7.36,3.47-11.36,4.49-.33.87-.67.87-1,0l-10,3c.59,3.31-6.87,7.07-9.94,7.89-4.3,1.15-13.89,2.19-18.28,1.91l-1.78-1.8-9.52.32c-3.67.16-7.76-4.75-4.48-7.32l-2.12-1.02c.98-4.03-4.43-2.01-5.88.02-.72.36-1.44.68-2.2.87-3.23.81-24.52-6.2-28.96-8.22-2.86-1.3-5.42-2.57-1.84-4.65,6.23,1.77,11.79,2.04,18,3Z"></path><path class="cls-127" d="M140.34,237.11c-.1,3.31,1.72,2.39,3.52,2.98,9.79,3.26,19.38,6.85,29.48,9.02,2.07,1.37,4.03,1.42,5.88.15l2.12.85c2.22,8.37,6.9,5.49,14,7-1.32,3.36-10.76,4.95-13,2-4.11-.44-9.36.76-13.26-.24-9.43-2.41-22.88-13.27-32.07-17.93-10.49-5.32-17.98-6.1-26.62-14.38-2.81-2.7-6.12-5.4-7.06-9.44,9.2,8.13,25.16,16.63,37,20Z"></path><path class="cls-172" d="M308.34,238.11c.05.76.06,1.52-.06,2.25-1.16,7.05-26.42,26.34-33.55,31.08s-36.57,21.68-43.27,20.39c-.73-.14-1.43-.41-2.13-.72l-1.3,2.33c-5.16,1.23-10.44,1.98-15.7,2.67-.32-.06-.67.05-1,0-2.94-.41-5.29-.35-3-4,1.2-.2,3.72-1.72,5-2l1.61-1.36c32.34-6.49,55.91-24.39,80.48-44.8,1.04-.86,2.56-.88,3.92-.84l4.33-4.89c1.99-2.27,4.17-3.88,4.67-.11Z"></path><path class="cls-118" d="M88.34,169.11l5.64,12.86c18.45,27.36,53.85,30.26,84.36,27.14,1.97-1.05,5.36-2.47,7-1-4.87,4.79-17.73,7.9-24,5l-.8,1.09c-4.93-.13-10-.49-15.2-1.09-.65,2.88-5.56,3.06-6,0-1.99,1.52-4.83,1.09-7.2.63-10.69-2.08-21.4-8.59-29.07-15.7-3.36-.45-6.28-2.56-6.73-5.93l-2.39.04c-.43-1.7-1.64-2.72-3.61-3.04-2.5-7.66-2.61-12.31-2-20Z"></path><path class="cls-75" d="M156.34,177.11c2.14-2.05,5.39-.99,5,2,3.98-.8,6.98-.13,9,2l4.31-1.11c18.12,6.45,38.75,4.53,57.41.31l2.28.8c3.01,2.74,7.18-.6,10,1-3.21,4.7-13.77,8.26-19,6-1.25,3.9-4.15,2.6-7,1,.11,2.13-1.55,2.13-5,0-1.88,3.09-9.6,3.87-12,1-.66.5-1.34.96-2.08,1.29-4.39,1.99-20.91-1.58-26.62-2.96-8.96-2.18-19.93-4.96-26.3-11.32,2.37.04,3.47.67,3-2,2.16,1,5.04,1.29,7,2Z"></path><path class="cls-115" d="M224.34,59.11l1.8,1.67c-3.92,19.31-16.1,35.16-35.8,40.33l-1.41,2.38c-11.35,3.02-26.33,6.91-35.59-2.38-1.36.36-2.69.02-4-1-2.07-4.05-3.82-8.41-4-13,.28-.87.62-.86,1,0l2.19.84c8.26,19.63,42.53,11.1,54.11-.09,9.18-8.87,21.1-24.91,17.83-38.27-.44-3.77.52-5.6,2.87-5.48,4.03,2.61,4.42,11.92,1,15Z"></path><path class="cls-21" d="M76.34,216.11c.32,1.95-.45,11.6,0,12,.36.33,2.92-.48,3.86.12.39.26,1.42,4.79,2.3,6.23,8.41,13.86,23.07,19.81,35.85,27.64,2.72.73,5.16,2.01,7.32,3.85l22.59,3.93,1.08,2.22c-1.19,1.25-3.52,1.92-7,2-.46.46-.94.89-1.49,1.2-5.54,3.24-37.89-14.54-43.51-20.2-1.94-1.75-4.09-3.23-6-5-1.1-.9-2.22-1.13-3.35-.7-2.18-2.93-4.89-5.24-7.65-7.3-4.74-10.39-5.65-14.64-4-26Z"></path><path class="cls-30" d="M166.34,23.11l2.68-1.89c7.38-16.53,22.79-14.99,35.37-4.86,3.58,2.88,13.09,11.65,6.95,14.75-2.27-.02-4.04-1.09-5.71-2.5,1.78,4.98,1.68,9.15-.29,12.5,3.49.2,2.61,5.24-1,4-.73-1.66-1.07-3.66-1-6-.48-2.63.02-6.99-2.98-7.99l-1.02,1.99c.83-10.82-6.72-23.09-18.72-17.21-6.4,3.13-5.48,7.98-5.29,14.21-2.51.65-6.69-.9-8-3-.29-.46-.92-3.24-1-4Z"></path><path class="cls-33" d="M241.34,34.11c11.59,8.88,19.02,30.75,18,45-.74,10.38-6.11,18.89-13,26-1.89,2.16-3.44.41-2-2-.1-4.03,4.25-11.47,8-13,.9-4.97,1.54-9.96,1.89-14.96l2.11-2.04-1.97-2.44c-.91-14.81-8.97-24.29-17.96-34.74-.61,1.66-1.64,2.39-3.07,2.18-2.41,1.84-3.64.54-2-2-6.52-1.57-5.4-12.83,2.35-8.72l7.65,6.72Z"></path><path class="cls-104" d="M231.34,121.11c2.79-.6,7.32,5.38,7,8,2.26,3.87-7.16,12.99-11,11-1.85.47-3.17,1.23-4,3,.56,2.09-5.01,5.48-7,4l-2.76.54c-2.16-.97,3.27-13.88,4.76-15.54,1.3-.91,4.32-4.32,6.47-6.03.45-.36,3.55-2.53,1.53-2.97,1.15-.44,4.12-1.59,5-2Z"></path><path class="cls-41" d="M146.34,177.11c16.96,7.91,36.09,12.77,55,13,9.54,3.27-4.28,5.52-8.83,5.85-10.06.73-24.25-2.69-32.17-8.85-.28.39-.58.76-.93,1.08-.78.71-17-6.48-18.07-9.08-3.6-2.48-4.26-4.15-2-5,2.36,1.38,4.77,1.96,7,3Z"></path><path class="cls-116" d="M153.34,101.11l3.13,2.44c9.04,14.1,26.41,15.42,41.07,9.44l2.8,1.12c5.33-3.58,9.92-8.27,13.79-14.05l1.21.05c2.86.28,3.27,3.22,1.21,8.8l.79,2.2c1.44,3.31-7.31,9.05-9,5,.35.78.2,1.44-.15,2.17-.69,1.43-14.47,3.9-16.85,3.83-17.99-1.38-33.02-4.45-42-22,2.65-2.46,3.55.83,4,1Z"></path><path class="cls-51" d="M87.34,204.11l2.06.11c1.43,2.86,4.76,6.47,6.94,4.89,1.22,1.66,3.6,4.66,5,6-1.69,1.63-.16,3.31-.17,4.53,0,.57-1.62.32-1.82,1.15-.9,3.8,1.69,4.96-5.01,5.32-.48,4.08,3.08,6.02,5,8.99-2.42,2.06-4.94-2.59-6-5-4.84-6.18-10.67-14.44-10.01-22.5.57-7.08,2.32-3.32,4.01-3.5Z"></path><path class="cls-73" d="M144.34,102.11c3.28,7.47,8.12,14.01,14.52,19.62l-.52,2.38c-4.58-1.39-12.55-2.73-15-6-.37-.49-.09-1.93-1.42-3.04-1.41-1.18-5.14-1.61-5.45-2.09-1.29-1.98.87-8.68.96-11.36.1-3-2.09-5.77-.07-8.99l-4.02.49c2.55-1.62,4.51-3.23,7.99-4,.22,4.48,1.82,8.74,3.01,13Z"></path><path class="cls-43" d="M96.34,192.11c.7,2.05,1.91,3.93,3.65,5.62l-.65,1.38c2.37-.58,2.69.3,1,2l2,4c1.97-1.66,2.18-1.58,2,1,2.38-1.25,5.45,2.56,5,5,2.69-1.29,3.87.27,3,3,13.79,11.06,29.3,18.36,47,20.01l-3,1.99c-26.94-5.41-56.74-18.59-66-47,4.76-3.09,4.39,1.41,6,3Z"></path><path class="cls-129" d="M192.34,127.11l12.18.57c.4.76.2,1.33-.56,1.57l-8.61.86c-1.99.06-4-.01-6,0-1.6,1.96-3.39,1.95-5,0-2.84-2.03-6.81-.61-10.26-1.24-4.14-.76-11.29-3.41-15.74-4.76l-9.86-10.64c-2.42-3.58-3.23-8.13-4.14-11.36,11.13,17.48,27.74,23.95,48,25Z"></path><path class="cls-141" d="M71.34,218.11c-.28.87-.62.86-1,0-3.61,4.77-6.61,5.77-9,3l.08-2.28c4.11-4.72,6.37-11.04,6.76-18.96,4.81-4.14,5.3-7.68,5.16-13.76,4.64-1.92,11.53-1.47,10-7,.11,2,2.27,6.42,1.58,9.04s-8.74,10.49-10.78,15.25-2.6,9.57-2.8,14.7Z"></path><path class="cls-173" d="M171.34,238.11c12.28-.06,24.54-.57,36.79-1.54l3.21,1.54,9.03.14c.76.31,1.04.96.97,1.86-4.2,3.98-13.09,4.96-18.44,2.89l-4.56.11c-14.09.55-26.21-.87-40-3l9-2c1.33,0,2.67,0,4,0Z"></path><path class="cls-156" d="M87.34,262.11c4,4.78,9.84,10.47,15,14-.19,6.52,7.72,6.23,10,11-2.03.09-4.36-.58-7-2-8.44-5.22-22.38-10.94-18-23Z"></path><path class="cls-50" d="M119.34,156.11c4.35,5.96,13.65,14.3,20,18l.04,1.31c1.66.98,2.41,1.54,1.96,3.69-.1.91-.45.85-1,0-7.3-3.13-12.78-6.97-18-13-4.42-1.45-10.85-11.64-3-10Z"></path><path class="cls-4" d="M263.34,94.11c-.12,3.09-.78,5.09-2,6,2.24,1.96.77,3.74-2,3-1.46,4.79-4.78,8.77-9.06,11.33-1.81,4.18-4.13,6.07-6.94,5.67-3.15-1.82-.77-4.8,1-7,8.54-6.29,13.78-13.92,17-24,2.17,1.12,1.51,3.39,2,5Z"></path><path class="cls-13" d="M208.34,116.11c1.83-.36,2.63.17,2.78,1.93l11.05-3.26,2.17,1.33c.92.2.92.87,0,2-14.54,5.15-17.73,5.17-33,4l17-6Z"></path><path class="cls-49" d="M243.34,120.11c2.64,2.7-2.21,8.74-5,9-3.18-1.82-5.11-5-7-8,3.02-1.42,10.19-5.93,13-8-.19,2.07-.35,5.12-1,7Z"></path><path class="cls-138" d="M100.34,268.11c.63-2.18,2.83.23,3.71.8,12.59,8.18,23.73,15.7,39.31,17.69l-2.01,1.51c-16.75-3.78-27.84-8.86-41-20Z"></path><path class="cls-164" d="M119.34,156.11c-5.08,2.66.44,7.04,3,10-4.2.04-7.93-6.29-9.03-9.47-2.14-6.18-1.76-11.24-1.97-17.53,2.27,5.77,4.3,11.92,8,17Z"></path><path class="cls-63" d="M246.34,105.11c-7.95,8.2-11.45,9.26-22,13l-.97-.5.97-1.5c2.19-3.04,5.56-5.49,10.12-7.36,3.22-3.17,6.52-5.05,9.88-5.64l2,2Z"></path><path class="cls-28" d="M91.34,250.11c-6.23-1.85-3.03,1.25-1.59,4.09.5.99,2.74,3.23.59,3.91-4.13-5.09-7.26-9.99-10-16,3.55-2.23,8.32,5.51,11,8Z"></path><path class="cls-119" d="M153.34,70.11l.93,2.04c-2.76,3.46-5.76,7.9-2.26,11.8l-.67,2.17c.93,2.85-3.98,3.65-5,1h-1c-.3-7.72,1.97-13.69,6-20-.04,1.81.62,2.23,2,3Z"></path><path class="cls-144" d="M219.34,125.11c-5.6,6.96-15.99,4.74-24,5l8.99-1.99-11.99-1.01c9.33.48,18,.37,27-2Z"></path><path class="cls-155" d="M96.34,209.11c.64,3.2-2.49,2.22-3.98,1.48s-4.86-4.43-5.02-6.48c1.04-.11,2.79-1.67,4-2,1.04,1.88,3.59,5.08,5,7Z"></path><path class="cls-121" d="M71.34,228.11c-.43-2.54-1.04-3.6-1-7-1.93-.92-1.94-2.09,0-3h1c-.13,3.32.09,6.68,0,10Z"></path><path class="cls-47" d="M40.34,296.11c14.13,7.34,27.71,14.2,42.82,19.65,25.73,9.27,51.98,13.72,78.18,16.35.33-.87.67-.87,1,0,26.68,3.44,56.41,4.6,83.15.47,3.07-.47,5.02.05,5.85,1.53,2.1,1.8.35,4.05-1.28,5.71-2.23,2.27-13.98,7.71-17.85,9.2-2.59.13-4.21.83-4.88,2.09.46.67.77,1.49.34,2.05-1.29,1.69-29.3.91-35.23.63-26.47-1.23-54.25-3.74-79.1-12.68-22.95-5.49-46.55-15.31-66-30-2.25-.86-4.53-2.03-6-4-2.39-1.57-5.72-2.99-8-5-1.61-1.41-1.4-.78-2-3-3.54-3.84-2.01-8.84,3-6,1.03-2.13,6.19,1.07,6,3Z"></path><path class="cls-37" d="M380.34,302.11c-15.35,13.71-28.98,22.58-48,31-61.84,27.38-154.7,28.79-219,10v-2c36.05,9.55,73.26,12.4,110.62,11.07,1.77-.06,3.2-1.07,3.38-1.07,1.6-1.11,3.34-1.87,5.24-2.25,46.48-1.17,90.5-14.02,130.76-35.75,2.09-5.01,10.65-10.28,16-11,.28-.87.62-.86,1,0Z"></path><path class="cls-168" d="M113.34,341.11c2.09,1.09,3.37,2.25,0,2-25.15-7.35-46.31-15.91-67-32h1c9.83,6.16,20.7,12.49,31.32,17.18,10.43,4.61,25.2,7.89,34.68,12.82Z"></path><path class="cls-12" d="M47.34,311.11h-1c-1.19-.93-4.3-1.16-5-4,1.93,1.27,4.21,2.88,6,4Z"></path><path class="cls-152" d="M272.34,172.11c.66,2.3.47,4.89-.56,7.78,3.11-.06,5.3.68,6.56,2.22,2.41,2.56-2.03,13.6-6,13-5.16,5.74-9.66,11.73-13.5,17.95l.45.9c3.15-.45,7.48-.75,5.05,3.15.25.43.44.86.45,1.3.01.78-10.99,7.93-12.45,6.7,1.54,2.99-32.35,10.92-29,8,.17-.15,4.39.68,3,2l-.97,2.29c-4.55,1.43-9.34,1.2-14.03.71-13.29,2.32-27.06.02-40,0,7.48.03,15.67.95,22-4,.33-.86.67-.86,1,0,7.51-.1,14.18-2.1,20-6l1.1-2.55c4.47-2.22,8.97-4.41,13.9-5.45-.17-1.1.17-1.87,1.04-2.42,13.1-8.24,26.9-17.26,32.86-32.24-1.25,1.41-2.55,1.63-3.9.66l-13.32,6.7-2.68-.7c-.05-8.58,12.89-12.76,20.25-15.05l3.75-4.95c1.54-.97,4.8-3,6-4,2.68,1.12,1.93,3.88-1,4Z"></path><path class="cls-150" d="M314.34,157.11l1.07,5.23c10.27,17.71,6.83,41.45-3.55,58.3l-2.52-.53c-3.77,5.76-29.42,38.2-34.15,36.34-.4-.16-.64-.69-.85-1.34l-.53-1.3c8.13-9.34,10.01-12.23,5.65-8.67l-2.12-1.03c-2.61,6.82-15.55,4.97-12-2-1.33-1.41-.77-1.92,1-1l2.21-1.02c7.13,1.69,8.35-3.35,8.79-8.98-1.06-1.42-.51-1.93,1-1,12.9-8.94,23.32-18.6,31.11-32.48,2.71-2.43,4.34-5.94,4.89-10.52l-1.94-1.59-.06-19.41c-2.54-1.11-2.54-3.45,0-7,.05-1.33-.05-2.67,0-4,1.18,0,1.48,1.26,1.99,2Z"></path><path class="cls-22" d="M273.34,82.11c.51-.47.96-.81,1.23-.7,4.97,2.01,10.98,13.95,13.07,18.7l2.7,1c6.6,15.6,5.42,29.45-3,44-2.82,3.53-4.51.68-3-3-.74-1.86.26-3.86,3-6-1-2.44-.75-5.09.77-7.94-1.52,6.81-14.37,16.99-15.65,5.27l1.88-12.32c.07-2.99-.06-6.01,0-9-.4-7.75-.71-15.5-.91-23.25-2.95-4.46-2.98-6.71-.09-6.75Z"></path><path class="cls-170" d="M307.34,153.11c.56,3.16,1.71,6.23,1.01,9.99l3.99-3.99c-.09,2.23.3,4.92,0,7l.31,6.04c-1.49,7.78-5.94,13.93-10.31,19.96.44.58,1.09,1.44.82,1.89-2.83,4.51-10.35,13.99-14.18,17.53s-19.51,16.77-23.49,16.16c-.4-.06-.78-.29-1.14-.58-.31.73-.65,1.45-1.1,2.08-3.13,4.39-34.76,13.71-39.82,11.96-.73-.25-1.41-.63-2.08-1.04l-10-2c5.23.3,10.09-1.9,15-3,.22-.6.47-1.09.85-1.21,7.16-2.4,16.5-5.2,23.79-7.21.39-.11.86.11,1.36.42l.99-1.46c19.35-10.29,37.55-23.34,47.21-43.62l1.8-.92c1.85-8.39,2.87-16.82,3.06-25.3l1.94-2.7Z"></path><path class="cls-31" d="M163.34,171.11l1.84-1.57,14.16,3.44,1,2.13-4,4.99c22.3,5.55,45.59,2.8,67-4.99,2.75-.68,3.42-.01,2,2-3.74,1.36-7.07,2.97-11,4-22.4,5.87-41.73,5.08-64,0-1.74-2.12-4.74-2.79-9-2-2.08-.63-3.37-1.41-5-2,2.2-.72-1.47-2.33-1.95-2.55-14.78-6.94-25.81-15.33-33.05-30.44,4.33-.18,5.76,4.33,8.1,6.39,10.32,9.05,20.69,17.04,33.9,20.6Z"></path><path class="cls-114" d="M326.34,178.11c.34-1.83.51-2.29,2.04-2.79,6.06-1.99,41.23,17.39,47.84,21.2l1.12-2.41c4.52,1.83,15.54,11.19,19,15,2.08,2.29,5.31,7.22,7,10,2,4.09,2,6.75,0,8,1.88,5.22-2.05,7.2-5,3-2.73-1.79-4.78-4.63-6.16-8.53-13.05-16.68-30.68-28.13-52.91-34.34l-4.93-4.13c-1.14-.48-7.59-4.33-8-5Z"></path><path class="cls-124" d="M283.34,171.11c-1.28,5.62-12.63,8.52-11,1,.51-1.12.56-2.78,1-4,7.86-6.54,20.68-22.4,24-32,2.88,1.38,4.14,12.44,3.24,15.68-1.82,6.55-10.78,14.89-16.05,19.63-.17.15-.64-.03-1.2-.31Z"></path><path class="cls-52" d="M371.34,190.11c1,1.37,2.33,2.37,4,3,.63.18,1.33.73,2,1,1.56,5.69,12.66,8.13,10.5,15-6.6-6.74-14.12-12.11-22.47-16.53-7.79-4.13-20.62-10.23-28.78-13.22-3.16-1.16-7.12-3.3-10.26-1.24-.2-.33.13-1.42,0-2,.27-.62-.31-2.71.01-2.99.71-.61,15.9,3.53,18.21,4.28,9.63,3.11,18.14,7.66,26.78,12.72Z"></path><path class="cls-59" d="M267.34,172.11c-1.64,9.05-3.19,6.14-9,8.5-6.13,2.5-11.2,5.98-15,11.5.45,3.37-6.84,9.54-10,8-4.73,3.03-6.83.7-6.29-7.01-1.2-1.8-1.78-3.47-1.71-4.99,6.35-1.14,12.9-3.9,19-6,7.98-2.75,15.7-5.42,23-10Z"></path><path class="cls-71" d="M323.34,184.11c.26,2.91.36,8.19,0,11,2.36,7.72-4.99,24.8-10.16,31.17l-2.84.83c-3.29,1.84-3.62-.16-1-6-.53-.3-.51-.64,0-1,8.31-5.29,11.9-36.16,9.94-45.44-1.24-5.84-8.45-11.44-4.94-17.56,4.96,7.16,8.23,18.35,9,27Z"></path><path class="cls-78" d="M303.34,162.11c.96,1.6.49,3.29,0,5,2.12,1.58.47,8.48-2,9-.13,4.52-1.48,7.25-3.57,11.11-2.38,4.38-8.29,13.9-13.43,11.89l-.53-2.83c5.03-7.42,10.21-14.47,15.53-21.17l-1.29-2.44c1.32-4.12,2.39-8.38,2.32-12.72-3.55,5.23-7.89,8.62-13.02,10.16-.89,3.3-2.22,4.64-4,4-2.3.22-2.3-.78,0-3,2.53-1.7,14.17-14.6,14.8-16.7,1.17-3.93.31-14.06-.8-18.3.25-.72.89-2.53,1-3,1.1-.06,2.01.3,2.44,1.28,1.73,3.86,2.69,7.44,3.5,11.56.93,4.72,2.53,12.86-.95,16.16Z"></path><path class="cls-19" d="M284.34,142.11c.72,1.71.75,3.55,3,3-9.94,17.18-24.01,25.44-42,32l-2-2c8.72-3.17,13.7-6.68,21-12l.54-2.88c7.19-4.92,13.12-10.86,17.82-17.84l1.65-.28Z"></path><path class="cls-93" d="M307.34,153.11c.46,9.45-1.62,19.2-5,28-2.1,1.05-2.43-.62-1-5,1.15-3.15,1.39-5.87,2-9,.72-1.82.72-3.49,0-5,0-10.1.08-19.9-5-29,.32-1.4-.68-3.97.5-5,5.53,7.22,6.98,16.31,8.5,25Z"></path><path class="cls-133" d="M277.34,81.11c4.45,4.05,10.61,14.35,13,20l-2.99,3c-2.03-3.59-3.08-7.86-5.16-11.39-1.64-2.78-6.05-8.28-8.86-10.6-3.29.3-6.29-1.37-9-5-.22-.93-.13-2.62,1-3,2.75,1.37,10.04,5.21,12,7Z"></path><path class="cls-114" d="M375.34,193.11c-2.59-.74-4.72,1.85-4-3,1.48.86,3.23,1.15,4,3Z"></path><path class="cls-84" d="M210.34,10.11c1.03,1.22.87,2.73-.47,4.54,3.64,3.26,8.19,9.01,7.47,13.46,4.45,2.08,9.54,11.89,6,16-2.04,4.67.2,11.79-.3,15.34-1.12,7.88-15.8,28.53-22.78,33.07-5.11,3.33-23.52,9.81-29.37,9.59-9.08-.33-23.15-4.59-24.54-15.01l5-1c2.29-1.35,8.04,1.31,9,4,30.71,9.34,65.08-29.87,51-59-.29-1.4.47-3.06-.28-4.74-.19-.44-5.82-6.79-6.29-7.2-1.68-1.5-11.02-7.68-12.98-8.01-5.34-.91-13.38.01-17.13,4.26-1.96,2.22-3.72,10.68-8.32,7.69-2-19.98,22.02-19.83,35.78-16.28,2.92.75,5.48,2.17,8.22,3.28Z"></path><path class="cls-45" d="M241.34,34.11c-.4-.3-7.7-4.71-8.43-5.07-6.06-2.95-3.63,3.42-1.57,7.07-.55,1.38-1.88,2.05-4,2-2.96.47-8.88-9.94-8.71-10.69.03-.11-.96-.44-1.29.69-2.65-4.03-4.06-5.91-6.25-9.73-1.68-2.93-5.94-1.51-.75-8.27,6.18,2.5,10.44,4.52,15.91,8.59s11.32,9.51,15.09,15.41Z"></path><path class="cls-79" d="M380.34,302.11h-1c-2-2.02-1.18-4.57,2.48-7.65,4.78-4.11,10.57-9.5,14.2-14.62.04-.05-.27-.36-.69-.74-1.68-1.14,1.02-5.85,3-7l-.97-2.47c3.64-5.5,6.64-11.35,8.97-17.53,2.02-3.65,3.35-7.65,4-12-1.91-.56-1.91-1.44,0-2,4.02,26.8-11.35,47.34-30,64Z"></path><path class="cls-135" d="M410.34,238.11c0,.67,0,1.33,0,2-.79,1.34-1.31,3.23-1.58,5.68l-1.42.32c-1.55-1.04-2.28-2.95-2.18-5.71-2-4.69-2.6-9.12-1.82-13.29-.37-2.43.25-5.46,0-8,4.43,7.3,5.71,10.42,7,19Z"></path><path class="cls-167" d="M6.34,234.11l1.86,2.56c-.15,9.94,1.59,20.16,8.48,27.71l-.34,1.73c6.56,8.64,12.36,14.25,21,21,1.59-.15,3.03.23,4.38,1.04,58.06,35.29,122.93,40.33,189.55,38.98l2.07.98c6.81-3.44,15.72-4.3,23-2-.03,1.7-.51,2.26-1.8,3.03-3.02,1.82-13.54,2.45-17.57,2.64-11.38-.69-22.62-.25-33.72,1.34-18.77-.84-37.41-2.18-55.92-4.01-.59.61-1.19,1.08-1.79,1.1-2.7.08-6.1-.32-8.8-.79-30.7-5.33-65.05-14.64-91.58-31.44-.48-.3-.69-1.03-.83-1.87-6.4-1.61-12.01-5.79-16-11l-3.2-.05c-3.69-2.16-12.29-12.55-11.8-16.95l-4-6c-.88-.27-.87-.6,0-1-1.39-2.19-2.73-3.86-4-5-.08-.64.04-1.34,0-2l-1-6c-.04-2.79-.32-6.36,0-9,.12-.99,1.56-3.76,2-5Z"></path><path class="cls-123" d="M76.34,177.11c1.92.34-2.11,3.18-2.28,3.27-4.67,2.61-10.26,4.03-14.63,6.32-15.64,8.22-43.03,25.5-48.09,43.41-2.9,4.38-3.86-.34-3-4,7.42-21.19,35.02-37.5,55-45,4.34-1.63,8.54-2.76,13-4Z"></path><path class="cls-2" d="M8.34,226.11c.53,2.05.39,4.61,3,4-2,7.05-1.01,21.42,2.08,28.21.84,1.84,6.17,5.93,5.93,9.28l-3.01-1.49c-7.56-9.96-10.99-18.86-10-32,.23-3.09,1.01-5.18,2-8Z"></path><path class="cls-15" d="M9.34,261.11c.08.31-.08.69,0,1l4,6c4.71,6.08,8.86,12.2,15,17l6.48,6.66-.48,1.34c-3.75,1.03-3.94,2.51-3,6-10.69-10.42-21.94-24.02-25-39,.66-2.33,1.66-2,3,1Z"></path><path class="cls-32" d="M9.34,261.11l-3-1c-.26-1.29-.78-2.27-1-4,3.31-2.42,3.35,2.54,4,5Z"></path><path class="cls-32" d="M5.34,254.11c-1.68-1.09-.97-4.11-1-6,1.74,1.11.9,4.11,1,6Z"></path><path class="cls-66" d="M266.34,104.11c4.77,43.14-47.79,74.57-86,71-4.66-.44-12.19-2.7-17-4-9.31-6.47-14.85-12.25,1-14l2.17-2.23c16.59.63,32.15-2.17,46.67-8.4l3.16.64c2-1.05,5.18-2.79,7-4,.66-1.74,2.27-2.68,4-3,5.41-3.97,7.24-5.31,11-11,1.56-2.36,4.12-6.45,5-9,4.57-5.16,12.42-11.38,16-17,4.1,4.43-2.25,12.11-7.31,13.55-.75,4.97-3.33,9.21-7.76,12.7l-.8,3.3c2.01,5.05,3.03,10.29-4.13,6.44-.34,1.78-1.91,2.94-4.71,3.48-2.95,3.32-5.58,5.88-10.38,5.5-1.98,1.61-3.62,1.95-4.91,1.02-.61,5.25-4.2,7.59-10.78,7.02l-2.14,4.33c-16.3,11.42,12.35,2.89,18.22.12,15.95-7.54,22.46-15.72,30.55-30.25,5.01-8.98,9.27-17.19,4.15-27.22.44-.7,1.96-2.82,2-3,1.83-1.36,3.5-.02,5,4Z"></path><path class="cls-61" d="M274.34,121.11c-.11,4.5-1.08,10.78.77,14.73,1.54,3.3,6.78-1.57,8.22-3.24,3.44-3.96,3.36-8.46,5.8-12.2.87-1.33,1.19-2.7,3.2-2.29-.79,6.18-2.53,12.29-4.99,17.99-3.01,3.85-5.85,7.83-8.52,11.93-4.54,7.41-18.66,9.5-13.48-1.93,4.51-7.21,6.47-16.98,9-25Z"></path><path class="cls-169" d="M287.34,136.11c-.69,1.61-2.14,4.55-3,6-5.76,9.68-11.12,14.53-20,21-1.14-3.54-4.1-.26-6-1.42-5.87-3.57,5.38-12.98,7-15.58-.91,10.19,8.01,5.62,12.54,1.04,3.38-3.42,4.73-9.44,9.46-11.04Z"></path><path class="cls-128" d="M273.34,82.11c-1.62,2.67,1.68,2.97,2.07,6.46.71,6.47-.95,17.21-1.07,23.54.72-7.25-4.02-13.47-3.43-20.05-.65-4.66-5.69-11.13-6.57-14.95,3.35,0,6.46,2.9,9,5Z"></path><path class="cls-96" d="M263.34,94.11c.99,3.27,2.62,6.58,3,10l-5-4c.59-2.62-1.59-6.83,2-6Z"></path><path class="cls-174" d="M113.34,166.11c5.58,5.52,15.95,12.89,23.84,13.83,2.36.28,2.99-.84,3.16-.83.33.02.67-.01,1,0,4.58.2,13.99,6.28,19,8,3.59,2.29,6.75,5.1,9.47,8.43,2.98.22,5.16,1.08,6.53,2.57-.36.94-.8,1.99-1.68,2.42-2.76,1.35-23.43.97-25.02-.9-1.67-1.97-.61-4.25,1.75-4.82,1.68-10.8-9.48-8.1-5,1.39.32,1.51-.36,2.11-1.8,2.51-6.91,1.93-35.84-12.35-37.25-21.59-8.81-4.75-2.83-17.15,6-11Z"></path><path class="cls-117" d="M107.34,177.11c7.91,10.81,25.17,17.82,38,19.99-4.84-5.12-.48-14.74,6.43-9.92,2.05,1.43,2.16,6.05,1.43,8.31-.64,1.97-4.44.99-1.88,3.13,7.99.5,17.29,1.47,25.02-.52,4.18-2.41,9.29-3.11,15.34-2.1,7.22-1.38,14.35-3.2,21.39-5.44l.27-1.46c1.63-.13,3.39.19,5,0,8.93.54-3.94,11.99-8,9-3.04,3.57-6.4,5.49-10.58,7.47-3.77,1.79-11.08,4.84-14.42,2.53-2.4-.11-4.64.76-7,1,3.14-4.69,12.94.43,11-6.99-4.11-1.18-9.25,2.7-12.44,2.85-8.66.43-37.1-4.38-45.56-7.35-12.74-4.48-18.54-9.63-25.99-20.51-.27-1.32.39-1.32,2,0Z"></path><path class="cls-151" d="M113.34,166.11c-3.61-.24-6.62-.47-8.24,3.26-1.82,4.19.05,4.74,2.24,7.74h-2c-8.01-11.68-11.73-17.88-4.99-31.99l4.16,10.32c2.83,3.56,5.59,7.48,8.83,10.67Z"></path><path class="cls-34" d="M277.34,244.11c2.09-1.1,7.99-6.54,6.96-.55-.37,2.15-7.98,9.94-9.96,11.55-.44,4.17-9.55,9.15-14,10-2.52,1.73-6.08,2.88-9,4-1.01,1.19-2.5,1.74-4,2-.29.11-.71-.11-1,0-1.91,1.99-8,4.86-10,3-7.49,1.26-14.82,2.93-22,5-.83,1.25-1.97,1.82-3.4,1.97-13.54,1.47-57.48,2.58-67.56-4.26-.59-.4-.27-1.78-.04-2.71,14.24-2.17,28.56-3.79,42.52-.18,31.08.76,70.58-5.04,91.48-29.82Z"></path><path class="cls-26" d="M142.34,274.11h1c1.33,1.68,3.76,2.32,5.76,2.75,19.47,4.14,45.53,4.29,65.24,2.25,7.16-2.09,14.5-3.76,22-5,3.08-.98,7.21-1.98,10-3,.52,2.39-1.2,2.09-2.63,2.82-23.41,12.1-63.99,11.19-89.86,8.16-12.26-1.44-35.93-11.85-46.56-18.3-2.83-1.72-6.55-5.6-9.96-8.68,14.08,7.7,28.55,17.75,45,19Z"></path><path class="cls-150" d="M310.34,227.11c1,4.78-3.36,8.7-7,11.52l-4,4.48c-30.51,25.36-45.49,38.22-86,47-2.66-2.07-.17-1.86,1.22-2.27,20.96-6.18,30.46-10.1,48.78-21.73l.41-1.78c18.84-10.01,31.81-25.05,44.2-42.29l1.38-.93c-.3,2.28-1.41,4.59,1,6Z"></path><path class="cls-57" d="M309.34,220.11v1c-4.94,8.69-11.46,17.85-18.45,25.05-8.74,8.99-17.28,13.43-27.55,19.95l-3-1c3.47-2.38,10.1-6.84,14-10,2.59.42,5.23-2.85,7.01-4.49,8.82-8.07,21.8-26.58,27.99-30.51Z"></path><path class="cls-150" d="M251.34,269.11c-.53,1.85-2.22,2.16-4,2,.36-.14,2.04-1.25,4-2Z"></path><path class="cls-105" d="M43.34,273.11c3.26.09,3.94,3.11,5.55,4.95.85.98,1.14,1.54,1.97.06.24-.43,2.49-7.21,2.51-7.61.11-1.98-2.98-7.12-3.02-10.94-.06-5.61,5.83-6.98,10.45-6.4.34.04,6.26,1.75,6.46,2.03.4.57.03,2.04.09,2.9l-2.01.98c-18.86-8.45-8.39,16.97-.14,2.67l2.15-.64c8.77-4.29,8.42,5.41,16,6,.88,6.44,6.58,13,11.5,17,24.28,19.74,72.75,26.82,103.5,28,3.12-.61,4.56,7.21,2.39,7.53-3.45.51-7.92,0-11.39-.53-.71.52-1.43,1-2.22,1.35s-1.51.65-2.24.66c-41.49.57-100.42-12.44-134.94-35.84-.61-.42-1.06-1.09-1.51-1.8s-.79-1.54-1.09-2.37c-1.04-1.44-2.85-3.43-5.41-5.97l1.41-2.03Z"></path><path class="cls-154" d="M70.34,218.11c0,1,.01,2,0,3-1.9,4.81-7.74,6.03-11.5,9-5.13,4.06-8.65,8.65-12.98,13.02-1.31,1.32-3.58,1.53-4.98,3.02-3.93,4.19-4.83,14.37-4.54,19.96,2.79.84,3.03,6.37,0,7-2.66,1.8-8.55-4.33-7-7-5.11-19.96,13.32-37.65,29.71-46.17l2.29,1.17c.75-.31,2.28-.1,3.71-.74,1.95-.87,3.69-4.59,5.29-2.26Z"></path><path class="cls-27" d="M67.34,258.11c.07.89.12,2.17,0,3-2.21,14.85-22.18,2.76-12.06-4.56,4.2-3.04,8.36-1.42,12.06,1.56Z"></path><path class="cls-20" d="M36.34,266.11c.02-.17.87-1.16,1.05-2.42.56-4.07-2.09-7.31,3.95-7.59,1.56,5.53.4,11.51,2.01,17,.92,3.14,2.67,5.31,4.98,7.5l-.98.5c-3.15,1.71-11.92-4.36-11-8,.17-2.28-.24-4.75,0-7Z"></path><path class="cls-54" d="M349.34,217.11c4.97,1.73,9.52,4.86,13.65,9.39,5.41,2.74,14.82,7.86,11.35,14.61.29,3.46,1.25,7.18,2.88,11.16,1.34,5.88,3.19,16.97-2.88,19.84l-5.2,5.96c-2.74,2.16-5.33,4.5-7.78,7.03-5.02,2.52-9.7,5.52-14.03,9.02-.66.87-1.35,1.71-2.14,2.44-6.69,6.21-34.16,13.16-44.52,15.65-27.54,6.62-54.24,8.41-82.36,9.73-4.59.22-28.54.9-29.21-.4-.41-.79-.18-1.66.23-2.42,3.66-.05,7.34.04,11,0l-2-6.99c25.78.99,54.22,1.17,79-6,.02-2.44,2.55-2.93,4-1,4.11-.42,8.32-.99,12-3,.09-.57.23-1.1.52-1.52.5-.72,14.73-5.16,16.48-4.48,3.8-3.11,7.14-4.11,10-3,20.09-9.36,44.3-27.9,31-52-2.12,1.9-3.98.72-3-2,1.18-4.82.67-14.65,1-20v-2Z"></path><path class="cls-177" d="M398.34,230.11c2.99.28,5.18,4.52,2,6l-1.47,10.39c-.55,2.45-1.73,4.65-3.53,6.61,1.38,2.89-2.6,9.79-6,9l-2.49-1.59c-3.32-21.23-20.2-34.47-37.51-43.41-.15.45.04,1.36,0,2-1.54-6.11-2.26-12.01-4.52-17.98s-6.45-12.77-10.48-18.02c24.58,10.3,54.03,18.32,64,47Z"></path><path class="cls-132" d="M322.34,224.11c2.67,1.52,2,4.6-1,5-4.26,9.76-11.95,17.91-20,25-3.8,5.74-8.62,10.92-14.55,14.7l-2.45-.7c-6.25,6.43-13.67,11.55-22.24,15.37-.33,5.51-2.59,9.39-6.76,11.63-.33.87-.67.87-1,0-4.23,2.45-9.2,3.48-14.89,3.09l-2.11.91c-1.66-.04-3.35.11-5,0l-6.18-.83c-4.13-.92,1.3-5.69,3.18-7.17,28.99-9.01,60.61-28.77,79-53l-.53-2.63c4.5-6.18,8.75-12.62,12-19.55l2.53-.81c5.36,1.06,2.24,6.18,0,9Z"></path><path class="cls-92" d="M328.34,185.11c14.4,18.89,20.01,42.68,8.05,64.93-2.74,5.11-7.47,13.2-13.05,14.07l-.83-2.41c3.61-4.93,4.88-9.82,4.24-15.91l1.59-5.68-1.92-1.7c2.89-9.87,3.76-18.8,3.02-29.2.32-3.97-.72-8-3.1-12.1-1.35-2.21-1.06-9.17,1-11v-2c1.13-.17.94.96,1,1Z"></path><path class="cls-39" d="M344.34,248.11c4.7-4.83,4.91,8.56,4.53,12.46-.55,5.57-2.41,10.61-6.53,14.54.21.4.36.79.33,1.16-.27,3.24-27.42,17.41-32.33,19.84-5.06,3.3-11.28,4.42-17,6-3.69,1.99-7.89,2.59-12,3-1.23.25-2.38.72-4,1-6.69,1.14-15.21,1.17-22.55,1.95-5.69.6-15.85-1.3-19.08,2.1-16.59-2.24-33.84-.08-50.37-4.05,25.55.21,51.29.3,76.71-2.89,20.77-2.72,43.73-6.2,60.29-19.11-.36-.8-.34-1.45.3-1.85,5.04-2.8,8.9-5.01,12.87-9.42,5.41-6.01,5.74-6.93,4.34-14.44-.07-.39.16-.83.48-1.29,1.04-1.75,3.03-6.73,4-9Z"></path><path class="cls-162" d="M326.34,223.11c.8.77,1.49,1.67,1.69,2.79,1.77,9.47-12.5,35.53-17.89,44.08l-2.8,1.14c-2.39,3.68-7.06,9.14-11,10-7.8,5.93-18.62,11.23-28,14-2.75.83-3.36-1.45-1-3,.16-3.21,9.14-7.89,12-6l.91-2.71c6.48-3.14,12.09-7.48,16.82-13.02l2.27.73c2.65-2.51,1.65-.14,1.18-.35-1.81-.79,16.37-29.79,18.82-32.65-1.55-2.03-.88-5.03,2-9,.33-1.61.77-3.42,1-5,.76-4.48,4.7-6.15,4-1Z"></path><path class="cls-23" d="M326.34,197.11c3.43-.16,1.69,5.04,5.86,5.12-1.7,7.74.07,16.76-.91,24.33-.53,4.07-2.94,8.36-2.95,13.55-2.48,13.45-6.77,25.21-17,35l.28,1.29c-3.03,1.17-5.79,2.74-8.28,4.71-.83.2-2.07-.14-3,0l-1.25-.69c3.01-2.87,5.76-5.98,8.25-9.31,9.64-19.61,16.45-23.59,19-48l-1.23-1.66.23-16.34c-2.63-1.02-1.69-6.66,1-7-.52-.28-.5-.61,0-1Z"></path><path class="cls-6" d="M318.34,273.11c-2.57,1.12-3.03-.21-1-2-.45-2.84,3.04-7.26,6-7,17.67-15.71,22.64-40.91,13.19-62.69-2.33-5.38-7.72-10.46-8.19-16.31,8.99,6.59,14.87,22.78,15.87,33.63,2.12,23.02-8.59,40.54-25.87,54.37Z"></path><path class="cls-80" d="M322.34,284.11c-5.74,4.91-14.35,9.16-21.69,10.97-.34.08-.8-.37-1.31-.97-.9-2.05.21-3.56,3.32-4.52,7.27-2.44,16.81-6.47,19.68-13.48,4.96-3.79,14.89-13.79,18-19,8.42,5.8-3.8,18.42-9.09,22.41-3.27,2.47-5.99,2.95-8.91,4.59Z"></path><path class="cls-109" d="M299.34,294.11c-.1.6-.25,1.16-.57,1.59-.69.91-20.93,6.39-22.03,5.67s-.85-1.92-.4-3.26c4.76-1.83,10.62-6.86,15.63-8.87,11.53-4.62,19.45-4.79,30.37-13.13,1.11,1.68,1.5,2.78,0,4.48-.38.43-8.3,6.45-9.09,6.93-4.11,2.49-10.22,2.93-13.91,6.59Z"></path><path class="cls-17" d="M324.34,197.11c1.37-1.98,2.04-1.64,2,1-.34,2.5-.36,4.34-1,7,.97,5.38-.03,8.71-3,10-2.93,7.2-9.23,16.72-14,23-2.61-1.5-6.73,3.11-9,5,3.36-5.54,7.58-10.48,11-16,5.6-9.05,11.64-21.36,13-32-.13,1.12.28,1.37,1,2Z"></path><path class="cls-91" d="M322.34,284.11c-2.46,4.99-11.56,8.56-16.79,10.71-32.27,13.23-85.36,14.03-120.21,11.29-11.16-.88-20.87-1.96-32-4-.87-.28-.86-.62,0-1,23.03,4.16,49.7,7.1,72,2,.82-.19,2.04.09,3,0,6.38.89,12.71.89,19,0,8.71-.86,20.95-1.9,29-5,3.74,4.58,4.11,1.41,7.93.43,5.6-1.45,9.76-2.66,15.07-4.43,9.92-3.29,13.78-4.84,23-10Z"></path><path class="cls-130" d="M351.34,241.11c12.92,24.48-10.9,42.64-31,52-3.2,1.18-6.54,2.94-10,3,.61-.4,1.48-2.51,3.06-3.44,7.75-4.56,23.63-11.04,28.94-17.56,8.23-8.07,7.93-20.92,4-31,.52-1.45,1.93-4.72,2-5,.96.7,2.07,1.25,3,2Z"></path><path class="cls-7" d="M229.34,291.11c-.81,1.2-.23,3.26-.93,4.31s-2.85-.01-2.07,2.68l5.99,1.01c-6.73-.45-13.39-1.79-20-3,4.15-3.55,11.86-3.4,17-5Z"></path><path class="cls-55" d="M346.34,244.11c3.65-.15,2.69-.54,2.98,2.46.97,10.01,2.01,21.73-6.98,28.54,5.82-7.14,7.18-17.05,4.13-25.66-.84-2.37-1.04-.19-2.13-1.34.59-1.37,1.77-3.36,2-4Z"></path><path class="cls-16" d="M267.34,292.11l1,3c-5.55,1.64-9.05,2.54-15,3-3.11-.92-1.52-1.92,1-3,.32-.07.68.07,1,0,2.29-2.97,9.24-5.62,12-3Z"></path><path class="cls-98" d="M318.34,273.11c-4.96,3.97-8.69,6.47-15,8,.25-3.61,5.21-4.28,8-6,1.98-3.56,3.98-4.9,6-4l1,2Z"></path><path class="cls-102" d="M307.34,271.11c-.64,1.31-.46,3.56-1.54,4.96-1.5,1.95-5.19,1.38-5.46,5.04-.83.13-2.08,1.94-4,0,3.2-2.43,7.06-7.83,11-10Z"></path><path class="cls-165" d="M254.34,295.11c-.72.64-.75,2.71-1,3l-6,1c-3.28.15-6.71.08-10,0,.79-2.73,2.75-1.62,4.39-1.86,3.95-.57,8.46-1.19,12.61-2.14Z"></path><path class="cls-146" d="M327.34,186.11c.68,3.9-.58,7.42-1,11-.04.33.04.67,0,1-.57-.41-1.53-.59-2-1v-12s3,1,3,1Z"></path><path class="cls-67" d="M247.34,303.11c-.35.03-1.62.94-3.38,1.07-4.49.35-11.35.44-15.62-1.07,6.09-.54,12.83.39,19,0Z"></path><path class="cls-132" d="M253.34,298.11c-1.37,1.59-4.17.91-6,1,1.1-1.77,4.11-.85,6-1Z"></path><path class="cls-72" d="M218.34,132.11c.87,4.51-1.58,7.75-2.87,11.69-.57,1.73-1.93,2.22.87,3.31-21.34,11.13-29.9,7.56-52,10-.46-5.32-5.57-6.08,0-11,16.09,1.33,40.67-4.68,54-14Z"></path><path class="cls-84" d="M184.34,130.11c1.67-.01,3.33.01,5,0,.97,4.13-2.51,6.07-5.98,6.61-4.84.74-21.62-.86-26.26-2.86-2.01-.87-12.14-7.37-11.75-9.23.92-1.39,1.94-1.5,3.49-1.6,2.88-.19,15.53,4.4,19.51,5.58,8.5,2.51,7.32,1.56,16,1.5Z"></path><path class="cls-64" d="M236.34,246.11c5.62-1.83,11.06-4.03,16.31-6.61,7.12-3.37,11.36-2.49,12.69,2.61,1.17,1.43.55,3.42,3.5,4,4.11.82,5.42-.38,8.5-2-2.44,9.75-14.51,15.67-23.03,19.47-20.65,9.21-39.96,12.17-62.43,12.57-9.93.18-14.65-2.13-23.01-3.07-7.13-.8-17.52,1.44-25.53,1.03-.33-.02-.67.03-1,0,1.41-.72,5.63-1.85,7-2l1.56-2.14c8.71,1.57,37-6.39,11.58-6.56-2.24-.79-3.2-1.94-2.15-4.3,9.02.92,13.15.81,22,0,5.14-.47,8.5-1.36,13-2,6.06-.86,14.68-.53,20.25-2.25,3.12-.96,6.58-4.19,9.75-5.75l10-3c.32-.07.68.07,1,0Z"></path><path class="cls-10" d="M99.34,235.11c17.78,13.77,38.39,21.69,61,24,2.89,4.26,5.89,2.15,9.16,2.55,12,1.44,2.89,7.68-3.89,9.22-4.96,1.12-11.29.7-16.26,1.24l-24.26-4.24c-2.44-.65-5.3-4.87-6.74-5.76,3.38,0,12.32,1.25,9.53-4.02-.78-1.47-23.76-14.31-28.01-18-3.2-2.78-6.13-5.49-6.52-9.98,2.18,2.79,3.94,3.4,6,5Z"></path><path class="cls-95" d="M112.34,287.11c13.71,5.7,25.99,11.29,41,14v1c-19.05-3.5-31.55-6.82-48-17,2.33.15,4.87,1.12,7,2Z"></path><path class="cls-108" d="M213.34,46.11c1.98,2.56.52,8.33-.53,11.68-6.1,19.56-31.73,39.55-52.47,32.32-2.82-.36-6.93-2.07-9-4-5.69-5.3-2.11-10.95,2-16,6.9,3.83,21.62,2.26,29,0,11.03-6.4,18.39-12.65,22-25,1.49-.69.99-2.68,1-4,3.5-10.45,8.43-1.99,8,5Z"></path><path class="cls-100" d="M204.34,45.11c-.46,11.65-11.49,21.79-22,25,1.34-4.54,8.47-6.28,11.52-8.98,5.12-4.54,9.5-15.16,9.48-22.02.39,2.19,1.12,2.85,1,6Z"></path><path class="cls-121" d="M73.34,186.11c3.47,2.61,1.72,8.33-.14,11.4-.66,1.09-2.24,1.26-2.84,2.38-2.84,5.35-.23,17.31-9.02,21.22-10.93,4.56-25.52,17.55-29.3,29.2-1.62,4.99-1.93,10.67-2.7,15.8-4.93-.87-10.03-9.91-9-15-3.6-2.43-4.75-6.64-3.45-12.62.02-.24.4,4.6-1.55,3.62.68-30.8,33.4-45.84,58-56Z"></path><path class="cls-140" d="M399.34,251.11c2.18,6.42-5.24,15.55-9.57,20.73-2.93,3.51-13.63,14.39-17.27,15.54-1.06.33-2.15.11-3.16-.27l-1.17,3.12c-7.95,6.15-34.68,17.55-44.68,19.72-1.78.39-5.43.77-7.15.15-.73.75-1.48,1.47-2.31,2.06s-1.64,1.17-2.53,1.4c-51.55,13.54-105.68,14.1-158.16,7.53l-2.92,1c-28.33-2.08-56.67-10.94-82.03-21.74l-1.05-2.27c-2.26.18-3.26-.49-3-2-1.65,2.41-2.87,1.93-3-1-3.38-.33-16.05-6.76-17.46-9-.35-.56-.48-1.26-.54-2-10.39-7.59-19.68-17.32-25-29-.92-3.33-.26-4.66,2-4,2.06,5.94,5.05,10.18,9,15,2.44,2.98,4.22,4.5,7,7,4.18,3.76,6.82,5.07,11,8,37.51,26.24,96.43,38.58,142,38,1.04,1.66,3.79,1,5.49,1.02,51.47.64,105.42-4.16,152.51-26.02,5.48-3.96,11.13-7.7,16.93-11.22l2.07.22c4.51-3.38,9.08-7.63,13.24-11.99h2.76c1.14-5.6,3.48-8.6,7-9.01,2.54-3.34,3.86-5.96,6-9,1.39-2.82,3.8-7.46,4-2Z"></path><path class="cls-87" d="M42.34,286.11l.99-.65c5.28,3.9,11.5,8.31,18.01,9.65,1.09.56,2.14.62,3,1,.85.96,1.85,1.62,3,2,5.1.76,14.82,6.13,20.48,8.02,20.9,6.96,43.58,12.54,65.52,14.98,26.29,3.5,52.92,4.67,79.91,3.53,2.59.64,2.62,2.64.09,3.47-58.79,3.49-148.19-3.66-196-41,.18-2.16,3.64-1.62,5-1Z"></path><path class="cls-176" d="M61.34,295.11c-1.82,2.43-.25,2.11-2.5,1.01-5.08-2.49-9.84-5.58-14.86-8.2-.92-.48-1.47-1.74-1.65-1.82l1-2c5.53,4.03,11.93,7.85,18,11Z"></path><path class="cls-97" d="M20.34,251.11l-2,4c-2.45-5.38-3.83-5.79-3-13,.03-.22,1.09-4.38,1.99-3.99.48,4.67,1.48,8.58,3.01,12.99Z"></path><path class="cls-137" d="M99.34,199.11c-.6-4.83,4.36-1.33,5.75,1.51l5.06,2.6c6.21,8.06,19.47,12,29.19,9.89,1.89.21,4.04-.1,6,0,.77.12,1.11.45,1,1,1.35.72,2.57.65,4,0,3.89.04,7.55-.29,11-1,8.11-.63,16.37-2.95,24-5,9.98-2.68,15.94-4.79,25-10,3.64,1.26.67,3.96-1.97,5.26-.04,7.01-3.78,11.49-11.22,13.45l-1.8,1.29c-2.4,3.03-5.95,5.1-10.66,6.21-.05.89,14.55,6.45,16.84,4.31l1.83,1.48c1.73.64,2.29,1.73.9,2.9l-9.9,1.1c-.33-.03-.67.03-1,0-17.39-1.77-24-7.82-39.02-12.48-1.5-.47-3.26-2.52-3.48-2.52h-19c-1.98,0-12.28-4-14.98-5.03-1.29-.49-3.66-1.85-4.52.03-1.45-1.16-2.05-2.15-3-3-.77-3.92-2.43-5.59-5-5-.16-.18-1.33-.29-2-1l-2-4c-.57-.79-.7-1.54-1-2Z"></path><path class="cls-53" d="M264.34,227.11c2.09-.49,3.89-.47,4,2,.8,2.49-2.04,4.88-4,6-1.38,2.21-4.14,3.3-8.3,3.27-3.44,1.74-6.34,2.32-8.7,1.73-7.69,2.1-14.22,3.06-21.81,5.69-7.57,2.62-9.6,3.55-18.27.87-2.61-.8-3.36-5.47-8.92-3.56,7.49-.29,15.48-1.91,23-3,14.98-2.16,29.5-5.77,43-13Z"></path><path class="cls-58" d="M264.34,235.11c2.5.7,3.17,3.92,2,6l-1,1c-6.54-7.94-18.06,2.29-24.78,3.77-1.54.34-3.13,0-4.22.23,2.17-3.41,8.68-2.17,11-6,5.51-1.51,11.09-4.21,17-5Z"></path><path class="cls-175" d="M181.34,250.11c-2.56,2.44-7.74,3.65-8-1-.21-3.76,2.02-4.76,5.48-4,3.74.82,1.94,2.81,2.52,5Z"></path><path class="cls-58" d="M235.34,246.11c-2.33,2.49-6.72,2.75-10,3,4.29-2.11,5.61-2.11,10-3Z"></path><path class="cls-107" d="M139.34,213.11c-2.32,6.73-22.7-1.1-25.98-3.52-2.26-1.67-3.09-5.27-4.53-6.47-1.56-1.28-3.52-.78-4.52-1.5-1.46-1.06-.06-6.19-4.97-2.51-1.2-1.81-3.56-3.43-3.87-6.53l.87-.47c9.69,9.54,29.5,19.47,43,21Z"></path><path class="cls-107" d="M161.34,213.11c-1.67,6.69-4.3,1.1-4.67,1.01-1.62-.39-4.43-.02-6.33-.01-1.15,1.95-2.58,1.7-4,0-.13-.3-.77-.62-1-1,4.83.25,11.24.37,16,0Z"></path><path class="cls-65" d="M225.34,188.11c4.67,2.35,3.77,6.3,4,10.53.15,2.85,2.49,1.04,4,1.47-.05,3.69-10.92,11.01-14.25,11.87l-2.75-.87c-3.18,5.22-15.22,8.52-21,7-.7-3.6.59-2.38,2.13-3.35,1.82-1.15,7.67-4.12,8.38-5.64.99-2.1.03-4.48.64-6.36s4.25-1.84,3.85-4.65c3.88-2.23,7.15-3.63,10-7.5l-2-1.5c1.82-.22,5.15-.67,7-1Z"></path><path class="cls-74" d="M160.34,187.11c6.33,2.17,25.72,7.95,31.49,8.07,2.34.05,16.14-.82,9.51-5.07,2.97.04,8.55-.73,12-1l2.99,1.99c-12.12,3.83-27.22,7.05-39.99,7.01-2.27,0-4.84.45-6.98-.52s-7.45-7.93-9.02-10.48Z"></path><path class="cls-101" d="M161.34,179.11c2.07-2,10.21-1.43,9.99,1.49l-.99.51c-3.04-.69-5.83-1.04-9-2Z"></path><path class="cls-11" d="M190.34,101.11c5.66-2.66,11.52-4.64,17.58-5.96-.16-5.74,11.2-6.69,11.91-2.74.26,1.45-15.79,20.93-19.49,21.7-17.69,6.55-31.18,6.9-44.82-7.68l-2.18-5.32c17.39,6.39,20.63,3.69,37,0Z"></path><path class="cls-153" d="M232.34,59.11c5.45,14.41-5.44,29.34-14.01,40.37l-2.99.63c-6.58,8.65-4.41,10.08-15,14,4.61-2.75,5.99-7.84,8.98-11.24,1.61-1.82,14.92-10.77,5.55-10.82-6.7-.04-3.91,4.4-4.54,5.05-.19.2-3.02-.14-4.23.24-6.51,2.04-9.64,2.39-15.76,3.77,7.56-4.74,16.01-8.64,21.98-15.52,5.24-6.04,11.27-18.54,12.02-26.48.65-5.42,6.87-4.36,8,0Z"></path><path class="cls-46" d="M227.34,38.11l2.55.82c2.17,3.82,5.85,16.2,2.45,19.18v1c-3.43-.78-4.98-3.27-8,0,.5-5.26-.13-10.08-1-15-1.11-6.33-2.47-10.64-6-16-.2-3.32.51-1.84,2-.5,3.1,2.8,6.24,6.74,8,10.5Z"></path><path class="cls-136" d="M211.34,31.11c2.71,3.8,4.5,11.41,2,15-.01-.31-1.35-5.61-1.52-5.98-1.79-3.95-4.27-.66-6.48.98.06-6.34-2.42-11.71-1.99-18,2.59,2.72,5.36,5.34,7.99,8Z"></path><path class="cls-158" d="M243.34,67.11c2.95-4.05,11.88,7.22,10.78,11.48l-1.78,11.52c-1.89,4.51-4.61,9.36-8,13-5.33,5.71-12.73,10.3-20,13-3.75,1.39-10.71,4.01-14.46,4.02-.92,0-.65-3.18-1.54-4.02,4.36-.47,6.48-3.39,9-5l1.09-3.12c13.63-8.79,23.06-23.14,23.57-39.51l1.34-1.37Z"></path><path class="cls-35" d="M231.34,36.11c.69,1.21,1.88,1.79,2,2,3.21-.53,5.36,3.7,3,6,5.82,7.34,7.86,33.93,2.13,40.6-3.28,3.82-9.68,1.42-7.81-4.2,3.02-7.99,4.93-14.19,1.68-22.4-.36-6.17-2.38-14.4-5-20-.62-3,1.48-1.88,4-2Z"></path><path class="cls-134" d="M233.34,38.11c2.41-9.73,5.79-1.34,8.05,1.44,1.51,1.86,5.51,5.15,6.82,7.2,4.48,7,8.3,18.06,8.13,26.36-2.44,1.7-4.97.1-7.6-4.79l-3.56-10.86c-.5-1.17-1.53-1.39-2.84-1.34h-1.38c-1.19-4.14-2.48-8.24-4.62-12-1.07-2.94-1.63-3.55-3-6Z"></path><path class="cls-99" d="M256.34,73.11c-.12,5.88-1.76,11.64-4,17-1.49-5.12,1.61-11.21-1.03-16.21-.58-1.09-6.02-6.69-7.97-6.79-2.13-1.67-2.7-8.89-1-11,.88-.97,1.02-3.14,3.02-1.52,4.83,3.9,2.89,16.87,10.98,18.52Z"></path><path class="cls-72" d="M227.34,140.11c-1.39,1.02-2.29,1.87-4,3-.11-2.58,1.66-3.27,4-3Z"></path><path class="cls-151" d="M242.34,56.11c.81,3.31.97,7.55,1,11,.16,20.26-9.78,33.61-26,44-6.05-.62.19-6.79-2-11,10.69-14.05,17.45-22.09,17-41,0-.33.02-.67,0-1,1.94,5.58,4.86,4.37,3.76,11.26-.76,4.78-9.16,21.19,2.24,13-.8-3.63,1.6-6.76,1.92-9.85.91-8.76-.89-20.14-3.92-28.42,2.31,2.55,5.2,8.75,6,12Z"></path><path class="cls-44" d="M109.34,211.11c-2.15-1.9-2.78-2.57-5-5-.35-5.52,8.96,1.57,5,5Z"></path><path class="cls-107" d="M102.34,205.11c-1.22-1.3-1.94-2.05-2-4,.63.87,2.77,1.29,2,4Z"></path><path class="cls-62" d="M363.34,313.11c-42.56,27.44-85.87,35.83-136,38l-3-1.99c5.2-.02,9.02-3.29,13.3-5.22,6.21-2.79,9.99-1.92,13.71-9.79l1.08-1.42c24.17-2.2,47.74-8.14,71.12-14.33,1.1-.29,1.97-.21,2.8.76,4.84,4.83,9.63,3.4,13.83-1.61,5.6.68,9.59-.35,12-3.09l3.75-.63c.74-4.55,5.28-3.4,7.42-.67Z"></path><path class="cls-76" d="M389.34,284.11v1c-.07,1.33-.19,2.81-1.09,3.73-6.39,6.49-15.35,12-23.33,16.41s-26.56,13.66-34.77,14.74c-1.34.18-2.63-.29-3.81-.88-19.45,6.09-54.93,13.48-75,15-2.71.21-5.06-.99-7.28-.79-2.52.23-5.05,2.43-8.2,2.81-14.35,1.73-30.64-.47-44.99-1.07-9.57-.4-19.9,1.95-28.54-2.96,8.95-1.39,18.23-1.18,27.83.63,7.26.99,14.29.64,21.09-1.03,36.33,1.39,72.19-6.58,107.39-14.87l3.68.27c16.64-6.85,31.62-14.1,47.41-22.76,1.09-.6,2.4-.46,3.59-.24,3.39-2.4,6.75-5.3,10.06-8.73,2.27-1.98,4.26-2.41,5.94-1.27Z"></path><path class="cls-126" d="M328.34,312.11c.03,1.92-1.97,3.59-6,5-50.6,15.71-107.27,19.04-160,15-.33-.03-.67.03-1,0-4.71-.43-9.45-.98-14.19-1.65l.19-1.35c7.52.58,17.69-.71,23.52-.08,11.14,1.21,23.78,4.9,36.05,3.15,1.87-.27,1.28-1.92,2.12-2.08,7.99-1.51,21.12.95,28.66.97,1.78,0,12.09-1.52,13.91-2.03.27-.08,2.98-3.08,4.75-2.93l2.57-1.61c20.96-2.96,41.77-6.9,62.43-11.85l3,.45c.06-2.97,2.19-3.32,4-1Z"></path><path class="cls-143" d="M44.34,296.11c26.75,17.19,71.33,30.57,103,33,3.6,2.68,8.32,1.67,12.42,2.07.8.08,1.39.92,1.58.93l-24.49-1.01c-6.42-5.29-16.34-2.96-23.8-5.03-24.65-6.86-50.63-14.47-72.72-29.95-.19-1.37,1.14-1.37,4,0Z"></path><path class="cls-111" d="M44.34,296.11h-4c-1.76-1.23-5.48-2.58-6-3-1.73-1.4-5.45-5.8-6-8,4.13,3.22,11.4,8.04,16,11Z"></path><path class="cls-166" d="M395.34,279.11c6.34-1.86-.85,3.19-1.02,3.44-1.58,2.29-2.43,5.1-4.55,7.48-3.26,3.67-9.07,6.39-10.42,12.08-4.98,4.37-10.59,7.51-16,11-3.64,1.72-8.44-4.24-4,1.99-1.75.92-5.58.53-6.76,1.27-.57.36-.59,2.14-1.86,2.59-2.65.94-6.95-.6-9.75.32-1.28.42-2.56,4.37-7.23,4.82-2.18.21-9.78-1.28-7.4-4.98,21.61-6.76,47.03-17.9,63-34,1.19-2.03,2.93-3.88,5-5-1.21-1.54-.64-2.08,1-1Z"></path><path class="cls-89" d="M216.34,211.11c3.21.31,2.41,3.57,0,5-1.3,2.72-.89,3.73,1.22,3.02l1.78,1.98,8.82-2.58c.63-.16,1.06.65,1.18,1.58-4.84,2.72-9.68,6.22-15,8-2.65,2.77-8.43,5.58-11,2-.84.1-1.96,1.02-3.49,1.05-5.12.09-15.91-3.88-19.51-7.55,5.01-1.63,10.01-3.82,15-5.5,7-2.35,13.94-3.67,21-7Z"></path><path class="cls-5" d="M287.34,170.11l1.97,1.24c-4.54,12.08,1.99,11.4,6.75,1.93,2.32-1.57,3.92-.91,3.27,1.83-2.73,7.93-10.07,16.34-15,24l-11.3,8.53c-15.04,3.69-5.93-7.27-.7-12.53,3.68-5.9,3.53-7.52,6-13-2.54-2.46,1.75-8.81,5-8,1.33-1.68,2.69-2.65,4-4Z"></path><path class="cls-94" d="M302.34,181.11c-8.55,22.28-28.88,36.82-50,46-2.18-.15-1.7-.85,0-2,2.2-1.03,9.09-6.12,12-8l.54-2.73c6.82-4.64,13.31-9.73,19.46-15.27,7.71-4.34,13.98-14.75,17-23,.06,1.6-.62,4.15,1,5Z"></path><path class="cls-88" d="M259.34,186.11c1.34,2.24.34,3.24-3,3l-.48,2.84-13.77,8.72c-6.32,8.44-13.78,13.09-23.6,16.7l-2.15-1.27v-5c7.01-3.3,10.93-6.76,17-11,3.49-2.44,6.96-6,10-8,4.62-3.04,10.5-5.12,16-6Z"></path><path class="cls-90" d="M259.34,186.11c1.24-1.07,9.06-9.43,6.53-1.97-5.32,15.67-22.92,28.31-36.53,35.97-3.44-.41-6.61.9-10,1l1.79-2.99c14.87-5.63,25.84-15.93,35.94-27.39l-.74-1.62c.84-.66,1.94-2.09,3-3Z"></path><path class="cls-163" d="M272.34,195.11c-2.32,3.71-5.85,6.69-5.99,10.98,5.02,2.5,7.63-2.34,11.28-4.19,2.19-1.11,4.76-1.7,6.71-2.79-5.8,9.02-11.12,12.28-20,18-1.07-3.25-3.8-.1-6.01-1.44-2.69-1.64-1.18-5.34.33-7.25l13.68-13.31Z"></path><path class="cls-56" d="M283.34,174.11c-1.85,2.33-3.79,5.3-5,8-11.15,1.26-9.41-2.54-6-10,1.6,5.14,7.96,1.04,11-1v3Z"></path><path class="cls-159" d="M252.34,225.11v2c-9.82,4.26-15.54,5.66-26,8l-3-2c2.83.19,5.54-.49,8.21-1.29,5.27-1.57,16.35-4.62,20.79-6.71Z"></path><path class="cls-44" d="M214.34,228.11c-3.17,7.85-12.7,6.59-20,6,2.48-2.9,9.82-.25,9-4,3.91-.47,7.18-.72,11-2Z"></path><path class="cls-27" d="M277.34,231.11c5.28,7.33-4.83,14.49-11,10-1.65-1.2-2.07-4.03-2-6,.14-3.68,1.4-3.83,4-6,.19-.88.53-.85,1,0,6.11-2.37,8.78-1.71,8,2Z"></path><path class="cls-25" d="M314.34,187.11c-.29,4.34-1.63,6.34-4,6-1.63-.52-2.47-1.99-2.51-4.41-3.78,6.09-5.61,7.23-5.49,3.41,3.14-7.83,8.8-17.68,10-26,3.1,5.8,2.22,14.36,2,21Z"></path><path class="cls-86" d="M278.34,230.11c-.11.44-.57.83-1,1-1.99-2.76-5.55-1.52-8-2l1.16-2.93c13.24-5.34,23.43-13.43,30.57-24.26,2.21-3.51,4.3-4.44,6.27-2.81l.27,1.26c-7.13,13.18-17.86,21.36-29.27,29.74Z"></path><path class="cls-148" d="M278.34,230.11c1.69-7.06,9.79-8.6,14.94-12.56,6.03-4.64,10.7-12.2,14.06-18.44-2.01-2.4-.19-6.26,3-6,.9-1.58,2.99-4.14,4-6-.09,2.65.59,6.79-.49,9.01-.7,1.43-3.4,2.11-4.53,3.46-8.24,9.91-14.41,21.37-26.03,28.98-1.59,1.04-3,1.68-4.95,1.54Z"></path><path class="cls-69" d="M310.34,193.11c-1.13,1.99-1.93,4.01-3,6-4.81,2.17-6.69,7.91-9.46,11.04-7.55,8.54-18.74,13.42-28.54,18.96-.32-.06-.67.04-1,0-1.35-.18-3.84-.59-4-2,7.18-3.84,19.1-12.81,24.9-18.6,2.61-2.61,12.07-16.23,13.1-16.4.09-.01.48.85.9.97,1.89-7.21,7.47-9.9,7.1.03Z"></path><path class="cls-77" d="M407.34,246.11c2.21,1.33,1.88,3.33-1,6-4.38,11.35-10.59,22.18-21,29,.99,3.16-5.31,8.16-8,7-1.5,2.08-3.77,5.16-6,3-2.71,1.19-4.17-2.21-2-4,12.76-8.45,25.43-21.13,30-36-2.08-1.14-1.34-3.81,1-4,.81-3.47.81-6.8,0-10v-1c-.28-2.18-1.3-4-2-6,3.59-.14,5.76,1.34,5-3,.04.24.84,2.1,1.26,4.24.92,4.6,3.81,9.47,2.74,14.76Z"></path><path class="cls-147" d="M299.34,175.11c-2.79-1.98-1.49-.54-2.57.89-2.22,2.95-3.99,7.57-8.77,5.97-5.13-1.72-.25-8.53-.67-11.87,3.56-3.68,7.47-6.8,11.03-10.47l2.96-7.52c2.26,8.05.64,15.36-1.99,22.99Z"></path><path class="cls-94" d="M303.34,167.11c0-1.67,0-3.33,0-5,2.6,1.41.2,3.99,0,5Z"></path><path class="cls-160" d="M211.34,31.11c.62.63,1.73.89,2.46,2,2.95,4.53,1.7,19.56.08,25.03-2.76,9.3-17.07,27.53-25.81,31.19-6.6,2.77-16.06,4.82-23.16,3.72-1.95-.3-3.7-1.02-4.56-2.94,24.2,3.06,53.99-18.74,53-44,.51-5.14-.97-10.03-2-15Z"></path><path class="cls-48" d="M398.34,272.11l-1.77,1.59c-1.05,4.23-7.38,9.92-11.23,7.41l16.64-20.34c1.3-4.54.91-5.52,4.36-8.66-2.26,8.66-3.96,12.24-8,20Z"></path><path class="cls-145" d="M398.34,272.11c-1.05,2.01-2.16,5.66-3,7-.21.34-.74.62-1,1-1.74,1.31-3.41,2.65-5,4-2.64,1.93-6.47,3.57-9.5,6-2.51,2.02-1.98,5.17-6.5,4,.1-2.18,1.44-4.18,4-6,2.91-1.93,5.12-5.01,8-7,1.46-1.01,6.77-2.56,8.31-3.94s.91-5.26,4.69-5.06Z"></path><path class="cls-40" d="M410.34,240.11c0,2.4.52,7.72.06,9.42-.07.24-2.6,1.25-4.06,2.58.48-1.85.58-4.1,1-6,.59-2.7.73-6.99,3-6Z"></path><path class="cls-139" d="M316.34,310.11l1.66.11c7.35-1.58,9.46-.62,6.34,2.89-22.67,7.28-44.39,10.6-68,13-7.7.78-15.26,1.54-23,2,.56-3.02-1.53-1.94-3.45-2-24.05-.8-48.16-.75-72.07-2.98-1.77-.16-3.44-.33-4.48-2.02,50.43,5.6,114.3,3.54,163-11Z"></path><path class="cls-32" d="M13.34,268.11c-2.14-2.76-2.7-.73-4-6,2.37,1.11,3.71,3.47,4,6Z"></path><path class="cls-52" d="M259.34,103.11c6.82,1.28,3.91,15.63,1.98,20.48-1.28,3.2-14.61,24.38-16.45,25.55-11.36,7.25-24.14,17.08-38.11,18.89-3.44.45-10.29-.06-7.3-4.26,1.29-1.81,3.84-2.76,5.44-4.6,1.17-1.35,1.59-4.04,2.4-4.6,1.83-1.25,5.6.27,8.05-.94.7-.34,2.69-3.29,3.99-4.52,3.34.4,2.86,8.42-.59,9.14-6.69-.32-8.27,3.77.07,1.13,4.57-1.44,29.6-13.04,20.09-17.87l.43-2.4c1.26-.18,2.7.13,3.99,0-.65-4.53-2.97-4.7-1.22-9.73,1.42-4.07,4.32-4.13,6.1-6.89,1.31-2.05,1.52-6.08,2.37-7.13.65-.79,3.34-1.14,5.21-3.29,1.69-1.96,3.82-6.33,3.54-8.95Z"></path><path class="cls-120" d="M239.34,139.11c2.42,2.72,5.67,3.48,3.5,8-9.01,7.13-19.68,15.87-31.5,14.99-2.01-7.05,7.38-5.39,8-6,.36-.35-.24-5.63,0-7,5.21-4.94,5.64-2.06,9.02-3.62,4.42-2.04,2.33-5.13,10.98-6.38Z"></path><path class="cls-150" d="M236.34,274.11c-8.85,2.81-12.63,4.03-22,5,1.9-3.2,4.89-.8,6.96-1.5,1.69-.57,3.01-2.97,5.59-3.45,2.88-.54,6.45.25,9.46-.05Z"></path><path class="cls-83" d="M389.34,262.11c-2.49,3.27-4,5.81-7,9l-1.75-2.26c.51-9.11-1.79-17.86-6.9-26.24l.65-1.49c-1.11-1.91-1.62-5.69-3.32-7.69-2.2-2.61-6.87-3.58-9.2-5.3-4.15-3.07-7.31-8.81-12.49-11.01.52-1.59.76-.91,1.92-.45,7.48,2.99,22.5,14.13,27.59,20.44,5.78,7.17,8.2,16.25,10.49,25.01Z"></path><path class="cls-125" d="M374.34,241.11c6.21,10.66,9.79,16.48,8,30-4.88,5.2-9.1,9.42-16,12-5.65.3-.6-3.23,2.3-4.59l5.7-6.41c4.29-10.91,1.38-17.77-1.52-27.99-.55-1.95-1.53-3.44,1.52-3.01Z"></path><path class="cls-142" d="M351.34,241.11c4.44,3.58,6.93,13.77,5.54,19.03-3.91,14.69-23.22,28.07-36.54,32.97,9.35-5.85,22.25-12.61,28.03-22.47,6.01-10.26,5.14-18.3,2.97-29.53Z"></path><path class="cls-106" d="M374.34,272.11c-.72,1.82-3.52,6.46-4.92,7.59-1.67,1.34-3.92,1.29-4.09,1.43-.38.33,1.04,1.44,1.01,1.99-.2,2.96-15.99,9.6-19,11l3.76-5.01,9.15-5.58,14.09-11.41Z"></path><path class="cls-110" d="M293.34,302.11c-2.95,2.82-8.1,3.03-12,3,3.79-.77,8.23-1.96,12-3Z"></path><path class="cls-171" d="M400.34,237.11c.81,3.19.81,6.53,0,10-.35,1.81-.47,2.29-1,4l-1.96-.98c.21,1.79-1.54,2.27-2.04,2.98l5-17c.04.33-.03.67,0,1Z"></path><path class="cls-3" d="M302.34,254.11l.9,2.05c-4.81,4.53-5.89,8.78-3.23,12.77l-.66,2.18c-.66.19-7.49,7.57-10.09,9.41-3.19,2.27-6.58,3.87-9.91,5.59-.85.05-1.68-.07-2.4-.53-5.22-3.3,2.85-15.3,7.4-17.47,5.14-3.66,12.76-9.59,17-14h1Z"></path><path class="cls-165" d="M284.34,268.11c-4.8,7.04-9.2,8.76-5,18-3.19,1.65-9.02,4.95-12,6-2.38.84-9.04,2.31-12,3,.1-2.61,2.81-3.71,3.56-5.94s-.07-4.64,1.36-6.64,12.76-6.89,16.01-8.99c2.44-1.58,6.15-4.06,8.08-5.43Z"></path><path class="cls-38" d="M319.34,238.11c-3.78,6.5-8.7,12-14.76,16.5l-2.24-.5h-1c7.22-7.52,13.2-17.09,20-25-.56,2.75-1.18,6.42-2,9Z"></path><path class="cls-36" d="M326.34,223.11c-1.31-2.37-3.32-.79-4,1,.43-3.01,1.61-6.48,0-9,.99-2.44,2.35-7.31,3-10,1.43,4.94,2.4,11.31,1.92,16.41-.08.8-.89,1.38-.92,1.59Z"></path><path class="cls-157" d="M323.34,264.11c-2.3,3.54-2.56,4.22-6,7-1.69,1.37-4.1,2.83-6,4,2.02-6.32,8.42-12.99,10.73-18.77,2.07-5.18,1.97-11.85,6.27-16.23,0,12.55,2.72,12.11-5,24Z"></path><path class="cls-112" d="M319.34,238.11c-4.14,12.99-13.17,22.38-18.01,34.01-.16.27-1.83-1.05-1.99-1.01-6.24-5.88-1.37-11.8,3-17,2.85-3.39,8.26-6.7,10.45-9.02,1.88-1.99,2.3-6.86,6.55-6.98Z"></path><path class="cls-24" d="M369.34,287.11l2,4c-.36.84-.75,1.65-1.27,2.37-3.15,4.42-33.45,18.93-39.06,19.11-.89.03-1.78-.19-2.67-.48-1.06.36-2.57.54-4,1-1-6.94-5.67,2.57-8-3,16.19-4.83,38.97-13.72,53-23Z"></path><path class="cls-176" d="M67.34,298.11c-.49-.07-5.41,2.74-3-2,1.14.5,2.2.99,3,2Z"></path><path class="cls-44" d="M150.34,214.11c-.85,4.03-2.37,3.75-4,0,1.33,0,2.67,0,4,0Z"></path><path class="cls-60" d="M377.34,288.11c-.74,2.83-1.72,4.27-4,6-13.79,10.42-34.5,17.88-51,23l6-5c15.65-5.31,29.21-12.24,43-21,1.45-.92,4.6-2.07,6-3Z"></path><path class="cls-79" d="M394.34,280.11c-1.74,2.54-3.19,3.18-5,5v-1c1.24-.91,2.17-4.29,5-4Z"></path><path class="cls-1" d="M256.34,189.11c1.89.06,3.86-.93,2.6,2.1-.93,2.21-13.77,14.77-16.37,16.86-7.15,5.75-14.88,9.37-23.23,13.04-7.29.22-12.19-1.21-3-5,3.36-1.39,13.72-5.96,16.24-7.98s5.16-6.57,8.26-9.02c4.43-3.5,10.76-6.29,15.5-10Z"></path><path class="cls-177" d="M400.34,247.11c-.21-3.27.3-6.76,0-10,2.55,2.75.57,7.11,0,10Z"></path></g></svg> 