<?xml version="1.0" encoding="UTF-8"?> <svg xmlns="http://www.w3.org/2000/svg" id="Laag_2" viewBox="0 0 379.32 327.5"><defs><style>.cls-1{fill:#9e9f9f;}.cls-2{fill:#040507;}.cls-3{fill:#bdb8b7;}.cls-4{fill:#b3a495;}.cls-5{fill:#313233;}.cls-6{fill:#f6e9d7;}.cls-7{fill:#454646;}.cls-8{fill:#201d19;}.cls-9{fill:#a9a6a2;}.cls-10{fill:#bbada0;}.cls-11{fill:#f2e4ce;}.cls-12{fill:#2c292a;}.cls-13{fill:#e2c4a0;}.cls-14{fill:#fbfafa;}.cls-15{fill:#b3bcbd;}.cls-16{fill:#2c2928;}.cls-17{fill:#bbb4b0;}.cls-18{fill:#595e5f;}.cls-19{fill:#2a2b27;}.cls-20{fill:#9f704f;}.cls-21{fill:#fbf6e3;}.cls-22{fill:#d8ccbe;}.cls-23{fill:#4e5152;}.cls-24{fill:#bcae9e;}.cls-25{fill:#79797b;}.cls-26{fill:#7e807f;}.cls-27{fill:#515859;}.cls-28{fill:#2f3031;}.cls-29{fill:#e3d2bc;}.cls-30{fill:#2e0a03;}.cls-31{fill:#504e4d;}.cls-32{fill:#9f9fa2;}.cls-33{fill:#9c9ea1;}.cls-34{fill:#2d2e30;}.cls-35{fill:#686363;}.cls-36{fill:#2a2323;}.cls-37{fill:#2b2f33;}.cls-38{fill:#747676;}.cls-39{fill:#bab7b4;}.cls-40{fill:#c2c0bf;}.cls-41{fill:#2b2c2e;}.cls-42{fill:#181814;}.cls-43{fill:#aba7a3;}.cls-44{fill:#f5ead2;}.cls-45{fill:#b78d6e;}.cls-46{fill:#a8a7a9;}.cls-47{fill:#b9b9b4;}.cls-48{fill:#d0cec7;}.cls-49{fill:#c0bebd;}.cls-50{fill:#2a2725;}.cls-51{fill:#d3d1d2;}.cls-52{fill:#a98367;}.cls-53{fill:#1f1d15;}.cls-54{fill:#d0d0d0;}.cls-55{fill:#5d4933;}.cls-56{fill:#585553;}.cls-57{fill:#292a2b;}.cls-58{fill:#6e7377;}.cls-59{fill:#b5b5b7;}.cls-60{fill:#57595a;}.cls-61{fill:#dfdedf;}.cls-62{fill:#292a2c;}.cls-63{fill:#150f0a;}.cls-64{fill:#d2bda3;}.cls-65{fill:#17120b;}.cls-66{fill:#292c2c;}.cls-67{fill:#2f3030;}.cls-68{fill:#1e1b1a;}.cls-69{fill:#232727;}.cls-70{fill:#f9edd8;}.cls-71{fill:#c49976;}.cls-72{fill:#140d06;}.cls-73{fill:#383433;}.cls-74{fill:#5d6c74;}.cls-75{fill:#bbbbbc;}.cls-76{fill:#bfb8b2;}.cls-77{fill:#3a3a3b;}.cls-78{fill:#7b807f;}.cls-79{fill:#a77855;}.cls-80{fill:#f3daad;}.cls-81{fill:#c5c0bd;}.cls-82{fill:#fbfaf2;}.cls-83{fill:#1a1711;}.cls-84{fill:#bab9bc;}.cls-85{fill:#0e0303;}.cls-86{fill:#d0c8bd;}.cls-87{fill:#bdb8b4;}.cls-88{fill:#6b7177;}.cls-89{fill:#201d17;}.cls-90{fill:#c4c2be;}.cls-91{fill:#2c2b2c;}.cls-92{fill:#292927;}.cls-93{fill:#4f5657;}.cls-94{fill:#f9e7c6;}.cls-95{fill:#24292a;}.cls-96{fill:#2e3030;}.cls-97{fill:#1f160f;}.cls-98{fill:#3a3a3a;}.cls-99{fill:#373634;}.cls-100{fill:#616260;}.cls-101{fill:#292b2c;}.cls-102{fill:#b7a38d;}.cls-103{fill:#3d3d3d;}.cls-104{fill:#341a0f;}.cls-105{fill:#d9c9bf;}.cls-106{fill:#3e3a39;}.cls-107{fill:#c9b7a8;}.cls-108{fill:#b2aeae;}.cls-109{fill:#370e03;}.cls-110{fill:#2e2e2d;}.cls-111{fill:#180704;}.cls-112{fill:#565553;}.cls-113{fill:#936545;}.cls-114{fill:#261c17;}.cls-115{fill:#93918f;}.cls-116{fill:#a98465;}.cls-117{fill:#15110e;}.cls-118{fill:#403a36;}.cls-119{fill:#c9a37e;}.cls-120{fill:#d4d0d0;}.cls-121{fill:#a37453;}.cls-122{fill:#222120;}.cls-123{fill:#342b2a;}.cls-124{fill:#323030;}.cls-125{fill:#0e0f09;}.cls-126{fill:#2b2b2d;}.cls-127{fill:#434748;}.cls-128{fill:#8d7b77;}.cls-129{fill:#ccc2b5;}.cls-130{fill:#5a5a5e;}.cls-131{fill:#a89583;}.cls-132{fill:#fdfcf8;}.cls-133{fill:#fcfbf2;}.cls-134{fill:#acaaa9;}.cls-135{fill:#babbc2;}.cls-136{fill:#727672;}.cls-137{fill:#1b0403;}.cls-138{fill:#262b2d;}.cls-139{fill:#030305;}.cls-140{fill:#686664;}.cls-141{fill:#a9a9ab;}.cls-142{fill:#c4b6ab;}.cls-143{fill:#a57553;}.cls-144{fill:#a67865;}.cls-145{fill:#2f3131;}.cls-146{fill:#b7ac9f;}.cls-147{fill:#140202;}.cls-148{fill:#be9b84;}.cls-149{fill:#3a3736;}.cls-150{fill:#1a1611;}.cls-151{fill:#322f2b;}.cls-152{fill:#b7b6b7;}.cls-153{fill:#a58f7f;}.cls-154{fill:#8e5c3d;}.cls-155{fill:#49464b;}.cls-156{fill:#bec0c3;}.cls-157{fill:#343228;}.cls-158{fill:#f5ecdc;}.cls-159{fill:#c3c6c8;}.cls-160{fill:#353938;}.cls-161{fill:#2f2f30;}.cls-162{fill:#f5deb5;}.cls-163{fill:#626364;}.cls-164{fill:#31302f;}.cls-165{fill:#2a2b2e;}.cls-166{fill:#4b4847;}.cls-167{fill:#c5b5a7;}.cls-168{fill:#2b0502;}.cls-169{fill:#292e2d;}.cls-170{fill:#3a3938;}.cls-171{fill:#bbbbbe;}.cls-172{fill:#ad9c90;}.cls-173{fill:#6f7477;}.cls-174{fill:#353334;}.cls-175{fill:#555b5b;}.cls-176{fill:#2d2b2a;}.cls-177{fill:#17100b;}.cls-178{fill:#78797b;}.cls-179{fill:#fcfaf4;}.cls-180{fill:#2f2721;}.cls-181{fill:#a6a9aa;}.cls-182{fill:#fcfbed;}.cls-183{fill:#231d15;}.cls-184{fill:#2d2a29;}.cls-185{fill:#353536;}.cls-186{fill:#6f7073;}.cls-187{fill:#5f5e5c;}.cls-188{fill:#464344;}.cls-189{fill:#030404;}.cls-190{fill:#332c20;}.cls-191{fill:#faf1da;}.cls-192{fill:#baac9f;}.cls-193{fill:#1e1813;}.cls-194{fill:#2e2d2d;}.cls-195{fill:#757979;}.cls-196{fill:#ecdbc5;}.cls-197{fill:#5f5f59;}.cls-198{fill:#bab9b9;}.cls-199{fill:#bab6b5;}.cls-200{fill:#251e14;}.cls-201{fill:#565654;}.cls-202{fill:#383838;}.cls-203{fill:#c2a18a;}.cls-204{fill:#fcf9f0;}.cls-205{fill:#b6b5b3;}.cls-206{fill:#373a3a;}.cls-207{fill:#312e24;}.cls-208{fill:#2e2a2a;}.cls-209{fill:#14160f;}.cls-210{fill:#313334;}.cls-211{fill:#c9baab;}.cls-212{fill:#636260;}.cls-213{fill:#b9b5b4;}.cls-214{fill:#242221;}.cls-215{fill:#302b20;}.cls-216{fill:#fbf7e8;}.cls-217{fill:#2d2d2e;}.cls-218{fill:#313536;}.cls-219{fill:#363331;}.cls-220{fill:#c9c5c2;}.cls-221{fill:#cdc9c7;}.cls-222{fill:#2f2c2a;}.cls-223{fill:#b3b2b4;}.cls-224{fill:#686263;}.cls-225{fill:#2f3130;}.cls-226{fill:#f5dcb5;}.cls-227{fill:#251f17;}.cls-228{fill:#cacdca;}.cls-229{fill:#363334;}.cls-230{fill:#757376;}.cls-231{fill:#868e96;}.cls-232{fill:#585247;}.cls-233{fill:#373430;}.cls-234{fill:#716c6d;}.cls-235{fill:#b8b7b7;}.cls-236{fill:#bdafa7;}.cls-237{fill:#5c5f5f;}.cls-238{fill:#3e403f;}.cls-239{fill:#9d9997;}.cls-240{fill:#7b797a;}.cls-241{fill:#3f4549;}.cls-242{fill:#17140b;}.cls-243{fill:#c8c9c7;}.cls-244{fill:#7c7d81;}.cls-245{fill:#1c1612;}.cls-246{fill:#140d0a;}.cls-247{fill:#1c1510;}.cls-248{fill:#b4aeaf;}.cls-249{fill:#5f5656;}.cls-250{fill:#080202;}.cls-251{fill:#150f0c;}.cls-252{fill:#251913;}.cls-253{fill:#ddcdbe;}.cls-254{fill:#b1aeb2;}.cls-255{fill:#dfdeda;}.cls-256{fill:#0d0300;}.cls-257{fill:#f8efd9;}.cls-258{fill:#eee2cd;}.cls-259{fill:#1d1814;}.cls-260{fill:#160e0b;}.cls-261{fill:#adafb3;}.cls-262{fill:#808d92;}.cls-263{fill:#fcf9f3;}.cls-264{fill:#2e2e30;}.cls-265{fill:#302f2f;}.cls-266{fill:#b6b4b8;}.cls-267{fill:#191712;}.cls-268{fill:#f2d9b1;}.cls-269{fill:#4d4e4f;}.cls-270{fill:#dbc9b2;}.cls-271{fill:#5b585a;}.cls-272{fill:#2c2f31;}.cls-273{fill:#717577;}.cls-274{fill:#322a28;}.cls-275{fill:#3b3a38;}.cls-276{fill:#b6a696;}.cls-277{fill:#858688;}.cls-278{fill:#bcbabc;}.cls-279{fill:#868483;}.cls-280{fill:#120d0a;}.cls-281{fill:#ebdfcd;}.cls-282{fill:#322f31;}.cls-283{fill:#fdfdfd;}</style></defs><g id="Laag_1-2"><path class="cls-250" d="M283.29,120.31c5.57-13.21,9.96-16.34,13.16-9.38l3.84,1.38c14.29,13.49,12.97,14.96,18,33,1.1,3.77-3.31,5.43-5,2-.98.28-2.1-.94-2-2-.87-.12-1.22.2-1,1,1.1-.68,2.34.94,3,2,4.26.46,2.44,6.73-1,4-1.68.47-4.09-1.29-4-3-2.16-.07-2.83.26-2,1,2.06.11,4.06,1.11,6,3,6.74,1.63,6.94,9.59,3.87,15.08-7.04,9.17-7.65,16.92-1.81,23.25,2.04,3.59-.81,6.5-3.05,2.68-.55-1.85-.55-.52,0,4,1.48,1.52.92,2.1-1,1-.71.96-1.71,1.62-3,2,1.56,2.46.86,3.37-2,3,1.14,1.85,2.14,3.85,3,6,7.72,3.17,4.66,8.22.89,13.88-1.58,2.37-5.69,8.23-7.89,5.12-1.33-2.34-3.71-14.38-1.65-6.24.34,1.33,1.04,4.51.68,5.57-.1.31-.52.5-1.02.67,7.25.97-3.87,11.32-5,5-1.09-.04-.39-5.73-.38-5.44.09,1.97.16,4.51-1.62,5.44,3.09,2.16,3.23,3.38.24,5.45-3.62,2.24-7.03,4.76-10.24,7.55-.45.81-.94,1.58-1.53,2.27-6.18,7.13-41.09,15.39-51.94,17.3-49.48,8.69-99.35,2.02-142.99-22.64-7.38-4.17-19.83-13.56-21.54-21.93-5.04-.47-6.97-11.63-7.39-16.42-.48-5.52-.61-11.15,4.39-14.58-1.53-2.96,1.15-5.44,4-4,1.24-3.18,1.72-6.22,1.44-9.13-1.7-2.41-3.61-5.83.56-5.87-.37-4.13.63-6.47,3-7-.16-1.3-.64-2.14-2-2,.68,2.55.02,4.21-2,5,0,2.4-.73,3.2-2.96,2.13-2.85-1.36-2.67-8.42.96-8.13-.45-1.18-.4-2.14,1-2,.9-1.75.9-2.42,0-2-.34,1.16-.7,2.36-2,2-2.64,5.28-7.85-4.61-2-4,5.77-6.02,5.77-6.69,0-2-6.08,2.43-4.98-9.36,1-6,.06-.54.17-.99.46-1.19,5.86-3.9,7.46-2.51.79-.37-.33.11-.77-.12-1.25-.45-.27.62-4.2,3.28-4.5,3.3-2.05.13,1.87-13.41,6.5-8.3,2.45-2.22,2.78-3.22,1-3-3.77-1.16-1.3-6.53,2-4,.8-1.89,4.76-3.05,6-1l2.48.47c1.6-3.31,4.52-1.09,2.52,2.53l1.77,1.56c-.55,7.36,2.81,14.32,6.83,20.27l-.61,2.16c3.8,1.63,7.53,3.98,11.19,7.03,2.95,1.18,5.22,2.5,6.81,3.97,1.86-.78,4.05-.32,6.57,1.38.7-1.75,1.25-2.89,3.43-2.38.79-2.82,12.74,1.29,14.29,2.95,1.47,7,5,9.77,10.61,8.32,2.43,2.7,5.68,3.29,9.77,1.76,3.91,2.99,6.5,3.69,11.33,3.97.41-.72,1.18-1.63,1.73-1.4,9.88,4.25,15.69,3.7,26.18,1.35,6.24,2.09,15.47,3.44,20.39-1.3,3.49-1.01,6.58-.33,9.7.36l1.54-1.52c8.96-.99,17.92-2.46,26.89-4.39-.39-8.67,19.87-17.82,23.03-7.97,10.74-3.86,18.63-10.41,23.66-19.64-5.79,4.7-13.36-3.17-8.13-7.48-1.26-2.24-2.26-2.57-3-1,2.69-.03-.54,7.2-1.74,8.94-2.46,3.56-7.24,4.38-11.27,4.29-1.14,9.18-7.94,13.69-20.41,13.52.81,2.91-1.15,6.76-3.39,8.52-3.38,2.64-12.44,4.17-14.18-.26-2.58,5.11-9.54-4.29-8-8-2.74-1.37-2.62-5.71-1-8-13.34-2.4,4.35-11.4,7.57-8.34.16,3.54,2.63,4.65,7.43,3.34l.84-2.4c21.7-2.46,36.78-15.73,45.16-35.6Z"></path><path class="cls-85" d="M55.29,152.31c1.34-5.62,4.15-15.55,6.51-20.99,5.26-12.09,17.43-23.58,29.32-29.17-.65-11.53,2.01-21.85,11.25-29.25,1.53-1.23,6.51-3.45,6.72-3.78.62-.95,1.25-8.82,2.67-11.82s4.15-4.28,4.97-6.03c1.01-2.15.43-4.24,2.08-6.92,3.79-6.16,14.98-10.77,22.01-11.05s16.87,5.57,16.5-6.45c-.32-10.49-10.1-10.06-18.05-9.53C138.57.56,160.29-.87,172.78.31c11.75,1.11,48.43,15.29,60.18,20.82,16.27,7.65,32.17,22.11,39.09,38.91,1.82,4.41,2.6,10.78,4.46,14.54s6.71,8,8.97,13.03,2.59,12.06,4.35,15.65c.62,1.27,8.3,7.01,10.46,9.04-1.48-.24-4.15.71-5.09-.58-.88-1.2,1.24-5.16-2.31-3.32-3,1.56-4.61,7.71-6.17,9.85-.91,1.24-2.32,1.36-3.43,2.05l-1.61-2.31c1.12-9.2,1.73-21.3-3.39-28.69,1.77,27.53-18.87,53.5-42.18,66.59,1.04.21,1.12,1.37,1.18,2.41-5.72,2.2-3.55,4.46-4.49,5.96-.7,1.11-7.09,6.87-6.55,1.51.37-3.69,1.38-3.58,5.04-3.48l-2.98-6.53-9.02,3.56c-.52,2.37,2.14,2.63,3,3.99-1.31,1.83-3.94,2.68-7.9,2.55-1.91,1.47-3.61,1.96-5.1,1.45-.51.93-1.42,1.27-2.73,1.03-1.84,6.37-12.83,3.5-14.27-1.03-2.32.89-3.99.89-5,0-1.8.81-3.51,2.15-5.13,4.01-4.93-3.26-9.38-2.97-13.36.87-2.96-.83-5.79-1.46-8.51-1.88-3.1-.87-6.34-1.54-9.71-2.01l-3.29,5.01c.79,2.34-.27,4.9-3,4,1.61,4.58-7.81,4.81-10.83,3.13s-8.81-10.08-3.17-9.13c8.64,3.07,12.5,2.49,11.59-1.73l-2.42-.14c-2.11.94-3.83.9-5.16-.12-7.46,4.24-26.24,1.33-23.93-11.3-13.87-2-18.21-12.95-14.66-25.55l-3.3,17.89c-15.78,7.39-14.76-18.59-5.23-25.44,5.01-3.38,8.71-6.17,4.12-11.6-1.03-.22-1.39.09-1,1,4.66.29,3.91,5.04.75,7.8-5.43,3.02-8.4,8.11-10.47,13.81l-2.28.39c.68-3.14-1.75-1.62-4.3-2.2l-.7-.8c.04-.53.12-.98.38-1.12.16-.09,3.35.31-.17.04-1.93-.15-5.59.13-6.2,2.08-2.98,1.38-1.5,2.86-2,4,1.16.34.83,1.34-1,3-3.16,1.29-7.29,3.16-5.99,7,1.16-1.06,2.77-1.33,3.99-2,2.18.13,1.75.91,0,2-.68.25-2.73-.31-2.99,0-.58.68-.18,5.9,1.99,5.99,1.41-.25,1.41.42,0,2-.11.58-1.19,1.54-.93,2.42.46,1.56,2.4,1.19,2.93,1.58,1.05-.28,1.39.39,1,2-.71,3.04-2.37,8.24,2,6,1.45.48,1.79,1.82,1,4,.03.18-.68,1.02-.47,2.06.43,2.1,2.42,3.08,2.25,6.16-.23,4.14-1.71,4.53-3.79,6.78-3.02.05-3.7-2.53-2.05-7.74-3.19-2.8-4.17-5.22-2.95-7.26-3.63-.56-3.13-2.78-1-5-3.15.16-4.26-4.01-2-6-3.28-.29-2.3-2.48,0-4-4.19.96-5.64-2.7-2-5Z"></path><path class="cls-147" d="M55.29,152.31c-.96,4.03,1.87,4.5,2,5l-1.46,2.74c-25.66,10.45-51.04,30.25-48.58,60.78l-.96,1.48c1.62-.12,1.95,1.88,1,6l2.34.56c2.29,5.47,5.52,10.53,9.27,15.1l-.61,2.34,1.19,2.88c6.03,3.72,8.3,7.76,6.81,12.12,2.79,2.24,5.58,4.43,8.36,6.57l-.36,1.43c1.29,1.83,2.79,3.53,4.51,4.9,13.15,10.42,23.82,16.19,38.64,23.74,1.15.58,2.19,1.18,2.84,2.36,3.08-2.26,7.06,1.21,9.3,3.51l3.7,1.49,1.35-.5c50.04,17.16,106.04,19.59,158.49,9.14,10-4.1,20.38-6.65,31.16-7.64,19.96-6.91,38.24-16.73,54.83-29.48l2.17-.52c2.38-3.98,7.68-9.66,11.61-13.16.23-.21.76-.07,1.39.16.29-2.35-.6-4.57-2.66-6.66l1.66-2.34.49-3.02c9.13-7.41,16.19-16.79,17.45-28.77l2.07-2.21c-2.68-1.4-2.93-6.67,0-8-4.32-12.51-8.15-22.54-18.02-32.12-9.36-9.09-21.43-15.76-32.84-21.49.02,1.47-.54,2.22-2.14,2.61,2.67,1.38,1.04,6.35-2,6,2.63,1.58.85,4.76-2,4l.89,1.14c-4.59,5.96-4.89,11.21-.91,15.74l-.98,2.12c2.67.64,6.2,5.15,3,7l2.16,1.12c.77,4.32-.36,18.23-5.16,18.88.26,9.32-11.08,18.33-18.39,23.55-2.32,1.65-9.52,6.76-11.6,7.13-1.06.19-2.09-.18-3.01-.67,1.81-4.83,8.08-6.2,11-10.51-3.84-1.14-1.03-2.01-1-2.49.57-1.55,1.23-1.55,2,0,1.66.04,2.8,1.42,5.11-1.47,1.58-1.98-.03-2.56-.11-3.53.56-1.91,1.44-1.91,2,0,1.67-.05,5.32-4.33,6.44-6.06s3.82-6.53,3.62-8.32c-.03-.3-2.42-.86-3.06-4.62-.28-1.21-1.24-2.41-2.9-3.6l-.1-2.4c.69-1.26,1.29-1.94,2-3,1.2-.38,2.2-1.04,3-2,.93-.22.76-.69,1-1v-4c6.23,1.04-2.26-6.48-2.51-7.03-2.29-4.96,7.64-20.01,7.62-25.48-.02-4.31-4.47-6.72-4.1-8.49-.87-.3-.87-.63,0-1,.57-1.36,2.34.61,1-4-.7-.27-.67-.6,0-1,1.89.04,3.92-.28,5-2,1.79,6.41,3.45,4.42,7.68,6.82,38.06,21.6,69.29,45.51,44.49,92.85-8.61,16.44-17.82,30.88-32.84,42.16-71.28,53.53-228.67,55.05-297.8-2.86C26.59,273.2,1.93,238.71.29,221.8c-3.53-36.39,25.28-56.76,54.99-69.49Z"></path><path class="cls-162" d="M61.29,191.31c-4.98,8.64-2.01,22.88,3,31,2.48,15.99,16.2,24.62,30.47,30.77,52.9,22.79,115.98,22.96,171.14,8.49l4.39.74c19.18-4.51,41.42-11,56.44-23.93,5.54-.89,9.53-2.44,13-6.78,1.04-1.3,1.4-5.59,1.02-7.27-3.25-4.81-3.74-8.15-1.47-10.02,3.48-2.36,6.05,5.31,6.54,8.29.71,4.3-.03,6.14-2.54,9.71.03.72.02,1.42-.13,2.1-.9,4.33-15.42,13.61-20.01,16.27-49.82,28.9-140.77,33.72-196.72,22.8-28.28-5.52-67.63-16.59-88.57-36.97-2.26-2.2-7.31-7.44-8.15-10.11-.32-1.02.14-2.13.57-3.1-.2-10.25,8.8-19.81,16.64-25.9,3.07-2.38,11.34-7.82,14.36-6.1Z"></path><path class="cls-283" d="M159.29,217.31c4.1,1.06,8.52,2.11,12.77,2.25,24.63.79,43.52-1.15,67.89-4.14,1.86-.23,3.64.07,5.34.89,2.14-.92,2.58-.07,2.66,2.05.12,3.11-18.49,15.13-22.66,11.95.06,3.02-2.06,3.23-4,1-45.5,7.65-98.08,1.84-136-26-.87.43-1.17.05-1-1-4.26.13-5.91-2.53-7.95-5.9l-5.05-9.1c-.28-1.42-1.35-3.95-.51-4.99,22.85,19.5,58.84,29.95,88.51,32.99Z"></path><path class="cls-116" d="M270.29,262.31c-52.8,16.9-138.91,15.72-187.3-13.2-9.99-5.97-20.75-13.57-18.7-26.8,4.45,7.23,18.64,18.15,26.11,22.39,54.54,30.99,136.48,31.19,191.89,2.61,12.67-6.54,26.66-16.17,33-30,3.33-.65,3.83,3.41,4.1,6.15,1.85,19.3-32.93,37.12-49.1,38.85Z"></path><path class="cls-79" d="M65.29,187.31c-1.13,1.23-2.97,2.22-4,4l-12.33,7.17c-9.73,6.06-13.94,14.85-18.67,24.83-3.93.62-7.27-11.09-4-13-2.28-17.2,17.55-30.91,31.17-38.43l2.83.43c.97,2.19,4.51,5.37,4.86,6.73.67,2.61-2.14,5.59.14,8.27Z"></path><path class="cls-202" d="M285.29,145.31c.24,3.04.19,7.27,4.52,6.95,6.4-.47,4.96-18.56,2.33-23.3-.89-1.61-3.33-2.95-3.7-4.31s.46-3.33,1.35-3.31c1.01.02,5.12,6.74,5.77,8.01,7.16,14.02-.78,31.33-13.58,39.16-3,1.84-6.67,2.79-9.61,4.39-2.03,1.1-2.92,4.22-6.08,3.41,3.27-3.08.53-6.92-3.32-6.74-1.68.08-10.18,4.1-11.63,5.29-3.97,3.26-1.95,5.83-2.24,6.31-1.92,3.21-25.88,4.48-30.8,5.16-2.93-6.92,6.33-8.43,11.53-5.48l1.47-1.52c7.14,1.6,15.73.94,15.99-8-6.24,1.95-11.8-.14-17.99-1.02,3.41-5.25,12.88-.26,16.68-.2,1.45.02,2.44-1.6,3.86-1.75,5.28-.53,9.35,1.07,13.97-3.03,3.19-2.83,4.18-6.05,2.49-10,9.13,1.1,16.29-1.69,13.01-12l2.49,2.99c1.05.09.24-1.77.5-2,.66-3.48,2.32-2.18,3,1Z"></path><path class="cls-7" d="M91.29,113.31c3.72,2.65,5.66,2.18,2.75,8.25-1.38,2.88-3.99,2.52-6.3,4.69-1.72,1.61-5,7.25-5.38,9.62-.88,5.55.53,18.11,8.49,13.5.72-5.66,1.4-13.31,3.32-18.68.51-1.41-.28-1.68,2.1-1.38,3.9,5.37-.42,8.86.03,13.4.74,7.45,9.29,15.1,16.98,12.6-5.86,14.21,11.53,14.45,21,13.99,5.78.2.99,5.31-4,2-1.81.54.13,4.3.95,5.28,2.68,3.19,9.93,3.89,13.05.72l2.1-.91,9.24,7.22c2.77.29,4.33,1.52,4.67,3.69-2.03-.6-4.72,1-6.36.72-1.37-.23-2.75-2.42-5.23-2.72s-4.39,1.01-6,.93c-2.04-.1-2.68-2.41-4.13-2.81-1.74-.48-3.38.86-4.66.64-.31-.05-4.95-3.44-5.1-3.71-.44-.81.57-2.32.3-3.33-1.03-3.76-11.33-6.05-14.81-6.72-1.37,2.73-3.29,1.78-4-1-2.42-.36-4.03-1.93-4.83-4.7-10.09-10.78-15.48-12.55-16.17-5.3.95,3.28-.63,2.78-3,1-4.96-5.63-9.59-16.36-8-24,.12-.56,4.86-8.99,5.56-9.94,2.68-3.65,12-8.76,6.44-12.06-1.33-1.41-.77-1.92,1-1Z"></path><path class="cls-4" d="M278.29,89.31c8.58,14.13,1.41,33.38-7.74,46.01,3.41-5.45,6.94-10.76,10.6-15.92l2.14.92c-2.8,14.03-16.59,28.55-29.74,33.76-5.29,2.1-11.66,2.47-16.26,4.24l-6.99-1.99c24.36-10.9,41.09-32.73,46.76-58.74.67-3.09,0-4.75,1.23-8.27Z"></path><path class="cls-269" d="M223.29,171.31c1.2.42,4.54,7.33,5.24,7.79.9.61,2.02.04,2.76.21,3.57,5.5-4.28,2.04-6.56,1.95-4.01-.15-5.02,1.63-6.44,5.05-.22.03-.97,1.48-2.41,1.58-1.72.12-3.51-1.14-5.88-.42-1.37.42-2.19,2.4-3.32,2.61-4.03.74-12.67-.85-16.9-.85-7.13,0-18.48,1.63-25.04.67-.39-.06-2.72-1.91-4.45-2.6-1.86-.73-3.68-1.29-5.57-1.93l-10.43-8.07c.88-.9.63-2.53,3-4,.24-5.11,11.12-5.88,12-1l.58,2.22c-2.28,1.67-2.88,6.61,1.02,5.89,4.23-1.06,19.51-1.9,14.47,5.25-3.65.71,4.51,1.23,5.14.15-2.46-8.38,5.44-18.91,6.44-5.71.99,3.02,3.87,4.83,6.79,5.76-.52-4.3,2.6-6.68,6.65-6.35,7.58,2.11,16.71,3.09,9.08-6.81l.83-2.39c-1.16-2.58.41-2.93,4.71-1.06,4.69-.9,7.45-.21,8.29,2.06Z"></path><path class="cls-27" d="M212.29,244.31c2.81-.54,4.81-.21,6,1,.15,1.26-.23,2.83,0,4,.59,2.97-4.49,4.52-6,2-.22-1.72-.89-4.15-2.65-4.85-3.32-1.32-3.07-.19-3.35,1.85,1.36,4.44-2.59,6.71-5,3-.39-3.15-1.62-5.11-5-4-.16,4.42-3.92,10.79-7,5-.32-3.1-1.64-5.2-5-4-.45,4.74-4.17,10.72-6,4,0-.26-.84-4.82-1.01-5.01-.67-.75-2.84.99-2.99,1.01-1.91,4.41-4.33,7.86-8,3-.02-1.33.03-2.67,0-4-1.25.15-2.87-.24-4,0-1.63,2.77-4.55,7.41-7,3-.04-2.61.95-4.01-1.51-4.02-3.64-.02-3.2,1.22-3.49,4.02-2.03,3.51-4.95.21-4-3-.36-.69.66-2.82-.51-3.01-2.94-.48-2.92.87-3.49,3.01-.38,2.98-5.08,1.81-5-1-.08-1.29.21-2.84,0-4,1.12-.61,1.78-1.77,3.29-1.76,2.84.02,8.53,2.35,12.22,2.75,20.62,2.18,39.78.01,59.49,1.01Z"></path><path class="cls-43" d="M221.29,231.31c1.28-.43,2.74-.52,4-1,3.4-.32,5.73.35,7,2,1.7,1.67-.3,3-6,4-29.76,7.99-78.98,2.16-108-8-2.6-1.49-.69-3.85,2-3l2.1-.7c31.86,9.73,66.06,13.21,98.9,6.7Z"></path><path class="cls-115" d="M304.29,194.31c-2.3,7.4-7.62,13.1-13.47,18.03-17.23,14.49-42.87,19.89-64.53,23.97,1.64-.44,7.14-2.34,6-4l.88-2.11c10.59-1.97,20.93-5.82,30.91-10.02,12.3-5.17,16-7.95,25.98-16.21,1.4-1.16,3.38-2.74,4.9-3.62.34-.2.82-.15,1.34-.03-.38-3.72,7.81-14.61,8-6Z"></path><path class="cls-9" d="M246.29,212.31c20.37-4.5,42.63-13.41,58.52-26.99,2.68-.23.89.51.76,1.75-.26,2.43-.55,4.9-1.28,7.24-2.04-4.67-3.53,1.82-5,3.53-.99,1.16-2.25,1.68-3,2.47-5.46,4.59-43.07,19.85-47.55,17.03-.75-.47-1.19-1.19-1.45-2.03-2.75.83-3.36-1.45-1-3Z"></path><path class="cls-205" d="M246.29,212.31l1,3c.04,2.29-.17,2.4-2,1-22.6,4.02-46.41,6.81-69.49,4.99-5.18-.41-11.97-1.46-16.51-3.99,26.27,2.7,61.18.71,87-5Z"></path><path class="cls-239" d="M84.29,204.31c.33.34.66.68,1,1,10.13,8.37,21.93,14.05,34.27,18.34l.73,1.66-2,3c-14.07-4.93-29.13-11.4-39-23-.47-2.62,1.2-2.96,5-1Z"></path><path class="cls-275" d="M154.29,196.31c2.39-1.43,4.72-2.43,7-3,1.4,2.24-.47,5.89-.88,8.62-.58,3.86,1.61,11.81-4.87,8.64-3.81-1.87-2.51-10.63-1.25-14.26Z"></path><path class="cls-8" d="M222.29,163.31c1.51,2.4.96,5.36,1,8-2.96-1.05-9.39,1.67-12.51-1.98l-.49.98c-3.09,1.29-4.24-2-1-3,.45-.02,1.59-2.26,3.48-3.02,2.75-1.1,6.56-1.01,9.52-.98Z"></path><path class="cls-241" d="M238.29,240.31c2.49-.12,3.46.38,1.42,1.75.38,5.18-1.09,7.6-4.42,7.25-.77-4.15-3.39-8.2-7-4,1.47,4.23-2.68,8.62-5,4-1.02-5.47-.84-3.04-5-4-2.53-.58-3.07-.85-6-1l26-4Z"></path><path class="cls-264" d="M139.29,190.31c-.3,2.05-2.39,4.71-2.77,6.74-.53,2.84.83,15.07-5.27,8.8-3.38-3.47-1.78-9.62.04-13.54l1.31.74c1.56-2.11,4.28-5.57,6.69-2.74Z"></path><path class="cls-265" d="M137.29,242.31c-2.98,1.63-4.74,2.04-4.93,6.58-.04,1.06,2.5,8.68-.56,7.41-5.67-2.34-5.13-10.21-3.51-14.99,2.12,1.15,2.12.81,0-1,2.14-3.34,8.32-1.81,9,2Z"></path><path class="cls-206" d="M188.29,199.31c.6-2.16,2.6-3.16,6-3,1.28,2.57,2.19,14.99-.6,15.92-6.09,2.02-5.62-9-5.4-12.92Z"></path><path class="cls-238" d="M199.29,197.31c2.43-1.3,4.43-1.3,6,0,1.92,5.59,4.13,18.46-5.05,13.34.92-4.56-.82-9.17-.95-13.34Z"></path><path class="cls-28" d="M274.29,245.3c3.74-4.82,1.31-12-4-14.49,10.47-9.59,14.69,13.51,4,14.49Z"></path><path class="cls-103" d="M168.29,200.31c1.62-2.27,2.95-2.93,4-2,.28,4.29-.2,8.7,0,13-8.9,2.56-7.83-7.74-7-14,2.76-1.04,3.64.38,3,3Z"></path><path class="cls-127" d="M255.29,242.31c-.86-1.79-4.98-4.18-3.01-5.51,4.74-.15,11.82-5.01,15.53-5.49,2.72-.36.97,1.84,1.49,3,1.5,2.69.65,6.95-3,6-.68-2.86-5.87-7.26-6.98-3.43-.41,1.42.79,2.53.98,3.43,1.05,2.81-3.48,4.4-5,2Z"></path><path class="cls-210" d="M112.29,186.31c2.46-.65,4.46-.65,6,0-.87,1.81-3.66,8.23-3.79,9.73-.17,2.11,1.59,4.54.28,6.28-7.37-1.87-6.17-10.86-2.49-16.01Z"></path><path class="cls-62" d="M189.29,252.31c4.93,1.82,5.75-4.59,7-5,.93,3.12-.7,19.38-6.04,15.54-1.05-.76-1.37-6.3-1.61-8.27-.13-1.1.67-2.05.65-2.27Z"></path><path class="cls-92" d="M218.29,249.31c.14.73,1.09,1.41,1.11,3.43.04,5.14-2.55,9.82-8.1,9.57.12-3.74,1.49-7.14.99-10.99l6-2Z"></path><path class="cls-62" d="M243.29,239.31c2.04,1.79,1.69,2.41-1,2-.29.19-1.79-.56-2.07.62-1.1,4.69,5.11,15.85-6.93,16.37-.24-1.9,1.32-2.98,1.79-4.75.39-1.45-.07-3.46.2-4.25.74-2.15,6.14-5.17,3-9,1.63-.56,3.3-.76,5-1Z"></path><path class="cls-41" d="M178.29,252.31c4.07,3.21,3.95-3.27,6-4-.06,3.2,1.66,17.99-5.01,14.55-4.16-2.15-1.01-8.12-.99-10.55Z"></path><path class="cls-110" d="M174.29,248.31c-1.85,2.38-1.23,14.52-3.52,15-5,1.04-4.45-9.47-4.48-12,4.64-.16,6.89,1.65,6.01-4,.22-.38,1.68,1.03,1.99,1Z"></path><path class="cls-272" d="M216.29,196.31c1.44,3.5,3.59,11.02.53,14.02-1.09,1.07-5.05,1.44-5.53.98-.32-.32.21-7.28,0-9,.24-2.25,3.15-4.71,5-6Z"></path><path class="cls-222" d="M141.29,197.31c2.17-.48,4.5.86,7,4-.24,1.62.34,7.66,0,8-9.9.59-8.73-4.78-7-12Z"></path><path class="cls-95" d="M223.29,249.31c3.92.79,3.62-2.4,5-4,3.98,5.71.91,11.77-3.51,16-4.17-.52-.87-3.99-.84-6.66.02-1.34-.38-3.92-.65-5.34Z"></path><path class="cls-225" d="M201.29,251.31c3.26-.49,4.56.23,5-3,2.58,4.89.82,11.89-3.52,14.99-4.04.87-1.14-9.29-1.48-11.99Z"></path><path class="cls-96" d="M162.29,247.31c-1.67,4.83-.82,9.99-1.01,14.99-6.22-1.46-5.91-6.86-5.99-11.99,2.81.57,4.75-2.52,7-3Z"></path><path class="cls-66" d="M105.29,229.31c1.2.43,4.04.3,3.99,1.99-6.22,1.61-6.88,8.71-5,14.01-7.21-2.11-6.51-9.27-4-14.99,1.16.66,2.82.33,5-1Z"></path><path class="cls-124" d="M128.29,189.31c-1.61,4.71-5.31,9.43-3,14.99-7.35-.73-6.32-5.55-5-10.99,3.73-5.49,6.4-6.83,8-4Z"></path><path class="cls-98" d="M177.29,202.31c.1-2.2,4.8-3.35,6-2,.35,2.59,1.63,10.8-1.6,11.92-5.84,2.03-4.4-6.35-4.4-9.92Z"></path><path class="cls-34" d="M285.27,223.3c2.65,6.39,5.33,12.61-.98,18,1.65-5.63.66-11.86-5.01-14.49,1.6-1.64,3.5-3.57,5.98-3.51Z"></path><path class="cls-69" d="M249.29,241.31c.18.41,1.35.98,1.56,1.91,1.2,5.48-.66,11.48-6.55,13.08.58-3.7,1.4-7.17.99-10.99-.11-2.91.72-5.56,4-4Z"></path><path class="cls-160" d="M266.29,186.31c1.35,1.64,2.44,1.39,2.94,4.56.54,3.44.99,11.43-3.94,8.93.5-3.7-1.08-9.35-2.99-12.49-.42-3.23,1.89-2.72,4-1Z"></path><path class="cls-185" d="M257.29,190.31c.28.46,1.67.88,2.24,2.21,3.84,8.89-3.96,13.04-4.25,10.26.24-3.39-.72-7.34-1.99-10.47.4-1.98,2.3-2.44,4-2Z"></path><path class="cls-91" d="M294.29,169.31c4.8,3.6,7.66,11,3.5,15.99-.55-5.83-4.14-11.25-8.5-14.99.51-1.46,2.18-1.79,5-1Z"></path><path class="cls-218" d="M274.29,182.31c3.74,3.88,7.18,15.27,0,15,.77-4.41-1.07-10.68-4-14-.55-2.99,1.9-1.92,4-1Z"></path><path class="cls-5" d="M116.29,234.31c.94.47,2.57-1.12,2.01,2-.97.2-3.66-.33-4,0-.47.46-1.37,11.31,0,12.99-7.23-.3-6.1-7.9-5-12.99,2.39-1.52,4.72-2.18,7-2Z"></path><path class="cls-170" d="M102.29,179.31c-3.45,4.13-6.21,9.45-6.01,15-6.88-2.43-3.82-8.53-.99-13,3.85.22.36.88.47.73,1.61-2.06,4.32-4.8,6.53-2.73Z"></path><path class="cls-37" d="M91.29,226.31c4.4-.76,6.07.24,5,3-1.91,4.66-1.45,5.96-2.01,10.51-.68,5.56-4.8-4.8-4.92-7.08-.13-2.46.91-4.33,1.93-6.43Z"></path><path class="cls-81" d="M84.29,204.31l-5,1c-4.47-5.25-6.66-9.17-8-16,4.17,2.44,5.38,7.35,8.47,11.02,1.3,1.55,3.12,2.55,4.53,3.98Z"></path><path class="cls-164" d="M107.29,186.31c-1.87,3.88-1.96,7.82-2.51,12.01-6.78-2.84-4.59-6.93-2.49-12.01,1.19-.82,4.91-1.91,5,0Z"></path><path class="cls-57" d="M269.29,234.31c.19.41,1.34.97,1.55,1.91.94,4.19.41,13.47-5.55,13.09.58-2.44.4-6.92.99-8.99.3-1.05,3.4-3.71,3-6Z"></path><path class="cls-151" d="M238.29,196.31c1.15,2.87,3.74,9.15.04,11.53-5.05,3.25-4.03-3.57-5.04-7.53,1.32-2.76,2.98-4.1,5-4Z"></path><path class="cls-138" d="M260.29,240.31c.52,2.48,1.38,2.69.59,6.06-.45,1.93-4.14,9.1-6.59,6.93-.6-.53,3.3-6.19,1-10.99l5-2Z"></path><path class="cls-67" d="M292.29,234.31c.42-5.61.69-10.03-6-11.01l4.48-4c4.26,4.95,6.06,8.28,3.51,15.01-.37,0-1.89,1.32-2,0Z"></path><path class="cls-145" d="M227.29,198.31c1.81,5.39,4.27,10.78-4,12-.36-.37.26-6.36,0-8-.42-2.92.94-5.55,4-4Z"></path><path class="cls-208" d="M301.29,229.31c-.67.02-1.33-.01-2,0-.5-6.06-1.17-7.45-5.98-11.5l4.97-4.5c1.5,5.42,3.87,10.13,3.01,16Z"></path><path class="cls-122" d="M249.28,164.3c.14-.82-.22-2.71,0-2.98.43-.53,12.44-4.09,12.99-1.5.85,3.96-10.33,5.21-13,4.48Z"></path><path class="cls-77" d="M83.28,217.29c-.15.23-2.92.6-4.42,3.1l-2.56,7.91c-2.12-5.31-.39-12.03,3.49-15.97,1,1.1,4.42,3.56,3.49,4.96Z"></path><path class="cls-161" d="M288.29,175.31c3.78,3.84,7.15,7.36,3.49,13.01-2.18.71-1.47-3.84-2.27-5.73-.72-1.73-3.84-5.78-5.22-7.28-.1-2.21,1.23-2.21,4,0Z"></path><path class="cls-16" d="M244.29,198.31c-.95-2.81,3.46-4.42,5-2,.73,2.61,1.98,8.84-1.59,9.91-4.78,1.43-3.01-5.85-3.41-7.91Z"></path><path class="cls-112" d="M150.29,192.31c.24,2.69-1.62,6.44-2,9-3.49,2.92-3.61-2.44-7-4,.23-.95.73-1.37,1-2,2.68-.34,2.17,1.59.49.24-.37-.3,5.92-6.02,7.51-3.24Z"></path><path class="cls-101" d="M124.29,239.31c-1.8,5.12-2.61,8.59-1.01,13.99-5.4-.81-5.19-6.88-4.99-10.99.96-2.14,3.76-4.8,6-3Z"></path><path class="cls-282" d="M105.29,169.31c2.44,1.39,1.65,2.55-1,2-7.05-3.61-12.24-4.46-18-11,1.11.54,2.84-1.01,3-1l1.07-.96c4.4,4.01,9.03,6.96,13.89,8.84l1.04,2.13Z"></path><path class="cls-174" d="M299.29,164.31c3.67,2.22,9.45,9.96,5.49,14-.9-5.9-5.09-9.48-9.49-13-.45-1.64.88-1.98,4-1Z"></path><path class="cls-141" d="M128.29,189.31c-5.94-.45-3.32,7.35-8,4,.38-1.56.11-2.61,1.12-4.35,2.69-4.65,9.61-7.64,6.88.35Z"></path><path class="cls-169" d="M150.29,250.31c-.28,2.64,1.34,8.7,1,8.99-3.48,2.99-8.28-9.3-5-11.99.7,1.33,2.38,3.12,4,3Z"></path><path class="cls-126" d="M142.29,247.31c-.39,1.46-.94,4.06-1.01,5.5-.05,1.1,2.42,6.69-.48,5.49-4.25-1.75-3.29-8.53-3.51-11.99l5,1Z"></path><path class="cls-50" d="M87.29,224.31c-1.79,3.06-1.55,7.68-2.49,10.99-2.68-2.13-4-6.89-3.1-10.06.26-.93,1.47-1.58,1.6-1.93.91-2.83,3.98-1.87,4,1Z"></path><path class="cls-194" d="M283.29,180.31c3.13,3.84,5.9,11.26,0,13,.77-2.41-2.44-8.58-2.01-10-1.47-1.76.21-2.81,2-3Z"></path><path class="cls-99" d="M74.29,168.31l1.8.67c-1.29-.81,2.01-2.57,3.2-.67l-6.99,12c-1.94-4.96-.81-7.82,1.99-12Z"></path><path class="cls-220" d="M83.29,175.31c-1.77,2.4-3.93.7-3-2,1.87-2.78,9.86-10.24,11-4.51-3.67,1.99-5.29,3.7-8,6.51Z"></path><path class="cls-96" d="M90.29,181.31c-2.15.96-2.3,8.85-4.49,7.99-4.72-1.86-1.28-7.33.49-9.99,1.94-1.32,4.77-.77,4,2Z"></path><path class="cls-235" d="M68.29,163.31c5.15-8.07,13.31-4.26,12-3.01-2.83-.05-8.46,2.87-10,5.01-2.08,3.53-3.61,1.35-2-2Z"></path><path class="cls-188" d="M288.29,131.31c4.08,2.89,3.32,9.44,2.13,13.69-.48,1.71.74,2.77-2.13,2.31v-16Z"></path><path class="cls-221" d="M79.29,168.31c-1.85,1.11-5.96,3.59-5,0,1.74-2.6,5.09-6.38,8.5-6.04.95.09,2.49.95,2.48,1.54,0,.37-5.28,4.08-5.98,4.5Z"></path><path class="cls-49" d="M61.29,154.31c2.43-5.21,9.75-6.73,15-5.99-2.9,2.62-6.94,2.68-10.69,4.8-1.58.89-2.76,2.27-4.31,3.19.12-.63-.18-1.61,0-2Z"></path><path class="cls-100" d="M238.29,196.31c-2.18,1.65-2.15,6.45-5,4-.54-2.14-1.2-5.03-2-7,.53-2.81,3.04-2.18,5-1,1.44,1.94,1.21,2.04,2,4Z"></path><path class="cls-187" d="M110.29,169.31c1.93.27,2.87.78,4,1l-3.01,6c-2.31-1.81-4.32-3.63-6.99-5l1-2c1.56-2.84,3.11-2.21,5,0Z"></path><path class="cls-90" d="M150.29,192.31l-7.5,5-.5-2c.25-.56-.11-1.83.54-2.93,2.06-3.48,7.03-4.99,7.46-.07Z"></path><path class="cls-198" d="M95.29,181.31c1.96-3.11,6.81-9.55,10-4.5-1.41.36-2.11,1.87-3,2.5-1.67,1.17-4.88,2.19-6.51,3.99l-.49-1.99Z"></path><path class="cls-40" d="M131.29,192.31c1.79-3.86,3.46-5.9,7.95-3.92.13.62.15,1.29.05,1.92-3.83.26-8.32,9.64-8,2Z"></path><path class="cls-181" d="M205.29,197.31c-.15,5.02-1.43-1.32-1.99,0-1.21,2.91-1.83,3.34-4.01,0-.24-7.34,3.7-6.68,6,0Z"></path><path class="cls-58" d="M227.29,198.31l-4,4c-.45-2.81-2.62-5.59-3-8,1.02-1.56,2.68-1.89,5-1,1.14,2.1,1.29,2.88,2,5Z"></path><path class="cls-47" d="M194.29,196.31c.14,1.84.14,3.83-1.5,5l-.5-3.01-4,1.01c.33-5.79,2.75-9.5,6-3Z"></path><path class="cls-213" d="M65.29,158.31c1.53-1.69,2.37-3.73,4.95-4.55.79-.25,7.11-1.65,6.06,1.04-.22.57-9.9,3.46-11.01,5.51-1.08-.21-1.08-.88,0-2Z"></path><path class="cls-87" d="M112.29,186.31c1.81-2.53,3.1-3.87,6.48-4.03,4.33-.21-.37,3.79-.48,4.03-2.09,1.09-6.67,4.07-6,0Z"></path><path class="cls-214" d="M285.29,145.31c-.63-.55-2.51-1.43-3-1-.36-4.64-1.78-8.05,2.99-11,.24,3.96-.3,8.05,0,12Z"></path><path class="cls-195" d="M216.29,196.31c.29,3.03-2,5.61-5,6-.22-1.8-.79-3.4-1-5-.66-2.81,2.79-5.17,5-3,.59.78.67,1.2,1,2Z"></path><path class="cls-217" d="M243.29,173.31l-7.46,3.03c-1.71-.96-7.27.27-6.54-3.03h14Z"></path><path class="cls-243" d="M93.29,176.31c-2.42,3.13-4.09,3.46-5,1,1.16-1.31,1.92-2.87,3.5-3.99,6.03-4.28,9.37-.5,1.5,2.99Z"></path><path class="cls-108" d="M62.29,146.31c4.26-2.33,7.8-6.29,13.01-2.5-4.77.74-8.69,2.89-13.01,4.5v-2Z"></path><path class="cls-12" d="M306.29,161.31c3.14,2.37,3.98,6.19,3.99,9.99-2.74.55-1.71-.71-2.42-2.02-1.1-2.05-2.6-5.6-4.57-6.97-.81-1.72.19-2.05,3-1Z"></path><path class="cls-140" d="M87.29,224.31l-4-1c.84-2.38-.26-6.06,3.34-4.85.77.26,3.65,3.08,3.65,3.35,0,.77-2.72,2.05-2.98,2.5Z"></path><path class="cls-212" d="M118.29,242.31c.1-2.07.23-4.01,1.09-5.92l5.91.93c.45,1.23-.9,1.73-1,1.99-2.02,1.3-3.29,3.45-6,3Z"></path><path class="cls-166" d="M247.29,192.31c.8,1.35,1.56,2.42,2,4l-5,2c-.3-1.59-1.31-4.55-2-6,.39-3.37,3.29-2.13,5,0Z"></path><path class="cls-199" d="M266.29,186.31l-4,1c-.65-1.07-4.68-2.37-4-4.99,4.8-.78,5.51.96,8,3.99Z"></path><path class="cls-15" d="M171.29,193.31c.73,2.68-.49,5.66-3,7-1.22-.17-2.05-2.22-3-3,.44-3.31,2.71-6.98,6-4Z"></path><path class="cls-93" d="M243.29,239.31c1.26-.18,5.68-1.28,6-1s-.27,2.37,0,3l-4,4c-.21-1.98-.69-4.67-3-4,.34-.22.63-1.51,1-2Z"></path><path class="cls-159" d="M161.29,193.31c-1.61,2.78-3.84,5.32-7,3,1.27-3.66,4.22-7.45,7-3Z"></path><path class="cls-175" d="M96.29,229.31c-2.15-2.93-5.74.64-5-3,1.36-2.82,1.26-4.64,5.39-1.89,3.3,2.2.44,2.85-.39,4.89Z"></path><path class="cls-3" d="M247.29,192.31h-5c-.7-1.48-6.25-5.68-.47-5.04,4.03.44,3.77,2.2,5.47,5.04Z"></path><path class="cls-106" d="M305.28,216.3c-1.13,1.18-5.68-2.19-5.91-3.63-.18-1.08,2.07-3.34,2.42-3.34,1.22,0,4.88,5.53,3.49,6.98Z"></path><path class="cls-186" d="M116.29,234.31c-1.65,1.74-3.72,3.59-6.3,2.86l-.7-.86c.36-1.65.51-3.37,1.01-5,1.99.99,4,2,5.99,3Z"></path><path class="cls-228" d="M182.29,195.31c2.11,3.91-2.92,6.78-5,4,.16-2.09.33-4.01,1.01-6,2.44-.36,2.85.26,3.99,2Z"></path><path class="cls-171" d="M236.29,192.31c-.85,1.62-3.4.94-5,1-.72-1.77-4.5-4.95.7-4.79,2.17.07,3.19,2.29,4.3,3.79Z"></path><path class="cls-279" d="M306.29,161.31l-3,1c-2.02-1.41-5.53-1.98-8-2.01,1.31-5.03,8.25-1.07,11,1.01Z"></path><path class="cls-54" d="M103.29,184.31c.27-.41-.02-1.47,1-2.46,1.19-1.15,6.86-3.42,8-2.54,1.67,1.31-1.67,2.57-2,2.99-3.76,3.3-6.09,3.97-7,2Z"></path><path class="cls-229" d="M67.29,203.31c1.81-1.61,3.29,1.06,3,3l-4.99,8c0-3.8.62-7.44,1.99-11Z"></path><path class="cls-176" d="M74.29,213.31c-.79,1.24-3.09,8.17-3.49,7.99-3.41-1.46-.62-6.92.49-8.99,1.44-2.54,3.08-1.83,3,1Z"></path><path class="cls-25" d="M252.29,178.3c.08-2.27,11.17-8.06,10.98-4.49l-10.98,4.49Z"></path><path class="cls-61" d="M65.29,138.31c2.73-1.3,8.38-2.3,10,.99-4.24-.55-7.24.48-11,2.01l-.98-.5c.69-.77,1.56-1.55,1.98-2.5Z"></path><path class="cls-1" d="M281.29,178.31c1.98,2.64-.78,4.42-3,2-1.71-1.53-5.29-2.43-5-4.99,3.56-.56,5.45,1.22,8,2.99Z"></path><path class="cls-152" d="M255.29,187.31c1.67,2.95-1.22,4.84-3,2-.47-.87-4.17-1.85-2.99-4.99,3.95-.78,4.13,1.07,5.99,2.99Z"></path><path class="cls-75" d="M215.29,194.31l-5,3c-.22-1.67-2.16-5.24.52-6,2.42-.69,3.38,1.53,4.48,3Z"></path><path class="cls-273" d="M105.29,229.31v1.31c-3.4,2.87-5.35,7.09-5-.31.39-.89.06-2.31,1.49-2.98,1.09.78,2.25,1.53,3.51,1.98Z"></path><path class="cls-35" d="M304.29,121.3c-2.1-1.16-9.41,2.54-9.99,2-2.35-2.17,8.69-6.87,9.99-2Z"></path><path class="cls-46" d="M274.29,182.31l-4,1c-1.37-1.54-4.65-1.17-4-3.99,3.32-.6,5.78.69,8,2.99Z"></path><path class="cls-266" d="M308.29,156.31c1.33,1.41.77,1.92-1,1-2.48-1.28-5.16-2.1-8-2.01.46-5.75,6.45-1.14,9,1.01Z"></path><path class="cls-59" d="M288.29,175.31h-4c-1.2-1.3-2.21-1.88-4-2.02-.43-2.42.51-2.26,2.53-2.03,3.86.43,3.47,2.03,5.46,4.05Z"></path><path class="cls-123" d="M310.29,199.31l2,5.99-5-3.99c.29-.44-.03-1.82.95-2.56.79-.6,1.88.6,2.05.56Z"></path><path class="cls-149" d="M68.29,163.31c-.24,2.13-.13,2.24,2,2-.83,1.15-1.54,5.46-3,7-.15-.98-1.18-1.59-1-4,.16-2.13.92-3.3,2-5Z"></path><path class="cls-134" d="M311.29,145.31c1.33,1.41.77,1.92-1,1-2.54-1.27-6.1-2.24-9-2.01,2.25-4.18,7.16-1.27,10,1.01Z"></path><path class="cls-32" d="M307.28,128.31c-.28-1.84-12.27,1.43-8.99-1.98,1.04-1.08,9.84-2.45,8.99,1.98Z"></path><path class="cls-120" d="M67.29,134.31l-.76-1.23c3.58-1.81,6.34-3.8,9.75-.26-.25,1.02-2.07.38-3,.5-1.99.24-4.12.13-6,1Z"></path><path class="cls-51" d="M220.29,194.31c-.52-3.25.26-5.74,3.85-3.81.36.19.76,2.08,1.15,2.81-.74,2.69-2.91,1.13-5,1Z"></path><path class="cls-56" d="M74.29,213.31l-3-1c2.03-3.77,2.29-5.92,5.98-1.5-.02.52-2.43,1.63-2.98,2.5Z"></path><path class="cls-18" d="M90.29,181.31l-4-2c.74-1.12,1.43-1.35,2-2,1.92.26,3.31-.25,5-1l-3,5Z"></path><path class="cls-31" d="M83.29,175.31c-1.47,1.53-2.45,4.41-4.99,4-.62-3.05.67-4.01,1.99-6l3,2Z"></path><path class="cls-231" d="M124.28,178.31c-2.61-1.54-7.97-1.81-6.98-6,1.2.28,8.72,4.17,6.98,6Z"></path><path class="cls-274" d="M308.29,210.31c-1.05-1.71-3.16-1.96-5-2.01-.36-1.76,1.19-2.52,2-3.99,1.42.67,2.67,1.92,3.3,3.35.91,2.08-.32,2.52-.3,2.65Z"></path><path class="cls-248" d="M310.29,134.3l-8.99-1.47c2.6-2.85,7.59-2.04,8.99,1.47Z"></path><path class="cls-156" d="M294.29,169.31c-.85,1.62-3.4.94-5,1-1.22-1.05-4.94-1.17-2.48-3,1.85-1.38,5.85.78,7.48,2Z"></path><path class="cls-78" d="M183.29,200.31l-6,2c0-.99-.07-2.02,0-3,3.09-.29,5.87-.27,5-4,1.56,2.37.71,2.9,1,5Z"></path><path class="cls-38" d="M110.29,182.31c-.93,1.2-2.41,2.77-3,4h-5c.32-.78.52-1.27,1-2,1.69,2.73,3.95-3.15,7-2Z"></path><path class="cls-277" d="M257.29,190.31c-.52,1.84-2.26,2.17-4,2-.39-.95-.7-2.44-1-3,1.46-.01,2.57-.57,3-2,1.07,1.1,1.29,1.86,2,3Z"></path><path class="cls-261" d="M299.29,164.31l-4,1c-.84-.67-3.69-.19-3-2.99,2.59-.35,4.86.7,7,1.99Z"></path><path class="cls-249" d="M67.28,193.31l-2.98,6.99c.13-2.08-.55-7.61,2.98-6.99Z"></path><path class="cls-173" d="M172.29,198.31c-1.14.73-2.56,2.2-4,2l3-7c1.69,1.53.87,3.04,1,5Z"></path><path class="cls-60" d="M283.29,180.31c.5,1.69-1.95,2.83-2,3-1.66-.37-2.16-2.25-3-3,1.46-.01,2.57-.57,3-2,1.05.74,1.25,1.09,2,2Z"></path><path class="cls-278" d="M310.29,138.31c1.43,1.51.43,1.84-3,1-1.99.07-4.01-.04-6,0,1.17-3.18,6.45-2.06,9-.99Z"></path><path class="cls-136" d="M70.29,206.31l-3-3c.38-.98,1.05-1.88,1.01-3,.94-.67,4.15,4.41,1.99,6Z"></path><path class="cls-178" d="M298.29,115.32c-.99,2.39-4.71,2.87-7,2.98,1.19-3.06,4.03-3.3,7-2.98Z"></path><path class="cls-161" d="M244.14,162.47c.31.28.4,2.9,1.15,3.83l-4.99-2.5c-.73-2.44,3.53-1.61,3.84-1.33Z"></path><path class="cls-84" d="M308.29,149.31c1.06,1.58.39,1.92-2,1-1.36-.6-5.24,0-5-1.99,2.65-.29,4.55-.05,7,.99Z"></path><path class="cls-244" d="M128.29,240.31c8.08.08.04,6.33,0,1,.11-.33-.14-.79,0-1Z"></path><path class="cls-230" d="M312.29,152.31c-.1.25.07.65,0,1-2.57.19-4.39-2.29-6-3l2-1c1.43.61,2.53,2.31,4,3Z"></path><path class="cls-234" d="M310.29,138.31c1.13.48,2.66,1.75,3,2.99l-6-1.99c1.1-.04,2.52.3,3-1Z"></path><path class="cls-130" d="M308.29,156.31c1.37,1.15,3.5,1.78,2.99,4-.6.76-3.76-2.88-3.99-3l1-1Z"></path><path class="cls-155" d="M311.29,194.31c1.27,1.95,1.25,2.36,0,4l-.99-5c.79-.26.84.98.99,1Z"></path><path class="cls-240" d="M65.29,160.31c-.19.67-.85,1.38-1,2-.68-.36-.83-1.88-1-2,.25-1.12,1.49-1.44,2-2-.1.63.15,1.46,0,2Z"></path><path class="cls-224" d="M313.29,147.31c.13.22-.1.66,0,1-1.29-.14-2.2-1.6-3-2l1-1c.95.76,1.26.74,2,2Z"></path><path class="cls-133" d="M221.29,48.31c2.89,25.78-15.28,41.54-38.66,47.15-1.04.25-1.78-.11-2.34-1.15v-2.16s8.71-3.99,8.71-3.99c1.26-2.66,2.69-3.28,4.29-1.85,1.2-1.75.86-2.75-1-3-4.67.11-2.54-5.12,1-6l-.02-1.1c8.98-11.01,18.31-27.05,7.02-38.9l-2.57-1.14c-2.21-5.44-5.81-10.05-9.8-14.3-1.93-2.06-9.94-10.3-9.62-6.56q-2.09,1.62,0,0c.56-.16,1.11-.28,1.65-.24,1.61.11,7.45,6.43,8.97,8.18,3.93,4.55,10.65,13.55,7.38,19.06,2.23,13.9-4.79,26.38-15.89,34.51-5.48,4.01-15.78,9.53-22.11,7.49-.42.96-.94,2.12-1.87,2.37-9.07,2.47-19.63,3.22-28.13-1.37l-2.98.43c-2.98-2.63-5.65-4.77-8.02-6.43-4.57-8.1-4.21-17.3,2.51-24,10.96,14.43,35.29,11.69,48.43,1.43,14.41-11.26,12.54-34.14-3.93-42.43-2.24.6-4.27.39-6.09-.63l-5.91-1.37c-2.3.18-4.69-.12-7-.01,7.99-10.64,31.37-7.64,42.04-2.53,15.03,7.2,30.97,21.54,33.96,38.54Z"></path><path class="cls-182" d="M222.29,28.31c3.19,3.64,7.7,6.6,10.97,10.53,10.69,12.83,14.4,26.89,11.03,43.47l-4,9c-.59,1.12-2.27,3.88-3,5-28.76,36.2-92.36,47.83-130.16,19.51l-3.84-1.51c-1.56-1.71-1.8-1.85-3-4-.55-4.94.21-9.19,2.28-12.75l1.72-.25c-2.19-2.29,1.78-4.97,4-3,1.12-2.54,2.06-5.26,2.79-8.16l2.21-.84c2.31,1.02,3.28,3.4,5,5,1.23,2.88,3.74,4.72,6.2,6.46l-.2,1.54,3.2.36c18.95,9.52,41.98,9.9,62.52,6.15l2.28,1.5,1.95,1.01c-.38,7.28,8.68,3.59,2.67-.85l.38-2.16c-.74-2.55.93-3.55,5-3-.58-3.14,4.98-4.08,7-2,2.62,1.34,1.95,2.96-1,3,.11,1.66-.77,3-2,4,3.15-.35,5.11.09,5.89,1.32,6.15-2.36,11.15-5.43,11.1-12.72l2.01-1.59c2.01-.97,2.67-2.64,2-5-2.95-.14-2.38-2.04-.29-3.68,10.1.52,15.03-5.39,8.29-13.32-.35,2.01-1.55,2.01-2,0-1.7,2.28-2.72,1.75-2-1-2.77-.32-2.72-2.28,0-3,1.21-3.4,2.28-3.67,3,0,1.47-.58,2.47-1.58,3-3-1.78-.9-2.08-3.05-.92-6.44-2.94-7.59-8.06-15.77-13.08-21.56-.92-2.01-2.73-5.25-4-7-2.14-4.54.06-3.44,3-1Z"></path><path class="cls-21" d="M259.29,56.31l2.28.08c6.86,12.32,8.92,26.29,6.16,41.92.32-1.06,1.49-1.06,2.56-1.01-1.48,9.95-3.45,13.68-8,22-5.13,7.25-10.19,13.89-16.93,19.76-4.85,4.22-14.89,10.6-21.07,10.24-.51,3.26-4.31,4.99-7,3-2.18,2.69-3.85,3.02-5,1-5.01,1.48-4.75-.19-1-3-1.26-1.46-.71-2.01,1-1,5.88-1.38,9.88-4.38,12-9-1.83-2.36,3.36-9.31,6-8-.08-2.45.91-3.32,3-2,4.24-4.5,7.84-9.52,10.79-15.05l1.21,2.05c1.06-.85,1.72-2.19,2-4-2.24-1.8-.82-4.13,2-4,.87-1.7,1.44-1.98,2,0,2.37.76,3.37.09,3-2-4.31.07-2.27-5.89,1-3-.32-1.91,2.35-3.36,4-3-4.24-4.09-5.7-17.07,3.01-14.15,4.09-.92.24-7.72-1.16-9.7l1.14-2.14c-2.68.89-3.45-1.47-1-3-2.28-.56-2.77-2.85-1.48-6.88-2.89-1.53-7.1-5.36-4.52-8.12-.53-2.93,2.63-3.52,4-1Z"></path><path class="cls-139" d="M187.29,167.31c.9.88,2.56.88,5,0,2.43.57,8.54,3.3,10.42,2.84,1.42-.35,1.63-3.18,3.26-3.77,1.85-.67,3.15.94,3.32.94-.41,1.53.45,2.04,1,3,1.83,3.19,5.51,5.92,3.51,10-3.79,7.73-16.77-4.54-18.5,4.99.51.49,10.56-4.4,8.98-.51-3.21,7.91-23.19,2.14-19-9.48-5.29,1.55-1.74,9.65-3.13,11.86-1.48,2.35-15.81,1.46-15.86-3.85l9,.98c-4.05-7.6-21.65,4.86-18.79-8.28.57-2.62,2.18-2.74,2.79-3.71-1.86-1.93-1.64-2.42,1-2,5.54-6.11,3.45-.13,7.47-.02,2.85.08,4.64-3.48,6.17-3.78,2.1-.41,8.16,3.57,9.36,2.79-4.86-7.5,3.25-2.11,4-1.99Z"></path><path class="cls-82" d="M164.29,17.31c1.74,2.12,3.28,3.19,5,6,6.46,12.41,1.91,25.31-10.59,31.41-3.03,1.48-9.23,4.18-11.41,1.59l-1.6,1.56c-5.64-.11-11.11-.63-16.4-1.56-18.29-10.41,9.65-21.12,20-16.99-1.11,3.72-16.04,5.59-13,9.98,2,2.89,5.81-1.57,7.29-2.2,2.64-1.14,5.46-1.61,8.03-2.96,9.22-4.86,13.39-16.25,8.68-25.82-.52-3.13,2.33-2.98,4-1Z"></path><path class="cls-10" d="M231.29,127.31c1.4,2.13.4,3.13-3,3-.3.86-.64.85-1,0-3.06.77-6.04,2.8-8.93,6.11-14.25,8.37-41.45,9.06-58.04,9.02-7.02-.01-14.78-.5-21.02-2.13-2.52,1.72-3.54-.23-1-2-5.61-.99-6.94-2.32-4-4,22.95,4.69,53.93,1.49,75-9l3.58-.59c3.18-2.56,6.91-3.93,11.19-4.09,5.65-8.32,16.67.73,7.23,3.68Z"></path><path class="cls-76" d="M103.29,114.31c1.91-.78,2.59-.94,4.53-.12,4.54,1.91,10.31,6.96,15.8,9.29,30.78,13.03,81.69,3.76,106.16-19.18,2.43-2.28,4-6.4,7.51-7.99-24.76,38.17-102.29,52.63-134,18Z"></path><path class="cls-204" d="M270.29,97.31l-3.01,7.48c-.84,1.59-1.52-.94-1.54-1.45-.55-12.81,2.44-22.54-.91-36.08-1.24-5.01-3.61-6.85-5.54-10.96-1.55-.88-3.2-2.37-4-4l-1.13.77c-4.54-5.62-9.49-10.87-14.87-15.77-3.84-4.87-9.99-8.45-14-12.99,16.24,4.8,31.53,17.93,39.39,33.1,7.04,13.58,7.81,25.1,5.61,39.89Z"></path><path class="cls-236" d="M124.29,148.31l3.78-.61c24.86,11.32,49.22,7.36,73.65-1.89l2.58,1.5c-1.71,5.53-11.41,9.8-17.11,11.76-1.72,1.41-4.35,1.82-7.89,1.24-21.11,3.61-49.65-1.79-66-16,1.96-3.27,11.06.49,11,4Z"></path><path class="cls-131" d="M245.29,95.31c1.3-2.41,1.91-2.22,3.42-.12,2.06,2.87-1.2,8.87-3.42,11.12l1.53,2.1c.06,3.28-9.07,18.49-12.53,19.9-1.79,1.98-3.12,1.84-3-1,.66-.93,2.19-2.46,2-3.48-4.85-4.6-5.75.44-8.37,1.59-4.42,1.93-11.06-1.41-10.64,4.89l-4.99-2c12.5-6.22,29.81-20.36,36-33Z"></path><path class="cls-276" d="M231.29,67.31c-.15.93.21,2.19,0,3,1.36,4.63-3.56,12.12-6.4,16.3-3.37,4.94-9.5,12.4-15.6,12.7-1.95,1.02-5.33,1.31-7,2-3.9,1.53-5.9.86-6-2,19.96-8.38,33.25-28.07,31-50,6.48.53,8.91,14.17,4,18Z"></path><path class="cls-24" d="M142.29,96.31c-1.36-1.12-.36-1.79,3-2l1.74-1.91c6.45.1,12.89-.87,19.11-2.54l2.15,1.45c1.49-.3,2.28.87,2.36,3.51,2.07-.07,4.28.09,6.64.49.23-1.46,2.02-2.77,3-1,22.76-2.78,42.93-22.03,41-46,7.5,42.56-45.88,57.85-79,48Z"></path><path class="cls-129" d="M128.29,97.31c19.09,9.28,48.45,10.21,68,2l6,2c-1.23.51-3.41,2.43-5,3,.92,2.84-3.54,4.54-5,2-17.75,4.73-53.39,3.76-68-8-.62-1.8.72-2.14,4-1Z"></path><path class="cls-14" d="M100.29,110.31c-5.06-9.06-5.31-17.71-.75-27.25,1.16-2.43,6.25-8.27,9.21-7.79.54.09,4.4,8.99,4.54,10.04.05.38-1.65,6.76-2.1,7.44-1.1,1.68-2.43,1.2-2.9,1.56l-1.32.34c-2.44-2.38-3.33-1.5-2.68,2.66-3.31,4.64-.18,10.15-4,13Z"></path><path class="cls-158" d="M283.29,120.31c-3.99,2.47-5.42,8.39-8.59,12.91-6.52,9.32-17.9,17.36-29.41,19.08l8.91-4.57c18.72-11.5,30.89-36.85,24.08-58.42.2-.58-.5-2.03.5-2,6.26,9.33,6.66,22.19,4.5,33Z"></path><path class="cls-70" d="M101.29,120.31c6.85,9.56,16.62,15.18,27.98,17.79l1.02,2.21c3.82,2.26-2.85,7.84-6,8-3.51-1.48-7.23-3.52-11-4-8.04-6.99-12.61-12.41-13.95-23.56-.36-2.98,1.34-.85,1.95-.44Z"></path><path class="cls-104" d="M228.29,130.31c3.29-2,4.91-.87,2,2-2.43,2.19-3.7,5.69-6,8-1.96,4.59-5.96,7.59-12,9-.39.25-.66.79-1,1-1.72,3.33-5.97,5.33-10,5,.29,2.99-1.77,4.03-4,2-1.85,2.37-4.85,3.52-9,3.44-.23.04,4.21-1.23,4,.56-3.51,2.56-9.04-.58-13-1,9.16-1.57,17.49-8.47,25-13l.6-2.68c7.53-3.48,14.14-8.1,19.83-13.86l2.57-.47c.09.15.68-.12,1,0Z"></path><path class="cls-102" d="M256.29,72.31c.18-.87.52-.84,1,0,2.66.15,2.55,1.2,0,2,1.68,2.64,1.19,10.34.26,13.96-.39,1.5-1.92,5.83-3.26,6.04.43,3.3-.09,8.71-4,8-.62,2.79-2.1,6.21-5,4,.62-2.62,3.95-11.99,0-11,3.33-6.81,6.09-18.4,6-26,.44-.82,1.09-1.25,1.99-1.2,1.2,2.35,2.2,3.75,3.01,4.2Z"></path><path class="cls-257" d="M255.29,52.31c1.45,1.36,2.06,3.89,0,5,1.96,6.13,5.61,5.22,6.34,7.25s-1.09,4.34-.34,7.75c-.68,2.81-3.17,2.63-4,0-.32.02-.68.02-1,0-2.64-2.79-4.18-6.68-4.61-11.66l-3.39-7.34c-2.94-5.15-5.34-11.36-9-16,1.75-1.47,4.33.94,5.5,2.01,2.44,2.23,9.78,12.56,10.5,12.99Z"></path><path class="cls-11" d="M223.29,36.31c2.91-.72,2.47.59,3.65,1.84,2.87,3.06,11.26,15.92,11.42,19.68.09,2.09-.91,4.24-1.07,6.48-.36,1.41-1.36,2.41-3,3-.96-.18-1.69-1.26-3,0,1.26-7.74.85-11.49-4-18-.4-3.9-2.36-9.42-4-13Z"></path><path class="cls-211" d="M134.29,137.31c-.36,2.82,2.58,2.51,4,4-.81,2.85-1.55,2.44-3,0-.94,2.88-5.16,1.98-5-1-10.82-2.35-25.95-8.28-29-20,11.75,7.95,18.04,13.94,33,17Z"></path><path class="cls-167" d="M146.29,59.31c-2.83-1.16-1.64-2.44,1-3,16.56-1.05,28.76-16.79,22-33,11.79,19.23-3.26,34.78-23,36Z"></path><path class="cls-17" d="M228.29,151.31c-3.3,1.03-4.63.36-4-2,5.7-2.5,15.65-7.41,20.5-11,6.62-4.91,11.61-13.33,17.5-19-8.63,15.77-18.13,23.47-34,32Z"></path><path class="cls-107" d="M217.29,152.31c2.06,1.19,1.06,2.86-3,5-5.72,1.68-9.1,2.22-15,3-4.31.72-6.42.09-2-3,1.37-.58,2.66-1.37,4-2l3.82-.43c2.46-1.42,4.85-1.95,7.18-1.57,1.62-.5,3.77-.55,5-1Z"></path><path class="cls-219" d="M134.29,169.31c-.01-.67,10.95-5.19,9.82,2.27-1.03,6.78-10.44,2.81-13.82-.27,1.31-.39,4.03.71,4.98-1.51.23-.54-.98-.44-.98-.49Z"></path><path class="cls-192" d="M128.29,85.31l6.93,2.63.07,1.37c1.01,2.41-.33,3.08-4,2-7-3.77-9.8-4.56-14-12,1.87-1.62,2.29.11,3.53.93,2.48,1.64,4.95,3.53,7.47,5.07Z"></path><path class="cls-68" d="M160.29,170.31c-.08.08-.57,1.32-1,2-3.28-2.29-8.65-1.08-12,1-2.56-9.84,8.81-8.11,13-3Z"></path><path class="cls-165" d="M126.19,159.4l.1,4.91c-3.87.18-8.53-.06-10.96-3.61,2.71-7.27,5.45-1.55,10.86-1.3Z"></path><path class="cls-270" d="M256.29,72.31c-.06,0-.29.91-.96.54-1.28-.69-2.32-2.99-4.04-3.54-.07-6.03-1.81-10.26-3-16,1.12,1.96,3.29,3.42,4.51,5.99,1.97,4.14,2.1,8.74,3.49,13.01Z"></path><path class="cls-253" d="M147.29,56.31l-1,3c-7.03.44-10.85.5-17-3,1.58-3.58,6.42-.2,9.51-.01,2.67.16,5.83.18,8.49.01Z"></path><path class="cls-105" d="M219.29,29.31c-2.92-4.02-7.13-6.94-10-10.99l12.99,4-3,1.5c0,1.14,2.12,3.48,3.01,4.49-2.45-.44-3.34-2.29-3,1Z"></path><path class="cls-172" d="M228.29,151.31c-5.42,2.92-7.9,4.21-14,6l3-5c2.4-.87,4.67-1.98,7-3l4,2Z"></path><path class="cls-128" d="M135.29,89.31c1.31-1.61,7.36-1.46,8,1-.15,1.23.51,2.57,2,4l-3,2c-4.53-1.35-7-2.85-11-5l4-2Z"></path><path class="cls-22" d="M164.29,14.31c-4.5.17-.67.91-.35,1.31.54.68.24,1.56.35,1.69l-4,1c-1.69-3.43-5.05-4.18-8-6,6.94-.53,5.2-1.42,12,2Z"></path><path class="cls-146" d="M128.29,97.31l-4,1c-2.56-2.06-6.33-4.26-6-8,2.55,2.38,6.9,5.49,10,7Z"></path><path class="cls-153" d="M197.29,157.31l-1,2.99h3c-2.32.32-3.75.99-7,1.01-1.21,0-5.08.78-4.99-.99,3.08-1.11,7.08-1.78,9.99-3.01Z"></path><path class="cls-184" d="M110.28,151.3l-7-1c-1.17-8.04,5.29-3.39,7,1Z"></path><path class="cls-271" d="M91.28,129.31c.59.71-2.17,5.47-2.02,6.99l-1.96-1c-.84,1.21,2.51,8.87.5,11-4.68-4.18-1.64-10.53,1.01-15.02.33-.55.94-3.85,2.48-1.97Z"></path><path class="cls-135" d="M83.29,123.3l-9.99-2.98c3.99-1.74,7.8-1.06,9.99,2.98Z"></path><path class="cls-254" d="M86.28,116.32c3.26,3.22-7.67.63-7.99.98-1.24-4.54,7.16-1.81,7.99-.98Z"></path><path class="cls-39" d="M78.28,128.3c-.39.36-3.22-1-4.49-1.03-.6-.01-7.44,2.12-4.5-.95,2.19-2.29,11.73-.54,8.99,1.98Z"></path><path class="cls-223" d="M91.29,113.31l-1,1c-2.08-1.23-6.59-.99-6-3.99,4.73-1.33,5.08,1.63,7,2.99Z"></path><path class="cls-36" d="M131.29,161.31c3.72-2.48,5.55,4.97.49,4.97-2,0-.93-4.67-.49-4.97Z"></path><path class="cls-208" d="M192.29,167.31c-1.98,1.04-4.94,2.97-7,1.5l2-1.5c1.23.2,1.87-.73,5,0Z"></path><path class="cls-76" d="M240.29,91.31c.85-2.91,1.25-7.52,4-9-.87,4.31-2.2,5.62-4,9Z"></path><path class="cls-13" d="M373.29,220.31c-.9,15.6-8.48,24.48-20,34-.19.81-.42,1.61-.77,2.34-3.71,7.68-35.17,21.22-44.5,24.62-75.32,27.42-186.9,25.24-259.12-11.04-11.63-5.84-24.06-12.81-30.6-23.93-4.05-4.46-9.07-12.33-11-18,.63-13.76,6.95-.58,9.36,5.11,5.12,2.91,9.99,6.21,14.64,9.89l2.9-.43c51.9,41.01,130.37,47.95,194.82,41.29,43.91-4.54,99.27-16.07,126.73-52.36l2.55-.5c2.35-2.35,5.02-4.35,8.03-5.98,1.07-4.42,4.16-12.23,6.97-5.02Z"></path><path class="cls-168" d="M18.29,246.31c22.77,25.09,77.76,41.64,110.64,46.86,64.69,10.26,171.72,4.66,224.36-38.86-.2,5.14,5.89,2.9,1,9-1.78.77-3.45,1.44-5,2-11.51,10.22-26.06,15.75-40.36,20.91-16.64,6.01-34.99,11.91-52.64,12.09l-1.83,1.93c-44.75,7.03-91.04,8.39-135.86-1.82-4.56.1-8-.93-10.31-3.11l-7.46-.16c-26.81-7.4-53.35-16.5-74.54-33.84-2.61-3.61-.55-3.43-2.09-6.33-1.73-3.25-8.06-4.39-5.91-8.67Z"></path><path class="cls-80" d="M318.29,197.31c.79-2.66,3.43-1.63,5.43-.84,2.39.95,15.86,13.43,16.42,15.47.22.81-.32,1.66-.85,2.37.22.42.02,1.95.46,3,2.41,5.67,4.27,6.07,2.48,13.45-.77,3.18-2.5,2.81-4.48,4.56-.86.76-1.16,2.35-1.73,2.72-1.54.99-6.76,1.04-9.04,2.46-1.51.94-1.76,2.61-2.75,3.25-6.22,4.01-17.22,9.08-24.94,12.06-5.18,2-18.74,6.16-23.99,7.1-1.92.34-3.24.08-5.01-.6,10.75-3.44,31.74-13.91,39.53-21.97,5.92-6.12,10.48-14.96,5.47-23.03,2.4-5.23,3.94-14.36,3-20Z"></path><path class="cls-143" d="M353.29,212.31c3.7,2.71-.66,13.84-5,14-2.08-2.63-3.72-6.02-4.92-10.15-7.16-10.65-16.52-19.26-28.08-25.85-.53-1.16-2.31-2.36-3.05-4.45-2.73-7.74.85-8.66,4.05-14.55l2.45-.9c9.84,4.03,26.87,17.01,32.3,26.15,3.33,5.6,5.14,10.12,2.25,15.76Z"></path><path class="cls-52" d="M100.29,305.31c6.16-.3,12.36.69,18.59,2.98,34.89,7.48,60.69,8.03,95.96,7.69,2.25-.02,4.4.34,6.45,1.33l5.33-2.5,26.5-3.77c-2.86-1.76-4.13-3.67-3.83-5.73.32-2.88,7.84-4.31,10.78-4.68,5.71-.71,13.99-.23,17.45,4.64,3.06-1.35,5.32-1.34,6.77.04.87.28.86.62,0,1-55.66,18.65-118.26,20.84-175,4.5-5.18-1.49-11.28-3-16-5.5-13.38-5.67,1.5-6.8,7,0Z"></path><path class="cls-226" d="M59.29,167.31l-.68,2.85c-13.44,7.03-24.31,16.4-32.59,28.09l-2.74,1.06c-12.3,10.63-2.13,31.82,7.96,41.15l.04,2.85c-4.05-2.65-12.59-5.37-15.54-7.96s-3.45-9.17-6.97-12.03l-1.5,5c-.74-2.16-.67-3.93-1-6l.69-1.81c-2.97-27.73,24.54-45.9,46.87-59.01l3.45-.18c.46,1.94,1.45,4.05,2,6Z"></path><path class="cls-268" d="M373.29,212.31c.2,2.41.14,5.55,0,8-4.71-2.96-3.48,2.62-4.54,4.96-1.46,3.21-7.21,5.16-10.46,6.04l-.85-2.86c3.62-7.24,3.6-14.9,2.86-22.74l.99-1.41-1.44-.19c-.73-3.58-2.25-5.85-4.56-6.81l-2.53-.43c-8.25-12.08-21.11-20.33-33.84-27.05l-.63-2.52c.36-.97,1.43-4.24,2-6,.44-.65,1.2-1.57,1.71-1.36,22.79,9.48,44.67,27.82,51.29,52.36Z"></path><path class="cls-179" d="M57.29,157.31c.28,1.1-.27,2.87,0,4-7.69,6.42-16.94,10.57-24.92,16.58-14.17,10.68-23.41,22.61-24.08,40.97-.07,1.92,1.02,4.01-2,3.45-5.28-33.3,23.56-54.04,51-65Z"></path><path class="cls-113" d="M108.29,295.31c-1.21,2.04-3.88,2.71-8,2-.15,2.64-1.13,2.5-2,0-5.22,1.73-13.74-1.53-17-6l-1.71,1.5c-6.71-3.36-12.71-5.69-20.29-5.5-9.42-2.76-18.26-10.6-25-18-3.14-2.61-5.32-4.29-8-8l34.03,18.47c15.48,6.62,31.93,10.55,47.97,15.53Z"></path><path class="cls-263" d="M373.29,212.31c-3.77-.36-3.64-6.17-5.15-9.35-6.71-14.23-16.47-21.9-28.52-31.48l-19.34-10.16c.45-1.38-1.23-5.77,1.47-4.98,3.79,1.12,14.96,7.73,18.84,10.17,17.27,10.85,30.94,24.51,32.69,45.81Z"></path><path class="cls-30" d="M355.29,197.31c2.75-.25,5.19,6.3,3,8,3.46,1.22,3.31,11.31-1,11l-1.93-.99c.58-2.78-.11-3.78-2.07-3.01,1.03-19.71-22.26-32.55-37-41,.85-1.57,1.3-2.11,2-4,11.78,5.49,30.97,18.33,37,30Z"></path><path class="cls-94" d="M348.29,226.31c2.05,2.89-1.88,7.39-5,6,2.04-5.93,1.4-14.08-4-18-2-3.78-12.9-13.92-16.51-16.08-1.71-1.02-2.9-.16-4.49-.92-.18-1.09-2.32-5.5-3-7,.29-1.76,2.86.44,3.65.85,13.4,6.86,27.42,19.46,29.35,35.15Z"></path><path class="cls-45" d="M98.29,297.31c1.49,2.82,2.16,5.49,2,8-4-1.21-7.67-1.79-11.49-4.01-.41,1.32,3.55,3.51,4.49,4.01-4.82-.15-8.81-3.12-13-5-.64-.68-1.3-1.68-2-3-2.68-1.37.09-6.71,3-6,5.6,1.95,11.35,4.35,17,6Z"></path><path class="cls-148" d="M341.29,276.31c-16.83,15.09-36.06,22.98-57,30v-1c.59-1.11,1.28-2.24,2.4-2.89,3.78-2.18,14.72-7.12,18.86-8.47,1.23-.4,2.56,0,3.75.36l1.53-3c8.88-4.4,17.49-9.37,25.1-15.76l3.37-.24c1.8-1.07,2.44-1.34,2,1Z"></path><path class="cls-203" d="M59.29,287.31c6.17.23,16.4,4.52,19,10,.96.58,2.04,1.76,2.98,2.5l-.98.5c-14.08-6.3-28.41-13.12-40.01-23.49-2.17-1.94-5.34-4.55-5.99-7.51,8.07,6.71,16.08,12.65,25,18Z"></path><path class="cls-144" d="M354.29,263.31c-3.31,4.13-8.96,9.38-13,13l-2-1c1.72-3.86,5.05-7.19,10-10,1.43-1.47,2.23-3.08,4.51-3.99l.49,1.99Z"></path><path class="cls-109" d="M60.29,172.31c-11.1,8.11-24.93,14.3-30.87,27.63-1.65,3.7-1.72,6.84-3.13,10.37l-2.11-.45c-.28-2.26-.91-4.45-1.89-6.55-2.78-1.3-1.83-3.78,1-4,6.45-14.52,23.46-23.53,36-32,.43,1.53.02,2.78,1,5Z"></path><path class="cls-137" d="M22.29,203.31c3.72-.12,3.47,4.59,4,7,1.36,6.19,1.01,7.15,4,13,15.75,30.8,80.49,46.61,112.64,50.86,53.8,7.1,161.59,1.23,200.36-41.86,2.43-2.7,2.81-2.24,5-6,2.57-4.41,4.73-8.81,5-14l1.01-3c3.72-.24,3.19,4.2,2.99,7,3.98,4.47-2.24,13.83-5.54,18.19-16.34,21.57-49.84,33.78-75.53,39.86-43.99,10.41-89.34,12.8-134.17,6.84-34.55-4.6-107.3-21.75-120.49-58.42-1.94-5.39-4.29-15.93.73-19.47Z"></path><path class="cls-48" d="M296.29,200.31c-3.87,4.05-8.55,9.18-13.09,12.41-9.22,6.58-39.92,18.64-50.91,19.59-2.41.21-6.14.65-7-2,5.73-2.17,14.91-6.13,19.02-10.48.76-.8,3.34-2.68.98-3.52.11-.02.57-1.08,2-1,11.19.64,34.13-8.91,44.97-14.53.99-.51,3.45-2.44,4.03-.47Z"></path><path class="cls-255" d="M221.29,231.31c-30.36,10.29-70.9,4.27-101-6-14.99-5.11-23.42-9.04-35-20,39.7,26.37,89.6,29.72,136,26Z"></path><path class="cls-189" d="M282,153.48c3.15-.92,6.64.68,6.31,4.25-.46,4.94-15.92,17.59-17.57,9.65-.34-1.64,9.8-13.47,11.26-13.9Z"></path><path class="cls-2" d="M89.29,159.31c-2.01-2.69-.87-6.71,2.54-7.02,4.54-.42,10.84,8.72,15.04,10.96l3.42,6.06c-.58-.08-2.68.35-5,0-2.18-.33-2.98.04-5.36-1.14-2.5-1.24-9.68-8.8-10.64-8.86Z"></path><path class="cls-111" d="M200.29,37.31c1.01.19,2.01.61,2.31,1.52,4.37,13.49.27,28.48-10.31,37.48.27.71-1.31,3.52-1.91,4.27-1.54,1.92-11.15,8.98-13.09,6.73.62,3.27-7.04,6.72-9,4-6.48,2.04-16.26,3.54-23,3-5.72-.45-9.55-1.98-2-4,4.1-2.62,13.16-4.41,18-3,.27-.96.69-1.97,1.56-2.33,20.13-8.24,35.84-17.79,33.44-42.67-2.52-12.81-9.36-18.42-18-27-.4-.39-6.18-5.12-2.52-4.98,10.41,5.4,20.63,15.83,24.52,26.98Z"></path><path class="cls-142" d="M161.29,87.31c-3.44.27-4.44-.73-3-3,14.2-3.49,24.33-8.57,32.41-21.09,4.18-6.47,6.53-13.08,5.59-20.91,4.79,24.37-13.35,39.18-35,45Z"></path><path class="cls-258" d="M200.29,37.31c2.13.18,3.1-1.13,4.15,1.38,7.99,19.25-1.19,24.97-11.15,38.62-1.41,1.33-1.92.77-1-1,9.17-10.05,12.46-26.23,8-39Z"></path><path class="cls-44" d="M193.29,77.31c-2.59,3.55-1.89,2.66-1,6,2.39.32,2.7,1.32,1,3-1.78.73-1.91,2.69-3.08,3.42-1.6.99-7.96,3.84-9.92,4.58-1.16.44-1.89.64-3,1-4.77.75-5.33-.99-.96-3.45-.62-1.96-.29-3.48.96-4.55,2.79-1.53,13.09-8.91,15-11l1,1Z"></path><path class="cls-86" d="M158.29,84.31l3,3c-6.63,1.78-10.9,3.11-18,3-3.08-.05-5-.14-8-1-2.64-.75-5.13-2.85-7-4,9.92,2.96,20.09,1.44,30-1Z"></path><path class="cls-251" d="M132,73.49c7.21-2.16,7.95,7.89.85,6.84-4.2-.62-4.78-5.66-.85-6.84Z"></path><path class="cls-177" d="M166.14,74.16c-6.15,3.92-8.96-8.89-1.56-6.7,2.99.89,3.22,5.64,1.56,6.7Z"></path><path class="cls-259" d="M174.98,56.41c4.16-1.04,6.07,5.67,1.61,6.78-4.16,1.04-6.07-5.67-1.61-6.78Z"></path><path class="cls-89" d="M208.29,64.31c.97-1.28,4.95-.06,4.98,1.5.05,3.65-7.67,2.07-4.98-1.5Z"></path><path class="cls-183" d="M205.28,76.3c-2.35,2.29-7.03-3.07-3.48-3.99,2.97-.77,4.49,3.01,3.48,3.99Z"></path><path class="cls-125" d="M186.28,54.3c-2.08,2.07-6.07-1.88-3.99-3.99,1.6-1.62,5.61,2.37,3.99,3.99Z"></path><path class="cls-19" d="M145.29,75.3c-1.67-1.67,2.27-6.63,4.97-1.49-.47,1.49-4.41,2.06-4.97,1.49Z"></path><path class="cls-73" d="M131.28,69.3c-.43.43-5.27.96-3.98-2.48,1.43-3.85,5.63.84,3.98,2.48Z"></path><path class="cls-245" d="M192.29,83.31l.56-.94c2.77-.53,3.85,1.31,3.44,3.94-.88.2-2.38-.25-3,0-.56-.93-.73-1.97-1-3Z"></path><path class="cls-209" d="M212.29,47.3c-.73-.73.37-4.45,2.48-3.99,3.7.81-.55,5.92-2.48,3.99Z"></path><path class="cls-215" d="M204.29,34.3v-3.99c3.98.02,3.93,3.99,0,3.99Z"></path><path class="cls-53" d="M215.28,59.3c-.67.62-3.96-.47-3.98-1.49-.03-2.98,5.88-.28,3.98,1.49Z"></path><path class="cls-233" d="M178.29,15.31c1.06.94-2.04,4.08-2.99,3-1.52-1.72,1.32-4.49,2.99-3Z"></path><path class="cls-201" d="M182.28,23.31c1.5,1.69-1.28,4.5-2.99,2.99-1.07-.94,2.03-4.06,2.99-2.99Z"></path><path class="cls-197" d="M199.29,26.3c-.34-.37-.63-3.74,1.48-2.99,3.09,1.11-.51,4.03-1.48,2.99Z"></path><path class="cls-118" d="M181.29,30.31c.57-.57,2.98.83,2.97,1.49,0,2.77-4.49.02-2.97-1.49Z"></path><path class="cls-191" d="M233.29,71.31c1.41.72,1.6,2.3,0,3,1.72.53.92,3.02-1,3q.04,3.38,0,0c.92-1.19,1.97-2.14,3-3-1.84-.39-1.15-2,0-3,.76.16,1.77-.38,2.75.22,2.77,1.71,2.42,8.38,1.03,11.05-2.32,4.46-7.99,2.93-11.12,3.71-1.07.26-.55,1.92-.65,2.01-.49,1.94-1.16,3.61-2,5,.26,9.51-4.55,13.89-13.55,16.1-1.1-1.62-5.16-2.33-5.45-3.1,1.01-1.19,1.67-2.52,2-4,.68-.9.69-2.61,1-3,2.83-3.53,6.41-4.83,9.04-7.46,3.82-3.82,11.67-16.5,12.96-21.54.39.43,1.5.96,2,1Z"></path><path class="cls-246" d="M197.29,104.31c11.17,7.16-6.04,15.36-5,2,.82-.22,3.48-1.46,5-2Z"></path><path class="cls-97" d="M134.04,116.05c-4.45,4.3-10.78-2.17-6.5-6.5s9.86,3.25,6.5,6.5Z"></path><path class="cls-193" d="M185.05,118.06c-3.62,3.45-8.95-2.01-5.52-5.5s8.21,2.93,5.52,5.5Z"></path><path class="cls-117" d="M108.29,94.31c-.93.71-3.54,2.35-4,3-5.42-3.94.87-9.45,4-3Z"></path><path class="cls-280" d="M227.29,88.31c3.71,2.55,2.95,6.2-2,5-.02-.91-1.48-2.38-.95-4.4.57-2.16,2.82-.49,2.95-.6Z"></path><path class="cls-42" d="M148.8,110.31c2.12-.48,5.11,4.14,1.97,4.98-3.89,1.05-4.53-4.4-1.97-4.98Z"></path><path class="cls-242" d="M172.28,119.31c.92,5.58-1.84,5.1-4.97,1.49,1.23-1.88,2.89-1.62,4.97-1.49Z"></path><path class="cls-63" d="M237.29,64.31c-.01.21,1.8,1.23.51,3.01-1.48,2.04-2.3.22-3.51,0-.29-3.24-.24-3.29,3-3Z"></path><path class="cls-157" d="M119.28,99.3c-1.03,1.02-6.03-.12-3.99-2.98,1.65-2.31,5.81,1.17,3.99,2.98Z"></path><path class="cls-207" d="M110.28,100.31c1.03,1.3-3.15,5.71-3.98,2.48-.9-3.45,2.99-3.74,3.98-2.48Z"></path><path class="cls-72" d="M208.29,102.31c2.69,2.89,2.09,4.04-2,4-1.71-4.52,1.83-3.77,2-4Z"></path><path class="cls-232" d="M235.29,71.31c1.18,1.26.15,2.07,0,3-.04,2.13-1.57,2.09-2,0,.05-.18-1.08-2.09,0-3,.65.06,1.43-.12,2,0Z"></path><path class="cls-257" d="M262.29,75.31c1.38,3.12,7.42,10.35.99,13.58-2.05,1.03-4.93-1.91-5.86,1.07-1.36,4.36,2.63,7.62,1.86,11.35-1.49,1.74-3.26,1.58-3-1-2.46.55-3.13-1.45-2-6,2.21-6.81,1.11-13.95,3-20,1.95-.41,3.62-.08,5,1Z"></path><path class="cls-64" d="M249.29,109.31c-.41,1.18-1.33,2.9-2,4,.57,1.63-.61,3.37-2,4-.6.03-1.49-.23-1.89.1-.56.46-4.82,9.32-7.1,11.45-1.3,1.21-2.76,1.24-3.01,1.46-2.07-1.42-1.37-2.38,1-2,5.14-5.28,9.31-14.8,11-22,1.17-1.07,4.25-3,5-4,3.98.7,1.75,5.7-1,7Z"></path><path class="cls-281" d="M256.29,100.31c.86,1.45.17,2.91-1,4-.17.62-2.77.16-1,3,.13,2.29-1.03,2.52-3,2-.29-.2-1.42.13-2,0,.86-2.47,1.39-4.3,1-7,.86-1.15,3.55-6.6,4-8,.3,1.07,2.08,5.69,2,6Z"></path><path class="cls-196" d="M212.29,149.31c3.16-2.07,9.49-6.48,12-9,.97,7.89-6.3,7.68-12,9Z"></path><path class="cls-196" d="M211.29,150.31c-1.46,2.08-1.77,3.46,1,3-3.22,1-7.73,4.68-11,2,2.7-1.27,7.68-3.56,10-5Z"></path><path class="cls-180" d="M232.8,133.31c2.71-.61,3.42,4.44.97,4.99-2.71.61-3.42-4.44-.97-4.99Z"></path><path class="cls-65" d="M254.29,107.31c.34.55,3.8,3.01-.6,3.97-1.6.35-1.95-1.67-2.4-1.97.43-1.43,1.54-1.99,3-2Z"></path><path class="cls-55" d="M234.29,128.31c-.61.63-1.11.98-1,2-.87.76-2.14,1.23-3,2,.45-3.14-.74-1.54-2-2,1.15-.91,2.14-1.79,3-3l3,1Z"></path><path class="cls-190" d="M259.29,101.31c-.33,1.58-2.35,3-4,3,.04-.16-.99-1.34-.76-2.38.25-1.14,1.73-1.51,1.76-1.62l3,1Z"></path><path class="cls-256" d="M245.29,117.31c-.85-2.58,1.52-3.22,2-4,1.24,1.45,1.43,4.47-.5,4.9-.39.09-1.19-.91-1.5-.9Z"></path><path class="cls-200" d="M259.29,94.3c-.75-.75-.46-4.05,2.48-2.98,3.45,1.24-1.17,4.3-2.48,2.98Z"></path><path class="cls-23" d="M189.29,173.29c-.1-1.46,3.62-1.77,4.61-1.86,2.23-.2,9.68-1.27,8.37,3.36-.88,3.15-10.57-1.52-12.98-1.5Z"></path><path class="cls-74" d="M180.28,172.32l-7.77,2.79-4.21-1.32c-.92-1.91,3.45-2.47,4.51-2.52,2.71-.13,4.94.21,7.48,1.04Z"></path><path class="cls-262" d="M211.28,179.3c-1.65.12-3.27-.12-4.82-.67-7.67-2.7,4.06-7.39,4.82.67Z"></path><path class="cls-88" d="M159.29,178.3c-.52-4.88,6.87-4.52,6.97-1.49.06,1.74-5.66,1.7-6.97,1.49Z"></path><polygon class="cls-163" points="190.3 183.3 189.3 177.31 194.27 179.81 190.3 183.3"></polygon><path class="cls-237" d="M179.28,178.31c.62.62-.46,3.98-1.49,3.97-3.87,0-1.09-6.56,1.49-3.97Z"></path><path class="cls-216" d="M139.29,143.31c4.13-2.69,9.13-.07,13.46.04,15.99.41,50.35-.34,63.9-8.18,2.04-1.18,8.38-8.38,10.55-6.71.36.28-.08,1.58.1,1.85-5.51,8.45-14.78,12.04-23,17-10.5,1.99-23.02,8.13-33.46,9.04-17.65,1.53-30.68-1.34-46.54-8.04.21-3.15,5.37-3.85,6-8,1.72.37,3.17.87,5,1,1.26,2.11,1.61,2.12,4,2Z"></path><path class="cls-260" d="M138.29,141.31c.24.25.21,1.62,1,2-.31.2-.52,1.63-1.59,1.89-3.1.75-3.73-1.42-2.41-3.89.99.07,2.01-.05,3,0Z"></path><path class="cls-114" d="M204.28,137.3c-1.69,1.5-4.5-1.28-2.99-2.99.94-1.07,4.06,2.03,2.99,2.99Z"></path><path class="cls-150" d="M259.29,56.31l-4,1c-.59-1.84-1.65-2.96,0-5,.48.29,2.52-.4,3.55.97.75,1,.21,2.52.45,3.03Z"></path><path class="cls-29" d="M177.29,87.31c1.42,4.31,2.13,6.44-3.01,7.5l3.01.5c-3.02.98-5.92,1.37-8.99,2v-6c1.97-.62,7.1-2.96,8.99-4Z"></path><path class="cls-252" d="M261.29,72.31c.15.66.72,2.37,1,3-1.92,1.39-4.19,1.48-5-1,.16-.51-.11-1.38,0-2,1.32-.1,2.67.07,4,0Z"></path><path class="cls-132" d="M23.29,199.31c-.76,1.7-.66,2.45-1,4-9.08,40.75,56.13,62.14,85.99,69.51,60.7,14.99,135.46,12.49,194.55-8.48,19.14-6.79,52.84-25.31,54.46-48.04,1.46-2.11,1.46-8.34,1-11-.83-2.75,1.45-3.36,3-1,2.8,9.44,1.46,18.17-3,27-6.34,12.58-26.59,26.34-39.32,32.18-73.78,33.85-202.61,34.91-272.6-8.76-5.59-3.49-10.16-8.2-15.08-11.42-10.41-10-18.09-22.92-14.57-38.07.4-1.75,3.64-9.4,6.57-5.93Z"></path><path class="cls-20" d="M309.29,294.31c-8.05,4.01-16.28,8.36-25,11-1.97.6-5.44,2.28-7.31,1.84s-4.99-5.54-8.23-5.82c-5.1-.45-14.09,3.21-19.46,3.98.07.77,0,1.97-.49,2.05-5.87,1-32.74,4.14-36.9,3.43-.9-1.54-2.77-2.04-5.61-1.49-.81.48-1.64.92-2.51,1.24s-1.66.59-2.46.58c-11.44-.25-22.93-.69-34.34-1.39-18.7-1.15-45.01-2.99-62.42-9.19-1.71-.61-3.05-1.93-4.28-3.23,2.96-.84,4.67-2.06,8-2,10.28.19,26.29,4.63,37.62,5.88,22.36,2.46,46.43,3.75,68.87,2.11,12.06-.88,30.49-5.7,41.51-4.99,14.53.2,28.81-2.57,42.84-8.31,4.67-1.97,12.09-1.99,10.16,4.31Z"></path><path class="cls-154" d="M349.29,265.31c-3.33,3.43-6.36,6.84-10,10-9.88,8.59-18.47,13.26-30,19-1.18-.81-1.91-2.98-3-3.57-2.21-1.18-29.46,8.97-35.62,9.43-6.59.49-9.1-1.53-14.37-1.87,32.58-6.52,64.34-16.01,93-33Z"></path><path class="cls-119" d="M100.29,297.31c37.85,10.63,67.32,10.5,106,12,4-.74,6.64.16,7.91,2.73,3.6.22,11.52,1.13,7.09,5.27-42.44,3.41-80.38.29-121-12-2.12-2.64-4.4-4.48-2-8,.55.16,1.44-.16,2,0Z"></path><path class="cls-71" d="M249.29,305.31c1.73,2.83,8.51,2.89,5.02,7.52-10.95,1.89-21.94,3.59-33.02,4.48.22-4.35-6.31-1.97-8.62-3.89-3.17-2.64,2.05-3.78-6.38-4.11l43-4Z"></path><path class="cls-6" d="M355.29,197.31l.53-.97c3.78-.81,4.62,5.12,5.47,7.97l-3,1c-.07-.42-2.7-7.42-3-8Z"></path><path class="cls-121" d="M81.29,291.31l-3,6c-5.74-3.46-12.93-6.36-19-10,6.71-4.73,15.22,1.64,22,4Z"></path><path class="cls-26" d="M284.28,156.31c1.88,2.07-6.33,7.55-7.99,7.99-1.12-1.22,6.94-9.14,7.99-7.99Z"></path><path class="cls-33" d="M101.28,163.3c-.87.88-9-5.67-8.97-7.5.06-3.86,6.39,3.3,6.98,4,.93,1.13,2.42,1.62,1.99,3.5Z"></path><path class="cls-247" d="M232.29,77.31c5.56,3.71-1.99,7.34-2.04,2.47-.02-1.67,1.98-2.32,2.04-2.47Z"></path><path class="cls-182" d="M235.29,74.31c-.39,2.47,1.2,3.5-3,3,.07-.18.95-2.82,1-3h2Z"></path><path class="cls-83" d="M164.15,145.43c.96.59.97,5.14,0,5.74-5.92,3.67-5.91-9.41,0-5.74Z"></path><path class="cls-267" d="M146.44,149.14c-.54-.9,0-2.67-.15-3.83,4.01-.76,7.18,1.91,3.4,4.94-.46.1-3.12-.9-3.25-1.12Z"></path><path class="cls-227" d="M172.8,144.31c1.86-.41,2.86,2.05,2.48,3.48-1.01,3.82-6.39-2.62-2.48-3.48Z"></path></g></svg> 