<?xml version="1.0" encoding="UTF-8"?> <svg xmlns="http://www.w3.org/2000/svg" id="Laag_2" viewBox="0 0 337.25 375.14"><defs><style>.cls-1{fill:#d36746;}.cls-2{fill:#3f0b0d;}.cls-3{fill:#fdbdb8;}.cls-4{fill:#fdfcec;}.cls-5{fill:#852f1f;}.cls-6{fill:#d07248;}.cls-7{fill:#f83a37;}.cls-8{fill:#fbd7da;}.cls-9{fill:#8d120a;}.cls-10{fill:#b56e57;}.cls-11{fill:#fcb4b6;}.cls-12{fill:#fcbfc2;}.cls-13{fill:#33520d;}.cls-14{fill:#c78263;}.cls-15{fill:#f38f92;}.cls-16{fill:#f3383c;}.cls-17{fill:#7ac016;}.cls-18{fill:#edd1ce;}.cls-19{fill:#da7958;}.cls-20{fill:#fbbbbd;}.cls-21{fill:#fcf9f4;}.cls-22{fill:#5d110e;}.cls-23{fill:#f9efe3;}.cls-24{fill:#c8815c;}.cls-25{fill:#f39193;}.cls-26{fill:#f9dbd8;}.cls-27{fill:#f77079;}.cls-28{fill:#7ecc16;}.cls-29{fill:#440206;}.cls-30{fill:#f2dfb5;}.cls-31{fill:#faebe9;}.cls-32{fill:#fbdbdd;}.cls-33{fill:#bd674f;}.cls-34{fill:#ee7b79;}.cls-35{fill:#f1ab79;}.cls-36{fill:#8e3628;}.cls-37{fill:#f8898b;}.cls-38{fill:#e95c5f;}.cls-39{fill:#fcd8d3;}.cls-40{fill:#d77c5a;}.cls-41{fill:#f9e898;}.cls-42{fill:#f0ae7d;}.cls-43{fill:#ed6d70;}.cls-44{fill:#faacb2;}.cls-45{fill:#a75c41;}.cls-46{fill:#c76547;}.cls-47{fill:#6c251d;}.cls-48{fill:#fcf7f4;}.cls-49{fill:#ca644d;}.cls-50{fill:#d06d4d;}.cls-51{fill:#fbaaa8;}.cls-52{fill:#fcaba9;}.cls-53{fill:#df7e5a;}.cls-54{fill:#3b0d0d;}.cls-55{fill:#5ca612;}.cls-56{fill:#307004;}.cls-57{fill:#fba7ad;}.cls-58{fill:#330506;}.cls-59{fill:#fce9ad;}.cls-60{fill:#560909;}.cls-61{fill:#f97e82;}.cls-62{fill:#fbf9f8;}.cls-63{fill:#921f20;}.cls-64{fill:#f6b1b8;}.cls-65{fill:#f57680;}.cls-66{fill:#65b11e;}.cls-67{fill:#390805;}.cls-68{fill:#faf1e7;}.cls-69{fill:#f7e7eb;}.cls-70{fill:#2e0f08;}.cls-71{fill:#fbc4c8;}.cls-72{fill:#91412b;}.cls-73{fill:#faf7f6;}.cls-74{fill:#f7e2a4;}.cls-75{fill:#8b140f;}.cls-76{fill:#761317;}.cls-77{fill:#fb6645;}.cls-78{fill:#4e900d;}.cls-79{fill:#d07964;}.cls-80{fill:#f59d9f;}.cls-81{fill:#f9aab0;}.cls-82{fill:#4b0708;}.cls-83{fill:#bbdf67;}.cls-84{fill:#96242b;}.cls-85{fill:#427612;}.cls-86{fill:#711113;}.cls-87{fill:#f99da5;}.cls-88{fill:#facfa8;}.cls-89{fill:#4b090d;}.cls-90{fill:#f4b8ba;}.cls-91{fill:#aed961;}.cls-92{fill:#4a0608;}.cls-93{fill:#fb9098;}.cls-94{fill:#fcf5d1;}.cls-95{fill:#fcf2f3;}.cls-96{fill:#731611;}.cls-97{fill:#fb9293;}.cls-98{fill:#e45b5e;}.cls-99{fill:#f9e9c3;}.cls-100{fill:#3b0506;}.cls-101{fill:#6b1a14;}.cls-102{fill:#f46b6f;}.cls-103{fill:#fa8d90;}.cls-104{fill:#f06064;}.cls-105{fill:#d49e7f;}.cls-106{fill:#c9543d;}.cls-107{fill:#fbe5e3;}.cls-108{fill:#f98a93;}.cls-109{fill:#6d1017;}.cls-110{fill:#f9d9a0;}.cls-111{fill:#e6232d;}.cls-112{fill:#39760e;}.cls-113{fill:#a81f18;}.cls-114{fill:#e62e2e;}.cls-115{fill:#cd674e;}.cls-116{fill:#fbf6f4;}.cls-117{fill:#292b03;}.cls-118{fill:#6c0e11;}.cls-119{fill:#771415;}.cls-120{fill:#fcbdc0;}.cls-121{fill:#cce47d;}.cls-122{fill:#9d5d4b;}.cls-123{fill:#fcaeb4;}.cls-124{fill:#fbf7f2;}.cls-125{fill:#fbf2e6;}.cls-126{fill:#fc4c47;}.cls-127{fill:#776c1c;}.cls-128{fill:#fa7f83;}.cls-129{fill:#fceef0;}.cls-130{fill:#f26267;}.cls-131{fill:#941410;}.cls-132{fill:#511219;}.cls-133{fill:#7f0a08;}.cls-134{fill:#f39189;}.cls-135{fill:#f78488;}.cls-136{fill:#ce3240;}.cls-137{fill:#fdf4cf;}.cls-138{fill:#c4846b;}.cls-139{fill:#f9bcc1;}.cls-140{fill:#9a1415;}.cls-141{fill:#c76a53;}.cls-142{fill:#f8efe5;}.cls-143{fill:#e6ecb6;}.cls-144{fill:#bf2b24;}.cls-145{fill:#fbb3b5;}.cls-146{fill:#952317;}.cls-147{fill:#8c110d;}.cls-148{fill:#911e24;}.cls-149{fill:#faa1a2;}.cls-150{fill:#f0a56a;}.cls-151{fill:#fc5b54;}.cls-152{fill:#8d422d;}.cls-153{fill:#4e1512;}.cls-154{fill:#442f08;}.cls-155{fill:#f88e96;}.cls-156{fill:#4b6c18;}.cls-157{fill:#99171b;}.cls-158{fill:#e5f1b3;}.cls-159{fill:#fde4e2;}.cls-160{fill:#fcd3d3;}.cls-161{fill:#f94c48;}.cls-162{fill:#fbbdbd;}.cls-163{fill:#fcfafa;}.cls-164{fill:#faeabf;}.cls-165{fill:#a2e42b;}.cls-166{fill:#4a0e13;}.cls-167{fill:#fbaaac;}.cls-168{fill:#5d090e;}.cls-169{fill:#f37c7d;}.cls-170{fill:#d8505b;}.cls-171{fill:#fba9b0;}.cls-172{fill:#c1373d;}.cls-173{fill:#f69796;}.cls-174{fill:#cf7453;}.cls-175{fill:#f3a978;}.cls-176{fill:#882c21;}.cls-177{fill:#f9e2ac;}.cls-178{fill:#350607;}.cls-179{fill:#fcf8f7;}.cls-180{fill:#8cc71d;}.cls-181{fill:#c41421;}.cls-182{fill:#5a0c14;}.cls-183{fill:#f2585b;}.cls-184{fill:#fbfbfb;}.cls-185{fill:#831318;}.cls-186{fill:#792113;}.cls-187{fill:#e95f60;}.cls-188{fill:#fcfae3;}.cls-189{fill:#f47c7d;}.cls-190{fill:#f2898a;}.cls-191{fill:#46930b;}.cls-192{fill:#c37859;}.cls-193{fill:#c47859;}.cls-194{fill:#f8bdc0;}.cls-195{fill:#b4c669;}.cls-196{fill:#a4df4e;}.cls-197{fill:#fdf7f5;}.cls-198{fill:#cc7d60;}.cls-199{fill:#f0ae86;}.cls-200{fill:#fdf3f0;}.cls-201{fill:#efa173;}.cls-202{fill:#fbc3c1;}.cls-203{fill:#c27c5e;}.cls-204{fill:#f2767b;}.cls-205{fill:#fcf9f3;}.cls-206{fill:#f9bdba;}.cls-207{fill:#490d10;}.cls-208{fill:#949824;}.cls-209{fill:#cc6349;}.cls-210{fill:#ebf3b5;}.cls-211{fill:#f09c60;}.cls-212{fill:#f0d7ac;}.cls-213{fill:#f8dfc6;}.cls-214{fill:#fdf6f3;}.cls-215{fill:#cc987b;}.cls-216{fill:#fad4d5;}.cls-217{fill:#2b6402;}.cls-218{fill:#72181d;}.cls-219{fill:#7bc41a;}.cls-220{fill:#e39a72;}.cls-221{fill:#de8a69;}.cls-222{fill:#fcdedf;}.cls-223{fill:#e46067;}.cls-224{fill:#f8bcc2;}</style></defs><g id="Laag_1-2"><path class="cls-100" d="M335.62,283.96c-2.76.33-.3-1-.35-.87-.89,2.51-3.7,7.54-6.65,5.87l-1.47-1.24,2.47-7.76-1.7-3c2.67-19.32-1.61-37.66-15.81-51.59l-.48-3.41c-7.59-5.98-15.54-11.78-23.86-17.43.21.98-.4,1.79-1.14,2.43,2.42,1.7,5.36,5.04,2,7,3.37,2.65,2.09,13.47-2,14,2.28,2.27.05,6.36-3,6,.86,3.59-.15,6.66-3,9,1.82,4.13,0,10.79-4,13,.3,9.37-4.62,22.09-9.4,30.3-4.22,7.24-8.29,9.92-16.67,10.94-5.55,10.88-17.94,16.86-29.88,13.91-9.95,10.46-21.15,9.47-34.2,7.09-12.07,5.79-20.95,5.9-33.2.72-13.12,3.48-24.12,1.18-32.98-6.9-12.2,2.7-25.32-2.85-31.19-14.16l-8.23-2.63-.25-2.26c-2.76-1.18.27-6.03,3-5,1.04-2.42,3.4-1.23,5,0-1.07-6.56,4.02-4.28,5,1,1.16,1.18,2.27,2.57,3.34,4.17,2.64.62,3.86,2.23,3.66,4.83l2.35-.44c4.07,3.15,8.46,5.02,13.68,3.8l1.96,1.64c.23-2.82,2.74-3.15,5-2l1.5.18c4.48,8.95,14.88,9.77,23.6,7.33l1.89,1.49c.55-2.94,1.4-3.9,4-2,9.4,5.35,19.61,5.52,29,0,.89-3.36,3.36-2.17,4,1l2.09-1.37c8.24,4.03,21.3,2.44,24.64-7.08l2.26-.55c1.43-2.98,4.08-2.27,4,1l2.32-1.25c10.94,4.25,17.35-4.2,21.18-13.4l1.5-.35c2.45-5.15,5.45-3.24,5,2,2.48-1.64,5.15-2.97,8-4,3.17-11.2,6.97-22.29,11.38-33.27l-1.38-.73c-1.4,2.31-4.18,3.3-8.33,2.99.36,4.04-.53,6.38-2.67,7.01-1.11,2.89-2.48,3.67-5.35,2.15.01-1.68-.87-2.06-2.65-1.15-.62,7.44-12.73,8.57-19.09,7.43-.95,2.39-2.25,3.58-3.91,3.57-1.82,4.3-4.78,2.13-5-2-2.61,7.27-11.89,8.54-18.88,8.06-3.87-.27-10.67-.88-11.12-5.06-1.9,4.71-3.57,5.04-5,1-2.1,7.64-14.3,8.65-21.02,7.71-3.85-.54-11.58-1.86-9.98-6.71.1-2.03,2.1-2.7,6-2l1.68-1.61c9.19,2.12,17.72-1.24,24.33-7.63l5.56.97c10.25,5.22,23.11,4.46,28.31-7.1-.64-2.04,2.63-1.99,4.12-.64,4.11.84,8.24.95,12.38.35l1.62,1.65c2.43-2.77,7.52-7.21,11-6-.81-2.85,1.31-6.72,4-8-.87-.28-.86-.62,0-1l2.08-1.56c16.81,2.11,26.27-19.49,21.54-33.38-2.59,7.16-22.32,33.02-29.22,32.21-.96-.11-1.74-.57-2.39-1.27-3.6,2.18-16.65,8.48-14,1-.57-2.04,3.14-3.33,5-3l.52-1.29c11.69-5.71,20.49-13.61,27.77-24.4l1.71-.31-.4-2.02c2.88-5.3,5.02-10.92,6.52-16.75,4.45-17.36,1.13-31.81-4.11-48.24-2.89-.9-4.89-3.57-6-8-5.55,1.52-6.49-12.14-2-13,2.44,5.06,7.12,8.34,10.41,13.09,7.57,10.95,12.43,28.12,11.57,41.4-.22,3.33-2.97,11.2-1.51,13.53,36.58,20.63,61.97,46.92,53.53,91.99Z"></path><path class="cls-178" d="M335.62,283.96c-13.71,73.18-114.83,93.07-177.55,91.05-57.1-1.84-145.15-25.2-156.45-91.05.52-2.96,5.97-1.9,6,1l1.44.85c2.06,6.92,5.01,13.45,9.09,19.43-.8.86-1.05,1.76-.53,2.72l1.83.79c12.82,16.43,28.71,28.94,47.96,37.02l2.2,3.19,5.75.28c44.15,19.11,88.06,17.65,134.63,13.58.9-.08,1.83.06,2.76.25s1.92.52,2.86.89l3.28-2.59c35.23-6.17,69.82-18.92,94.52-45.79l2.2-.61-.05-3.21c4.76-6.2,8.58-13.13,10.51-20.74l2.54-2.05,6.5-7,.5,2Z"></path><path class="cls-58" d="M60.62,194.96c.45-.22.91-.39,1.37-.4.7-.01,7.24,9.72,6.63,11.4.59,3.65-2.08,3.65-8,0-.18.9-.52.86-1,0-.55-2.29-1.96,1.59-2.74,4.31-1.41,4.95-2.17,9.73-.26,14.69l2.52.62c4.52,10.77,11.04,17.8,23.4,17.42l1.08.96c.85-.31,1.59-.24,1.98.48,7.57,14.01,13.34,16.65,29.68,12.16,9.1,11.27,21.18,15.33,34.31,7.84,4.3-1.26,11.26,4.64,12.03,8.52-.96,3.02-3.56,1.31-6,2,.65,4.01-.02,7.01-2,9-3.74,6-4.78-2.06-5-6-2.07-1.58-4.43-1.43-7.07.45l-1.93-1.45c-2.12,2.9-8.85,2.5-11-1-3.07.58-5.6-.41-8.18-2.04l-1.82,1.04c.04,4.14-3.77,5.03-5,1-2.38-.85-3.44-3.31-3.17-7.35-2.29,1.04-3.9.83-4.83-.65-1.59,3.4-9.5,1.64-10-2-1.86,1.43-3.84,1.1-5.94-.99.44,2.26.09,4.26-1.06,5.99-1.84,3.38-4.62-.63-6-3-3.38-1-3.69-4.34-2-7-2.14-1.6-3.05-5.37-3.64-8.12-2.45.63-3.91,0-4.36-1.88-1.72,1.15-3.05,1.43-4,.84,2.44,10.08,5.35,20.02,8.73,29.81l-.73,1.35c2.22-1.34,2.88-.68,2,2,2.48-1.05,5.38.21,5,3l-3,5c-3.13,2.57-10.03-2.61-8-6-.89-2.83-2.23-5.5-4-8l-2.2-1.12c-3.86-14.08-8.52-27.91-13.98-41.48l1.18-2.4c-3.02,1.64-6.35-3.44-4-6-4.34-1.17-4.21-11.93-1-15-1.76-.45-1.43-2.11,1-5-1.54-1.58-1.21-3.91,1-7-3.43.11-3.37-3.18-1-5,1.06-.64,4.78-3.07,5-4,1.75-3.97,4.93-.15,6,3Z"></path><path class="cls-70" d="M195.62,5.96c1.29-1.49,3.98-5.42,5.71-5.87,6.16-1.6,17.76,17.69,16.3,23.87,11.47-1.71,27.31-18.5,27.79,3.5.18,8.61-3.21,15.06-6.79,22.48,3.49.72,6.7,2.91,9.47,5.04,2.48,1.9,11.46,9.91,11.45,12.48s-3.08,5.44-5,6.93l-15.93,7.57c-4.25,5.05-15-9.34-9-13,.24-.92.57-.9,1,0,3.06,7.96,22.21,4.99,21-3-5.49-3.82-10.82-7.82-16-12-5.2.4-7.2,2.07-6,5,1.78,1.45,2.03,2.59,0,4,2.86.98,2.85,4.99,0,6-1.4,4.63-3.4,6.63-6,6l-1.08-1.06c1.7-3.74,1.98-7.94,1.08-11.94-3.44-.68-4.09-3.94-4-7-3.84-.19-5.07-6.12-1-5l.97-1.09c13.13.72,22.1-12.53,19.03-24.91-.41-.32-.75-.99-1-2-1.38,1.9-4.68,3.37-7,3l-.31,1.11c-5.22,1.8-9.86,4.43-13.69,7.89.33,1.46-1.26,4.51-3,5,1.92,1.94,1.59,2.94-1,3-.03,1-.37,1.67-1,2-2.43,1.63-3.58.82-3-2-1.36,1.99-3.27,1.68-3-1-3.95.51-7.52,1.72-10.71,3.61l-1.29-.61c-3.52.38-.99-6.51,1-7l.45-1.23c2.45,1.23,7.18,1.63,8.55-.77-1.3.52-1.63.3-1-1-2.59-1.38-.66-4.04,2-3,1.12-1.26,2.73-.83,4.82,1.29,1.02-.69,3.84-7.47,3.18-8.29-2.74-.47-4.21-4.06-2-6-2.6.69-2.77-.04-1-2-2.18-2.47-3.51-4.8-4-7-2.34-.13-4.67-.13-7,0-2.83,3.46-5.12.18-3-3Z"></path><path class="cls-207" d="M126.62,63.96c3.6,1.02,3.66,10.3-1,8-12.67.51-15.76,10.08-18.41,20.79l-1.59.21c1.42,1.55,1.45,2.65-.56,2.04-6.71,8.85-8.64,18.78-4.44,28.96.87.28.86.62,0,1-2.11,2.8-5.11,1.13-9-5-1.84.58-2.27-.16-2.52-1.82-5.85-2.15-9.31,14.25-8.48,17.82,1.18.42,1.51,1.75,1,4,3.06-.66,5.07,4.54,2,6-2.76,3.64-2.35,7.75-1.38,12.37l-1.62,1.63c-2.95.33-7.45-2.67-8-6-1.72-1.37-8.48,1.92-9.76,7.46l-2.24.54c-.71,1.82-.71,3.48,0,5,.43.53.43,1.53,0,3,1.31.17,1.42,1.81,1,3,1.04-.34,1.37.66,1,3,2.98-.34,5.31,5.1,3,7-.28.87-.62.86-1,0-2.43,2.9-2.98,6.51-2.45,10.2l-1.55,1.8c-.88-1.13-4.35-2.92-6-3,.32-1.37-.28-3.45.24-5.23,3.61-12.49,1.15-7.64-.12-18.38-1.25-10.51,2.05-17.07,11.91-20.86,2.12-.82,7.08-1.11,8.06-2.18,3.42-3.72-1.27-11.52-1.16-16.84.12-6.5,3.82-12.4,9.15-15.94,2.64-1.76,7.71-2.49,8.87-4.13,1.24-1.77,2.42-8.16,3.89-11.11,3.28-6.56,5.01-10.21,7.97-17.03,5.73-13.23,12.47-11.76,23.2-16.3Z"></path><path class="cls-2" d="M195.62,5.96c.72,1.71.75,3.55,3,3l.61,1.39c-2.65,4.34-4.51,8.87-5.61,13.61.83.2,1.17.53,1,1,4.14,2.73,3.93,6.96-1,4-.49,2.75-2.14,2.69-3,0-3.74,1.46-4.09,1.16-7-2-.25.87-.58.85-1,0l-6.52,1.32c-23.89-.58-34.03,18.01-40.74,37.76-4.38,12.88-8.31,26.87-9.73,40.29l-1,.63c2.48,1.06,2.98,3.13,1,5,3.23,4.93,2.9,7.6-1,8-2.91,1.48-7.33-3.5-5-6-2.94.89-3.73-3.97-1-5-1.96-11.24-1.33-25.07,6-34-2.41-1.6-1.86-3.22,1-3,.09-.3,1.31-.89,1.5-1.83.34-1.72-.96-4.2-.5-6.17,2.34-.99,7.01-14.54,9.19-18.31,10.94-18.87,29.54-29.48,51.74-24.77.61-5.97,4.44-10.73,8.07-14.93Z"></path><path class="cls-67" d="M194.62,36.96c.16.32-1.56,5.76-1,7,1.17,1.58-1.21,4.09-3,4,.28,2.19-.06,2.86-1,2,2.1,7.67,9.01,7.96,16.06,6.57l1.94,1.43c4.08-2.51,5.57.57,3,4,2.71.12,2.97,3.83.64,4.38l-.64,3.62,2.12.39c1.27,3.93,6.06,12.4,8.69,5.05l2.19-.45c3.13-2.05,1.49-5.36,6-6,.18,2.01-.45,3.91.51,5.98.16.34,4.49,5.5,4.78,5.73,1.29,1.06,3.02.83,3.7,1.29,4.38,2.97,5.49,3.99,9,8,1.77,2.33-.29,5.16-3,4-.48.68-1.09,1.02-1.88.94l-6.83-6.43-1.3.49c1.57,2.76,1.85,7.35-2,8,1.2,4.01-2.57,13.56-7,13,1.82,2.97.06,3.65-3,3,1,2.35.31,2.9-2,2-.32.83-.66.83-1,0-6.2,5.61-10.43-1.45-2.87-3.87l.87-2.13-.98-1.73c3.84-4.8,10.36-15.53,10.45-21.42,0-.07-.64.02-1.47.15-4.5,7.92-14.29-3.01-17-8-.53.06-1.06.09-1.57.03-2.43-.32-3.76-8.84-4.14-11.4l-12.37-2.75c-.69-.17-.92-1.02-.92-1.88-4.55-.21-6.55-2.54-6-7-.87-.25-.85-.58,0-1-2.7-2.71-1.6-3.8,1-6-2-2.3,3.24-8.18,6-7l-.09-2.38c-1.91-4.32-1.54-5.86,1.09-4.62,2-1.82,3.05,1.18,3,3Z"></path><path class="cls-166" d="M66.57,51.99c1.09.71,2.57,18.01,8.07,24.45,5.97,6.99,10.4,5.24,16.72,8.28,7.61,3.66-9.06,6.93-12.43,9.05-9.99,6.28-11.41,24.22-12.82,24.2-3.03-.04-3.21-7.13-4.3-9.7-3.02-7.15-6.57-12.85-13.82-16.18-3.77-1.74-7.74-2.09-11.39-3.66-1.17-.51-2.48.02-1.99-1.95.18-.72,9.96-3.18,11.99-4.03,7.72-3.24,11.89-8.6,14.47-16.53.94-2.88,2.04-13.47,2.55-13.96.11-.1,2.73-.11,2.94.03Z"></path><path class="cls-54" d="M49.62,195.96c.13,1,.6,4.61,1,5l-1.43,3.3c-26.6,15.82-46.18,40.4-40.87,72.52l-1.7,2.18c1.14.48,1.85.96,1,2,1.44,1.89,1.44,3.23,0,4l-6-1c-7.66-44.66,12.4-66.48,48-88Z"></path><path class="cls-89" d="M261.62,123.96c-.06,1.95-1.71,4.88-1.01,8.54.05.26,2.56,3.89,3.01,4.46.31,8.18-.07,16.95-7,23,.64,5.58-1.38,7.98-6.05,7.2-2.26,4.41-7.81,7.72-6.95.8-1.26-2.38.27-5.23,3-4,6.99-13.55,12.79-28.28,7.38-43.71-1.79-3.29-2.26-6.05-1.38-8.29-3.15-5.12-6.15-10.42-9-15.9l1-2.1,3-4c7.27,8.32,14.33,22.72,14,34Z"></path><path class="cls-132" d="M276.58,64.98c.72.46.57,9.12,8.52,14,2.51,1.55,8.61,2.1,7.54,5.47-.26.83-8.62,2.72-11.07,4.95-3.79,3.46-3.55,8.74-6.45,12.53-2.48-2.22-1.96-5.97-3.28-8.7-3.24-6.69-10.15-5.78-15.2-9.78,5.96-4.75,10.88-3.15,14.86-11.12,1.38-2.76,1.73-9.46,5.08-7.35Z"></path><path class="cls-215" d="M195.62,327.96c-.67.59-1.37,1.15-2.13,1.58-7.97,4.51-44.41.64-55.37-.76-20.49-2.61-68.11-16.01-72.18-39.42-.52-3-.81-7.87,2.68-8.41,2.19.43,3.82,3.72,4,6,2.99,3.59,3.73,4.1,8,6,3.23,1.44,7.7,1.99,9.41,3.09s3.66,6.02,6.57,8.43c3.73,3.09,11.89,6.23,16.68,6.41,2.7.1,5.15-1.48,7.62-.78s5.99,6.05,12.48,7.59c8.76,2.08,14.32-1.49,20.65-.74,4.29.51,8.47,3.98,15.08,4.06,7.79.1,12.76-4.38,17.17-4.82,3.63-.36,11.49,2.47,18.59,1.49,8.17-1.13,13.52-8.15,15.37-8.51,1.25-.24,5.18.96,7.87.77,4.97-.35,12.46-3.52,16.01-7.01,1.84-1.81,3.85-6.71,5.5-7.5,3.21-1.54,5.95-.13,10.5-3.5,7.75-5.74,13.08-26.32,16.51-35.99,4.71,1.82,6.15,12.21,6.57,17.34,1.95,23.96-15.43,34.59-35.36,43.05-16.06,6.81-34.93,12.55-52.21,11.62Z"></path><path class="cls-30" d="M309.62,279.96c2.48,1.47,1.82,2.58-1,3,.45.99.93,2.14.62,3.25-1.53,5.48-11.77,15.16-16.44,18.94-17.67,14.28-40.66,22.44-62.34,28.19l-2.84-1.37-2.67-.16c-10.69,2.67-20.14,2.39-29.33-3.84,22.64-2.67,68.11-14.28,81.24-34.26,7.48-11.39,4.48-26.1-.24-37.74,1.5-4.24,2.56-8.71,4-13,5.06-1.38,13,6.02,16.96,9.83,7.67,7.37,13.54,16.1,12.04,27.17Z"></path><path class="cls-212" d="M311.62,221.96c17.78,18.24,20.79,32.73,18,58-.24,12.61-30.73,44.49-40.68,45.15-.77.05-1.54-.03-2.32-.15-6.57,1.21-5.55-5.31-2-9l.33-2.64c9.32-6.85,17.59-15.31,24.05-24.92l2.62-.44c-.01-3.64,1.01-7.32,3.06-11.04.49-4.03,1.8-7.35,3.94-9.96l-1.91-1.31c.36-3.68,1-7.24,1.91-10.69l-2.26-1.92c-2.75-15.14-13.99-26.97-26.17-35.62l-1.57-3.46c-.13-.96-1.57-5.67-2-7l2.59-1.16c7.86,5.11,15.33,10.49,22.41,16.16Z"></path><path class="cls-106" d="M254.62,243.96l-2.77.6c-6.92,7.72-18.2,10.1-28.23,10.4-1.23,1.96-2.26,3.17-3.66,1.24-7.44.26-14.99.14-22.34-.24-2.37.13-2.5-.96-2-3,.57-4.23,10.57-8.56,12.5-4-.28-2.97,14.87-2.41,15.6-2s1.15,1.2,1.4,2l.93-2.1c7.22-1.37,14.07-3.66,20.57-6.9,13.56-4.24,25.26-22.84,31.5-35,8.61,10.58,0,33.91-11.76,38.23-2.95,1.08-8.79,1.87-11.73.77Z"></path><path class="cls-82" d="M210.62,237.96c2.48-1.77,5.65,1.35,4,4l-.04.89c2.4-1.39,5.41-1.68,9.04-.89,1.05-1.52,7.94-3.09,9-1,.15.06.36,1.92,2.44,1.97.6.01,10.16-2.52,11.56-2.97-1.91,2.49-6.15,4.4-9.02,5.48-2.69,1.02-10.08,3.52-12.48,3.52h-17c-8.4,0-6.34,1.61-12.5,4l-.78,2.34c-19.75,6.04-34.66,8.23-54.04.6-1.45-.57-11.79-5.04-11.78-5.69.02-.81.05-1.56.6-2.24-12.2-6.42,5.01-11.79,6-3,3.01-.71,4.34-.05,4,2,12.77,4.67,25.59,5.72,38.46,3.14l1.54.86c6.48-2.84,13.01-5.77,19.6-8.76l1.4.76c.84-2.64,7.68-7.06,10-5Z"></path><path class="cls-53" d="M249.62,260.96c1.13-.79,2.9-.8,3.87.27.7.77-3.17,18.51-6.87,18.73-3.28,10.51-10.38,24.05-23.07,15.11l.07-5.11c-2.27-4.43-.93-14.92,3-18,.39-1.73,1.81-3.53,1-6.01,9.72,1.52,14.7,1.57,22-4.99Z"></path><path class="cls-193" d="M318.62,254.96l-.79,2.31c-.02,7.27-1.43,9.5-4.21,6.69-3.25-.12-5-5.93-3-8l-2.94-1.39c-5.17-9.94-12.79-17.29-21.31-24.17l.25-2.44c1.17-3.74,2.51-10.17,2-14,13.85,8.95,28.31,23.75,30,41Z"></path><path class="cls-6" d="M82.62,241.96c2.29-5.02,6.42-.78,7.02,3.56,5.4,6.28,13.12,8.98,23.15,8.09l4.52.88c6.88,7.75,20.04,10.07,30,7.02,6.2.54,12.21,2.03,18.03,4.46,5.5-.42,10.92-.43,16.27-.02.98-4.51,7.87-5.27,12.07-5.1,8.55,2.1,15.95,1.51,22.2-1.75l-16.87-.35-2.4-1.81c-1.52-1.52-.9-2.16,1-1,8.77-.84,16.71.42,26-1,.96.11,1.63.44,2,1,.87.28.86.62,0,1-4.13-.97-2.81,2.5-4.54,4.96-8.26,11.79-22.83,8.6-33.38,2.07-3.65,9.1-17.68,11.6-26.09,8.96-3.52-1.11-8.98-7.78-9.59-7.94-1.04-.26-7.08,4.18-10.15,4.7-12.55,2.14-20.37-2.11-26.74-12.58-6.21,4.2-13.78,4.71-20.52,1.33s-7.83-8.79-10.99-14.51c-2.13-.06-2.68-.49-1-2Z"></path><path class="cls-33" d="M328.62,288.96c-2.26,10.47-6.65,17.93-13,26l-2.01.06c-4.32,5.85-24.96,21.82-31.43,20.74-3.33-.55-6.11-4.8-2.56-6.8.66-3.53,3.62-5.25,7-4,18.96-11.37,33.01-25.04,43-45-.29,2.65-.48,6.6-1,9Z"></path><path class="cls-42" d="M105.62,267.96c5.99.65,10.08,25.02,9.03,27.24l-2.03,2.76c-2.57,4.06-7.48,1.27-10.51-.95l-1.49.95c-3.5-2.97-5.55-4.74-7-9-.73-1.07-.73-1.74,0-2,.87-.4,1.9-.79,2.56-.11l-3.85-12.99c-1.05-3.66-2.04-9.39,3.28-7.9,2.58.98,7.33,2.25,10,2Z"></path><path class="cls-40" d="M186.62,277.96l-.54,4.11c2.23,2.89,3.05,9.02-1.46,8.89-1.71-.92-2.66-2.98-2.84-6.18-7.77,1.33-15.61,1.33-23.54,0l-1.62-1.82c.51,0,.99.05,1.33.29.8.56,1.96,17.03-1.33,17.21l1.28-.35c2.88,11.46,20.06,10.66,23.39-.37l2.33-.78c2.82.96,3.12,8.07,0,9-2.11,8.35-27.21,7.84-29,0l-2.16-1.21.2-16.23c-1.17-3.38-.85-5.56.95-6.56-.15-2.77.09-5.59-.04-8.37.21-1.21,1.44-.46,2.04-.63,6.04,7.13,18.1,5.79,26.01,2.51,1.88-.78,4.02-3.38,4.99-3.51,1.95,1.26,1.95,2.74,0,4Z"></path><path class="cls-19" d="M219.62,281.96c-.28.87-.62.86-1,0l-1.98-1.26c-6.03,1.85-12.3,2.39-18.54,2.55-1.24,6.88-2.33,13.98-1.24,20.93l-1.24,1.78c-1.64,3.47-8.84.09-7-4-2.27-5.6-1.52-13.13,2-18-2.89-2.78-1.75-8.56,1-11,6.78,3.58,16.6,4.28,23.69,1.19,1.63-.71,5.54-4.24,6.31-4.19,2.81,2.91,1.69,10.13-2,12Z"></path><path class="cls-105" d="M306.62,257.96c2.64.84,4.12,3.37,4.42,7.58.99,3.56,3.92,15.2-1.42,14.42-.1-16.14-15.8-29.63-29-37,1.01-2.99,1.98-6.01,3-9l2.46-.72c8.34,6.16,16.39,13.29,21.61,22.37l-1.07,2.35Z"></path><path class="cls-49" d="M268.62,249.96l1.02,1.49c-4.33,10.8-8.01,21.63-11.02,32.51-.59.99-.54,2.29-1.68,3.05-1.46.97-5.06,2.27-6.32.95-.94-8.84,2.24-20.46,7-28,.27-1.46.57-8.49,1.05-8.94.37-.34,8.21-.39,9.95-1.06Z"></path><path class="cls-129" d="M267.62,211.96c-3.12,3.06-4.31,1.75-2-2l-.45-3.38c5.87-11.61,7.18-24.78,6.46-37.6,1.5-1.91,1.83-4.24.99-7.02l-2.24-1.11c-.5-4.08-1.08-8.05-1.76-11.89-1.47-2.02-2.39-5.23,1-4,12.24,22.18,10.31,45.26-2,67Z"></path><path class="cls-50" d="M216.62,299.96c-1.68,5.76-3.79,7.93-9.45,10.05-8.3,3.1-11.69,1.77-19.55-1.05-3.16-1.46-2.63-7.05,1-7-1.28,1.66,5.41,3.76,7,4l1.73-1.82c11.62.65,17.69-10.97,19.11-21.05l2.15-1.13h1c2.61,1.55.47,14.96-.72,16.97l-2.28,1.03Z"></path><path class="cls-5" d="M286.62,227.96l12.51,10.99c4.34,5.46,8.48,10.64,11.49,17.01,1.39,3.69-2.32,5.65-4,2-3.91-8.62-15.18-18.67-23-24,.54-1.58,2.39-4.06,3-6Z"></path><path class="cls-209" d="M245.62,285.96c-3.67,12.31-11.48,20.7-25,15-3.33-1.42-.27-10.82,3-11-.1,5.18,6.02,6.88,10.06,5.56,7-2.3,8.57-10.69,12.94-15.56,3.03,1.49,1.89,5.02-1,6Z"></path><path class="cls-60" d="M249.62,260.96c4.31-3.87,1.87,1.99,8-1-1.76,9.43-4.74,18.69-7,28-2.03-2.12.54-4.26-5-2,.63-2.1.55-4.43,1-6,1.48-5.17,3.61-10.7,4.57-15.94.35-1.93,1.55-3.51-1.57-3.06Z"></path><path class="cls-101" d="M122.62,293.96c1.69,2.77,2.03,5.1,1,7-1.57,1.71-3.08,1.56-5,2-2.33-.51-2.83-2.29-1-4-4.34-6.02-5.43-15.77-4-23,1.61,1.15,3.76.4,5-1l2.22,1.42,3.32,15.37-1.55,2.22Z"></path><path class="cls-174" d="M126.62,300.96c.78.52,1.63.48,2.52.05,3.58,4.92,10.33,5.84,15.23,2.66l2.25.3c1.2-2.33,1.69-3.73,1.25-6.8l1.75-1.2c4.48-.81,3.73,11.99,1,14-9.8,3.42-22.9,2.13-27-9-.71-1.93-.56-5.04-1-7,3.47-1.88,5.37,4.49,4,7Z"></path><path class="cls-96" d="M221.62,269.96c.29.02,2.29,3.49,5,2-1.28,5.75-1.79,12.41-3,18-.75,3.45-2.86,7.29-3,11-1.33-.56-2.46-1.2-4-1,1.45-4.97,2.03-12.59,3-18,.71-3.97,1.82-7.93,2-12Z"></path><path class="cls-1" d="M254.62,243.96v1c-2.95,2.11-4.29,4.78-4,8-2.73,2.72-7.27,5-11,6-1.31-.41-1.73-1.4-1.27-2.98-4.88,1.59-9.13,1.58-12.73-.02-.85-.03-1.72-.05-2-1,8.01-1.22,18.42-4.87,25.34-9.16,1.21-.75,3.83-3.74,4.18-3.77.61-.04,1.25,1.85,1.48,1.93Z"></path><path class="cls-176" d="M186.62,277.96l1.33.41c.24,2.13,1.13,3.99,2.67,5.59-.62,5.96-1.15,12.08-2,18-.24,1.7-1.93,4.36-1,7-1.33-.48-2.46-1.23-4-1,.58-2.31-.41-6.38,0-9-2.41-1.2-1.67-7.47,1-8,2.75-3.33-.75-9.67,2-13Z"></path><path class="cls-32" d="M265.62,209.96c-.24,2.13-.13,2.24,2,2-8.34,14.72-16.04,18.36-30,26-3.47.86-2.3-.21,0-2-1.29-2.43-.51-3.19,2-2,6.73-5.23,13.3-10.79,18.31-17.76l2.69-.24c.06-3.04,1.01-6.45,5-6Z"></path><path class="cls-36" d="M148.62,277.96c.97,4.61.19,6.98,5,6,.12,2.19.97,4.23,1.04,6.46.16,4.79-.95,13.58-.04,17.54-1.36.54-2.64,1.53-4,2-.54-4.42,1.24-10.18-1-14-2.18-3.18-3.05-10.94-2.83-15.08l1.83-2.92Z"></path><path class="cls-79" d="M258.62,283.96c-1.78-.92-.97-3.56-.57-5.06,2.47-9.26,8.49-19.31,10.57-28.94,1.13-.44,3.32-3.11,4.5-4,.84,2.19-1.92,5.47-2.97,8.03-3.87,9.45-6.43,21.4-11.53,29.97Z"></path><path class="cls-153" d="M88.62,270.96c3.88,2.99,6.75,11.38,5,16,.17.54-.18,1.48,0,2-1.11-.99-2.31-3.88-3.98-2.99-.1.05-.22,1.28-1.02,1.99-2.84.51-4.64-2.23-2-4-4.02-3.83-5.63-10.71-4-16l6,3Z"></path><path class="cls-115" d="M112.62,297.96c.94-4.04,3.92-2.72,5,1,.19.87,1.74,2.3,1,4-8.09,1.84-12.07.03-18-5-.95-6.11,4.22-.78,6.75-.23,1.85.4,3.49.12,5.25.23Z"></path><path class="cls-142" d="M311.62,221.96c-1.69,1.77-2.37-.05-3.51-.98-6.34-5.15-13.91-11.43-21.49-14.02-.48-1.47-2.19-3.97-2.99-5.51-.22-.68.83-.69,1.47-.48,6.28,2.04,21.52,15.86,26.52,20.99Z"></path><path class="cls-106" d="M225.62,255.96c2.94.11,14.93-3,15.99-1.99l-1.99,4.99c-5.05,1.36-9.79,1.8-14-2v-1Z"></path><path class="cls-22" d="M191.62,272.96c.03,3.69-.62,7.34-1,11-5.04-.62-4-1.74-4-6,0-1.33,0-2.67,0-4,1.48-.2,3.46,2.58,4.02-2,.86-.23.82.92.98,1Z"></path><path class="cls-90" d="M237.62,235.96l-.97,1.5.97.5c-1.54.84-3.26,2.23-5,3-.5-.2-7.38.82-9,1-5.98.57-8.51-1.01-1.28-3.58,1.27-.45,12.6-3.56,13.29-3.61l1.99,1.19Z"></path><path class="cls-141" d="M86.62,283.96c.26,1.05,1.36,2.97,2,4-1.73,1.53-2.87.73-5,0s-3.39-1.49-5-3c-1.27-5.91,5.37-6.19,8-1Z"></path><path class="cls-224" d="M263.62,136.96c2.4,3.01,3.4,3.29,6,8-1.28.53-1.25,2.94-1,4-.28.87-.62.86-1,0-4.88-.39-4.63-7.82-4-12Z"></path><path class="cls-106" d="M254.62,244.96c-1.15,3.82-1.17,5.18-4,8-4.06-3.82-.68-7.95,4-8Z"></path><path class="cls-14" d="M64.62,332.96c2.09,1.07,3.75,1.74,5,2l2.69-1c12.34,4.34,24.73,8.54,37.16,12.61,12.34,1.61,24.7,2.77,37.05,3.49l2.1,1.9c12.48-1.02,25.15-1.02,38,0,.84-2.88,1.55-2.45,3,0,15.28-3.08,30.55-6.21,45.82-9.41l6.18.41c7.08,2.1,3.72,7.58-2.25,9.04l-12.21,2.33c-3.22,3.6-5.64,5.65-10.73,3.83,2.08,2.8,3.11,4.51-.81,5.79-47.79,7.94-101.47,4.79-146-15-1.82-.95-1.41-3.03,1.23-6.25-2.6-1.24-13.62-8.66-13.77-10.8-.14-1.99.53-2.39,2.54-1.95,2.79-1.65,5.14-.24,5,3Z"></path><path class="cls-192" d="M279.62,328.96c-.24,2.71,1.36,5.4,4.23,4.83.72-.14,11.84-5.99,13.04-6.79,3.34-2.22,8.73-7.11,12.94-10.1,1.03-.73,5.4-7.65,5.79-1.94-23.33,29.63-63.83,42.99-100,49,3.02-3.52-4.06-4.69-1.01-7.51,1.54-1,3.98.61,6.29.35,2.88-.33,2.91-3.3,5.68-4.37,4.33-1.67,16.31-1.17,17.06-5.95.49-3.18-4.81.27-2.01-3.51.4-3.16,9.45-5.28,12-4,7.57-3.57,15.17-7.1,22.82-10.6l3.18.6Z"></path><path class="cls-203" d="M18.62,298.96l3.79,1.27c9.94,10.96,22.45,18.96,35.2,26.26l2.01,3.47c-1.9,2.26.06,2.08,1.28,3.21,3.67,3.39,8.52,6.96,13.19,8.81,4.97,1.97,10.56,1.67,14.52,5.48-3.25,1.99-12.58-4.9-14.4-4.44-.36.09-4.76,4.59-4.59,5.93-22.58-10.03-38.25-20.1-52-41-.26-2.49-.6-5.11-1.03-7.83l2.03-1.17Z"></path><path class="cls-10" d="M9.62,282.96c1.97.26,2.64,1.93,2,5,3.49.33,7.82,7.69,7,11-.63,7.26,7.01,9.7,8.99,16-3.09-1.99-5.28-5.08-7.99-7.5-1.49-1.33-2.2-2.83-2,.5-4.77-7.24-9.09-13.83-10-23-.13-1.31.09-2.68,0-4,1.15-.94,1.7.69,2,2Z"></path><path class="cls-99" d="M53.62,233.96c3.13,7.41,14.4,38.49,15,45,.83.91.83,1.58,0,2,.01,1.77-1.23,3.65-.96,6.38,1.99,20.28,38.1,32.26,54.75,36.33,22.77,5.55,49.98,7.04,73.21,4.29,4.7-1.45,10.51,3.39,13.71,3.81.89.12,7.58.25,8.84.23,3.21-.06,6.89-2.13,9.45-.04-.62.67-1.25,1.3-1.97,1.82-6.82,4.9-44.14,6.59-54.67,6.71-50.82.6-109.59-12.09-142.57-52.52l.22-4.01c-4.09-.84-3.99-7.41-3.92-11.13.3-16.19,13.39-31.19,26.34-39.63l2.58.76Z"></path><path class="cls-188" d="M48.62,212.96l-1.19,2.92c-13.75,10.52-25.59,24.01-27.5,41.85-1.45.78-2.22,2.53-2.31,5.23-.89,2.21-1.62,5.39-1.03,8.03,8.94,40.18,52.74,58.86,88.69,68.88,2.73,4.05,7.18,5.07,13.36,3.08,12.09,1.14,24.4,2.77,35.98,4.65v2.36c1.48,2.67-4,2.73-6.01,2-20.08,1.33-60.38-8.54-79-17-1.54-.51-3.2-1.18-5-2-1.69-1.06-3.27-2-5-3-15.71-9.05-29.14-17.08-41-31-3.09-3.63-4.75-6.91-7-11l-.59-7.29c-6.36-13.03-3.53-27.1,3.16-39.41,7.67-14.12,18.58-30.93,35.43-33.3-.33,1.37-.88,3.72-1,5Z"></path><path class="cls-1" d="M97.62,239.96c9.59,1.69,19.21,3.32,28.89,4.86l3.11,3.14c5.4,6.12,24.48,11.51,32.51,11.98,8.85.52,25.04-3.71,33.49-6.98,1.43.43,1.99,1.54,2,3-.45.04-.9.53-1,1l-1.58,2.21c-11.02,2.48-22.04,4.54-33.42,2.79l-2.44,1.85c-11.65-1.66-22.07-5.75-32.85-10.29-23.14-2.47-37.07-8.45-53.52-25.66-4.95-5.18-9.32-10.9-13.45-16.74l.26-3.17c-2.08-.09-2.05-1.46,0-2,.33,0,.67.01,1,0,6.54,3.22,13.18,7.71,18.93,12.09,3.79,8.73,9.06,15.16,17.81,19.5l.26,2.42Z"></path><path class="cls-24" d="M49.62,227.96l.38,2.41c-12.68,9.69-21.02,21.69-25.02,36.01l-2.36.58-4,1c-3.08.35-2.89-3.35-1-5,.15-21.83,13.72-38.33,31-50-.4,4.25-.21,10.91,1,15Z"></path><path class="cls-35" d="M139.62,276.96c2.2-.66,3.29-.26,2.73,2.03,2.79.43,3.53,1.75,4.57,4.08.7,1.57,1.59,19.35.9,20.09-.32.34-.74.58-1.2.79-.34.19-.84,1.69-2.24,2.21-7.32,2.69-13.19,1.44-17.76-5.21-.2-4.7-1.1-9.55-2.69-14.55-2.91-8.65-1.35-12.13,4.69-10.45,3.19-.15,6.92,1.63,11,1Z"></path><path class="cls-197" d="M64.62,182.96c.82,1.07,1.25,2.5,1.45,3.84,1.67,10.92,2.32,14.42,13.23,19.81,6.55,3.24,14.18,5.01,21.32,6.35l1.84-2.07,17.16-1.93,1.26-2.35c5.5-1.34,11.03-2.55,16.74-2.65l2.39-3.14c10.12-5.14,19.99-10.76,29.61-16.86,3.96-2.86,4.69.11,2,3l.21.5c-10.15,15.57-29.72,22.08-47.21,26.5l-1.55,2.28-9.45-.28-1.81,1.29c-5.27-.68-10.67-1.11-16.19-1.29-1.8,2.64-5.18,2.11-6-1-7.73,1.81-14.84-1.43-20.98-6.37l-.02-2.63c-5.57-4.81-4.84-6.93-8-11-1.48-3.65-.48-11.49,4-12Z"></path><path class="cls-205" d="M50.62,200.96c.24.23,1.95-.52,2,.48-1.23,1.78-2.5,4.46-3,6.52-1.96,3.57-6.42,3.2-9.52,4.98-1.96,1.12-7.97,6.24-10,8.04-3.87,3.43-3.22,4.03-5.39,7.56-8.79,14.25-17.43,22.95-15,41.85.68,5.3,5.32,11.99,1.92,17.58-.98-1.79-1.28-3.42-2-5-.6-1.68-1.5-3.02-3-4-1.99-11.89-.07-31.02,5.82-41.68,8.68-15.74,23.5-26.78,38.18-36.32Z"></path><path class="cls-152" d="M53.62,233.96c-16.01,9.53-32.7,30.4-25,50,.96,3.49.29,5.49-2,6-4.96,1.55-11.07-20.45-10.18-21.35.59-.59,1.38-.72,2.18-.65.22-2.78,2.19-2.15,4-1,.86-1.51,1.08-5.41,1.96-7.54,2.6-6.31,6.5-12.89,11.01-17.98l14.03-13.47c.95,3.22,3.58,5.01,4,6Z"></path><path class="cls-92" d="M68.62,205.96c7.41,6.39,11.96,7.05,21,9,.79,2.01-.36,3.06-3.45,3.16l-1.55,1.84c3.47,1.52,4.81,3.18,4,5,6.65,7.37,16.12,10.68,25.58,12.59l.42,1.41c-1,3.75-6.22,3.33-9.5,2.99l-7.5-1.99c-4.42-2.31-10.23-6.25-13.51-9.99-2.89-3.3-5.53-10.8-7.52-12.48-1.41-1.19-3.74-1.31-5.46-2.54-3.57-2.56-7.6-5.69-10.52-8.98.3-.01.95-.72,1.49-.58,2.06.5,4.88,3.1,6.51.58Z"></path><path class="cls-46" d="M82.62,241.96c.33.67.64,1.35,1,2-15.7,2.57-21.14-6.67-27-19-1.26-2.13-1.26-3.8,0-5,1.85-1.45,3.66-.62,5.45,2.49,4.17,8.89,9.64,14.68,19.62,17.16l.93,2.35Z"></path><path class="cls-23" d="M95.62,265.96c-1.74.92-2.13,1.39-2.1,3.45.05,3.9,6.92,22.65,6.1,23.55-3.6.16-3.83-4.19-5.99-5.99-1.65-5.19-3.72-10.73-5-16-.88-3.61-1.46-7.32-1.99-11,2.95,2.42,5.29,4.59,8.99,6Z"></path><path class="cls-125" d="M128.62,275.96c-.21,0-2.43,1.81-4.01,1-1.12,1.02,3.52,17.6,3.9,20.63.24,1.91,1.04,3.91-1.9,3.37-1.47-2.13-1.87-5.24-4-7-1.27-5.71-3.3-13.45-4-19-.12-.94-.38-3.5.49-3.99l9.51,4.99Z"></path><path class="cls-221" d="M139.62,276.96c1.48-.23,7.97-4.01,9-3,.19,1.26-.24,2.85,0,4,.29,6.09,1.1,11.85,1,18-.03,1.6.31,7.48-.09,7.94s-2.45-.2-2.91.06c-1.1-4.45.28-20.94-2.99-22.51-2.17-1.04-5.26.33-7-2l4.49-.49-1.5-2.01Z"></path><path class="cls-198" d="M105.62,267.96c.91-.08,6.43-2.65,6.99-2-.58,3.55.47,6.65,1.01,10,1.22,7.61,2.4,15.47,4,23-1.92-2.45-3.42-.9-5-1,.29-8.61-1.3-17.85-4.7-25.76-.61-1.43-2.72-.87-2.3-4.24Z"></path><path class="cls-220" d="M80.62,260.96c.63,2.4,1.34,4.64,2,7,1.51,5.37,2.68,10.59,4,16-3.89-.91-7.31-3.76-8,1-.81-.76-1.18-.75-2-2,.53-1.99.27-4.1-.78-6.32l1.78-1.68c-2.66-6.37-2.32-11.04,1-14,.34-2.67,1.18-2.52,2,0Z"></path><path class="cls-68" d="M72.62,250.96c.97,1.82-.24,3.4-2,4l1.34.31c3.01,6.1,4.9,12.66,5.66,19.69.2,3.01,2.94,8.82-1,8-5.55-8.48-6.24-25.12-12.01-34.5l.51-1.5c2.08,2.05,4.61,3.49,7.5,3.99Z"></path><path class="cls-138" d="M72.62,250.96c1.49.26,5.19-.48,5.9.1.39.32,1.63,8.13,2.1,9.9h-2c-2.85-1.28-5.52-3.28-8-6-.24-2.23,0-2.99,2-4Z"></path><path class="cls-213" d="M59.62,205.96c-.13.6.19,1.6,0,2,.67,3.11-.1,10.66-3,12-.02,1.67.02,3.33,0,5-.48-1.01-1.6-1.19-1.95-3.53-.86-5.72-.17-13.53,4.45-17.47l.5,2Z"></path><path class="cls-100" d="M72.62,286.96c-1.68-2.02-2.68-3.78-4-6,0-.66.06-1.35,0-2,2.23,2.08,5.73,4.89,4,8Z"></path><path class="cls-28" d="M238.62,23.96c3.43,13.11-6.97,26.34-20,24-2.8.39-3.47-.28-2-2l-.71-1.71c-3.33,2.32-5.22,1.81-3.29-2.29.34-.8.3-1.63,1-3,1.47-1.15,2.8-2.49,4-4,1.14-5.2,9.98-8.31,15-9,1.31-1.3,2.97-2.63,5-4,1.32.05.76,1.41,1,2Z"></path><path class="cls-55" d="M235.62,53.96c1.46,2.54-2.08.62-1.44.62,4.22,0,14.12,8.78,16.44,12.38,2.56,4.04-6.5,6.59-9.9,6.6-4.54.02-7.89,0-10.1-4.6-.29-.05-.71-.04-1,0-.18-1.97.1-4.02,0-6,.18-.84.69-1.28,1.4-1.67,1.77-.97.57.88-.44-.21-.56-.6-.87-1.3-.96-2.12-6.32-3.33-.69-5.79,3.66-6,1.6-.08,1.96.9,2.34,1Z"></path><path class="cls-66" d="M219.62,54.96c1.5,2.58,2.85,2.71,4,7,2.48,10.37-4.2,22.61-11.01,8.2l-1.99-.2c-.43-2.33.32-5.53,0-8-.21-5.07,4.54-6.62,9-7Z"></path><path class="cls-191" d="M204.62,19.96l2.1.99c-1.08,2.69,4.47,4.69,5.9,3.01.23,1.18,1.41,1.67,1,4.39s-2.61,4.06-3.02,6.6c-.92.67-5.13-3.13-5.98-3.99-1.85,1.14-3.66-1.07-4-3-1.61-1.98-1.94-6.29,1-7-5.69-7.78,7.84-8.3,3-1Z"></path><path class="cls-85" d="M218.62,49.96c-1.52,1.78-2.52,1.44-3-1-.85-2.05,1.54-2.17,3-1,13.83-5.06,20.59-6.06,20-24,4.92,11.91-6.53,30.75-20,26Z"></path><path class="cls-112" d="M223.62,74.96c-3.72,12.19-11.9,1.01-13-5l1.5-4c1.84,1.34,4.5,9.49,6.93,8.96,3.89-.85,5.42-9.54,4.58-12.96,1.32,4.96,1.56,7.89,0,13Z"></path><path class="cls-165" d="M203.62,9.96c2.47.75,4.47,2.75,6,6,.34.69.68,1.22,1,2,.59,2.97-4.49,4.52-6,2-1.76-6.07-2.15-4.98-3,1-1.63,5.37-5.64,1.69-5-3-1.94-2.53,4.22-11.93,7-8Z"></path><path class="cls-56" d="M212.62,41.96c-.32,3.11.61,1.86,2.3.8,5.19-3.28,9.9-8.4,15.7-10.79,1.45,1.39-12.49,13-14,13.99-3,8.63-13.45-.72-5-2,.32-.72.75-1.41,1-2Z"></path><path class="cls-13" d="M230.62,68.96c2.71.43,3.13,2.33,4.7,2.79,4.73,1.4,13.46.06,15.3-4.79-1.38-1.43-.77-1.99,1-1,1.07,1.06,3.23,1.39,1.54,4.04-2.44,3.85-23.35,9.58-22.54-1.04Z"></path><path class="cls-117" d="M218.62,49.96l-.88.47c.75,1.43,1.08,3.15,1.88,4.53l-1.01,3.99-2.48-1.99-5.51,4.99c-.26-2.01-.65-4.66-3-4-.82-1.94.51-3.28,4-4-1.13-2.47,1.11-5.95,4-5,1.45-.54,2.3.75,3,1Z"></path><path class="cls-143" d="M198.62,8.96c3.82-4.57,3.45-3.88,7,0,.91,2.51.05,2.49-2,1-4.26,1.55-5.34,3.96-7,8,1.1,3.7,2.55,8.92-3,6-.98-3.92,2.41-11.91,5-15Z"></path><path class="cls-180" d="M210.62,17.96c1.02,2.53,1.42,2.99,2,6,1.88,4.76-5.23,1.74-6.43.93-2.45-1.66-1.1-3.3-1.57-4.93l6-2Z"></path><path class="cls-196" d="M208.62,41.96c1.24,3.05-1.97,5.14-9.65,6.26l-3.35,2.74c.82,3.12-.51,3.12-4,0-.91,2.79-2.15,1.61-2-1,.32-.87.54-1.24,1-2,4.61-3.54,8.5-6.45,15-7,.38.05,2.49.78,3,1Z"></path><path class="cls-154" d="M200.62,27.96c1.51.73,2.47-.16,2.86.09.48.31.56,2.32,1.14,2.91l-2,3c-1.83,1.91-7.32.18-7-3-2.3,1.76-3.29.52-2-2,3.07.63,2.26-1.74,1-4,2.04-2.17,6.47.04,6,3Z"></path><path class="cls-158" d="M230.62,24.96c1.88-.45,2.55-.12,2,1-4.92,2.53-11.08,5-15,9-1.41,1.33-1.92.77-1-1,.29-.39.14-1.71.95-2.52,3.83-3.87,8.48-4.79,13.05-6.48Z"></path><path class="cls-78" d="M211.62,43.96c-.66,1.46-2.45,2.19-2,3.99,3.18.57,4.61-.43,7-1.99l2,2c-.9.33-1.63-.55-3,1s-1.89,2.88-4,5c-.96.9-1.62.9-2,0l-1.65-1.55c1.4-4.1-2.08-4.1-10.44-.02l-1.92-1.43c.72-7.23,11.65-3.08,13-9,1.02.44,1.97,1.47,3,2Z"></path><path class="cls-83" d="M235.62,53.96c6.19,1.65,11.43,7.49,16,12-.22.38-.89.71-1,1-5.84-4.05-10.62-9.53-17.49-12l2.49-1Z"></path><path class="cls-127" d="M190.62,28.96c.76.25,2.31-.27,3,0,.55.21,1.36,1.72,2,2,.78,2.96,3.45,4.29,8,4,.72.53,2.01.84,2,1.99h-11c-.09-.18-2.06-1.57-3-2.99-4.08.41-6.52-6.45-1-5Z"></path><path class="cls-217" d="M229.62,58.96c.43.23,1.81-.05,2.9.56,4.05,2.29,7.78,5.13,12.11,6.94l-3.85-.16-11.16-3.34c-.03-.63-1.39-2.28,0-4Z"></path><path class="cls-210" d="M205.62,40.96c-2.66,2.21-6.46,2.46-9.36,4.14-.96.56-6.33,7.36-5.64,2.86.59-.97,2.27-3.38,3-4,3.58-3.06,7.34-3.61,12-3Z"></path><path class="cls-208" d="M202.62,33.96c.33.2.62.72,1,1-3.9,2.54-11.27,1.53-8-4,1.83.8,5.58,2.14,7,3Z"></path><path class="cls-121" d="M209.62,15.96l-6-6c.69-.25,1.65.03,2-1,2.63,2.87,2.54,4.07,4,7Z"></path><path class="cls-91" d="M217.62,34.96c-.52.53-1.39,4.34-3.51,4.98l-.49-.98c1.34-2.64,1.24-2.59,3-5l1,1Z"></path><path class="cls-195" d="M237.62,21.96c.61,2.45-2.92,2.93-5,4l-2-1c2.12-.79,4.58-2.47,7-3Z"></path><path class="cls-163" d="M80.62,135.96c-1.94-9.25-1.5-18.07,9.4-20.07,1.06.18,1.25,3.15,1.6,4.07,2.55,1.09,3.11,2.04,3.57,4.63,14.64,15.79,36.17,14.06,53.98,6.33l1.45.03c-1.03-3.52,5.62-5.38,7-2,1.18.24,2.18.57,3,1-1.82,7.72-14.62,12.45-22.14,14.41-19.36,5.03-39.34.28-54.59-12.13-.27,1.98-1.28,3.19-3.26,3.72Z"></path><path class="cls-71" d="M73.62,190.96c4.02.14,8.13,1.52,12.31,4.14,4.95,1.04,8.84,3,11.69,5.86,1.62.46,2.83.55,3.67-1.15,10.26,2.2,20.75,2.62,31.48,1.25,2.84-.23,4.46.73,4.85,2.9-6.95,2.72-10.9,3.29-18,5-7.06.93-14.11,1.52-21.21.59,2.13.43,3.13,1.15,2.21,3.41-17.52.1-40.67-8.32-36-30h1l2.24-.07,5.76,8.07Z"></path><path class="cls-20" d="M160.62,129.96c.85-.89,2.23-1,3,0,5.2,3.07-3.77,11.04-7.64,12.9-13.8,6.62-25.07,7.94-40.36,6.1-1.86,3.67-9.27.3-12-2l-2.57,1.26c-6.14-2.25-11.79-5.68-16.89-9.75-.16,1.26-1.2,1.47-2.54,1.5-.33-1.33-.72-2.66-1-4l2.5-7.98c19.18,20.96,57.34,21.86,77.5,1.98Z"></path><path class="cls-128" d="M103.62,146.96c5.9,3.18,12.5,4.9,19.82,5.16,4.1.89,16.55,5.4,10.18,8.84-.23,2.03-1.23,1.94-2,0-4.2.95-8.87,1.06-13,0-5.03,3.27-14.54-.1-20.15-2.36s-13.31-5.56-14.85-11.64c-.92-.1-.86-.45,0-1-.25-3.34-1.38-3.5-2-6l1.5-5c5.62,4.99,13.28,9.83,20.5,12Z"></path><path class="cls-167" d="M124.62,119.96c2.57.06,5.31,1.38,8.23,3.96,3.72.68,6.31,2.03,7.77,4.04,9.79,2.85-1.63,5.88-7.4,6.93-10.17,1.84-17.71-.26-27.11-3.93-2.05-.8-6.63-3.63-5.49-5.99v-1c-1.01-1.2-.85-2.97,1-3-1.03-3.96-1-8.18,4.09-6.61l7.82,2.77c2.15-4.34,4.18-5.39,6.09-3.16.77,1.64,3.6,4.56,5,6Z"></path><path class="cls-163" d="M60.62,161.96c1.38-5.28,4.45-9.33,10.54-10.01,2.57-.29,1.02,1.25,1.46,2.01.37,1.28,1.1,2.3,2.35,2.85,1.18,6.55,6.22,10.3,11.53,13.66l.12,2.49c1.02.31,1.98.12,2.89-.48,7.12,4.83,15.11,8.05,23.47,10.02l1.63,2.46c3.99.75-.55,3.66-2.99,4.06-9.51,1.58-37.23-11-43.66-18.18l-.35-2.89c-2.86-1.96-5.19-1.3-7,2v-3c-.96-1.6-.49-3.29,0-5Z"></path><path class="cls-218" d="M91.62,119.96l5,1.01c-2.72,4.69,1.39,2.78,4,3.99,2.17,1.01,4.1,3.2,6.33,4.17,13.14,5.77,23.13,5.72,36.67.81l-2.99-1.99c1.53-4.81,9.82-.12,10,3-2.55,1.27-4.99,3.37-8.01,4.49-17.54,6.52-43.51,4.17-50.99-15.49Z"></path><path class="cls-194" d="M67.62,167.96c10.89,9.32,29.02,18.64,43.52,19.03,1.89.05,4.07.87,3.48-2.03,1.51-2.91,8.08-1.53,8,2-.6,2.65-6.79,3.13-9,2-.2.95.03,1.83.63,2.65-.87,2.99-25,.09-26.63-4.65l-1.63,1.48c-2.06-.35-13.58-5.92-12.37-8.48-.6.77-1.35,1.07-2.27.83l-6.03-6.07c-.65.88-1.52,1.36-2.7,1.24-.32-.9-.77-2.13-1-3-.22-5.24.57-9.44,6-5Z"></path><path class="cls-116" d="M105.62,92.96c1.45-2.33,1.31-7.64,2.53-10.97,2.39-6.54,7.84-10.16,14.41-11.6,1.93-.42,3.52-1.48,3.06,1.57-.29.99-.71,1.93-1,3-3.85,3.32-7.44,6.88-10.78,10.67,3.06,6.4,4.32,12.84,3.78,19.33-4.98,2.49-7.77-5.58-7-10-1.37,1.78-5.33-.33-5-2Z"></path><path class="cls-95" d="M110.62,94.96c1.17,3.99-.09,7.06-4.06,3.89l-1.11,8.32c-2.69,4.09-4.75,8.83-3.83,13.8-.21,1.03.16,2.17-1,3-6.56-5.44-4.58-17.68-.8-24.3,1.8-3.16,4.69-4.9,5.8-6.7,1.48,1,3.87.48,5,2Z"></path><path class="cls-182" d="M72.62,153.96c1.76,2.99,3.7,1.77,5.29,2.94.71.52,1.64,2.04,2.71,3.06l2.4-.24c2.65,3.4,5.18,6.81,7.6,10.24,1.61,3.05-.89,4.96-4,3-7.77-5.27-13.1-8.24-14-19Z"></path><path class="cls-169" d="M73.62,179.96c1.48,2.29.94,8.44,0,11-4.57-3.01-5.24-2.81-8-8-.78-1.47-2.41-5.34-3-7l1.5-5c2.9,2.07,6.83,7.38,9.5,9Z"></path><path class="cls-69" d="M83.62,145.96c.02.33-.02.67,0,1,1.73,2.88,2.5,6.31,2.31,10.29l6.66,10.5-.97,2.21c-.33.81-.66.81-1,0-4.06-2.59-6.6-6.76-10-10-.54-3.41-3.31-14.59,3-14Z"></path><path class="cls-18" d="M67.62,167.96c-5.03-.17-5.26-1-5.19,4.31l-.81.69c-.24-.91-1.03-1.7-1-3,.02-.96,2.1-4.71,1.01-7,1.33-1.59,5.32,4.42,5.99,5Z"></path><path class="cls-18" d="M60.62,166.96c-2.55-1.46-.31-3.81,0-5v5Z"></path><path class="cls-29" d="M217.62,108.96c-.24.57.48,2.34-.14,2.89-.72.65-4.17-1.04-2.85,2.6.96,2.63,3.42.54,4.99.51,2.08,2.37-3.61,8.21-6,6-.27,2.85-3.13,4.64-5,2,.24,3.1-3.12,4.43-5,2-1.48,2.84-2.81,3.18-4,1l-2.4,2.34c-13.05,3.28-26.5,2.22-39.6.66-4.17.28-3.57.29-7,2-1.57-1.36-3.23-.27-5,0,.77-4.65-1.75-2.59-5-3-7.55-.96-10.82-2.68-16-8,2.2-3.51,1.28-4.56,1-8l1.61-.11c7.86,10.08,18.23,10.36,30.1,10.38,13.11.03,26.39-.89,39.16-3.8l3.13.53c2.05-2.17,5.01-3.93,8.87-5.26,3.13-2.71,6.18-4.29,9.13-4.74Z"></path><path class="cls-62" d="M182.62,26.96c-3,5.11-12.09,9.12-18,9-3.75,2.49-6.86,5.62-9.32,9.39l-4.68,2.61c.02,2.02-1.13,4.11-3.44,6.25-3.74,9.34-7.67,18.51-13.56,26.75,2.1,2.09-.95,10.93-4,11,1.4,3.45,1.76,6.05-2,8,.71,3.63.25,12.69-3,7-.65-12.89,9.69-48.69,16.59-59.91,9.92-16.14,22.59-22.86,41.41-20.09Z"></path><path class="cls-161" d="M190.62,40.96c-1.6,1.84-4.65,5.82-6,7-1.13,3-2.51,4.95-5,2-1.8,0-2.96-1.72-3.46-5.16l-2.54.16c-.86-.28-.85-.62,0-1-1.07-1.03-2.11-2.34-3.13-3.95-2.64,0-4.93-.36-6.87-1.05-1.85-.34-1.52-1.34,1-3,5.86-3.4,12.02-5.88,18-9,.33.05.68-.05,1,0,4.77,2.5,6.91,8.92,7,14Z"></path><path class="cls-162" d="M101.62,120.96c-1.54-1.94-1.42-7.29-.98-9.49.41-2.07,2.23-2.69,2.73-4.27,1.67-5.3.09-17.64,5.76-8.25l1.5-4c1.79,2.4,2.73,8.53,7,10,.62,1.11.96,2.44,1,4,.37,1.37.65,4.26,1,5-3.19.2-4.19,5-4.55,5.07-4.18.83-9.8-3.63-11.85-3.02-2.23.67-1.32,3.55-1.61,4.96Z"></path><path class="cls-136" d="M128.62,107.96c2.64,4.78,9.5,9.42,16.29,10.31,15.99,2.09,34.18-.23,49.99-2.93l1.72,1.61c1.42-.2,2.95.42,3,2-13.62,4.49-40.96,5.46-55.49,3.99-8.08-.82-13.7-4.73-18.51-10.99-.14-1.78-.93-3.59-1-5l1.99,1c-.03-2.68.43-5.41,1.01-8,3.88-1.86,4.58,7.08,1,8Z"></path><path class="cls-206" d="M124.62,74.96c-3,11.15-7.01,22.29-6,34-.36-1.33-.64-2.74-1-4-.21-.74.11-2.05-.23-3.23-.73-2.57-5.66-15.04-5.56-16.12.31-3.42,9.09-10.24,12.79-10.65Z"></path><path class="cls-186" d="M190.62,28.96l-1.99.49c1.1,1.44,2,3.01,2.99,4.51l-.78.58c.3,2.73,1.79,4.11-.22,6.42l-7-14c2.56.41,4.61,1.21,7,2Z"></path><path class="cls-219" d="M196.62,17.96c1.1,2.31,1.96,4.74,5,3-.31,2.21.58,4.84-1,7-1.59-.77-4.74-2.18-6-3-.44-.29-.84-.34-1-1,3.03.84,1.93-3.4,3-6Z"></path><path class="cls-181" d="M225.62,85.96c1.55,4.25-2.35,11.48-4.82,15.59-4.85,8.1-14.73,16.28-24.18,15.41-11.54,3.25-44.75,5.52-56.04,2.55-4.08-1.07-10.75-5.92-12.53-9.63-.68-1.42.57-1.79.57-1.91,2.39-.49,5.12.1,8.19,1.77,4.17.09,7.11,1.16,8.81,3.23l1.5-1.92c7.07.23,14.28.16,21.23-1.23,10.2-6.79,22.59-10.41,34.72-12.26,8.67-2.67,14.29-6.99,7.56-14.59-2.77,1.35-4.17-.79-2-3-2.09-.83-2.17-1.36,0-2,3.22,4.7,11.11,11.59,17,8Z"></path><path class="cls-84" d="M231.62,115.96c2.36-1.84,4.83,1.84,3,4l2.4.3c6.34,14.86,10.64,33.63,4.6,48.7.69,3.21-4.39,4.46-6,2l-1.86-2.45c3.49-20.19,1.86-30.54-7.22-48.52-.5-.99-.41-2.02.08-3.03-2.56,1.47-3.46-1.93-4-4,1.2-1.01,2.03-1.71,3-3,2.84-2.16,8.03,3.15,6,6Z"></path><path class="cls-170" d="M217.62,108.96c-5.64,5.04-10.87,7.65-18,10-1.46-.01-2.57-.57-3-2,18.59-5.24,22.94-14.46,29-31,.46-1.26,1.63-4.68,2.99-5,.62,7.51-2.42,14.22-5.8,20.69-1.29,2.48-4.08,4.69-5.19,7.31Z"></path><path class="cls-98" d="M223.62,119.96c1.79,1.69,1.28,5.6-1,7,2.49,1.75,2.03,3.68-1,4,0,4.05-1.65,13.8-5,7-1.59-1.56-2.21-3.96-1.84-7.2l-1.16-.8c-2.49-3.12-2.49-5.92,0-9,1.01-.61,4.85-4.75,6-6,.33,0,.88-.08,1,0,2.46-2.05,5,2.78,3,5Z"></path><path class="cls-104" d="M237.62,102.96c.86-.42,1.17-.05,1,1,4.23,3.08-3.06,15.13-7,12-1.62-2.25-3.61-4.5-6-6,2.39-3.18,5.55-9.29,7-13,2.72.91,5.71,3.13,5,6Z"></path><path class="cls-114" d="M189.62,61.96c5.19,1.26,9.04,2.98,14.96,2.05.63,4.82,1.29,9.93,4.04,13.95v2c-.95,2.58-5.63,1.5-6-1-.8.41-1.55.41-2.26-.09.72-8.25-2.5-11.99-9.66-11.23-3.14-.89-7.11-2.2-5.08-5.68-1.31-2.67.03-2.67,4,0Z"></path><path class="cls-26" d="M244.62,93.96c1,1.23,4.28,7.47,5.18,9.31,1.23,2.52,2.54,5.86,2.82,8.69-.9,2.64-2.54,1.88-4.91-2.25l-2.09-.75c-2.95,3.37-6.3-6.09-2.6-7.36-2.31-2.18-2.36-2.79-2.4-5.64-3.93.09-6.17-3.32-6-7,.23-.74-.63-2.83,1.48-1.99.92.37,7.74,6.03,8.52,6.99Z"></path><path class="cls-156" d="M191.62,50.96c4.64,2.93,10.67,2.35,16.74,1.12l1.26,1.88c.66-.05,1.34.03,2,0-1.18,1.19-2.36,3.28-4,4-5.88,2.59-21.33,1.09-18-8,.39.74,1.74.75,2,1Z"></path><path class="cls-144" d="M175.62,52.96c2.63-1.89,4.86-1.42,3,2l1.38.06c.62,2.24,1.82,2.22,3.62-.06,1.68,4.15,2.52,4.56,6,7-.85-.21-1.96-.79-2.71-.76-.97.03-1.09.69-1.29.76.7,2.62-.79,3.13-3,2-6.81,6.47-16.44-9.16-7-11Z"></path><path class="cls-190" d="M240.62,95.96c2.95,3.54-.02,5.28-3,7-1.82-1.77-4.9-2.94-5-6,.74-1.89,1.29-5.67,2-8,1.95,2.35,4.1,4.61,6,7Z"></path><path class="cls-146" d="M183.62,53.96c-1.25,1.11-2.92,1.44-5,1-.49-1.75-1.8-1.48-3-2-2.72-2.54,2.07-6.01,4-3,1.43-.67,2.82-.09,5-2-.34,2-.72,4-1,6Z"></path><path class="cls-88" d="M183.62,53.96c-.05.33.05.67,0,1-.19,1.26.14,2.71,0,4-7.34.62-4.01-.45-5.01-4,.81-2.48,3.08-2.39,5-1Z"></path><path class="cls-8" d="M222.62,112.96c2.21-.5,2.85,2.26,4,4,.9,2.06.14,2.74-2,3-.28.87-.62.86-1,0-.05-.29-2.76-4.84-3-5,.31-1.14,1.29-1.41,2-2Z"></path><path class="cls-184" d="M65.61,105.95l-3.17-7.31c-3.01-5.64-8.37-9.94-14.82-10.69,3.14-2.88,7.22-3.81,10.39-7.1,3.45-3.57,5.83-8.97,6.62-13.89,3.19,3.83,3.75,9.43,6.99,13.5,2.93,3.68,6.58,4.25,9.98,7-9.03,3.6-13.71,9.03-15.99,18.49Z"></path><path class="cls-188" d="M9.62,282.96c-.29-.63-1.73-1.4-2-2s-.91-1.46-1-2c2.58-.11,3.27,1.66,3,4Z"></path><path class="cls-102" d="M267.62,148.96c4.24,6.61,2.2,15.69-1,22l1.75,1.42c-3,12.04-6.47,24.33-12.23,35.39l-2.52.2c.83,3.77-5.81,11.21-10,11-.27,5.43-10.41,18.66-15,12l.99-3.84c15.94-16.69,25.2-38.78,25.17-61.92,1.45-1.16,2.07-2.9,1.84-5.23,1.34-3.78,2.75-7.51,4.28-11.22l2.72-11.78c-.56,4.7,2.6,7.43,4,12Z"></path><path class="cls-11" d="M240.62,95.96c1.29,1.62,6.32,5.77,4.99,8-.1.18-3.13-1.78-3.03,1.51.07,2.3,2.33,2.57,3.04,3.49,3.14.77,5.43,4.54,6.97,7.48,8.22,15.82.93,33.97-5.97,47.52-.76,1.05-2.2,3.33-3,4,.67,2.72.11,2.78-2,1l.87-20.37c-.53-7.54-4.27-22.02-7.87-28.63.47-3.99,2.27-7.95,5.4-11.89l-1.4-4.11c-.34-.32-.66-.67-1-1-.91-3.97,4.12-3.19,3-7Z"></path><path class="cls-118" d="M228.62,230.96c.34,4.72-5.93,7.42-9.9,9.09-.22,1.93-2.26,2.45-4.1,1.91-.1-.41-3.31-3.32-4-4l1.98-3.74c16.13-10.58,25.11-25.83,34.02-42.26l-1.09-1.85c1.91-4.35,6.26-14.88,2.09-17.15-.7,3.82-6.66,7.57-10,7-3.06,3-6.71.9-4-3-2.22-1.74-1.81-2.42,1-2,.77-.98,1.19-1.76,1-3-.91-.18-.88-.52,0-1,2.12-.85,3.83-.93,6-2,.61-.3,1.55-.63,2-1,4.6,5.9,3.49-1.28,5.98-2.52,1.81-.9,5.78-.23,6.02-.48.17-.19.3-3.01,1-5,1.6,26.81-8.95,52.41-28,71Z"></path><path class="cls-31" d="M245.62,108.96l.59-.88c2.81-.22,3.1,2.02,4.46,3.28.62.57,1.78.43,1.95.61,1.98,2.09,4.34,11.65,4.72,14.78,1.71,14.13-2.71,26.21-10.72,37.22-2.57-1.16-.08-2.96.49-4.01,9.21-17.11,10.96-34.94-1.49-50.99Z"></path><path class="cls-73" d="M274.63,91.96c-.25-4.7-5.51-6.43-9.01-8.49,3.93-2.57,6.89-5.59,9.5-9.48,2.54,3.93,4.19,7.09,8.48,9.48l-8.97,8.5Z"></path><path class="cls-47" d="M311.62,287.96c-5.58,9.47-17.76,21.97-27,28,.57,3.31-15.35,11.1-16.36,10.98-.67-1.08-1.54-1.28-2.64-.98-.04.59-.14,1.16-.39,1.64-1.19,2.21-21.31,9.12-25.08,9.77l-2.53-1.41c-.56.7-1.15,1.34-1.87,1.75-10.12,5.77-43.78,7.78-56.73,8.22-47.25,1.59-98.32-6.37-136.4-35.18-5.84-4.42-14.11-12.34-17.44-18.86-.3-.59.63-1.45,1.44-1.93-.04-1.41.94-4.81,2-6,7.24,18.43,47.23,38,65.46,44.04,39.62,13.12,93.15,13.39,133.54,3.96,26.74-6.25,68.72-22.14,81-49,3.6-2.7,4.4,1.76,3,5Z"></path><path class="cls-72" d="M313.62,263.96c1.74.56,3.4,1.56,5,3-.72,8.5-2.75,13.79-7,21-.26-2.02-1-4.14-3-5,.47-1.04.72-1.91,1-3,.11-.42.91-.96,1.05-2.4.42-4.22-2.26-15.65-4.05-19.6,1.74.17,3.48-.16,4-2,1.42,3,2.07,4.82,3,8Z"></path><path class="cls-164" d="M284.62,315.96l.92.47c-2.01,3.78-3.13,6.12,1.08,8.53-2.34,1.4-4.57,2.73-7,4-8.28,4.33-16.59,8.64-26,10-.57-5.4,8.58-10.06,12.52-11.2l-.52-1.8c5.14-2.35,14.4-6.99,19-10Z"></path><path class="cls-45" d="M318.62,266.96l-3.99,2c-.07-1.71-.54-3.37-1.01-5,4.25.57,1.17-7.58,5-9,.32,3.31.28,8.65,0,12Z"></path><path class="cls-130" d="M201.62,225.96c.83,3.3-8.33,8.05-11,6,0,3.1-6.17,5.38-8,3-4.24,3.86-9.07,7.2-14.49,10-2.54,3.74-5.71,5.4-9.51,5l-.9,1.21c-6.14-1.24-12.17-2.65-18.1-4.21-1.36-.59-2.66-1.36-4-2,.62-4.19,10.97-6.57,14-4,4.17-3.16,9.36-5.28,15.57-6.37,3.62-2.21,6.76-3.09,9.43-2.63,6.88-6.19,14.68-11.39,23.4-15.6,5.25-4.02,10.78-6.81,16.6-8.4l.46-2.82c8.16-6.75,14.77-15.01,19.83-24.78l2.71-.4c2.66-3.77,6.33-3.94,10-7,3.55,1.92.65,10.87-.84,14.28-1.73,3.96-8.96,15.36-11.86,18.78-2.16,2.54-29.24,21.42-31.05,20.94l-2.24-1Z"></path><path class="cls-222" d="M246.62,191.96c-6.79,19.44-18.46,34.68-36,46-2.65,1.71-7.01,3.46-10,5-4.03.86-2.24-1.03,0-3-.88-2.72.65-3.57,3-2,1.16-1.18,2.17-2.52,2.63-4.16,16.62-11.42,28.46-25.49,38.32-42.67l2.05.82Z"></path><path class="cls-168" d="M150.62,235.96c4.86-.81,2.4,3.68-1,5-4.68,1.18-9.85,1.91-14,4-1.37-.65-2.47-2.06-3.96-2.54-6.09-1.95-5.27,1.88-2.04,5.54-11.55-4.42-20.42-1.94-32-8,2.58-.56,5.16,1.01,7.5,1,2.82-.01,7.17-1.82,9.5-2,.15-.54.33-1.03.67-1.38.61-.62,15.86.03,17.31.17.37.03.7.56,1.01,1.21.07-.74.19-1.33.46-1.41,3.82-1.15,10.96-2.84,14.83-3.21l1.71,1.62Z"></path><path class="cls-204" d="M239.62,233.96c-.62.6-1.36,1.61-2,2-4.6,2.8-13.6,4.25-18.99,5.01l4.99.99c-2.79.31-6.48,1.91-10.01.98.01-.52,1.03-.91,1.01-.98,4.46-3.76,9.83-6.93,14-11,1.96.1,3.85.34,5.57-.93,1.43-1.05,7.5-8.9,9.43-11.07,6.42,3.24,1.94,12.84-4,15Z"></path><path class="cls-80" d="M158.62,249.96c6.91-.86,13.85-2.02,20.84-3.49l2.16,1.49c1.35.86.69,1.86-2,3-15.86,3.51-25.13,2.42-40-4,.89-1.93,3.2-.43,4.52-.03,5.8,1.75,8.46,2.31,14.48,3.03Z"></path><path class="cls-139" d="M200.62,239.96l-.91,2.41.91.59c-8.1,4.17-11.91,5.99-21,8,.37-.9,1.88-2.25,2-3,.93-3.23,8.24-5.97,11-4,.8-3.47,4.74-5.5,8-4Z"></path><path class="cls-150" d="M161.62,261.96c5.8.63,11.64.71,17.53.23,2.13.69,3.73,1.36,2.47,3.77-5.69,1.43-10.44,2.67-16.5,2-5.21-.57-9.53-4.64-13.08-4.99s-8.25,2.14-12.92,2.06c-3.68-.06-15.78-2.58-18.49-4.59-1.65-1.23-1.56-3.39-3.91-4.05-9.41-2.66-21.09,1.41-28.56-9.47-1.06-1.54-1.46-4.67-1.66-4.86-.64-.58-2.91.15-3.87-.11-5.47-1.49-12.1-4.29-16.04-8.46-3.44-3.64-4.95-10.65-9.96-13.54.08-5.97.63-6.95,3-12,10.35,15.42,26.63,33.85,44.98,39.52,6.21,1.92,12.96,1.71,18.84,3.16,14.36,3.53,19.7,10.46,38.18,11.32Z"></path><path class="cls-211" d="M196.62,256.96c7.5-.84,16.33.61,24,.01-6.93,11.93-21.78,4.61-31.44,6.05-2.55.38-5.06,2.31-7.56,2.94-4.97-4.89-14.26-1.34-20-4,15.8.73,22.02-3.55,35-5Z"></path><path class="cls-175" d="M184.62,290.96c.01,3.09-.17,5.02-1,8-1.84,6.63-5.31,10.32-12.5,11-3.53.33-9.83.17-11.97-3.04-.31-.46-2.53-6.12-2.53-6.47v-17.5c4.94-.81,9.78.99,14.46,1.06,9.9.16,13.49-5.8,13.54,6.94Z"></path><path class="cls-201" d="M195.62,305.96c-2.88-2.62.07-24.19,1.14-24.86,7.65.23,14.63-.64,21.85-3.13-.07,1.31.14,2.69,0,4-1.23,12.18-8.91,26.15-23,24Z"></path><path class="cls-57" d="M265.62,209.96c-1.06,1.84-3.61,4.15-5,6-1.2-.45-4.56-1.79-5.97-2.75-2.77-1.88-2.7-2.25-1.03-5.25,4.53-6.2,11.41-28.94,13-37,.5-2.12,1.88-3.76,4.12-4.93-.2-2.24.43-3.59,1.88-4.07,2.57,15.72,1.18,33.73-7,48Z"></path><path class="cls-135" d="M272.62,161.96c1.21,6.77-1.34,5.86-6,9,.41-2.08-.33-4.78.22-7.28,1.51-6.79,3.51-5.83.78-14.72h1c1.04,4.38,3.09,7.41,4,13Z"></path><path class="cls-155" d="M253.62,207.96c-.16,4.64,5.6,4.08,6.95,5.08.12.09-.87,2.15.05,2.92-5.45,7.25-11.92,15.2-21,18,4.65-4.48,6.06-8.7,4-15,2.57-2.89,8.17-8.5,10-11Z"></path><path class="cls-4" d="M17.62,262.96c-.02,2.68.87,3.76,1,5,.03.26-.59,1.13-.43,2.08,1.21,6.92,3.94,14.49,8.43,19.92.17,5.94,20.14,22.39,25.65,25.85,50.34,31.7,128.84,34.19,185.35,20.15,7.46.83-1.72,5.76-5.3,7.4-14.38,2.72-28.62,5.59-42.7,8.6-.99.08-2.01-.06-3,0-10.04-1.05-20.23-1.24-30.57-.59l-1.43-1.41c-4.64-3.37-10.18-1.45-15.44-2.06-7.1-.82-14.57-2.72-22.05-3.04-2.7-.12-5.41,1.38-7.76.94-3.14-.58-3.24-3.42-4.98-4.18-3.36-1.46-9.96-2.21-13.96-3.77-13.39-5.22-33.05-14.67-45.05-22.93-10.62-7.3-16.22-13.67-23.09-24.23-4.46-6.86-3.12-7.34-4.87-14.03-.58-2.22-2.48-3.95-2.77-6.31-.18-1.49-.1-8.13,2.99-7.41Z"></path><path class="cls-94" d="M265.62,325.96c5.63.26-2.37,5.01-3.12,5.43-5.93,3.33-4.82,4.51-8.88,7.57-3.13,2.36-8.24,2.94-12,4-17.04,4.81-34.34,7.63-52,9,3.09-.43,5.93-3.05,8.71-3.79,10-2.66,23.45-3.64,33.32-6.68,2.17-.67,4.49-3.47,7.37-3.46l-1.41-2.07c8.45-2.1,20.04-6.37,28-10Z"></path><path class="cls-137" d="M186.62,351.96c-10.91.71-21.46,1.13-32.51,1.02-1.69-.02-4.45.64-5.49-1.02,4.94-.33,4.5-1.55,6-2,2.72-.82,23.21-.31,27.55-.06,1.86.11,3.75-.22,4.45,2.06Z"></path><path class="cls-203" d="M69.62,334.96l-.49.98c-1.68-.7-3.06-2.07-4.51-2.98,2.48-.7,3.74,1.43,5,2Z"></path><path class="cls-122" d="M18.62,267.96v-9.99c3.99-.57.67,7.05,4,8.99-.91,1.6-2.22.94-4,1Z"></path><path class="cls-149" d="M169.62,183.96c-9.01,8.6-20.29,15.41-32,20-7.83-2.38-15.32.38-23.49-.01-5.37-.26-11.29-1.66-16.51-2.99-.44-2.47-2.94-4.63-7.49-6.49-2.67-2.06-5.66-4.92-2.51-7.51,3.92,1.46,20.43,4.58,24.27,4.03.93-.13,1.28-1.79,1.73-2.03l2.2.44c3.98,5.55,7.73,2.6,10.8-1.44,1.41-.85,10.82-1.26,11.4-.47.25.33.21.87.1,1.47.34-2.17,14.83-2.64,16.57-2l1.43,2c-.34-3.66,11.25-8.2,13.5-5Z"></path><path class="cls-37" d="M204.62,162.96c1.77,4.75-4.03,12.52-7.17,16.71-5.19,6.94-11.75,12.96-18.93,17.59l-1.9,2.7c-.06,1.07-.18,2.26-.91,3.11-1.54,1.77-16,9.87-19.12,11.3l-2.97-.41c-3.17,1.77-6.49,3.24-9.96,4.42l-2.04-1.42-.88-2.16c6.06-6.37-6.24-1.69-9.24.28-.72-1.17-1.68-1.5-2.88-1.12-.81,2.92-3.06,2.74-4,0,13.41-4.45,24.57-9.01,35.92-17.58,1.82-1.38,10.63-8.28,11.08-9.42.28-.87.62-.86,1,0l1.2,1.59c7.89-9.53,17.05-17.93,27.48-25.21l3.32-.38Z"></path><path class="cls-159" d="M119.62,208.96c-6.58,1.58-12.31,3.96-19,4-3.13-3.57-12.14.07-11.01-6l30.01,2Z"></path><path class="cls-38" d="M124.62,213.96c1.23-.2,2.87.25,4,0,4.5-2,4.85,2.72,2.32,5.5-1.69,1.87-11.39,4.77-12.32,1.5-1.35-1.55-3.02-3.22-5-5l.67-.81c3.52,0,6.9-.64,10.33-1.19Z"></path><path class="cls-109" d="M95.62,215.96l8,1-.64,2.16c-3.95,1.41-8.17,1.85-12.36,1.84-1.09,3.23-4.17,1.17-6-1-2.03-5.38,1.29-2.67,5-5,2.05.44,3.95.67,6,1Z"></path><path class="cls-172" d="M113.62,215.96c1.99.07,4.01-.06,6,0l-1,4.99c-2.04,3.3-7.44,3.88-10,1,.81-2.83-.44-3.86-3.75-3.1l-1.25-1.9c-3.04.84-5.76-.64-8-1,5.98.15,12.03-.2,18,0Z"></path><path class="cls-39" d="M178.62,178.96c1.91,2.49-3.14,8.92-6,8h-1c.25-.64-.13-2.13,0-3-.66.01-1.34-.05-2,0-1.66-2.72,2.22-7.2,5-6,1.7-4.48,7.15-4.46,4,1Z"></path><path class="cls-171" d="M153.62,213.96l1.05,1.92c-8.59,6.24-8.89,9.39-.91,9.46,2.89.84,4.69,2.76,1.87,4.63l-1.52,2.69c-7.28,1.48-14.11,3.58-20.48,6.31-7.97,1.09-12.29-.51-19,0-6.84-.97-17.69-5.05-22.9-9.6-1.41-1.23-1.99-3.1-3.1-4.4l1.98-1.12c7.26,4.87,14.06,9.22,23.14,9.83l1.88,2.29,1.68-1.32c1.6.79,11.46.68,11.53.11-3.78-3.22-8.69-9.32-2.21-11.79,3.12-3.95,9.86-8.03,15-6,3.91-1.29,7.74-3.05,12-3Z"></path><path class="cls-27" d="M141.62,216.96c-5.26,1.73-9.94,3.85-15,6l-2.11,2.58c-4.91.31-6.96,4.91-6.95,9.31l-1.94,1.1c-5.1-.72-10.1-1.55-14.99-3.51l-12.01-7.49c-1.77-2.09-2.55-1.16-4-5,1.93.86,4.09.66,6,1,5.09-.6,10.18-.91,15.27-.92l2.73,1.92c3.31-.13,6.72-.59,10-1,2.36-.3,8.34-.36,10.01-1.49.54-.37,3.97-6.45-.01-5.51,3.87-.86,11.13-6.24,14.37-3.91,3.66,2.62.32,4.34-1.37,6.91Z"></path><path class="cls-199" d="M78.62,260.96c.46,3.08-1.44,4.62-1.57,6.48-.06.89.45,5.82.57,7.52-1.46-5.62-6.42-14.75-7-20,3.39-1.02,7.56,3,8,6Z"></path><path class="cls-17" d="M209.62,53.96c-4.7.36-11.24,2.53-15.58.05-1.11-.63-1.66-2.32-2.42-3.05l1.5-2.01.51,3.02c.2.3,1.39-.81,1.99-1.01,5.67-1.91,17.5-8.49,14,3Z"></path><path class="cls-97" d="M199.62,125.96c1.82,1.92.66,4.17-2,4-.91,1.33-1.96,2.4-3.16,3.21l-12.47.88c-7.82,12.57-17.83,20.49-31.99,25.45-3.03,1.06-11.32,3.67-14,3.25-1.01-.16-1.75-1.03-2.39-1.79,2.63-2.66-7.56-6.03-9.03-6.47-7.19-2.17-17.8-.53-20.97-7.53,3.03.91,8.65,1.55,12,2,12.53,1.19,44.38.67,52.36-10.77,2.98-4.27,1.79-5.13-3.21-5.96l-1.15-2.27c-.91-.14-2.02.06-3,0-1.09-.07-2.51.32-3-1,15.11-1.01,26.56,1.01,42-3Z"></path><path class="cls-103" d="M87.62,186.96c.27,6.6,9.62,7.92,12.53,11.97,1.82,2.53-1.09,2.18-2.53,2.03-8.45-2.15-16.71-5.21-24-10-2.45-4.09-1.94-6.73,0-11,1.71,1.04,12.15,6.31,14,7Z"></path><path class="cls-197" d="M70.25,193.02c2.96-.5,7.95,8.73,3.85,9.93s-9.65-8.96-3.85-9.93Z"></path><path class="cls-52" d="M163.62,129.96c2.69.43,5.31,1.5,7.97,2.05.75,9.6-9.56,13.84-17.28,16.14-11.29,3.37-27.33,2.32-38.69.81,12.53.74,25.64-.78,36.98-6.52,4.29-2.17,11.6-7.02,11.02-12.48Z"></path><path class="cls-12" d="M197.62,129.96c1.88,3.67-2.72,14.48-7,15-.82,1.18-1.49.51-2-2l-1.32.5c-1.58-1.46-3.47-1.96-5.68-1.5-.58,7.51-11.14,13.57-17.62,16.95l-2.38-.95-.78,2.14c-8.78,3.02-4.4,9.08,2.41,3.92l2.37.94c.72-3.81,10.37-9.39,14-8,1.47,1.56.88,3.1-1.78,4.63-5,2.18-8.07,5.3-9.22,9.37-4.79,6.7-16.69,9.51-24.95,10.98-7.33,1.3-14.83,1.4-22.19.38-8.74-1.21-21.34-3.75-26.86-10.36-.12-3.57,2.9-3.02,5.7-2.09,5.34,2.85,11.07,4.17,17.04,5.03l1.27-1.94.86-2.12c6.03-1.21,5.37-5.03-.57-4.97l-1.29-1.91c-.66-1.43.67-2.1,4-2,3.25-.14,6.59-.48,10-1,.66-.03,1.34.04,2,0,13.61-.92,30.19-7.93,39.38-18.12,1.77-1.96,6.84-10.23,8.28-10.72,3.66-1.24,11.82.57,16.34-2.16Z"></path><path class="cls-123" d="M118.62,160.96l3,1c-1.21.9-2.66,1.33-4,2l.06,2.22c-2.34.33-2.03,2.58.94,6.78.73.88,1.29,2.87,2,3.99-1.13.83-11.97-1.69-14.21-2.28-3.53-.93-8.45-5.14-11.79-2.71-2,2.14-4.05.77-3-2l-7.53-11.97c-1.01-3.62-.25-7.37-.47-11.03,9.72,9,21.81,13.05,35,14Z"></path><path class="cls-97" d="M131.62,160.96c-2.22,1.73-6.97,1.11-10,1-1.1-.04-2.52.3-3-1,3.98.29,8.97.18,13,0Z"></path><path class="cls-76" d="M186.62,158.96c4.76-3.49,9.07.69,3,4,1.89,2.7-4.31,9.01-7,7,.13,3.72-5.1,6.27-8,5-11.45,12.8-32.74,13.13-49,12-.82,2.9-1.55,2.47-3,0-2.16-1.39-5.35-1.36-8-2-11.63-2.79-18.2-5.36-28-12,1.97.74,2.72-2.72,4-3,.23-.05.78-.07,1,0,.17.05,1.92,1.5,3,2,26.02,11.98,48.41,12.48,74-1,.24-1.06.52-2.27,1.38-3.01,1.91-1.64,11.01-7.61,13.32-8.77,1.02-.51,2.22-.37,3.3-.22Z"></path><path class="cls-124" d="M122.62,186.96c.99-.05,2.01.07,3,0,.91.16,1.25.49,1,1,.99,8.54-11.63,8.19-13,1,4.35-2.36,4.24-1.77,9-2Z"></path><path class="cls-107" d="M203.62,124.96c1.44,9.54-5.15,19.53-11,27,1.63,3.05-2.69,7.34-6,7-5.26,4.8-11.78,8.72-18,12l-2.99-1.98c3.23.08,2.01-2.43,2.99-3.47,2.42-2.55,8.82-4.93,11-8.55l.08-2.42c3.97-3.19,7.61-6.38,10.92-9.58,3.32-5.54,4.44-9.26,7-15,.59-1.33.77-2.86,2-4,1.24-.32,2.99-.67,4-1Z"></path><path class="cls-223" d="M208.62,122.96c5.9-.35,2.7,14.28-2,15-3.24,6.05-7.95,10.75-14,14,4.8-8.47,7.91-17.77,11-27,1.3-.42,3.7-1.42,5-2Z"></path><path class="cls-119" d="M213.62,120.96c-.03,2.99.04,6.01,0,9,1.82,1.33,2.14,4.96,0,6-.72,3.62-2.05,5.96-4,7-.4,1.71-.84,2.6-2,1-7.48,5.72-4.86-1.95-1-6,1.64-4.43,4.94-10.24,2-15,1.4-.63,4.39-1.63,5-2Z"></path><path class="cls-126" d="M202.62,78.96c-1.84,3.46-3.1,7.23-3.77,11.34l-2.23.66c2.67,5.64-9.09,11.64-13.64,11.05-5.14-.66-7.91-6.99-9.36-11.05l-3.12.08c-7.74-1.43-12.68.09-14.81,4.56l-2.07,1.35c-.28.87-.62.86-1,0-4.43-4.81-10.21-6.02-14.82.07l-2.18-.07c-3.3,1.69-7.03-.94-6-5,.95-3.26,2.46-8.11,4-11l5.76-9c1.1-5.16,8.02-7.27,9.24-2l1.1,2.16c-3.9,7.26,1.26,7.65,7.23,6.21l1.67,1.63,2.68-1.61c4.25-7.79,9.94-5.85,12.32-1.39l1.42,1.71c-2.77,5.43,2.8,9.92,7.21,6.65,6.01-4.45,5.21-8.01,1.38-13.36l-.39-.97c-6.01.93-5.56-6.78-.61-7.03.81-1.08,1.78-1.54,3-2,2.18,4.97,11.72,3.99,14.03,5.47,2.45,1.56,1.3,9.08,2.97,11.53Z"></path><path class="cls-151" d="M179.62,49.96c-2.36,1.11-2.23.34-4,3-4.49,6.72-.12,10.83,7,11-.34.45-2.26,4.71-2,4.99.2.21,8.64,2.25,3,3.01-.88,2.71-7.31,5.96-10,5-3.11,2.63-1.35-1.8-4.24-1.81-5.87-.02-5.44,2.71-7.8,4.31-1.15.78-2.17.28-2.96.5l-.62-2.29c6.91-7.29-.28-15.93-7.15-7.52l-2.23-.19c-7.79-2.54-5.44.58-8.3,3.71-2.06,2.25-4.79,3.73-6.7,7.29l11.8-27.7c1.26-2.09,3.04-4.13,5.2-5.3,3.76-3.43,5.76-3.76,6-1,1.82,1.05,2.98,2.96,3,5,2.21-.46,4.6-1.07,7.16-1.83,2.19-2.19,4.47-3.92,6.84-5.17.54-.98,1.26-1.73,1.01-3,4.06-.06,4.18,4.89,4.99,8Z"></path><path class="cls-16" d="M129.62,91.96c.93,3.68,3.48,2.25,6,5,1.35,2.33,2.68,6.39,3,9,3.32.24,7.56-1.15,9.74-4.17l2.26.17c-1.34-1.82-.83-5.61,2-5h1c2.29,1.22,1.9,7.46,0,9-.68,1.53-2.06,2.43-4.15,2.71-.69,2.66-1.97,4.09-3.85,4.29-5.95-.39-12.22-1.14-17-5-.03-2.51.79-6.34-1-8,.6-2.65,1.24-5.39,2-8Z"></path><path class="cls-34" d="M164.62,35.96l-1,3c-.89,2.99-4.37,6.35-7,8-.67-.93-5.22.58-6,1,2.75-3.05,6.29-7.63,9.5-10.01,1.88-1.39,3.33-1.31,4.5-1.99Z"></path><path class="cls-75" d="M173.62,43.96c-.67,1.59-2.13,2.95-3,1-3.33-3.88-7.07.38-9,4,4.81,1.19,1.9,4.02-2,3-2.53-.97-3.26-1.39-3-5s3.67-6.8,7-8c5.36-1.93,10.55-1.97,10,5Z"></path><path class="cls-113" d="M173.62,44.96c-3.16,5.76-6.81,9.75-14,7,3.85-.49,2.51-1.12,2-3,1.89-1.82,6.49-5.68,9-4,.7-.39,2.19-.32,3-1v1Z"></path><path class="cls-111" d="M145.62,112.96c2.29-6.24,1.62-6.62,8-7,1.29-2.11,3.72-2.75,7.29-1.94-2.27-5.81,2.67-5.78,6.47-2.7l4.23-.36c.79-2.27,1.12-4.61,1-7-6.93.41-5-4.32,1-3,4.37,2.52,5.35,9.02,9.45,9.07,4.83.06,11.99-4.36,13.55-9.07l2.25.27c3.63,7.85,10-.88,9.88-6.45l1.86-1.82c.36.3,1.74.2,3,1.45,5.87,5.85-.12,10.7-6.14,12.91-9.7,3.56-21.16,5.5-31.13,9.87-2.44,1.07-4.09,3.73-7.46,4.54-5.98,1.43-17.04,1.64-23.27,1.23Z"></path><path class="cls-147" d="M208.62,79.96c.21.14.83,2.03,2,3,1.48,9.57-9.69,20.18-14,8,.92-2.79.8-10.98,6-12,1.11-.22,5.16.43,6,1Z"></path><path class="cls-200" d="M226.62,116.96c14.29,21.61,10.25,30.24,9,54-.02.32-.03.68,0,1,.59,1.94.26,2.94-1,3-.74.63-.72,1.64-1,2-.54.92-.32,1.82.44,2.69-3.89,5.9-8.06,11.6-12.52,17.08l-2.92.22c-2.58,2.56-3.5-1.97-2.22-4.27,4.75-4.34,7.69-10.65,10-16.51-5.89-4.51-1.81-12.13,2.9-15.92-2.95-3.93-1.19-6.53,2.67-8.57-.93-7.9-2.05-15.82-3.35-23.74-2.14.02-3.14-1.98-3-6-1.51.13-1.61-.67-1-2,.01-1.46.57-2.57,2-3Z"></path><path class="cls-61" d="M234.62,119.96c-.17-.31-2.36-3.1-3-4,4.34-2.86,8.25-5.95,7-12,6.87,6.4,3.16,3.25-.03,8.47-1.54,2.5-.81,6.06-3.97,7.53Z"></path><path class="cls-145" d="M228.62,127.96c3.01,12.56-1.09,22.98-7.59,33.68l-2.41.32-.7-1.69c.14-9.94,1.37-19.72,3.7-29.31.44-1.52.69-2.36,1-4,1.19-1.68,2.19-3.35,3-5,1.5,2.29,2,3.54,3,6Z"></path><path class="cls-189" d="M218.62,161.96c2.68.33,2.4.86,0,2-2.15.62-3.15-1.71-3-7-3.06-1.01-2.16-7.6,0-9l.53-3.57c-2.22-1.22-1.8-5.25.47-6.43,3.62,2.39,4.11-3.91,5-7,.6,10.51-1.37,20.79-3,31Z"></path><path class="cls-3" d="M216.62,137.96c.13,3.01.71,7.79-1,10-1.08.19-1.36-.42-.86-1.85.16,2.76-.55,4.04-2.14,3.85-3.68-2.78-.73-10,1-14,.1-1.99-.02-4.01,0-6l1.99-3c.24,3.71.85,7.26,1.01,11Z"></path><path class="cls-25" d="M225.62,121.96c.42,3.28.22,4.21-3,5,.36-1.9,1.3-5.38,1-7h1c.37.64.6,1.39,1,2Z"></path><path class="cls-44" d="M246.62,191.96c-6.79,3.45-8.14,13.29-12.48,19.02-5.53,7.3-22.91,22.46-30.52,26.98-.95-1.06-1.15-2.68-.59-4.84-2.25-2.86-2.72-5.25-1.41-7.16,6.53-3.79,27.89-17.36,32.54-21.96,7.06-6.99,13.76-21.05,13.46-31.04,1.1-.92,2.05-3.61,3.99-4,.42,6.71-1.3,13.87-3.24,20.3-.44,1.45-1.61,2.29-1.75,2.7Z"></path><path class="cls-86" d="M233.62,176.96c-.61,2.61,1.95,2.47,4,3-8.6,12.2-9.42,18.24-23,28-4.47,2.5-6.81,2.16-7-1-.37-2.37,4.7-7.69,7-6,.52-2.23,1.63-4.52,4-4,6.98-7.37,9.42-12.95,15-20Z"></path><path class="cls-86" d="M235.62,171.96c.04.5,1.54,2.33.99,2.99-.18.22-1.72-.22-1.99,0l1-3Z"></path><path class="cls-157" d="M214.62,207.96c-12.21,8.77-26.87,16.62-40,24l-1.09-1.76c1.39-1.51,2.42-3.26,3.09-5.24-1.91-1.16-1.16-2.46,1-2,1.32-2.01,2.32-2.34,3-1,8.08-5.15,15.98-10.48,23.68-15.98l2.32.98c.23-.94.56-.91,1,0,1.69.25,4.33,1.92,7,1Z"></path><path class="cls-65" d="M182.62,234.96c-.4,4.03-.23,7.04,1.09,11.45l-2.09,1.55c-10,2.73-12.75,3.22-23,2,3.9.41,4.77-3.75,7.52-5.98,5.42-4.38,10.68-6.14,16.48-9.02Z"></path><path class="cls-185" d="M176.62,224.96c-.03.18,1.7.46.86,3.29-.13.45-2.37,3.27-2.86,3.71-5.08,4.49-18.3,7.31-25,9l1.98-4.51-.98-.49,1.31-2.49c5.81-2.1,11.47-4.58,16.98-7.42l2.72.9c2.08-2.75,3.75-3.42,5-2Z"></path><path class="cls-87" d="M201.62,225.96c1.9,5.55,5.51,5.93,2,12-.96.57-1.73,1.32-3,2-2.6,1.39-5.28,2.82-8,4-3.26-.3-4.83-10.33-2-12,2.95-1.46,8.12-4.33,11-6Z"></path><path class="cls-108" d="M190.62,231.96l2,12c-3.85,1.67-6.91,2.88-11,4,.86-5.31-4.38-8.1,1-13,2.71-1.35,6.15-2.09,8-3Z"></path><path class="cls-160" d="M174.62,221.96c1.64,1.14.64,2.81-3,5-6.28,3.04-14.39,7.16-21,9-4.46,1.24-12.2,2.34-17,3-.57-4.18.51-2.32,2.35-3.11,6.1-2.59,12.75-3.13,19.65-5.89-1.29-2.3,11.15-8.5,11.91-8.37l2.09,1.37c2.03-1.29,3.7-1.63,5-1Z"></path><path class="cls-187" d="M174.62,177.96c-1.42,1.13-3.53,4.6-5,6-4.64.35-12.77,5-13.5,5h-18c-.33,0-1.68-.93-2.96-1.04-2.82-.24-5.72.21-8.54.04,0-.07-1.02-.38-1-1,19.88-1.34,31.29-1.72,49-12,2.56-.07,2.56.93,0,3Z"></path><path class="cls-120" d="M208.62,169.96l1.19,3.24c-.85,9.09-16.28,34.47-24.39,38.34-1.9.91-2.86,1.2-4.51-.3-4.24-9.84-14.1,7.05-1.34-.11,6.67,2.73-6.12,10.28-9.95,11.82-3.41.97-9.41,5.16-14,7-.26-5.28-8.15-.58-9.04-5.52-1.16-6.51,2.27-5.72,5.02-8.01.96-.79,1.72-2.26,2.01-2.47,7.53-5.26,14.73-7.86,23-14,7.64-6.78,14.45-12.83,21.24-20.84,2.42-6.57,6.01-9.62,10.76-9.16Z"></path><path class="cls-183" d="M207.62,156.96c2.58,1.89-.15,6.68-3,6-5.8,5.75-12.97,10.07-19.01,15.49-2.39,2.14-11.67,13.13-12.52,13.48-4.16,1.69-1.56-3.13-.46-4.96,1.46-2.43,4.16-5.42,6-8,.75-3.03,2.08-6.03,4-9,2.28-1.81,5.09-4.78,7-7,2.05-.93,2.75-2.06,2.09-3.39l12.55-14.38c1.32.08,2.45-.31,3.36-1.23.24-.35,1.51-.62,2-1,3.08,2.99,1.46,10.8-2,14Z"></path><path class="cls-81" d="M208.62,169.96c-1.34,1.89-5.75,3.24-6.72,4.29-.77.84-1.66,4.16-3.28,5.93-6.78,7.42-13.96,13.81-22,19.78-.85-4.2,5.45-5.44,7.67-7.34,10.45-8.92,15.12-17.5,20.33-29.66.86-2.01,2.29-4.01,3-6,1.37-2.93,2.71-3.93,4-3,2.78,2.82.8,14.53-3,16Z"></path><path class="cls-148" d="M103.62,216.96c2.45-.35,5.45.24,8,0,.59,2.78-1.14,3.47-3,4.99-6.41.25-11.89.08-18-1,4.13-.51,9.29-3.47,13-4Z"></path><path class="cls-173" d="M178.62,178.96v-3c-1.15.71-3.08,1.27-4,2v-3c2.16-1.26,6.22-3.59,8-5l.88.66c.47,3.62-3.19,5.98-4.88,8.34Z"></path><path class="cls-93" d="M126.62,222.96c-4.74,5.46,5.95,11.74,5.98,12.5.1,2.11-12.55,1.72-14.56,1.54-1.32-.11-2.15-1-2.42-1.04-.41-4.22,1.21-9.32,5.08-11.42,1.82-.99,4.19-.84,5.92-1.58Z"></path><path class="cls-216" d="M181.62,141.96l2,.78c-.68,5.52,3.16,3.13,5,.22.6.73,1.31,1.36,2,2-3.44,5.73-5.18,8.4-11,12-3.93,2.43-9.78,5.82-14,8-2.3-.16-4.75-4.83-4-7,3.31-1.78,12.84-8.14,15.99-10.51,1.86-1.4,2.35-3.76,4.01-5.49Z"></path><path class="cls-21" d="M161.62,157.96c2.66,1.65,3.59,3.98,4,7-3.53,1.82-4.95,4.51-9.75,2.25-4.51-2.12-.68-6.55,2.23-8.31,1.63-.98,3.06-.7,3.52-.94Z"></path><path class="cls-48" d="M118.62,172.96c-.11-.13-1.21.07-1.61-.41-3.5-4.1-5.43-5.56.61-8.59,10.25-1.09,10.94,8.16,1,9Z"></path><path class="cls-179" d="M188.62,142.96c1.21,5.37-2.96,4.98-7,5v-6c3.43-3.59,4.15-2.48,7,1Z"></path><path class="cls-63" d="M207.62,143.96c-3.95,5.73-9.16,11.16-14.01,16.49-1.18,1.29-2.01,2.48-3.99,2.51.37-.43,2.19-2.85,2-2.99l-5-1.01c1.97-1.8,3.97-4.98,6-7,4.67-4.65,9.36-9.33,14-14-1.41,3.8-5.16,8.57,1,6Z"></path><path class="cls-134" d="M212.62,149.96c2.29,1.57,1.82,3.74-1,4l-4,3c2.73-7.68,1.82-6.86,2-14,.05-2,2.7-5.35,4-7-.22,4.45-1.8,9.22-1,14Z"></path><path class="cls-7" d="M173.62,90.96l-4,1.51c-.2.47,2.08.84,3,1.49-.99,1.62-2.66,3.16-5.02,4.6,2.27.07,3.61.87,4.02,2.4-3.9,2.19-6.05.31-9.99,0l2.99,5.99c-3.66-1.06-7.21-1.22-10.99-1-1.45-3.03-.6-5.9,0-9,.3-1.56-.45-2.75.92-4.56,3.55-4.71,14.29-4.19,19.08-1.44Z"></path><path class="cls-9" d="M158.62,79.96c-9.48,2.69-15.85.17-10-10,6.76-11.76,21.51-1.86,10,10Z"></path><path class="cls-131" d="M183.62,71.96c8.63.95,5.87,17.48-6.54,16.08-5.09-.58-5.45-7.36-3.46-11.08.89-1.66,7.98-5.22,10-5Z"></path><path class="cls-133" d="M152.62,96.96c0,.27-1.7,4.48-2,5-2.9,2.46-4.54-.44-2-3-2.45-4.3-9.18-.72-7,4,5.59.56,1.53,4.34-3,3-3.6-1.82-4.46-5.47-3-9,3.29-7.96,17.28-8.13,17,0Z"></path><path class="cls-140" d="M150.62,101.96c-2.66,4.61-7.21,6.43-12,4,2.58-.82,5.09-.31,3-3,.41-2.47,4.67-5.61,7-4,.47,1.13.07,2.58,2,3Z"></path><path class="cls-41" d="M161.62,48.96c-.26-.97-1.32-1.32-.54-2.95,1.57-3.31,10.08-8.24,9.54-1.05-2.96,1.66-4.71,4.87-9,4Z"></path><path class="cls-77" d="M172.62,93.96c3.41,2.46,2.49,5.04-1,7-10.24.78-5.72-6.63,1-7Z"></path><path class="cls-59" d="M204.14,82.96c4.72-.97,1.89,10.78-2,9.99-3.31-.67-.69-9.43,2-9.99Z"></path><path class="cls-202" d="M228.62,127.96c2.35,5.76,6.7,19.63,5.07,25.44-.14.5-8.03,1.6-1.08,7.06-5.64,2.94-11.26,12.69-2.99,14.99-2.88,4.86-5.14,10.06-8.17,14.83-1.22,1.92-6.83,5.25-2.82,6.68-1.3,1.37-2.66,2.68-4,4-3.38.08-2.78-2.09-1.21-4.37-2.55-2.05-3.15-3.93-1.79-5.63-.18-8.52,2.62-19.69,7-27,.11-.63-.1-1.37,0-2l7.98-15.52,2.02-18.48Z"></path><path class="cls-214" d="M212.62,149.96c.36-1.69,1.85-3.54,1-6,3.01-.65,1.86,1.48,2,4,.15,2.73.24,6.33,0,9,2.07,7.34-.6,14.86-3.31,21.76-6.21,15.83-17.94,30.28-31.29,40.49l-1.4-.25c-1.9,2.12-3.57,3.12-5,3-2.75,1.51-4.73.92-5,1l11-9.5c-1.48-1.47-2.76,1.28-4.56,1.54-1.91.28-3.94-.27-4.96-2.01-2.03-3.46.98-2.83,2.04-3.99,1.66-1.82.8-3.36,3.94-3.12,4.6.35,5.63,5.26,6.03,5.09,14.01-12.34,20.83-23.17,25.5-41,1.75-6.68,1.92-9.59,3-16,.14-.83.72-2.68,1-4Z"></path><path class="cls-15" d="M218.62,163.96c-1.59,9.31-3.77,18.13-7,27-.3.86-.64.86-1,0-1.42,1.41-2.95,2.76-4.6,4.05-6.38,11.43-13.9,20.35-25.4,26.95-.98.3-1.9.99-3,1-2.27-.96.13-3.29,2-4,3.7-5.02,8.7-6.01,12.54-9.96,11.69-12.05,21.95-35.39,23.46-52.04l3,7Z"></path><path class="cls-51" d="M211.62,190.96c.1.09-.17,1.11.34,1.65,1.01,1.08,2.72,1.35,3.31,3.32.68,2.27-2.57,3.39-.65,5.03-2.21,2.18-3.78,4.67-7,6-.27-.04-.86-.07-1,0-8.08.51-.2-13.75,4-16,.28.14.82-.16,1,0Z"></path><path class="cls-43" d="M210.62,190.96c-.2,5.45-9.16,11.55-4,16-3.39,1.71-9.4,7.01-13.3,9.2s-8.18,4.42-12.7,5.8c3.48-5.6,9.32-8.33,13.97-13.53,4.02-4.5,7.61-12.39,11.03-16.06,1.12-1.2,4.11-1.87,5-1.41Z"></path><path class="cls-64" d="M179.62,218.96c-1.06,1.44-1.5,2.26-2,4-.19.65-.92,1.44-1,2-1.64.63-3.43,1.24-5,2l3-5c.97-.53,2.36-3.46,5-3Z"></path><path class="cls-177" d="M158.62,68.96c2,2.01-2.88,11.55-7.03,8.55s4.81-10.78,7.03-8.55Z"></path><path class="cls-110" d="M175.63,84.94c-1.78-2.46,6.23-11.53,8.52-8,3.08,4.75-6.08,11.38-8.52,8Z"></path><path class="cls-74" d="M148.62,98.96c-2.28,1.46-4.03,3.94-7,4-6.98-1.56,2.01-10.32,6.07-7.57,1.35.92.62,2.82.93,3.57Z"></path></g></svg> 