<?xml version="1.0" encoding="UTF-8"?> <svg xmlns="http://www.w3.org/2000/svg" id="Laag_2" viewBox="0 0 411.03 355.19"><defs><style>.cls-1{fill:#fcfaf0;}.cls-2{fill:#7d9f09;}.cls-3{fill:#1c3503;}.cls-4{fill:#ead49d;}.cls-5{fill:#c7a46a;}.cls-6{fill:#b1814d;}.cls-7{fill:#f7f2cb;}.cls-8{fill:#391002;}.cls-9{fill:#834c23;}.cls-10{fill:#998672;}.cls-11{fill:#f7fae4;}.cls-12{fill:#e4d29a;}.cls-13{fill:#81a60a;}.cls-14{fill:#4d4131;}.cls-15{fill:#5a4739;}.cls-16{fill:#9a6638;}.cls-17{fill:#608405;}.cls-18{fill:#b27a3a;}.cls-19{fill:#fbf8ea;}.cls-20{fill:#fcfaf1;}.cls-21{fill:#bc9c77;}.cls-22{fill:#130e08;}.cls-23{fill:#e2c182;}.cls-24{fill:#d4b170;}.cls-25{fill:#eee0ad;}.cls-26{fill:#a5713b;}.cls-27{fill:#e1c082;}.cls-28{fill:#638604;}.cls-29{fill:#cae476;}.cls-30{fill:#ebe4b7;}.cls-31{fill:#e4d195;}.cls-32{fill:#3b1507;}.cls-33{fill:#f8f3cd;}.cls-34{fill:#c2a368;}.cls-35{fill:#ad7d49;}.cls-36{fill:#d8b375;}.cls-37{fill:#fcfbe9;}.cls-38{fill:#d4b87e;}.cls-39{fill:#d2a173;}.cls-40{fill:#d2b77a;}.cls-41{fill:#c19453;}.cls-42{fill:#ddc48a;}.cls-43{fill:#f7fae6;}.cls-44{fill:#b78c56;}.cls-45{fill:#d29e61;}.cls-46{fill:#85ab0a;}.cls-47{fill:#875223;}.cls-48{fill:#804519;}.cls-49{fill:#426303;}.cls-50{fill:#17150f;}.cls-51{fill:#6b5a4c;}.cls-52{fill:#eadda9;}.cls-53{fill:#371707;}.cls-54{fill:#ce9e5e;}.cls-55{fill:#7f4821;}.cls-56{fill:#e6dba6;}.cls-57{fill:#395904;}.cls-58{fill:#e7d9a4;}.cls-59{fill:#e8dba6;}.cls-60{fill:#d9bf85;}.cls-61{fill:#faf7d4;}.cls-62{fill:#c78f50;}.cls-63{fill:#fcfbf2;}.cls-64{fill:#fdfcf5;}.cls-65{fill:#4f1f08;}.cls-66{fill:#c2b6a9;}.cls-67{fill:#edddb2;}.cls-68{fill:#97918b;}.cls-69{fill:#456701;}.cls-70{fill:#e7d294;}.cls-71{fill:#c9beb2;}.cls-72{fill:#d09f60;}.cls-73{fill:#5d290a;}.cls-74{fill:#67300e;}.cls-75{fill:#edd89f;}.cls-76{fill:#948276;}.cls-77{fill:#d7b683;}.cls-78{fill:#96612f;}.cls-79{fill:#fcf9df;}.cls-80{fill:#494236;}.cls-81{fill:#efe8b9;}.cls-82{fill:#e9d395;}.cls-83{fill:#431506;}.cls-84{fill:#eee2ae;}.cls-85{fill:#e3f098;}.cls-86{fill:#ebdda3;}.cls-87{fill:#c8a368;}.cls-88{fill:#f0dcae;}.cls-89{fill:#66350f;}.cls-90{fill:#ead6a3;}.cls-91{fill:#5c2c11;}.cls-92{fill:#e2c687;}.cls-93{fill:#ae7838;}.cls-94{fill:#a9c83a;}.cls-95{fill:#edd2a0;}.cls-96{fill:#f8f0c9;}.cls-97{fill:#f7f6d6;}.cls-98{fill:#f7eabd;}.cls-99{fill:#3e5e03;}.cls-100{fill:#fbf7d8;}.cls-101{fill:#51443a;}.cls-102{fill:#2a0b03;}.cls-103{fill:#b3854e;}.cls-104{fill:#ccb07d;}.cls-105{fill:#fcfbef;}.cls-106{fill:#284402;}.cls-107{fill:#dcc69d;}.cls-108{fill:#ae7e42;}.cls-109{fill:#b38b54;}.cls-110{fill:#ac9e90;}.cls-111{fill:#406404;}.cls-112{fill:#e5ca91;}.cls-113{fill:#aaa17f;}.cls-114{fill:#b3d13c;}.cls-115{fill:#dcc188;}.cls-116{fill:#fcfae3;}.cls-117{fill:#bcb;}.cls-118{fill:#451705;}.cls-119{fill:#322d27;}.cls-120{fill:#7a7570;}.cls-121{fill:#746450;}.cls-122{fill:#2e241b;}.cls-123{fill:#976234;}.cls-124{fill:#dbc185;}.cls-125{fill:#c9985a;}.cls-126{fill:#d4b97b;}.cls-127{fill:#7b9f05;}.cls-128{fill:#dcc086;}.cls-129{fill:#f5efc7;}.cls-130{fill:#a77039;}.cls-131{fill:#8c4d1b;}.cls-132{fill:#6d2e09;}.cls-133{fill:#9abf19;}.cls-134{fill:#cbab6a;}.cls-135{fill:#66320f;}.cls-136{fill:#c2a870;}.cls-137{fill:#eadca3;}</style></defs><g id="Laag_1-2"><path class="cls-65" d="M131.39,12.1c1.83-.07,2.83.93,3,3l1.33,1.98c-.94,3.58-1.39,7.26-1.33,11.02l2.6.37c1.62,2.21,3.8,4.13,6.57,4.59-4.95-2.79-7.86-11.13-2.17-13.96-2.7-6.76,9.28-8.95,14.82-8,26.07,4.5,17.6,45.06-3.67,51.58-9.46.83-16.09,4.08-19.89,9.76l-2.26.66c.66,2.03,1.11,4.27,1.35,6.74l2.41,6.72c.85,3.11,1.21,6.76-2.76,6.54l.76,2.17c-8.04,6.23-8.99,11.02-2.87,14.37l.11,2.46c5.57,1.6,10.65,3.08,14.93,7.26l.07,2.74c2.59.13,4.73,1.71,6.42,4.74,2.52,1.03,3.72,2.45,3.58,4.26l2.64-1.18c19.87,6.72,40.95-3.47,53.84-18.76l1.51-.05c3.07-1.22,3.07.78,0,6,1.59,2.28.6,2.9-2,2l-3,3c.53,1.96-.38,3.66-2.72,5.1,4.85-.84,9.09-.54,12.72.9,13.04-7.06,20.86-16.64,27-30,.23-.92.57-.9,1,0,1.18-.29,1.18-.95,0-2-2.65-1.63-2.12-4.08,1-4,1.79-1.34,3.2-1.38,4,1,2.09,3.63,2.42,6.3,1,8,1.12,3.86.46,4.86-2,3-2.58,11.52-12.93,25.58-27.22,31.14-.74-1.17-1.64-1.65-2.78-1.14.56,2.6-.08,2.78-2,1-1.48,2.15-4.08,2.84-5,0-6.19,1.2-12.57.95-19.14-.75l-13.94,5.16-1.92-1.41c.28,3.06-4.23,2.57-6,1-7.24,2.5-12.95,1.83-19.71-1.42-2.46-1.18-8.5-4.99-8.29-7.58-2.71-2-4.94-4.71-6.69-8.12-5.4-1.24-10.56-3.28-15.48-6.11-.37,1.58-.94,2.32-2.83,2.23l-2.25,1.03c-9.66-5.27-15.91,3.03-14.9,12.44l-1.85,1.53c.49-.02.97.01,1.37.19.82.37,5.55,15.2,3.63,16.81l-.49,2.02c-15.59,15.61,7.1,25.58,20.7,27.82l.79,2.16c2.79.09,5.46.43,8,1l1.51.52c5.88-1.02,8.83,1.93,2.49,4.48.99,2.04-.3.22-.19.24,5.91,1.27,15.15,6.83,18.19,11.76,2.94-.78,8.56-.42,9,3l3.25-.61c25.9,1.17,48.48-7.1,65.92-26.99l1.83-.4c3.44-2.77,4.96-.55,3,3-.53,5.28-5.82,10.77-11,12,.7,2.34,4.1,1.79,6,1,.91-2.17,3.44-3.2,7.58-3.08,3.05-1.73,5.52-2.04,7.42-.92,11.39-8.82,20.51-20.54,24.39-34.86l2.61-2.14c1.85-2.35,5.22.47,4,3l1.27,2.61c-3.23,7.28-5.6,14.8-7.11,22.54l-2.16,1.86c-.64,2.97-3.08,2.64-4,0-.65,2.8-1.67,3.95-3.05,3.45-6.15,7.31-14.66,12.37-23.94,14.71-6.11,1.54-10.93,1.12-16.17-1.01-8.74,2.43-17.27,6.15-25.6,11.15l-2.24-1.3c-.04,4.2-8.55,4.39-12,3-.56,1.93-1.44,1.92-2,0-10.1,3.91-23.8-.79-33-6-2.13,2.09-7.08-1.04-6-4-1.76,1.6-3.79.55-3-2-3.65-1.52-7.04-4-10.17-7.42-6.13-1.4-11.97-3.15-17.52-5.23l-.31-1.35c-4.51,3.07-12.75-4.03-14-8l-3.34-1.42c-1.77-3.1-3.99-4.63-6.66-4.58-.58.66-1.36,1.23-2.17,1.01-9.77-2.67-13.87.16-13.81,10.94l-2.02,1.05c3,.65,2.42,3.56,0,5,.09,3.47-.91,5.14-3,5-1.55.5-2.22-.5-2-3-2.92-.94-3.31-13.96-2.31-16l2.31-1c1.97-.91,3.64-2.24,5-4-.97-6.73,11.78-9.13,17.51-8.49.8-.54,10.55-15.39,7.18-16.57l1.32-1.94c-2.47-1.47-5.05-5.65-3-8-4.06-7.34.58-16.78,7.04-21.46,3-2.17,9.3-5.88,11.96-2.54,2.23-1.98,2.31-2.74,1.96-5.87l2.04-1.13,1.8-2.69c.22-4.2,2.6-7.76,7.16-10.66l-2.03-15.06c-.16-1.06.96-1.33,2.07-1.59-1.06-1.2-1.06-1.87,0-2-1.15-1.45-.82-3.11,1-5,4.42-.82,6.92-4.25,11.32-6.18,6.23-2.72,12.57-2.63,18.18-6.82,10.71-8.01,15.53-29.11,1.4-35.39-12.42-5.51-18.03,10.24-10.37,11.44,5.43.85,5.04-5.89,7.48-3.57,3.96,3.76-2.16,12.25-6.72,13.3-13.25,3.05-21.46-10.19-19.06-22.06.45-2.25,1.88-3.17,2.77-4.72Z"></path><path class="cls-8" d="M337.39,154.1c-.74,2.92.63,2.48,1.84,3.65,6.34,6.11,12.7,10.15,18.68,17.34,19.35,23.26,23.16,52.36,9.86,79.89-4.35,9.01-12.16,22.14-17.37,31.13-2.32.14-3.66-.53-4-2-.4-.25-.71-.46-.68-.58.95-3.31,1.87-.27-1.89,2.21-.24.16-.79-.17-1.44-.63-12.47,12.24-30.23,19.83-46.47,26.25-56.61,22.38-119.66,24.8-178.9,12.48-30.06-6.25-61.64-18.12-84.62-38.73l-1.47.23c-1.26-1.96-2.63-3.85-4.53-5.23.13,1.97-1.28,2.62-3,3C9.52,257.03-2.68,243.67.52,211.72c2.28-22.75,21.05-44.96,39.88-56.62,2.34-2.63,5.26,1.23,2,3,.87.28.86.62,0,1-18.49,15.3-28.09,28.31-36.13,52.43-.3.9-.8,1.44-1.87,1.57,2.74,1.06,2.94,9.11,0,10l1,7c1.74.54,1.89,2.43,0,3,9.27,31.68,33.86,50.39,62.52,64.31,61.31,29.77,141.03,28.93,206.37,11.5l6.11.19,3.07-3.13c41.41-14.01,86.44-38.31,86.93-87.87l-2.34-2.73c-1.86-19.84-13.24-36.07-28.72-47.88l-.94-3.38c-2.69,1.16-4.28-1.69-5-4-1.7-2.48.98-6.99,4-6Z"></path><path class="cls-22" d="M337.39,154.1c-1.42,1.81-2.45,4.04-4,6-2.27,8.15-10.25,18.69-18,22-.74.21-1.83.42-2.14-.09-1.71-2.79-5.64-11.48-3.86-13.91,5.32-8.94,11.92-17.2,19.8-24.79,5.95-6.53,6.69-8.6,2.2-6.21-1.51,2.26-3.18,3.93-5,5,1.54,2.54-.41,4.3-3,3-3,5.49-8.09,10.1-13,14,1.31,2.61-1.54,4.46-4,4-2.97,1.65-8.62-5.28-7-8,.88-2.56,4.5-6.07,7-7,12.92-15.16,27-28.92,42.24-41.28l7.76-7.72c.29-.55-.05-.55-1,0l-.76,2.13c-17.07,14.88-33.49,30.17-49.24,45.87-.78,2.49-4.5,6.08-7,7-2.65,1.45-3.97-.76-2-3-2.07-3.1,2.23-5.86,5-7-2.73-1.63-.78-4.65,2-3,7.6-4.37,11.31-10.4,17.99-16.51,13.87-12.71,29.6-23.65,42.53-37.47,5.06-5.41,11.01-15.91,17.49-18.51,4.88-1.96,10.01-1.87,14.02-6.98,6.55-8.35-2.87-22.55-10.61-16.61-3.81,2.93,4.27,11.27-6.92,11.19-13.83-.09-9.98-25.06,6.98-27.13,9.03-1.1,16.13,1.11,21.52,8.53,10.67,14.69,1.63,34.59-14.01,40.98-2.15.88-7.88,1.55-8.54,2.46-.71.99-.53,4.14-1.14,5.86-8.23,23.44-30.07,47.73-45.31,67.19Z"></path><path class="cls-83" d="M303.39,141.1c-1.19.68-1.42,1.91-2,3l-2.14,1.45c-14.4-6.72-15.24-5.65-2.52,3.2l-.34,2.35c.16.16.81,1.67,2,3,.95-.28,1.28.06,1,1,2.73,3.02,3.98,5.16,7,8,3.31-2.02,5.09,2.3,3,5,1.4,3.29,5.31,11.67,6,14l2.2.49c1.05,2.1,3.06,15.95-.2,16.51,2.25,2.73,3.93,8.64,0,10l1.76,1.98c-1.51,8.97-4.62,17.71-9.14,25.6l-2.62.41c-4.57,15.83-19.4,20.32-33.51,24.31l-20.19,15.9-3.3-.21c-12.33,1.84-23.7,2-36.16-.15h-10.66s-2.18-1.85-2.18-1.85c3.99-4.21,9.11-7.34,15.35-9.39,3.49-2.79,7.04-4.66,10.65-5.61,3.77-2.2,4.6,1.22,2,4l-.04,2.49c-8,3.16,7.02,4.23,10.29,2.88l1.75,1.63c9.86-2.45,17.04-7.83,24.11-14.91l2.89-.09,2.57-4.14c-.65-2.01,2.85-6.91,5.43-5.86.19-2.83,1.45-7.71,5-7,2.34-3.2,5.77-1.74,4,2,1.31,1.85.52,4.65-2.35,8.39,2.71-1.93,5.16-2.73,7.35-2.39,13.04-11.37,19.71-25.21,20.37-42.44.87-22.51-4.79-30.1-18.09-46.52-.66-.81-.54-1.98-.29-3.04l-1.73-.02c-2.28-2.99-4.76-5.85-7.61-8.31-.44-.38-1.06-.11-1.66.33,1.49,1.75,1.49,2.75,0,3,.56,2.31-.11,3.31-2,3l-4-3c-2.27-1.14-2.18-1.91.25-2.29l.75-6.71-1.96-2.4c.58-18.38-7.5-33.63-21.91-44.14l-.13-1.46c-1.57.94-2.24.94-2,0-1.31,0-3.35.52-4-1l-1.92-2.4c.05-15.55-8.04-30.43-20.08-39.6,1.02,2.93,1.04,7.72-3,5l-2.6-1.08c-4.95-10.74-12.65-20.05-21.24-28.1l-.16-2.82-1.27.2c-14.54-12.77-43.95-25.73-59.31-8.54l-2.41.35c-2.25.55-2.28-1.29-3-3,13.16-22.92,50.72-8.58,66.92,4.58,8.87,7.21,14.89,18.62,21.57,24.43,2.75,2.4,7.94,3.92,11.43,6.57,10.59,8.03,16.08,18.36,18.83,31.17.49,2.26-.28,5.55.74,7.26.35.59,9.32,5.59,11.53,7.47,5.8,4.95,12.89,14.38,15.47,21.53,1.26,3.51,2.86,15.5,4.01,16.99,1.25,1.63,19.01,5,21.51,8.99Z"></path><path class="cls-102" d="M26.39,280.1c48.05,68.94,145.59,76.45,222.68,61.43l3.32.57,3.44-2.5c35.46-9.2,66.24-23.44,87.94-53.77.66-.93,1.41-1.59,2.62-1.73,2.52.12,4.62-1,4,2-23.12,39.85-80.9,61.27-124.63,66.87-65.71,8.42-168.05-5.4-202.37-69.87,0-2.13.91-3.02,3-3Z"></path><path class="cls-3" d="M126.39,66.1c1.85,3.95-.88,4.08-1,5-4.08-1.89-8.38-5.35-11-9-14.85-9.41-30.85-18.45-48.68-21.61-.39-.07-.85.22-1.32.61,1,1.14,1.3,3.34,1,5,4.01,15.31,7.01,30.98,9,47,.84-.01,1.92.18,2.09.87,3.16,12.44,6.3,22.47,13.91,33.13l1.36.47c.1,2.55.64,4.73,1.64,6.53,1.92,2.41,2.17,5.37,3,8l-1.57,1.71c-6.25-4.36-12.69-8.51-19.32-12.44l-.11-2.27c-1.4,2.58-6.87.81-7-2-2.01-1.06-4.13-1.62-6.36-1.67l-.64-1.33c-1.55,2.07-5.69-.3-5-3-3.43-1.6-4.76-3.26-4-5,4.52-1.98,12.67.68,15,5l2.24-1.16,10.7,5.5c-4.78-6.97-8.37-14.71-10.78-23.22l.84-3.12c-3.01.2-5.01-.47-6-2-16.53,1.87-32.55,5.33-49,9-.04,1.78-1.37,2.11-4,1l-.23,2.17c8.45,7.4,15.19,15.68,20.23,24.83,4.04.09,7.51,5.86,9.2,9.11.53,1.02,1.08,1.99,1.8,2.89,2.75,1.08,5.4,3.25,7.94,6.5l17.24,14.09.83,3.41c.83,1.47-1.56,2.51-3,3-1.51,3.31-10.13-2.88-9-6l-2.63.46c-3.56-3.53-7.35-6.69-11.37-9.46.48-1.77-1.86-2.69-2-3-3.82-8.76-18.94-26.05-26.48-34.02-3.78-4-16.29-10.26-8.43-15.39,5.15-3.36,36.43-12.59,42.41-12.59h20.5c-1.97-12.33-2.87-24.92-5.32-37.18-1-4.99-4.25-12.63-4.67-16.41-.83-7.48,9.12-3.73,13.81-2.74,12.73,2.69,48.62,17.49,54.17,29.33Z"></path><path class="cls-116" d="M197.39,23.1c1.65,2.53-.27,3.5-2.88,2.7-.82-.69-20.54-12.99-19.8-11.72l7.99,6.52c-.55.83-.71,1.67-.3,2.5,6.9,2.55,11.07,12.65,13.34,19.82,4.95,15.68,4.82,28.11-4.34,41.18.17,1.24.1,2.48-.49,3.6-2.28,4.42-14.66,13.87-19.38,16.85-6.26,3.95-16.14,9.9-23.14,7.55-4.7,5.36-13.04,2.25-19,0-11.99-7.51-4.74-11.09,2-19l2.56-1.62c11.13,2.08,22.57,3.61,33.32-.72-2.54-5.12-3.13-11.04,3.27-13.13,9.49-11.12,13.76-22.22,10.42-37.09-2.04,29.07-22.31,43.81-50.67,36.35l.1-3.78c2.54-10.79,13.06-8.86,21.99-12.51,14.45-5.89,23.04-25.82,15.04-40.02-5.28-9.38-21.97-10.71-26.03-1.47-2.27,2.41-3.82,5.61-4.66,9.6l-2.34-.6c-2.62-4.75-2.16-8.16,0-13,6.13-13.71,28.85-11.2,40.52-7.02,7.46,2.67,16.42,9.76,22.48,15.02Z"></path><path class="cls-100" d="M219.39,134.1c5.32-1.74,4.8,1.76,3.16,5.68-7.1,16.95-37.04,35.14-53.87,39.38l-3.29-1.06c-3.92,4.7-12.4,5.73-18.2,4.35-7.28.43-14.55.32-21.8-.35-14.14-2.21-38.33-11.99-24.84-29.34,1.11-1.42,1.71-2.68,3.84-2.66l2.18-.3c23.65,18.05,65.94,15.44,87.4-5.59l2.52.29c3.78-2.26,7.75-4.06,11.9-5.4l.38-1.21c3.15-.4,5.9-1.18,8.62-2.79.18-.04,1.18-.74,2-1Z"></path><path class="cls-79" d="M77.39,206.1l2.36-.04c3.17,3.37,7.28,5.61,12.33,6.73l.31,2.32,5.91.42c22.83,10.11,51.3,10.45,73.19-1.17l3.9-.25c.49-2.07,2.82-3.41,7-4,.66-.06,1.35.08,2,0,7.22.55,5.38,2.89-.08,7.15-22.05,17.2-61.58,26.83-88.92,20.85-2.06,3.7-11.32-.45-14.82-2.17-8.37-4.12-17.27-11.49-15.02-21.89,1.12-5.16,7.89-14.84,11.85-7.94Z"></path><path class="cls-56" d="M171.39,139.1c2.87-1.67,4.19-.49,6-1,4.24,1.4,9.17,2.09,14.81,2.08l3.98,1.84c2.22-3.05,4.29-4.02,6.21-2.92,2.41-1.05,4.41-1.05,6,0-3.2,4.42-9.19,4.59-12.93,6.57s-9.27,7.97-14.39,10.61c-18.23,9.41-48.73,9.3-67.37,1.02-2.72-1.21-7.96-4.59-9.3-7.2-1.86-3.62-4.45-12.89-5-17,.11-1.89.51-3.13,2.52-2.68,21.52,13.04,45.41,16.68,69.48,8.68Z"></path><path class="cls-87" d="M266.39,194.1c-1.68-.76-2.39-2.68-2.14-5.74-9.62,7.24-18.49,15.23-26.62,23.96-7.25,15.44-18.77,28.68-31.18,40.42l-3.07.36c-2.63,5.03-6.41,9.56-11.35,13.59-1.31,5.46-3.53,8.26-6.65,8.41-3.09,3.6-23.79-1.03-24.12-3.52-.06-.48,0-.98.12-1.48.24-1.71,1.74-3.34,3.19-4.41,7.63-3.56,15.01-7.55,22.12-11.96l2.69.37c1.82-.9,2.86-2.14,3.11-3.73,5.51-2.54,6.58-3.86,5.89-9.27l.58-3.2c11.2-9.04,19.28-20.53,24.62-33.57l-2.31,1.95c-7.51,1.36-12.18,4.23-16.62,10.42l-2.28-.6c-3.86,2.06-6.54-5.79-6-9,6.21-2.03,18.16-10.08,22.75-10.84,3.53-.58,11.58,1.34,16.74.83,6.11-.61,15.63-4.83,20.83-8.17,2.91-1.87,8.84-8.17,10.68-8.82,3.12,1.23,3.4,14.86-1,14Z"></path><path class="cls-81" d="M94.39,192.1c2.49-3.06,10.81,1.62,11.49,5.08-5.69,10.11,9.58,14.26,8.55,1.85l1.78-.82c9.09,1.25,18.16,1.88,27.18,1.89,1.24,1,4.16,2.64,6,4,7.68,4.18,16.14,6.95,25.38,8.34l.62,1.66c-6.83,4.55-4.65,4.01-13.06,6.44-26.02,7.54-45.63,5.79-69.94-5.44,1.07-1.89,3.26-3.22,6.56-3.98-4.31-4.98-8.46-13.44-4.56-19.02Z"></path><path class="cls-134" d="M249.39,104.1c1.93.59,1.97,1.48,0,2,1.74,6.53,1.05,10.34-2.34,16.18-1.29,2.23-4.06,6.85-6.66,5.82l-2.89,1.88c-1,3.74-2.7,6.78-5.11,9.12.93,3.11-.18,6.3-3.34,9.59-3.18,4.9-8.57,12.63-13.66,14.41-4.96,5.95-12.01,14.38-20,14-10.17,7.43-21.04,14.05-32.6,19.87-2.07,2.97-4.53,4.01-7.4,3.13-6.77-3.05-12.49-7.82-18.95-11.52-.02-.27.9-.34.95-.48,2.29-1.96,4.71-1.96,7,0,5.42-1.67,11.13-2.52,17.13-2.53-.12-3.72,1.17-6.21,3.87-7.47,14.09-4.29,30.63-11.89,41.49-22.01,2.89-2.7,13.72-15.38,14.46-18.56.4-1.73.83-4.05-1.95-3.43,11.81-3.72,21.18-13.97,26.85-24.65.96-1.82.96-4.79,1.3-5.24.38-.48,1.61.04,1.85-.12Z"></path><path class="cls-130" d="M65.39,173.1c-1.82,6.14.47,11.56,0,17,1.41,4.43-1.38,8.05-8.38,10.86-9.35,7.74-22.03,26.81-17.62,39.14,2.96,1.69.71,5.3-2,3-4.71-.09-10.09-11.48-10.49-15.95l1.49-2.05c-1.5-.56-2.3-1.41-2.4-2.56l.4-17.44c-1.11-6.71,15.15-32.5,20.57-33.68.85-.18,1.7.27,2.43.68,1.44-3.12,3.45-4.23,7-5,1.66,1.24,7.61,5.74,9,6Z"></path><path class="cls-99" d="M75.39,129.1c1.34.55,7.96,4.28,9.35,5.15,4.19,2.64,7.02,7.21,11.65,7.85.53,1.7,2.4,3.21,1.87,5.29-.76,2.96-8.84,10.48-7.88,15.72-6.77-1.84-15.58.4-19.99,5.99-.74,1.21-1.4,1.55-2,1-7.29-6.69-16.71-12.9-23.54-19.96-1.67-1.73-1.66-1.89-2.46-4.04-5.3-5.99-.69-6.94,4.71-3.89l4.32-.58c7.96-4.28,15.95-8.46,23.97-12.53Z"></path><path class="cls-126" d="M196.39,207.1c3.26,2.31,2.68,7.19,6,9-.11,1.36-.49,2.66-1.32,3.76-3.48,4.61-17.79,12.95-23.55,15.89-5,2.55-20.63,9.55-25.28,9.44-1.39-.03-2.67-.32-3.85-1.08-4.28,2.75-10.54,6.32-15,3l-1.28-.29c-7.44-.06-19.54-1.82-28.87-4.34-.04-1.39-.6-2.25-1.85-2.38-1.56,3.15-7.11,1.71-6-2,31.82,2.73,67.29-6.33,92.52-25.98l-3.52-2.02c2.15-.27,9.68-2.24,12-3Z"></path><path class="cls-84" d="M130.39,73.1c-.59,3.04,1.48,1.75,3.31,2.14,24.66,5.14,39.47-4.59,44.44-28.89.43-2.1,1.56-19.3,4.76-6.28,1.92,7.82,1.24,19.38-2.31,26.73-.42.87-8.19,11.78-8.73,12.31-1.81,1.74-4.94.39-4.26,6.27s5.35,6.18-3.82,8.62c-11.93,3.17-20.6.9-32.39-.89,3.56-4.18-1.39-9.04-1.91-14.63-.31-3.24.44-3.34.91-5.37Z"></path><path class="cls-37" d="M118.39,118.1l2.4-.89c6.13,3.93,12.48,7.64,19.51,9.71l3.09,3.18c4.16,1.42,8.07,6.11,12.97,7.53,4.27,1.24,10.51,1.33,15.03,1.47-20.6,11.99-48.07,5.59-67.99-5.55-1.52-.85-1.88-2.22-4.01-.45-1.69-12.72,6.57-22.48,19-15Z"></path><path class="cls-118" d="M77.39,206.1c-3.59-3.38-8.74,4.31-9.54,6.95-4.43,14.68,15.86,24.05,27.54,25.05,1.6,1.84,3.88,1.63,6,2,4.32.71,5.59,4.5,1,5-1.91,7.66,5.83,15.97,12.44,19.52l.56,2.48,3.08-.92c13.59,4.89,27.07,3.64,40.34-1.72l1.58.63c4.27-1.44,4.61.22,1,5,5.47,3.47,17.48,4.46,24,5,1.49-1.56,2.12-.94,1,1-.92,2.87-10.8,8.78-13,5-4.75-1.77-11.33-4.5-16.94-7.06l-23.9,3.85-4.16-1.79-2.01,1.89c-20.14-1.87-31.31-14.84-36.48-33.03l-17.94-8.13-.57-2.73c-5.51,1.45-13.76-10.73-10-16-3.23-.8-2.26-6.23,1-6,.36-.85-.24-1.54-1.27-2.15,2.6-4.17,5.36-8.13,8.27-11.85-2.9.52-4.21-3.23-2-5,.84-1.77.93-4.23,3-5l2.22.67,6.08,15.48-1.3,1.85Z"></path><path class="cls-64" d="M88.39,170.1c2.27-2.15,7.14,3.93,6,6,7.56,2.34,10.45,6.53,11.39,14.18,4.89.52,8.42,2.12,10.61,4.82,7.17-1.7,17.12.16,24,3,.36.3,1.81,1.04,3,2-.7,2.29-2.58,1.94-4.44,2.06-8.28.5-15.46-2.03-23.56-2.06,3.57,11.05-11.94,10.68-13.02,2.42-.37-2.83,2.04-4.51,1.6-5.42-1.17-2.41-7.4-4.09-9.58-4.99l-1.74,1.49c-7.81-2.91-15.23-6.4-22.26-10.49.09-7.32.56-14.02,9.48-15.03,4.23-.48,5.3,0,8.52,2.03Z"></path><path class="cls-111" d="M97.39,80.1l2.63.45c5.82,7.94,9.58,17.06,13.05,26.28l-.67,3.27c-12.63,1.67-20.08,11.35-19,24-2.45-3.07-2.48,1.75-3-7-3.03-3.92-15.7-27.91-13.07-31.1.24-.3.63-.47,1.06-.62,15.91,2.51,15.49-.22,13.25-14.44,1.08-3.85,3.34-3.37,5.76-.85Z"></path><path class="cls-72" d="M283.39,154.1c1.01,3.85,1.66,7.75,1.96,11.7l-1.96,1.3c-4.16,9.67-5.47,18.58-4.88,29.06-.17,1.84-.88,3.15-2.12,3.94,2.96,4.64-.41,16.05-4,20-2.93,10.4-7.16,20.35-12.68,29.84l-2.32.16c-.28.87-.62.86-1,0-1.53.07-2.83-.62-3.92-2.08-1.95.72-3.31.41-4.08-.92l.24-4.01c11.66-18.2,21.71-39.19,20.7-61.13l2.06-1.86c.62-10.63,4.92-16.88,8-27,.36-1.18.99-2.25,2-3,2.13-.27,3.98,2.36,2,4Z"></path><path class="cls-25" d="M235.39,175.1c-18.13,20.27-43.41,32.76-71,28-.79-2.71,1.52-4.13,6.94-4.27,2.76-1.79,5.16-4.54,7.2-8.25l16.86-13.47c7.11-3.83,13.53-9.22,20-14l1.06,2.18c-4.38,6.95-9.78,13.4-16.21,19.34-.07,5.34-1.52,9.47-4.35,12.41,22.89-8.24,39.89-24.64,51.4-46.06l3.11-.87c2.11,5.15-4.05,14.88-7.65,19.31-2,3.71-4.45,5.61-7.35,5.69Z"></path><path class="cls-54" d="M265.39,142.1l1.66,3.69c-1.55,9.47-5.57,18.16-10.22,26.49,4.25,1.84,4.29,4.16.82,6.96-3.48,2.43-6.56,5.05-9.26,7.86-6.51,3.45-8.04,3.08-15,4-1.78.8-6.82,1.29-6-1,3.59-4.08,7.46-7.88,11-12l.18-3.33c8.43-10.21,15.42-21.99,17.5-35.24l2.32-2.43c3.87-5.05,8.54-.22,7,5Z"></path><path class="cls-58" d="M94.39,192.1c1.15,3.12.41,7.5,1.21,10.29,1.53,5.36,12.82,10.47-3.21,12.71-5.77-2.67-11.16-2.62-15-9-1.05-1.73-6.65-15.51-7-18-.2-1.45-.02-3.44,0-5,5.1-1.73,11.98,4.6,16.11,6.39,2.44,1.06,5.68,1.69,7.89,2.61Z"></path><path class="cls-49" d="M114.39,64.1c4.19,1.59,8.51,5.26,11,9-.6,5.53,2.67,14.37,1.84,17.28s-5.85,4.85-6.56,5.99c-1.14,1.84.11,6.73-4.27,6.73-1.77-.89-2.23-2.6-1.37-5.13-1.25,1.01-2.16.79-3.52.39-.98-.29-10.17-15.18-11.04-17.14l.93-2.12-1.96-11.6c.3-4.21,4.62-4.69,5.97-.74,1.66,15.07,7.56,9.95,2.89-1.69-.47-2.29-.73-4.06,2.1-3.97,1.78-.35,3.53,1.28,4,3Z"></path><path class="cls-96" d="M246.39,92.1c-.02.42-.92,1.93-1,4,1.5.45,1.42,1.21,0,2-.3-.02-.71-.06-1,0l-6.13,11.27c-8.18,3.41-7.62-7.99-3.87-13.27l-1.85-2.13c.82-10.69,1.25-23.44-4.15-32.87-3.7-1.16-3.91-7.42-4-11,1.1-2.07,4.86,1.64,6.4,3.1,10.29,9.8,16.46,24.56,15.6,38.9Z"></path><path class="cls-89" d="M271.39,180.1c-.2,3.44.19,6.9-.13,10.37-1.91,20.72-11.58,39.65-22.87,56.63l.23,2.18c-1.8,1.95-15.53,15.13-16.65,15.29-.94.14-1.78.09-2.58-.48.17-1.74-.16-3.48-2-4-.08-.63-.1-1.24.1-1.77.22-.58,8.32-6.49,9.9-7.23l.19-3.09c12.99-14.56,23.42-32.31,26.57-51.76l2.24-2.14c2.24-3.82.46-9.58,1-14,.89-.32,2.86.22,4,0Z"></path><path class="cls-70" d="M275.39,150.1c-3.68,15.72-12.69,29.41-27,37-1.98-.35,1.08-2.69,1.48-3.03,1.89-1.58,7.79-5.66,8.5-7.5.81-2.1-3.63-1.97-3.8-3.96-.07-.78,5.79-10.96,6.86-13.97,1.36-3.84,4.13-12.76,3.96-16.54.28-.87.62-.86,1,0,2.26,1.27,4.58,2.56,6.96,3.88.26-2.89,1.27-4.52,3.04-4.88-.12,3.53-.18,5.5-1,9Z"></path><path class="cls-23" d="M252.39,93.1l.75,1.85c18.01,12.55,17.72,24.89,15.03,45.22l-1.78,1.92h-1c-.21-4.83-2.54-5.36-7-5l-1.8-2.45c1.38-10.15-.95-19.9-5.35-29.02-.35-1.36-.3-2.87.15-4.53-1-2.41-1.12-5.4-1-8,.58,0-.34-.84,2,0Z"></path><path class="cls-90" d="M212.39,111.1c-12.74,15.91-37.88,27.87-58,20-1.05-3.49,4.97-9.52,8-12,1.33-3.39,9.63-7.66,13-6,.87.54,1.26,1.3,1.12,2.3-21.7,21.95,7.76,12.73,18.76,5.56,16.59-10.81,27.92-30.55,27.29-50.49l1.84-2.37c4.63,5.08,2.74,16.09.98,22.65-1.88,7.02-6.22,17.86-12.98,20.35Z"></path><path class="cls-45" d="M228.39,101.1c.47.17.91.37,1.22.69,1.28,1.34-4.07,15.21-5.21,17.64-2.76,5.88-3.89,6.8-7.01,8.66-6,1.17-11.7,1.22-18,.99,2.43-2.63,5.37-4.5,8-6.99l3-3c.65-.67,1.46-1.41,2-2l1.53-3.59c4.84-7.21,8.86-14.94,12.08-23.19l2.39-1.21c4.57.14,3.8,10.42,0,12Z"></path><path class="cls-135" d="M258.39,137.1c-1.51,15.58-10.13,29.5-20,41-.72-1.71-.75-3.55-3-3,7.98-8.92,10.98-13.78,15-25l-1.06-3.05c6.06-14.06,3.24-26.77.06-40.95.14-.55-.1-1.37,0-2,1.27-.84,2.09-1.06,2-3,5.69,13.74,8.57,19.81,7,36Z"></path><path class="cls-86" d="M244.39,98.1c-3.05,13.41-12.95,27.25-27,30l-.71-1.23c.99-.33,2.21-.42,2.79-1.45,2.6-4.57,7.95-19.11,8.92-24.33,1.46-2.9,3.46-4.56,6-5-.34,4.59-2.39,9.07,1.5,12.98,3.36-2.03,4.96-10.3,8.5-10.98Z"></path><path class="cls-74" d="M228.39,61.1c4.31,5.85,4.1,19.6,2.33,26.63l-2.33,1.37c-2.22,9.36-9.58,20.91-16,28l.77-5.41-.77-.59c10.5-13.11,14.48-26.5,12-43-3.27-2.15-4.79-9.57-3-13,2.52-.77,2.2-3.51,3-5,2.33,3.26,3.29,7.16,4,11Z"></path><path class="cls-112" d="M195.39,177.1c-3.34,7.17-11.27,10.37-16.52,15.98-1.72,1.84-2.25,4.58-3.94,6.06-3.56,3.14-7.82,1-10.54,3.96-4.45-.77-5.28-1.33-9-3,3.17-.77,4.69-3.89,7.11-5.39,10.78-6.65,21.83-11.64,32.89-17.61Z"></path><path class="cls-106" d="M101.39,79.1c1.75,2.6,10.43,17.94,11.5,17.98,1.75.06,1.69-5.67,1.51-6.98,4.41,1.67,2.34,8.69,1.99,13-.18,2.28.29,4.63-.1,6.9-1.28,1.24-3.42.04-3.9.1-3.23-6.5-5.04-13.37-8.47-20.03-1.91-3.71-4.34-6.56-6.53-9.97-4.8-1.39-5.96-5.49-7-10-2.69,1.23-5.79-2.63-4-5-1.95-2.24-.35-3.34,2-2,3.69-.89,13.41,11.77,13.46,14.46.01.51-.2,1.03-.46,1.54Z"></path><path class="cls-47" d="M67.39,193.1c.37.81,1.94,4.59,2,5-1.66,4.32-4.5,6.41-8.51,6.25-12.38,6.34-16.94,21.5-19.34,34.29l-2.15,1.46c-4.23-.51-3.4-5.08-2.91-8.42,1.41-9.74,10.74-24.41,17.87-31.12,4.11-3.87,10.54-4.6,11.04-10.46.68.95,1.52,1.93,2,3Z"></path><path class="cls-5" d="M112.39,184.1c5.59,1.94,14.17,2.6,18.71,4.79,3.9,1.88,6.07,6.55,9.29,9.21-7.97,0-16.23-1.22-24-3-2.86-2.21-8.94-8.7-4-11Z"></path><path class="cls-24" d="M212.39,135.1l-.31,2.26-9.69,1.74c-1.96,1.17-4.7,5.01-6.32,4.84-1.08-.11-2.5-1.59-4.23-1.8-4.2-.53-9.1-.23-13.45-1.05l-1-2.99c3.43-.97,13.62-5.52,15.63-5.72,3.44-.35,13.02,2.85,19.37,2.72Z"></path><path class="cls-77" d="M143.39,130.1c-14.46-4.93-12.67-4.58-25-12l1.48-4.95c3.99,1.51,7.66,3.69,11.54,5.42,1.88.84,4.62.75,6.3,1.7,2.64,1.51,3.9,7.29,5.68,9.82Z"></path><path class="cls-18" d="M165.39,178.1c-1.32,1.58-1.84,8.51-2.13,8.87-1.27,1.58-15.75,1.13-18.87,1.13-.36-1.36.36-2.39,2.18-3.09-4.54-.22-8.94-.86-13.18-1.91-3.34-.2-5.05-.54-8-1,14.31.67,26.32.17,40-4Z"></path><path class="cls-67" d="M98.39,176.1c4.24,4.06,8.36,6.04,14,8-1.15,5.44,4.48,6.02,4,11-1.94-.44-10.86-2.62-11.77-3.23-2.15-1.45-1.74-7.91-2.74-9.76-.23-.42-5.95-4.52-7.49-6.01-.26-2.09,1.07-2.09,4,0Z"></path><path class="cls-41" d="M148.39,112.1l1.22,1.85c-2.17,2.93,1.47,3.27,10.91,1.02,3.46.02,5.26,2.37,1.87,4.13-3.46,4.24-13.3,5.25-18,3-5.07-4.71-9.5-6.55-15-10,6.16.76,12.86,1.35,19,0Z"></path><path class="cls-27" d="M162.39,119.1c-.32,3.01-5.66,9.78-8,12-7.2-2.82-6.02-5.31-10-9,5.77-1.23,12.37-1.38,18-3Z"></path><path class="cls-88" d="M141.39,19.1c-3.09,7.05.49,12.87,8,13.5-5.1,5.54-12.04.85-15-4.5,3.94-2.35-.21-9.4,7-9Z"></path><path class="cls-115" d="M182.39,210.1c-1.83,2.13-4.79,2.53-7,4-5.99-2.4-12.52-3.04-18.55-4.95-4.49-1.42-4.73-3.04-7.45-5.05,10.64,4.23,21.43,7,33,6Z"></path><path class="cls-131" d="M133.39,183.1c4.04.24,11.04-.8,14.37.13,4.01,1.12-1.33,4.94-3.37,4.87-2.33,0-4.67,0-7,0,.56-1.63,1.01-2.58,2-3.99-.92-.61-5.19,1.06-6-1.01Z"></path><path class="cls-75" d="M217.39,135.1c-1,4.71-5.15,3.92-9,4-2,.04-4-.03-6,0,3.13-1.87,6.92-2.08,10-4,1.54-.03,3.66.26,5,0Z"></path><path class="cls-21" d="M98.39,176.1h-4c-1.95-1.9-3.4-4.35-6-6l2.5-3c2.32,2.86,4.88,6.48,7.5,9Z"></path><path class="cls-2" d="M125.39,71.1c-.08.65.07,1.35,0,2-3.68-2.92-7.26-6.16-11-9-1.2-1.32-1.2-1.99,0-2,3.71,2.95,7.52,5.76,11,9Z"></path><path class="cls-135" d="M233.39,191.1c-.09.01.13.81-1.48.97-2.16.22-4.36-.02-6.52.02-.08-1.2,1.51-1.43,2-1.99,1.12,1.77,4.12.86,6,1Z"></path><path class="cls-118" d="M65.39,173.1c.29-.98,2.09-2.39,3-3,.6-.41,1.38-.61,2-1-1.05,1.33-.63,4.81-5,4Z"></path><path class="cls-83" d="M245.39,96.1c2.17-1.01,2.75,2,1.99,3-.64.84-1.88-.99-1.99-1,.02-.67-.03-1.34,0-2Z"></path><path class="cls-74" d="M210.39,119.1l-3,3c.61-.58,2.33-2.31,3-3Z"></path><path class="cls-59" d="M370.39,218.1c-.59,3.4-1.13,6.96-1.54,10.47l-1.46.53c-18.54,60.47-93.61,81.08-150.16,86.64-4.5.44-29.74,2.07-31.8.96-2.51-1.35-2.48-1.96-.04-3.6,1.63-4.81,9.04-8.45,14-8,18.12.33,37.36-2.39,55.42-6.8,38.22-9.33,99.62-32.82,99.95-79.77.17,3.19-.96,5.38-3.38,6.57-2.69-1.97-1.58-9.85,0-13l-2.19-1.36c-3.79-13.04-10.96-24.61-21.52-34.72-1.2-4.56,6.34-15.34,10.71-11.92,19.28,15.9,29.26,27.99,32,54Z"></path><path class="cls-52" d="M43.39,160.1c4.31,2.39,7.29,5.55,8.92,9.49l-2.92,2.51c-8.79,6.26-20.26,22.53-23,33l-.45,17.37-1.55,1.63c-2.81-2.99-3.73-7.29-2.76-12.92-4.27,51.27,54.22,76.53,95.77,86.5l1.09,1.86c-1.44,6.85,4.34,7.42,6.82,1.42l2.22-.98c6.29,1.02,12.58,2.06,18.85,3.11,2.29-1.07,5.04-.59,8.27,1.44,3.29.37,5.54,1.56,6.73,3.56,2.12,2.69-2.77,4.92-4.99,5.77-11.41,4.38-47.48-5.44-58.14-8.88-40.35-13.04-77.13-36.66-92.88-76.89-.42-1.48-.75-3.15-1-5-.03-3.06-.38-7.14,0-10,2.48-3.15,4.27-7.32,5.39-12.51.76-4.01,14.1-26.81,17.02-26.82.53,0,1.05.2,1.58.45,1.12,5.36,2.54,6.4,6.97,2.85,1.44-1.16,3.9-3.93,1.34-4.86-10.2-1.45,2.29-10.24,6.7-12.12Z"></path><path class="cls-109" d="M5.39,233.1c1.26-.18,2.12.25,2.72,1.27,13.04,22.26,21.27,34.31,44.09,49.2,29.71,19.38,67.96,30.37,102.6,31.68,2.26-2.96,5.65-4.05,10.16-3.25,2.67.09,3.48-1.21,2.43-3.9l2.95-2.06c9.05-.44,17.9-2.55,26.58-5.02l3.46,1.09c1.06-.36,2.06-.36,3,0,.77,3.07-1.22,4.49-4,3-4.65,2.75-9.28,5.03-14,8,.3,1.85-.64,2.96-2.83,3.31,32.19,2.42,62.39-4.09,93.29-12.06,2.17-.56,4.33-.74,6.54-.25,2.32,1.22,1.65,2.89-2,5-50.29,16.41-113.39,17.64-165.2,6.7-39.26-8.29-104.72-37.21-109.8-82.7Z"></path><path class="cls-55" d="M342.39,285.1c.3.52.54,1.05.6,1.59.17,1.68-10.15,15.67-13.6,14.41-31.32,19.06-66.88,27.3-103,32-.18.9-.52.86-1,0-2.12-.08-4.12.26-6,1-.56,1.92-1.44,1.91-2,0-21.3.38-42.63.05-64-1l-4.38,1.51c-26.41-2.86-51.73-10.87-76.69-19.56-9.79-1.99-18.43-6.64-25.93-13.95-5-.78-11.62-9.72-14.55-14.52-.17-.28.13-.84.55-1.48,23.63,15.86,47.89,28.09,75.79,34.71,79.89,18.95,165.23,10.43,234.21-34.71Z"></path><path class="cls-26" d="M338.39,164.1c-3.48.85-9.75,7.85-8.87,11.29.28,1.1,12.48,13.81,14.69,17.39,3.32,5.36,6.58,13.03,7.18,19.32-1.23,4.49-1.89,9.15-1.98,13.97-1.14,5.5-4.41,16.01-10.02,17.03-3.29.84-4.85-8.15-3-10,3.27-11.27-9.57-23-17.45-30.13l-1.55-3.87c-.18-4.39-.82-13.04-2-17,6.6-6.82,12.13-14.58,18-22,2.87-.2,3.64,2.88,5,4Z"></path><path class="cls-113" d="M32.39,285.1c5.34,7.04,7.51,9.74,14,16,57.18,45.37,135.17,50.92,204.49,36.01l4.51.99c1.46,1.19.46,2.52-3,4-46.32,11.45-97.31,10.29-143.22-3.28-32.58-9.63-66.44-27.62-82.78-58.72,2.69.02,4.54,3.07,6,5Z"></path><path class="cls-60" d="M161.39,308.1c.85-2.76,5.19-2.85,6,0,.72,1.24,3.77.35,2.99,2.49-1.92,5.25-8.96,2.75-12.44,3.45-1.2.24.1,2.89-1.09,3.14-2.76.57-18.85-1.59-22.82-2.2-42.19-6.47-90.15-25.66-116.05-60.95-4.83-6.58-7.77-14.38-12.58-20.92-.11-.97.04-2.01,0-3-.42-.66-.52-1.32,0-2,7.54,8.87,10.26,19.45,17.97,28.53,25.78,30.33,66.54,47.22,104.76,54.24,9.5,1.75,26.76,5.56,33.27-2.77Z"></path><path class="cls-35" d="M280.39,309.1l2-5c.49-1.26,1.32-2.21,2.56-2.73,36.92-15.2,70.19-30.35,82.44-72.27.8-3.42-.03-8.36,2.97-9.67l.03-1.33c5.38,51-49.57,77.81-90,91Z"></path><path class="cls-117" d="M346.39,284.1c-14.38,30.8-63.07,50.35-94,58l3-4,3.09-2.83c11.82-3.03,23.74-7.17,34.91-11.17l.56-2.2c12.22-6.14,24.03-13.08,35.44-20.8,4.59-4.5,9.75-10.44,13-16,1.74-1.14,3.1-2.47,4.5-4,1.47.64-.1,2.13-.5,3Z"></path><path class="cls-19" d="M43.39,160.1l-10,9.5c17.83.94-7.21,21.27-6.01,5.5-1.03-1.55-13.1,19.06-13.85,20.64-2.44,5.17-3.19,10.13-5.15,14.85-.99,2.38-1.24,2.77-4,2.51,1.82-13.74,12.95-32.97,22.99-42.51,1.61-1.53,14.07-11.5,15.01-11.49,1.82-1.39,2.36-.83,1,1Z"></path><path class="cls-34" d="M56.39,167.1c.6,2.9-5.03,3.6-7,5,3.72-4.85-4.58-7.39-5.79-9.25-.62-.95-.02-2.11-.21-2.75-.18-.59,0-1.11-1-1v-1c2.09-1.66,2.42-.6,4.01.46,3.48,2.3,6.58,6,9.99,8.54Z"></path><path class="cls-109" d="M5.39,228.1c.02.67-.03,1.34,0,2-1.74-1.36-.98-4.81-1-7,1.61.84.96,3.4,1,5Z"></path><path class="cls-122" d="M398.39,36.1c4.75,1.66,8.47,11.33,7.99,16.41-.4,4.17-6.5,13.91-9.99,16.59-1.62.6-2.66.96-2-1,7.02-6.3,9.95-16.63,4.43-24.93-5.81-8.74-13.33-6.42-18.44,1.42-1.17,1.8-1.64,7.23-3.48,6.5-1.2-.48-3.21-3.11-3.51-4.57-.78-3.72.96-3.03,2-4.42,3.5-9.47,15.19-11.7,23-6Z"></path><path class="cls-119" d="M331.39,137.1c6.67-9.01,15.83-14.85,23.5-23l.49,1.48c-16.09,16.91-29.86,35.66-45.99,52.51-1.26-2.97-.32-2.48-3-5,.67-2.05,2.81-2.79,4-4,3.13-2.09,10.74-8.75,13-14,1.05-1.14,2.14-2.07,3-3,1.79-1.02,3.46-2.69,5-5Z"></path><path class="cls-15" d="M311.39,150.09c2.51-3.65,5.54-7.72,8.49-11,10.61-11.85,23.71-22.13,34.54-33.46,8.07-8.44,14.12-18.91,22.96-26.53-.05,1.99-1.44,4.34-2.55,5.94-8.76,12.48-20.88,24.16-31.96,34.04l-31.47,31.02Z"></path><path class="cls-110" d="M306.39,148.1c-1.41,1.33-1.92.77-1-1,5.06-5.1,9.31-10.98,14.47-16.03,11.35-11.1,24.74-20.51,35.53-31.97h1c-.39.44-.52,2.94-1.94,3.53l-31.07,27.96c-5.78,5.71-11.45,11.58-16.99,17.51Z"></path><path class="cls-107" d="M301.39,144.1c-.03.06.92.32.12,1.46-1.31,1.86-4.12,3.21-5.12,5.54-1.4-1.47-15.72-11.46-14-12.99,6.77.15,12.61,4.28,19,5.99Z"></path><path class="cls-71" d="M398.39,36.1c-10.24-3.58-16.39-2.79-23,6,.35-10.08,17.44-13.85,23-6Z"></path><path class="cls-101" d="M396.39,69.1c-5.5,4.23-11.02,5.18-18,4.99l16-5.99,2,1Z"></path><path class="cls-68" d="M310.39,159.1c4.42-4.52,8.71-9.35,13-14,2.36.85-.24,2.71-.99,3.52-2.87,3.09-6.03,5.99-9.01,8.98-.46.46-2.58,3.5-3,1.5Z"></path><path class="cls-121" d="M306.39,148.1c-2.23,2.39-4.01,5.34-7,7-.31-.35-.68-.65-1-1,1.55-3.01,4.81-4.79,7-7l1,1Z"></path><path class="cls-51" d="M356.39,99.1h-1c2.22-2.36,4.02-5.37,6.99-7,.02,3.28-4.29,5.08-5.99,7Z"></path><path class="cls-120" d="M326.39,142.1c1.56-1.69,2.65-3.94,5-5-1.12,1.52-1.89,4.71-4.5,5.98l-.5-.98Z"></path><path class="cls-61" d="M197.39,23.1c8.98,7.78,19.77,20.84,24,32,1.59,4.2,2.33,8.56,3,13,2.54,26.86-18.53,55.87-44.78,61.72-4.44.99-13.79,3.56-12.85-3.74.86-6.69,6.6-7.69,8.63-12.98l.61-2.54c13.91-6.13,25.61-19.42,28.12-34.67l2.27-1.78-1.71-2.99c1.2-12.15-2.28-22.56-8.61-32.75-2.95-4.74-8.92-14.08-13.68-15.26-2.97-3.09-7.8-6.07-10.53-8.97-.73-.77-2.55-2.13-.96-3.04,8.71,1.24,15.18,7.43,22.34,11.65,1.19.7,3.19,2.62,4.15.36Z"></path><path class="cls-50" d="M250.39,277.1l-1.62,3.39c-8.51,6.24-22.13,13.33-32.38,14.61l-1.22,2.75c-4.53,2.6-9.68,3.5-14.78,4.25-10.67,3.1-21.86,6.02-33,6-1.94,0-4.14.19-6,0-5.86-.59-9.87-2.57-15-5-3.44.4-10.88-.84-9-5-2.78-.77-4.8-2.92-2-5-3.34-.45-2.31-6.46,1-6-1.77-3.21,2.24-4.53,5-4,.08-.55.2-1.09.43-1.57,1.11-2.21,28.44-3.5,31.57-.43,5.76-.63,8.33-4.44,13-5,2.17-3.49,12.19-3.9,15-1,12.79-.95,17.69.42,29.74,1.75,5.02.55,10.3-1.24,15.08-1.51,1.94-.11,3.38-.68,4.17,1.77Z"></path><path class="cls-103" d="M335.39,232.1c-1.55,1.62-3.64,1.12-6.27-1.51l-1.73,1.51c2.58,1.96-2,8-3.81,10.38-22.21,29.16-43.94,37.43-77.07,48.63-.53.18-.57.33-.11.99-2.94,3.85-14.01,5.84-18,3-2.41-3.16.39-4.97,8.4-5.4,14.2-6.79,28.46-13.71,42.34-21.18,13.67-7.36,23.76-16.03,28.26-31.41,4.69-7.12,9.1-19.52,10-28,8.3-.98,12.55,4.31,16.13,11.07,1.64,3.08,5.09,9.65,1.87,11.93Z"></path><path class="cls-129" d="M281.39,239.1c-1.08,1.86-3.52,4.86-5,7-2.75.19-3.4-2.35-1.94-7.63-5.49-4.1-6.17-10.22-2.06-18.37.85-6.88,3.44-13.44,4-20,4-8.27,5.68-17.34,5.03-27.21l1.97-5.79c-.06-4.33-1.16-9.66,0-13,4.45,1.45,8.55,10.64,9.88,15.39,5.16,18.45,3.13,52.28-8.64,67.89-.76,1.01-2.08,1.4-3.25,1.72Z"></path><path class="cls-16" d="M228.39,295.1c-1.36,3.95-12.01,5.03-12,0,12.77-5.58,22.22-10.46,34-18,8.93-5.71,14.41-11.9,21.62-16.88,4.14-2.87,14.14-3.98,19.28-6.72s12.97-11.65,16.1-16.4c.31,15.46-14.97,26.62-27.32,33.18s-29,14.9-41.96,21.03c-3.78,1.79-9.26-.39-9.72,3.79Z"></path><path class="cls-125" d="M300.39,234.1l.57,1.18c-3.08,4.29-6.53,8.39-10.57,11.82-3.58,3.63-7.2,4.53-11.99,6l6.99-12-.19-3.37c8.05-13.48,10.91-29.36,11.19-44.89l2-2.74c7.86,1.29,9.62,13.52,8.63,20.64-2.21,7.82-4.43,15.61-6.63,23.36Z"></path><path class="cls-62" d="M248.39,247.1c4.93-2.11,5.8-1.12,8,3l1.71,1.5-4.82,8.5c3.6,3.51,3.41,4.88-1.33,7.23l-10.55,3.77c-1.63.24-2.57,1.13-5.51,1.07-4.39-.09-9.98-1.73-14.49-2.08,2.19-2.4,5.29-3.94,8-5.99,4.48-3.39,16.2-15.8,19-17Z"></path><path class="cls-73" d="M290.39,157.1c2.61-.85,4.41,3.42,2,5,5.72,5.45,8.22,17.26,7.91,25.03l-1.91,2.97c.23,16.86-3.32,37.01-13,51-.52-1.84-2.26-2.17-4-2,11.13-19.22,16.33-45.4,10.71-67.21-1.68-6.5-5.86-11.89-8.71-17.79-.7-1.44-1.58-1.95-2-4-.14-.7-.09-2.23,0-3,3.33-.62,9.25,6.58,9,10Z"></path><path class="cls-82" d="M237.39,251.1c-3.06,3.11-6.57,6.35-10,9-7.96,6.15-16.68,11.16-26,15-4.73.35-10.58.47-15,1-.09-.47-.55-.96-1-1,3.06-2.63,3.07-6.52,4.99-9.51s9.74-8.94,13.01-12.49l1.26.63c-1.2,18.06,15,7.33,22.28.64l2.88-.91c2.09-2.65,6.55-7.65,7.58-2.36Z"></path><path class="cls-98" d="M276.39,141.1l-1,7c-3.68.35-8.39-2.33-9-6-1.42-8.63,2.46-18.99.77-27.27-1.3-6.36-10.18-14.03-14.53-18.42-1.29-1.3-2.63-2.02-.24-3.31,5.3,1.9,15.81,13.99,18.4,19.1,4.34,8.55,5.91,19.42,5.6,28.9Z"></path><path class="cls-137" d="M276.39,246.1c-2.94,4.26-4.4,6.29-8,10l-2.17-1.68c-3.55.82-10.5.02-8.83-4.32l15-30c-.52,4.16-1.86,11.42.56,14.94.76,1.11,2.79,1.27,3.31,2.72,1.08,3.01-1.94,6.04.13,8.34Z"></path><path class="cls-95" d="M292.39,155.1c5.99,6.71,12.34,14.3,15.76,22.74,9.52,23.51,3.86,54.65-17.76,69.26,3.03-3.07,7.23-9.04,10-13l.54-3.92c10.52-21.34,8.51-50.75-8.54-68.08-.64-1.49-1.41-3.9-2-5-1.47-3.57-1.36-4.45,2-2Z"></path><path class="cls-124" d="M257.39,250.1c4.3,4.17,8.13,2.56,13,1.01l-2,4.99c-8.5,8.76-14.68,13.21-27,15,3.44-4.08,9.95-2.19,13-7.5-7.67-3.61,1.34-8.3,2-13.5h1Z"></path><path class="cls-48" d="M336.39,233.1c-1.42,1.24-1.96.66-1-1-.31-5.17-5.69-17.01-10.07-19.43-2.23-1.23-5.79-1.1-7.93-3.57.31-2.92.12-6.97,0-10,6.44,5.14,14.61,12.73,18.37,20.13,1.53,3,6.9,13.23.63,13.87Z"></path><path class="cls-39" d="M292.39,155.1c-2.13-.24-2.24-.13-2,2-1.84-3.4-5.82-7.72-9-10,.11-.88-.45-2.84,1.49-1.99,1.72.75,7.76,8.03,9.51,9.99Z"></path><path class="cls-127" d="M14.39,109.1c12.06,2.16,24.19,4.36,36.31,7.88l5.69,4.12c2.09.76,4.72,2.91,5,3,2.44,1.39,1.65,2.55-1,2l-.8,1.91c-2.47,1.52-21.62,9.27-23.6,8.59-1.52-2.13-3.05-2.97-4.6-2.49-7.35-8.44-14.95-16.71-22.99-24.52-.66-1.64,1.9-2.08,2.99-2.48,2.54-.27,3.54.39,3,2Z"></path><path class="cls-28" d="M97.39,80.1c-6.66-.59-2.84.94-2.99,4.49s.16,6.05.09,9.02c-.16,6.58-11.62,4.08-16.09,3.49-.94.9,5.15,16.06,6.26,18.23,2.94,5.75,5.3,4.46,5.73,11.77-2.78-1.5-4.27-4.14-5.71-6.79-2.82-5.19-10.15-21.97-10.29-27.21-1.75-7.24-2.41-14.24-2-21l2.78-1.01c4.39,2.12,8.8,3.22,13.22,3.3-.48-2.38.18-3.81,2-4.29,2.47,3.26,4.79,6.56,7,10Z"></path><path class="cls-13" d="M64.39,97.1c1.78.04,3.58-.08,5.36-.05,1.26.21.42,1.58.64,2.05.35,1.32-.3,2.47-1.93,3.46,3.31,5.17,5.33,10.53,6.04,16.08-1.11,1.55-5.27,2.39-7.1,2.46-4.8-2.03-10.01-3.49-15-5-8.74-.98-21.29-2.79-30-5.53-.44-.14-.75-.74-1-1.47-.12-1,.21-2,1-3,0-.64.03-1.15.19-1.2,2.49-.74,18.98-5.33,19.77-4.02l.03,4.22c4.87.66,6.72-1.04,8-4l-.13-1.32c4.62-1,9.33-1.89,14.13-2.68Z"></path><path class="cls-17" d="M60.39,126.1c2.08-1.11,6.27-.89,8,1,1.28.07,5.56,1.41,7,2,.86,4.04-6.48,5.05-9.67,6.83-5.68,3.17-12.12,8.84-18.85,8.26-2.61-.22-3.19-2.05-5.48-2.09-.31.32.72,3.25,1,3.99-4.66-3.02-7.45-7.92-11-12l.51-3.01c2.4-.04,3.52,4.07,5.81,3.86,2.57-.24,13.6-6.35,17.41-7.62,1.33-.44,4.09-1.66,5.27-1.23Z"></path><path class="cls-57" d="M67.39,121.1c2.13-.57-.18-2.89-.77-3.73-2.48-3.52-5.63-7.24-7.22-11.27l12.98,13c2.02-6.25-6.97-13.18-6.01-18.48l4.02-1.52c2.64,5.82,4.29,12.44,7.12,18.38.91,1.91,5.85,8.58,5.86,9.12.02,1.09-1.7,1.4-3.02,1.06-3.2-.81-9.32-5.03-12.96-6.57Z"></path><path class="cls-85" d="M64.39,97.1c-1.15,2.99-5.29,1.84-8.22,2.28-1.99.3-4.65,1.58-5.78,1.72l-.25,1.34c-3.38-.73-5.96.16-7.75,2.66-.68-.94-1.01-2.75-1.13-2.84-.92-.78-15.88,3.3-18.87,3.84-.04,2.32-6.45,2.52-7,0,16.39-5.7,31.51-9.43,49-9Z"></path><path class="cls-57" d="M21.39,109.1c8.38.94,17.29,4.35,25.52,4.98.83.06,1.66.04,2.48,0l-1.99-2.49c-.16-.74,1.04-.68,1.48-.49.66.29,2.57,3.72,3.52,4.99,1.29,1.73,2.81,3.2,4,5-7.6-2.76-15.76-5.42-24-7.5-6.41-1.62-12.39-.88-18-4.5.67-2.22,6.52-2.17,7,0Z"></path><path class="cls-29" d="M114.39,62.1v2c-1.21-.92-2.83-2.17-4-3l-2.03.99c-3.59-2.52-7.25-4.85-10.97-6.99-2.14-1.62-4.51-2.52-7.09-2.7l-.91-2.3-3.13.53c-6.43-2.55-12.71-5.39-18.87-8.53-.33.86-.66.86-1,0-1.24,1.23-1.55.44-2-1,.08-.78-.41-2.07.51-2.01,20.13,4.38,33.57,10.34,49.49,23.01Z"></path><path class="cls-94" d="M68.39,46.1c2.43,6.77,3.99,14.44,5.27,21.74.11.64-.07,1.34-.29,2.07s-.58,1.48-.98,2.19c1.15,7.19,1.82,14.16,2,21-4.46-15.22-6.04-31.36-9-47-.29-1.69.04-2.36,1-2,1.42-.76,2.81.56,2,2Z"></path><path class="cls-57" d="M68.39,127.1c-4.54-.25-1.92,1.25-8-1l1-2c1.33.42,5.44-1.78,7,3Z"></path><path class="cls-114" d="M15.39,106.1c.68-.08,3.94.55,7,0,1.46,2.08,1.77,3.46-1,3-2.23-.25-4.72.17-7,0-1.01-.65-2.03-1.29-3-2,1.05-.39,2.91-.88,4-1Z"></path><path class="cls-46" d="M66.39,42.1c1.1.59,1.1,1.26,0,2l-1,2c-.3-1.6-1.29-2.12-1-5,.77-.09,1.67.95,2,1Z"></path><path class="cls-40" d="M206.39,74.1c-1.42,11.5-5.35,17.76-13.03,26.47-5.89,6.68-10.21,8.63-17.97,12.53-4.04,2.03-8.7,4.76-13,6,.07-.65-.03-1.34,0-1.99-1.82-1.44-21.11,6.16-14-5.01,17.8-3.93,31.61-14.6,43-28l2.93-5.91c1.9-5.15,10.3-10.55,12.07-4.09Z"></path><path class="cls-42" d="M206.39,74.1c-7.22-3.57-11.01,5.31-15,10-.11-4.93,4.25-9.03,4.93-13.57,2.33-15.5-2.96-36.02-13.93-47.43-.38-5.17,5.51,1.92,6.03,2.47,13.36,14.35,20.39,28.89,17.97,48.53Z"></path><path class="cls-105" d="M163.12,147.26c9.87-1.53,3.87,14.77-4.62,5.15-.68-2.38,2.62-4.84,4.62-5.15Z"></path><path class="cls-33" d="M203.39,253.1c7.28-7.89,17.77-18.32,23.97-26.53,3.44-4.55,5.26-10.48,8.62-15.38,6.89-10.09,16.67-14.77,25.45-22.55,1.89-1.68,4.5-8.24,4.96-2.05.17,2.24.19,5.28,0,7.51-1.63,19.47-15.5,43.27-29,57-2.65-1.93-4.6,2.71-6.5,4.02-.88.61-2.04.35-2.97.99-6.35,4.33-13.38,12.67-21.44,8.41-5.45-2.88-3.7-6.47-3.08-11.42Z"></path><path class="cls-7" d="M202.39,216.1c2.99-2.6,4.86-6.36,8.86-8.64,3.42-1.95,7.8-1.92,9.71-3.29,3.15-2.25.76-7.41,5.42-6.08,2.86,2.77-7.91,21.01-10.18,24.32-5.23,7.62-11.02,12.64-17.81,18.69.5,3.65-4.43,8.17-8,7,.45,3.82-9.04,8.97-12,7l-4.76,1.67c-5.78,5.09-33.34,15.38-39.39,12.77-1.62-.7-10.66-12.6-4.38-14.68,5.75-4.26,11.92-7.85,18.53-10.75,22.06-5.42,36.99-13.19,54-28Z"></path><path class="cls-132" d="M189.39,254.1c-7.26,6.42-20.05,10.18-28,16-2.67-1.69,4.2-5.25-1-5,5.02-3.86,11.57-7.97,18-10,4.42-2.57,7.36-3.55,12-7,6-1.22,2.99,4.17-1,6Z"></path><path class="cls-108" d="M189.39,254.1c2.11-1.86,3.98-4.2,1-6,2.82-2.1,5.39-4.67,8-7,7.04,6.44-4.09,10.51-9,13Z"></path><path class="cls-97" d="M250.39,150.1c-4.59,5.98-7.33,12.58-12.03,18.47-3.36,4.21-13.82,14.75-18.05,17.91-5.02,3.76-20.7,11.74-26.62,13.43-6.57,1.87,2.89-6.16,3.18-6.82,1.06-2.38.26-5.5,1.31-8.7,1.23-3.79,10.37-10.7,13.21-14.06,2.07-2.45,2.85-5.6,3.99-7.22,5.71-8.05,12.88-15.01,17-24l2.64-3.3c1.01-4.34,2.8-6.9,5.36-7.7,2.18-3.58,5.32-6.18,7.18-11.31,1.39-3.84.86-7.02,1.82-10.69,8.08,16.06,6.83,27.75,1,44Z"></path><path class="cls-4" d="M240.39,128.1c-2.05,3.36-2.44,10.23-8,11,2.12-4.63,1.92-13.96,8-11Z"></path><path class="cls-32" d="M28.39,225.1c1.65,8.48,4.58,11.42,9,18,2.73-1.02,3.39.53,2,3,2.49-.95,3.82.71,4,5l3.99,1.27c23.89,23.68,56.47,33.33,88.01,40.73.03.27,1.8,4.71,2,5-1.59.78-3.31,1.54-5.12,1.47-29.74-1.1-74.53-21.71-94.49-44.47-5.18-5.91-14.87-20.16-14.86-27.92,0-1.18.76-2.2,1.47-3.08.87-2.98,3.22-1.74,4,1Z"></path><path class="cls-44" d="M69.39,198.1c.68,4.32-5.45,9.32-7,14-1.03-.82-4.51,2.65-6.07,4.6-6.93,8.62-11.77,18.78-13.78,29.67-.82,1.31-1.99.8-3.15-.27-.84-1.1-1.3-1.96-2-3,1.63-.49,1.79-1.49,2-3,1.76-12.73,7.16-30.15,19.44-37.06,2.48-1.39,4.64-.5,6.59-1.42,1.69-.8,1.27-4.13,3.97-3.52Z"></path><path class="cls-91" d="M28.39,225.1c-.76-.36-3.89-.83-4-1-1.62-2.46,1.07-15.43,2-19,1.83,6.49.68,13.17,2,20Z"></path><path class="cls-30" d="M148.39,244.1c-2.04,5.11-20.45,10.32-18.89,16.3.35,1.35,2.88,2.91,3.94,4.19.87,1.06.61,3.29,1.57,3.57,4.54,1.32,24.05-4.64,29.08-6.87,4.46-1.98,9.15-7.37,14.31-6.19-5.9,3.43-11.58,7.46-18,10-14.78,5.86-29.91,8.55-45,2l-1.83-1.81c1.14-7.27,6.6-15.22,13.83-17.19-.17-2.34,4.68-2.47,6-1,4.89-.64,10.2-1.82,15-3Z"></path><path class="cls-93" d="M101.39,240.1c10.69,1.87,17.41,4.6,28.55,5,1.92.07,4.01-1.02,3.45,2-1.89.25-4.54.94-6,1-5.52,3.12-16.63,1.04-22.94-.73l-2.06-2.27c.77-2.6,1.94-3.73-1-5Z"></path><path class="cls-12" d="M71.39,234.1c1.15,1.22,1.27,2.86.37,4.93-.54,22.91,43.63,41.07,62.39,45.42l2.24,2.65c-.64,1.02-1.15,4.67-1,6-.95,1.89-3.38.62-4.84.36-30.55-5.55-65.82-19.2-87.16-42.36-3.21-11.89,7.04-25.05,15.54-33.2l2.46.2c.34,6.61,4.9,12.28,10,16Z"></path><path class="cls-6" d="M128.39,276.1l12.74,4.74.26,2.26c-.29.12-4.83,3.73-5,4-19.57-4.94-44.05-14.42-58.02-29.48-5.56-5.99-11.76-15.58-6.98-23.52,4.81,3.51,17.99,7.46,19.97,9.53s4.36,12.64,7.19,16.81c6.28,9.25,18.85,15.35,29.84,15.66Z"></path><path class="cls-126" d="M102.39,245.1c8.16.88,16.38,3.36,25,3-5.58,6.18-11.41,9.67-12,19-8.45-3.66-15.13-12.12-16.01-21.49.1-.87,2.14-.6,3.01-.51Z"></path><path class="cls-123" d="M128.39,276.1c7.62.22,24.61-4.54,28.43-4.01.91.13,11.96,5.24,13.96,6.17,1.48.68,3.11.53,2.61,2.84-7.43.82-26.54-.31-32,2-4.41-1.9-10.29-2.38-13-7Z"></path><path class="cls-104" d="M62.39,212.1c-.63,1.91-1.1,3.96-1,6l-15.82,18.64-2.18,14.36c-2.08-2.25-2.4-2.9-4-5,4.29-1,3.88-9.19,5.24-13.26,1.83-5.46,8.47-16.55,12.81-20.19.37-.31,6.04-4.39,4.95-.55Z"></path><path class="cls-128" d="M276.39,200.1c1.04-12.14-2.39-22.54,7-33,.11,7.81.14,23.38-3.43,30.07-.87,1.62-1.36,3.02-3.57,2.93Z"></path><path class="cls-2" d="M110.39,61.1c-2.11,4.16,6.36,15.09-1.65,16.79-4.22.9-3.96-6.43-5.09-9.6-.57-1.6.54-2.68-2.25-2.19-.37,3.46,3.78,10.66,0,12.99-4.56-6.77-7.88-10.15-13-16-2.17.65-3.39-1.23-2-3-1.08-2.78,1.47-4.84,4-3,.15-1.58,1.31-1.97,3.49-1.15l3.51-.85c2.23-2.57,10.58,4.29,13,6Z"></path><path class="cls-92" d="M234.39,96.1c-1.49,2.78-2.44,4.82-6,5,.79-4.2,1.74-7.82,0-12,1.84-7.74,1.46-20.15,0-28,4.4.21,5.08,8.11,5.73,11.77,1.61,9.01.91,14.43.27,23.23Z"></path><path class="cls-46" d="M86.39,65.1c1.51,1.85,2.6,3.15,4,5v7c-6.28-.43-12.29-2.57-18-5-1.15-7.14-3.06-14.12-4.37-21.21-.33-1.78-1-3.12.37-4.79,3.47.6,17.82,14.71,18.2,17.14.09.6-.02,1.22-.2,1.86Z"></path><path class="cls-69" d="M67.39,42.1c7.57,3.54,16.83,9.88,19,18,.77.83,1.25,2.14,2,3l-2,2c-6.11-7.45-11.08-12.37-18-19-.78-.75-1.18-.78-2-2-.31-.46-1.12-1.99,0-2,.32.05.68-.07,1,0Z"></path><path class="cls-20" d="M351.39,225.1c4.57-16.55-1.93-26.36-10.4-39.1-.93-1.39-1.08-3.35-2.13-4.86-1.15-1.64-4.42-3.23-4.5-3.56-.71-2.66,1.45-2.33,1.67-2.79,1.36-2.91-.18-6.23,5.09-3.93,8.07,3.53-1.95,7.21-1.72,7.73,15.8,16.48,21.94,36.67,13.74,58.75-17.52,47.15-104.14,69.48-149.25,69.85-1.87.02-3.82.08-4.49-2.09,1.28-.76,2.82-2.02,4-3l1.04-.72c44.56-5.54,123.17-19.28,142.5-65.77.69-4.32,2.18-7.83,4.46-10.51Z"></path><path class="cls-53" d="M351.39,225.1c-5.08,53.21-105.22,76.59-148,77-1,0-2,0-3,0,5.34-1.55,10.46-4.58,16-7,3.4,2.59,8.45.38,12,0,6.75-.72,11.56-1.76,18-3l1.58-1.54c29.74-7.81,60.2-16.54,82.39-39.11l4.03-1.35c.46-4.85,2.13-7.19,5-7,5.18-7.87,6.95-10.92,8.88-20.62.7-3.51-1.13-8.23,3.12-10.38.34,3.52.34,9.48,0,13Z"></path><path class="cls-38" d="M282.39,304.1c-33.01,11.14-67.12,15.28-102,14-1.06-3.92,2.87-3.65,5-5-.56,3.03,1.53,1.92,3.45,2,49.64,1.96,138.7-18.33,166.97-63.08,4.64-7.34,7.16-15.74,11.58-22.92-9.63,41.09-47.37,62.31-85,75Z"></path><path class="cls-1" d="M24.39,224.1c4.43,28.64,33.92,48.91,58.64,59.86,17.15,7.6,35.63,12.45,54.36,14.14,1.17,1.69,6.83,3.97,9,5-4.98,3.58-14.72-2.1-19.29-1.05-1.48.34-2.26,7.32-8.47,4.32-3.95-1.91-1.48-6.36-2.28-7.23-.25-.27-5.54-.87-7.17-1.33-28.59-7.98-58.22-21.24-77.31-44.68-14.93-18.33-18.33-49.73-.48-67.03,1.94,4-1.55,4.98-2.75,7.74-5,11.44-6.13,17.99-4.23,30.26Z"></path><path class="cls-78" d="M153.39,333.1c21.35,1.06,42.68,1.39,64,1,.65-.07,1.35.07,2,0,1.81-.8,3.81-1.13,6-1,.33,0,.67,0,1,0,16.49-1.84,32.57-5.04,48.23-9.58,5.69-1.19,14-2.35,18.77.58-.65,1.83-2.23,2.07-3.74,2.76-11.46,5.18-22.17,8.28-34.26,11.24-65.07,15.96-158.42,11.76-209-37,4.6,1.07,7.49,6.26,11.43,8.07,4.53,2.08,11.11,2.61,15.8,4.2,29.41,9.98,48.18,16.27,79.77,19.73Z"></path><path class="cls-9" d="M329.39,301.1c-7.07,6.93-26.81,21.09-36,23-6.11,1.27-11.42-.28-16.38.03-5.11.33-14.56,5.11-20.2,5.88-8.96,1.22-21.54,2.84-30.41,3.09,15.44-4.51,31.71-6.05,47.2-10.3,17.54-4.81,34.53-12.69,50.43-20.58,1.81-.9,3.31-1.38,5.37-1.13Z"></path><path class="cls-9" d="M217.39,334.1c-21.15,2.16-43.21,1.28-64-1,11.44-3.86,24.08.62,35.5,1,6.7.23,15.86-1.01,23.04-1.03,1.91,0,3.93-.44,5.46,1.03Z"></path><path class="cls-9" d="M225.39,333.1c-1.88,1.37-4.01.78-6,1,2.16-3.01,4.88-1.01,6-1Z"></path><path class="cls-136" d="M327.39,232.1c.02-.3-2.19-5.05-.49-5.01,1.97-.39,1.81,2.13,2.78,2.7,1.6.95,3.97,1.01,5.71,2.31.37.28.74.61,1,1,1.91,2.85,1.55,6.97,3,10-1.73,2.63-2.79,4.56-5,7l-2.04-1.39c-.22-5.75-1.9-13.64-4.96-16.61Z"></path><path class="cls-80" d="M202.39,281.1c.63-.2,1.34-1.88,3.53-1.99,4.44-.23,6.51,2.16,1.74,4.76-9.64,5.27-26.4,8.54-37.27,10.23-.53-2.05,4.93-4.3,7-4,8.69-2.71,17.02-5.71,25-9Z"></path><path class="cls-14" d="M150.39,285.1c6.91-.99,13.92-.34,20.48-1.02,5.79-.6,11.7-3.5,17.51-2.49l-25.61,8.54c-3.11-2.83-9.03-3.43-13.38-3.03-1.68-.4-1.35-1.06,1-2Z"></path><path class="cls-76" d="M177.39,290.1c-2.19.71-6.14,3.68-7,4-6.76,2.5-16.44,4-21-2.99,3.46.88,6.54,3.63,10.31,3.66,4.61.04,11.86-4.15,16.69-5.67,1.06-.13,1.4-.08,1,1Z"></path><path class="cls-66" d="M202.39,281.1c2.43,1.05-4.22,2.93-4.48,3.02-6.84,2.43-13.92,3.82-20.52,5.98l-1-1c8.64-2.71,17.38-5.19,26-8Z"></path><path class="cls-10" d="M150.39,285.1l-1,2c-3.51.32-5.23,1.25-7.5,4-.23-5.18,4.37-5.4,8.5-6Z"></path><path class="cls-31" d="M334.39,250.1c-22.09,24.34-56.49,35.95-88,42-3.1.39-2.18-.91-.37-1.87,8.5-4.52,19.74-7.09,28.75-11.25,17.31-8,36.12-21.26,46.85-37.15.88-1.3,5.74-9.16,5.77-9.73,2.02-1.7,2.23-.34,3.22,1.28,2.76,4.54,3.71,11.42,3.78,16.72Z"></path><path class="cls-36" d="M292.39,162.1c9.99,4.62,15.09,18.98,15.98,29.52,1.37,16.03,1.3,29.24-7.98,42.48-3.05-6.69,2.33-12.52,3.94-18.56,2.68-10.01.97-18-5.94-25.44-.14-10.24-1.96-18.65-6-28Z"></path><path class="cls-43" d="M50.39,101.1l.96.59c-.22,4.66-5.76,7.85-8.96,3.41.08-7.81,5.66-3.71,8-4Z"></path><path class="cls-133" d="M67.39,42.1c8.41,1.86,15.48,4.12,22,8,.95,2.05,1.28,4.38,1,7-1.09.08-2.68,2.57-4,3-6.17-6.67-12.1-12.1-19-18Z"></path><path class="cls-11" d="M97.39,55.1c-.28.32.75,1.84-1.94,2.59-2.89.82-4.25-.65-5.06-.59-2.73-1.02-2.91-5.1-1-7,1.47.87,8.07-.26,8,5Z"></path><path class="cls-63" d="M175.4,252.08c-4.3.97-5.27,3.93-10.28,2.82-12.99-2.9,5.72-19.68,10.28-2.82Z"></path></g></svg> 